<svg width="2993" height="1288" xmlns="http://www.w3.org/2000/svg" xmlns:xlink="http://www.w3.org/1999/xlink" overflow="hidden"><defs><clipPath id="clip0"><rect x="3063" y="41" width="2993" height="1288"/></clipPath><clipPath id="clip1"><rect x="3064" y="42" width="2989" height="1284"/></clipPath><clipPath id="clip2"><rect x="3705" y="328" width="1799" height="859"/></clipPath><clipPath id="clip3"><rect x="3705" y="328" width="1799" height="859"/></clipPath><clipPath id="clip4"><rect x="3705" y="328" width="1799" height="859"/></clipPath><clipPath id="clip5"><rect x="3705" y="328" width="1799" height="859"/></clipPath><clipPath id="clip6"><rect x="3705" y="328" width="1799" height="859"/></clipPath><clipPath id="clip7"><rect x="3064" y="42" width="2989" height="1284"/></clipPath><clipPath id="clip8"><rect x="3064" y="42" width="2989" height="1284"/></clipPath><clipPath id="clip9"><rect x="3064" y="42" width="2989" height="1284"/></clipPath><clipPath id="clip10"><rect x="3064" y="42" width="2989" height="1284"/></clipPath><clipPath id="clip11"><rect x="3064" y="42" width="2989" height="1284"/></clipPath><clipPath id="clip12"><rect x="3064" y="42" width="2989" height="1284"/></clipPath><clipPath id="clip13"><rect x="3064" y="42" width="2989" height="1284"/></clipPath><clipPath id="clip14"><rect x="3064" y="42" width="2989" height="1284"/></clipPath><clipPath id="clip15"><rect x="3064" y="42" width="2989" height="1284"/></clipPath><clipPath id="clip16"><rect x="3064" y="42" width="2989" height="1284"/></clipPath><clipPath id="clip17"><rect x="3064" y="42" width="2989" height="1284"/></clipPath><clipPath id="clip18"><rect x="3064" y="42" width="2989" height="1284"/></clipPath><clipPath id="clip19"><rect x="3064" y="42" width="2989" height="1284"/></clipPath><clipPath id="clip20"><rect x="3064" y="42" width="2989" height="1284"/></clipPath><clipPath id="clip21"><rect x="3064" y="42" width="2989" height="1284"/></clipPath><clipPath id="clip22"><rect x="3064" y="42" width="2989" height="1284"/></clipPath><clipPath id="clip23"><rect x="3064" y="42" width="2989" height="1284"/></clipPath><clipPath id="clip24"><rect x="3064" y="42" width="2989" height="1284"/></clipPath><clipPath id="clip25"><rect x="3064" y="42" width="2989" height="1284"/></clipPath><clipPath id="clip26"><rect x="3064" y="42" width="2989" height="1284"/></clipPath><clipPath id="clip27"><rect x="3064" y="42" width="2989" height="1284"/></clipPath><clipPath id="clip28"><rect x="3064" y="42" width="2989" height="1284"/></clipPath><clipPath id="clip29"><rect x="3064" y="42" width="2989" height="1284"/></clipPath><clipPath id="clip30"><rect x="3064" y="42" width="2989" height="1284"/></clipPath><clipPath id="clip31"><rect x="3064" y="42" width="2989" height="1284"/></clipPath><clipPath id="clip32"><rect x="2253" y="1037" width="2476" height="144"/></clipPath><clipPath id="clip33"><rect x="3064" y="42" width="2989" height="1284"/></clipPath><clipPath id="clip34"><rect x="2253" y="1037" width="2476" height="144"/></clipPath><clipPath id="clip35"><rect x="3064" y="42" width="2989" height="1284"/></clipPath><clipPath id="clip36"><rect x="2126" y="895" width="2699" height="143"/></clipPath><clipPath id="clip37"><rect x="3064" y="42" width="2989" height="1284"/></clipPath><clipPath id="clip38"><rect x="2126" y="895" width="2699" height="143"/></clipPath><clipPath id="clip39"><rect x="3064" y="42" width="2989" height="1284"/></clipPath><clipPath id="clip40"><rect x="1540" y="752" width="3724" height="144"/></clipPath><clipPath id="clip41"><rect x="3064" y="42" width="2989" height="1284"/></clipPath><clipPath id="clip42"><rect x="1540" y="752" width="3724" height="144"/></clipPath><clipPath id="clip43"><rect x="3064" y="42" width="2989" height="1284"/></clipPath><clipPath id="clip44"><rect x="1540" y="752" width="3724" height="144"/></clipPath><clipPath id="clip45"><rect x="3064" y="42" width="2989" height="1284"/></clipPath><clipPath id="clip46"><rect x="1540" y="752" width="3724" height="144"/></clipPath><clipPath id="clip47"><rect x="3064" y="42" width="2989" height="1284"/></clipPath><clipPath id="clip48"><rect x="1999" y="609" width="2921" height="144"/></clipPath><clipPath id="clip49"><rect x="3064" y="42" width="2989" height="1284"/></clipPath><clipPath id="clip50"><rect x="1999" y="609" width="2921" height="144"/></clipPath><clipPath id="clip51"><rect x="3064" y="42" width="2989" height="1284"/></clipPath><clipPath id="clip52"><rect x="1999" y="609" width="2921" height="144"/></clipPath><clipPath id="clip53"><rect x="3064" y="42" width="2989" height="1284"/></clipPath><clipPath id="clip54"><rect x="1999" y="609" width="2921" height="144"/></clipPath><clipPath id="clip55"><rect x="3064" y="42" width="2989" height="1284"/></clipPath><clipPath id="clip56"><rect x="1999" y="467" width="2921" height="143"/></clipPath><clipPath id="clip57"><rect x="3064" y="42" width="2989" height="1284"/></clipPath><clipPath id="clip58"><rect x="1999" y="467" width="2921" height="143"/></clipPath><clipPath id="clip59"><rect x="3064" y="42" width="2989" height="1284"/></clipPath><clipPath id="clip60"><rect x="1999" y="467" width="2921" height="143"/></clipPath><clipPath id="clip61"><rect x="3064" y="42" width="2989" height="1284"/></clipPath><clipPath id="clip62"><rect x="1999" y="467" width="2921" height="143"/></clipPath><clipPath id="clip63"><rect x="3064" y="42" width="2989" height="1284"/></clipPath><clipPath id="clip64"><rect x="2228" y="324" width="2520" height="144"/></clipPath><clipPath id="clip65"><rect x="3064" y="42" width="2989" height="1284"/></clipPath><clipPath id="clip66"><rect x="2228" y="324" width="2520" height="144"/></clipPath><clipPath id="clip67"><rect x="3064" y="42" width="2989" height="1284"/></clipPath><clipPath id="clip68"><rect x="3064" y="42" width="2989" height="1284"/></clipPath><clipPath id="clip69"><rect x="3064" y="42" width="2989" height="1284"/></clipPath><clipPath id="clip70"><rect x="3064" y="42" width="2989" height="1284"/></clipPath><clipPath id="clip71"><rect x="3064" y="42" width="2989" height="1284"/></clipPath><clipPath id="clip72"><rect x="3064" y="42" width="2989" height="1284"/></clipPath><clipPath id="clip73"><rect x="3064" y="42" width="2989" height="1284"/></clipPath><clipPath id="clip74"><rect x="3064" y="42" width="2989" height="1284"/></clipPath><clipPath id="clip75"><rect x="3064" y="42" width="2989" height="1284"/></clipPath><clipPath id="clip76"><rect x="3064" y="42" width="2989" height="1284"/></clipPath><clipPath id="clip77"><rect x="3064" y="42" width="2989" height="1284"/></clipPath><clipPath id="clip78"><rect x="3064" y="42" width="2989" height="1284"/></clipPath><clipPath id="clip79"><rect x="3064" y="42" width="2990" height="1285"/></clipPath><clipPath id="clip80"><rect x="-5402" y="51" width="19893" height="406"/></clipPath><clipPath id="clip81"><rect x="3064" y="42" width="2990" height="1285"/></clipPath><clipPath id="clip82"><rect x="-5402" y="51" width="19893" height="406"/></clipPath><clipPath id="clip83"><rect x="3064" y="42" width="2990" height="1285"/></clipPath><clipPath id="clip84"><rect x="-5402" y="51" width="19893" height="406"/></clipPath><clipPath id="clip85"><rect x="3064" y="42" width="2990" height="1285"/></clipPath><clipPath id="clip86"><rect x="-5402" y="51" width="19893" height="406"/></clipPath><clipPath id="clip87"><rect x="3064" y="42" width="2990" height="1285"/></clipPath><clipPath id="clip88"><rect x="-5402" y="51" width="19893" height="406"/></clipPath><clipPath id="clip89"><rect x="3064" y="42" width="2990" height="1285"/></clipPath><clipPath id="clip90"><rect x="-5402" y="51" width="19893" height="406"/></clipPath><clipPath id="clip91"><rect x="3064" y="42" width="2990" height="1285"/></clipPath><clipPath id="clip92"><rect x="3064" y="42" width="2990" height="1285"/></clipPath><clipPath id="clip93"><rect x="3064" y="42" width="2990" height="1285"/></clipPath></defs><g clip-path="url(#clip0)" transform="translate(-3063 -41)"><rect x="3065" y="43" width="2988" height="1283" fill="#FFFFFF"/><g clip-path="url(#clip1)"><path d="M4154.64 328.5 4154.64 1184.5M4603.65 328.5 4603.65 1184.5M5052.67 328.5 5052.67 1184.5M5501.5 328.5 5501.5 1184.5" stroke="#D9D9D9" stroke-width="4.58333" stroke-linejoin="round" stroke-miterlimit="10" fill="none"/></g><g clip-path="url(#clip2)"><path d="M5457.5 446.5 3705.5 446.5 3705.5 353.5 5457.5 353.5Z" stroke="#000000" stroke-width="4.58333" stroke-linejoin="round" stroke-miterlimit="10" fill="#FFFFFF"/></g><g clip-path="url(#clip3)"><path d="M5217.67 1159.54 3705.5 1159.54 3705.5 1066.54 5217.67 1066.54ZM5473.68 1017.53 3705.5 1017.53 3705.5 923.53 5473.68 923.53ZM5486.68 874.529 3705.5 874.529 3705.5 781.526 5486.68 781.526ZM5479.68 731.524 3705.5 731.524 3705.5 638.521 5479.68 638.521ZM5370.68 589.52 3705.5 589.52 3705.5 496.516 5370.68 496.516Z" stroke="#000000" stroke-width="4.58333" stroke-linejoin="round" stroke-miterlimit="10" fill="#FFFFFF"/></g><g clip-path="url(#clip4)"><path d="M5485.5 446.5 5457.5 446.5 5457.5 353.5 5485.5 353.5Z" stroke="#000000" stroke-width="4.58333" stroke-linejoin="round" stroke-miterlimit="10" fill="#F1F8FD"/></g><g clip-path="url(#clip5)"><path d="M5406.68 1159.54 5217.67 1159.54 5217.67 1066.54 5406.68 1066.54ZM5476.68 1017.53 5473.68 1017.53 5473.68 923.53 5476.68 923.53ZM5491.68 874.529 5486.68 874.529 5486.68 781.526 5491.68 781.526ZM5493.68 731.524 5479.68 731.524 5479.68 638.521 5493.68 638.521ZM5493.68 589.52 5370.68 589.52 5370.68 496.516 5493.68 496.516Z" stroke="#000000" stroke-width="4.58333" stroke-linejoin="round" stroke-miterlimit="10" fill="#F1F8FD"/></g><g clip-path="url(#clip6)"><path d="M5501.68 1159.54 5406.68 1159.54 5406.68 1066.54 5501.68 1066.54ZM5501.68 1017.53 5476.68 1017.53 5476.68 923.53 5501.68 923.53ZM5501.68 874.529 5491.68 874.529 5491.68 781.526 5501.68 781.526ZM5501.68 731.524 5493.68 731.524 5493.68 638.521 5501.68 638.521ZM5501.68 589.52 5493.68 589.52 5493.68 496.516 5501.68 496.516ZM5501.68 446.515 5484.68 446.515 5484.68 353.512 5501.68 353.512Z" stroke="#000000" stroke-width="4.58333" stroke-linejoin="round" stroke-miterlimit="10" fill="#C2DDF6"/></g><g clip-path="url(#clip7)"><path d="M0 0 0.000360892 856" stroke="#D9D9D9" stroke-width="3.4375" stroke-linejoin="round" stroke-miterlimit="10" fill="none" fill-rule="evenodd" transform="matrix(1 0 0 -1 3705.5 1184.5)"/></g><g clip-path="url(#clip8)"><text fill="#404040" font-family="Yu Gothic,Yu Gothic_MSFontService,sans-serif" font-weight="700" font-size="55" transform="matrix(1 0 0 1 4429.99 1132)">16</text></g><g clip-path="url(#clip9)"><text fill="#404040" font-family="Yu Gothic,Yu Gothic_MSFontService,sans-serif" font-weight="700" font-size="55" transform="matrix(1 0 0 1 4542.06 989)">571</text></g><g clip-path="url(#clip10)"><text fill="#404040" font-family="Yu Gothic,Yu Gothic_MSFontService,sans-serif" font-weight="700" font-size="55" transform="matrix(1 0 0 1 4548.64 847)">363</text></g><g clip-path="url(#clip11)"><text fill="#404040" font-family="Yu Gothic,Yu Gothic_MSFontService,sans-serif" font-weight="700" font-size="55" transform="matrix(1 0 0 1 4545.14 704)">245</text></g><g clip-path="url(#clip12)"><text fill="#404040" font-family="Yu Gothic,Yu Gothic_MSFontService,sans-serif" font-weight="700" font-size="55" transform="matrix(1 0 0 1 4490.48 562)">216</text></g><g clip-path="url(#clip13)"><text fill="#404040" font-family="Yu Gothic,Yu Gothic_MSFontService,sans-serif" font-weight="700" font-size="55" transform="matrix(1 0 0 1 4518.5 419)">1411</text></g><g clip-path="url(#clip14)"><text fill="#404040" font-family="Yu Gothic,Yu Gothic_MSFontService,sans-serif" font-weight="700" font-size="55" transform="matrix(1 0 0 1 5296.4 1132)">2</text></g><g clip-path="url(#clip15)"><text fill="#404040" font-family="Yu Gothic,Yu Gothic_MSFontService,sans-serif" font-weight="700" font-size="55" transform="matrix(1 0 0 1 5454.55 916)">1</text></g><g clip-path="url(#clip16)"><text fill="#404040" font-family="Yu Gothic,Yu Gothic_MSFontService,sans-serif" font-weight="700" font-size="55" transform="matrix(1 0 0 1 5473.17 778)">1</text></g><g clip-path="url(#clip17)"><text fill="#404040" font-family="Yu Gothic,Yu Gothic_MSFontService,sans-serif" font-weight="700" font-size="55" transform="matrix(1 0 0 1 5470.95 631)">2</text></g><g clip-path="url(#clip18)"><text fill="#404040" font-family="Yu Gothic,Yu Gothic_MSFontService,sans-serif" font-weight="700" font-size="55" transform="matrix(1 0 0 1 5400.3 562)">16</text></g><g clip-path="url(#clip19)"><text fill="#404040" font-family="Yu Gothic,Yu Gothic_MSFontService,sans-serif" font-weight="700" font-size="55" transform="matrix(1 0 0 1 5439.86 346)">22</text></g><g clip-path="url(#clip20)"><text fill="#404040" font-family="Yu Gothic,Yu Gothic_MSFontService,sans-serif" font-weight="700" font-size="55" transform="matrix(1 0 0 1 5447.34 1132)">1</text></g><g clip-path="url(#clip21)"><text fill="#404040" font-family="Yu Gothic,Yu Gothic_MSFontService,sans-serif" font-weight="700" font-size="55" transform="matrix(1 0 0 1 5500.55 989)">8</text></g><g clip-path="url(#clip22)"><text fill="#404040" font-family="Yu Gothic,Yu Gothic_MSFontService,sans-serif" font-weight="700" font-size="55" transform="matrix(1 0 0 1 5508.03 847)">2</text></g><g clip-path="url(#clip23)"><text fill="#404040" font-family="Yu Gothic,Yu Gothic_MSFontService,sans-serif" font-weight="700" font-size="55" transform="matrix(1 0 0 1 5509.31 704)">1</text></g><g clip-path="url(#clip24)"><text fill="#404040" font-family="Yu Gothic,Yu Gothic_MSFontService,sans-serif" font-weight="700" font-size="55" transform="matrix(1 0 0 1 5509.08 562)">1</text></g><g clip-path="url(#clip25)"><text fill="#404040" font-family="Yu Gothic,Yu Gothic_MSFontService,sans-serif" font-weight="700" font-size="55" transform="matrix(1 0 0 1 5502.85 419)">13</text></g><g clip-path="url(#clip26)"><text fill="#595959" font-family="Yu Gothic,Yu Gothic_MSFontService,sans-serif" font-weight="500" font-size="60" transform="matrix(1 0 0 1 3664.9 1283)">0%</text></g><g clip-path="url(#clip27)"><text fill="#595959" font-family="Yu Gothic,Yu Gothic_MSFontService,sans-serif" font-weight="500" font-size="60" transform="matrix(1 0 0 1 4097.32 1283)">25%</text></g><g clip-path="url(#clip28)"><text fill="#595959" font-family="Yu Gothic,Yu Gothic_MSFontService,sans-serif" font-weight="500" font-size="60" transform="matrix(1 0 0 1 4546.27 1283)">50%</text></g><g clip-path="url(#clip29)"><text fill="#595959" font-family="Yu Gothic,Yu Gothic_MSFontService,sans-serif" font-weight="500" font-size="60" transform="matrix(1 0 0 1 4995.22 1283)">75%</text></g><g clip-path="url(#clip30)"><text fill="#595959" font-family="Yu Gothic,Yu Gothic_MSFontService,sans-serif" font-weight="500" font-size="60" transform="matrix(1 0 0 1 5427.64 1283)">100%</text></g><g clip-path="url(#clip31)"><g clip-path="url(#clip32)"><text fill="#595959" font-family="Yu Gothic,Yu Gothic_MSFontService,sans-serif" font-weight="500" font-size="57" transform="matrix(1 0 0 1 3314.42 1129)">その他</text></g></g><g clip-path="url(#clip33)"><g clip-path="url(#clip34)"><text fill="#595959" font-family="Yu Gothic,Yu Gothic_MSFontService,sans-serif" font-weight="500" font-size="57" transform="matrix(1 0 0 1 3486.29 1129)">(n=19)</text></g></g><g clip-path="url(#clip35)"><g clip-path="url(#clip36)"><text fill="#595959" font-family="Yu Gothic,Yu Gothic_MSFontService,sans-serif" font-weight="500" font-size="57" transform="matrix(1 0 0 1 3282.61 986)">大学院</text></g></g><g clip-path="url(#clip37)"><g clip-path="url(#clip38)"><text fill="#595959" font-family="Yu Gothic,Yu Gothic_MSFontService,sans-serif" font-weight="500" font-size="57" transform="matrix(1 0 0 1 3454.48 986)">(n=580)</text></g></g><g clip-path="url(#clip39)"><g clip-path="url(#clip40)"><text fill="#595959" font-family="Yu Gothic,Yu Gothic_MSFontService,sans-serif" font-weight="500" font-size="57" transform="matrix(1 0 0 1 3136.22 844)">学部</text></g></g><g clip-path="url(#clip41)"><g clip-path="url(#clip42)"><text fill="#595959" font-family="Yu Gothic,Yu Gothic_MSFontService,sans-serif" font-weight="500" font-size="57" transform="matrix(1 0 0 1 3250.8 844)">3</text></g></g><g clip-path="url(#clip43)"><g clip-path="url(#clip44)"><text fill="#595959" font-family="Yu Gothic,Yu Gothic_MSFontService,sans-serif" font-weight="500" font-size="57" transform="matrix(1 0 0 1 3282.61 844)">年以上</text></g></g><g clip-path="url(#clip45)"><g clip-path="url(#clip46)"><text fill="#595959" font-family="Yu Gothic,Yu Gothic_MSFontService,sans-serif" font-weight="500" font-size="57" transform="matrix(1 0 0 1 3454.48 844)">(n=366)</text></g></g><g clip-path="url(#clip47)"><g clip-path="url(#clip48)"><text fill="#595959" font-family="Yu Gothic,Yu Gothic_MSFontService,sans-serif" font-weight="500" font-size="57" transform="matrix(1 0 0 1 3250.8 701)">学部</text></g></g><g clip-path="url(#clip49)"><g clip-path="url(#clip50)"><text fill="#595959" font-family="Yu Gothic,Yu Gothic_MSFontService,sans-serif" font-weight="500" font-size="57" transform="matrix(1 0 0 1 3365.38 701)">2</text></g></g><g clip-path="url(#clip51)"><g clip-path="url(#clip52)"><text fill="#595959" font-family="Yu Gothic,Yu Gothic_MSFontService,sans-serif" font-weight="500" font-size="57" transform="matrix(1 0 0 1 3397.19 701)">年</text></g></g><g clip-path="url(#clip53)"><g clip-path="url(#clip54)"><text fill="#595959" font-family="Yu Gothic,Yu Gothic_MSFontService,sans-serif" font-weight="500" font-size="57" transform="matrix(1 0 0 1 3454.48 701)">(n=248)</text></g></g><g clip-path="url(#clip55)"><g clip-path="url(#clip56)"><text fill="#595959" font-family="Yu Gothic,Yu Gothic_MSFontService,sans-serif" font-weight="500" font-size="57" transform="matrix(1 0 0 1 3250.8 559)">学部</text></g></g><g clip-path="url(#clip57)"><g clip-path="url(#clip58)"><text fill="#595959" font-family="Yu Gothic,Yu Gothic_MSFontService,sans-serif" font-weight="500" font-size="57" transform="matrix(1 0 0 1 3365.38 559)">1</text></g></g><g clip-path="url(#clip59)"><g clip-path="url(#clip60)"><text fill="#595959" font-family="Yu Gothic,Yu Gothic_MSFontService,sans-serif" font-weight="500" font-size="57" transform="matrix(1 0 0 1 3397.19 559)">年</text></g></g><g clip-path="url(#clip61)"><g clip-path="url(#clip62)"><text fill="#595959" font-family="Yu Gothic,Yu Gothic_MSFontService,sans-serif" font-weight="500" font-size="57" transform="matrix(1 0 0 1 3454.48 559)">(n=233)</text></g></g><g clip-path="url(#clip63)"><g clip-path="url(#clip64)"><text fill="#595959" font-family="Yu Gothic,Yu Gothic_MSFontService,sans-serif" font-weight="500" font-size="57" transform="matrix(1 0 0 1 3308.09 416)">全体</text></g></g><g clip-path="url(#clip65)"><g clip-path="url(#clip66)"><text fill="#595959" font-family="Yu Gothic,Yu Gothic_MSFontService,sans-serif" font-weight="500" font-size="57" transform="matrix(1 0 0 1 3422.67 416)">(n=1446)</text></g></g><g clip-path="url(#clip67)"><rect x="5659.5" y="621.5" width="32" height="31.9999" stroke="#000000" stroke-width="4.58333" stroke-linejoin="round" stroke-miterlimit="10" fill="#FFFFFF"/></g><g clip-path="url(#clip68)"><text fill="#595959" font-family="Yu Gothic,Yu Gothic_MSFontService,sans-serif" font-weight="500" font-size="55" transform="matrix(1 0 0 1 5705.58 653)">1</text></g><g clip-path="url(#clip69)"><text fill="#595959" font-family="Yu Gothic,Yu Gothic_MSFontService,sans-serif" font-weight="500" font-size="55" transform="matrix(1 0 0 1 5736.1 653)">未満</text></g><g clip-path="url(#clip70)"><rect x="5659.5" y="719.5" width="32" height="31.9999" stroke="#000000" stroke-width="4.58333" stroke-linejoin="round" stroke-miterlimit="10" fill="#F1F8FD"/></g><g clip-path="url(#clip71)"><text fill="#595959" font-family="Yu Gothic,Yu Gothic_MSFontService,sans-serif" font-weight="500" font-size="55" transform="matrix(1 0 0 1 5705.58 750)">1</text></g><g clip-path="url(#clip72)"><text fill="#595959" font-family="Yu Gothic,Yu Gothic_MSFontService,sans-serif" font-weight="500" font-size="55" transform="matrix(1 0 0 1 5736.1 750)">以上</text></g><g clip-path="url(#clip73)"><text fill="#595959" font-family="Yu Gothic,Yu Gothic_MSFontService,sans-serif" font-weight="500" font-size="55" transform="matrix(1 0 0 1 5846.1 750)">-</text></g><g clip-path="url(#clip74)"><text fill="#595959" font-family="Yu Gothic,Yu Gothic_MSFontService,sans-serif" font-weight="500" font-size="55" transform="matrix(1 0 0 1 5869.66 750)">3</text></g><g clip-path="url(#clip75)"><text fill="#595959" font-family="Yu Gothic,Yu Gothic_MSFontService,sans-serif" font-weight="500" font-size="55" transform="matrix(1 0 0 1 5900.19 750)">未満</text></g><g clip-path="url(#clip76)"><rect x="5659.5" y="816.5" width="32" height="31.9999" stroke="#000000" stroke-width="4.58333" stroke-linejoin="round" stroke-miterlimit="10" fill="#C2DDF6"/></g><g clip-path="url(#clip77)"><text fill="#595959" font-family="Yu Gothic,Yu Gothic_MSFontService,sans-serif" font-weight="500" font-size="55" transform="matrix(1 0 0 1 5705.58 848)">3</text></g><g clip-path="url(#clip78)"><text fill="#595959" font-family="Yu Gothic,Yu Gothic_MSFontService,sans-serif" font-weight="500" font-size="55" transform="matrix(1 0 0 1 5736.1 848)">以上</text></g><rect x="3065.5" y="43.5002" width="2988" height="1283" stroke="#000000" stroke-width="4.58333" stroke-linejoin="round" stroke-miterlimit="10" fill="none"/><g clip-path="url(#clip79)"><g clip-path="url(#clip80)"><text font-family="Yu Gothic,Yu Gothic_MSFontService,sans-serif" font-weight="500" font-size="73" transform="matrix(1 0 0 1 3123.88 155)">【授業形式】</text></g></g><g clip-path="url(#clip81)"><g clip-path="url(#clip82)"><text font-family="Yu Gothic,Yu Gothic_MSFontService,sans-serif" font-weight="500" font-size="73" transform="matrix(1 0 0 1 3563.88 155)">4.</text></g></g><g clip-path="url(#clip83)"><g clip-path="url(#clip84)"><text font-family="Yu Gothic,Yu Gothic_MSFontService,sans-serif" font-weight="500" font-size="73" transform="matrix(1 0 0 1 3623.57 155)">コールセンター方式（ほぼ全員の学生が</text></g></g><g clip-path="url(#clip85)"><g clip-path="url(#clip86)"><text font-family="Yu Gothic,Yu Gothic_MSFontService,sans-serif" font-weight="500" font-size="73" transform="matrix(1 0 0 1 4943.57 155)">PC</text></g></g><g clip-path="url(#clip87)"><g clip-path="url(#clip88)"><text font-family="Yu Gothic,Yu Gothic_MSFontService,sans-serif" font-weight="500" font-size="73" transform="matrix(1 0 0 1 5042.23 155)">を持って教室に集まり</text></g></g><g clip-path="url(#clip89)"><g clip-path="url(#clip90)"><text font-family="Yu Gothic,Yu Gothic_MSFontService,sans-serif" font-weight="500" font-size="73" transform="matrix(1 0 0 1 5775.56 155)">Zoom</text></g></g><g clip-path="url(#clip91)"><text font-family="Yu Gothic,Yu Gothic_MSFontService,sans-serif" font-weight="500" font-size="73" transform="matrix(1 0 0 1 3123.88 278)">などに接続する授業）</text></g><g clip-path="url(#clip92)"><text font-family="Yu Gothic,Yu Gothic_MSFontService,sans-serif" font-weight="400" font-size="55" transform="matrix(1 0 0 1 5679.62 519)">平均コマ数</text></g><g clip-path="url(#clip93)"><path d="M5680.02 524.841 5748.77 524.841 5817.52 524.841 5886.27 524.841 5955.02 524.841 5955.02 527.841 5886.27 527.841 5817.52 527.841 5748.77 527.841 5680.02 527.841Z" fill-rule="evenodd"/></g></g></svg>