<svg width="2993" height="1159" xmlns="http://www.w3.org/2000/svg" xmlns:xlink="http://www.w3.org/1999/xlink" overflow="hidden"><defs><clipPath id="clip0"><rect x="2715" y="373" width="2993" height="1159"/></clipPath><clipPath id="clip1"><rect x="2717" y="374" width="2988" height="1154"/></clipPath><clipPath id="clip2"><rect x="3357" y="530" width="1584" height="874"/></clipPath><clipPath id="clip3"><rect x="3357" y="530" width="1584" height="874"/></clipPath><clipPath id="clip4"><rect x="3357" y="530" width="1584" height="874"/></clipPath><clipPath id="clip5"><rect x="3357" y="530" width="1584" height="874"/></clipPath><clipPath id="clip6"><rect x="3357" y="530" width="1584" height="874"/></clipPath><clipPath id="clip7"><rect x="3357" y="530" width="1584" height="874"/></clipPath><clipPath id="clip8"><rect x="3357" y="530" width="1584" height="874"/></clipPath><clipPath id="clip9"><rect x="2717" y="374" width="2988" height="1154"/></clipPath><clipPath id="clip10"><rect x="2717" y="374" width="2988" height="1154"/></clipPath><clipPath id="clip11"><rect x="2717" y="374" width="2988" height="1154"/></clipPath><clipPath id="clip12"><rect x="2717" y="374" width="2988" height="1154"/></clipPath><clipPath id="clip13"><rect x="2717" y="374" width="2988" height="1154"/></clipPath><clipPath id="clip14"><rect x="2717" y="374" width="2988" height="1154"/></clipPath><clipPath id="clip15"><rect x="2717" y="374" width="2988" height="1154"/></clipPath><clipPath id="clip16"><rect x="2717" y="374" width="2988" height="1154"/></clipPath><clipPath id="clip17"><rect x="2717" y="374" width="2988" height="1154"/></clipPath><clipPath id="clip18"><rect x="2717" y="374" width="2988" height="1154"/></clipPath><clipPath id="clip19"><rect x="2717" y="374" width="2988" height="1154"/></clipPath><clipPath id="clip20"><rect x="2717" y="374" width="2988" height="1154"/></clipPath><clipPath id="clip21"><rect x="2717" y="374" width="2988" height="1154"/></clipPath><clipPath id="clip22"><rect x="2717" y="374" width="2988" height="1154"/></clipPath><clipPath id="clip23"><rect x="2717" y="374" width="2988" height="1154"/></clipPath><clipPath id="clip24"><rect x="2717" y="374" width="2988" height="1154"/></clipPath><clipPath id="clip25"><rect x="2717" y="374" width="2988" height="1154"/></clipPath><clipPath id="clip26"><rect x="2717" y="374" width="2988" height="1154"/></clipPath><clipPath id="clip27"><rect x="2717" y="374" width="2988" height="1154"/></clipPath><clipPath id="clip28"><rect x="2717" y="374" width="2988" height="1154"/></clipPath><clipPath id="clip29"><rect x="2717" y="374" width="2988" height="1154"/></clipPath><clipPath id="clip30"><rect x="2717" y="374" width="2988" height="1154"/></clipPath><clipPath id="clip31"><rect x="2717" y="374" width="2988" height="1154"/></clipPath><clipPath id="clip32"><rect x="2717" y="374" width="2988" height="1154"/></clipPath><clipPath id="clip33"><rect x="2717" y="374" width="2988" height="1154"/></clipPath><clipPath id="clip34"><rect x="2717" y="374" width="2988" height="1154"/></clipPath><clipPath id="clip35"><rect x="2717" y="374" width="2988" height="1154"/></clipPath><clipPath id="clip36"><rect x="2717" y="374" width="2988" height="1154"/></clipPath><clipPath id="clip37"><rect x="2717" y="374" width="2988" height="1154"/></clipPath><clipPath id="clip38"><rect x="2717" y="374" width="2988" height="1154"/></clipPath><clipPath id="clip39"><rect x="2717" y="374" width="2988" height="1154"/></clipPath><clipPath id="clip40"><rect x="2717" y="374" width="2988" height="1154"/></clipPath><clipPath id="clip41"><rect x="2717" y="374" width="2988" height="1154"/></clipPath><clipPath id="clip42"><rect x="2717" y="374" width="2988" height="1154"/></clipPath><clipPath id="clip43"><rect x="2717" y="374" width="2988" height="1154"/></clipPath><clipPath id="clip44"><rect x="2717" y="374" width="2988" height="1154"/></clipPath><clipPath id="clip45"><rect x="2717" y="374" width="2988" height="1154"/></clipPath><clipPath id="clip46"><rect x="1905" y="1251" width="2477" height="146"/></clipPath><clipPath id="clip47"><rect x="2717" y="374" width="2988" height="1154"/></clipPath><clipPath id="clip48"><rect x="1905" y="1251" width="2477" height="146"/></clipPath><clipPath id="clip49"><rect x="2717" y="374" width="2988" height="1154"/></clipPath><clipPath id="clip50"><rect x="1778" y="1106" width="2699" height="146"/></clipPath><clipPath id="clip51"><rect x="2717" y="374" width="2988" height="1154"/></clipPath><clipPath id="clip52"><rect x="1778" y="1106" width="2699" height="146"/></clipPath><clipPath id="clip53"><rect x="2717" y="374" width="2988" height="1154"/></clipPath><clipPath id="clip54"><rect x="1192" y="961" width="3724" height="146"/></clipPath><clipPath id="clip55"><rect x="2717" y="374" width="2988" height="1154"/></clipPath><clipPath id="clip56"><rect x="1192" y="961" width="3724" height="146"/></clipPath><clipPath id="clip57"><rect x="2717" y="374" width="2988" height="1154"/></clipPath><clipPath id="clip58"><rect x="1192" y="961" width="3724" height="146"/></clipPath><clipPath id="clip59"><rect x="2717" y="374" width="2988" height="1154"/></clipPath><clipPath id="clip60"><rect x="1192" y="961" width="3724" height="146"/></clipPath><clipPath id="clip61"><rect x="2717" y="374" width="2988" height="1154"/></clipPath><clipPath id="clip62"><rect x="1651" y="816" width="2921" height="146"/></clipPath><clipPath id="clip63"><rect x="2717" y="374" width="2988" height="1154"/></clipPath><clipPath id="clip64"><rect x="1651" y="816" width="2921" height="146"/></clipPath><clipPath id="clip65"><rect x="2717" y="374" width="2988" height="1154"/></clipPath><clipPath id="clip66"><rect x="1651" y="816" width="2921" height="146"/></clipPath><clipPath id="clip67"><rect x="2717" y="374" width="2988" height="1154"/></clipPath><clipPath id="clip68"><rect x="1651" y="816" width="2921" height="146"/></clipPath><clipPath id="clip69"><rect x="2717" y="374" width="2988" height="1154"/></clipPath><clipPath id="clip70"><rect x="1651" y="671" width="2921" height="146"/></clipPath><clipPath id="clip71"><rect x="2717" y="374" width="2988" height="1154"/></clipPath><clipPath id="clip72"><rect x="1651" y="671" width="2921" height="146"/></clipPath><clipPath id="clip73"><rect x="2717" y="374" width="2988" height="1154"/></clipPath><clipPath id="clip74"><rect x="1651" y="671" width="2921" height="146"/></clipPath><clipPath id="clip75"><rect x="2717" y="374" width="2988" height="1154"/></clipPath><clipPath id="clip76"><rect x="1651" y="671" width="2921" height="146"/></clipPath><clipPath id="clip77"><rect x="2717" y="374" width="2988" height="1154"/></clipPath><clipPath id="clip78"><rect x="1880" y="526" width="2521" height="146"/></clipPath><clipPath id="clip79"><rect x="2717" y="374" width="2988" height="1154"/></clipPath><clipPath id="clip80"><rect x="1880" y="526" width="2521" height="146"/></clipPath><clipPath id="clip81"><rect x="2717" y="374" width="2988" height="1154"/></clipPath><clipPath id="clip82"><rect x="2717" y="374" width="2988" height="1154"/></clipPath><clipPath id="clip83"><rect x="2717" y="374" width="2988" height="1154"/></clipPath><clipPath id="clip84"><rect x="2717" y="374" width="2988" height="1154"/></clipPath><clipPath id="clip85"><rect x="2717" y="374" width="2988" height="1154"/></clipPath><clipPath id="clip86"><rect x="2717" y="374" width="2988" height="1154"/></clipPath><clipPath id="clip87"><rect x="2717" y="374" width="2988" height="1154"/></clipPath><clipPath id="clip88"><rect x="2717" y="374" width="2988" height="1154"/></clipPath><clipPath id="clip89"><rect x="2717" y="374" width="2988" height="1154"/></clipPath><clipPath id="clip90"><rect x="2717" y="374" width="2988" height="1154"/></clipPath><clipPath id="clip91"><rect x="2717" y="374" width="2988" height="1154"/></clipPath><clipPath id="clip92"><rect x="2717" y="374" width="2988" height="1154"/></clipPath><clipPath id="clip93"><rect x="2717" y="374" width="2989" height="1155"/></clipPath><clipPath id="clip94"><rect x="-3406" y="382" width="14425" height="365"/></clipPath><clipPath id="clip95"><rect x="2717" y="374" width="2989" height="1155"/></clipPath><clipPath id="clip96"><rect x="-3406" y="382" width="14425" height="365"/></clipPath><clipPath id="clip97"><rect x="2717" y="374" width="2989" height="1155"/></clipPath><clipPath id="clip98"><rect x="-3406" y="382" width="14425" height="365"/></clipPath><clipPath id="clip99"><rect x="2717" y="374" width="2989" height="1155"/></clipPath><clipPath id="clip100"><rect x="2717" y="374" width="2989" height="1155"/></clipPath><clipPath id="clip101"><rect x="2717" y="374" width="2989" height="1155"/></clipPath><clipPath id="clip102"><rect x="4730" y="532" width="884" height="110"/></clipPath><clipPath id="clip103"><rect x="2717" y="374" width="2989" height="1155"/></clipPath><clipPath id="clip104"><rect x="2717" y="374" width="2989" height="1155"/></clipPath><clipPath id="clip105"><rect x="2717" y="374" width="2989" height="1155"/></clipPath><clipPath id="clip106"><rect x="2717" y="374" width="2989" height="1155"/></clipPath><clipPath id="clip107"><rect x="2717" y="374" width="2989" height="1155"/></clipPath><clipPath id="clip108"><rect x="2717" y="374" width="2989" height="1155"/></clipPath><clipPath id="clip109"><rect x="4162" y="1350" width="2022" height="179"/></clipPath><clipPath id="clip110"><rect x="2717" y="374" width="2989" height="1155"/></clipPath><clipPath id="clip111"><rect x="4162" y="1350" width="2022" height="179"/></clipPath></defs><g clip-path="url(#clip0)" transform="translate(-2715 -373)"><rect x="2717" y="375" width="2988" height="1154" fill="#FFFFFF"/><g clip-path="url(#clip1)"><path d="M3752.62 530.5 3752.62 1400.5M4147.64 530.5 4147.64 1400.5M4542.65 530.5 4542.65 1400.5M4937.5 530.5 4937.5 1400.5" stroke="#D9D9D9" stroke-width="4.58333" stroke-linejoin="round" stroke-miterlimit="10" fill="none"/></g><g clip-path="url(#clip2)"><path d="M3861.5 650.5 3357.5 650.5 3357.5 555.5 3861.5 555.5Z" stroke="#000000" stroke-width="4.58333" stroke-linejoin="round" stroke-miterlimit="10" fill="#FFFFFF"/></g><g clip-path="url(#clip3)"><path d="M3989.63 1375.55 3357.5 1375.55 3357.5 1280.54 3989.63 1280.54ZM3756.62 1230.54 3357.5 1230.54 3357.5 1135.54 3756.62 1135.54ZM3816.63 1085.54 3357.5 1085.54 3357.5 990.533 3816.63 990.533ZM3938.63 940.531 3357.5 940.531 3357.5 845.528 3938.63 845.528ZM3916.63 795.526 3357.5 795.526 3357.5 700.523 3916.63 700.523Z" stroke="#000000" stroke-width="4.58333" stroke-linejoin="round" stroke-miterlimit="10" fill="#FFFFFF"/></g><g clip-path="url(#clip4)"><path d="M4599.5 650.5 3861.5 650.5 3861.5 555.5 4599.5 555.5Z" stroke="#000000" stroke-width="4.58333" stroke-linejoin="round" stroke-miterlimit="10" fill="#DEEBF7"/></g><g clip-path="url(#clip5)"><path d="M4305.64 1375.55 3989.63 1375.55 3989.63 1280.54 4305.64 1280.54ZM4505.65 1230.54 3756.62 1230.54 3756.62 1135.54 4505.65 1135.54ZM4560.65 1085.54 3816.63 1085.54 3816.63 990.533 4560.65 990.533ZM4744.66 940.531 3938.63 940.531 3938.63 845.528 4744.66 845.528ZM4641.65 795.526 3916.63 795.526 3916.63 700.523 4641.65 700.523Z" stroke="#000000" stroke-width="4.58333" stroke-linejoin="round" stroke-miterlimit="10" fill="#DEEBF7"/></g><g clip-path="url(#clip6)"><path d="M4754.66 1230.54 4505.65 1230.54 4505.65 1135.54 4754.66 1135.54ZM4754.66 1085.54 4560.65 1085.54 4560.65 990.533 4754.66 990.533ZM4841.66 940.531 4744.66 940.531 4744.66 845.528 4841.66 845.528ZM4861.66 795.526 4641.65 795.526 4641.65 700.523 4861.66 700.523ZM4804.66 650.521 4599.65 650.521 4599.65 555.518 4804.66 555.518Z" stroke="#000000" stroke-width="4.58333" stroke-linejoin="round" stroke-miterlimit="10" fill="#9DC3E6"/></g><g clip-path="url(#clip7)"><path d="M4621.65 1375.55 4305.64 1375.55 4305.64 1280.54 4621.65 1280.54ZM4821.66 1230.54 4754.66 1230.54 4754.66 1135.54 4821.66 1135.54ZM4856.66 1085.54 4754.66 1085.54 4754.66 990.533 4856.66 990.533ZM4873.66 940.531 4841.66 940.531 4841.66 845.528 4873.66 845.528ZM4930.66 795.526 4861.66 795.526 4861.66 700.523 4930.66 700.523ZM4881.66 650.521 4804.66 650.521 4804.66 555.518 4881.66 555.518Z" stroke="#000000" stroke-width="4.58333" stroke-linejoin="round" stroke-miterlimit="10" fill="#4CA0E6"/></g><g clip-path="url(#clip8)"><path d="M4937.66 1375.55 4621.65 1375.55 4621.65 1280.54 4937.66 1280.54ZM4937.66 1230.54 4821.66 1230.54 4821.66 1135.54 4937.66 1135.54ZM4937.66 1085.54 4856.66 1085.54 4856.66 990.533 4937.66 990.533ZM4937.66 940.531 4873.66 940.531 4873.66 845.528 4937.66 845.528ZM4937.66 795.526 4930.66 795.526 4930.66 700.523 4937.66 700.523ZM4937.66 650.521 4881.66 650.521 4881.66 555.518 4937.66 555.518Z" stroke="#000000" stroke-width="4.58333" stroke-linejoin="round" stroke-miterlimit="10" fill="#095085"/></g><g clip-path="url(#clip9)"><path d="M0 0 0.000360892 870" stroke="#D9D9D9" stroke-width="3.4375" stroke-linejoin="round" stroke-miterlimit="10" fill="none" fill-rule="evenodd" transform="matrix(1 0 0 -1 3357.5 1400.5)"/></g><g clip-path="url(#clip10)"><text fill="#404040" font-family="Yu Gothic,Yu Gothic_MSFontService,sans-serif" font-weight="700" font-size="55" transform="matrix(1 0 0 1 3657.91 1347)">2</text></g><g clip-path="url(#clip11)"><text fill="#404040" font-family="Yu Gothic,Yu Gothic_MSFontService,sans-serif" font-weight="700" font-size="55" transform="matrix(1 0 0 1 3525.69 1202)">24</text></g><g clip-path="url(#clip12)"><text fill="#404040" font-family="Yu Gothic,Yu Gothic_MSFontService,sans-serif" font-weight="700" font-size="55" transform="matrix(1 0 0 1 3555.48 1057)">45</text></g><g clip-path="url(#clip13)"><text fill="#404040" font-family="Yu Gothic,Yu Gothic_MSFontService,sans-serif" font-weight="700" font-size="55" transform="matrix(1 0 0 1 3616.34 912)">18</text></g><g clip-path="url(#clip14)"><text fill="#404040" font-family="Yu Gothic,Yu Gothic_MSFontService,sans-serif" font-weight="700" font-size="55" transform="matrix(1 0 0 1 3605.57 767)">81</text></g><g clip-path="url(#clip15)"><text fill="#404040" font-family="Yu Gothic,Yu Gothic_MSFontService,sans-serif" font-weight="700" font-size="55" transform="matrix(1 0 0 1 3562.33 622)">170</text></g><g clip-path="url(#clip16)"><text fill="#404040" font-family="Yu Gothic,Yu Gothic_MSFontService,sans-serif" font-weight="700" font-size="55" transform="matrix(1 0 0 1 4132.03 1347)">1</text></g><g clip-path="url(#clip17)"><text fill="#404040" font-family="Yu Gothic,Yu Gothic_MSFontService,sans-serif" font-weight="700" font-size="55" transform="matrix(1 0 0 1 4099.63 1202)">45</text></g><g clip-path="url(#clip18)"><text fill="#404040" font-family="Yu Gothic,Yu Gothic_MSFontService,sans-serif" font-weight="700" font-size="55" transform="matrix(1 0 0 1 4157.05 1057)">73</text></g><g clip-path="url(#clip19)"><text fill="#404040" font-family="Yu Gothic,Yu Gothic_MSFontService,sans-serif" font-weight="700" font-size="55" transform="matrix(1 0 0 1 4309.78 912)">25</text></g><g clip-path="url(#clip20)"><text fill="#404040" font-family="Yu Gothic,Yu Gothic_MSFontService,sans-serif" font-weight="700" font-size="55" transform="matrix(1 0 0 1 4231.62 767)">105</text></g><g clip-path="url(#clip21)"><text fill="#404040" font-family="Yu Gothic,Yu Gothic_MSFontService,sans-serif" font-weight="700" font-size="55" transform="matrix(1 0 0 1 4183.52 622)">249</text></g><g clip-path="url(#clip22)"><text fill="#404040" font-family="Yu Gothic,Yu Gothic_MSFontService,sans-serif" font-weight="700" font-size="55" transform="matrix(1 0 0 1 4290.07 1279)">0</text></g><g clip-path="url(#clip23)"><text fill="#404040" font-family="Yu Gothic,Yu Gothic_MSFontService,sans-serif" font-weight="700" font-size="55" transform="matrix(1 0 0 1 4598.7 1202)">15</text></g><g clip-path="url(#clip24)"><text fill="#404040" font-family="Yu Gothic,Yu Gothic_MSFontService,sans-serif" font-weight="700" font-size="55" transform="matrix(1 0 0 1 4626.07 1057)">19</text></g><g clip-path="url(#clip25)"><text fill="#404040" font-family="Yu Gothic,Yu Gothic_MSFontService,sans-serif" font-weight="700" font-size="55" transform="matrix(1 0 0 1 4777.09 912)">3</text></g><g clip-path="url(#clip26)"><text fill="#404040" font-family="Yu Gothic,Yu Gothic_MSFontService,sans-serif" font-weight="700" font-size="55" transform="matrix(1 0 0 1 4720.12 767)">32</text></g><g clip-path="url(#clip27)"><text fill="#404040" font-family="Yu Gothic,Yu Gothic_MSFontService,sans-serif" font-weight="700" font-size="55" transform="matrix(1 0 0 1 4670.73 622)">69</text></g><g clip-path="url(#clip28)"><text fill="#404040" font-family="Yu Gothic,Yu Gothic_MSFontService,sans-serif" font-weight="700" font-size="55" transform="matrix(1 0 0 1 4448.11 1347)">1</text></g><g clip-path="url(#clip29)"><text fill="#404040" font-family="Yu Gothic,Yu Gothic_MSFontService,sans-serif" font-weight="700" font-size="55" transform="matrix(1 0 0 1 4772.5 1202)">4</text></g><g clip-path="url(#clip30)"><text fill="#404040" font-family="Yu Gothic,Yu Gothic_MSFontService,sans-serif" font-weight="700" font-size="55" transform="matrix(1 0 0 1 4773.91 1057)">10</text></g><g clip-path="url(#clip31)"><text fill="#404040" font-family="Yu Gothic,Yu Gothic_MSFontService,sans-serif" font-weight="700" font-size="55" transform="matrix(1 0 0 1 4841.59 912)">1</text></g><g clip-path="url(#clip32)"><text fill="#404040" font-family="Yu Gothic,Yu Gothic_MSFontService,sans-serif" font-weight="700" font-size="55" transform="matrix(1 0 0 1 4865.05 767)">10</text></g><g clip-path="url(#clip33)"><text fill="#404040" font-family="Yu Gothic,Yu Gothic_MSFontService,sans-serif" font-weight="700" font-size="55" transform="matrix(1 0 0 1 4811.57 622)">26</text></g><g clip-path="url(#clip34)"><text fill="#FFFFFF" font-family="Yu Gothic,Yu Gothic_MSFontService,sans-serif" font-weight="700" font-size="55" transform="matrix(1 0 0 1 4764.18 1347)">1</text></g><g clip-path="url(#clip35)"><text fill="#FFFFFF" font-family="Yu Gothic,Yu Gothic_MSFontService,sans-serif" font-weight="700" font-size="55" transform="matrix(1 0 0 1 4864 1202)">7</text></g><g clip-path="url(#clip36)"><text fill="#FFFFFF" font-family="Yu Gothic,Yu Gothic_MSFontService,sans-serif" font-weight="700" font-size="55" transform="matrix(1 0 0 1 4881.44 1057)">8</text></g><g clip-path="url(#clip37)"><text fill="#FFFFFF" font-family="Yu Gothic,Yu Gothic_MSFontService,sans-serif" font-weight="700" font-size="55" transform="matrix(1 0 0 1 4889.97 912)">2</text></g><g clip-path="url(#clip38)"><text fill="#404040" font-family="Yu Gothic,Yu Gothic_MSFontService,sans-serif" font-weight="700" font-size="55" transform="matrix(1 0 0 1 4941.69 767)">1</text></g><g clip-path="url(#clip39)"><text fill="#FFFFFF" font-family="Yu Gothic,Yu Gothic_MSFontService,sans-serif" font-weight="700" font-size="55" transform="matrix(1 0 0 1 4878.29 622)">19</text></g><g clip-path="url(#clip40)"><text fill="#595959" font-family="Yu Gothic,Yu Gothic_MSFontService,sans-serif" font-weight="500" font-size="60" transform="matrix(1 0 0 1 3317.1 1499)">0%</text></g><g clip-path="url(#clip41)"><text fill="#595959" font-family="Yu Gothic,Yu Gothic_MSFontService,sans-serif" font-weight="500" font-size="60" transform="matrix(1 0 0 1 3695.67 1499)">25%</text></g><g clip-path="url(#clip42)"><text fill="#595959" font-family="Yu Gothic,Yu Gothic_MSFontService,sans-serif" font-weight="500" font-size="60" transform="matrix(1 0 0 1 4090.77 1499)">50%</text></g><g clip-path="url(#clip43)"><text fill="#595959" font-family="Yu Gothic,Yu Gothic_MSFontService,sans-serif" font-weight="500" font-size="60" transform="matrix(1 0 0 1 4485.86 1499)">75%</text></g><g clip-path="url(#clip44)"><text fill="#595959" font-family="Yu Gothic,Yu Gothic_MSFontService,sans-serif" font-weight="500" font-size="60" transform="matrix(1 0 0 1 4864.43 1499)">100%</text></g><g clip-path="url(#clip45)"><g clip-path="url(#clip46)"><text fill="#595959" font-family="Yu Gothic,Yu Gothic_MSFontService,sans-serif" font-weight="500" font-size="57" transform="matrix(1 0 0 1 2966.62 1344)">その他</text></g></g><g clip-path="url(#clip47)"><g clip-path="url(#clip48)"><text fill="#595959" font-family="Yu Gothic,Yu Gothic_MSFontService,sans-serif" font-weight="500" font-size="57" transform="matrix(1 0 0 1 3138.5 1344)">(n=30)</text></g></g><g clip-path="url(#clip49)"><g clip-path="url(#clip50)"><text fill="#595959" font-family="Yu Gothic,Yu Gothic_MSFontService,sans-serif" font-weight="500" font-size="57" transform="matrix(1 0 0 1 2934.81 1199)">大学院</text></g></g><g clip-path="url(#clip51)"><g clip-path="url(#clip52)"><text fill="#595959" font-family="Yu Gothic,Yu Gothic_MSFontService,sans-serif" font-weight="500" font-size="57" transform="matrix(1 0 0 1 3106.69 1199)">(n=764)</text></g></g><g clip-path="url(#clip53)"><g clip-path="url(#clip54)"><text fill="#595959" font-family="Yu Gothic,Yu Gothic_MSFontService,sans-serif" font-weight="500" font-size="57" transform="matrix(1 0 0 1 2788.42 1054)">学部</text></g></g><g clip-path="url(#clip55)"><g clip-path="url(#clip56)"><text fill="#595959" font-family="Yu Gothic,Yu Gothic_MSFontService,sans-serif" font-weight="500" font-size="57" transform="matrix(1 0 0 1 2903 1054)">3</text></g></g><g clip-path="url(#clip57)"><g clip-path="url(#clip58)"><text fill="#595959" font-family="Yu Gothic,Yu Gothic_MSFontService,sans-serif" font-weight="500" font-size="57" transform="matrix(1 0 0 1 2934.81 1054)">年以上</text></g></g><g clip-path="url(#clip59)"><g clip-path="url(#clip60)"><text fill="#595959" font-family="Yu Gothic,Yu Gothic_MSFontService,sans-serif" font-weight="500" font-size="57" transform="matrix(1 0 0 1 3106.69 1054)">(n=451)</text></g></g><g clip-path="url(#clip61)"><g clip-path="url(#clip62)"><text fill="#595959" font-family="Yu Gothic,Yu Gothic_MSFontService,sans-serif" font-weight="500" font-size="57" transform="matrix(1 0 0 1 2903 909)">学部</text></g></g><g clip-path="url(#clip63)"><g clip-path="url(#clip64)"><text fill="#595959" font-family="Yu Gothic,Yu Gothic_MSFontService,sans-serif" font-weight="500" font-size="57" transform="matrix(1 0 0 1 3017.59 909)">2</text></g></g><g clip-path="url(#clip65)"><g clip-path="url(#clip66)"><text fill="#595959" font-family="Yu Gothic,Yu Gothic_MSFontService,sans-serif" font-weight="500" font-size="57" transform="matrix(1 0 0 1 3049.4 909)">年</text></g></g><g clip-path="url(#clip67)"><g clip-path="url(#clip68)"><text fill="#595959" font-family="Yu Gothic,Yu Gothic_MSFontService,sans-serif" font-weight="500" font-size="57" transform="matrix(1 0 0 1 3106.69 909)">(n=305)</text></g></g><g clip-path="url(#clip69)"><g clip-path="url(#clip70)"><text fill="#595959" font-family="Yu Gothic,Yu Gothic_MSFontService,sans-serif" font-weight="500" font-size="57" transform="matrix(1 0 0 1 2903 764)">学部</text></g></g><g clip-path="url(#clip71)"><g clip-path="url(#clip72)"><text fill="#595959" font-family="Yu Gothic,Yu Gothic_MSFontService,sans-serif" font-weight="500" font-size="57" transform="matrix(1 0 0 1 3017.59 764)">1</text></g></g><g clip-path="url(#clip73)"><g clip-path="url(#clip74)"><text fill="#595959" font-family="Yu Gothic,Yu Gothic_MSFontService,sans-serif" font-weight="500" font-size="57" transform="matrix(1 0 0 1 3049.4 764)">年</text></g></g><g clip-path="url(#clip75)"><g clip-path="url(#clip76)"><text fill="#595959" font-family="Yu Gothic,Yu Gothic_MSFontService,sans-serif" font-weight="500" font-size="57" transform="matrix(1 0 0 1 3106.69 764)">(n=269)</text></g></g><g clip-path="url(#clip77)"><g clip-path="url(#clip78)"><text fill="#595959" font-family="Yu Gothic,Yu Gothic_MSFontService,sans-serif" font-weight="500" font-size="57" transform="matrix(1 0 0 1 2960.3 619)">全体</text></g></g><g clip-path="url(#clip79)"><g clip-path="url(#clip80)"><text fill="#595959" font-family="Yu Gothic,Yu Gothic_MSFontService,sans-serif" font-weight="500" font-size="57" transform="matrix(1 0 0 1 3074.88 619)">(n=1819)</text></g></g><g clip-path="url(#clip81)"><rect x="5343.5" y="626.5" width="30" height="28.9999" stroke="#000000" stroke-width="4.58333" stroke-linejoin="round" stroke-miterlimit="10" fill="#FFFFFF"/></g><g clip-path="url(#clip82)"><text fill="#595959" font-family="Yu Gothic,Yu Gothic_MSFontService,sans-serif" font-weight="500" font-size="50" transform="matrix(1 0 0 1 5385.91 655)">大変良かった</text></g><g clip-path="url(#clip83)"><rect x="5343.5" y="769.5" width="30" height="29.9999" stroke="#000000" stroke-width="4.58333" stroke-linejoin="round" stroke-miterlimit="10" fill="#DEEBF7"/></g><g clip-path="url(#clip84)"><text fill="#595959" font-family="Yu Gothic,Yu Gothic_MSFontService,sans-serif" font-weight="500" font-size="50" transform="matrix(1 0 0 1 5385.91 799)">良かった</text></g><g clip-path="url(#clip85)"><rect x="5343.5" y="913.5" width="30" height="29.0002" stroke="#000000" stroke-width="4.58333" stroke-linejoin="round" stroke-miterlimit="10" fill="#9DC3E6"/></g><g clip-path="url(#clip86)"><text fill="#595959" font-family="Yu Gothic,Yu Gothic_MSFontService,sans-serif" font-weight="500" font-size="50" transform="matrix(1 0 0 1 5385.91 942)">どちらとも</text></g><g clip-path="url(#clip87)"><text fill="#595959" font-family="Yu Gothic,Yu Gothic_MSFontService,sans-serif" font-weight="500" font-size="50" transform="matrix(1 0 0 1 5385.91 1026)">いえない</text></g><g clip-path="url(#clip88)"><rect x="5343.5" y="1056.5" width="30" height="29.0002" stroke="#000000" stroke-width="4.58333" stroke-linejoin="round" stroke-miterlimit="10" fill="#4CA0E6"/></g><g clip-path="url(#clip89)"><text fill="#595959" font-family="Yu Gothic,Yu Gothic_MSFontService,sans-serif" font-weight="500" font-size="50" transform="matrix(1 0 0 1 5385.91 1085)">良くなかった</text></g><g clip-path="url(#clip90)"><rect x="5343.5" y="1199.5" width="30" height="29.0002" stroke="#000000" stroke-width="4.58333" stroke-linejoin="round" stroke-miterlimit="10" fill="#095085"/></g><g clip-path="url(#clip91)"><text fill="#595959" font-family="Yu Gothic,Yu Gothic_MSFontService,sans-serif" font-weight="500" font-size="50" transform="matrix(1 0 0 1 5385.91 1228)">全く</text></g><g clip-path="url(#clip92)"><text fill="#595959" font-family="Yu Gothic,Yu Gothic_MSFontService,sans-serif" font-weight="500" font-size="50" transform="matrix(1 0 0 1 5385.91 1312)">良くなかった</text></g><rect x="2717.5" y="375.5" width="2988" height="1154" stroke="#000000" stroke-width="4.58333" stroke-linejoin="round" stroke-miterlimit="10" fill="none"/><g clip-path="url(#clip93)"><g clip-path="url(#clip94)"><text font-family="Yu Gothic,Yu Gothic_MSFontService,sans-serif" font-weight="500" font-size="73" transform="matrix(1 0 0 1 2776.08 486)">【授業方法別の評価】</text></g></g><g clip-path="url(#clip95)"><g clip-path="url(#clip96)"><text font-family="Yu Gothic,Yu Gothic_MSFontService,sans-serif" font-weight="500" font-size="73" transform="matrix(1 0 0 1 3509.42 486)">1. </text></g></g><g clip-path="url(#clip97)"><g clip-path="url(#clip98)"><text font-family="Yu Gothic,Yu Gothic_MSFontService,sans-serif" font-weight="500" font-size="73" transform="matrix(1 0 0 1 3590.04 486)">対面方式（教員も学生も教室にいる）</text></g></g><g clip-path="url(#clip99)"><path d="M5015.5 550.5 5019.47 1499.69" stroke="#7F7F7F" stroke-width="4.58333" stroke-miterlimit="8" stroke-dasharray="18.3333 13.75" fill="none" fill-rule="evenodd"/></g><g clip-path="url(#clip100)"><rect x="5019" y="534" width="303" height="978" fill="#F2F2F2"/></g><g clip-path="url(#clip101)"><g clip-path="url(#clip102)"><text font-family="Yu Gothic,Yu Gothic_MSFontService,sans-serif" font-weight="700" font-size="55" transform="matrix(1 0 0 1 5108.67 614)">1286</text></g></g><g clip-path="url(#clip103)"><text fill="#404040" font-family="Yu Gothic,Yu Gothic_MSFontService,sans-serif" font-weight="700" font-size="55" transform="matrix(1 0 0 1 5136.13 761)">40</text></g><g clip-path="url(#clip104)"><text fill="#404040" font-family="Yu Gothic,Yu Gothic_MSFontService,sans-serif" font-weight="700" font-size="55" transform="matrix(1 0 0 1 5124.43 909)">256</text></g><g clip-path="url(#clip105)"><text fill="#404040" font-family="Yu Gothic,Yu Gothic_MSFontService,sans-serif" font-weight="700" font-size="55" transform="matrix(1 0 0 1 5124.43 1057)">296</text></g><g clip-path="url(#clip106)"><text fill="#404040" font-family="Yu Gothic,Yu Gothic_MSFontService,sans-serif" font-weight="700" font-size="55" transform="matrix(1 0 0 1 5124.43 1204)">669</text></g><g clip-path="url(#clip107)"><text fill="#404040" font-family="Yu Gothic,Yu Gothic_MSFontService,sans-serif" font-weight="700" font-size="55" transform="matrix(1 0 0 1 5140.2 1352)">25</text></g><g clip-path="url(#clip108)"><g clip-path="url(#clip109)"><text font-family="Yu Gothic,Yu Gothic_MSFontService,sans-serif" font-weight="400" font-size="41" transform="matrix(1 0 0 1 5028.4 1416)">この形式の授業</text></g></g><g clip-path="url(#clip110)"><g clip-path="url(#clip111)"><text font-family="Yu Gothic,Yu Gothic_MSFontService,sans-serif" font-weight="400" font-size="41" transform="matrix(1 0 0 1 5090.26 1485)">を未受講</text></g></g></g></svg>