<svg width="2993" height="1289" xmlns="http://www.w3.org/2000/svg" xmlns:xlink="http://www.w3.org/1999/xlink" overflow="hidden"><defs><clipPath id="clip0"><rect x="3573" y="1250" width="2993" height="1289"/></clipPath><clipPath id="clip1"><rect x="3574" y="1252" width="2988" height="1283"/></clipPath><clipPath id="clip2"><rect x="4214" y="1538" width="1800" height="858"/></clipPath><clipPath id="clip3"><rect x="4214" y="1538" width="1800" height="858"/></clipPath><clipPath id="clip4"><rect x="4214" y="1538" width="1800" height="858"/></clipPath><clipPath id="clip5"><rect x="4214" y="1538" width="1800" height="858"/></clipPath><clipPath id="clip6"><rect x="4214" y="1538" width="1800" height="858"/></clipPath><clipPath id="clip7"><rect x="4214" y="1538" width="1800" height="858"/></clipPath><clipPath id="clip8"><rect x="4214" y="1538" width="1800" height="858"/></clipPath><clipPath id="clip9"><rect x="3574" y="1252" width="2988" height="1283"/></clipPath><clipPath id="clip10"><rect x="3574" y="1252" width="2988" height="1283"/></clipPath><clipPath id="clip11"><rect x="3574" y="1252" width="2988" height="1283"/></clipPath><clipPath id="clip12"><rect x="3574" y="1252" width="2988" height="1283"/></clipPath><clipPath id="clip13"><rect x="3574" y="1252" width="2988" height="1283"/></clipPath><clipPath id="clip14"><rect x="3574" y="1252" width="2988" height="1283"/></clipPath><clipPath id="clip15"><rect x="3574" y="1252" width="2988" height="1283"/></clipPath><clipPath id="clip16"><rect x="3574" y="1252" width="2988" height="1283"/></clipPath><clipPath id="clip17"><rect x="3574" y="1252" width="2988" height="1283"/></clipPath><clipPath id="clip18"><rect x="3574" y="1252" width="2988" height="1283"/></clipPath><clipPath id="clip19"><rect x="3574" y="1252" width="2988" height="1283"/></clipPath><clipPath id="clip20"><rect x="3574" y="1252" width="2988" height="1283"/></clipPath><clipPath id="clip21"><rect x="3574" y="1252" width="2988" height="1283"/></clipPath><clipPath id="clip22"><rect x="3574" y="1252" width="2988" height="1283"/></clipPath><clipPath id="clip23"><rect x="3574" y="1252" width="2988" height="1283"/></clipPath><clipPath id="clip24"><rect x="3574" y="1252" width="2988" height="1283"/></clipPath><clipPath id="clip25"><rect x="3574" y="1252" width="2988" height="1283"/></clipPath><clipPath id="clip26"><rect x="3574" y="1252" width="2988" height="1283"/></clipPath><clipPath id="clip27"><rect x="3574" y="1252" width="2988" height="1283"/></clipPath><clipPath id="clip28"><rect x="3574" y="1252" width="2988" height="1283"/></clipPath><clipPath id="clip29"><rect x="3574" y="1252" width="2988" height="1283"/></clipPath><clipPath id="clip30"><rect x="3574" y="1252" width="2988" height="1283"/></clipPath><clipPath id="clip31"><rect x="3574" y="1252" width="2988" height="1283"/></clipPath><clipPath id="clip32"><rect x="3574" y="1252" width="2988" height="1283"/></clipPath><clipPath id="clip33"><rect x="3574" y="1252" width="2988" height="1283"/></clipPath><clipPath id="clip34"><rect x="3574" y="1252" width="2988" height="1283"/></clipPath><clipPath id="clip35"><rect x="3574" y="1252" width="2988" height="1283"/></clipPath><clipPath id="clip36"><rect x="3574" y="1252" width="2988" height="1283"/></clipPath><clipPath id="clip37"><rect x="3574" y="1252" width="2988" height="1283"/></clipPath><clipPath id="clip38"><rect x="3574" y="1252" width="2988" height="1283"/></clipPath><clipPath id="clip39"><rect x="3574" y="1252" width="2988" height="1283"/></clipPath><clipPath id="clip40"><rect x="3574" y="1252" width="2988" height="1283"/></clipPath><clipPath id="clip41"><rect x="3574" y="1252" width="2988" height="1283"/></clipPath><clipPath id="clip42"><rect x="3574" y="1252" width="2988" height="1283"/></clipPath><clipPath id="clip43"><rect x="3574" y="1252" width="2988" height="1283"/></clipPath><clipPath id="clip44"><rect x="3574" y="1252" width="2988" height="1283"/></clipPath><clipPath id="clip45"><rect x="3574" y="1252" width="2988" height="1283"/></clipPath><clipPath id="clip46"><rect x="2763" y="2246" width="2476" height="144"/></clipPath><clipPath id="clip47"><rect x="3574" y="1252" width="2988" height="1283"/></clipPath><clipPath id="clip48"><rect x="2763" y="2246" width="2476" height="144"/></clipPath><clipPath id="clip49"><rect x="3574" y="1252" width="2988" height="1283"/></clipPath><clipPath id="clip50"><rect x="2635" y="2104" width="2699" height="143"/></clipPath><clipPath id="clip51"><rect x="3574" y="1252" width="2988" height="1283"/></clipPath><clipPath id="clip52"><rect x="2635" y="2104" width="2699" height="143"/></clipPath><clipPath id="clip53"><rect x="3574" y="1252" width="2988" height="1283"/></clipPath><clipPath id="clip54"><rect x="2050" y="1961" width="3724" height="144"/></clipPath><clipPath id="clip55"><rect x="3574" y="1252" width="2988" height="1283"/></clipPath><clipPath id="clip56"><rect x="2050" y="1961" width="3724" height="144"/></clipPath><clipPath id="clip57"><rect x="3574" y="1252" width="2988" height="1283"/></clipPath><clipPath id="clip58"><rect x="2050" y="1961" width="3724" height="144"/></clipPath><clipPath id="clip59"><rect x="3574" y="1252" width="2988" height="1283"/></clipPath><clipPath id="clip60"><rect x="2050" y="1961" width="3724" height="144"/></clipPath><clipPath id="clip61"><rect x="3574" y="1252" width="2988" height="1283"/></clipPath><clipPath id="clip62"><rect x="2508" y="1819" width="2922" height="143"/></clipPath><clipPath id="clip63"><rect x="3574" y="1252" width="2988" height="1283"/></clipPath><clipPath id="clip64"><rect x="2508" y="1819" width="2922" height="143"/></clipPath><clipPath id="clip65"><rect x="3574" y="1252" width="2988" height="1283"/></clipPath><clipPath id="clip66"><rect x="2508" y="1819" width="2922" height="143"/></clipPath><clipPath id="clip67"><rect x="3574" y="1252" width="2988" height="1283"/></clipPath><clipPath id="clip68"><rect x="2508" y="1819" width="2922" height="143"/></clipPath><clipPath id="clip69"><rect x="3574" y="1252" width="2988" height="1283"/></clipPath><clipPath id="clip70"><rect x="2508" y="1676" width="2922" height="144"/></clipPath><clipPath id="clip71"><rect x="3574" y="1252" width="2988" height="1283"/></clipPath><clipPath id="clip72"><rect x="2508" y="1676" width="2922" height="144"/></clipPath><clipPath id="clip73"><rect x="3574" y="1252" width="2988" height="1283"/></clipPath><clipPath id="clip74"><rect x="2508" y="1676" width="2922" height="144"/></clipPath><clipPath id="clip75"><rect x="3574" y="1252" width="2988" height="1283"/></clipPath><clipPath id="clip76"><rect x="2508" y="1676" width="2922" height="144"/></clipPath><clipPath id="clip77"><rect x="3574" y="1252" width="2988" height="1283"/></clipPath><clipPath id="clip78"><rect x="2737" y="1533" width="2521" height="144"/></clipPath><clipPath id="clip79"><rect x="3574" y="1252" width="2988" height="1283"/></clipPath><clipPath id="clip80"><rect x="2737" y="1533" width="2521" height="144"/></clipPath><clipPath id="clip81"><rect x="3574" y="1252" width="2988" height="1283"/></clipPath><clipPath id="clip82"><rect x="3574" y="1252" width="2988" height="1283"/></clipPath><clipPath id="clip83"><rect x="3574" y="1252" width="2988" height="1283"/></clipPath><clipPath id="clip84"><rect x="3574" y="1252" width="2988" height="1283"/></clipPath><clipPath id="clip85"><rect x="3574" y="1252" width="2988" height="1283"/></clipPath><clipPath id="clip86"><rect x="3574" y="1252" width="2988" height="1283"/></clipPath><clipPath id="clip87"><rect x="3574" y="1252" width="2988" height="1283"/></clipPath><clipPath id="clip88"><rect x="3574" y="1252" width="2988" height="1283"/></clipPath><clipPath id="clip89"><rect x="3574" y="1252" width="2988" height="1283"/></clipPath><clipPath id="clip90"><rect x="3574" y="1252" width="2988" height="1283"/></clipPath><clipPath id="clip91"><rect x="3574" y="1252" width="2988" height="1283"/></clipPath><clipPath id="clip92"><rect x="3574" y="1252" width="2988" height="1283"/></clipPath><clipPath id="clip93"><rect x="3574" y="1252" width="2988" height="1283"/></clipPath><clipPath id="clip94"><rect x="3574" y="1252" width="2988" height="1283"/></clipPath><clipPath id="clip95"><rect x="3574" y="1252" width="2989" height="1284"/></clipPath><clipPath id="clip96"><rect x="-4507" y="1260" width="18994" height="406"/></clipPath><clipPath id="clip97"><rect x="3574" y="1252" width="2989" height="1284"/></clipPath></defs><g clip-path="url(#clip0)" transform="translate(-3573 -1250)"><rect x="3575" y="1252" width="2988" height="1284" fill="#FFFFFF"/><g clip-path="url(#clip1)"><path d="M4663.65 1538.5 4663.65 2393.5M5112.67 1538.5 5112.67 2393.5M5561.68 1538.5 5561.68 2393.5M6010.5 1538.5 6010.5 2393.5" stroke="#D9D9D9" stroke-width="4.58333" stroke-linejoin="round" stroke-miterlimit="10" fill="none"/></g><g clip-path="url(#clip2)"><path d="M4922.5 1655.5 4214.5 1655.5 4214.5 1562.5 4922.5 1562.5Z" stroke="#000000" stroke-width="4.58333" stroke-linejoin="round" stroke-miterlimit="10" fill="#FFFFFF"/></g><g clip-path="url(#clip3)"><path d="M4710.65 2368.58 4214.5 2368.58 4214.5 2275.57 4710.65 2275.57ZM5007.66 2226.57 4214.5 2226.57 4214.5 2132.57 5007.66 2132.57ZM4970.66 2083.57 4214.5 2083.57 4214.5 1990.57 4970.66 1990.57ZM4832.66 1941.56 4214.5 1941.56 4214.5 1847.56 4832.66 1847.56ZM4726.66 1798.56 4214.5 1798.56 4214.5 1705.56 4726.66 1705.56Z" stroke="#000000" stroke-width="4.58333" stroke-linejoin="round" stroke-miterlimit="10" fill="#FFFFFF"/></g><g clip-path="url(#clip4)"><path d="M5383.5 1655.5 4922.5 1655.5 4922.5 1562.5 5383.5 1562.5Z" stroke="#000000" stroke-width="4.58333" stroke-linejoin="round" stroke-miterlimit="10" fill="#F1F8FD"/></g><g clip-path="url(#clip5)"><path d="M5329.68 2368.58 4710.65 2368.58 4710.65 2275.57 5329.68 2275.57ZM5496.68 2226.57 5007.66 2226.57 5007.66 2132.57 5496.68 2132.57ZM5440.68 2083.57 4970.66 2083.57 4970.66 1990.57 5440.68 1990.57ZM5229.67 1941.56 4832.66 1941.56 4832.66 1847.56 5229.67 1847.56ZM5152.67 1798.56 4726.66 1798.56 4726.66 1705.56 5152.67 1705.56Z" stroke="#000000" stroke-width="4.58333" stroke-linejoin="round" stroke-miterlimit="10" fill="#F1F8FD"/></g><g clip-path="url(#clip6)"><path d="M5700.69 2368.58 5329.68 2368.58 5329.68 2275.57 5700.69 2275.57ZM5840.69 2226.57 5496.68 2226.57 5496.68 2132.57 5840.69 2132.57ZM5793.69 2083.57 5440.68 2083.57 5440.68 1990.57 5793.69 1990.57ZM5549.68 1941.56 5229.67 1941.56 5229.67 1847.56 5549.68 1847.56ZM5511.68 1798.56 5152.67 1798.56 5152.67 1705.56 5511.68 1705.56ZM5728.69 1655.55 5383.68 1655.55 5383.68 1562.55 5728.69 1562.55Z" stroke="#000000" stroke-width="4.58333" stroke-linejoin="round" stroke-miterlimit="10" fill="#C2DDF6"/></g><g clip-path="url(#clip7)"><path d="M5824.69 2368.58 5700.69 2368.58 5700.69 2275.57 5824.69 2275.57ZM5935.7 2226.57 5840.69 2226.57 5840.69 2132.57 5935.7 2132.57ZM5903.69 2083.57 5793.69 2083.57 5793.69 1990.57 5903.69 1990.57ZM5835.69 1941.56 5549.68 1941.56 5549.68 1847.56 5835.69 1847.56ZM5737.69 1798.56 5511.68 1798.56 5511.68 1705.56 5737.69 1705.56ZM5879.69 1655.55 5728.69 1655.55 5728.69 1562.55 5879.69 1562.55Z" stroke="#000000" stroke-width="4.58333" stroke-linejoin="round" stroke-miterlimit="10" fill="#9ECBF0"/></g><g clip-path="url(#clip8)"><path d="M6010.7 2368.58 5824.69 2368.58 5824.69 2275.57 6010.7 2275.57ZM6010.7 2226.57 5935.7 2226.57 5935.7 2132.57 6010.7 2132.57ZM6010.7 2083.57 5903.69 2083.57 5903.69 1990.57 6010.7 1990.57ZM6010.7 1941.56 5835.69 1941.56 5835.69 1847.56 6010.7 1847.56ZM6010.7 1798.56 5737.69 1798.56 5737.69 1705.56 6010.7 1705.56ZM6010.7 1655.55 5879.69 1655.55 5879.69 1562.55 6010.7 1562.55Z" stroke="#000000" stroke-width="4.58333" stroke-linejoin="round" stroke-miterlimit="10" fill="#095085"/></g><g clip-path="url(#clip9)"><path d="M0 0 0.000360892 855" stroke="#D9D9D9" stroke-width="3.4375" stroke-linejoin="round" stroke-miterlimit="10" fill="none" fill-rule="evenodd" transform="matrix(1 0 0 -1 4214.5 2393.5)"/></g><g clip-path="url(#clip10)"><text fill="#404040" font-family="Yu Gothic,Yu Gothic_MSFontService,sans-serif" font-weight="700" font-size="55" transform="matrix(1 0 0 1 4446.88 2341)">8</text></g><g clip-path="url(#clip11)"><text fill="#404040" font-family="Yu Gothic,Yu Gothic_MSFontService,sans-serif" font-weight="700" font-size="55" transform="matrix(1 0 0 1 4564.1 2199)">336</text></g><g clip-path="url(#clip12)"><text fill="#404040" font-family="Yu Gothic,Yu Gothic_MSFontService,sans-serif" font-weight="700" font-size="55" transform="matrix(1 0 0 1 4545.4 2056)">191</text></g><g clip-path="url(#clip13)"><text fill="#404040" font-family="Yu Gothic,Yu Gothic_MSFontService,sans-serif" font-weight="700" font-size="55" transform="matrix(1 0 0 1 4476.67 1913)">106</text></g><g clip-path="url(#clip14)"><text fill="#404040" font-family="Yu Gothic,Yu Gothic_MSFontService,sans-serif" font-weight="700" font-size="55" transform="matrix(1 0 0 1 4439.49 1771)">77</text></g><g clip-path="url(#clip15)"><text fill="#404040" font-family="Yu Gothic,Yu Gothic_MSFontService,sans-serif" font-weight="700" font-size="55" transform="matrix(1 0 0 1 4521.49 1628)">718</text></g><g clip-path="url(#clip16)"><text fill="#404040" font-family="Yu Gothic,Yu Gothic_MSFontService,sans-serif" font-weight="700" font-size="55" transform="matrix(1 0 0 1 4988.44 2341)">10</text></g><g clip-path="url(#clip17)"><text fill="#404040" font-family="Yu Gothic,Yu Gothic_MSFontService,sans-serif" font-weight="700" font-size="55" transform="matrix(1 0 0 1 5204.78 2199)">207</text></g><g clip-path="url(#clip18)"><text fill="#404040" font-family="Yu Gothic,Yu Gothic_MSFontService,sans-serif" font-weight="700" font-size="55" transform="matrix(1 0 0 1 5158.51 2056)">119</text></g><g clip-path="url(#clip19)"><text fill="#404040" font-family="Yu Gothic,Yu Gothic_MSFontService,sans-serif" font-weight="700" font-size="55" transform="matrix(1 0 0 1 4999.69 1913)">68</text></g><g clip-path="url(#clip20)"><text fill="#404040" font-family="Yu Gothic,Yu Gothic_MSFontService,sans-serif" font-weight="700" font-size="55" transform="matrix(1 0 0 1 4908.39 1771)">64</text></g><g clip-path="url(#clip21)"><text fill="#404040" font-family="Yu Gothic,Yu Gothic_MSFontService,sans-serif" font-weight="700" font-size="55" transform="matrix(1 0 0 1 5105.97 1628)">468</text></g><g clip-path="url(#clip22)"><text fill="#404040" font-family="Yu Gothic,Yu Gothic_MSFontService,sans-serif" font-weight="700" font-size="55" transform="matrix(1 0 0 1 5499.6 2341)">6</text></g><g clip-path="url(#clip23)"><text fill="#404040" font-family="Yu Gothic,Yu Gothic_MSFontService,sans-serif" font-weight="700" font-size="55" transform="matrix(1 0 0 1 5621.29 2199)">146</text></g><g clip-path="url(#clip24)"><text fill="#404040" font-family="Yu Gothic,Yu Gothic_MSFontService,sans-serif" font-weight="700" font-size="55" transform="matrix(1 0 0 1 5585.65 2056)">89</text></g><g clip-path="url(#clip25)"><text fill="#404040" font-family="Yu Gothic,Yu Gothic_MSFontService,sans-serif" font-weight="700" font-size="55" transform="matrix(1 0 0 1 5358.27 1913)">55</text></g><g clip-path="url(#clip26)"><text fill="#404040" font-family="Yu Gothic,Yu Gothic_MSFontService,sans-serif" font-weight="700" font-size="55" transform="matrix(1 0 0 1 5300.81 1771)">54</text></g><g clip-path="url(#clip27)"><text fill="#404040" font-family="Yu Gothic,Yu Gothic_MSFontService,sans-serif" font-weight="700" font-size="55" transform="matrix(1 0 0 1 5509.09 1628)">350</text></g><g clip-path="url(#clip28)"><text fill="#404040" font-family="Yu Gothic,Yu Gothic_MSFontService,sans-serif" font-weight="700" font-size="55" transform="matrix(1 0 0 1 5747.3 2341)">2</text></g><g clip-path="url(#clip29)"><text fill="#404040" font-family="Yu Gothic,Yu Gothic_MSFontService,sans-serif" font-weight="700" font-size="55" transform="matrix(1 0 0 1 5856.52 2199)">40</text></g><g clip-path="url(#clip30)"><text fill="#404040" font-family="Yu Gothic,Yu Gothic_MSFontService,sans-serif" font-weight="700" font-size="55" transform="matrix(1 0 0 1 5817.05 2056)">28</text></g><g clip-path="url(#clip31)"><text fill="#404040" font-family="Yu Gothic,Yu Gothic_MSFontService,sans-serif" font-weight="700" font-size="55" transform="matrix(1 0 0 1 5661.46 1913)">49</text></g><g clip-path="url(#clip32)"><text fill="#404040" font-family="Yu Gothic,Yu Gothic_MSFontService,sans-serif" font-weight="700" font-size="55" transform="matrix(1 0 0 1 5593.46 1771)">34</text></g><g clip-path="url(#clip33)"><text fill="#404040" font-family="Yu Gothic,Yu Gothic_MSFontService,sans-serif" font-weight="700" font-size="55" transform="matrix(1 0 0 1 5756.97 1628)">153</text></g><g clip-path="url(#clip34)"><text fill="#FFFFFF" font-family="Yu Gothic,Yu Gothic_MSFontService,sans-serif" font-weight="700" font-size="55" transform="matrix(1 0 0 1 5902.11 2341)">3</text></g><g clip-path="url(#clip35)"><text fill="#FFFFFF" font-family="Yu Gothic,Yu Gothic_MSFontService,sans-serif" font-weight="700" font-size="55" transform="matrix(1 0 0 1 5941.47 2199)">32</text></g><g clip-path="url(#clip36)"><text fill="#FFFFFF" font-family="Yu Gothic,Yu Gothic_MSFontService,sans-serif" font-weight="700" font-size="55" transform="matrix(1 0 0 1 5925.83 2056)">27</text></g><g clip-path="url(#clip37)"><text fill="#FFFFFF" font-family="Yu Gothic,Yu Gothic_MSFontService,sans-serif" font-weight="700" font-size="55" transform="matrix(1 0 0 1 5891.77 1913)">30</text></g><g clip-path="url(#clip38)"><text fill="#FFFFFF" font-family="Yu Gothic,Yu Gothic_MSFontService,sans-serif" font-weight="700" font-size="55" transform="matrix(1 0 0 1 5842.88 1771)">41</text></g><g clip-path="url(#clip39)"><text fill="#FFFFFF" font-family="Yu Gothic,Yu Gothic_MSFontService,sans-serif" font-weight="700" font-size="55" transform="matrix(1 0 0 1 5897.92 1628)">133</text></g><g clip-path="url(#clip40)"><text fill="#595959" font-family="Yu Gothic,Yu Gothic_MSFontService,sans-serif" font-weight="500" font-size="60" transform="matrix(1 0 0 1 4174.46 2492)">0%</text></g><g clip-path="url(#clip41)"><text fill="#595959" font-family="Yu Gothic,Yu Gothic_MSFontService,sans-serif" font-weight="500" font-size="60" transform="matrix(1 0 0 1 4606.88 2492)">25%</text></g><g clip-path="url(#clip42)"><text fill="#595959" font-family="Yu Gothic,Yu Gothic_MSFontService,sans-serif" font-weight="500" font-size="60" transform="matrix(1 0 0 1 5055.83 2492)">50%</text></g><g clip-path="url(#clip43)"><text fill="#595959" font-family="Yu Gothic,Yu Gothic_MSFontService,sans-serif" font-weight="500" font-size="60" transform="matrix(1 0 0 1 5504.78 2492)">75%</text></g><g clip-path="url(#clip44)"><text fill="#595959" font-family="Yu Gothic,Yu Gothic_MSFontService,sans-serif" font-weight="500" font-size="60" transform="matrix(1 0 0 1 5937.2 2492)">100%</text></g><g clip-path="url(#clip45)"><g clip-path="url(#clip46)"><text fill="#595959" font-family="Yu Gothic,Yu Gothic_MSFontService,sans-serif" font-weight="500" font-size="57" transform="matrix(1 0 0 1 3823.97 2338)">その他</text></g></g><g clip-path="url(#clip47)"><g clip-path="url(#clip48)"><text fill="#595959" font-family="Yu Gothic,Yu Gothic_MSFontService,sans-serif" font-weight="500" font-size="57" transform="matrix(1 0 0 1 3995.85 2338)">(n=29)</text></g></g><g clip-path="url(#clip49)"><g clip-path="url(#clip50)"><text fill="#595959" font-family="Yu Gothic,Yu Gothic_MSFontService,sans-serif" font-weight="500" font-size="57" transform="matrix(1 0 0 1 3792.17 2196)">大学院</text></g></g><g clip-path="url(#clip51)"><g clip-path="url(#clip52)"><text fill="#595959" font-family="Yu Gothic,Yu Gothic_MSFontService,sans-serif" font-weight="500" font-size="57" transform="matrix(1 0 0 1 3964.04 2196)">(n=761)</text></g></g><g clip-path="url(#clip53)"><g clip-path="url(#clip54)"><text fill="#595959" font-family="Yu Gothic,Yu Gothic_MSFontService,sans-serif" font-weight="500" font-size="57" transform="matrix(1 0 0 1 3645.77 2053)">学部</text></g></g><g clip-path="url(#clip55)"><g clip-path="url(#clip56)"><text fill="#595959" font-family="Yu Gothic,Yu Gothic_MSFontService,sans-serif" font-weight="500" font-size="57" transform="matrix(1 0 0 1 3760.36 2053)">3</text></g></g><g clip-path="url(#clip57)"><g clip-path="url(#clip58)"><text fill="#595959" font-family="Yu Gothic,Yu Gothic_MSFontService,sans-serif" font-weight="500" font-size="57" transform="matrix(1 0 0 1 3792.17 2053)">年以上</text></g></g><g clip-path="url(#clip59)"><g clip-path="url(#clip60)"><text fill="#595959" font-family="Yu Gothic,Yu Gothic_MSFontService,sans-serif" font-weight="500" font-size="57" transform="matrix(1 0 0 1 3964.04 2053)">(n=454)</text></g></g><g clip-path="url(#clip61)"><g clip-path="url(#clip62)"><text fill="#595959" font-family="Yu Gothic,Yu Gothic_MSFontService,sans-serif" font-weight="500" font-size="57" transform="matrix(1 0 0 1 3760.36 1910)">学部</text></g></g><g clip-path="url(#clip63)"><g clip-path="url(#clip64)"><text fill="#595959" font-family="Yu Gothic,Yu Gothic_MSFontService,sans-serif" font-weight="500" font-size="57" transform="matrix(1 0 0 1 3874.94 1910)">2</text></g></g><g clip-path="url(#clip65)"><g clip-path="url(#clip66)"><text fill="#595959" font-family="Yu Gothic,Yu Gothic_MSFontService,sans-serif" font-weight="500" font-size="57" transform="matrix(1 0 0 1 3906.75 1910)">年</text></g></g><g clip-path="url(#clip67)"><g clip-path="url(#clip68)"><text fill="#595959" font-family="Yu Gothic,Yu Gothic_MSFontService,sans-serif" font-weight="500" font-size="57" transform="matrix(1 0 0 1 3964.04 1910)">(n=308)</text></g></g><g clip-path="url(#clip69)"><g clip-path="url(#clip70)"><text fill="#595959" font-family="Yu Gothic,Yu Gothic_MSFontService,sans-serif" font-weight="500" font-size="57" transform="matrix(1 0 0 1 3760.36 1768)">学部</text></g></g><g clip-path="url(#clip71)"><g clip-path="url(#clip72)"><text fill="#595959" font-family="Yu Gothic,Yu Gothic_MSFontService,sans-serif" font-weight="500" font-size="57" transform="matrix(1 0 0 1 3874.94 1768)">1</text></g></g><g clip-path="url(#clip73)"><g clip-path="url(#clip74)"><text fill="#595959" font-family="Yu Gothic,Yu Gothic_MSFontService,sans-serif" font-weight="500" font-size="57" transform="matrix(1 0 0 1 3906.75 1768)">年</text></g></g><g clip-path="url(#clip75)"><g clip-path="url(#clip76)"><text fill="#595959" font-family="Yu Gothic,Yu Gothic_MSFontService,sans-serif" font-weight="500" font-size="57" transform="matrix(1 0 0 1 3964.04 1768)">(n=270)</text></g></g><g clip-path="url(#clip77)"><g clip-path="url(#clip78)"><text fill="#595959" font-family="Yu Gothic,Yu Gothic_MSFontService,sans-serif" font-weight="500" font-size="57" transform="matrix(1 0 0 1 3817.65 1625)">全体</text></g></g><g clip-path="url(#clip79)"><g clip-path="url(#clip80)"><text fill="#595959" font-family="Yu Gothic,Yu Gothic_MSFontService,sans-serif" font-weight="500" font-size="57" transform="matrix(1 0 0 1 3932.23 1625)">(n=1822)</text></g></g><g clip-path="url(#clip81)"><rect x="6063.5" y="1583.5" width="28" height="27.9999" stroke="#000000" stroke-width="4.58333" stroke-linejoin="round" stroke-miterlimit="10" fill="#FFFFFF"/></g><g clip-path="url(#clip82)"><text fill="#595959" font-family="Yu Gothic,Yu Gothic_MSFontService,sans-serif" font-weight="500" font-size="48" transform="matrix(1 0 0 1 6104.05 1610)">原則オンライン授業</text></g><g clip-path="url(#clip83)"><text fill="#595959" font-family="Yu Gothic,Yu Gothic_MSFontService,sans-serif" font-weight="500" font-size="48" transform="matrix(1 0 0 1 6104.05 1690)">にしてほしい</text></g><g clip-path="url(#clip84)"><rect x="6063.5" y="1759.5" width="28" height="27.9999" stroke="#000000" stroke-width="4.58333" stroke-linejoin="round" stroke-miterlimit="10" fill="#F1F8FD"/></g><g clip-path="url(#clip85)"><text fill="#595959" font-family="Yu Gothic,Yu Gothic_MSFontService,sans-serif" font-weight="500" font-size="48" transform="matrix(1 0 0 1 6104.05 1787)">なるべくオンライン</text></g><g clip-path="url(#clip86)"><text fill="#595959" font-family="Yu Gothic,Yu Gothic_MSFontService,sans-serif" font-weight="500" font-size="48" transform="matrix(1 0 0 1 6104.05 1867)">授業にしてほしい</text></g><g clip-path="url(#clip87)"><rect x="6063.5" y="1936.5" width="28" height="27.0001" stroke="#000000" stroke-width="4.58333" stroke-linejoin="round" stroke-miterlimit="10" fill="#C2DDF6"/></g><g clip-path="url(#clip88)"><text fill="#595959" font-family="Yu Gothic,Yu Gothic_MSFontService,sans-serif" font-weight="500" font-size="48" transform="matrix(1 0 0 1 6104.05 1963)">どちらでもよい</text></g><g clip-path="url(#clip89)"><rect x="6063.5" y="2112.5" width="28" height="28.0002" stroke="#000000" stroke-width="4.58333" stroke-linejoin="round" stroke-miterlimit="10" fill="#9ECBF0"/></g><g clip-path="url(#clip90)"><text fill="#595959" font-family="Yu Gothic,Yu Gothic_MSFontService,sans-serif" font-weight="500" font-size="48" transform="matrix(1 0 0 1 6104.05 2140)">なるべく対面の授業</text></g><g clip-path="url(#clip91)"><text fill="#595959" font-family="Yu Gothic,Yu Gothic_MSFontService,sans-serif" font-weight="500" font-size="48" transform="matrix(1 0 0 1 6104.05 2220)">にしてほしい</text></g><g clip-path="url(#clip92)"><rect x="6063.5" y="2289.5" width="28" height="27.0002" stroke="#000000" stroke-width="4.58333" stroke-linejoin="round" stroke-miterlimit="10" fill="#095085"/></g><g clip-path="url(#clip93)"><text fill="#595959" font-family="Yu Gothic,Yu Gothic_MSFontService,sans-serif" font-weight="500" font-size="48" transform="matrix(1 0 0 1 6104.05 2316)">原則対面の授業にし</text></g><g clip-path="url(#clip94)"><text fill="#595959" font-family="Yu Gothic,Yu Gothic_MSFontService,sans-serif" font-weight="500" font-size="48" transform="matrix(1 0 0 1 6104.05 2396)">てほしい</text></g><rect x="3575.5" y="1252.5" width="2988" height="1284" stroke="#000000" stroke-width="4.58333" stroke-linejoin="round" stroke-miterlimit="10" fill="none"/><g clip-path="url(#clip95)"><g clip-path="url(#clip96)"><text font-family="Yu Gothic,Yu Gothic_MSFontService,sans-serif" font-weight="500" font-size="73" transform="matrix(1 0 0 1 3633.43 1364)">【形式別／オンラインか対面か】教員による講義中心の授業（大人数）について，</text></g></g><g clip-path="url(#clip97)"><text font-family="Yu Gothic,Yu Gothic_MSFontService,sans-serif" font-weight="500" font-size="73" transform="matrix(1 0 0 1 3633.43 1487)">どの程度オンライン授業にしてほしいですか？</text></g></g></svg>