<svg width="2994" height="1288" xmlns="http://www.w3.org/2000/svg" xmlns:xlink="http://www.w3.org/1999/xlink" overflow="hidden"><defs><clipPath id="clip0"><rect x="3099" y="555" width="2994" height="1288"/></clipPath><clipPath id="clip1"><rect x="3101" y="556" width="2988" height="1284"/></clipPath><clipPath id="clip2"><rect x="3741" y="842" width="1800" height="859"/></clipPath><clipPath id="clip3"><rect x="3741" y="842" width="1800" height="859"/></clipPath><clipPath id="clip4"><rect x="3741" y="842" width="1800" height="859"/></clipPath><clipPath id="clip5"><rect x="3741" y="842" width="1800" height="859"/></clipPath><clipPath id="clip6"><rect x="3741" y="842" width="1800" height="859"/></clipPath><clipPath id="clip7"><rect x="3741" y="842" width="1800" height="859"/></clipPath><clipPath id="clip8"><rect x="3741" y="842" width="1800" height="859"/></clipPath><clipPath id="clip9"><rect x="3101" y="556" width="2988" height="1284"/></clipPath><clipPath id="clip10"><rect x="3101" y="556" width="2988" height="1284"/></clipPath><clipPath id="clip11"><rect x="3101" y="556" width="2988" height="1284"/></clipPath><clipPath id="clip12"><rect x="3101" y="556" width="2988" height="1284"/></clipPath><clipPath id="clip13"><rect x="3101" y="556" width="2988" height="1284"/></clipPath><clipPath id="clip14"><rect x="3101" y="556" width="2988" height="1284"/></clipPath><clipPath id="clip15"><rect x="3101" y="556" width="2988" height="1284"/></clipPath><clipPath id="clip16"><rect x="3101" y="556" width="2988" height="1284"/></clipPath><clipPath id="clip17"><rect x="3101" y="556" width="2988" height="1284"/></clipPath><clipPath id="clip18"><rect x="3101" y="556" width="2988" height="1284"/></clipPath><clipPath id="clip19"><rect x="3101" y="556" width="2988" height="1284"/></clipPath><clipPath id="clip20"><rect x="3101" y="556" width="2988" height="1284"/></clipPath><clipPath id="clip21"><rect x="3101" y="556" width="2988" height="1284"/></clipPath><clipPath id="clip22"><rect x="3101" y="556" width="2988" height="1284"/></clipPath><clipPath id="clip23"><rect x="3101" y="556" width="2988" height="1284"/></clipPath><clipPath id="clip24"><rect x="3101" y="556" width="2988" height="1284"/></clipPath><clipPath id="clip25"><rect x="3101" y="556" width="2988" height="1284"/></clipPath><clipPath id="clip26"><rect x="3101" y="556" width="2988" height="1284"/></clipPath><clipPath id="clip27"><rect x="3101" y="556" width="2988" height="1284"/></clipPath><clipPath id="clip28"><rect x="3101" y="556" width="2988" height="1284"/></clipPath><clipPath id="clip29"><rect x="3101" y="556" width="2988" height="1284"/></clipPath><clipPath id="clip30"><rect x="3101" y="556" width="2988" height="1284"/></clipPath><clipPath id="clip31"><rect x="3101" y="556" width="2988" height="1284"/></clipPath><clipPath id="clip32"><rect x="3101" y="556" width="2988" height="1284"/></clipPath><clipPath id="clip33"><rect x="3101" y="556" width="2988" height="1284"/></clipPath><clipPath id="clip34"><rect x="3101" y="556" width="2988" height="1284"/></clipPath><clipPath id="clip35"><rect x="3101" y="556" width="2988" height="1284"/></clipPath><clipPath id="clip36"><rect x="3101" y="556" width="2988" height="1284"/></clipPath><clipPath id="clip37"><rect x="3101" y="556" width="2988" height="1284"/></clipPath><clipPath id="clip38"><rect x="3101" y="556" width="2988" height="1284"/></clipPath><clipPath id="clip39"><rect x="3101" y="556" width="2988" height="1284"/></clipPath><clipPath id="clip40"><rect x="3101" y="556" width="2988" height="1284"/></clipPath><clipPath id="clip41"><rect x="3101" y="556" width="2988" height="1284"/></clipPath><clipPath id="clip42"><rect x="3101" y="556" width="2988" height="1284"/></clipPath><clipPath id="clip43"><rect x="3101" y="556" width="2988" height="1284"/></clipPath><clipPath id="clip44"><rect x="3101" y="556" width="2988" height="1284"/></clipPath><clipPath id="clip45"><rect x="3101" y="556" width="2988" height="1284"/></clipPath><clipPath id="clip46"><rect x="2289" y="1551" width="2477" height="143"/></clipPath><clipPath id="clip47"><rect x="3101" y="556" width="2988" height="1284"/></clipPath><clipPath id="clip48"><rect x="2289" y="1551" width="2477" height="143"/></clipPath><clipPath id="clip49"><rect x="3101" y="556" width="2988" height="1284"/></clipPath><clipPath id="clip50"><rect x="2162" y="1408" width="2699" height="144"/></clipPath><clipPath id="clip51"><rect x="3101" y="556" width="2988" height="1284"/></clipPath><clipPath id="clip52"><rect x="2162" y="1408" width="2699" height="144"/></clipPath><clipPath id="clip53"><rect x="3101" y="556" width="2988" height="1284"/></clipPath><clipPath id="clip54"><rect x="1577" y="1266" width="3723" height="143"/></clipPath><clipPath id="clip55"><rect x="3101" y="556" width="2988" height="1284"/></clipPath><clipPath id="clip56"><rect x="1577" y="1266" width="3723" height="143"/></clipPath><clipPath id="clip57"><rect x="3101" y="556" width="2988" height="1284"/></clipPath><clipPath id="clip58"><rect x="1577" y="1266" width="3723" height="143"/></clipPath><clipPath id="clip59"><rect x="3101" y="556" width="2988" height="1284"/></clipPath><clipPath id="clip60"><rect x="1577" y="1266" width="3723" height="143"/></clipPath><clipPath id="clip61"><rect x="3101" y="556" width="2988" height="1284"/></clipPath><clipPath id="clip62"><rect x="2035" y="1123" width="2922" height="144"/></clipPath><clipPath id="clip63"><rect x="3101" y="556" width="2988" height="1284"/></clipPath><clipPath id="clip64"><rect x="2035" y="1123" width="2922" height="144"/></clipPath><clipPath id="clip65"><rect x="3101" y="556" width="2988" height="1284"/></clipPath><clipPath id="clip66"><rect x="2035" y="1123" width="2922" height="144"/></clipPath><clipPath id="clip67"><rect x="3101" y="556" width="2988" height="1284"/></clipPath><clipPath id="clip68"><rect x="2035" y="1123" width="2922" height="144"/></clipPath><clipPath id="clip69"><rect x="3101" y="556" width="2988" height="1284"/></clipPath><clipPath id="clip70"><rect x="2035" y="980" width="2922" height="144"/></clipPath><clipPath id="clip71"><rect x="3101" y="556" width="2988" height="1284"/></clipPath><clipPath id="clip72"><rect x="2035" y="980" width="2922" height="144"/></clipPath><clipPath id="clip73"><rect x="3101" y="556" width="2988" height="1284"/></clipPath><clipPath id="clip74"><rect x="2035" y="980" width="2922" height="144"/></clipPath><clipPath id="clip75"><rect x="3101" y="556" width="2988" height="1284"/></clipPath><clipPath id="clip76"><rect x="2035" y="980" width="2922" height="144"/></clipPath><clipPath id="clip77"><rect x="3101" y="556" width="2988" height="1284"/></clipPath><clipPath id="clip78"><rect x="2264" y="838" width="2521" height="143"/></clipPath><clipPath id="clip79"><rect x="3101" y="556" width="2988" height="1284"/></clipPath><clipPath id="clip80"><rect x="2264" y="838" width="2521" height="143"/></clipPath><clipPath id="clip81"><rect x="3101" y="556" width="2988" height="1284"/></clipPath><clipPath id="clip82"><rect x="3101" y="556" width="2988" height="1284"/></clipPath><clipPath id="clip83"><rect x="3101" y="556" width="2988" height="1284"/></clipPath><clipPath id="clip84"><rect x="3101" y="556" width="2988" height="1284"/></clipPath><clipPath id="clip85"><rect x="3101" y="556" width="2988" height="1284"/></clipPath><clipPath id="clip86"><rect x="3101" y="556" width="2988" height="1284"/></clipPath><clipPath id="clip87"><rect x="3101" y="556" width="2988" height="1284"/></clipPath><clipPath id="clip88"><rect x="3101" y="556" width="2988" height="1284"/></clipPath><clipPath id="clip89"><rect x="3101" y="556" width="2988" height="1284"/></clipPath><clipPath id="clip90"><rect x="3101" y="556" width="2988" height="1284"/></clipPath><clipPath id="clip91"><rect x="3101" y="556" width="2988" height="1284"/></clipPath><clipPath id="clip92"><rect x="3101" y="556" width="2988" height="1284"/></clipPath><clipPath id="clip93"><rect x="3101" y="556" width="2989" height="1285"/></clipPath><clipPath id="clip94"><rect x="-5392" y="565" width="19955" height="405"/></clipPath><clipPath id="clip95"><rect x="3101" y="556" width="2989" height="1285"/></clipPath><clipPath id="clip96"><rect x="-5392" y="565" width="19955" height="405"/></clipPath><clipPath id="clip97"><rect x="3101" y="556" width="2989" height="1285"/></clipPath><clipPath id="clip98"><rect x="-5392" y="565" width="19955" height="405"/></clipPath><clipPath id="clip99"><rect x="3101" y="556" width="2989" height="1285"/></clipPath><clipPath id="clip100"><rect x="-5392" y="565" width="19955" height="405"/></clipPath><clipPath id="clip101"><rect x="3101" y="556" width="2989" height="1285"/></clipPath><clipPath id="clip102"><rect x="-5392" y="565" width="19955" height="405"/></clipPath><clipPath id="clip103"><rect x="3101" y="556" width="2989" height="1285"/></clipPath></defs><g clip-path="url(#clip0)" transform="translate(-3099 -555)"><rect x="3101" y="557" width="2989" height="1283" fill="#FFFFFF"/><g clip-path="url(#clip1)"><path d="M4190.64 842.5 4190.64 1697.5M4639.65 842.5 4639.65 1697.5M5088.67 842.5 5088.67 1697.5M5537.5 842.5 5537.5 1697.5" stroke="#D9D9D9" stroke-width="4.58333" stroke-linejoin="round" stroke-miterlimit="10" fill="none"/></g><g clip-path="url(#clip2)"><path d="M4269.5 960.5 3741.5 960.5 3741.5 867.5 4269.5 867.5Z" stroke="#000000" stroke-width="4.58333" stroke-linejoin="round" stroke-miterlimit="10" fill="#FFFFFF"/></g><g clip-path="url(#clip3)"><path d="M4028.63 1673.56 3741.5 1673.56 3741.5 1580.55 4028.63 1580.55ZM4457.65 1530.55 3741.5 1530.55 3741.5 1437.55 4457.65 1437.55ZM4345.64 1388.55 3741.5 1388.55 3741.5 1294.54 4345.64 1294.54ZM4030.63 1245.54 3741.5 1245.54 3741.5 1152.54 4030.63 1152.54ZM3923.63 1102.54 3741.5 1102.54 3741.5 1009.53 3923.63 1009.53Z" stroke="#000000" stroke-width="4.58333" stroke-linejoin="round" stroke-miterlimit="10" fill="#FFFFFF"/></g><g clip-path="url(#clip4)"><path d="M4767.5 960.5 4269.5 960.5 4269.5 867.5 4767.5 867.5Z" stroke="#000000" stroke-width="4.58333" stroke-linejoin="round" stroke-miterlimit="10" fill="#F1F8FD"/></g><g clip-path="url(#clip5)"><path d="M4531.65 1673.56 4028.63 1673.56 4028.63 1580.55 4531.65 1580.55ZM4970.66 1530.55 4457.65 1530.55 4457.65 1437.55 4970.66 1437.55ZM4888.66 1388.55 4345.64 1388.55 4345.64 1294.54 4888.66 1294.54ZM4494.65 1245.54 4030.63 1245.54 4030.63 1152.54 4494.65 1152.54ZM4340.64 1102.54 3923.63 1102.54 3923.63 1009.53 4340.64 1009.53Z" stroke="#000000" stroke-width="4.58333" stroke-linejoin="round" stroke-miterlimit="10" fill="#F1F8FD"/></g><g clip-path="url(#clip6)"><path d="M5178.67 1673.56 4531.65 1673.56 4531.65 1580.55 5178.67 1580.55ZM5297.67 1530.55 4970.66 1530.55 4970.66 1437.55 5297.67 1437.55ZM5249.67 1388.55 4888.66 1388.55 4888.66 1294.54 5249.67 1294.54ZM4976.66 1245.54 4494.65 1245.54 4494.65 1152.54 4976.66 1152.54ZM4844.66 1102.54 4340.64 1102.54 4340.64 1009.53 4844.66 1009.53ZM5160.67 960.532 4767.66 960.532 4767.66 867.529 5160.67 867.529Z" stroke="#000000" stroke-width="4.58333" stroke-linejoin="round" stroke-miterlimit="10" fill="#C2DDF6"/></g><g clip-path="url(#clip7)"><path d="M5465.68 1673.56 5178.67 1673.56 5178.67 1580.55 5465.68 1580.55ZM5453.68 1530.55 5297.67 1530.55 5297.67 1437.55 5453.68 1437.55ZM5427.68 1388.55 5249.67 1388.55 5249.67 1294.54 5427.68 1294.54ZM5278.67 1245.54 4976.66 1245.54 4976.66 1152.54 5278.67 1152.54ZM5228.67 1102.54 4844.66 1102.54 4844.66 1009.53 5228.67 1009.53ZM5383.68 960.532 5160.67 960.532 5160.67 867.529 5383.68 867.529Z" stroke="#000000" stroke-width="4.58333" stroke-linejoin="round" stroke-miterlimit="10" fill="#9ECBF0"/></g><g clip-path="url(#clip8)"><path d="M5537.68 1673.56 5465.68 1673.56 5465.68 1580.55 5537.68 1580.55ZM5537.68 1530.55 5453.68 1530.55 5453.68 1437.55 5537.68 1437.55ZM5537.68 1388.55 5427.68 1388.55 5427.68 1294.54 5537.68 1294.54ZM5537.68 1245.54 5278.67 1245.54 5278.67 1152.54 5537.68 1152.54ZM5537.68 1102.54 5228.67 1102.54 5228.67 1009.53 5537.68 1009.53ZM5537.68 960.532 5383.68 960.532 5383.68 867.529 5537.68 867.529Z" stroke="#000000" stroke-width="4.58333" stroke-linejoin="round" stroke-miterlimit="10" fill="#095085"/></g><g clip-path="url(#clip9)"><path d="M0 0 0.000360892 855" stroke="#D9D9D9" stroke-width="3.4375" stroke-linejoin="round" stroke-miterlimit="10" fill="none" fill-rule="evenodd" transform="matrix(1 0 0 -1 3741.5 1697.5)"/></g><g clip-path="url(#clip10)"><text fill="#404040" font-family="Yu Gothic,Yu Gothic_MSFontService,sans-serif" font-weight="700" font-size="55" transform="matrix(1 0 0 1 3869.69 1646)">4</text></g><g clip-path="url(#clip11)"><text fill="#404040" font-family="Yu Gothic,Yu Gothic_MSFontService,sans-serif" font-weight="700" font-size="55" transform="matrix(1 0 0 1 4052.41 1503)">289</text></g><g clip-path="url(#clip12)"><text fill="#404040" font-family="Yu Gothic,Yu Gothic_MSFontService,sans-serif" font-weight="700" font-size="55" transform="matrix(1 0 0 1 3996.49 1361)">149</text></g><g clip-path="url(#clip13)"><text fill="#404040" font-family="Yu Gothic,Yu Gothic_MSFontService,sans-serif" font-weight="700" font-size="55" transform="matrix(1 0 0 1 3854.88 1218)">48</text></g><g clip-path="url(#clip14)"><text fill="#404040" font-family="Yu Gothic,Yu Gothic_MSFontService,sans-serif" font-weight="700" font-size="55" transform="matrix(1 0 0 1 3801.06 1075)">27</text></g><g clip-path="url(#clip15)"><text fill="#404040" font-family="Yu Gothic,Yu Gothic_MSFontService,sans-serif" font-weight="700" font-size="55" transform="matrix(1 0 0 1 3958.55 933)">517</text></g><g clip-path="url(#clip16)"><text fill="#404040" font-family="Yu Gothic,Yu Gothic_MSFontService,sans-serif" font-weight="700" font-size="55" transform="matrix(1 0 0 1 4264.77 1646)">7</text></g><g clip-path="url(#clip17)"><text fill="#404040" font-family="Yu Gothic,Yu Gothic_MSFontService,sans-serif" font-weight="700" font-size="55" transform="matrix(1 0 0 1 4666.7 1503)">207</text></g><g clip-path="url(#clip18)"><text fill="#404040" font-family="Yu Gothic,Yu Gothic_MSFontService,sans-serif" font-weight="700" font-size="55" transform="matrix(1 0 0 1 4570.1 1361)">134</text></g><g clip-path="url(#clip19)"><text fill="#404040" font-family="Yu Gothic,Yu Gothic_MSFontService,sans-serif" font-weight="700" font-size="55" transform="matrix(1 0 0 1 4231.52 1218)">77</text></g><g clip-path="url(#clip20)"><text fill="#404040" font-family="Yu Gothic,Yu Gothic_MSFontService,sans-serif" font-weight="700" font-size="55" transform="matrix(1 0 0 1 4100.36 1075)">62</text></g><g clip-path="url(#clip21)"><text fill="#404040" font-family="Yu Gothic,Yu Gothic_MSFontService,sans-serif" font-weight="700" font-size="55" transform="matrix(1 0 0 1 4471.35 933)">487</text></g><g clip-path="url(#clip22)"><text fill="#404040" font-family="Yu Gothic,Yu Gothic_MSFontService,sans-serif" font-weight="700" font-size="55" transform="matrix(1 0 0 1 4839.42 1646)">9</text></g><g clip-path="url(#clip23)"><text fill="#404040" font-family="Yu Gothic,Yu Gothic_MSFontService,sans-serif" font-weight="700" font-size="55" transform="matrix(1 0 0 1 5086.55 1503)">132</text></g><g clip-path="url(#clip24)"><text fill="#404040" font-family="Yu Gothic,Yu Gothic_MSFontService,sans-serif" font-weight="700" font-size="55" transform="matrix(1 0 0 1 5037.86 1361)">89</text></g><g clip-path="url(#clip25)"><text fill="#404040" font-family="Yu Gothic,Yu Gothic_MSFontService,sans-serif" font-weight="700" font-size="55" transform="matrix(1 0 0 1 4704.58 1218)">80</text></g><g clip-path="url(#clip26)"><text fill="#404040" font-family="Yu Gothic,Yu Gothic_MSFontService,sans-serif" font-weight="700" font-size="55" transform="matrix(1 0 0 1 4561.08 1075)">75</text></g><g clip-path="url(#clip27)"><text fill="#404040" font-family="Yu Gothic,Yu Gothic_MSFontService,sans-serif" font-weight="700" font-size="55" transform="matrix(1 0 0 1 4916.72 933)">385</text></g><g clip-path="url(#clip28)"><text fill="#404040" font-family="Yu Gothic,Yu Gothic_MSFontService,sans-serif" font-weight="700" font-size="55" transform="matrix(1 0 0 1 5306.33 1646)">4</text></g><g clip-path="url(#clip29)"><text fill="#404040" font-family="Yu Gothic,Yu Gothic_MSFontService,sans-serif" font-weight="700" font-size="55" transform="matrix(1 0 0 1 5343.82 1503)">63</text></g><g clip-path="url(#clip30)"><text fill="#404040" font-family="Yu Gothic,Yu Gothic_MSFontService,sans-serif" font-weight="700" font-size="55" transform="matrix(1 0 0 1 5307.43 1361)">44</text></g><g clip-path="url(#clip31)"><text fill="#404040" font-family="Yu Gothic,Yu Gothic_MSFontService,sans-serif" font-weight="700" font-size="55" transform="matrix(1 0 0 1 5096.28 1218)">50</text></g><g clip-path="url(#clip32)"><text fill="#404040" font-family="Yu Gothic,Yu Gothic_MSFontService,sans-serif" font-weight="700" font-size="55" transform="matrix(1 0 0 1 5004.99 1075)">57</text></g><g clip-path="url(#clip33)"><text fill="#404040" font-family="Yu Gothic,Yu Gothic_MSFontService,sans-serif" font-weight="700" font-size="55" transform="matrix(1 0 0 1 5224.71 933)">218</text></g><g clip-path="url(#clip34)"><text fill="#FFFFFF" font-family="Yu Gothic,Yu Gothic_MSFontService,sans-serif" font-weight="700" font-size="55" transform="matrix(1 0 0 1 5485.92 1646)">1</text></g><g clip-path="url(#clip35)"><text fill="#FFFFFF" font-family="Yu Gothic,Yu Gothic_MSFontService,sans-serif" font-weight="700" font-size="55" transform="matrix(1 0 0 1 5463.96 1503)">34</text></g><g clip-path="url(#clip36)"><text fill="#FFFFFF" font-family="Yu Gothic,Yu Gothic_MSFontService,sans-serif" font-weight="700" font-size="55" transform="matrix(1 0 0 1 5451.34 1361)">27</text></g><g clip-path="url(#clip37)"><text fill="#FFFFFF" font-family="Yu Gothic,Yu Gothic_MSFontService,sans-serif" font-weight="700" font-size="55" transform="matrix(1 0 0 1 5376.5 1218)">43</text></g><g clip-path="url(#clip38)"><text fill="#FFFFFF" font-family="Yu Gothic,Yu Gothic_MSFontService,sans-serif" font-weight="700" font-size="55" transform="matrix(1 0 0 1 5351.37 1075)">46</text></g><g clip-path="url(#clip39)"><text fill="#FFFFFF" font-family="Yu Gothic,Yu Gothic_MSFontService,sans-serif" font-weight="700" font-size="55" transform="matrix(1 0 0 1 5413.17 933)">151</text></g><g clip-path="url(#clip40)"><text fill="#595959" font-family="Yu Gothic,Yu Gothic_MSFontService,sans-serif" font-weight="500" font-size="60" transform="matrix(1 0 0 1 3701.3 1796)">0%</text></g><g clip-path="url(#clip41)"><text fill="#595959" font-family="Yu Gothic,Yu Gothic_MSFontService,sans-serif" font-weight="500" font-size="60" transform="matrix(1 0 0 1 4133.71 1796)">25%</text></g><g clip-path="url(#clip42)"><text fill="#595959" font-family="Yu Gothic,Yu Gothic_MSFontService,sans-serif" font-weight="500" font-size="60" transform="matrix(1 0 0 1 4582.67 1796)">50%</text></g><g clip-path="url(#clip43)"><text fill="#595959" font-family="Yu Gothic,Yu Gothic_MSFontService,sans-serif" font-weight="500" font-size="60" transform="matrix(1 0 0 1 5031.62 1796)">75%</text></g><g clip-path="url(#clip44)"><text fill="#595959" font-family="Yu Gothic,Yu Gothic_MSFontService,sans-serif" font-weight="500" font-size="60" transform="matrix(1 0 0 1 5464.04 1796)">100%</text></g><g clip-path="url(#clip45)"><g clip-path="url(#clip46)"><text fill="#595959" font-family="Yu Gothic,Yu Gothic_MSFontService,sans-serif" font-weight="500" font-size="57" transform="matrix(1 0 0 1 3350.81 1643)">その他</text></g></g><g clip-path="url(#clip47)"><g clip-path="url(#clip48)"><text fill="#595959" font-family="Yu Gothic,Yu Gothic_MSFontService,sans-serif" font-weight="500" font-size="57" transform="matrix(1 0 0 1 3522.69 1643)">(n=25)</text></g></g><g clip-path="url(#clip49)"><g clip-path="url(#clip50)"><text fill="#595959" font-family="Yu Gothic,Yu Gothic_MSFontService,sans-serif" font-weight="500" font-size="57" transform="matrix(1 0 0 1 3319 1500)">大学院</text></g></g><g clip-path="url(#clip51)"><g clip-path="url(#clip52)"><text fill="#595959" font-family="Yu Gothic,Yu Gothic_MSFontService,sans-serif" font-weight="500" font-size="57" transform="matrix(1 0 0 1 3490.88 1500)">(n=725)</text></g></g><g clip-path="url(#clip53)"><g clip-path="url(#clip54)"><text fill="#595959" font-family="Yu Gothic,Yu Gothic_MSFontService,sans-serif" font-weight="500" font-size="57" transform="matrix(1 0 0 1 3172.61 1357)">学部</text></g></g><g clip-path="url(#clip55)"><g clip-path="url(#clip56)"><text fill="#595959" font-family="Yu Gothic,Yu Gothic_MSFontService,sans-serif" font-weight="500" font-size="57" transform="matrix(1 0 0 1 3287.2 1357)">3</text></g></g><g clip-path="url(#clip57)"><g clip-path="url(#clip58)"><text fill="#595959" font-family="Yu Gothic,Yu Gothic_MSFontService,sans-serif" font-weight="500" font-size="57" transform="matrix(1 0 0 1 3319 1357)">年以上</text></g></g><g clip-path="url(#clip59)"><g clip-path="url(#clip60)"><text fill="#595959" font-family="Yu Gothic,Yu Gothic_MSFontService,sans-serif" font-weight="500" font-size="57" transform="matrix(1 0 0 1 3490.88 1357)">(n=443)</text></g></g><g clip-path="url(#clip61)"><g clip-path="url(#clip62)"><text fill="#595959" font-family="Yu Gothic,Yu Gothic_MSFontService,sans-serif" font-weight="500" font-size="57" transform="matrix(1 0 0 1 3287.2 1215)">学部</text></g></g><g clip-path="url(#clip63)"><g clip-path="url(#clip64)"><text fill="#595959" font-family="Yu Gothic,Yu Gothic_MSFontService,sans-serif" font-weight="500" font-size="57" transform="matrix(1 0 0 1 3401.78 1215)">2</text></g></g><g clip-path="url(#clip65)"><g clip-path="url(#clip66)"><text fill="#595959" font-family="Yu Gothic,Yu Gothic_MSFontService,sans-serif" font-weight="500" font-size="57" transform="matrix(1 0 0 1 3433.59 1215)">年</text></g></g><g clip-path="url(#clip67)"><g clip-path="url(#clip68)"><text fill="#595959" font-family="Yu Gothic,Yu Gothic_MSFontService,sans-serif" font-weight="500" font-size="57" transform="matrix(1 0 0 1 3490.88 1215)">(n=298)</text></g></g><g clip-path="url(#clip69)"><g clip-path="url(#clip70)"><text fill="#595959" font-family="Yu Gothic,Yu Gothic_MSFontService,sans-serif" font-weight="500" font-size="57" transform="matrix(1 0 0 1 3287.2 1072)">学部</text></g></g><g clip-path="url(#clip71)"><g clip-path="url(#clip72)"><text fill="#595959" font-family="Yu Gothic,Yu Gothic_MSFontService,sans-serif" font-weight="500" font-size="57" transform="matrix(1 0 0 1 3401.78 1072)">1</text></g></g><g clip-path="url(#clip73)"><g clip-path="url(#clip74)"><text fill="#595959" font-family="Yu Gothic,Yu Gothic_MSFontService,sans-serif" font-weight="500" font-size="57" transform="matrix(1 0 0 1 3433.59 1072)">年</text></g></g><g clip-path="url(#clip75)"><g clip-path="url(#clip76)"><text fill="#595959" font-family="Yu Gothic,Yu Gothic_MSFontService,sans-serif" font-weight="500" font-size="57" transform="matrix(1 0 0 1 3490.88 1072)">(n=267)</text></g></g><g clip-path="url(#clip77)"><g clip-path="url(#clip78)"><text fill="#595959" font-family="Yu Gothic,Yu Gothic_MSFontService,sans-serif" font-weight="500" font-size="57" transform="matrix(1 0 0 1 3344.49 930)">全体</text></g></g><g clip-path="url(#clip79)"><g clip-path="url(#clip80)"><text fill="#595959" font-family="Yu Gothic,Yu Gothic_MSFontService,sans-serif" font-weight="500" font-size="57" transform="matrix(1 0 0 1 3459.07 930)">(n=1758)</text></g></g><g clip-path="url(#clip81)"><rect x="5605.5" y="885.5" width="29" height="28.9999" stroke="#000000" stroke-width="4.58333" stroke-linejoin="round" stroke-miterlimit="10" fill="#FFFFFF"/></g><g clip-path="url(#clip82)"><text fill="#595959" font-family="Yu Gothic,Yu Gothic_MSFontService,sans-serif" font-weight="500" font-size="50" transform="matrix(1 0 0 1 5647.13 914)">全く感じていな</text></g><g clip-path="url(#clip83)"><text fill="#595959" font-family="Yu Gothic,Yu Gothic_MSFontService,sans-serif" font-weight="500" font-size="50" transform="matrix(1 0 0 1 5647.13 998)">かった</text></g><g clip-path="url(#clip84)"><rect x="5605.5" y="1061.5" width="29" height="29.9999" stroke="#000000" stroke-width="4.58333" stroke-linejoin="round" stroke-miterlimit="10" fill="#F1F8FD"/></g><g clip-path="url(#clip85)"><text fill="#595959" font-family="Yu Gothic,Yu Gothic_MSFontService,sans-serif" font-weight="500" font-size="50" transform="matrix(1 0 0 1 5647.13 1091)">ほとんど感じてい</text></g><g clip-path="url(#clip86)"><text fill="#595959" font-family="Yu Gothic,Yu Gothic_MSFontService,sans-serif" font-weight="500" font-size="50" transform="matrix(1 0 0 1 5647.13 1175)">なかった</text></g><g clip-path="url(#clip87)"><rect x="5605.5" y="1238.5" width="29" height="28.9999" stroke="#000000" stroke-width="4.58333" stroke-linejoin="round" stroke-miterlimit="10" fill="#C2DDF6"/></g><g clip-path="url(#clip88)"><text fill="#595959" font-family="Yu Gothic,Yu Gothic_MSFontService,sans-serif" font-weight="500" font-size="50" transform="matrix(1 0 0 1 5647.13 1267)">少し感じていた</text></g><g clip-path="url(#clip89)"><rect x="5605.5" y="1414.5" width="29" height="29.9999" stroke="#000000" stroke-width="4.58333" stroke-linejoin="round" stroke-miterlimit="10" fill="#9ECBF0"/></g><g clip-path="url(#clip90)"><text fill="#595959" font-family="Yu Gothic,Yu Gothic_MSFontService,sans-serif" font-weight="500" font-size="50" transform="matrix(1 0 0 1 5647.13 1444)">かなり感じていた</text></g><g clip-path="url(#clip91)"><rect x="5605.5" y="1591.5" width="29" height="28.9999" stroke="#000000" stroke-width="4.58333" stroke-linejoin="round" stroke-miterlimit="10" fill="#095085"/></g><g clip-path="url(#clip92)"><text fill="#595959" font-family="Yu Gothic,Yu Gothic_MSFontService,sans-serif" font-weight="500" font-size="50" transform="matrix(1 0 0 1 5647.13 1620)">深刻に感じていた</text></g><rect x="3101.5" y="557.5" width="2989" height="1283" stroke="#000000" stroke-width="4.58333" stroke-linejoin="round" stroke-miterlimit="10" fill="none"/><g clip-path="url(#clip93)"><g clip-path="url(#clip94)"><text font-family="Yu Gothic,Yu Gothic_MSFontService,sans-serif" font-weight="500" font-size="73" transform="matrix(1 0 0 1 3160.27 669)">【心理面の印象】</text></g></g><g clip-path="url(#clip95)"><g clip-path="url(#clip96)"><text font-family="Yu Gothic,Yu Gothic_MSFontService,sans-serif" font-weight="500" font-size="73" transform="matrix(1 0 0 1 3746.94 669)">2020</text></g></g><g clip-path="url(#clip97)"><g clip-path="url(#clip98)"><text font-family="Yu Gothic,Yu Gothic_MSFontService,sans-serif" font-weight="500" font-size="73" transform="matrix(1 0 0 1 3909.83 669)">年度</text></g></g><g clip-path="url(#clip99)"><g clip-path="url(#clip100)"><text font-family="Yu Gothic,Yu Gothic_MSFontService,sans-serif" font-weight="500" font-size="73" transform="matrix(1 0 0 1 4056.5 669)">A</text></g></g><g clip-path="url(#clip101)"><g clip-path="url(#clip102)"><text font-family="Yu Gothic,Yu Gothic_MSFontService,sans-serif" font-weight="500" font-size="73" transform="matrix(1 0 0 1 4104.16 669)">セメスタを振り返って，授業についていけてないのではな</text></g></g><g clip-path="url(#clip103)"><text font-family="Yu Gothic,Yu Gothic_MSFontService,sans-serif" font-weight="500" font-size="73" transform="matrix(1 0 0 1 3160.27 792)">いかという不安をどれだけ感じていたかについて教えてください。</text></g></g></svg>