<svg width="70" height="15" viewBox="0 0 70 15" fill="none" xmlns="http://www.w3.org/2000/svg">
<path d="M6.6709 13.0332C6.04395 13.7949 5.17676 14.1758 4.06934 14.1758C3.0498 14.1758 2.27051 13.8828 1.73145 13.2969C1.19824 12.7109 0.925781 11.8525 0.914062 10.7217V4.49023H3.4541V10.6338C3.4541 11.624 3.90527 12.1191 4.80762 12.1191C5.66895 12.1191 6.26074 11.8203 6.58301 11.2227V4.49023H9.13184V14H6.74121L6.6709 13.0332ZM14.0889 2.15234V4.49023H15.7148V6.35352H14.0889V11.0996C14.0889 11.4512 14.1562 11.7031 14.291 11.8555C14.4258 12.0078 14.6836 12.084 15.0645 12.084C15.3457 12.084 15.5947 12.0635 15.8115 12.0225V13.9473C15.3135 14.0996 14.8008 14.1758 14.2734 14.1758C12.4922 14.1758 11.584 13.2764 11.5488 11.4775V6.35352H10.1602V4.49023H11.5488V2.15234H14.0889ZM21.5068 14.1758C20.1123 14.1758 18.9756 13.748 18.0967 12.8926C17.2236 12.0371 16.7871 10.8975 16.7871 9.47363V9.22754C16.7871 8.27246 16.9717 7.41992 17.3408 6.66992C17.71 5.91406 18.2314 5.33398 18.9053 4.92969C19.585 4.51953 20.3584 4.31445 21.2256 4.31445C22.5264 4.31445 23.5488 4.72461 24.293 5.54492C25.043 6.36523 25.418 7.52832 25.418 9.03418V10.0713H19.3623C19.4443 10.6924 19.6904 11.1904 20.1006 11.5654C20.5166 11.9404 21.041 12.1279 21.6738 12.1279C22.6523 12.1279 23.417 11.7734 23.9678 11.0645L25.2158 12.4619C24.835 13.001 24.3193 13.4229 23.6689 13.7275C23.0186 14.0264 22.2979 14.1758 21.5068 14.1758ZM21.2168 6.37109C20.7129 6.37109 20.3027 6.54102 19.9863 6.88086C19.6758 7.2207 19.4766 7.70703 19.3887 8.33984H22.9219V8.1377C22.9102 7.5752 22.7578 7.1416 22.4648 6.83691C22.1719 6.52637 21.7559 6.37109 21.2168 6.37109ZM29.5488 14H27V0.5H29.5488V14ZM36.0264 14.1758C34.6318 14.1758 33.4951 13.748 32.6162 12.8926C31.7432 12.0371 31.3066 10.8975 31.3066 9.47363V9.22754C31.3066 8.27246 31.4912 7.41992 31.8604 6.66992C32.2295 5.91406 32.751 5.33398 33.4248 4.92969C34.1045 4.51953 34.8779 4.31445 35.7451 4.31445C37.0459 4.31445 38.0684 4.72461 38.8125 5.54492C39.5625 6.36523 39.9375 7.52832 39.9375 9.03418V10.0713H33.8818C33.9639 10.6924 34.21 11.1904 34.6201 11.5654C35.0361 11.9404 35.5605 12.1279 36.1934 12.1279C37.1719 12.1279 37.9365 11.7734 38.4873 11.0645L39.7354 12.4619C39.3545 13.001 38.8389 13.4229 38.1885 13.7275C37.5381 14.0264 36.8174 14.1758 36.0264 14.1758ZM35.7363 6.37109C35.2324 6.37109 34.8223 6.54102 34.5059 6.88086C34.1953 7.2207 33.9961 7.70703 33.9082 8.33984H37.4414V8.1377C37.4297 7.5752 37.2773 7.1416 36.9844 6.83691C36.6914 6.52637 36.2754 6.37109 35.7363 6.37109ZM45.3428 12.1279C45.8115 12.1279 46.1924 11.999 46.4854 11.7412C46.7783 11.4834 46.9307 11.1406 46.9424 10.7129H49.3242C49.3184 11.3574 49.1426 11.9492 48.7969 12.4883C48.4512 13.0215 47.9766 13.4375 47.373 13.7363C46.7754 14.0293 46.1133 14.1758 45.3867 14.1758C44.0273 14.1758 42.9551 13.7451 42.1699 12.8838C41.3848 12.0166 40.9922 10.8213 40.9922 9.29785V9.13086C40.9922 7.66602 41.3818 6.49707 42.1611 5.62402C42.9404 4.75098 44.0098 4.31445 45.3691 4.31445C46.5586 4.31445 47.5107 4.6543 48.2256 5.33398C48.9463 6.00781 49.3125 6.90723 49.3242 8.03223H46.9424C46.9307 7.54004 46.7783 7.1416 46.4854 6.83691C46.1924 6.52637 45.8057 6.37109 45.3252 6.37109C44.7334 6.37109 44.2852 6.58789 43.9805 7.02148C43.6816 7.44922 43.5322 8.14648 43.5322 9.11328V9.37695C43.5322 10.3555 43.6816 11.0586 43.9805 11.4863C44.2793 11.9141 44.7334 12.1279 45.3428 12.1279ZM50.3789 9.15723C50.3789 8.21387 50.5605 7.37305 50.9238 6.63477C51.2871 5.89648 51.8086 5.3252 52.4883 4.9209C53.1738 4.5166 53.9678 4.31445 54.8701 4.31445C56.1533 4.31445 57.1992 4.70703 58.0078 5.49219C58.8223 6.27734 59.2764 7.34375 59.3701 8.69141L59.3877 9.3418C59.3877 10.8008 58.9805 11.9727 58.166 12.8574C57.3516 13.7363 56.2588 14.1758 54.8877 14.1758C53.5166 14.1758 52.4209 13.7363 51.6006 12.8574C50.7861 11.9785 50.3789 10.7832 50.3789 9.27148V9.15723ZM52.9189 9.3418C52.9189 10.2441 53.0889 10.9355 53.4287 11.416C53.7686 11.8906 54.2549 12.1279 54.8877 12.1279C55.5029 12.1279 55.9834 11.8936 56.3291 11.4248C56.6748 10.9502 56.8477 10.1943 56.8477 9.15723C56.8477 8.27246 56.6748 7.58691 56.3291 7.10059C55.9834 6.61426 55.4971 6.37109 54.8701 6.37109C54.249 6.37109 53.7686 6.61426 53.4287 7.10059C53.0889 7.58105 52.9189 8.32812 52.9189 9.3418ZM63.29 4.49023L63.3691 5.58887C64.0488 4.73926 64.96 4.31445 66.1025 4.31445C67.1104 4.31445 67.8604 4.61035 68.3525 5.20215C68.8447 5.79395 69.0967 6.67871 69.1084 7.85645V14H66.5684V7.91797C66.5684 7.37891 66.4512 6.98926 66.2168 6.74902C65.9824 6.50293 65.5928 6.37988 65.0479 6.37988C64.333 6.37988 63.7969 6.68457 63.4395 7.29395V14H60.8994V4.49023H63.29Z" fill="white"/>
</svg>
