<svg width="113" height="26" viewBox="0 0 113 26" fill="none" xmlns="http://www.w3.org/2000/svg">
<path d="M23.6977 25.2924H3.59469C2.26584 25.2924 1.00515 24.5946 0.391837 23.4032C-0.306656 22.0415 -0.0511092 20.4076 1.02218 19.3352L15.0091 5.36145H4.99167C2.23177 5.36145 0 3.13177 0 0.37445H18.5186C19.8474 0.37445 21.1081 1.07229 21.7214 2.26372C22.42 3.62536 22.1644 5.25933 21.0911 6.33162L7.10419 20.3054H18.706C21.4659 20.3054 23.6977 22.5351 23.6977 25.2924ZM103.258 0C100.379 0 97.7889 1.24249 96.017 3.23389C94.2287 1.24249 91.6389 0 88.7769 0C83.4272 0 79.0661 4.56149 79.0661 9.88887V25.2924C81.8259 25.2924 84.0576 23.0627 84.0576 20.3054V9.83783C84.0576 7.26773 86.0509 5.08912 88.6063 4.987C91.2983 4.88487 93.53 7.04645 93.53 9.71869V20.3054C93.53 23.0627 95.7617 25.2924 98.5215 25.2924V9.83783C98.5215 7.26773 100.515 5.08912 103.07 4.987C105.762 4.88487 107.994 7.04645 107.994 9.71869V20.3054C107.994 23.0627 110.226 25.2924 112.985 25.2924V9.88887C112.968 4.56149 108.607 0 103.258 0ZM48.8775 12.8334C48.8775 19.914 43.1192 25.6669 36.032 25.6669C28.9449 25.6669 23.1866 19.914 23.1866 12.8334C23.1866 5.7529 28.9619 0 36.032 0C43.1022 0 48.8775 5.7529 48.8775 12.8334ZM43.8858 12.8334C43.8858 8.51025 40.3593 4.987 36.032 4.987C31.7048 4.987 28.1782 8.51025 28.1782 12.8334C28.1782 17.1567 31.7048 20.6799 36.032 20.6799C40.3593 20.6799 43.8858 17.1567 43.8858 12.8334ZM76.5616 12.8334C76.5616 19.914 70.8036 25.6669 63.7165 25.6669C56.6288 25.6669 50.8707 19.914 50.8707 12.8334C50.8707 5.7529 56.6464 0 63.7165 0C70.7861 0 76.5616 5.7529 76.5616 12.8334ZM71.5701 12.8334C71.5701 8.51025 68.0437 4.987 63.7165 4.987C59.3892 4.987 55.8624 8.51025 55.8624 12.8334C55.8624 17.1567 59.3892 20.6799 63.7165 20.6799C68.0437 20.6799 71.5701 17.1567 71.5701 12.8334Z" fill="#0B5CFF"/>
</svg>
