<svg width="2993" height="1077" xmlns="http://www.w3.org/2000/svg" xmlns:xlink="http://www.w3.org/1999/xlink" overflow="hidden"><defs><clipPath id="clip0"><rect x="3598" y="176" width="2993" height="1077"/></clipPath><clipPath id="clip1"><rect x="3599" y="178" width="2988" height="1072"/></clipPath><clipPath id="clip2"><rect x="4599" y="326" width="1744" height="804"/></clipPath><clipPath id="clip3"><rect x="3599" y="178" width="2988" height="1072"/></clipPath><clipPath id="clip4"><rect x="3599" y="178" width="2988" height="1072"/></clipPath><clipPath id="clip5"><rect x="3599" y="178" width="2988" height="1072"/></clipPath><clipPath id="clip6"><rect x="3599" y="178" width="2988" height="1072"/></clipPath><clipPath id="clip7"><rect x="3599" y="178" width="2988" height="1072"/></clipPath><clipPath id="clip8"><rect x="3599" y="178" width="2988" height="1072"/></clipPath><clipPath id="clip9"><rect x="3599" y="178" width="2988" height="1072"/></clipPath><clipPath id="clip10"><rect x="3599" y="178" width="2988" height="1072"/></clipPath><clipPath id="clip11"><rect x="3599" y="178" width="2988" height="1072"/></clipPath><clipPath id="clip12"><rect x="3599" y="178" width="2988" height="1072"/></clipPath><clipPath id="clip13"><rect x="3599" y="178" width="2988" height="1072"/></clipPath><clipPath id="clip14"><rect x="3599" y="178" width="2988" height="1072"/></clipPath><clipPath id="clip15"><rect x="3599" y="178" width="2988" height="1072"/></clipPath><clipPath id="clip16"><rect x="3599" y="178" width="2988" height="1072"/></clipPath><clipPath id="clip17"><rect x="3349" y="1022" width="2087" height="101"/></clipPath><clipPath id="clip18"><rect x="3599" y="178" width="2988" height="1072"/></clipPath><clipPath id="clip19"><rect x="3826" y="922" width="1252" height="101"/></clipPath><clipPath id="clip20"><rect x="3599" y="178" width="2988" height="1072"/></clipPath><clipPath id="clip21"><rect x="3588" y="822" width="1669" height="101"/></clipPath><clipPath id="clip22"><rect x="3599" y="178" width="2988" height="1072"/></clipPath><clipPath id="clip23"><rect x="3588" y="722" width="1669" height="101"/></clipPath><clipPath id="clip24"><rect x="3599" y="178" width="2988" height="1072"/></clipPath><clipPath id="clip25"><rect x="3217" y="622" width="2318" height="101"/></clipPath><clipPath id="clip26"><rect x="3599" y="178" width="2988" height="1072"/></clipPath><clipPath id="clip27"><rect x="3217" y="622" width="2318" height="101"/></clipPath><clipPath id="clip28"><rect x="3599" y="178" width="2988" height="1072"/></clipPath><clipPath id="clip29"><rect x="3217" y="622" width="2318" height="101"/></clipPath><clipPath id="clip30"><rect x="3599" y="178" width="2988" height="1072"/></clipPath><clipPath id="clip31"><rect x="3694" y="522" width="1483" height="101"/></clipPath><clipPath id="clip32"><rect x="3599" y="178" width="2988" height="1072"/></clipPath><clipPath id="clip33"><rect x="3694" y="522" width="1483" height="101"/></clipPath><clipPath id="clip34"><rect x="3599" y="178" width="2988" height="1072"/></clipPath><clipPath id="clip35"><rect x="3694" y="522" width="1483" height="101"/></clipPath><clipPath id="clip36"><rect x="3599" y="178" width="2988" height="1072"/></clipPath><clipPath id="clip37"><rect x="3694" y="422" width="1483" height="101"/></clipPath><clipPath id="clip38"><rect x="3599" y="178" width="2988" height="1072"/></clipPath><clipPath id="clip39"><rect x="3694" y="422" width="1483" height="101"/></clipPath><clipPath id="clip40"><rect x="3599" y="178" width="2988" height="1072"/></clipPath><clipPath id="clip41"><rect x="3694" y="422" width="1483" height="101"/></clipPath><clipPath id="clip42"><rect x="3599" y="178" width="2988" height="1072"/></clipPath><clipPath id="clip43"><rect x="3694" y="321" width="1483" height="102"/></clipPath><clipPath id="clip44"><rect x="3599" y="178" width="2988" height="1072"/></clipPath><clipPath id="clip45"><rect x="3694" y="321" width="1483" height="102"/></clipPath><clipPath id="clip46"><rect x="3599" y="178" width="2988" height="1072"/></clipPath><clipPath id="clip47"><rect x="3694" y="321" width="1483" height="102"/></clipPath><clipPath id="clip48"><rect x="3599" y="178" width="2988" height="1072"/></clipPath><clipPath id="clip49"><rect x="3599" y="178" width="2988" height="1072"/></clipPath><clipPath id="clip50"><rect x="3599" y="178" width="2988" height="1072"/></clipPath><clipPath id="clip51"><rect x="3599" y="178" width="2988" height="1072"/></clipPath><clipPath id="clip52"><rect x="3599" y="178" width="2989" height="1073"/></clipPath><clipPath id="clip53"><rect x="6267" y="1136" width="418" height="95"/></clipPath><clipPath id="clip54"><rect x="3599" y="178" width="2989" height="1073"/></clipPath><clipPath id="clip55"><rect x="3511" y="445" width="836" height="126"/></clipPath><clipPath id="clip56"><rect x="3599" y="178" width="2989" height="1073"/></clipPath><clipPath id="clip57"><rect x="3599" y="178" width="2989" height="1073"/></clipPath><clipPath id="clip58"><rect x="3599" y="178" width="2989" height="1073"/></clipPath><clipPath id="clip59"><rect x="3599" y="178" width="2989" height="1073"/></clipPath></defs><g clip-path="url(#clip0)" transform="translate(-3598 -176)"><rect x="3600" y="178" width="2988" height="1072" fill="#FFFFFF"/><g clip-path="url(#clip1)"><path d="M5179.67 326.5 5179.67 1127.5M5759.69 326.5 5759.69 1127.5M6339.5 326.5 6339.5 1127.5" stroke="#D9D9D9" stroke-width="3.4375" stroke-linejoin="round" stroke-miterlimit="10" fill="none"/></g><g clip-path="url(#clip2)"><path d="M4612.65 1106.54 4599.5 1106.54 4599.5 1047.53 4612.65 1047.53ZM4668.65 1006.53 4599.5 1006.53 4599.5 947.531 4668.65 947.531ZM5554.68 906.53 4599.5 906.53 4599.5 847.528 5554.68 847.528ZM6047.7 806.527 4599.5 806.527 4599.5 747.525 6047.7 747.525ZM5107.67 706.523 4599.5 706.523 4599.5 647.521 5107.67 647.521ZM5133.67 605.52 4599.5 605.52 4599.5 547.518 5133.67 547.518ZM5204.67 505.517 4599.5 505.517 4599.5 446.515 5204.67 446.515ZM5131.67 405.513 4599.5 405.513 4599.5 346.512 5131.67 346.512Z" stroke="#000000" stroke-width="4.58333" stroke-linejoin="round" stroke-miterlimit="10" fill="#70B3EA"/></g><g clip-path="url(#clip3)"><path d="M0 0 0.000360892 801" stroke="#D9D9D9" stroke-width="3.4375" stroke-linejoin="round" stroke-miterlimit="10" fill="none" fill-rule="evenodd" transform="matrix(1 0 0 -1 4599.5 1127.5)"/></g><g clip-path="url(#clip4)"><text fill="#404040" font-family="Yu Gothic,Yu Gothic_MSFontService,sans-serif" font-weight="700" font-size="55" transform="matrix(1 0 0 1 4640.57 1096)">7</text></g><g clip-path="url(#clip5)"><text fill="#404040" font-family="Yu Gothic,Yu Gothic_MSFontService,sans-serif" font-weight="700" font-size="55" transform="matrix(1 0 0 1 4696.64 996)">36</text></g><g clip-path="url(#clip6)"><text fill="#404040" font-family="Yu Gothic,Yu Gothic_MSFontService,sans-serif" font-weight="700" font-size="55" transform="matrix(1 0 0 1 5582.23 896)">494</text></g><g clip-path="url(#clip7)"><text fill="#404040" font-family="Yu Gothic,Yu Gothic_MSFontService,sans-serif" font-weight="700" font-size="55" transform="matrix(1 0 0 1 6075.3 796)">749</text></g><g clip-path="url(#clip8)"><text fill="#404040" font-family="Yu Gothic,Yu Gothic_MSFontService,sans-serif" font-weight="700" font-size="55" transform="matrix(1 0 0 1 5135.57 696)">263</text></g><g clip-path="url(#clip9)"><text fill="#404040" font-family="Yu Gothic,Yu Gothic_MSFontService,sans-serif" font-weight="700" font-size="55" transform="matrix(1 0 0 1 5160.71 595)">276</text></g><g clip-path="url(#clip10)"><text fill="#404040" font-family="Yu Gothic,Yu Gothic_MSFontService,sans-serif" font-weight="700" font-size="55" transform="matrix(1 0 0 1 5232.25 495)">313</text></g><g clip-path="url(#clip11)"><text fill="#404040" font-family="Yu Gothic,Yu Gothic_MSFontService,sans-serif" font-weight="700" font-size="55" transform="matrix(1 0 0 1 5158.77 395)">275</text></g><g clip-path="url(#clip12)"><text fill="#595959" font-family="Yu Gothic,Yu Gothic_MSFontService,sans-serif" font-weight="500" font-size="60" transform="matrix(1 0 0 1 4583 1226)">0</text></g><g clip-path="url(#clip13)"><text fill="#595959" font-family="Yu Gothic,Yu Gothic_MSFontService,sans-serif" font-weight="500" font-size="60" transform="matrix(1 0 0 1 5130.01 1226)">300</text></g><g clip-path="url(#clip14)"><text fill="#595959" font-family="Yu Gothic,Yu Gothic_MSFontService,sans-serif" font-weight="500" font-size="60" transform="matrix(1 0 0 1 5710.09 1226)">600</text></g><g clip-path="url(#clip15)"><text fill="#595959" font-family="Yu Gothic,Yu Gothic_MSFontService,sans-serif" font-weight="500" font-size="60" transform="matrix(1 0 0 1 6290.17 1226)">900</text></g><g clip-path="url(#clip16)"><g clip-path="url(#clip17)"><text fill="#595959" font-family="Yu Gothic,Yu Gothic_MSFontService,sans-serif" font-weight="500" font-size="60" transform="matrix(1 0 0 1 4243.59 1094)">聴講生など</text></g></g><g clip-path="url(#clip18)"><g clip-path="url(#clip19)"><text fill="#595959" font-family="Yu Gothic,Yu Gothic_MSFontService,sans-serif" font-weight="500" font-size="60" transform="matrix(1 0 0 1 4362.76 994)">研究生</text></g></g><g clip-path="url(#clip20)"><g clip-path="url(#clip21)"><text fill="#595959" font-family="Yu Gothic,Yu Gothic_MSFontService,sans-serif" font-weight="500" font-size="60" transform="matrix(1 0 0 1 4303.18 894)">博士課程</text></g></g><g clip-path="url(#clip22)"><g clip-path="url(#clip23)"><text fill="#595959" font-family="Yu Gothic,Yu Gothic_MSFontService,sans-serif" font-weight="500" font-size="60" transform="matrix(1 0 0 1 4303.18 794)">修士課程</text></g></g><g clip-path="url(#clip24)"><g clip-path="url(#clip25)"><text fill="#595959" font-family="Yu Gothic,Yu Gothic_MSFontService,sans-serif" font-weight="500" font-size="60" transform="matrix(1 0 0 1 4210.52 693)">学部</text></g></g><g clip-path="url(#clip26)"><g clip-path="url(#clip27)"><text fill="#595959" font-family="Yu Gothic,Yu Gothic_MSFontService,sans-serif" font-weight="500" font-size="60" transform="matrix(1 0 0 1 4329.69 693)">4</text></g></g><g clip-path="url(#clip28)"><g clip-path="url(#clip29)"><text fill="#595959" font-family="Yu Gothic,Yu Gothic_MSFontService,sans-serif" font-weight="500" font-size="60" transform="matrix(1 0 0 1 4362.76 693)">年以上</text></g></g><g clip-path="url(#clip30)"><g clip-path="url(#clip31)"><text fill="#595959" font-family="Yu Gothic,Yu Gothic_MSFontService,sans-serif" font-weight="500" font-size="60" transform="matrix(1 0 0 1 4329.69 593)">学部</text></g></g><g clip-path="url(#clip32)"><g clip-path="url(#clip33)"><text fill="#595959" font-family="Yu Gothic,Yu Gothic_MSFontService,sans-serif" font-weight="500" font-size="60" transform="matrix(1 0 0 1 4448.86 593)">3</text></g></g><g clip-path="url(#clip34)"><g clip-path="url(#clip35)"><text fill="#595959" font-family="Yu Gothic,Yu Gothic_MSFontService,sans-serif" font-weight="500" font-size="60" transform="matrix(1 0 0 1 4481.93 593)">年</text></g></g><g clip-path="url(#clip36)"><g clip-path="url(#clip37)"><text fill="#595959" font-family="Yu Gothic,Yu Gothic_MSFontService,sans-serif" font-weight="500" font-size="60" transform="matrix(1 0 0 1 4329.69 493)">学部</text></g></g><g clip-path="url(#clip38)"><g clip-path="url(#clip39)"><text fill="#595959" font-family="Yu Gothic,Yu Gothic_MSFontService,sans-serif" font-weight="500" font-size="60" transform="matrix(1 0 0 1 4448.86 493)">2</text></g></g><g clip-path="url(#clip40)"><g clip-path="url(#clip41)"><text fill="#595959" font-family="Yu Gothic,Yu Gothic_MSFontService,sans-serif" font-weight="500" font-size="60" transform="matrix(1 0 0 1 4481.93 493)">年</text></g></g><g clip-path="url(#clip42)"><g clip-path="url(#clip43)"><text fill="#595959" font-family="Yu Gothic,Yu Gothic_MSFontService,sans-serif" font-weight="500" font-size="60" transform="matrix(1 0 0 1 4329.69 393)">学部</text></g></g><g clip-path="url(#clip44)"><g clip-path="url(#clip45)"><text fill="#595959" font-family="Yu Gothic,Yu Gothic_MSFontService,sans-serif" font-weight="500" font-size="60" transform="matrix(1 0 0 1 4448.86 393)">1</text></g></g><g clip-path="url(#clip46)"><g clip-path="url(#clip47)"><text fill="#595959" font-family="Yu Gothic,Yu Gothic_MSFontService,sans-serif" font-weight="500" font-size="60" transform="matrix(1 0 0 1 4481.93 393)">年</text></g></g><g clip-path="url(#clip48)"><text font-family="Yu Gothic,Yu Gothic_MSFontService,sans-serif" font-weight="500" font-size="73" transform="matrix(1 0 0 1 3647.31 296)">【</text></g><g clip-path="url(#clip49)"><text font-family="Yu Gothic,Yu Gothic_MSFontService,sans-serif" font-weight="500" font-size="73" transform="matrix(1 0 0 1 3720.64 296)">属性</text></g><g clip-path="url(#clip50)"><text font-family="Yu Gothic,Yu Gothic_MSFontService,sans-serif" font-weight="500" font-size="73" transform="matrix(1 0 0 1 3867.31 296)">】</text></g><g clip-path="url(#clip51)"><text font-family="Yu Gothic,Yu Gothic_MSFontService,sans-serif" font-weight="500" font-size="73" transform="matrix(1 0 0 1 3940.64 296)">学年・身分について，お答えください．</text></g><rect x="3600.5" y="178.5" width="2988" height="1072" stroke="#000000" stroke-width="4.58333" stroke-linejoin="round" stroke-miterlimit="10" fill="none"/><g clip-path="url(#clip52)"><g clip-path="url(#clip53)"><text font-family="Yu Gothic,Yu Gothic_MSFontService,sans-serif" font-weight="500" font-size="60" transform="matrix(1 0 0 1 6446.22 1224)">人</text></g></g><g clip-path="url(#clip54)"><g clip-path="url(#clip55)"><text fill="#404040" font-family="Yu Gothic,Yu Gothic_MSFontService,sans-serif" font-weight="500" font-size="60" transform="matrix(1 0 0 1 3869.48 533)">学部</text></g></g><g clip-path="url(#clip56)"><text fill="#404040" font-family="Yu Gothic,Yu Gothic_MSFontService,sans-serif" font-weight="500" font-size="60" transform="matrix(1 0 0 1 3839.69 845)">大学院</text></g><g clip-path="url(#clip57)"><text fill="#404040" font-family="Yu Gothic,Yu Gothic_MSFontService,sans-serif" font-weight="500" font-size="60" transform="matrix(1 0 0 1 3839.69 1038)">その他</text></g><g clip-path="url(#clip58)"><path d="M3680.5 727.5 6499.23 727.5" stroke="#404040" stroke-width="6.875" stroke-miterlimit="8" stroke-dasharray="6.875 6.875" fill="none" fill-rule="evenodd"/></g><g clip-path="url(#clip59)"><path d="M3680.5 930.5 6499.26 930.5" stroke="#404040" stroke-width="6.875" stroke-miterlimit="8" stroke-dasharray="6.875 6.875" fill="none" fill-rule="evenodd"/></g></g></svg>