<svg width="2993" height="1139" xmlns="http://www.w3.org/2000/svg" xmlns:xlink="http://www.w3.org/1999/xlink" overflow="hidden"><defs><clipPath id="clip0"><rect x="3587" y="5103" width="2993" height="1139"/></clipPath><clipPath id="clip1"><rect x="3588" y="5104" width="2988" height="1135"/></clipPath><clipPath id="clip2"><rect x="4302" y="5278" width="1238" height="821"/></clipPath><clipPath id="clip3"><rect x="4302" y="5278" width="1238" height="821"/></clipPath><clipPath id="clip4"><rect x="3588" y="5104" width="2988" height="1135"/></clipPath><clipPath id="clip5"><rect x="3588" y="5104" width="2988" height="1135"/></clipPath><clipPath id="clip6"><rect x="3588" y="5104" width="2988" height="1135"/></clipPath><clipPath id="clip7"><rect x="3588" y="5104" width="2988" height="1135"/></clipPath><clipPath id="clip8"><rect x="3588" y="5104" width="2988" height="1135"/></clipPath><clipPath id="clip9"><rect x="3588" y="5104" width="2988" height="1135"/></clipPath><clipPath id="clip10"><rect x="3588" y="5104" width="2988" height="1135"/></clipPath><clipPath id="clip11"><rect x="3588" y="5104" width="2988" height="1135"/></clipPath><clipPath id="clip12"><rect x="3588" y="5104" width="2988" height="1135"/></clipPath><clipPath id="clip13"><rect x="3588" y="5104" width="2988" height="1135"/></clipPath><clipPath id="clip14"><rect x="3588" y="5104" width="2988" height="1135"/></clipPath><clipPath id="clip15"><rect x="3588" y="5104" width="2988" height="1135"/></clipPath><clipPath id="clip16"><rect x="3588" y="5104" width="2988" height="1135"/></clipPath><clipPath id="clip17"><rect x="3588" y="5104" width="2988" height="1135"/></clipPath><clipPath id="clip18"><rect x="3588" y="5104" width="2988" height="1135"/></clipPath><clipPath id="clip19"><rect x="3588" y="5104" width="2988" height="1135"/></clipPath><clipPath id="clip20"><rect x="3588" y="5104" width="2988" height="1135"/></clipPath><clipPath id="clip21"><rect x="3588" y="5104" width="2988" height="1135"/></clipPath><clipPath id="clip22"><rect x="3588" y="5104" width="2988" height="1135"/></clipPath><clipPath id="clip23"><rect x="2792" y="5955" width="2575" height="138"/></clipPath><clipPath id="clip24"><rect x="3588" y="5104" width="2988" height="1135"/></clipPath><clipPath id="clip25"><rect x="2792" y="5955" width="2575" height="138"/></clipPath><clipPath id="clip26"><rect x="3588" y="5104" width="2988" height="1135"/></clipPath><clipPath id="clip27"><rect x="2527" y="5819" width="3039" height="137"/></clipPath><clipPath id="clip28"><rect x="3588" y="5104" width="2988" height="1135"/></clipPath><clipPath id="clip29"><rect x="2527" y="5819" width="3039" height="137"/></clipPath><clipPath id="clip30"><rect x="3588" y="5104" width="2988" height="1135"/></clipPath><clipPath id="clip31"><rect x="2051" y="5683" width="3872" height="137"/></clipPath><clipPath id="clip32"><rect x="3588" y="5104" width="2988" height="1135"/></clipPath><clipPath id="clip33"><rect x="2051" y="5683" width="3872" height="137"/></clipPath><clipPath id="clip34"><rect x="3588" y="5104" width="2988" height="1135"/></clipPath><clipPath id="clip35"><rect x="2051" y="5683" width="3872" height="137"/></clipPath><clipPath id="clip36"><rect x="3588" y="5104" width="2988" height="1135"/></clipPath><clipPath id="clip37"><rect x="2051" y="5683" width="3872" height="137"/></clipPath><clipPath id="clip38"><rect x="3588" y="5104" width="2988" height="1135"/></clipPath><clipPath id="clip39"><rect x="2527" y="5547" width="3039" height="137"/></clipPath><clipPath id="clip40"><rect x="3588" y="5104" width="2988" height="1135"/></clipPath><clipPath id="clip41"><rect x="2527" y="5547" width="3039" height="137"/></clipPath><clipPath id="clip42"><rect x="3588" y="5104" width="2988" height="1135"/></clipPath><clipPath id="clip43"><rect x="2527" y="5547" width="3039" height="137"/></clipPath><clipPath id="clip44"><rect x="3588" y="5104" width="2988" height="1135"/></clipPath><clipPath id="clip45"><rect x="2527" y="5547" width="3039" height="137"/></clipPath><clipPath id="clip46"><rect x="3588" y="5104" width="2988" height="1135"/></clipPath><clipPath id="clip47"><rect x="2527" y="5410" width="3039" height="138"/></clipPath><clipPath id="clip48"><rect x="3588" y="5104" width="2988" height="1135"/></clipPath><clipPath id="clip49"><rect x="2527" y="5410" width="3039" height="138"/></clipPath><clipPath id="clip50"><rect x="3588" y="5104" width="2988" height="1135"/></clipPath><clipPath id="clip51"><rect x="2527" y="5410" width="3039" height="138"/></clipPath><clipPath id="clip52"><rect x="3588" y="5104" width="2988" height="1135"/></clipPath><clipPath id="clip53"><rect x="2527" y="5410" width="3039" height="138"/></clipPath><clipPath id="clip54"><rect x="3588" y="5104" width="2988" height="1135"/></clipPath><clipPath id="clip55"><rect x="2766" y="5274" width="2621" height="137"/></clipPath><clipPath id="clip56"><rect x="3588" y="5104" width="2988" height="1135"/></clipPath><clipPath id="clip57"><rect x="2766" y="5274" width="2621" height="137"/></clipPath><clipPath id="clip58"><rect x="3588" y="5104" width="2988" height="1135"/></clipPath><clipPath id="clip59"><rect x="3588" y="5104" width="2988" height="1135"/></clipPath><clipPath id="clip60"><rect x="3588" y="5104" width="2988" height="1135"/></clipPath><clipPath id="clip61"><rect x="3588" y="5104" width="2988" height="1135"/></clipPath><clipPath id="clip62"><rect x="3588" y="5104" width="2989" height="1136"/></clipPath><clipPath id="clip63"><rect x="1007" y="5112" width="6161" height="359"/></clipPath><clipPath id="clip64"><rect x="3588" y="5104" width="2989" height="1136"/></clipPath><clipPath id="clip65"><rect x="1007" y="5112" width="6161" height="359"/></clipPath><clipPath id="clip66"><rect x="3588" y="5104" width="2989" height="1136"/></clipPath><clipPath id="clip67"><rect x="1007" y="5112" width="6161" height="359"/></clipPath><clipPath id="clip68"><rect x="3588" y="5104" width="2989" height="1136"/></clipPath><clipPath id="clip69"><rect x="1007" y="5112" width="6161" height="359"/></clipPath></defs><g clip-path="url(#clip0)" transform="translate(-3587 -5103)"><rect x="3589" y="5105" width="2988" height="1134" fill="#FFFFFF"/><g clip-path="url(#clip1)"><path d="M4610.65 5278.5 4610.65 6096.5M4919.66 5278.5 4919.66 6096.5M5228.67 5278.5 5228.67 6096.5M5537.5 5278.5 5537.5 6096.5" stroke="#D9D9D9" stroke-width="4.58333" stroke-linejoin="round" stroke-miterlimit="10" fill="none"/></g><g clip-path="url(#clip2)"><path d="M5451.68 6072.7 4302.5 6072.7 4302.5 5983.7 5451.68 5983.7ZM5394.68 5936.69 4302.5 5936.69 4302.5 5847.69 5394.68 5847.69ZM5479.68 5800.69 4302.5 5800.69 4302.5 5711.69 5479.68 5711.69ZM5489.68 5663.69 4302.5 5663.69 4302.5 5574.68 5489.68 5574.68ZM5496.68 5527.68 4302.5 5527.68 4302.5 5438.68 5496.68 5438.68ZM5438.68 5391.68 4302.5 5391.68 4302.5 5302.67 5438.68 5302.67Z" stroke="#000000" stroke-width="4.58333" stroke-linejoin="round" stroke-miterlimit="10" fill="#DEEBF7"/></g><g clip-path="url(#clip3)"><path d="M5537.68 6072.7 5451.68 6072.7 5451.68 5983.7 5537.68 5983.7ZM5537.68 5936.69 5394.68 5936.69 5394.68 5847.69 5537.68 5847.69ZM5537.68 5800.69 5479.68 5800.69 5479.68 5711.69 5537.68 5711.69ZM5537.68 5663.69 5489.68 5663.69 5489.68 5574.68 5537.68 5574.68ZM5537.68 5527.68 5496.68 5527.68 5496.68 5438.68 5537.68 5438.68ZM5537.68 5391.68 5438.68 5391.68 5438.68 5302.67 5537.68 5302.67Z" stroke="#000000" stroke-width="4.58333" stroke-linejoin="round" stroke-miterlimit="10" fill="#095085"/></g><g clip-path="url(#clip4)"><path d="M0 0 0.000360892 818" stroke="#D9D9D9" stroke-width="3.4375" stroke-linejoin="round" stroke-miterlimit="10" fill="none" fill-rule="evenodd" transform="matrix(1 0 0 -1 4302.5 6096.5)"/></g><g clip-path="url(#clip5)"><text fill="#404040" font-family="Yu Gothic,Yu Gothic_MSFontService,sans-serif" font-weight="700" font-size="55" transform="matrix(1 0 0 1 4845.25 6047)">40</text></g><g clip-path="url(#clip6)"><text fill="#404040" font-family="Yu Gothic,Yu Gothic_MSFontService,sans-serif" font-weight="700" font-size="55" transform="matrix(1 0 0 1 4785.26 5911)">1099</text></g><g clip-path="url(#clip7)"><text fill="#404040" font-family="Yu Gothic,Yu Gothic_MSFontService,sans-serif" font-weight="700" font-size="55" transform="matrix(1 0 0 1 4843.92 5775)">514</text></g><g clip-path="url(#clip8)"><text fill="#404040" font-family="Yu Gothic,Yu Gothic_MSFontService,sans-serif" font-weight="700" font-size="55" transform="matrix(1 0 0 1 4848.89 5639)">301</text></g><g clip-path="url(#clip9)"><text fill="#404040" font-family="Yu Gothic,Yu Gothic_MSFontService,sans-serif" font-weight="700" font-size="55" transform="matrix(1 0 0 1 4852.35 5502)">266</text></g><g clip-path="url(#clip10)"><text fill="#404040" font-family="Yu Gothic,Yu Gothic_MSFontService,sans-serif" font-weight="700" font-size="55" transform="matrix(1 0 0 1 4807.41 5366)">2220</text></g><g clip-path="url(#clip11)"><text fill="#FFFFFF" font-family="Yu Gothic,Yu Gothic_MSFontService,sans-serif" font-weight="700" font-size="55" transform="matrix(1 0 0 1 5478.49 6047)">3</text></g><g clip-path="url(#clip12)"><text fill="#FFFFFF" font-family="Yu Gothic,Yu Gothic_MSFontService,sans-serif" font-weight="700" font-size="55" transform="matrix(1 0 0 1 5418.51 5911)">144</text></g><g clip-path="url(#clip13)"><text fill="#FFFFFF" font-family="Yu Gothic,Yu Gothic_MSFontService,sans-serif" font-weight="700" font-size="55" transform="matrix(1 0 0 1 5477.17 5775)">25</text></g><g clip-path="url(#clip14)"><text fill="#FFFFFF" font-family="Yu Gothic,Yu Gothic_MSFontService,sans-serif" font-weight="700" font-size="55" transform="matrix(1 0 0 1 5482.13 5639)">12</text></g><g clip-path="url(#clip15)"><text fill="#FFFFFF" font-family="Yu Gothic,Yu Gothic_MSFontService,sans-serif" font-weight="700" font-size="55" transform="matrix(1 0 0 1 5501.36 5502)">9</text></g><g clip-path="url(#clip16)"><text fill="#FFFFFF" font-family="Yu Gothic,Yu Gothic_MSFontService,sans-serif" font-weight="700" font-size="55" transform="matrix(1 0 0 1 5440.65 5366)">193</text></g><g clip-path="url(#clip17)"><text fill="#595959" font-family="Yu Gothic,Yu Gothic_MSFontService,sans-serif" font-weight="500" font-size="60" transform="matrix(1 0 0 1 4261.89 6195)">0%</text></g><g clip-path="url(#clip18)"><text fill="#595959" font-family="Yu Gothic,Yu Gothic_MSFontService,sans-serif" font-weight="500" font-size="60" transform="matrix(1 0 0 1 4554.1 6195)">25%</text></g><g clip-path="url(#clip19)"><text fill="#595959" font-family="Yu Gothic,Yu Gothic_MSFontService,sans-serif" font-weight="500" font-size="60" transform="matrix(1 0 0 1 4862.83 6195)">50%</text></g><g clip-path="url(#clip20)"><text fill="#595959" font-family="Yu Gothic,Yu Gothic_MSFontService,sans-serif" font-weight="500" font-size="60" transform="matrix(1 0 0 1 5171.57 6195)">75%</text></g><g clip-path="url(#clip21)"><text fill="#595959" font-family="Yu Gothic,Yu Gothic_MSFontService,sans-serif" font-weight="500" font-size="60" transform="matrix(1 0 0 1 5463.78 6195)">100%</text></g><g clip-path="url(#clip22)"><g clip-path="url(#clip23)"><text fill="#595959" font-family="Yu Gothic,Yu Gothic_MSFontService,sans-serif" font-weight="500" font-size="60" transform="matrix(1 0 0 1 3895.77 6045)">その他</text></g></g><g clip-path="url(#clip24)"><g clip-path="url(#clip25)"><text fill="#595959" font-family="Yu Gothic,Yu Gothic_MSFontService,sans-serif" font-weight="500" font-size="60" transform="matrix(1 0 0 1 4074.52 6045)">(n=43)</text></g></g><g clip-path="url(#clip26)"><g clip-path="url(#clip27)"><text fill="#595959" font-family="Yu Gothic,Yu Gothic_MSFontService,sans-serif" font-weight="500" font-size="60" transform="matrix(1 0 0 1 3829.64 5909)">大学院</text></g></g><g clip-path="url(#clip28)"><g clip-path="url(#clip29)"><text fill="#595959" font-family="Yu Gothic,Yu Gothic_MSFontService,sans-serif" font-weight="500" font-size="60" transform="matrix(1 0 0 1 4008.39 5909)">(n=1243)</text></g></g><g clip-path="url(#clip30)"><g clip-path="url(#clip31)"><text fill="#595959" font-family="Yu Gothic,Yu Gothic_MSFontService,sans-serif" font-weight="500" font-size="60" transform="matrix(1 0 0 1 3710.47 5773)">学部</text></g></g><g clip-path="url(#clip32)"><g clip-path="url(#clip33)"><text fill="#595959" font-family="Yu Gothic,Yu Gothic_MSFontService,sans-serif" font-weight="500" font-size="60" transform="matrix(1 0 0 1 3829.64 5773)">3</text></g></g><g clip-path="url(#clip34)"><g clip-path="url(#clip35)"><text fill="#595959" font-family="Yu Gothic,Yu Gothic_MSFontService,sans-serif" font-weight="500" font-size="60" transform="matrix(1 0 0 1 3862.71 5773)">年以上</text></g></g><g clip-path="url(#clip36)"><g clip-path="url(#clip37)"><text fill="#595959" font-family="Yu Gothic,Yu Gothic_MSFontService,sans-serif" font-weight="500" font-size="60" transform="matrix(1 0 0 1 4041.46 5773)">(n=539)</text></g></g><g clip-path="url(#clip38)"><g clip-path="url(#clip39)"><text fill="#595959" font-family="Yu Gothic,Yu Gothic_MSFontService,sans-serif" font-weight="500" font-size="60" transform="matrix(1 0 0 1 3829.64 5636)">学部</text></g></g><g clip-path="url(#clip40)"><g clip-path="url(#clip41)"><text fill="#595959" font-family="Yu Gothic,Yu Gothic_MSFontService,sans-serif" font-weight="500" font-size="60" transform="matrix(1 0 0 1 3948.8 5636)">2</text></g></g><g clip-path="url(#clip42)"><g clip-path="url(#clip43)"><text fill="#595959" font-family="Yu Gothic,Yu Gothic_MSFontService,sans-serif" font-weight="500" font-size="60" transform="matrix(1 0 0 1 3981.87 5636)">年</text></g></g><g clip-path="url(#clip44)"><g clip-path="url(#clip45)"><text fill="#595959" font-family="Yu Gothic,Yu Gothic_MSFontService,sans-serif" font-weight="500" font-size="60" transform="matrix(1 0 0 1 4041.46 5636)">(n=313)</text></g></g><g clip-path="url(#clip46)"><g clip-path="url(#clip47)"><text fill="#595959" font-family="Yu Gothic,Yu Gothic_MSFontService,sans-serif" font-weight="500" font-size="60" transform="matrix(1 0 0 1 3829.64 5500)">学部</text></g></g><g clip-path="url(#clip48)"><g clip-path="url(#clip49)"><text fill="#595959" font-family="Yu Gothic,Yu Gothic_MSFontService,sans-serif" font-weight="500" font-size="60" transform="matrix(1 0 0 1 3948.8 5500)">1</text></g></g><g clip-path="url(#clip50)"><g clip-path="url(#clip51)"><text fill="#595959" font-family="Yu Gothic,Yu Gothic_MSFontService,sans-serif" font-weight="500" font-size="60" transform="matrix(1 0 0 1 3981.87 5500)">年</text></g></g><g clip-path="url(#clip52)"><g clip-path="url(#clip53)"><text fill="#595959" font-family="Yu Gothic,Yu Gothic_MSFontService,sans-serif" font-weight="500" font-size="60" transform="matrix(1 0 0 1 4041.46 5500)">(n=275)</text></g></g><g clip-path="url(#clip54)"><g clip-path="url(#clip55)"><text fill="#595959" font-family="Yu Gothic,Yu Gothic_MSFontService,sans-serif" font-weight="500" font-size="60" transform="matrix(1 0 0 1 3889.22 5364)">全体</text></g></g><g clip-path="url(#clip56)"><g clip-path="url(#clip57)"><text fill="#595959" font-family="Yu Gothic,Yu Gothic_MSFontService,sans-serif" font-weight="500" font-size="60" transform="matrix(1 0 0 1 4008.39 5364)">(n=2413)</text></g></g><g clip-path="url(#clip58)"><rect x="5863.5" y="5732.5" width="32.0005" height="32" stroke="#000000" stroke-width="4.58333" stroke-linejoin="round" stroke-miterlimit="10" fill="#DEEBF7"/></g><g clip-path="url(#clip59)"><text fill="#595959" font-family="Yu Gothic,Yu Gothic_MSFontService,sans-serif" font-weight="500" font-size="55" transform="matrix(1 0 0 1 5910.02 5763)">日本語</text></g><g clip-path="url(#clip60)"><rect x="6248.5" y="5732.5" width="31.0005" height="32" stroke="#000000" stroke-width="4.58333" stroke-linejoin="round" stroke-miterlimit="10" fill="#095085"/></g><g clip-path="url(#clip61)"><text fill="#595959" font-family="Yu Gothic,Yu Gothic_MSFontService,sans-serif" font-weight="500" font-size="55" transform="matrix(1 0 0 1 6294.08 5763)">英語</text></g><rect x="3589.5" y="5105.5" width="2988" height="1134" stroke="#000000" stroke-width="4.58333" stroke-linejoin="round" stroke-miterlimit="10" fill="none"/><g clip-path="url(#clip62)"><g clip-path="url(#clip63)"><text font-family="Yu Gothic,Yu Gothic_MSFontService,sans-serif" font-weight="500" font-size="73" transform="matrix(1 0 0 1 3647.66 5216)">【</text></g></g><g clip-path="url(#clip64)"><g clip-path="url(#clip65)"><text font-family="Yu Gothic,Yu Gothic_MSFontService,sans-serif" font-weight="500" font-size="73" transform="matrix(1 0 0 1 3720.99 5216)">言語</text></g></g><g clip-path="url(#clip66)"><g clip-path="url(#clip67)"><text font-family="Yu Gothic,Yu Gothic_MSFontService,sans-serif" font-weight="500" font-size="73" transform="matrix(1 0 0 1 3867.66 5216)">】</text></g></g><g clip-path="url(#clip68)"><g clip-path="url(#clip69)"><text font-family="Yu Gothic,Yu Gothic_MSFontService,sans-serif" font-weight="500" font-size="73" transform="matrix(1 0 0 1 3940.99 5216)">回答に用いた言語</text></g></g></g></svg>