<svg width="2994" height="3415" xmlns="http://www.w3.org/2000/svg" xmlns:xlink="http://www.w3.org/1999/xlink" overflow="hidden"><defs><clipPath id="clip0"><rect x="3595" y="1363" width="2994" height="3415"/></clipPath><clipPath id="clip1"><rect x="3596" y="1364" width="2989" height="3410"/></clipPath><clipPath id="clip2"><rect x="4856" y="1772" width="1485" height="2809"/></clipPath><clipPath id="clip3"><rect x="3596" y="1364" width="2989" height="3410"/></clipPath><clipPath id="clip4"><rect x="3596" y="1364" width="2989" height="3410"/></clipPath><clipPath id="clip5"><rect x="3596" y="1364" width="2989" height="3410"/></clipPath><clipPath id="clip6"><rect x="3596" y="1364" width="2989" height="3410"/></clipPath><clipPath id="clip7"><rect x="3596" y="1364" width="2989" height="3410"/></clipPath><clipPath id="clip8"><rect x="3596" y="1364" width="2989" height="3410"/></clipPath><clipPath id="clip9"><rect x="3596" y="1364" width="2989" height="3410"/></clipPath><clipPath id="clip10"><rect x="3596" y="1364" width="2989" height="3410"/></clipPath><clipPath id="clip11"><rect x="3596" y="1364" width="2989" height="3410"/></clipPath><clipPath id="clip12"><rect x="3596" y="1364" width="2989" height="3410"/></clipPath><clipPath id="clip13"><rect x="3596" y="1364" width="2989" height="3410"/></clipPath><clipPath id="clip14"><rect x="3596" y="1364" width="2989" height="3410"/></clipPath><clipPath id="clip15"><rect x="3596" y="1364" width="2989" height="3410"/></clipPath><clipPath id="clip16"><rect x="3596" y="1364" width="2989" height="3410"/></clipPath><clipPath id="clip17"><rect x="3596" y="1364" width="2989" height="3410"/></clipPath><clipPath id="clip18"><rect x="3596" y="1364" width="2989" height="3410"/></clipPath><clipPath id="clip19"><rect x="3596" y="1364" width="2989" height="3410"/></clipPath><clipPath id="clip20"><rect x="3596" y="1364" width="2989" height="3410"/></clipPath><clipPath id="clip21"><rect x="3596" y="1364" width="2989" height="3410"/></clipPath><clipPath id="clip22"><rect x="3596" y="1364" width="2989" height="3410"/></clipPath><clipPath id="clip23"><rect x="3596" y="1364" width="2989" height="3410"/></clipPath><clipPath id="clip24"><rect x="3596" y="1364" width="2989" height="3410"/></clipPath><clipPath id="clip25"><rect x="3596" y="1364" width="2989" height="3410"/></clipPath><clipPath id="clip26"><rect x="3596" y="1364" width="2989" height="3410"/></clipPath><clipPath id="clip27"><rect x="3596" y="1364" width="2989" height="3410"/></clipPath><clipPath id="clip28"><rect x="3596" y="1364" width="2989" height="3410"/></clipPath><clipPath id="clip29"><rect x="3596" y="1364" width="2989" height="3410"/></clipPath><clipPath id="clip30"><rect x="3596" y="1364" width="2989" height="3410"/></clipPath><clipPath id="clip31"><rect x="3596" y="1364" width="2989" height="3410"/></clipPath><clipPath id="clip32"><rect x="3596" y="1364" width="2989" height="3410"/></clipPath><clipPath id="clip33"><rect x="3596" y="1364" width="2989" height="3410"/></clipPath><clipPath id="clip34"><rect x="3596" y="1364" width="2989" height="3410"/></clipPath><clipPath id="clip35"><rect x="2891" y="4464" width="3338" height="113"/></clipPath><clipPath id="clip36"><rect x="3596" y="1364" width="2989" height="3410"/></clipPath><clipPath id="clip37"><rect x="2176" y="4356" width="4589" height="113"/></clipPath><clipPath id="clip38"><rect x="3596" y="1364" width="2989" height="3410"/></clipPath><clipPath id="clip39"><rect x="2653" y="4248" width="3754" height="113"/></clipPath><clipPath id="clip40"><rect x="3596" y="1364" width="2989" height="3410"/></clipPath><clipPath id="clip41"><rect x="2414" y="4140" width="4172" height="113"/></clipPath><clipPath id="clip42"><rect x="3596" y="1364" width="2989" height="3410"/></clipPath><clipPath id="clip43"><rect x="3129" y="4032" width="2921" height="113"/></clipPath><clipPath id="clip44"><rect x="3596" y="1364" width="2989" height="3410"/></clipPath><clipPath id="clip45"><rect x="3368" y="3924" width="2503" height="113"/></clipPath><clipPath id="clip46"><rect x="3596" y="1364" width="2989" height="3410"/></clipPath><clipPath id="clip47"><rect x="3368" y="3816" width="2503" height="113"/></clipPath><clipPath id="clip48"><rect x="3596" y="1364" width="2989" height="3410"/></clipPath><clipPath id="clip49"><rect x="3129" y="3708" width="2921" height="113"/></clipPath><clipPath id="clip50"><rect x="3596" y="1364" width="2989" height="3410"/></clipPath><clipPath id="clip51"><rect x="3368" y="3600" width="2503" height="113"/></clipPath><clipPath id="clip52"><rect x="3596" y="1364" width="2989" height="3410"/></clipPath><clipPath id="clip53"><rect x="2653" y="3492" width="3754" height="113"/></clipPath><clipPath id="clip54"><rect x="3596" y="1364" width="2989" height="3410"/></clipPath><clipPath id="clip55"><rect x="3368" y="3384" width="2503" height="114"/></clipPath><clipPath id="clip56"><rect x="3596" y="1364" width="2989" height="3410"/></clipPath><clipPath id="clip57"><rect x="2891" y="3276" width="3338" height="114"/></clipPath><clipPath id="clip58"><rect x="3596" y="1364" width="2989" height="3410"/></clipPath><clipPath id="clip59"><rect x="3368" y="3168" width="2503" height="114"/></clipPath><clipPath id="clip60"><rect x="3596" y="1364" width="2989" height="3410"/></clipPath><clipPath id="clip61"><rect x="3368" y="3060" width="2503" height="114"/></clipPath><clipPath id="clip62"><rect x="3596" y="1364" width="2989" height="3410"/></clipPath><clipPath id="clip63"><rect x="2891" y="2952" width="3338" height="114"/></clipPath><clipPath id="clip64"><rect x="3596" y="1364" width="2989" height="3410"/></clipPath><clipPath id="clip65"><rect x="4083" y="2737" width="1252" height="113"/></clipPath><clipPath id="clip66"><rect x="3596" y="1364" width="2989" height="3410"/></clipPath><clipPath id="clip67"><rect x="3844" y="2629" width="1670" height="113"/></clipPath><clipPath id="clip68"><rect x="3596" y="1364" width="2989" height="3410"/></clipPath><clipPath id="clip69"><rect x="3844" y="2521" width="1670" height="113"/></clipPath><clipPath id="clip70"><rect x="3596" y="1364" width="2989" height="3410"/></clipPath><clipPath id="clip71"><rect x="4083" y="2413" width="1252" height="113"/></clipPath><clipPath id="clip72"><rect x="3596" y="1364" width="2989" height="3410"/></clipPath><clipPath id="clip73"><rect x="4083" y="2305" width="1252" height="113"/></clipPath><clipPath id="clip74"><rect x="3596" y="1364" width="2989" height="3410"/></clipPath><clipPath id="clip75"><rect x="4083" y="2197" width="1252" height="113"/></clipPath><clipPath id="clip76"><rect x="3596" y="1364" width="2989" height="3410"/></clipPath><clipPath id="clip77"><rect x="4083" y="2089" width="1252" height="113"/></clipPath><clipPath id="clip78"><rect x="3596" y="1364" width="2989" height="3410"/></clipPath><clipPath id="clip79"><rect x="4083" y="1981" width="1252" height="113"/></clipPath><clipPath id="clip80"><rect x="3596" y="1364" width="2989" height="3410"/></clipPath><clipPath id="clip81"><rect x="4083" y="1873" width="1252" height="113"/></clipPath><clipPath id="clip82"><rect x="3596" y="1364" width="2989" height="3410"/></clipPath><clipPath id="clip83"><rect x="3186" y="1765" width="2821" height="113"/></clipPath><clipPath id="clip84"><rect x="3596" y="1364" width="2989" height="3410"/></clipPath><clipPath id="clip85"><rect x="3186" y="1765" width="2821" height="113"/></clipPath><clipPath id="clip86"><rect x="3596" y="1364" width="2989" height="3410"/></clipPath><clipPath id="clip87"><rect x="3186" y="1765" width="2821" height="113"/></clipPath><clipPath id="clip88"><rect x="3596" y="1364" width="2989" height="3410"/></clipPath><clipPath id="clip89"><rect x="3186" y="1765" width="2821" height="113"/></clipPath><clipPath id="clip90"><rect x="3596" y="1364" width="2989" height="3410"/></clipPath><clipPath id="clip91"><rect x="3596" y="1364" width="2989" height="3410"/></clipPath><clipPath id="clip92"><rect x="3596" y="1364" width="2989" height="3410"/></clipPath><clipPath id="clip93"><rect x="3596" y="1364" width="2989" height="3410"/></clipPath><clipPath id="clip94"><rect x="3596" y="1364" width="2990" height="3411"/></clipPath><clipPath id="clip95"><rect x="6265" y="4589" width="418" height="157"/></clipPath><clipPath id="clip96"><rect x="3596" y="1364" width="2990" height="3411"/></clipPath><clipPath id="clip97"><rect x="3596" y="1364" width="2990" height="3411"/></clipPath><clipPath id="clip98"><rect x="3596" y="1364" width="2990" height="3411"/></clipPath><clipPath id="clip99"><rect x="3596" y="1364" width="2990" height="3411"/></clipPath><clipPath id="clip100"><rect x="3596" y="1364" width="2990" height="3411"/></clipPath><clipPath id="clip101"><rect x="2696" y="1591" width="3958" height="130"/></clipPath><clipPath id="clip102"><rect x="3596" y="1364" width="2990" height="3411"/></clipPath><clipPath id="clip103"><rect x="2696" y="1591" width="3958" height="130"/></clipPath><clipPath id="clip104"><rect x="3596" y="1364" width="2990" height="3411"/></clipPath><clipPath id="clip105"><rect x="2696" y="1591" width="3958" height="130"/></clipPath><clipPath id="clip106"><rect x="3596" y="1364" width="2990" height="3411"/></clipPath><clipPath id="clip107"><rect x="2696" y="1591" width="3958" height="130"/></clipPath><clipPath id="clip108"><rect x="3596" y="1364" width="2990" height="3411"/></clipPath><clipPath id="clip109"><rect x="2696" y="1591" width="3958" height="130"/></clipPath><clipPath id="clip110"><rect x="3596" y="1364" width="2990" height="3411"/></clipPath><clipPath id="clip111"><rect x="2696" y="1591" width="3958" height="130"/></clipPath><clipPath id="clip112"><rect x="3596" y="1364" width="2990" height="3411"/></clipPath><clipPath id="clip113"><rect x="3596" y="1364" width="2990" height="3411"/></clipPath><clipPath id="clip114"><rect x="3596" y="1364" width="2990" height="3411"/></clipPath><clipPath id="clip115"><rect x="3596" y="1364" width="2990" height="3411"/></clipPath><clipPath id="clip116"><rect x="3596" y="1364" width="2990" height="3411"/></clipPath><clipPath id="clip117"><rect x="3596" y="1364" width="2990" height="3411"/></clipPath><clipPath id="clip118"><rect x="3596" y="1364" width="2990" height="3411"/></clipPath><clipPath id="clip119"><rect x="3596" y="1364" width="2990" height="3411"/></clipPath><clipPath id="clip120"><rect x="3596" y="1364" width="2990" height="3411"/></clipPath><clipPath id="clip121"><rect x="5160" y="4480" width="2147" height="112"/></clipPath><clipPath id="clip122"><rect x="3596" y="1364" width="2990" height="3411"/></clipPath><clipPath id="clip123"><rect x="5160" y="4480" width="2147" height="112"/></clipPath><clipPath id="clip124"><rect x="3596" y="1364" width="2990" height="3411"/></clipPath><clipPath id="clip125"><rect x="5160" y="4480" width="2147" height="112"/></clipPath><clipPath id="clip126"><rect x="3596" y="1364" width="2990" height="3411"/></clipPath><clipPath id="clip127"><rect x="3596" y="1364" width="2990" height="3411"/></clipPath><clipPath id="clip128"><rect x="3283" y="2780" width="5441" height="112"/></clipPath><clipPath id="clip129"><rect x="3596" y="1364" width="2990" height="3411"/></clipPath><clipPath id="clip130"><rect x="3283" y="2780" width="5441" height="112"/></clipPath><clipPath id="clip131"><rect x="3596" y="1364" width="2990" height="3411"/></clipPath><clipPath id="clip132"><rect x="3283" y="2780" width="5441" height="112"/></clipPath><clipPath id="clip133"><rect x="3596" y="1364" width="2990" height="3411"/></clipPath><clipPath id="clip134"><rect x="3283" y="2780" width="5441" height="112"/></clipPath><clipPath id="clip135"><rect x="3596" y="1364" width="2990" height="3411"/></clipPath><clipPath id="clip136"><rect x="3283" y="2780" width="5441" height="112"/></clipPath><clipPath id="clip137"><rect x="3596" y="1364" width="2990" height="3411"/></clipPath><clipPath id="clip138"><rect x="3596" y="1364" width="2990" height="3411"/></clipPath><clipPath id="clip139"><rect x="3596" y="1364" width="2990" height="3411"/></clipPath><clipPath id="clip140"><rect x="3596" y="1364" width="2990" height="3411"/></clipPath></defs><g clip-path="url(#clip0)" transform="translate(-3595 -1363)"><rect x="3597" y="1365" width="2989" height="3410" fill="#FFFFFF"/><g clip-path="url(#clip1)"><path d="M5226.67 1772.5 5226.67 4578.5M5596.68 1772.5 5596.68 4578.5M5967.7 1772.5 5967.7 4578.5M6337.5 1772.5 6337.5 4578.5" stroke="#D9D9D9" stroke-width="3.4375" stroke-linejoin="round" stroke-miterlimit="10" fill="none"/></g><g clip-path="url(#clip2)"><path d="M4933.66 4556.65 4856.5 4556.65 4856.5 4492.65 4933.66 4492.65ZM4970.66 4448.65 4856.5 4448.65 4856.5 4384.64 4970.66 4384.64ZM5070.67 4340.64 4856.5 4340.64 4856.5 4276.64 5070.67 4276.64ZM5200.67 4232.64 4856.5 4232.64 4856.5 4168.64 5200.67 4168.64ZM4918.66 4124.64 4856.5 4124.64 4856.5 4060.63 4918.66 4060.63ZM4915.66 4016.63 4856.5 4016.63 4856.5 3952.63 4915.66 3952.63ZM5126.67 3908.63 4856.5 3908.63 4856.5 3845.63 5126.67 3845.63ZM5415.68 3800.62 4856.5 3800.62 4856.5 3737.62 5415.68 3737.62ZM5011.66 3692.62 4856.5 3692.62 4856.5 3629.62 5011.66 3629.62ZM5226.67 3584.62 4856.5 3584.62 4856.5 3521.62 5226.67 3521.62ZM5385.68 3476.61 4856.5 3476.61 4856.5 3413.61 5385.68 3413.61ZM5189.67 3368.61 4856.5 3368.61 4856.5 3305.61 5189.67 3305.61ZM5930.69 3260.61 4856.5 3260.61 4856.5 3197.6 5930.69 3197.6ZM5148.67 3152.6 4856.5 3152.6 4856.5 3089.6 5148.67 3089.6ZM5126.67 3045.6 4856.5 3045.6 4856.5 2981.6 5126.67 2981.6ZM4915.66 2829.59 4856.5 2829.59 4856.5 2765.59 4915.66 2765.59ZM4937.66 2721.59 4856.5 2721.59 4856.5 2657.59 4937.66 2657.59ZM4948.66 2613.59 4856.5 2613.59 4856.5 2549.58 4948.66 2549.58ZM5015.66 2505.58 4856.5 2505.58 4856.5 2441.58 5015.66 2441.58ZM5211.67 2397.58 4856.5 2397.58 4856.5 2333.58 5211.67 2333.58ZM5078.67 2289.58 4856.5 2289.58 4856.5 2226.57 5078.67 2226.57ZM5352.68 2181.57 4856.5 2181.57 4856.5 2118.57 5352.68 2118.57ZM4996.66 2073.57 4856.5 2073.57 4856.5 2010.57 4996.66 2010.57ZM5059.67 1965.56 4856.5 1965.56 4856.5 1902.56 5059.67 1902.56ZM5037.67 1857.56 4856.5 1857.56 4856.5 1794.56 5037.67 1794.56Z" stroke="#000000" stroke-width="4.58333" stroke-linejoin="round" stroke-miterlimit="10" fill="#70B3EA"/></g><g clip-path="url(#clip3)"><path d="M0 0 0.000360892 2806" stroke="#D9D9D9" stroke-width="3.4375" stroke-linejoin="round" stroke-miterlimit="10" fill="none" fill-rule="evenodd" transform="matrix(1 0 0 -1 4856.5 4578.5)"/></g><g clip-path="url(#clip4)"><text fill="#404040" font-family="Yu Gothic,Yu Gothic_MSFontService,sans-serif" font-weight="700" font-size="55" transform="matrix(1 0 0 1 4961.32 4544)">21</text></g><g clip-path="url(#clip5)"><text fill="#404040" font-family="Yu Gothic,Yu Gothic_MSFontService,sans-serif" font-weight="700" font-size="55" transform="matrix(1 0 0 1 4998.36 4436)">31</text></g><g clip-path="url(#clip6)"><text fill="#404040" font-family="Yu Gothic,Yu Gothic_MSFontService,sans-serif" font-weight="700" font-size="55" transform="matrix(1 0 0 1 5098.38 4328)">58</text></g><g clip-path="url(#clip7)"><text fill="#404040" font-family="Yu Gothic,Yu Gothic_MSFontService,sans-serif" font-weight="700" font-size="55" transform="matrix(1 0 0 1 5228.02 4220)">93</text></g><g clip-path="url(#clip8)"><text fill="#404040" font-family="Yu Gothic,Yu Gothic_MSFontService,sans-serif" font-weight="700" font-size="55" transform="matrix(1 0 0 1 4946.51 4112)">17</text></g><g clip-path="url(#clip9)"><text fill="#404040" font-family="Yu Gothic,Yu Gothic_MSFontService,sans-serif" font-weight="700" font-size="55" transform="matrix(1 0 0 1 4942.8 4004)">16</text></g><g clip-path="url(#clip10)"><text fill="#404040" font-family="Yu Gothic,Yu Gothic_MSFontService,sans-serif" font-weight="700" font-size="55" transform="matrix(1 0 0 1 5153.94 3896)">73</text></g><g clip-path="url(#clip11)"><text fill="#404040" font-family="Yu Gothic,Yu Gothic_MSFontService,sans-serif" font-weight="700" font-size="55" transform="matrix(1 0 0 1 5442.86 3788)">151</text></g><g clip-path="url(#clip12)"><text fill="#404040" font-family="Yu Gothic,Yu Gothic_MSFontService,sans-serif" font-weight="700" font-size="55" transform="matrix(1 0 0 1 5039.11 3680)">42</text></g><g clip-path="url(#clip13)"><text fill="#404040" font-family="Yu Gothic,Yu Gothic_MSFontService,sans-serif" font-weight="700" font-size="55" transform="matrix(1 0 0 1 5253.95 3572)">100</text></g><g clip-path="url(#clip14)"><text fill="#404040" font-family="Yu Gothic,Yu Gothic_MSFontService,sans-serif" font-weight="700" font-size="55" transform="matrix(1 0 0 1 5413.23 3464)">143</text></g><g clip-path="url(#clip15)"><text fill="#404040" font-family="Yu Gothic,Yu Gothic_MSFontService,sans-serif" font-weight="700" font-size="55" transform="matrix(1 0 0 1 5216.91 3356)">90</text></g><g clip-path="url(#clip16)"><text fill="#404040" font-family="Yu Gothic,Yu Gothic_MSFontService,sans-serif" font-weight="700" font-size="55" transform="matrix(1 0 0 1 5957.74 3248)">290</text></g><g clip-path="url(#clip17)"><text fill="#404040" font-family="Yu Gothic,Yu Gothic_MSFontService,sans-serif" font-weight="700" font-size="55" transform="matrix(1 0 0 1 5176.16 3140)">79</text></g><g clip-path="url(#clip18)"><text fill="#404040" font-family="Yu Gothic,Yu Gothic_MSFontService,sans-serif" font-weight="700" font-size="55" transform="matrix(1 0 0 1 5153.94 3032)">73</text></g><g clip-path="url(#clip19)"><text fill="#404040" font-family="Yu Gothic,Yu Gothic_MSFontService,sans-serif" font-weight="700" font-size="55" transform="matrix(1 0 0 1 4942.8 2817)">16</text></g><g clip-path="url(#clip20)"><text fill="#404040" font-family="Yu Gothic,Yu Gothic_MSFontService,sans-serif" font-weight="700" font-size="55" transform="matrix(1 0 0 1 4965.03 2709)">22</text></g><g clip-path="url(#clip21)"><text fill="#404040" font-family="Yu Gothic,Yu Gothic_MSFontService,sans-serif" font-weight="700" font-size="55" transform="matrix(1 0 0 1 4976.14 2601)">25</text></g><g clip-path="url(#clip22)"><text fill="#404040" font-family="Yu Gothic,Yu Gothic_MSFontService,sans-serif" font-weight="700" font-size="55" transform="matrix(1 0 0 1 5042.81 2493)">43</text></g><g clip-path="url(#clip23)"><text fill="#404040" font-family="Yu Gothic,Yu Gothic_MSFontService,sans-serif" font-weight="700" font-size="55" transform="matrix(1 0 0 1 5239.13 2385)">96</text></g><g clip-path="url(#clip24)"><text fill="#404040" font-family="Yu Gothic,Yu Gothic_MSFontService,sans-serif" font-weight="700" font-size="55" transform="matrix(1 0 0 1 5105.78 2277)">60</text></g><g clip-path="url(#clip25)"><text fill="#404040" font-family="Yu Gothic,Yu Gothic_MSFontService,sans-serif" font-weight="700" font-size="55" transform="matrix(1 0 0 1 5379.89 2169)">134</text></g><g clip-path="url(#clip26)"><text fill="#404040" font-family="Yu Gothic,Yu Gothic_MSFontService,sans-serif" font-weight="700" font-size="55" transform="matrix(1 0 0 1 5024.29 2061)">38</text></g><g clip-path="url(#clip27)"><text fill="#404040" font-family="Yu Gothic,Yu Gothic_MSFontService,sans-serif" font-weight="700" font-size="55" transform="matrix(1 0 0 1 5087.26 1953)">55</text></g><g clip-path="url(#clip28)"><text fill="#404040" font-family="Yu Gothic,Yu Gothic_MSFontService,sans-serif" font-weight="700" font-size="55" transform="matrix(1 0 0 1 5065.04 1845)">49</text></g><g clip-path="url(#clip29)"><text fill="#595959" font-family="Yu Gothic,Yu Gothic_MSFontService,sans-serif" font-weight="500" font-size="60" transform="matrix(1 0 0 1 4839.5 4677)">0</text></g><g clip-path="url(#clip30)"><text fill="#595959" font-family="Yu Gothic,Yu Gothic_MSFontService,sans-serif" font-weight="500" font-size="60" transform="matrix(1 0 0 1 5176.85 4677)">100</text></g><g clip-path="url(#clip31)"><text fill="#595959" font-family="Yu Gothic,Yu Gothic_MSFontService,sans-serif" font-weight="500" font-size="60" transform="matrix(1 0 0 1 5547.26 4677)">200</text></g><g clip-path="url(#clip32)"><text fill="#595959" font-family="Yu Gothic,Yu Gothic_MSFontService,sans-serif" font-weight="500" font-size="60" transform="matrix(1 0 0 1 5917.68 4677)">300</text></g><g clip-path="url(#clip33)"><text fill="#595959" font-family="Yu Gothic,Yu Gothic_MSFontService,sans-serif" font-weight="500" font-size="60" transform="matrix(1 0 0 1 6288.09 4677)">400</text></g><g clip-path="url(#clip34)"><g clip-path="url(#clip35)"><text fill="#595959" font-family="Yu Gothic,Yu Gothic_MSFontService,sans-serif" font-weight="500" font-size="60" transform="matrix(1 0 0 1 4321.35 4541)">公共政策学教育部</text></g></g><g clip-path="url(#clip36)"><g clip-path="url(#clip37)"><text fill="#595959" font-family="Yu Gothic,Yu Gothic_MSFontService,sans-serif" font-weight="500" font-size="60" transform="matrix(1 0 0 1 4142.6 4433)">情報学環・学際情報学府</text></g></g><g clip-path="url(#clip38)"><g clip-path="url(#clip39)"><text fill="#595959" font-family="Yu Gothic,Yu Gothic_MSFontService,sans-serif" font-weight="500" font-size="60" transform="matrix(1 0 0 1 4261.76 4326)">情報理工学系研究科</text></g></g><g clip-path="url(#clip40)"><g clip-path="url(#clip41)"><text fill="#595959" font-family="Yu Gothic,Yu Gothic_MSFontService,sans-serif" font-weight="500" font-size="60" transform="matrix(1 0 0 1 4202.18 4218)">新領域創成科学研究科</text></g></g><g clip-path="url(#clip42)"><g clip-path="url(#clip43)"><text fill="#595959" font-family="Yu Gothic,Yu Gothic_MSFontService,sans-serif" font-weight="500" font-size="60" transform="matrix(1 0 0 1 4380.93 4110)">数理科学研究科</text></g></g><g clip-path="url(#clip44)"><g clip-path="url(#clip45)"><text fill="#595959" font-family="Yu Gothic,Yu Gothic_MSFontService,sans-serif" font-weight="500" font-size="60" transform="matrix(1 0 0 1 4440.51 4002)">薬学系研究科</text></g></g><g clip-path="url(#clip46)"><g clip-path="url(#clip47)"><text fill="#595959" font-family="Yu Gothic,Yu Gothic_MSFontService,sans-serif" font-weight="500" font-size="60" transform="matrix(1 0 0 1 4440.51 3894)">教育学研究科</text></g></g><g clip-path="url(#clip48)"><g clip-path="url(#clip49)"><text fill="#595959" font-family="Yu Gothic,Yu Gothic_MSFontService,sans-serif" font-weight="500" font-size="60" transform="matrix(1 0 0 1 4380.93 3786)">総合文化研究科</text></g></g><g clip-path="url(#clip50)"><g clip-path="url(#clip51)"><text fill="#595959" font-family="Yu Gothic,Yu Gothic_MSFontService,sans-serif" font-weight="500" font-size="60" transform="matrix(1 0 0 1 4440.51 3678)">経済学研究科</text></g></g><g clip-path="url(#clip52)"><g clip-path="url(#clip53)"><text fill="#595959" font-family="Yu Gothic,Yu Gothic_MSFontService,sans-serif" font-weight="500" font-size="60" transform="matrix(1 0 0 1 4261.76 3570)">農学生命科学研究科</text></g></g><g clip-path="url(#clip54)"><g clip-path="url(#clip55)"><text fill="#595959" font-family="Yu Gothic,Yu Gothic_MSFontService,sans-serif" font-weight="500" font-size="60" transform="matrix(1 0 0 1 4440.51 3462)">理学系研究科</text></g></g><g clip-path="url(#clip56)"><g clip-path="url(#clip57)"><text fill="#595959" font-family="Yu Gothic,Yu Gothic_MSFontService,sans-serif" font-weight="500" font-size="60" transform="matrix(1 0 0 1 4321.35 3354)">人文社会系研究科</text></g></g><g clip-path="url(#clip58)"><g clip-path="url(#clip59)"><text fill="#595959" font-family="Yu Gothic,Yu Gothic_MSFontService,sans-serif" font-weight="500" font-size="60" transform="matrix(1 0 0 1 4440.51 3246)">工学系研究科</text></g></g><g clip-path="url(#clip60)"><g clip-path="url(#clip61)"><text fill="#595959" font-family="Yu Gothic,Yu Gothic_MSFontService,sans-serif" font-weight="500" font-size="60" transform="matrix(1 0 0 1 4440.51 3138)">医学系研究科</text></g></g><g clip-path="url(#clip62)"><g clip-path="url(#clip63)"><text fill="#595959" font-family="Yu Gothic,Yu Gothic_MSFontService,sans-serif" font-weight="500" font-size="60" transform="matrix(1 0 0 1 4321.35 3030)">法学政治学研究科</text></g></g><g clip-path="url(#clip64)"><g clip-path="url(#clip65)"><text fill="#595959" font-family="Yu Gothic,Yu Gothic_MSFontService,sans-serif" font-weight="500" font-size="60" transform="matrix(1 0 0 1 4619.26 2814)">薬学部</text></g></g><g clip-path="url(#clip66)"><g clip-path="url(#clip67)"><text fill="#595959" font-family="Yu Gothic,Yu Gothic_MSFontService,sans-serif" font-weight="500" font-size="60" transform="matrix(1 0 0 1 4559.68 2706)">教育学部</text></g></g><g clip-path="url(#clip68)"><g clip-path="url(#clip69)"><text fill="#595959" font-family="Yu Gothic,Yu Gothic_MSFontService,sans-serif" font-weight="500" font-size="60" transform="matrix(1 0 0 1 4559.68 2599)">経済学部</text></g></g><g clip-path="url(#clip70)"><g clip-path="url(#clip71)"><text fill="#595959" font-family="Yu Gothic,Yu Gothic_MSFontService,sans-serif" font-weight="500" font-size="60" transform="matrix(1 0 0 1 4619.26 2491)">農学部</text></g></g><g clip-path="url(#clip72)"><g clip-path="url(#clip73)"><text fill="#595959" font-family="Yu Gothic,Yu Gothic_MSFontService,sans-serif" font-weight="500" font-size="60" transform="matrix(1 0 0 1 4619.26 2383)">理学部</text></g></g><g clip-path="url(#clip74)"><g clip-path="url(#clip75)"><text fill="#595959" font-family="Yu Gothic,Yu Gothic_MSFontService,sans-serif" font-weight="500" font-size="60" transform="matrix(1 0 0 1 4619.26 2275)">文学部</text></g></g><g clip-path="url(#clip76)"><g clip-path="url(#clip77)"><text fill="#595959" font-family="Yu Gothic,Yu Gothic_MSFontService,sans-serif" font-weight="500" font-size="60" transform="matrix(1 0 0 1 4619.26 2167)">工学部</text></g></g><g clip-path="url(#clip78)"><g clip-path="url(#clip79)"><text fill="#595959" font-family="Yu Gothic,Yu Gothic_MSFontService,sans-serif" font-weight="500" font-size="60" transform="matrix(1 0 0 1 4619.26 2059)">医学部</text></g></g><g clip-path="url(#clip80)"><g clip-path="url(#clip81)"><text fill="#595959" font-family="Yu Gothic,Yu Gothic_MSFontService,sans-serif" font-weight="500" font-size="60" transform="matrix(1 0 0 1 4619.26 1951)">法学部</text></g></g><g clip-path="url(#clip82)"><g clip-path="url(#clip83)"><text fill="#595959" font-family="Yu Gothic,Yu Gothic_MSFontService,sans-serif" font-weight="500" font-size="60" transform="matrix(1 0 0 1 4395.23 1843)">教養学部</text></g></g><g clip-path="url(#clip84)"><g clip-path="url(#clip85)"><text fill="#595959" font-family="Yu Gothic,Yu Gothic_MSFontService,sans-serif" font-weight="500" font-size="60" transform="matrix(1 0 0 1 4633.56 1843)">(</text></g></g><g clip-path="url(#clip86)"><g clip-path="url(#clip87)"><text fill="#595959" font-family="Yu Gothic,Yu Gothic_MSFontService,sans-serif" font-weight="500" font-size="60" transform="matrix(1 0 0 1 4656.21 1843)">後期</text></g></g><g clip-path="url(#clip88)"><g clip-path="url(#clip89)"><text fill="#595959" font-family="Yu Gothic,Yu Gothic_MSFontService,sans-serif" font-weight="500" font-size="60" transform="matrix(1 0 0 1 4775.37 1843)">)</text></g></g><g clip-path="url(#clip90)"><text font-family="Yu Gothic,Yu Gothic_MSFontService,sans-serif" font-weight="500" font-size="73" transform="matrix(1 0 0 1 3644.19 1519)">【</text></g><g clip-path="url(#clip91)"><text font-family="Yu Gothic,Yu Gothic_MSFontService,sans-serif" font-weight="500" font-size="73" transform="matrix(1 0 0 1 3717.53 1519)">属性</text></g><g clip-path="url(#clip92)"><text font-family="Yu Gothic,Yu Gothic_MSFontService,sans-serif" font-weight="500" font-size="73" transform="matrix(1 0 0 1 3864.19 1519)">】</text></g><g clip-path="url(#clip93)"><text font-family="Yu Gothic,Yu Gothic_MSFontService,sans-serif" font-weight="500" font-size="73" transform="matrix(1 0 0 1 3937.53 1519)">所属について，お答えください．</text></g><rect x="3597.5" y="1365.5" width="2989" height="3410" stroke="#000000" stroke-width="4.58333" stroke-linejoin="round" stroke-miterlimit="10" fill="none"/><g clip-path="url(#clip94)"><g clip-path="url(#clip95)"><text font-family="Yu Gothic,Yu Gothic_MSFontService,sans-serif" font-weight="500" font-size="60" transform="matrix(1 0 0 1 6444.17 4677)">人</text></g></g><g clip-path="url(#clip96)"><text fill="#404040" font-family="Yu Gothic,Yu Gothic_MSFontService,sans-serif" font-weight="500" font-size="73" transform="matrix(1 0 0 1 3695.21 1686)">学部</text></g><g clip-path="url(#clip97)"><text fill="#404040" font-family="Yu Gothic,Yu Gothic_MSFontService,sans-serif" font-weight="500" font-size="73" transform="matrix(1 0 0 1 3841.88 1686)">1,</text></g><g clip-path="url(#clip98)"><text fill="#404040" font-family="Yu Gothic,Yu Gothic_MSFontService,sans-serif" font-weight="500" font-size="73" transform="matrix(1 0 0 1 3922.5 1686)">2</text></g><g clip-path="url(#clip99)"><text fill="#404040" font-family="Yu Gothic,Yu Gothic_MSFontService,sans-serif" font-weight="500" font-size="73" transform="matrix(1 0 0 1 3963.22 1686)">年生</text></g><g clip-path="url(#clip100)"><g clip-path="url(#clip101)"><text fill="#595959" font-family="Yu Gothic,Yu Gothic_MSFontService,sans-serif" font-weight="400" font-size="60" transform="matrix(1 0 0 1 4392.05 1679)">教養</text></g></g><g clip-path="url(#clip102)"><g clip-path="url(#clip103)"><text fill="#595959" font-family="Yu Gothic,Yu Gothic_MSFontService,sans-serif" font-weight="500" font-size="60" transform="matrix(1 0 0 1 4511.22 1679)">学部</text></g></g><g clip-path="url(#clip104)"><g clip-path="url(#clip105)"><text fill="#595959" font-family="Yu Gothic,Yu Gothic_MSFontService,sans-serif" font-weight="500" font-size="60" transform="matrix(1 0 0 1 4630.39 1679)">(</text></g></g><g clip-path="url(#clip106)"><g clip-path="url(#clip107)"><text fill="#595959" font-family="Yu Gothic,Yu Gothic_MSFontService,sans-serif" font-weight="500" font-size="60" transform="matrix(1 0 0 1 4653.03 1679)">前期</text></g></g><g clip-path="url(#clip108)"><g clip-path="url(#clip109)"><text fill="#595959" font-family="Yu Gothic,Yu Gothic_MSFontService,sans-serif" font-weight="500" font-size="60" transform="matrix(1 0 0 1 4772.2 1679)">)</text></g></g><g clip-path="url(#clip110)"><g clip-path="url(#clip111)"><text fill="#595959" font-family="Yu Gothic,Yu Gothic_MSFontService,sans-serif" font-weight="700" font-size="55" transform="matrix(1 0 0 1 4862.76 1679)">588</text></g></g><g clip-path="url(#clip112)"><text fill="#404040" font-family="Yu Gothic,Yu Gothic_MSFontService,sans-serif" font-weight="500" font-size="73" transform="matrix(1 0 0 1 3664.45 2305)">学部</text></g><g clip-path="url(#clip113)"><text fill="#404040" font-family="Yu Gothic,Yu Gothic_MSFontService,sans-serif" font-weight="500" font-size="73" transform="matrix(1 0 0 1 3811.12 2305)">3</text></g><g clip-path="url(#clip114)"><text fill="#404040" font-family="Yu Gothic,Yu Gothic_MSFontService,sans-serif" font-weight="500" font-size="73" transform="matrix(1 0 0 1 3851.84 2305)">年生以上</text></g><g clip-path="url(#clip115)"><text fill="#404040" font-family="Yu Gothic,Yu Gothic_MSFontService,sans-serif" font-weight="500" font-size="73" transform="matrix(1 0 0 1 3664.45 3842)">大学院生・</text></g><g clip-path="url(#clip116)"><text fill="#404040" font-family="Yu Gothic,Yu Gothic_MSFontService,sans-serif" font-weight="500" font-size="73" transform="matrix(1 0 0 1 3664.45 3965)">研究生等</text></g><g clip-path="url(#clip117)"><path d="M3695.5 1737.5 6515.4 1737.5" stroke="#404040" stroke-width="6.875" stroke-miterlimit="8" stroke-dasharray="6.875 6.875" fill="none" fill-rule="evenodd"/></g><g clip-path="url(#clip118)"><path d="M3700.5 2900.5 6520.37 2900.5" stroke="#404040" stroke-width="6.875" stroke-miterlimit="8" stroke-dasharray="6.875 6.875" fill="none" fill-rule="evenodd"/></g><g clip-path="url(#clip119)"><rect x="6047" y="4480" width="444" height="111" fill="#FFFFFF" fill-opacity="0.368627"/></g><g clip-path="url(#clip120)"><g clip-path="url(#clip121)"><text fill="#595959" font-family="Yu Gothic,Yu Gothic_MSFontService,sans-serif" font-weight="400" font-size="55" transform="matrix(1 0 0 1 6080.34 4562)">※</text></g></g><g clip-path="url(#clip122)"><g clip-path="url(#clip123)"><text fill="#595959" font-family="Yu Gothic,Yu Gothic_MSFontService,sans-serif" font-weight="400" font-size="55" transform="matrix(1 0 0 1 6135.34 4562)">その他：</text></g></g><g clip-path="url(#clip124)"><g clip-path="url(#clip125)"><text fill="#595959" font-family="Yu Gothic,Yu Gothic_MSFontService,sans-serif" font-weight="700" font-size="55" transform="matrix(1 0 0 1 6355.34 4562)">7</text></g></g><g clip-path="url(#clip126)"><rect x="5582" y="2780" width="444" height="111" fill="#FFFFFF" fill-opacity="0.368627"/></g><g clip-path="url(#clip127)"><g clip-path="url(#clip128)"><text fill="#595959" font-family="Yu Gothic,Yu Gothic_MSFontService,sans-serif" font-weight="400" font-size="55" transform="matrix(1 0 0 1 5614.78 2862)">※</text></g></g><g clip-path="url(#clip129)"><g clip-path="url(#clip130)"><text fill="#595959" font-family="Yu Gothic,Yu Gothic_MSFontService,sans-serif" font-weight="400" font-size="55" transform="matrix(1 0 0 1 5669.78 2862)">学部</text></g></g><g clip-path="url(#clip131)"><g clip-path="url(#clip132)"><text fill="#595959" font-family="Yu Gothic,Yu Gothic_MSFontService,sans-serif" font-weight="400" font-size="55" transform="matrix(1 0 0 1 5779.78 2862)">3</text></g></g><g clip-path="url(#clip133)"><g clip-path="url(#clip134)"><text fill="#595959" font-family="Yu Gothic,Yu Gothic_MSFontService,sans-serif" font-weight="400" font-size="55" transform="matrix(1 0 0 1 5810.38 2862)">年生以上での未記入：</text></g></g><g clip-path="url(#clip135)"><g clip-path="url(#clip136)"><text fill="#595959" font-family="Yu Gothic,Yu Gothic_MSFontService,sans-serif" font-weight="700" font-size="55" transform="matrix(1 0 0 1 6360.38 2862)">1</text></g></g><g clip-path="url(#clip137)"><rect x="5494" y="4390" width="444" height="111" fill="#FFFFFF" fill-opacity="0.368627"/></g><g clip-path="url(#clip138)"><text fill="#595959" font-family="Yu Gothic,Yu Gothic_MSFontService,sans-serif" font-weight="400" font-size="55" transform="matrix(1 0 0 1 5527.13 4471)">※</text></g><g clip-path="url(#clip139)"><text fill="#595959" font-family="Yu Gothic,Yu Gothic_MSFontService,sans-serif" font-weight="400" font-size="55" transform="matrix(1 0 0 1 5582.13 4471)">大学院・研究生等での未記入：</text></g><g clip-path="url(#clip140)"><text fill="#595959" font-family="Yu Gothic,Yu Gothic_MSFontService,sans-serif" font-weight="700" font-size="55" transform="matrix(1 0 0 1 6352.13 4471)">2</text></g></g></svg>