<svg width="2990" height="1228" xmlns="http://www.w3.org/2000/svg" xmlns:xlink="http://www.w3.org/1999/xlink" overflow="hidden"><defs><clipPath id="clip0"><rect x="3582" y="6151" width="2990" height="1228"/></clipPath><clipPath id="clip1"><rect x="3584" y="6153" width="2985" height="1222"/></clipPath><clipPath id="clip2"><rect x="4292" y="6438" width="1237" height="805"/></clipPath><clipPath id="clip3"><rect x="4292" y="6438" width="1237" height="805"/></clipPath><clipPath id="clip4"><rect x="4292" y="6438" width="1237" height="805"/></clipPath><clipPath id="clip5"><rect x="4292" y="6438" width="1237" height="805"/></clipPath><clipPath id="clip6"><rect x="4292" y="6438" width="1237" height="805"/></clipPath><clipPath id="clip7"><rect x="4292" y="6438" width="1237" height="805"/></clipPath><clipPath id="clip8"><rect x="3584" y="6153" width="2985" height="1222"/></clipPath><clipPath id="clip9"><rect x="3584" y="6153" width="2985" height="1222"/></clipPath><clipPath id="clip10"><rect x="3584" y="6153" width="2985" height="1222"/></clipPath><clipPath id="clip11"><rect x="3584" y="6153" width="2985" height="1222"/></clipPath><clipPath id="clip12"><rect x="3584" y="6153" width="2985" height="1222"/></clipPath><clipPath id="clip13"><rect x="3584" y="6153" width="2985" height="1222"/></clipPath><clipPath id="clip14"><rect x="3584" y="6153" width="2985" height="1222"/></clipPath><clipPath id="clip15"><rect x="3584" y="6153" width="2985" height="1222"/></clipPath><clipPath id="clip16"><rect x="3584" y="6153" width="2985" height="1222"/></clipPath><clipPath id="clip17"><rect x="3584" y="6153" width="2985" height="1222"/></clipPath><clipPath id="clip18"><rect x="3584" y="6153" width="2985" height="1222"/></clipPath><clipPath id="clip19"><rect x="3584" y="6153" width="2985" height="1222"/></clipPath><clipPath id="clip20"><rect x="3584" y="6153" width="2985" height="1222"/></clipPath><clipPath id="clip21"><rect x="3584" y="6153" width="2985" height="1222"/></clipPath><clipPath id="clip22"><rect x="3584" y="6153" width="2985" height="1222"/></clipPath><clipPath id="clip23"><rect x="3584" y="6153" width="2985" height="1222"/></clipPath><clipPath id="clip24"><rect x="3584" y="6153" width="2985" height="1222"/></clipPath><clipPath id="clip25"><rect x="3584" y="6153" width="2985" height="1222"/></clipPath><clipPath id="clip26"><rect x="3584" y="6153" width="2985" height="1222"/></clipPath><clipPath id="clip27"><rect x="3584" y="6153" width="2985" height="1222"/></clipPath><clipPath id="clip28"><rect x="3584" y="6153" width="2985" height="1222"/></clipPath><clipPath id="clip29"><rect x="3584" y="6153" width="2985" height="1222"/></clipPath><clipPath id="clip30"><rect x="3584" y="6153" width="2985" height="1222"/></clipPath><clipPath id="clip31"><rect x="3584" y="6153" width="2985" height="1222"/></clipPath><clipPath id="clip32"><rect x="3584" y="6153" width="2985" height="1222"/></clipPath><clipPath id="clip33"><rect x="3584" y="6153" width="2985" height="1222"/></clipPath><clipPath id="clip34"><rect x="3584" y="6153" width="2985" height="1222"/></clipPath><clipPath id="clip35"><rect x="3584" y="6153" width="2985" height="1222"/></clipPath><clipPath id="clip36"><rect x="3584" y="6153" width="2985" height="1222"/></clipPath><clipPath id="clip37"><rect x="3584" y="6153" width="2985" height="1222"/></clipPath><clipPath id="clip38"><rect x="3584" y="6153" width="2985" height="1222"/></clipPath><clipPath id="clip39"><rect x="3584" y="6153" width="2985" height="1222"/></clipPath><clipPath id="clip40"><rect x="3584" y="6153" width="2985" height="1222"/></clipPath><clipPath id="clip41"><rect x="3584" y="6153" width="2985" height="1222"/></clipPath><clipPath id="clip42"><rect x="3584" y="6153" width="2985" height="1222"/></clipPath><clipPath id="clip43"><rect x="3584" y="6153" width="2985" height="1222"/></clipPath><clipPath id="clip44"><rect x="3584" y="6153" width="2985" height="1222"/></clipPath><clipPath id="clip45"><rect x="3584" y="6153" width="2985" height="1222"/></clipPath><clipPath id="clip46"><rect x="3584" y="6153" width="2985" height="1222"/></clipPath><clipPath id="clip47"><rect x="3584" y="6153" width="2985" height="1222"/></clipPath><clipPath id="clip48"><rect x="3584" y="6153" width="2985" height="1222"/></clipPath><clipPath id="clip49"><rect x="3584" y="6153" width="2985" height="1222"/></clipPath><clipPath id="clip50"><rect x="3584" y="6153" width="2985" height="1222"/></clipPath><clipPath id="clip51"><rect x="3584" y="6153" width="2985" height="1222"/></clipPath><clipPath id="clip52"><rect x="2840" y="7102" width="2476" height="135"/></clipPath><clipPath id="clip53"><rect x="3584" y="6153" width="2985" height="1222"/></clipPath><clipPath id="clip54"><rect x="2840" y="7102" width="2476" height="135"/></clipPath><clipPath id="clip55"><rect x="3584" y="6153" width="2985" height="1222"/></clipPath><clipPath id="clip56"><rect x="2586" y="6968" width="2921" height="135"/></clipPath><clipPath id="clip57"><rect x="3584" y="6153" width="2985" height="1222"/></clipPath><clipPath id="clip58"><rect x="2586" y="6968" width="2921" height="135"/></clipPath><clipPath id="clip59"><rect x="3584" y="6153" width="2985" height="1222"/></clipPath><clipPath id="clip60"><rect x="2127" y="6835" width="3724" height="134"/></clipPath><clipPath id="clip61"><rect x="3584" y="6153" width="2985" height="1222"/></clipPath><clipPath id="clip62"><rect x="2127" y="6835" width="3724" height="134"/></clipPath><clipPath id="clip63"><rect x="3584" y="6153" width="2985" height="1222"/></clipPath><clipPath id="clip64"><rect x="2127" y="6835" width="3724" height="134"/></clipPath><clipPath id="clip65"><rect x="3584" y="6153" width="2985" height="1222"/></clipPath><clipPath id="clip66"><rect x="2127" y="6835" width="3724" height="134"/></clipPath><clipPath id="clip67"><rect x="3584" y="6153" width="2985" height="1222"/></clipPath><clipPath id="clip68"><rect x="2586" y="6701" width="2921" height="135"/></clipPath><clipPath id="clip69"><rect x="3584" y="6153" width="2985" height="1222"/></clipPath><clipPath id="clip70"><rect x="2586" y="6701" width="2921" height="135"/></clipPath><clipPath id="clip71"><rect x="3584" y="6153" width="2985" height="1222"/></clipPath><clipPath id="clip72"><rect x="2586" y="6701" width="2921" height="135"/></clipPath><clipPath id="clip73"><rect x="3584" y="6153" width="2985" height="1222"/></clipPath><clipPath id="clip74"><rect x="2586" y="6701" width="2921" height="135"/></clipPath><clipPath id="clip75"><rect x="3584" y="6153" width="2985" height="1222"/></clipPath><clipPath id="clip76"><rect x="2586" y="6567" width="2921" height="135"/></clipPath><clipPath id="clip77"><rect x="3584" y="6153" width="2985" height="1222"/></clipPath><clipPath id="clip78"><rect x="2586" y="6567" width="2921" height="135"/></clipPath><clipPath id="clip79"><rect x="3584" y="6153" width="2985" height="1222"/></clipPath><clipPath id="clip80"><rect x="2586" y="6567" width="2921" height="135"/></clipPath><clipPath id="clip81"><rect x="3584" y="6153" width="2985" height="1222"/></clipPath><clipPath id="clip82"><rect x="2586" y="6567" width="2921" height="135"/></clipPath><clipPath id="clip83"><rect x="3584" y="6153" width="2985" height="1222"/></clipPath><clipPath id="clip84"><rect x="2815" y="6434" width="2520" height="134"/></clipPath><clipPath id="clip85"><rect x="3584" y="6153" width="2985" height="1222"/></clipPath><clipPath id="clip86"><rect x="2815" y="6434" width="2520" height="134"/></clipPath><clipPath id="clip87"><rect x="3584" y="6153" width="2985" height="1222"/></clipPath><clipPath id="clip88"><rect x="3584" y="6153" width="2985" height="1222"/></clipPath><clipPath id="clip89"><rect x="3584" y="6153" width="2985" height="1222"/></clipPath><clipPath id="clip90"><rect x="3584" y="6153" width="2985" height="1222"/></clipPath><clipPath id="clip91"><rect x="3584" y="6153" width="2985" height="1222"/></clipPath><clipPath id="clip92"><rect x="3584" y="6153" width="2985" height="1222"/></clipPath><clipPath id="clip93"><rect x="3584" y="6153" width="2985" height="1222"/></clipPath><clipPath id="clip94"><rect x="3584" y="6153" width="2985" height="1222"/></clipPath><clipPath id="clip95"><rect x="3584" y="6153" width="2985" height="1222"/></clipPath><clipPath id="clip96"><rect x="3584" y="6153" width="2985" height="1222"/></clipPath><clipPath id="clip97"><rect x="3584" y="6153" width="2985" height="1222"/></clipPath><clipPath id="clip98"><rect x="3584" y="6153" width="2985" height="1222"/></clipPath><clipPath id="clip99"><rect x="3584" y="6153" width="2985" height="1222"/></clipPath><clipPath id="clip100"><rect x="3584" y="6153" width="2985" height="1222"/></clipPath><clipPath id="clip101"><rect x="3584" y="6153" width="2985" height="1222"/></clipPath><clipPath id="clip102"><rect x="3584" y="6153" width="2985" height="1222"/></clipPath><clipPath id="clip103"><rect x="3584" y="6153" width="2985" height="1222"/></clipPath><clipPath id="clip104"><rect x="3584" y="6153" width="2986" height="1223"/></clipPath><clipPath id="clip105"><rect x="-4780" y="6161" width="19654" height="386"/></clipPath><clipPath id="clip106"><rect x="3584" y="6153" width="2986" height="1223"/></clipPath><clipPath id="clip107"><rect x="-4780" y="6161" width="19654" height="386"/></clipPath><clipPath id="clip108"><rect x="3584" y="6153" width="2986" height="1223"/></clipPath><clipPath id="clip109"><rect x="3584" y="6153" width="2986" height="1223"/></clipPath><clipPath id="clip110"><rect x="3492" y="7145" width="5295" height="231"/></clipPath><clipPath id="clip111"><rect x="3584" y="6153" width="2986" height="1223"/></clipPath><clipPath id="clip112"><rect x="3584" y="6153" width="2986" height="1223"/></clipPath><clipPath id="clip113"><rect x="3492" y="7145" width="5295" height="231"/></clipPath><clipPath id="clip114"><rect x="3584" y="6153" width="2986" height="1223"/></clipPath><clipPath id="clip115"><rect x="3492" y="7145" width="5295" height="231"/></clipPath></defs><g clip-path="url(#clip0)" transform="translate(-3582 -6151)"><rect x="3584" y="6153" width="2985" height="1223" fill="#FFFFFF"/><g clip-path="url(#clip1)"><path d="M4600.65 6438.5 4600.65 7240.5M4909.66 6438.5 4909.66 7240.5M5217.67 6438.5 5217.67 7240.5M5526.5 6438.5 5526.5 7240.5" stroke="#D9D9D9" stroke-width="4.58333" stroke-linejoin="round" stroke-miterlimit="10" fill="none"/></g><g clip-path="url(#clip2)"><path d="M4435.65 7216.74 4292.5 7216.74 4292.5 7129.73 4435.65 7129.73ZM4671.65 7083.73 4292.5 7083.73 4292.5 6995.73 4671.65 6995.73ZM4912.66 6949.73 4292.5 6949.73 4292.5 6862.73 4912.66 6862.73ZM4936.66 6815.72 4292.5 6815.72 4292.5 6728.72 4936.66 6728.72ZM4940.66 6682.72 4292.5 6682.72 4292.5 6594.72 4940.66 6594.72ZM4785.66 6548.71 4292.5 6548.71 4292.5 6461.71 4785.66 6461.71Z" stroke="#000000" stroke-width="4.58333" stroke-linejoin="round" stroke-miterlimit="10" fill="#DEEBF7"/></g><g clip-path="url(#clip3)"><path d="M4636.65 7216.74 4435.65 7216.74 4435.65 7129.73 4636.65 7129.73ZM4745.66 7083.73 4671.65 7083.73 4671.65 6995.73 4745.66 6995.73ZM4972.66 6949.73 4912.66 6949.73 4912.66 6862.73 4972.66 6862.73ZM5110.67 6815.72 4936.66 6815.72 4936.66 6728.72 5110.67 6728.72ZM5003.66 6682.72 4940.66 6682.72 4940.66 6594.72 5003.66 6594.72ZM4871.66 6548.71 4785.66 6548.71 4785.66 6461.71 4871.66 6461.71Z" stroke="#000000" stroke-width="4.58333" stroke-linejoin="round" stroke-miterlimit="10" fill="#BDD7EE"/></g><g clip-path="url(#clip4)"><path d="M5210.67 7216.74 4636.65 7216.74 4636.65 7129.73 5210.67 7129.73ZM5225.67 7083.73 4745.66 7083.73 4745.66 6995.73 5225.67 6995.73ZM5391.68 6949.73 4972.66 6949.73 4972.66 6862.73 5391.68 6862.73ZM5399.68 6815.72 5110.67 6815.72 5110.67 6728.72 5399.68 6728.72ZM5345.68 6682.72 5003.66 6682.72 5003.66 6594.72 5345.68 6594.72ZM5298.67 6548.71 4871.66 6548.71 4871.66 6461.71 5298.67 6461.71Z" stroke="#000000" stroke-width="4.58333" stroke-linejoin="round" stroke-miterlimit="10" fill="#97C7F0"/></g><g clip-path="url(#clip5)"><path d="M5468.68 7216.74 5210.67 7216.74 5210.67 7129.73 5468.68 7129.73ZM5315.67 7083.73 5225.67 7083.73 5225.67 6995.73 5315.67 6995.73ZM5474.68 6949.73 5391.68 6949.73 5391.68 6862.73 5474.68 6862.73ZM5506.68 6815.72 5399.68 6815.72 5399.68 6728.72 5506.68 6728.72ZM5516.68 6682.72 5345.68 6682.72 5345.68 6594.72 5516.68 6594.72ZM5401.68 6548.71 5298.67 6548.71 5298.67 6461.71 5401.68 6461.71Z" stroke="#000000" stroke-width="4.58333" stroke-linejoin="round" stroke-miterlimit="10" fill="#51A1E6"/></g><g clip-path="url(#clip6)"><path d="M5497.68 7216.74 5468.68 7216.74 5468.68 7129.73 5497.68 7129.73ZM5479.68 7083.73 5315.67 7083.73 5315.67 6995.73 5479.68 6995.73ZM5521.68 6949.73 5474.68 6949.73 5474.68 6862.73 5521.68 6862.73ZM5521.68 6815.72 5506.68 6815.72 5506.68 6728.72 5521.68 6728.72ZM5525.68 6682.72 5516.68 6682.72 5516.68 6594.72 5525.68 6594.72ZM5499.68 6548.71 5401.68 6548.71 5401.68 6461.71 5499.68 6461.71Z" stroke="#000000" stroke-width="4.58333" stroke-linejoin="round" stroke-miterlimit="10" fill="#0070C0"/></g><g clip-path="url(#clip7)"><path d="M5525.68 7216.74 5497.68 7216.74 5497.68 7129.73 5525.68 7129.73ZM5525.68 7083.73 5479.68 7083.73 5479.68 6995.73 5525.68 6995.73ZM5525.68 6949.73 5521.68 6949.73 5521.68 6862.73 5525.68 6862.73ZM5525.68 6815.72 5521.68 6815.72 5521.68 6728.72 5525.68 6728.72ZM5525.68 6548.71 5499.68 6548.71 5499.68 6461.71 5525.68 6461.71Z" stroke="#000000" stroke-width="4.58333" stroke-linejoin="round" stroke-miterlimit="10" fill="#095085"/></g><g clip-path="url(#clip8)"><path d="M0 0 0.000360892 802" stroke="#D9D9D9" stroke-width="3.4375" stroke-linejoin="round" stroke-miterlimit="10" fill="none" fill-rule="evenodd" transform="matrix(1 0 0 -1 4292.5 7240.5)"/></g><g clip-path="url(#clip9)"><text fill="#404040" font-family="Yu Gothic,Yu Gothic_MSFontService,sans-serif" font-weight="700" font-size="55" transform="matrix(1 0 0 1 4348.41 7192)">5</text></g><g clip-path="url(#clip10)"><text fill="#404040" font-family="Yu Gothic,Yu Gothic_MSFontService,sans-serif" font-weight="700" font-size="55" transform="matrix(1 0 0 1 4434.67 7059)">381</text></g><g clip-path="url(#clip11)"><text fill="#404040" font-family="Yu Gothic,Yu Gothic_MSFontService,sans-serif" font-weight="700" font-size="55" transform="matrix(1 0 0 1 4555.29 6925)">268</text></g><g clip-path="url(#clip12)"><text fill="#404040" font-family="Yu Gothic,Yu Gothic_MSFontService,sans-serif" font-weight="700" font-size="55" transform="matrix(1 0 0 1 4567.4 6792)">163</text></g><g clip-path="url(#clip13)"><text fill="#404040" font-family="Yu Gothic,Yu Gothic_MSFontService,sans-serif" font-weight="700" font-size="55" transform="matrix(1 0 0 1 4569.32 6658)">144</text></g><g clip-path="url(#clip14)"><text fill="#404040" font-family="Yu Gothic,Yu Gothic_MSFontService,sans-serif" font-weight="700" font-size="55" transform="matrix(1 0 0 1 4491.93 6524)">961</text></g><g clip-path="url(#clip15)"><text fill="#404040" font-family="Yu Gothic,Yu Gothic_MSFontService,sans-serif" font-weight="700" font-size="55" transform="matrix(1 0 0 1 4520.54 7192)">7</text></g><g clip-path="url(#clip16)"><text fill="#404040" font-family="Yu Gothic,Yu Gothic_MSFontService,sans-serif" font-weight="700" font-size="55" transform="matrix(1 0 0 1 4677.27 7059)">75</text></g><g clip-path="url(#clip17)"><text fill="#404040" font-family="Yu Gothic,Yu Gothic_MSFontService,sans-serif" font-weight="700" font-size="55" transform="matrix(1 0 0 1 4911.29 6925)">26</text></g><g clip-path="url(#clip18)"><text fill="#404040" font-family="Yu Gothic,Yu Gothic_MSFontService,sans-serif" font-weight="700" font-size="55" transform="matrix(1 0 0 1 4992.39 6792)">44</text></g><g clip-path="url(#clip19)"><text fill="#404040" font-family="Yu Gothic,Yu Gothic_MSFontService,sans-serif" font-weight="700" font-size="55" transform="matrix(1 0 0 1 4940.76 6658)">14</text></g><g clip-path="url(#clip20)"><text fill="#404040" font-family="Yu Gothic,Yu Gothic_MSFontService,sans-serif" font-weight="700" font-size="55" transform="matrix(1 0 0 1 4781.33 6524)">166</text></g><g clip-path="url(#clip21)"><text fill="#404040" font-family="Yu Gothic,Yu Gothic_MSFontService,sans-serif" font-weight="700" font-size="55" transform="matrix(1 0 0 1 4892.07 7192)">20</text></g><g clip-path="url(#clip22)"><text fill="#404040" font-family="Yu Gothic,Yu Gothic_MSFontService,sans-serif" font-weight="700" font-size="55" transform="matrix(1 0 0 1 4938.57 7059)">482</text></g><g clip-path="url(#clip23)"><text fill="#404040" font-family="Yu Gothic,Yu Gothic_MSFontService,sans-serif" font-weight="700" font-size="55" transform="matrix(1 0 0 1 5135.07 6925)">181</text></g><g clip-path="url(#clip24)"><text fill="#404040" font-family="Yu Gothic,Yu Gothic_MSFontService,sans-serif" font-weight="700" font-size="55" transform="matrix(1 0 0 1 5223.7 6792)">73</text></g><g clip-path="url(#clip25)"><text fill="#404040" font-family="Yu Gothic,Yu Gothic_MSFontService,sans-serif" font-weight="700" font-size="55" transform="matrix(1 0 0 1 5143.36 6658)">76</text></g><g clip-path="url(#clip26)"><text fill="#404040" font-family="Yu Gothic,Yu Gothic_MSFontService,sans-serif" font-weight="700" font-size="55" transform="matrix(1 0 0 1 5037.61 6524)">832</text></g><g clip-path="url(#clip27)"><text fill="#404040" font-family="Yu Gothic,Yu Gothic_MSFontService,sans-serif" font-weight="700" font-size="55" transform="matrix(1 0 0 1 5323.83 7192)">9</text></g><g clip-path="url(#clip28)"><text fill="#404040" font-family="Yu Gothic,Yu Gothic_MSFontService,sans-serif" font-weight="700" font-size="55" transform="matrix(1 0 0 1 5239.36 7059)">91</text></g><g clip-path="url(#clip29)"><text fill="#404040" font-family="Yu Gothic,Yu Gothic_MSFontService,sans-serif" font-weight="700" font-size="55" transform="matrix(1 0 0 1 5401.96 6925)">36</text></g><g clip-path="url(#clip30)"><text fill="#404040" font-family="Yu Gothic,Yu Gothic_MSFontService,sans-serif" font-weight="700" font-size="55" transform="matrix(1 0 0 1 5421.39 6792)">27</text></g><g clip-path="url(#clip31)"><text fill="#404040" font-family="Yu Gothic,Yu Gothic_MSFontService,sans-serif" font-weight="700" font-size="55" transform="matrix(1 0 0 1 5399.99 6658)">38</text></g><g clip-path="url(#clip32)"><text fill="#404040" font-family="Yu Gothic,Yu Gothic_MSFontService,sans-serif" font-weight="700" font-size="55" transform="matrix(1 0 0 1 5302.87 6524)">201</text></g><g clip-path="url(#clip33)"><text fill="#FFFFFF" font-family="Yu Gothic,Yu Gothic_MSFontService,sans-serif" font-weight="700" font-size="55" transform="matrix(1 0 0 1 5467.27 7192)">1</text></g><g clip-path="url(#clip34)"><text fill="#FFFFFF" font-family="Yu Gothic,Yu Gothic_MSFontService,sans-serif" font-weight="700" font-size="55" transform="matrix(1 0 0 1 5350.44 7059)">164</text></g><g clip-path="url(#clip35)"><text fill="#FFFFFF" font-family="Yu Gothic,Yu Gothic_MSFontService,sans-serif" font-weight="700" font-size="55" transform="matrix(1 0 0 1 5466.77 6925)">20</text></g><g clip-path="url(#clip36)"><text fill="#FFFFFF" font-family="Yu Gothic,Yu Gothic_MSFontService,sans-serif" font-weight="700" font-size="55" transform="matrix(1 0 0 1 5498.44 6792)">4</text></g><g clip-path="url(#clip37)"><text fill="#404040" font-family="Yu Gothic,Yu Gothic_MSFontService,sans-serif" font-weight="700" font-size="55" transform="matrix(1 0 0 1 5537.87 6658)">2</text></g><g clip-path="url(#clip38)"><text fill="#FFFFFF" font-family="Yu Gothic,Yu Gothic_MSFontService,sans-serif" font-weight="700" font-size="55" transform="matrix(1 0 0 1 5403.53 6524)">191</text></g><g clip-path="url(#clip39)"><path d="M5526.5 6906.5 5534.68 6906.5 5555.5 6906.5" stroke="#A6A6A6" stroke-width="3.4375" stroke-linejoin="round" stroke-miterlimit="10" fill="none"/></g><g clip-path="url(#clip40)"><path d="M5526.5 6772.5 5534.68 6772.5 5555.5 6772.5" stroke="#A6A6A6" stroke-width="3.4375" stroke-linejoin="round" stroke-miterlimit="10" fill="none"/></g><g clip-path="url(#clip41)"><text fill="#404040" font-family="Yu Gothic,Yu Gothic_MSFontService,sans-serif" font-weight="700" font-size="50" transform="matrix(1 0 0 1 5556.84 7191)">1</text></g><g clip-path="url(#clip42)"><text fill="#404040" font-family="Yu Gothic,Yu Gothic_MSFontService,sans-serif" font-weight="700" font-size="50" transform="matrix(1 0 0 1 5528.77 7058)">47</text></g><g clip-path="url(#clip43)"><text fill="#404040" font-family="Yu Gothic,Yu Gothic_MSFontService,sans-serif" font-weight="700" font-size="50" transform="matrix(1 0 0 1 5568.87 6924)">2</text></g><g clip-path="url(#clip44)"><text fill="#404040" font-family="Yu Gothic,Yu Gothic_MSFontService,sans-serif" font-weight="700" font-size="50" transform="matrix(1 0 0 1 5569.21 6790)">1</text></g><g clip-path="url(#clip45)"><text fill="#404040" font-family="Yu Gothic,Yu Gothic_MSFontService,sans-serif" font-weight="700" font-size="50" transform="matrix(1 0 0 1 5543.64 6523)">51</text></g><g clip-path="url(#clip46)"><text fill="#595959" font-family="Yu Gothic,Yu Gothic_MSFontService,sans-serif" font-weight="500" font-size="60" transform="matrix(1 0 0 1 4251.96 7339)">0%</text></g><g clip-path="url(#clip47)"><text fill="#595959" font-family="Yu Gothic,Yu Gothic_MSFontService,sans-serif" font-weight="500" font-size="60" transform="matrix(1 0 0 1 4543.83 7339)">25%</text></g><g clip-path="url(#clip48)"><text fill="#595959" font-family="Yu Gothic,Yu Gothic_MSFontService,sans-serif" font-weight="500" font-size="60" transform="matrix(1 0 0 1 4852.23 7339)">50%</text></g><g clip-path="url(#clip49)"><text fill="#595959" font-family="Yu Gothic,Yu Gothic_MSFontService,sans-serif" font-weight="500" font-size="60" transform="matrix(1 0 0 1 5160.64 7339)">75%</text></g><g clip-path="url(#clip50)"><text fill="#595959" font-family="Yu Gothic,Yu Gothic_MSFontService,sans-serif" font-weight="500" font-size="60" transform="matrix(1 0 0 1 5452.51 7339)">100%</text></g><g clip-path="url(#clip51)"><g clip-path="url(#clip52)"><text fill="#595959" font-family="Yu Gothic,Yu Gothic_MSFontService,sans-serif" font-weight="500" font-size="57" transform="matrix(1 0 0 1 3901.48 7189)">その他</text></g></g><g clip-path="url(#clip53)"><g clip-path="url(#clip54)"><text fill="#595959" font-family="Yu Gothic,Yu Gothic_MSFontService,sans-serif" font-weight="500" font-size="57" transform="matrix(1 0 0 1 4073.35 7189)">(n=43)</text></g></g><g clip-path="url(#clip55)"><g clip-path="url(#clip56)"><text fill="#595959" font-family="Yu Gothic,Yu Gothic_MSFontService,sans-serif" font-weight="500" font-size="57" transform="matrix(1 0 0 1 3837.86 7056)">大学院</text></g></g><g clip-path="url(#clip57)"><g clip-path="url(#clip58)"><text fill="#595959" font-family="Yu Gothic,Yu Gothic_MSFontService,sans-serif" font-weight="500" font-size="57" transform="matrix(1 0 0 1 4009.73 7056)">(n=1240)</text></g></g><g clip-path="url(#clip59)"><g clip-path="url(#clip60)"><text fill="#595959" font-family="Yu Gothic,Yu Gothic_MSFontService,sans-serif" font-weight="500" font-size="57" transform="matrix(1 0 0 1 3723.28 6922)">学部</text></g></g><g clip-path="url(#clip61)"><g clip-path="url(#clip62)"><text fill="#595959" font-family="Yu Gothic,Yu Gothic_MSFontService,sans-serif" font-weight="500" font-size="57" transform="matrix(1 0 0 1 3837.86 6922)">3</text></g></g><g clip-path="url(#clip63)"><g clip-path="url(#clip64)"><text fill="#595959" font-family="Yu Gothic,Yu Gothic_MSFontService,sans-serif" font-weight="500" font-size="57" transform="matrix(1 0 0 1 3869.67 6922)">年以上</text></g></g><g clip-path="url(#clip65)"><g clip-path="url(#clip66)"><text fill="#595959" font-family="Yu Gothic,Yu Gothic_MSFontService,sans-serif" font-weight="500" font-size="57" transform="matrix(1 0 0 1 4041.54 6922)">(n=533)</text></g></g><g clip-path="url(#clip67)"><g clip-path="url(#clip68)"><text fill="#595959" font-family="Yu Gothic,Yu Gothic_MSFontService,sans-serif" font-weight="500" font-size="57" transform="matrix(1 0 0 1 3837.86 6788)">学部</text></g></g><g clip-path="url(#clip69)"><g clip-path="url(#clip70)"><text fill="#595959" font-family="Yu Gothic,Yu Gothic_MSFontService,sans-serif" font-weight="500" font-size="57" transform="matrix(1 0 0 1 3952.44 6788)">2</text></g></g><g clip-path="url(#clip71)"><g clip-path="url(#clip72)"><text fill="#595959" font-family="Yu Gothic,Yu Gothic_MSFontService,sans-serif" font-weight="500" font-size="57" transform="matrix(1 0 0 1 3984.25 6788)">年</text></g></g><g clip-path="url(#clip73)"><g clip-path="url(#clip74)"><text fill="#595959" font-family="Yu Gothic,Yu Gothic_MSFontService,sans-serif" font-weight="500" font-size="57" transform="matrix(1 0 0 1 4041.54 6788)">(n=312)</text></g></g><g clip-path="url(#clip75)"><g clip-path="url(#clip76)"><text fill="#595959" font-family="Yu Gothic,Yu Gothic_MSFontService,sans-serif" font-weight="500" font-size="57" transform="matrix(1 0 0 1 3837.86 6655)">学部</text></g></g><g clip-path="url(#clip77)"><g clip-path="url(#clip78)"><text fill="#595959" font-family="Yu Gothic,Yu Gothic_MSFontService,sans-serif" font-weight="500" font-size="57" transform="matrix(1 0 0 1 3952.44 6655)">1</text></g></g><g clip-path="url(#clip79)"><g clip-path="url(#clip80)"><text fill="#595959" font-family="Yu Gothic,Yu Gothic_MSFontService,sans-serif" font-weight="500" font-size="57" transform="matrix(1 0 0 1 3984.25 6655)">年</text></g></g><g clip-path="url(#clip81)"><g clip-path="url(#clip82)"><text fill="#595959" font-family="Yu Gothic,Yu Gothic_MSFontService,sans-serif" font-weight="500" font-size="57" transform="matrix(1 0 0 1 4041.54 6655)">(n=274)</text></g></g><g clip-path="url(#clip83)"><g clip-path="url(#clip84)"><text fill="#595959" font-family="Yu Gothic,Yu Gothic_MSFontService,sans-serif" font-weight="500" font-size="57" transform="matrix(1 0 0 1 3895.15 6521)">全体</text></g></g><g clip-path="url(#clip85)"><g clip-path="url(#clip86)"><text fill="#595959" font-family="Yu Gothic,Yu Gothic_MSFontService,sans-serif" font-weight="500" font-size="57" transform="matrix(1 0 0 1 4009.73 6521)">(n=2402)</text></g></g><g clip-path="url(#clip87)"><rect x="5746.5" y="6384.5" width="29" height="29" stroke="#000000" stroke-width="4.58333" stroke-linejoin="round" stroke-miterlimit="10" fill="#DEEBF7"/></g><g clip-path="url(#clip88)"><text fill="#595959" font-family="Yu Gothic,Yu Gothic_MSFontService,sans-serif" font-weight="500" font-size="50" transform="matrix(1 0 0 1 5788.34 6413)">実家（大学に通える距離）</text></g><g clip-path="url(#clip89)"><rect x="5746.5" y="6526.5" width="29" height="29" stroke="#000000" stroke-width="4.58333" stroke-linejoin="round" stroke-miterlimit="10" fill="#BDD7EE"/></g><g clip-path="url(#clip90)"><text fill="#595959" font-family="Yu Gothic,Yu Gothic_MSFontService,sans-serif" font-weight="500" font-size="50" transform="matrix(1 0 0 1 5788.34 6555)">実家（大学から遠いため、今後</text></g><g clip-path="url(#clip91)"><text fill="#595959" font-family="Yu Gothic,Yu Gothic_MSFontService,sans-serif" font-weight="500" font-size="50" transform="matrix(1 0 0 1 5788.34 6639)">引っ越す。または一時帰省中）</text></g><g clip-path="url(#clip92)"><rect x="5746.5" y="6668.5" width="29" height="29" stroke="#000000" stroke-width="4.58333" stroke-linejoin="round" stroke-miterlimit="10" fill="#97C7F0"/></g><g clip-path="url(#clip93)"><text fill="#595959" font-family="Yu Gothic,Yu Gothic_MSFontService,sans-serif" font-weight="500" font-size="50" transform="matrix(1 0 0 1 5788.34 6697)">自宅（一人暮らし）</text></g><g clip-path="url(#clip94)"><rect x="5746.5" y="6810.5" width="29" height="29" stroke="#000000" stroke-width="4.58333" stroke-linejoin="round" stroke-miterlimit="10" fill="#51A1E6"/></g><g clip-path="url(#clip95)"><text fill="#595959" font-family="Yu Gothic,Yu Gothic_MSFontService,sans-serif" font-weight="500" font-size="50" transform="matrix(1 0 0 1 5788.34 6839)">寮などの下宿先</text></g><g clip-path="url(#clip96)"><text fill="#595959" font-family="Yu Gothic,Yu Gothic_MSFontService,sans-serif" font-weight="500" font-size="50" transform="matrix(1 0 0 1 6141.26 6839)">(</text></g><g clip-path="url(#clip97)"><text fill="#595959" font-family="Yu Gothic,Yu Gothic_MSFontService,sans-serif" font-weight="500" font-size="50" transform="matrix(1 0 0 1 6160.42 6839)">シェアハウス</text></g><g clip-path="url(#clip98)"><text fill="#595959" font-family="Yu Gothic,Yu Gothic_MSFontService,sans-serif" font-weight="500" font-size="50" transform="matrix(1 0 0 1 5788.34 6923)">等含む</text></g><g clip-path="url(#clip99)"><text fill="#595959" font-family="Yu Gothic,Yu Gothic_MSFontService,sans-serif" font-weight="500" font-size="50" transform="matrix(1 0 0 1 5939.59 6923)">)</text></g><g clip-path="url(#clip100)"><rect x="5746.5" y="6952.5" width="29" height="29" stroke="#000000" stroke-width="4.58333" stroke-linejoin="round" stroke-miterlimit="10" fill="#0070C0"/></g><g clip-path="url(#clip101)"><text fill="#595959" font-family="Yu Gothic,Yu Gothic_MSFontService,sans-serif" font-weight="500" font-size="50" transform="matrix(1 0 0 1 5788.34 6982)">キャンパス内</text></g><g clip-path="url(#clip102)"><rect x="5746.5" y="7094.5" width="29" height="30" stroke="#000000" stroke-width="4.58333" stroke-linejoin="round" stroke-miterlimit="10" fill="#095085"/></g><g clip-path="url(#clip103)"><text fill="#595959" font-family="Yu Gothic,Yu Gothic_MSFontService,sans-serif" font-weight="500" font-size="50" transform="matrix(1 0 0 1 5788.34 7124)">その他</text></g><rect x="3584.5" y="6153.5" width="2985" height="1223" stroke="#000000" stroke-width="4.58333" stroke-linejoin="round" stroke-miterlimit="10" fill="none"/><g clip-path="url(#clip104)"><g clip-path="url(#clip105)"><text font-family="Yu Gothic,Yu Gothic_MSFontService,sans-serif" font-weight="500" font-size="73" transform="matrix(1 0 0 1 3643.05 6265)">【場所】</text></g></g><g clip-path="url(#clip106)"><g clip-path="url(#clip107)"><text font-family="Yu Gothic,Yu Gothic_MSFontService,sans-serif" font-weight="500" font-size="73" transform="matrix(1 0 0 1 3957.3 6265)">オンライン授業や研究などのために，主にどこからインターネットに接続し</text></g></g><g clip-path="url(#clip108)"><text font-family="Yu Gothic,Yu Gothic_MSFontService,sans-serif" font-weight="500" font-size="73" transform="matrix(1 0 0 1 3643.05 6388)">ていましたか？</text></g><g clip-path="url(#clip109)"><g clip-path="url(#clip110)"><text fill="#404040" font-family="Yu Gothic,Yu Gothic_MSFontService,sans-serif" font-weight="400" font-size="50" transform="matrix(1 0 0 1 5761.35 7199)">一人暮らし以外の自宅，キャンパ</text></g></g><g clip-path="url(#clip111)"><text fill="#404040" font-family="Yu Gothic,Yu Gothic_MSFontService,sans-serif" font-weight="400" font-size="50" transform="matrix(1 0 0 1 5761.35 7254)">ス外の研究室，カフェ，海外，途</text></g><g clip-path="url(#clip112)"><g clip-path="url(#clip113)"><text fill="#404040" font-family="Yu Gothic,Yu Gothic_MSFontService,sans-serif" font-weight="400" font-size="50" transform="matrix(1 0 0 1 5761.35 7309)">中で変わった</text></g></g><g clip-path="url(#clip114)"><g clip-path="url(#clip115)"><text fill="#404040" font-family="Yu Gothic,Yu Gothic_MSFontService,sans-serif" font-weight="400" font-size="50" transform="matrix(1 0 0 1 6078.22 7309)">など</text></g></g></g></svg>