<svg width="2994" height="1213" xmlns="http://www.w3.org/2000/svg" xmlns:xlink="http://www.w3.org/1999/xlink" overflow="hidden"><defs><clipPath id="clip0"><rect x="3596" y="9105" width="2994" height="1213"/></clipPath><clipPath id="clip1"><rect x="3597" y="9107" width="2989" height="1207"/></clipPath><clipPath id="clip2"><rect x="4229" y="9388" width="1316" height="796"/></clipPath><clipPath id="clip3"><rect x="4229" y="9388" width="1316" height="796"/></clipPath><clipPath id="clip4"><rect x="4229" y="9388" width="1316" height="796"/></clipPath><clipPath id="clip5"><rect x="4229" y="9388" width="1316" height="796"/></clipPath><clipPath id="clip6"><rect x="4229" y="9388" width="1316" height="796"/></clipPath><clipPath id="clip7"><rect x="4229" y="9388" width="1316" height="796"/></clipPath><clipPath id="clip8"><rect x="4229" y="9388" width="1316" height="796"/></clipPath><clipPath id="clip9"><rect x="3597" y="9107" width="2989" height="1207"/></clipPath><clipPath id="clip10"><rect x="3597" y="9107" width="2989" height="1207"/></clipPath><clipPath id="clip11"><rect x="3597" y="9107" width="2989" height="1207"/></clipPath><clipPath id="clip12"><rect x="3597" y="9107" width="2989" height="1207"/></clipPath><clipPath id="clip13"><rect x="3597" y="9107" width="2989" height="1207"/></clipPath><clipPath id="clip14"><rect x="3597" y="9107" width="2989" height="1207"/></clipPath><clipPath id="clip15"><rect x="3597" y="9107" width="2989" height="1207"/></clipPath><clipPath id="clip16"><rect x="3597" y="9107" width="2989" height="1207"/></clipPath><clipPath id="clip17"><rect x="3597" y="9107" width="2989" height="1207"/></clipPath><clipPath id="clip18"><rect x="3597" y="9107" width="2989" height="1207"/></clipPath><clipPath id="clip19"><rect x="3597" y="9107" width="2989" height="1207"/></clipPath><clipPath id="clip20"><rect x="3597" y="9107" width="2989" height="1207"/></clipPath><clipPath id="clip21"><rect x="3597" y="9107" width="2989" height="1207"/></clipPath><clipPath id="clip22"><rect x="3597" y="9107" width="2989" height="1207"/></clipPath><clipPath id="clip23"><rect x="3597" y="9107" width="2989" height="1207"/></clipPath><clipPath id="clip24"><rect x="3597" y="9107" width="2989" height="1207"/></clipPath><clipPath id="clip25"><rect x="3597" y="9107" width="2989" height="1207"/></clipPath><clipPath id="clip26"><rect x="3597" y="9107" width="2989" height="1207"/></clipPath><clipPath id="clip27"><rect x="3597" y="9107" width="2989" height="1207"/></clipPath><clipPath id="clip28"><rect x="3597" y="9107" width="2989" height="1207"/></clipPath><clipPath id="clip29"><rect x="3597" y="9107" width="2989" height="1207"/></clipPath><clipPath id="clip30"><rect x="3597" y="9107" width="2989" height="1207"/></clipPath><clipPath id="clip31"><rect x="3597" y="9107" width="2989" height="1207"/></clipPath><clipPath id="clip32"><rect x="3597" y="9107" width="2989" height="1207"/></clipPath><clipPath id="clip33"><rect x="3597" y="9107" width="2989" height="1207"/></clipPath><clipPath id="clip34"><rect x="3597" y="9107" width="2989" height="1207"/></clipPath><clipPath id="clip35"><rect x="3597" y="9107" width="2989" height="1207"/></clipPath><clipPath id="clip36"><rect x="3597" y="9107" width="2989" height="1207"/></clipPath><clipPath id="clip37"><rect x="3597" y="9107" width="2989" height="1207"/></clipPath><clipPath id="clip38"><rect x="3597" y="9107" width="2989" height="1207"/></clipPath><clipPath id="clip39"><rect x="3597" y="9107" width="2989" height="1207"/></clipPath><clipPath id="clip40"><rect x="3597" y="9107" width="2989" height="1207"/></clipPath><clipPath id="clip41"><rect x="3597" y="9107" width="2989" height="1207"/></clipPath><clipPath id="clip42"><rect x="3597" y="9107" width="2989" height="1207"/></clipPath><clipPath id="clip43"><rect x="3597" y="9107" width="2989" height="1207"/></clipPath><clipPath id="clip44"><rect x="3597" y="9107" width="2989" height="1207"/></clipPath><clipPath id="clip45"><rect x="3597" y="9107" width="2989" height="1207"/></clipPath><clipPath id="clip46"><rect x="3597" y="9107" width="2989" height="1207"/></clipPath><clipPath id="clip47"><rect x="3597" y="9107" width="2989" height="1207"/></clipPath><clipPath id="clip48"><rect x="3597" y="9107" width="2989" height="1207"/></clipPath><clipPath id="clip49"><rect x="3597" y="9107" width="2989" height="1207"/></clipPath><clipPath id="clip50"><rect x="3597" y="9107" width="2989" height="1207"/></clipPath><clipPath id="clip51"><rect x="3597" y="9107" width="2989" height="1207"/></clipPath><clipPath id="clip52"><rect x="3597" y="9107" width="2989" height="1207"/></clipPath><clipPath id="clip53"><rect x="3597" y="9107" width="2989" height="1207"/></clipPath><clipPath id="clip54"><rect x="3597" y="9107" width="2989" height="1207"/></clipPath><clipPath id="clip55"><rect x="3597" y="9107" width="2989" height="1207"/></clipPath><clipPath id="clip56"><rect x="2777" y="10044" width="2476" height="133"/></clipPath><clipPath id="clip57"><rect x="3597" y="9107" width="2989" height="1207"/></clipPath><clipPath id="clip58"><rect x="2777" y="10044" width="2476" height="133"/></clipPath><clipPath id="clip59"><rect x="3597" y="9107" width="2989" height="1207"/></clipPath><clipPath id="clip60"><rect x="2522" y="9912" width="2922" height="133"/></clipPath><clipPath id="clip61"><rect x="3597" y="9107" width="2989" height="1207"/></clipPath><clipPath id="clip62"><rect x="2522" y="9912" width="2922" height="133"/></clipPath><clipPath id="clip63"><rect x="3597" y="9107" width="2989" height="1207"/></clipPath><clipPath id="clip64"><rect x="2064" y="9780" width="3724" height="133"/></clipPath><clipPath id="clip65"><rect x="3597" y="9107" width="2989" height="1207"/></clipPath><clipPath id="clip66"><rect x="2064" y="9780" width="3724" height="133"/></clipPath><clipPath id="clip67"><rect x="3597" y="9107" width="2989" height="1207"/></clipPath><clipPath id="clip68"><rect x="2064" y="9780" width="3724" height="133"/></clipPath><clipPath id="clip69"><rect x="3597" y="9107" width="2989" height="1207"/></clipPath><clipPath id="clip70"><rect x="2064" y="9780" width="3724" height="133"/></clipPath><clipPath id="clip71"><rect x="3597" y="9107" width="2989" height="1207"/></clipPath><clipPath id="clip72"><rect x="2522" y="9648" width="2922" height="133"/></clipPath><clipPath id="clip73"><rect x="3597" y="9107" width="2989" height="1207"/></clipPath><clipPath id="clip74"><rect x="2522" y="9648" width="2922" height="133"/></clipPath><clipPath id="clip75"><rect x="3597" y="9107" width="2989" height="1207"/></clipPath><clipPath id="clip76"><rect x="2522" y="9648" width="2922" height="133"/></clipPath><clipPath id="clip77"><rect x="3597" y="9107" width="2989" height="1207"/></clipPath><clipPath id="clip78"><rect x="2522" y="9648" width="2922" height="133"/></clipPath><clipPath id="clip79"><rect x="3597" y="9107" width="2989" height="1207"/></clipPath><clipPath id="clip80"><rect x="2522" y="9516" width="2922" height="133"/></clipPath><clipPath id="clip81"><rect x="3597" y="9107" width="2989" height="1207"/></clipPath><clipPath id="clip82"><rect x="2522" y="9516" width="2922" height="133"/></clipPath><clipPath id="clip83"><rect x="3597" y="9107" width="2989" height="1207"/></clipPath><clipPath id="clip84"><rect x="2522" y="9516" width="2922" height="133"/></clipPath><clipPath id="clip85"><rect x="3597" y="9107" width="2989" height="1207"/></clipPath><clipPath id="clip86"><rect x="2522" y="9516" width="2922" height="133"/></clipPath><clipPath id="clip87"><rect x="3597" y="9107" width="2989" height="1207"/></clipPath><clipPath id="clip88"><rect x="2752" y="9384" width="2520" height="133"/></clipPath><clipPath id="clip89"><rect x="3597" y="9107" width="2989" height="1207"/></clipPath><clipPath id="clip90"><rect x="2752" y="9384" width="2520" height="133"/></clipPath><clipPath id="clip91"><rect x="3597" y="9107" width="2989" height="1207"/></clipPath><clipPath id="clip92"><rect x="3597" y="9107" width="2989" height="1207"/></clipPath><clipPath id="clip93"><rect x="3597" y="9107" width="2989" height="1207"/></clipPath><clipPath id="clip94"><rect x="3597" y="9107" width="2989" height="1207"/></clipPath><clipPath id="clip95"><rect x="3597" y="9107" width="2989" height="1207"/></clipPath><clipPath id="clip96"><rect x="3597" y="9107" width="2989" height="1207"/></clipPath><clipPath id="clip97"><rect x="3597" y="9107" width="2989" height="1207"/></clipPath><clipPath id="clip98"><rect x="3597" y="9107" width="2989" height="1207"/></clipPath><clipPath id="clip99"><rect x="3597" y="9107" width="2989" height="1207"/></clipPath><clipPath id="clip100"><rect x="3597" y="9107" width="2989" height="1207"/></clipPath><clipPath id="clip101"><rect x="3597" y="9107" width="2989" height="1207"/></clipPath><clipPath id="clip102"><rect x="3597" y="9107" width="2989" height="1207"/></clipPath><clipPath id="clip103"><rect x="3597" y="9107" width="2989" height="1207"/></clipPath><clipPath id="clip104"><rect x="3597" y="9107" width="2989" height="1207"/></clipPath><clipPath id="clip105"><rect x="3597" y="9107" width="2989" height="1207"/></clipPath><clipPath id="clip106"><rect x="3597" y="9107" width="2989" height="1207"/></clipPath><clipPath id="clip107"><rect x="3597" y="9107" width="2989" height="1207"/></clipPath><clipPath id="clip108"><rect x="3597" y="9107" width="2989" height="1207"/></clipPath><clipPath id="clip109"><rect x="3597" y="9107" width="2989" height="1207"/></clipPath><clipPath id="clip110"><rect x="3597" y="9107" width="2989" height="1207"/></clipPath><clipPath id="clip111"><rect x="3597" y="9107" width="2989" height="1207"/></clipPath><clipPath id="clip112"><rect x="3597" y="9107" width="2989" height="1207"/></clipPath><clipPath id="clip113"><rect x="3597" y="9107" width="2989" height="1207"/></clipPath><clipPath id="clip114"><rect x="3597" y="9107" width="2989" height="1207"/></clipPath><clipPath id="clip115"><rect x="3597" y="9107" width="2989" height="1207"/></clipPath><clipPath id="clip116"><rect x="3597" y="9107" width="2989" height="1207"/></clipPath><clipPath id="clip117"><rect x="3597" y="9107" width="2990" height="1208"/></clipPath><clipPath id="clip118"><rect x="-4766" y="9115" width="19654" height="382"/></clipPath><clipPath id="clip119"><rect x="3597" y="9107" width="2990" height="1208"/></clipPath><clipPath id="clip120"><rect x="-4766" y="9115" width="19654" height="382"/></clipPath><clipPath id="clip121"><rect x="3597" y="9107" width="2990" height="1208"/></clipPath><clipPath id="clip122"><rect x="-4766" y="9115" width="19654" height="382"/></clipPath><clipPath id="clip123"><rect x="3597" y="9107" width="2990" height="1208"/></clipPath><clipPath id="clip124"><rect x="-4766" y="9115" width="19654" height="382"/></clipPath><clipPath id="clip125"><rect x="3597" y="9107" width="2990" height="1208"/></clipPath></defs><g clip-path="url(#clip0)" transform="translate(-3596 -9105)"><rect x="3598" y="9107" width="2989" height="1208" fill="#FFFFFF"/><g clip-path="url(#clip1)"><path d="M4557.65 9388.5 4557.65 10181.5M4885.66 9388.5 4885.66 10181.5M5213.67 9388.5 5213.67 10181.5M5542.5 9388.5 5542.5 10181.5" stroke="#D9D9D9" stroke-width="4.58333" stroke-linejoin="round" stroke-miterlimit="10" fill="none"/></g><g clip-path="url(#clip2)"><path d="M4748.66 10157.8 4229.5 10157.8 4229.5 10071.8 4748.66 10071.8ZM4917.66 10025.8 4229.5 10025.8 4229.5 9939.83 4917.66 9939.83ZM4948.66 9893.83 4229.5 9893.83 4229.5 9807.82 4948.66 9807.82ZM5017.67 9761.82 4229.5 9761.82 4229.5 9675.82 5017.67 9675.82ZM4931.66 9629.82 4229.5 9629.82 4229.5 9543.81 4931.66 9543.81ZM4935.66 9497.81 4229.5 9497.81 4229.5 9411.81 4935.66 9411.81Z" stroke="#000000" stroke-width="4.58333" stroke-linejoin="round" stroke-miterlimit="10" fill="#FFFFFF"/></g><g clip-path="url(#clip3)"><path d="M5084.67 10157.8 4748.66 10157.8 4748.66 10071.8 5084.67 10071.8ZM5000.66 10025.8 4917.66 10025.8 4917.66 9939.83 5000.66 9939.83ZM5039.67 9893.83 4948.66 9893.83 4948.66 9807.82 5039.67 9807.82ZM5093.67 9761.82 5017.67 9761.82 5017.67 9675.82 5093.67 9675.82ZM5094.67 9629.82 4931.66 9629.82 4931.66 9543.81 5094.67 9543.81ZM5033.67 9497.81 4935.66 9497.81 4935.66 9411.81 5033.67 9411.81Z" stroke="#000000" stroke-width="4.58333" stroke-linejoin="round" stroke-miterlimit="10" fill="#F1F8FD"/></g><g clip-path="url(#clip4)"><path d="M5389.68 10157.8 5084.67 10157.8 5084.67 10071.8 5389.68 10071.8ZM5254.67 10025.8 5000.66 10025.8 5000.66 9939.83 5254.67 9939.83ZM5381.68 9893.83 5039.67 9893.83 5039.67 9807.82 5381.68 9807.82ZM5424.68 9761.82 5093.67 9761.82 5093.67 9675.82 5424.68 9675.82ZM5455.68 9629.82 5094.67 9629.82 5094.67 9543.81 5455.68 9543.81ZM5330.67 9497.81 5033.67 9497.81 5033.67 9411.81 5330.67 9411.81Z" stroke="#000000" stroke-width="4.58333" stroke-linejoin="round" stroke-miterlimit="10" fill="#C2DDF6"/></g><g clip-path="url(#clip5)"><path d="M5481.68 10157.8 5389.68 10157.8 5389.68 10071.8 5481.68 10071.8ZM5313.67 10025.8 5254.67 10025.8 5254.67 9939.83 5313.67 9939.83ZM5438.68 9893.83 5381.68 9893.83 5381.68 9807.82 5438.68 9807.82ZM5474.68 9761.82 5424.68 9761.82 5424.68 9675.82 5474.68 9675.82ZM5494.68 9629.82 5455.68 9629.82 5455.68 9543.81 5494.68 9543.81ZM5385.68 9497.81 5330.67 9497.81 5330.67 9411.81 5385.68 9411.81Z" stroke="#000000" stroke-width="4.58333" stroke-linejoin="round" stroke-miterlimit="10" fill="#9ECBF0"/></g><g clip-path="url(#clip6)"><path d="M5511.68 10157.8 5481.68 10157.8 5481.68 10071.8 5511.68 10071.8ZM5368.68 10025.8 5313.67 10025.8 5313.67 9939.83 5368.68 9939.83ZM5485.68 9893.83 5438.68 9893.83 5438.68 9807.82 5485.68 9807.82ZM5521.68 9761.82 5474.68 9761.82 5474.68 9675.82 5521.68 9675.82ZM5537.68 9629.82 5494.68 9629.82 5494.68 9543.81 5537.68 9543.81ZM5436.68 9497.81 5385.68 9497.81 5385.68 9411.81 5436.68 9411.81Z" stroke="#000000" stroke-width="4.58333" stroke-linejoin="round" stroke-miterlimit="10" fill="#70B3EA"/></g><g clip-path="url(#clip7)"><path d="M5542.68 10157.8 5511.68 10157.8 5511.68 10071.8 5542.68 10071.8ZM5530.68 10025.8 5368.68 10025.8 5368.68 9939.83 5530.68 9939.83ZM5529.68 9893.83 5485.68 9893.83 5485.68 9807.82 5529.68 9807.82ZM5542.68 9761.82 5521.68 9761.82 5521.68 9675.82 5542.68 9675.82ZM5542.68 9629.82 5537.68 9629.82 5537.68 9543.81 5542.68 9543.81ZM5533.68 9497.81 5436.68 9497.81 5436.68 9411.81 5533.68 9411.81Z" stroke="#000000" stroke-width="4.58333" stroke-linejoin="round" stroke-miterlimit="10" fill="#3694E2"/></g><g clip-path="url(#clip8)"><path d="M5542.68 10025.8 5530.68 10025.8 5530.68 9939.83 5542.68 9939.83ZM5542.68 9893.83 5529.68 9893.83 5529.68 9807.82 5542.68 9807.82ZM5542.68 9497.81 5533.68 9497.81 5533.68 9411.81 5542.68 9411.81Z" stroke="#000000" stroke-width="4.58333" stroke-linejoin="round" stroke-miterlimit="10" fill="#095085"/></g><g clip-path="url(#clip9)"><path d="M0 0 0.000360892 793" stroke="#D9D9D9" stroke-width="3.4375" stroke-linejoin="round" stroke-miterlimit="10" fill="none" fill-rule="evenodd" transform="matrix(1 0 0 -1 4229.5 10181.5)"/></g><g clip-path="url(#clip10)"><text fill="#404040" font-family="Yu Gothic,Yu Gothic_MSFontService,sans-serif" font-weight="700" font-size="55" transform="matrix(1 0 0 1 4457.21 10134)">17</text></g><g clip-path="url(#clip11)"><text fill="#404040" font-family="Yu Gothic,Yu Gothic_MSFontService,sans-serif" font-weight="700" font-size="55" transform="matrix(1 0 0 1 4526.01 10002)">651</text></g><g clip-path="url(#clip12)"><text fill="#404040" font-family="Yu Gothic,Yu Gothic_MSFontService,sans-serif" font-weight="700" font-size="55" transform="matrix(1 0 0 1 4541.57 9870)">292</text></g><g clip-path="url(#clip13)"><text fill="#404040" font-family="Yu Gothic,Yu Gothic_MSFontService,sans-serif" font-weight="700" font-size="55" transform="matrix(1 0 0 1 4576.23 9738)">188</text></g><g clip-path="url(#clip14)"><text fill="#404040" font-family="Yu Gothic,Yu Gothic_MSFontService,sans-serif" font-weight="700" font-size="55" transform="matrix(1 0 0 1 4533 9606)">146</text></g><g clip-path="url(#clip15)"><text fill="#404040" font-family="Yu Gothic,Yu Gothic_MSFontService,sans-serif" font-weight="700" font-size="55" transform="matrix(1 0 0 1 4519.51 9474)">1294</text></g><g clip-path="url(#clip16)"><text fill="#404040" font-family="Yu Gothic,Yu Gothic_MSFontService,sans-serif" font-weight="700" font-size="55" transform="matrix(1 0 0 1 4884.74 10134)">11</text></g><g clip-path="url(#clip17)"><text fill="#404040" font-family="Yu Gothic,Yu Gothic_MSFontService,sans-serif" font-weight="700" font-size="55" transform="matrix(1 0 0 1 4927.68 10002)">79</text></g><g clip-path="url(#clip18)"><text fill="#404040" font-family="Yu Gothic,Yu Gothic_MSFontService,sans-serif" font-weight="700" font-size="55" transform="matrix(1 0 0 1 4962.6 9870)">37</text></g><g clip-path="url(#clip19)"><text fill="#404040" font-family="Yu Gothic,Yu Gothic_MSFontService,sans-serif" font-weight="700" font-size="55" transform="matrix(1 0 0 1 5024.11 9738)">18</text></g><g clip-path="url(#clip20)"><text fill="#404040" font-family="Yu Gothic,Yu Gothic_MSFontService,sans-serif" font-weight="700" font-size="55" transform="matrix(1 0 0 1 4981.67 9606)">34</text></g><g clip-path="url(#clip21)"><text fill="#404040" font-family="Yu Gothic,Yu Gothic_MSFontService,sans-serif" font-weight="700" font-size="55" transform="matrix(1 0 0 1 4937.57 9474)">179</text></g><g clip-path="url(#clip22)"><text fill="#404040" font-family="Yu Gothic,Yu Gothic_MSFontService,sans-serif" font-weight="700" font-size="55" transform="matrix(1 0 0 1 5205.39 10134)">10</text></g><g clip-path="url(#clip23)"><text fill="#404040" font-family="Yu Gothic,Yu Gothic_MSFontService,sans-serif" font-weight="700" font-size="55" transform="matrix(1 0 0 1 5080.55 10002)">240</text></g><g clip-path="url(#clip24)"><text fill="#404040" font-family="Yu Gothic,Yu Gothic_MSFontService,sans-serif" font-weight="700" font-size="55" transform="matrix(1 0 0 1 5163.64 9870)">139</text></g><g clip-path="url(#clip25)"><text fill="#404040" font-family="Yu Gothic,Yu Gothic_MSFontService,sans-serif" font-weight="700" font-size="55" transform="matrix(1 0 0 1 5227.58 9738)">79</text></g><g clip-path="url(#clip26)"><text fill="#404040" font-family="Yu Gothic,Yu Gothic_MSFontService,sans-serif" font-weight="700" font-size="55" transform="matrix(1 0 0 1 5243.81 9606)">75</text></g><g clip-path="url(#clip27)"><text fill="#404040" font-family="Yu Gothic,Yu Gothic_MSFontService,sans-serif" font-weight="700" font-size="55" transform="matrix(1 0 0 1 5134.76 9474)">543</text></g><g clip-path="url(#clip28)"><text fill="#404040" font-family="Yu Gothic,Yu Gothic_MSFontService,sans-serif" font-weight="700" font-size="50" transform="matrix(1 0 0 1 5420.96 10133)">3</text></g><g clip-path="url(#clip29)"><text fill="#404040" font-family="Yu Gothic,Yu Gothic_MSFontService,sans-serif" font-weight="700" font-size="50" transform="matrix(1 0 0 1 5255.43 10001)">56</text></g><g clip-path="url(#clip30)"><text fill="#404040" font-family="Yu Gothic,Yu Gothic_MSFontService,sans-serif" font-weight="700" font-size="50" transform="matrix(1 0 0 1 5381.59 9869)">23</text></g><g clip-path="url(#clip31)"><text fill="#404040" font-family="Yu Gothic,Yu Gothic_MSFontService,sans-serif" font-weight="700" font-size="50" transform="matrix(1 0 0 1 5421.1 9737)">12</text></g><g clip-path="url(#clip32)"><text fill="#404040" font-family="Yu Gothic,Yu Gothic_MSFontService,sans-serif" font-weight="700" font-size="50" transform="matrix(1 0 0 1 5460.51 9605)">8</text></g><g clip-path="url(#clip33)"><text fill="#404040" font-family="Yu Gothic,Yu Gothic_MSFontService,sans-serif" font-weight="700" font-size="50" transform="matrix(1 0 0 1 5255.53 9399)">102</text></g><g clip-path="url(#clip34)"><text fill="#404040" font-family="Yu Gothic,Yu Gothic_MSFontService,sans-serif" font-weight="700" font-size="50" transform="matrix(1 0 0 1 5482.04 10133)">1</text></g><g clip-path="url(#clip35)"><text fill="#404040" font-family="Yu Gothic,Yu Gothic_MSFontService,sans-serif" font-weight="700" font-size="50" transform="matrix(1 0 0 1 5312.52 10001)">52</text></g><g clip-path="url(#clip36)"><text fill="#404040" font-family="Yu Gothic,Yu Gothic_MSFontService,sans-serif" font-weight="700" font-size="50" transform="matrix(1 0 0 1 5433.33 9869)">19</text></g><g clip-path="url(#clip37)"><text fill="#404040" font-family="Yu Gothic,Yu Gothic_MSFontService,sans-serif" font-weight="700" font-size="50" transform="matrix(1 0 0 1 5469.35 9737)">11</text></g><g clip-path="url(#clip38)"><text fill="#404040" font-family="Yu Gothic,Yu Gothic_MSFontService,sans-serif" font-weight="700" font-size="50" transform="matrix(1 0 0 1 5501.39 9605)">9</text></g><g clip-path="url(#clip39)"><text fill="#404040" font-family="Yu Gothic,Yu Gothic_MSFontService,sans-serif" font-weight="700" font-size="50" transform="matrix(1 0 0 1 5373.17 9399)">92</text></g><g clip-path="url(#clip40)"><text fill="#404040" font-family="Yu Gothic,Yu Gothic_MSFontService,sans-serif" font-weight="700" font-size="50" transform="matrix(1 0 0 1 5512.58 10133)">1</text></g><g clip-path="url(#clip41)"><text fill="#404040" font-family="Yu Gothic,Yu Gothic_MSFontService,sans-serif" font-weight="700" font-size="50" transform="matrix(1 0 0 1 5406.44 10001)">153</text></g><g clip-path="url(#clip42)"><text fill="#404040" font-family="Yu Gothic,Yu Gothic_MSFontService,sans-serif" font-weight="700" font-size="50" transform="matrix(1 0 0 1 5478.91 9803)">18</text></g><g clip-path="url(#clip43)"><text fill="#404040" font-family="Yu Gothic,Yu Gothic_MSFontService,sans-serif" font-weight="700" font-size="50" transform="matrix(1 0 0 1 5517.36 9671)">5</text></g><g clip-path="url(#clip44)"><text fill="#404040" font-family="Yu Gothic,Yu Gothic_MSFontService,sans-serif" font-weight="700" font-size="50" transform="matrix(1 0 0 1 5525.44 9539)">1</text></g><g clip-path="url(#clip45)"><text fill="#404040" font-family="Yu Gothic,Yu Gothic_MSFontService,sans-serif" font-weight="700" font-size="50" transform="matrix(1 0 0 1 5459.86 9399)">178</text></g><g clip-path="url(#clip46)"><path d="M5542.5 9983.5 5557.68 9982.5 5578.5 9982.5" stroke="#A6A6A6" stroke-width="3.4375" stroke-linejoin="round" stroke-miterlimit="10" fill="none"/></g><g clip-path="url(#clip47)"><text fill="#404040" font-family="Yu Gothic,Yu Gothic_MSFontService,sans-serif" font-weight="700" font-size="55" transform="matrix(1 0 0 1 5592.01 10002)">11</text></g><g clip-path="url(#clip48)"><text fill="#404040" font-family="Yu Gothic,Yu Gothic_MSFontService,sans-serif" font-weight="700" font-size="55" transform="matrix(1 0 0 1 5557.03 9870)">5</text></g><g clip-path="url(#clip49)"><text fill="#404040" font-family="Yu Gothic,Yu Gothic_MSFontService,sans-serif" font-weight="700" font-size="55" transform="matrix(1 0 0 1 5556.75 9469)">16</text></g><g clip-path="url(#clip50)"><text fill="#595959" font-family="Yu Gothic,Yu Gothic_MSFontService,sans-serif" font-weight="500" font-size="60" transform="matrix(1 0 0 1 4188.68 10279)">0%</text></g><g clip-path="url(#clip51)"><text fill="#595959" font-family="Yu Gothic,Yu Gothic_MSFontService,sans-serif" font-weight="500" font-size="60" transform="matrix(1 0 0 1 4500.43 10279)">25%</text></g><g clip-path="url(#clip52)"><text fill="#595959" font-family="Yu Gothic,Yu Gothic_MSFontService,sans-serif" font-weight="500" font-size="60" transform="matrix(1 0 0 1 4828.71 10279)">50%</text></g><g clip-path="url(#clip53)"><text fill="#595959" font-family="Yu Gothic,Yu Gothic_MSFontService,sans-serif" font-weight="500" font-size="60" transform="matrix(1 0 0 1 5156.99 10279)">75%</text></g><g clip-path="url(#clip54)"><text fill="#595959" font-family="Yu Gothic,Yu Gothic_MSFontService,sans-serif" font-weight="500" font-size="60" transform="matrix(1 0 0 1 5468.73 10279)">100%</text></g><g clip-path="url(#clip55)"><g clip-path="url(#clip56)"><text fill="#595959" font-family="Yu Gothic,Yu Gothic_MSFontService,sans-serif" font-weight="500" font-size="57" transform="matrix(1 0 0 1 3838.2 10131)">その他</text></g></g><g clip-path="url(#clip57)"><g clip-path="url(#clip58)"><text fill="#595959" font-family="Yu Gothic,Yu Gothic_MSFontService,sans-serif" font-weight="500" font-size="57" transform="matrix(1 0 0 1 4010.07 10131)">(n=43)</text></g></g><g clip-path="url(#clip59)"><g clip-path="url(#clip60)"><text fill="#595959" font-family="Yu Gothic,Yu Gothic_MSFontService,sans-serif" font-weight="500" font-size="57" transform="matrix(1 0 0 1 3774.58 9999)">大学院</text></g></g><g clip-path="url(#clip61)"><g clip-path="url(#clip62)"><text fill="#595959" font-family="Yu Gothic,Yu Gothic_MSFontService,sans-serif" font-weight="500" font-size="57" transform="matrix(1 0 0 1 3946.46 9999)">(n=1242)</text></g></g><g clip-path="url(#clip63)"><g clip-path="url(#clip64)"><text fill="#595959" font-family="Yu Gothic,Yu Gothic_MSFontService,sans-serif" font-weight="500" font-size="57" transform="matrix(1 0 0 1 3660 9867)">学部</text></g></g><g clip-path="url(#clip65)"><g clip-path="url(#clip66)"><text fill="#595959" font-family="Yu Gothic,Yu Gothic_MSFontService,sans-serif" font-weight="500" font-size="57" transform="matrix(1 0 0 1 3774.58 9867)">3</text></g></g><g clip-path="url(#clip67)"><g clip-path="url(#clip68)"><text fill="#595959" font-family="Yu Gothic,Yu Gothic_MSFontService,sans-serif" font-weight="500" font-size="57" transform="matrix(1 0 0 1 3806.39 9867)">年以上</text></g></g><g clip-path="url(#clip69)"><g clip-path="url(#clip70)"><text fill="#595959" font-family="Yu Gothic,Yu Gothic_MSFontService,sans-serif" font-weight="500" font-size="57" transform="matrix(1 0 0 1 3978.26 9867)">(n=533)</text></g></g><g clip-path="url(#clip71)"><g clip-path="url(#clip72)"><text fill="#595959" font-family="Yu Gothic,Yu Gothic_MSFontService,sans-serif" font-weight="500" font-size="57" transform="matrix(1 0 0 1 3774.58 9735)">学部</text></g></g><g clip-path="url(#clip73)"><g clip-path="url(#clip74)"><text fill="#595959" font-family="Yu Gothic,Yu Gothic_MSFontService,sans-serif" font-weight="500" font-size="57" transform="matrix(1 0 0 1 3889.16 9735)">2</text></g></g><g clip-path="url(#clip75)"><g clip-path="url(#clip76)"><text fill="#595959" font-family="Yu Gothic,Yu Gothic_MSFontService,sans-serif" font-weight="500" font-size="57" transform="matrix(1 0 0 1 3920.97 9735)">年</text></g></g><g clip-path="url(#clip77)"><g clip-path="url(#clip78)"><text fill="#595959" font-family="Yu Gothic,Yu Gothic_MSFontService,sans-serif" font-weight="500" font-size="57" transform="matrix(1 0 0 1 3978.26 9735)">(n=313)</text></g></g><g clip-path="url(#clip79)"><g clip-path="url(#clip80)"><text fill="#595959" font-family="Yu Gothic,Yu Gothic_MSFontService,sans-serif" font-weight="500" font-size="57" transform="matrix(1 0 0 1 3774.58 9603)">学部</text></g></g><g clip-path="url(#clip81)"><g clip-path="url(#clip82)"><text fill="#595959" font-family="Yu Gothic,Yu Gothic_MSFontService,sans-serif" font-weight="500" font-size="57" transform="matrix(1 0 0 1 3889.16 9603)">1</text></g></g><g clip-path="url(#clip83)"><g clip-path="url(#clip84)"><text fill="#595959" font-family="Yu Gothic,Yu Gothic_MSFontService,sans-serif" font-weight="500" font-size="57" transform="matrix(1 0 0 1 3920.97 9603)">年</text></g></g><g clip-path="url(#clip85)"><g clip-path="url(#clip86)"><text fill="#595959" font-family="Yu Gothic,Yu Gothic_MSFontService,sans-serif" font-weight="500" font-size="57" transform="matrix(1 0 0 1 3978.26 9603)">(n=273)</text></g></g><g clip-path="url(#clip87)"><g clip-path="url(#clip88)"><text fill="#595959" font-family="Yu Gothic,Yu Gothic_MSFontService,sans-serif" font-weight="500" font-size="57" transform="matrix(1 0 0 1 3831.87 9471)">全体</text></g></g><g clip-path="url(#clip89)"><g clip-path="url(#clip90)"><text fill="#595959" font-family="Yu Gothic,Yu Gothic_MSFontService,sans-serif" font-weight="500" font-size="57" transform="matrix(1 0 0 1 3946.46 9471)">(n=2404)</text></g></g><g clip-path="url(#clip91)"><rect x="5703.5" y="9293.5" width="29" height="29" stroke="#000000" stroke-width="4.58333" stroke-linejoin="round" stroke-miterlimit="10" fill="#FFFFFF"/></g><g clip-path="url(#clip92)"><text fill="#595959" font-family="Yu Gothic,Yu Gothic_MSFontService,sans-serif" font-weight="500" font-size="50" transform="matrix(1 0 0 1 5745.12 9322)">自宅の有線契約</text></g><g clip-path="url(#clip93)"><text fill="#595959" font-family="Yu Gothic,Yu Gothic_MSFontService,sans-serif" font-weight="500" font-size="50" transform="matrix(1 0 0 1 5745.12 9406)">（光、ケーブルテレビなど）</text></g><g clip-path="url(#clip94)"><rect x="5703.5" y="9439.5" width="29" height="29" stroke="#000000" stroke-width="4.58333" stroke-linejoin="round" stroke-miterlimit="10" fill="#F1F8FD"/></g><g clip-path="url(#clip95)"><text fill="#595959" font-family="Yu Gothic,Yu Gothic_MSFontService,sans-serif" font-weight="500" font-size="50" transform="matrix(1 0 0 1 5745.12 9468)">寮、下宿先のネットワーク</text></g><g clip-path="url(#clip96)"><rect x="5703.5" y="9585.5" width="29" height="29" stroke="#000000" stroke-width="4.58333" stroke-linejoin="round" stroke-miterlimit="10" fill="#C2DDF6"/></g><g clip-path="url(#clip97)"><text fill="#595959" font-family="Yu Gothic,Yu Gothic_MSFontService,sans-serif" font-weight="500" font-size="50" transform="matrix(1 0 0 1 5745.12 9614)">無線契約（携帯回線、モバイル</text></g><g clip-path="url(#clip98)"><text fill="#595959" font-family="Yu Gothic,Yu Gothic_MSFontService,sans-serif" font-weight="500" font-size="50" transform="matrix(1 0 0 1 5745.12 9698)">ルータで通信量月</text></g><g clip-path="url(#clip99)"><text fill="#595959" font-family="Yu Gothic,Yu Gothic_MSFontService,sans-serif" font-weight="500" font-size="50" transform="matrix(1 0 0 1 6148.45 9698)">50GB</text></g><g clip-path="url(#clip100)"><text fill="#595959" font-family="Yu Gothic,Yu Gothic_MSFontService,sans-serif" font-weight="500" font-size="50" transform="matrix(1 0 0 1 6275.36 9698)">以上）</text></g><g clip-path="url(#clip101)"><rect x="5703.5" y="9731.5" width="29" height="29" stroke="#000000" stroke-width="4.58333" stroke-linejoin="round" stroke-miterlimit="10" fill="#9ECBF0"/></g><g clip-path="url(#clip102)"><text fill="#595959" font-family="Yu Gothic,Yu Gothic_MSFontService,sans-serif" font-weight="500" font-size="50" transform="matrix(1 0 0 1 5745.12 9760)">無線契約（携帯回線、モバイル</text></g><g clip-path="url(#clip103)"><text fill="#595959" font-family="Yu Gothic,Yu Gothic_MSFontService,sans-serif" font-weight="500" font-size="50" transform="matrix(1 0 0 1 5745.12 9844)">ルータで通信量月</text></g><g clip-path="url(#clip104)"><text fill="#595959" font-family="Yu Gothic,Yu Gothic_MSFontService,sans-serif" font-weight="500" font-size="50" transform="matrix(1 0 0 1 6148.45 9844)">50GB</text></g><g clip-path="url(#clip105)"><text fill="#595959" font-family="Yu Gothic,Yu Gothic_MSFontService,sans-serif" font-weight="500" font-size="50" transform="matrix(1 0 0 1 6275.36 9844)">未満）</text></g><g clip-path="url(#clip106)"><rect x="5703.5" y="9876.5" width="29" height="30" stroke="#000000" stroke-width="4.58333" stroke-linejoin="round" stroke-miterlimit="10" fill="#70B3EA"/></g><g clip-path="url(#clip107)"><text fill="#595959" font-family="Yu Gothic,Yu Gothic_MSFontService,sans-serif" font-weight="500" font-size="50" transform="matrix(1 0 0 1 5745.12 9906)">大学が提供のモバイル</text></g><g clip-path="url(#clip108)"><text fill="#595959" font-family="Yu Gothic,Yu Gothic_MSFontService,sans-serif" font-weight="500" font-size="50" transform="matrix(1 0 0 1 6249.29 9906)">WiFi</text></g><g clip-path="url(#clip109)"><text fill="#595959" font-family="Yu Gothic,Yu Gothic_MSFontService,sans-serif" font-weight="500" font-size="50" transform="matrix(1 0 0 1 6353.58 9906)">ルータ</text></g><g clip-path="url(#clip110)"><rect x="5703.5" y="10022.5" width="29" height="29" stroke="#000000" stroke-width="4.58333" stroke-linejoin="round" stroke-miterlimit="10" fill="#3694E2"/></g><g clip-path="url(#clip111)"><text fill="#595959" font-family="Yu Gothic,Yu Gothic_MSFontService,sans-serif" font-weight="500" font-size="50" transform="matrix(1 0 0 1 5745.12 10052)">大学内のネットワーク</text></g><g clip-path="url(#clip112)"><rect x="5703.5" y="10168.5" width="29" height="29" stroke="#000000" stroke-width="4.58333" stroke-linejoin="round" stroke-miterlimit="10" fill="#095085"/></g><g clip-path="url(#clip113)"><text fill="#595959" font-family="Yu Gothic,Yu Gothic_MSFontService,sans-serif" font-weight="500" font-size="50" transform="matrix(1 0 0 1 5745.12 10197)">その他</text></g><g clip-path="url(#clip114)"><text fill="#595959" font-family="Yu Gothic,Yu Gothic_MSFontService,sans-serif" font-weight="500" font-size="50" transform="matrix(1 0 0 1 5896.37 10197)">(</text></g><g clip-path="url(#clip115)"><text fill="#595959" font-family="Yu Gothic,Yu Gothic_MSFontService,sans-serif" font-weight="500" font-size="50" transform="matrix(1 0 0 1 5915.53 10197)">自由回答</text></g><g clip-path="url(#clip116)"><text fill="#595959" font-family="Yu Gothic,Yu Gothic_MSFontService,sans-serif" font-weight="500" font-size="50" transform="matrix(1 0 0 1 6117.19 10197)">)</text></g><rect x="3598.5" y="9107.5" width="2989" height="1208" stroke="#000000" stroke-width="4.58333" stroke-linejoin="round" stroke-miterlimit="10" fill="none"/><g clip-path="url(#clip117)"><g clip-path="url(#clip118)"><text font-family="Yu Gothic,Yu Gothic_MSFontService,sans-serif" font-weight="500" font-size="73" transform="matrix(1 0 0 1 3656.83 9219)">【回線】</text></g></g><g clip-path="url(#clip119)"><g clip-path="url(#clip120)"><text font-family="Yu Gothic,Yu Gothic_MSFontService,sans-serif" font-weight="500" font-size="73" transform="matrix(1 0 0 1 3971.09 9219)">オンライン授業や研究などのために</text></g></g><g clip-path="url(#clip121)"><g clip-path="url(#clip122)"><text font-family="Yu Gothic,Yu Gothic_MSFontService,sans-serif" font-weight="500" font-size="73" transform="matrix(1 0 0 1 5144.42 9219)">，</text></g></g><g clip-path="url(#clip123)"><g clip-path="url(#clip124)"><text font-family="Yu Gothic,Yu Gothic_MSFontService,sans-serif" font-weight="500" font-size="73" transform="matrix(1 0 0 1 5217.75 9219)">どのインターネット環境を使っていま</text></g></g><g clip-path="url(#clip125)"><text font-family="Yu Gothic,Yu Gothic_MSFontService,sans-serif" font-weight="500" font-size="73" transform="matrix(1 0 0 1 3656.83 9342)">すか？</text></g></g></svg>