<svg width="2993" height="1576" xmlns="http://www.w3.org/2000/svg" xmlns:xlink="http://www.w3.org/1999/xlink" overflow="hidden"><defs><clipPath id="clip0"><rect x="3087" y="49" width="2993" height="1576"/></clipPath><clipPath id="clip1"><rect x="3089" y="50" width="2988" height="1571"/></clipPath><clipPath id="clip2"><rect x="4032" y="204" width="1533" height="1247"/></clipPath><clipPath id="clip3"><rect x="4032" y="204" width="1533" height="1247"/></clipPath><clipPath id="clip4"><rect x="4032" y="204" width="1533" height="1247"/></clipPath><clipPath id="clip5"><rect x="4032" y="204" width="1533" height="1247"/></clipPath><clipPath id="clip6"><rect x="4032" y="204" width="1533" height="1247"/></clipPath><clipPath id="clip7"><rect x="4032" y="204" width="1533" height="1247"/></clipPath><clipPath id="clip8"><rect x="3089" y="50" width="2988" height="1571"/></clipPath><clipPath id="clip9"><rect x="3089" y="50" width="2988" height="1571"/></clipPath><clipPath id="clip10"><rect x="3089" y="50" width="2988" height="1571"/></clipPath><clipPath id="clip11"><rect x="3089" y="50" width="2988" height="1571"/></clipPath><clipPath id="clip12"><rect x="3089" y="50" width="2988" height="1571"/></clipPath><clipPath id="clip13"><rect x="3089" y="50" width="2988" height="1571"/></clipPath><clipPath id="clip14"><rect x="3089" y="50" width="2988" height="1571"/></clipPath><clipPath id="clip15"><rect x="3089" y="50" width="2988" height="1571"/></clipPath><clipPath id="clip16"><rect x="3089" y="50" width="2988" height="1571"/></clipPath><clipPath id="clip17"><rect x="3089" y="50" width="2988" height="1571"/></clipPath><clipPath id="clip18"><rect x="3089" y="50" width="2988" height="1571"/></clipPath><clipPath id="clip19"><rect x="3089" y="50" width="2988" height="1571"/></clipPath><clipPath id="clip20"><rect x="3089" y="50" width="2988" height="1571"/></clipPath><clipPath id="clip21"><rect x="3089" y="50" width="2988" height="1571"/></clipPath><clipPath id="clip22"><rect x="3089" y="50" width="2988" height="1571"/></clipPath><clipPath id="clip23"><rect x="3089" y="50" width="2988" height="1571"/></clipPath><clipPath id="clip24"><rect x="3089" y="50" width="2988" height="1571"/></clipPath><clipPath id="clip25"><rect x="3089" y="50" width="2988" height="1571"/></clipPath><clipPath id="clip26"><rect x="3089" y="50" width="2988" height="1571"/></clipPath><clipPath id="clip27"><rect x="3089" y="50" width="2988" height="1571"/></clipPath><clipPath id="clip28"><rect x="3089" y="50" width="2988" height="1571"/></clipPath><clipPath id="clip29"><rect x="3089" y="50" width="2988" height="1571"/></clipPath><clipPath id="clip30"><rect x="3089" y="50" width="2988" height="1571"/></clipPath><clipPath id="clip31"><rect x="3089" y="50" width="2988" height="1571"/></clipPath><clipPath id="clip32"><rect x="3089" y="50" width="2988" height="1571"/></clipPath><clipPath id="clip33"><rect x="3089" y="50" width="2988" height="1571"/></clipPath><clipPath id="clip34"><rect x="3089" y="50" width="2988" height="1571"/></clipPath><clipPath id="clip35"><rect x="3089" y="50" width="2988" height="1571"/></clipPath><clipPath id="clip36"><rect x="3089" y="50" width="2988" height="1571"/></clipPath><clipPath id="clip37"><rect x="3089" y="50" width="2988" height="1571"/></clipPath><clipPath id="clip38"><rect x="3089" y="50" width="2988" height="1571"/></clipPath><clipPath id="clip39"><rect x="3089" y="50" width="2988" height="1571"/></clipPath><clipPath id="clip40"><rect x="3089" y="50" width="2988" height="1571"/></clipPath><clipPath id="clip41"><rect x="3089" y="50" width="2988" height="1571"/></clipPath><clipPath id="clip42"><rect x="3089" y="50" width="2988" height="1571"/></clipPath><clipPath id="clip43"><rect x="3089" y="50" width="2988" height="1571"/></clipPath><clipPath id="clip44"><rect x="3089" y="50" width="2988" height="1571"/></clipPath><clipPath id="clip45"><rect x="3089" y="50" width="2988" height="1571"/></clipPath><clipPath id="clip46"><rect x="3089" y="50" width="2988" height="1571"/></clipPath><clipPath id="clip47"><rect x="3089" y="50" width="2988" height="1571"/></clipPath><clipPath id="clip48"><rect x="3089" y="50" width="2988" height="1571"/></clipPath><clipPath id="clip49"><rect x="3089" y="50" width="2988" height="1571"/></clipPath><clipPath id="clip50"><rect x="3089" y="50" width="2988" height="1571"/></clipPath><clipPath id="clip51"><rect x="3089" y="50" width="2988" height="1571"/></clipPath><clipPath id="clip52"><rect x="3089" y="50" width="2988" height="1571"/></clipPath><clipPath id="clip53"><rect x="3089" y="50" width="2988" height="1571"/></clipPath><clipPath id="clip54"><rect x="3089" y="50" width="2988" height="1571"/></clipPath><clipPath id="clip55"><rect x="3089" y="50" width="2988" height="1571"/></clipPath><clipPath id="clip56"><rect x="3089" y="50" width="2988" height="1571"/></clipPath><clipPath id="clip57"><rect x="3089" y="50" width="2988" height="1571"/></clipPath><clipPath id="clip58"><rect x="3089" y="50" width="2988" height="1571"/></clipPath><clipPath id="clip59"><rect x="3089" y="50" width="2988" height="1571"/></clipPath><clipPath id="clip60"><rect x="3089" y="50" width="2988" height="1571"/></clipPath><clipPath id="clip61"><rect x="3089" y="50" width="2988" height="1571"/></clipPath><clipPath id="clip62"><rect x="3089" y="50" width="2988" height="1571"/></clipPath><clipPath id="clip63"><rect x="3089" y="50" width="2988" height="1571"/></clipPath><clipPath id="clip64"><rect x="3089" y="50" width="2988" height="1571"/></clipPath><clipPath id="clip65"><rect x="3089" y="50" width="2988" height="1571"/></clipPath><clipPath id="clip66"><rect x="3089" y="50" width="2988" height="1571"/></clipPath><clipPath id="clip67"><rect x="3089" y="50" width="2988" height="1571"/></clipPath><clipPath id="clip68"><rect x="3089" y="50" width="2988" height="1571"/></clipPath><clipPath id="clip69"><rect x="3089" y="50" width="2988" height="1571"/></clipPath><clipPath id="clip70"><rect x="3089" y="50" width="2988" height="1571"/></clipPath><clipPath id="clip71"><rect x="3089" y="50" width="2989" height="1572"/></clipPath><clipPath id="clip72"><rect x="-5318" y="61" width="19754" height="496"/></clipPath><clipPath id="clip73"><rect x="3089" y="50" width="2989" height="1572"/></clipPath><clipPath id="clip74"><rect x="-5318" y="61" width="19754" height="496"/></clipPath><clipPath id="clip75"><rect x="3089" y="50" width="2989" height="1572"/></clipPath><clipPath id="clip76"><rect x="-5318" y="61" width="19754" height="496"/></clipPath><clipPath id="clip77"><rect x="3089" y="50" width="2989" height="1572"/></clipPath><clipPath id="clip78"><rect x="3089" y="50" width="2989" height="1572"/></clipPath><clipPath id="clip79"><rect x="3089" y="50" width="2989" height="1572"/></clipPath><clipPath id="clip80"><rect x="3089" y="50" width="2989" height="1572"/></clipPath><clipPath id="clip81"><rect x="3089" y="50" width="2989" height="1572"/></clipPath><clipPath id="clip82"><rect x="3089" y="50" width="2989" height="1572"/></clipPath><clipPath id="clip83"><rect x="3089" y="50" width="2989" height="1572"/></clipPath><clipPath id="clip84"><rect x="3089" y="50" width="2989" height="1572"/></clipPath><clipPath id="clip85"><rect x="3089" y="50" width="2989" height="1572"/></clipPath><clipPath id="clip86"><rect x="3089" y="50" width="2989" height="1572"/></clipPath><clipPath id="clip87"><rect x="3089" y="50" width="2989" height="1572"/></clipPath><clipPath id="clip88"><rect x="3089" y="50" width="2989" height="1572"/></clipPath><clipPath id="clip89"><rect x="3089" y="50" width="2989" height="1572"/></clipPath><clipPath id="clip90"><rect x="3089" y="50" width="2989" height="1572"/></clipPath><clipPath id="clip91"><rect x="3089" y="50" width="2989" height="1572"/></clipPath><clipPath id="clip92"><rect x="3089" y="50" width="2989" height="1572"/></clipPath><clipPath id="clip93"><rect x="3089" y="50" width="2989" height="1572"/></clipPath><clipPath id="clip94"><rect x="3089" y="50" width="2989" height="1572"/></clipPath><clipPath id="clip95"><rect x="3089" y="50" width="2989" height="1572"/></clipPath><clipPath id="clip96"><rect x="3089" y="50" width="2989" height="1572"/></clipPath><clipPath id="clip97"><rect x="3089" y="50" width="2989" height="1572"/></clipPath><clipPath id="clip98"><rect x="3089" y="50" width="2989" height="1572"/></clipPath><clipPath id="clip99"><rect x="3089" y="50" width="2989" height="1572"/></clipPath><clipPath id="clip100"><rect x="3089" y="50" width="2989" height="1572"/></clipPath><clipPath id="clip101"><rect x="3089" y="50" width="2989" height="1572"/></clipPath><clipPath id="clip102"><rect x="3089" y="50" width="2989" height="1572"/></clipPath><clipPath id="clip103"><rect x="3089" y="50" width="2989" height="1572"/></clipPath><clipPath id="clip104"><rect x="3089" y="50" width="2989" height="1572"/></clipPath><clipPath id="clip105"><rect x="3089" y="50" width="2989" height="1572"/></clipPath><clipPath id="clip106"><rect x="3089" y="50" width="2989" height="1572"/></clipPath><clipPath id="clip107"><rect x="3089" y="50" width="2989" height="1572"/></clipPath><clipPath id="clip108"><rect x="3089" y="50" width="2989" height="1572"/></clipPath><clipPath id="clip109"><rect x="3089" y="50" width="2989" height="1572"/></clipPath><clipPath id="clip110"><rect x="4877" y="505" width="1926" height="110"/></clipPath><clipPath id="clip111"><rect x="3089" y="50" width="2989" height="1572"/></clipPath></defs><g clip-path="url(#clip0)" transform="translate(-3087 -49)"><rect x="3089" y="50.9999" width="2988" height="1571" fill="#FFFFFF"/><g clip-path="url(#clip1)"><path d="M4032.5 204.5 4032.5 1447.5M4414.65 204.5 4414.65 1447.5M4796.66 204.5 4796.66 1447.5M5179.67 204.5 5179.67 1447.5M5562.5 204.5 5562.5 1447.5" stroke="#D9D9D9" stroke-width="4.58333" stroke-linejoin="round" stroke-miterlimit="10" fill="none"/></g><g clip-path="url(#clip2)"><path d="M5525.5 732.5 4032.5 732.5 4032.5 642.5 5525.5 642.5Z" stroke="#000000" stroke-width="4.58333" stroke-linejoin="round" stroke-miterlimit="10" fill="#FFFFFF"/></g><g clip-path="url(#clip3)"><path d="M5539.68 1423.55 4032.5 1423.55 4032.5 1333.54 5539.68 1333.54ZM5443.68 1285.54 4032.5 1285.54 4032.5 1195.54 5443.68 1195.54ZM5223.67 1147.54 4032.5 1147.54 4032.5 1057.53 5223.67 1057.53ZM5468.68 1009.53 4032.5 1009.53 4032.5 918.53 5468.68 918.53ZM5543.68 871.529 4032.5 871.529 4032.5 780.526 5543.68 780.526ZM4815.66 594.52 4032.5 594.52 4032.5 504.517 4815.66 504.517ZM4204.64 456.515 4032.5 456.515 4032.5 366.512 4204.64 366.512ZM5252.67 318.511 4032.5 318.511 4032.5 228.508 5252.67 228.508Z" stroke="#000000" stroke-width="4.58333" stroke-linejoin="round" stroke-miterlimit="10" fill="#FFFFFF"/></g><g clip-path="url(#clip4)"><path d="M5548.5 732.5 5525.5 732.5 5525.5 642.5 5548.5 642.5Z" stroke="#000000" stroke-width="4.58333" stroke-linejoin="round" stroke-miterlimit="10" fill="#DEEBF7"/></g><g clip-path="url(#clip5)"><path d="M5557.68 1423.55 5539.68 1423.55 5539.68 1333.54 5557.68 1333.54ZM5554.68 1285.54 5443.68 1285.54 5443.68 1195.54 5554.68 1195.54ZM5520.68 1147.54 5223.67 1147.54 5223.67 1057.53 5520.68 1057.53ZM5545.68 1009.53 5468.68 1009.53 5468.68 918.53 5545.68 918.53ZM5553.68 871.529 5543.68 871.529 5543.68 780.526 5553.68 780.526ZM5378.68 594.52 4815.66 594.52 4815.66 504.517 5378.68 504.517ZM4588.65 456.515 4204.64 456.515 4204.64 366.512 4588.65 366.512ZM5472.68 318.511 5252.67 318.511 5252.67 228.508 5472.68 228.508Z" stroke="#000000" stroke-width="4.58333" stroke-linejoin="round" stroke-miterlimit="10" fill="#DEEBF7"/></g><g clip-path="url(#clip6)"><path d="M5557.68 1285.54 5554.68 1285.54 5554.68 1195.54 5557.68 1195.54ZM5548.68 1147.54 5520.68 1147.54 5520.68 1057.53 5548.68 1057.53ZM5554.68 1009.53 5545.68 1009.53 5545.68 918.53 5554.68 918.53ZM5554.68 871.529 5553.68 871.529 5553.68 780.526 5554.68 780.526ZM5552.68 732.524 5548.68 732.524 5548.68 642.521 5552.68 642.521ZM5504.68 594.52 5378.68 594.52 5378.68 504.517 5504.68 504.517ZM4821.66 456.515 4588.65 456.515 4588.65 366.512 4821.66 366.512ZM5495.68 318.511 5472.68 318.511 5472.68 228.508 5495.68 228.508Z" stroke="#000000" stroke-width="4.58333" stroke-linejoin="round" stroke-miterlimit="10" fill="#9DC3E6"/></g><g clip-path="url(#clip7)"><path d="M5561.68 1423.55 5557.68 1423.55 5557.68 1333.54 5561.68 1333.54ZM5561.68 1285.54 5557.68 1285.54 5557.68 1195.54 5561.68 1195.54ZM5561.68 1147.54 5548.68 1147.54 5548.68 1057.53 5561.68 1057.53ZM5561.68 1009.53 5554.68 1009.53 5554.68 918.53 5561.68 918.53ZM5561.68 871.529 5554.68 871.529 5554.68 780.526 5561.68 780.526ZM5561.68 732.524 5552.68 732.524 5552.68 642.521 5561.68 642.521ZM5561.68 594.52 5504.68 594.52 5504.68 504.517 5561.68 504.517ZM5561.68 456.515 4821.66 456.515 4821.66 366.512 5561.68 366.512ZM5561.68 318.511 5495.68 318.511 5495.68 228.508 5561.68 228.508Z" stroke="#000000" stroke-width="4.58333" stroke-linejoin="round" stroke-miterlimit="10" fill="#4CA0E6"/></g><g clip-path="url(#clip8)"><text fill="#404040" font-family="Yu Gothic,Yu Gothic_MSFontService,sans-serif" font-weight="700" font-size="55" transform="matrix(1 0 0 1 4723.03 1398)">1365</text></g><g clip-path="url(#clip9)"><text fill="#404040" font-family="Yu Gothic,Yu Gothic_MSFontService,sans-serif" font-weight="700" font-size="55" transform="matrix(1 0 0 1 4674.62 1259)">1329</text></g><g clip-path="url(#clip10)"><text fill="#404040" font-family="Yu Gothic,Yu Gothic_MSFontService,sans-serif" font-weight="700" font-size="55" transform="matrix(1 0 0 1 4564.76 1121)">1168</text></g><g clip-path="url(#clip11)"><text fill="#404040" font-family="Yu Gothic,Yu Gothic_MSFontService,sans-serif" font-weight="700" font-size="55" transform="matrix(1 0 0 1 4687.59 983)">1360</text></g><g clip-path="url(#clip12)"><text fill="#404040" font-family="Yu Gothic,Yu Gothic_MSFontService,sans-serif" font-weight="700" font-size="55" transform="matrix(1 0 0 1 4725 845)">1416</text></g><g clip-path="url(#clip13)"><text fill="#404040" font-family="Yu Gothic,Yu Gothic_MSFontService,sans-serif" font-weight="700" font-size="55" transform="matrix(1 0 0 1 4715.56 707)">1411</text></g><g clip-path="url(#clip14)"><text fill="#404040" font-family="Yu Gothic,Yu Gothic_MSFontService,sans-serif" font-weight="700" font-size="55" transform="matrix(1 0 0 1 4376.62 569)">845</text></g><g clip-path="url(#clip15)"><text fill="#404040" font-family="Yu Gothic,Yu Gothic_MSFontService,sans-serif" font-weight="700" font-size="55" transform="matrix(1 0 0 1 4071.18 430)">203</text></g><g clip-path="url(#clip16)"><text fill="#404040" font-family="Yu Gothic,Yu Gothic_MSFontService,sans-serif" font-weight="700" font-size="55" transform="matrix(1 0 0 1 4579.42 292)">1393</text></g><g clip-path="url(#clip17)"><path d="M5548.5 1333.5 5518.68 1314.5 5497.5 1314.5" stroke="#A6A6A6" stroke-width="3.4375" stroke-linejoin="round" stroke-miterlimit="10" fill="none"/></g><g clip-path="url(#clip18)"><path d="M5548.5 780.5 5520.68 761.5 5500.5 761.5" stroke="#A6A6A6" stroke-width="3.4375" stroke-linejoin="round" stroke-miterlimit="10" fill="none"/></g><g clip-path="url(#clip19)"><path d="M5536.5 642.5 5519.68 623.5 5499.5 623.5" stroke="#A6A6A6" stroke-width="3.4375" stroke-linejoin="round" stroke-miterlimit="10" fill="none"/></g><g clip-path="url(#clip20)"><text fill="#404040" font-family="Yu Gothic,Yu Gothic_MSFontService,sans-serif" font-weight="700" font-size="55" transform="matrix(1 0 0 1 5421.09 1333)">16</text></g><g clip-path="url(#clip21)"><text fill="#404040" font-family="Yu Gothic,Yu Gothic_MSFontService,sans-serif" font-weight="700" font-size="55" transform="matrix(1 0 0 1 5451.66 1259)">105</text></g><g clip-path="url(#clip22)"><text fill="#404040" font-family="Yu Gothic,Yu Gothic_MSFontService,sans-serif" font-weight="700" font-size="55" transform="matrix(1 0 0 1 5324.61 1121)">291</text></g><g clip-path="url(#clip23)"><text fill="#404040" font-family="Yu Gothic,Yu Gothic_MSFontService,sans-serif" font-weight="700" font-size="55" transform="matrix(1 0 0 1 5475.66 983)">72</text></g><g clip-path="url(#clip24)"><text fill="#404040" font-family="Yu Gothic,Yu Gothic_MSFontService,sans-serif" font-weight="700" font-size="55" transform="matrix(1 0 0 1 5455.1 781)">9</text></g><g clip-path="url(#clip25)"><text fill="#404040" font-family="Yu Gothic,Yu Gothic_MSFontService,sans-serif" font-weight="700" font-size="55" transform="matrix(1 0 0 1 5422.71 643)">22</text></g><g clip-path="url(#clip26)"><text fill="#404040" font-family="Yu Gothic,Yu Gothic_MSFontService,sans-serif" font-weight="700" font-size="55" transform="matrix(1 0 0 1 5049.81 569)">607</text></g><g clip-path="url(#clip27)"><text fill="#404040" font-family="Yu Gothic,Yu Gothic_MSFontService,sans-serif" font-weight="700" font-size="55" transform="matrix(1 0 0 1 4349.28 430)">451</text></g><g clip-path="url(#clip28)"><text fill="#404040" font-family="Yu Gothic,Yu Gothic_MSFontService,sans-serif" font-weight="700" font-size="55" transform="matrix(1 0 0 1 5315.48 292)">251</text></g><g clip-path="url(#clip29)"><path d="M5534.5 1057.5 5531.68 1038.5 5511.5 1038.5" stroke="#A6A6A6" stroke-width="3.4375" stroke-linejoin="round" stroke-miterlimit="10" fill="none"/></g><g clip-path="url(#clip30)"><text fill="#404040" font-family="Yu Gothic,Yu Gothic_MSFontService,sans-serif" font-weight="700" font-size="55" transform="matrix(1 0 0 1 5541.95 1333)">0</text></g><g clip-path="url(#clip31)"><text fill="#404040" font-family="Yu Gothic,Yu Gothic_MSFontService,sans-serif" font-weight="700" font-size="55" transform="matrix(1 0 0 1 5540.53 1195)">3</text></g><g clip-path="url(#clip32)"><text fill="#404040" font-family="Yu Gothic,Yu Gothic_MSFontService,sans-serif" font-weight="700" font-size="55" transform="matrix(1 0 0 1 5434.31 1057)">28</text></g><g clip-path="url(#clip33)"><text fill="#404040" font-family="Yu Gothic,Yu Gothic_MSFontService,sans-serif" font-weight="700" font-size="55" transform="matrix(1 0 0 1 5534.21 914)">9</text></g><g clip-path="url(#clip34)"><text fill="#404040" font-family="Yu Gothic,Yu Gothic_MSFontService,sans-serif" font-weight="700" font-size="55" transform="matrix(1 0 0 1 5538.36 781)">1</text></g><g clip-path="url(#clip35)"><text fill="#404040" font-family="Yu Gothic,Yu Gothic_MSFontService,sans-serif" font-weight="700" font-size="55" transform="matrix(1 0 0 1 5530.14 638)">4</text></g><g clip-path="url(#clip36)"><text fill="#404040" font-family="Yu Gothic,Yu Gothic_MSFontService,sans-serif" font-weight="700" font-size="55" transform="matrix(1 0 0 1 5394.29 569)">136</text></g><g clip-path="url(#clip37)"><text fill="#404040" font-family="Yu Gothic,Yu Gothic_MSFontService,sans-serif" font-weight="700" font-size="55" transform="matrix(1 0 0 1 4657.57 430)">274</text></g><g clip-path="url(#clip38)"><text fill="#404040" font-family="Yu Gothic,Yu Gothic_MSFontService,sans-serif" font-weight="700" font-size="55" transform="matrix(1 0 0 1 5452.61 223)">26</text></g><g clip-path="url(#clip39)"><text fill="#404040" font-family="Yu Gothic,Yu Gothic_MSFontService,sans-serif" font-weight="700" font-size="55" transform="matrix(1 0 0 1 5585.21 1398)">4</text></g><g clip-path="url(#clip40)"><text fill="#404040" font-family="Yu Gothic,Yu Gothic_MSFontService,sans-serif" font-weight="700" font-size="55" transform="matrix(1 0 0 1 5585.39 1259)">4</text></g><g clip-path="url(#clip41)"><text fill="#404040" font-family="Yu Gothic,Yu Gothic_MSFontService,sans-serif" font-weight="700" font-size="55" transform="matrix(1 0 0 1 5576.37 1121)">13</text></g><g clip-path="url(#clip42)"><text fill="#404040" font-family="Yu Gothic,Yu Gothic_MSFontService,sans-serif" font-weight="700" font-size="55" transform="matrix(1 0 0 1 5582.24 983)">7</text></g><g clip-path="url(#clip43)"><text fill="#404040" font-family="Yu Gothic,Yu Gothic_MSFontService,sans-serif" font-weight="700" font-size="55" transform="matrix(1 0 0 1 5582.16 845)">7</text></g><g clip-path="url(#clip44)"><text fill="#404040" font-family="Yu Gothic,Yu Gothic_MSFontService,sans-serif" font-weight="700" font-size="55" transform="matrix(1 0 0 1 5580.11 707)">9</text></g><g clip-path="url(#clip45)"><text fill="#404040" font-family="Yu Gothic,Yu Gothic_MSFontService,sans-serif" font-weight="700" font-size="55" transform="matrix(1 0 0 1 5501.85 569)">62</text></g><g clip-path="url(#clip46)"><text fill="#404040" font-family="Yu Gothic,Yu Gothic_MSFontService,sans-serif" font-weight="700" font-size="55" transform="matrix(1 0 0 1 5144.46 430)">871</text></g><g clip-path="url(#clip47)"><text fill="#404040" font-family="Yu Gothic,Yu Gothic_MSFontService,sans-serif" font-weight="700" font-size="55" transform="matrix(1 0 0 1 5497.3 292)">76</text></g><g clip-path="url(#clip48)"><text fill="#595959" font-family="Yu Gothic,Yu Gothic_MSFontService,sans-serif" font-weight="500" font-size="60" transform="matrix(1 0 0 1 3991.66 1546)">0%</text></g><g clip-path="url(#clip49)"><text fill="#595959" font-family="Yu Gothic,Yu Gothic_MSFontService,sans-serif" font-weight="500" font-size="60" transform="matrix(1 0 0 1 4357.62 1546)">25%</text></g><g clip-path="url(#clip50)"><text fill="#595959" font-family="Yu Gothic,Yu Gothic_MSFontService,sans-serif" font-weight="500" font-size="60" transform="matrix(1 0 0 1 4740.12 1546)">50%</text></g><g clip-path="url(#clip51)"><text fill="#595959" font-family="Yu Gothic,Yu Gothic_MSFontService,sans-serif" font-weight="500" font-size="60" transform="matrix(1 0 0 1 5122.61 1546)">75%</text></g><g clip-path="url(#clip52)"><text fill="#595959" font-family="Yu Gothic,Yu Gothic_MSFontService,sans-serif" font-weight="500" font-size="60" transform="matrix(1 0 0 1 5488.57 1546)">100%</text></g><g clip-path="url(#clip53)"><rect x="5680.5" y="673.5" width="32" height="31.9999" stroke="#000000" stroke-width="4.58333" stroke-linejoin="round" stroke-miterlimit="10" fill="#FFFFFF"/></g><g clip-path="url(#clip54)"><text fill="#595959" font-family="Yu Gothic,Yu Gothic_MSFontService,sans-serif" font-weight="500" font-size="55" transform="matrix(1 0 0 1 5726.41 705)">1</text></g><g clip-path="url(#clip55)"><text fill="#595959" font-family="Yu Gothic,Yu Gothic_MSFontService,sans-serif" font-weight="500" font-size="55" transform="matrix(1 0 0 1 5756.93 705)">未満</text></g><g clip-path="url(#clip56)"><rect x="5680.5" y="771.5" width="32" height="31.9999" stroke="#000000" stroke-width="4.58333" stroke-linejoin="round" stroke-miterlimit="10" fill="#DEEBF7"/></g><g clip-path="url(#clip57)"><text fill="#595959" font-family="Yu Gothic,Yu Gothic_MSFontService,sans-serif" font-weight="500" font-size="55" transform="matrix(1 0 0 1 5726.41 803)">1</text></g><g clip-path="url(#clip58)"><text fill="#595959" font-family="Yu Gothic,Yu Gothic_MSFontService,sans-serif" font-weight="500" font-size="55" transform="matrix(1 0 0 1 5756.93 803)">以上</text></g><g clip-path="url(#clip59)"><text fill="#595959" font-family="Yu Gothic,Yu Gothic_MSFontService,sans-serif" font-weight="500" font-size="55" transform="matrix(1 0 0 1 5866.93 803)">-</text></g><g clip-path="url(#clip60)"><text fill="#595959" font-family="Yu Gothic,Yu Gothic_MSFontService,sans-serif" font-weight="500" font-size="55" transform="matrix(1 0 0 1 5890.49 803)">3</text></g><g clip-path="url(#clip61)"><text fill="#595959" font-family="Yu Gothic,Yu Gothic_MSFontService,sans-serif" font-weight="500" font-size="55" transform="matrix(1 0 0 1 5921.02 803)">未満</text></g><g clip-path="url(#clip62)"><rect x="5680.5" y="869.5" width="32" height="32.0003" stroke="#000000" stroke-width="4.58333" stroke-linejoin="round" stroke-miterlimit="10" fill="#9DC3E6"/></g><g clip-path="url(#clip63)"><text fill="#595959" font-family="Yu Gothic,Yu Gothic_MSFontService,sans-serif" font-weight="500" font-size="55" transform="matrix(1 0 0 1 5726.41 900)">3</text></g><g clip-path="url(#clip64)"><text fill="#595959" font-family="Yu Gothic,Yu Gothic_MSFontService,sans-serif" font-weight="500" font-size="55" transform="matrix(1 0 0 1 5756.93 900)">以上</text></g><g clip-path="url(#clip65)"><text fill="#595959" font-family="Yu Gothic,Yu Gothic_MSFontService,sans-serif" font-weight="500" font-size="55" transform="matrix(1 0 0 1 5866.93 900)">-</text></g><g clip-path="url(#clip66)"><text fill="#595959" font-family="Yu Gothic,Yu Gothic_MSFontService,sans-serif" font-weight="500" font-size="55" transform="matrix(1 0 0 1 5890.49 900)">6</text></g><g clip-path="url(#clip67)"><text fill="#595959" font-family="Yu Gothic,Yu Gothic_MSFontService,sans-serif" font-weight="500" font-size="55" transform="matrix(1 0 0 1 5921.02 900)">未満</text></g><g clip-path="url(#clip68)"><rect x="5680.5" y="966.5" width="32" height="31.9999" stroke="#000000" stroke-width="4.58333" stroke-linejoin="round" stroke-miterlimit="10" fill="#4CA0E6"/></g><g clip-path="url(#clip69)"><text fill="#595959" font-family="Yu Gothic,Yu Gothic_MSFontService,sans-serif" font-weight="500" font-size="55" transform="matrix(1 0 0 1 5726.41 998)">6</text></g><g clip-path="url(#clip70)"><text fill="#595959" font-family="Yu Gothic,Yu Gothic_MSFontService,sans-serif" font-weight="500" font-size="55" transform="matrix(1 0 0 1 5756.93 998)">以上</text></g><rect x="3089.5" y="51.5001" width="2988" height="1571" stroke="#000000" stroke-width="4.58333" stroke-linejoin="round" stroke-miterlimit="10" fill="none"/><g clip-path="url(#clip71)"><g clip-path="url(#clip72)"><text font-family="Yu Gothic,Yu Gothic_MSFontService,sans-serif" font-weight="500" font-size="73" transform="matrix(1 0 0 1 3148.14 165)">【授業形式</text></g></g><g clip-path="url(#clip73)"><g clip-path="url(#clip74)"><text font-family="Yu Gothic,Yu Gothic_MSFontService,sans-serif" font-weight="500" font-size="73" transform="matrix(1 0 0 1 3514.81 165)">/</text></g></g><g clip-path="url(#clip75)"><g clip-path="url(#clip76)"><text font-family="Yu Gothic,Yu Gothic_MSFontService,sans-serif" font-weight="500" font-size="73" transform="matrix(1 0 0 1 3550.08 165)">全体】週に受けている授業の平均コマ数を，形式ごとに教えてください．</text></g></g><g clip-path="url(#clip77)"><text fill="#595959" font-family="Yu Gothic,Yu Gothic_MSFontService,sans-serif" font-weight="700" font-size="55" transform="matrix(1 0 0 1 3787.4 709)">(n=1446)</text></g><g clip-path="url(#clip78)"><text fill="#595959" font-family="Yu Gothic,Yu Gothic_MSFontService,sans-serif" font-weight="700" font-size="55" transform="matrix(1 0 0 1 3787.4 848)">(n=1433)</text></g><g clip-path="url(#clip79)"><text fill="#595959" font-family="Yu Gothic,Yu Gothic_MSFontService,sans-serif" font-weight="700" font-size="55" transform="matrix(1 0 0 1 3787.4 987)">(n=1448)</text></g><g clip-path="url(#clip80)"><text fill="#595959" font-family="Yu Gothic,Yu Gothic_MSFontService,sans-serif" font-weight="700" font-size="55" transform="matrix(1 0 0 1 3787.4 1126)">(n=1500)</text></g><g clip-path="url(#clip81)"><text fill="#595959" font-family="Yu Gothic,Yu Gothic_MSFontService,sans-serif" font-weight="700" font-size="55" transform="matrix(1 0 0 1 3787.4 1266)">(n=1441)</text></g><g clip-path="url(#clip82)"><text fill="#595959" font-family="Yu Gothic,Yu Gothic_MSFontService,sans-serif" font-weight="700" font-size="55" transform="matrix(1 0 0 1 3787.4 1405)">(n=1385)</text></g><g clip-path="url(#clip83)"><text fill="#595959" font-family="Yu Gothic,Yu Gothic_MSFontService,sans-serif" font-weight="700" font-size="55" transform="matrix(1 0 0 1 3787.4 570)">(n=1650)</text></g><g clip-path="url(#clip84)"><text fill="#595959" font-family="Yu Gothic,Yu Gothic_MSFontService,sans-serif" font-weight="700" font-size="55" transform="matrix(1 0 0 1 3787.4 431)">(n=1799)</text></g><g clip-path="url(#clip85)"><text fill="#595959" font-family="Yu Gothic,Yu Gothic_MSFontService,sans-serif" font-weight="700" font-size="55" transform="matrix(1 0 0 1 3787.4 292)">(n=1746)</text></g><g clip-path="url(#clip86)"><text fill="#595959" font-family="Yu Gothic,Yu Gothic_MSFontService,sans-serif" font-weight="500" font-size="55" transform="matrix(1 0 0 1 3122.23 1264)">8. </text></g><g clip-path="url(#clip87)"><text fill="#595959" font-family="Yu Gothic,Yu Gothic_MSFontService,sans-serif" font-weight="500" font-size="55" transform="matrix(1 0 0 1 3182.66 1264)">自習方式</text></g><g clip-path="url(#clip88)"><text fill="#595959" font-family="Yu Gothic,Yu Gothic_MSFontService,sans-serif" font-weight="500" font-size="55" transform="matrix(1 0 0 1 3122.23 1123)">7.</text></g><g clip-path="url(#clip89)"><text fill="#595959" font-family="Yu Gothic,Yu Gothic_MSFontService,sans-serif" font-weight="500" font-size="55" transform="matrix(1 0 0 1 3166.99 1123)">オンデマンド方式</text></g><g clip-path="url(#clip90)"><text fill="#595959" font-family="Yu Gothic,Yu Gothic_MSFontService,sans-serif" font-weight="500" font-size="55" transform="matrix(1 0 0 1 3122.23 1405)">9.</text></g><g clip-path="url(#clip91)"><text fill="#595959" font-family="Yu Gothic,Yu Gothic_MSFontService,sans-serif" font-weight="500" font-size="55" transform="matrix(1 0 0 1 3166.99 1405)">その他</text></g><g clip-path="url(#clip92)"><text fill="#595959" font-family="Yu Gothic,Yu Gothic_MSFontService,sans-serif" font-weight="500" font-size="55" transform="matrix(1 0 0 1 3122.23 297)">1. </text></g><g clip-path="url(#clip93)"><text fill="#595959" font-family="Yu Gothic,Yu Gothic_MSFontService,sans-serif" font-weight="500" font-size="55" transform="matrix(1 0 0 1 3182.66 297)">対面方式</text></g><g clip-path="url(#clip94)"><text fill="#595959" font-family="Yu Gothic,Yu Gothic_MSFontService,sans-serif" font-weight="500" font-size="55" transform="matrix(1 0 0 1 3126.27 400)">2.</text></g><g clip-path="url(#clip95)"><text fill="#595959" font-family="Yu Gothic,Yu Gothic_MSFontService,sans-serif" font-weight="500" font-size="55" transform="matrix(1 0 0 1 3171.02 400)">ライブのオンライン方式</text></g><g clip-path="url(#clip96)"><text fill="#595959" font-family="Yu Gothic,Yu Gothic_MSFontService,sans-serif" font-weight="500" font-size="55" transform="matrix(1 0 0 1 3126.27 455)">（教員による講義中心）</text></g><g clip-path="url(#clip97)"><text fill="#595959" font-family="Yu Gothic,Yu Gothic_MSFontService,sans-serif" font-weight="500" font-size="55" transform="matrix(1 0 0 1 3122.23 542)">3.</text></g><g clip-path="url(#clip98)"><text fill="#595959" font-family="Yu Gothic,Yu Gothic_MSFontService,sans-serif" font-weight="500" font-size="55" transform="matrix(1 0 0 1 3166.99 542)">ライブのオンライン方式</text></g><g clip-path="url(#clip99)"><text fill="#595959" font-family="Yu Gothic,Yu Gothic_MSFontService,sans-serif" font-weight="500" font-size="55" transform="matrix(1 0 0 1 3122.23 597)">（学生の</text></g><g clip-path="url(#clip100)"><text fill="#595959" font-family="Yu Gothic,Yu Gothic_MSFontService,sans-serif" font-weight="500" font-size="55" transform="matrix(1 0 0 1 3342.23 597)">GW</text></g><g clip-path="url(#clip101)"><text fill="#595959" font-family="Yu Gothic,Yu Gothic_MSFontService,sans-serif" font-weight="500" font-size="55" transform="matrix(1 0 0 1 3433.42 597)">や議論中心）</text></g><g clip-path="url(#clip102)"><text fill="#595959" font-family="Yu Gothic,Yu Gothic_MSFontService,sans-serif" font-weight="500" font-size="55" transform="matrix(1 0 0 1 3122.23 709)">4.</text></g><g clip-path="url(#clip103)"><text fill="#595959" font-family="Yu Gothic,Yu Gothic_MSFontService,sans-serif" font-weight="500" font-size="55" transform="matrix(1 0 0 1 3166.99 709)">コールセンター方式</text></g><g clip-path="url(#clip104)"><text fill="#595959" font-family="Yu Gothic,Yu Gothic_MSFontService,sans-serif" font-weight="500" font-size="55" transform="matrix(1 0 0 1 3122.23 828)">5.</text></g><g clip-path="url(#clip105)"><text fill="#595959" font-family="Yu Gothic,Yu Gothic_MSFontService,sans-serif" font-weight="500" font-size="55" transform="matrix(1 0 0 1 3166.99 828)">パブリックビューイング</text></g><g clip-path="url(#clip106)"><text fill="#595959" font-family="Yu Gothic,Yu Gothic_MSFontService,sans-serif" font-weight="500" font-size="55" transform="matrix(1 0 0 1 3122.23 883)">方式</text></g><g clip-path="url(#clip107)"><text fill="#595959" font-family="Yu Gothic,Yu Gothic_MSFontService,sans-serif" font-weight="500" font-size="55" transform="matrix(1 0 0 1 3122.23 982)">6. </text></g><g clip-path="url(#clip108)"><text fill="#595959" font-family="Yu Gothic,Yu Gothic_MSFontService,sans-serif" font-weight="500" font-size="55" transform="matrix(1 0 0 1 3182.66 982)">ハイフレックス方式</text></g><g clip-path="url(#clip109)"><g clip-path="url(#clip110)"><text font-family="Yu Gothic,Yu Gothic_MSFontService,sans-serif" font-weight="400" font-size="55" transform="matrix(1 0 0 1 5702.86 587)">平均コマ数</text></g></g><g clip-path="url(#clip111)"><path d="M5702.86 593.018 5977.86 593.018 5977.86 596.018 5702.86 596.018Z" fill-rule="evenodd"/></g></g></svg>