<svg width="2993" height="1107" xmlns="http://www.w3.org/2000/svg" xmlns:xlink="http://www.w3.org/1999/xlink" overflow="hidden"><defs><clipPath id="clip0"><rect x="103" y="813" width="2993" height="1107"/></clipPath><clipPath id="clip1"><rect x="104" y="815" width="2988" height="1102"/></clipPath><clipPath id="clip2"><rect x="745" y="973" width="1799" height="824"/></clipPath><clipPath id="clip3"><rect x="745" y="973" width="1799" height="824"/></clipPath><clipPath id="clip4"><rect x="745" y="973" width="1799" height="824"/></clipPath><clipPath id="clip5"><rect x="745" y="973" width="1799" height="824"/></clipPath><clipPath id="clip6"><rect x="745" y="973" width="1799" height="824"/></clipPath><clipPath id="clip7"><rect x="745" y="973" width="1799" height="824"/></clipPath><clipPath id="clip8"><rect x="104" y="815" width="2988" height="1102"/></clipPath><clipPath id="clip9"><rect x="104" y="815" width="2988" height="1102"/></clipPath><clipPath id="clip10"><rect x="104" y="815" width="2988" height="1102"/></clipPath><clipPath id="clip11"><rect x="104" y="815" width="2988" height="1102"/></clipPath><clipPath id="clip12"><rect x="104" y="815" width="2988" height="1102"/></clipPath><clipPath id="clip13"><rect x="104" y="815" width="2988" height="1102"/></clipPath><clipPath id="clip14"><rect x="104" y="815" width="2988" height="1102"/></clipPath><clipPath id="clip15"><rect x="104" y="815" width="2988" height="1102"/></clipPath><clipPath id="clip16"><rect x="104" y="815" width="2988" height="1102"/></clipPath><clipPath id="clip17"><rect x="104" y="815" width="2988" height="1102"/></clipPath><clipPath id="clip18"><rect x="104" y="815" width="2988" height="1102"/></clipPath><clipPath id="clip19"><rect x="104" y="815" width="2988" height="1102"/></clipPath><clipPath id="clip20"><rect x="104" y="815" width="2988" height="1102"/></clipPath><clipPath id="clip21"><rect x="104" y="815" width="2988" height="1102"/></clipPath><clipPath id="clip22"><rect x="104" y="815" width="2988" height="1102"/></clipPath><clipPath id="clip23"><rect x="104" y="815" width="2988" height="1102"/></clipPath><clipPath id="clip24"><rect x="104" y="815" width="2988" height="1102"/></clipPath><clipPath id="clip25"><rect x="104" y="815" width="2988" height="1102"/></clipPath><clipPath id="clip26"><rect x="104" y="815" width="2988" height="1102"/></clipPath><clipPath id="clip27"><rect x="104" y="815" width="2988" height="1102"/></clipPath><clipPath id="clip28"><rect x="104" y="815" width="2988" height="1102"/></clipPath><clipPath id="clip29"><rect x="104" y="815" width="2988" height="1102"/></clipPath><clipPath id="clip30"><rect x="104" y="815" width="2988" height="1102"/></clipPath><clipPath id="clip31"><rect x="104" y="815" width="2988" height="1102"/></clipPath><clipPath id="clip32"><rect x="104" y="815" width="2988" height="1102"/></clipPath><clipPath id="clip33"><rect x="104" y="815" width="2988" height="1102"/></clipPath><clipPath id="clip34"><rect x="104" y="815" width="2988" height="1102"/></clipPath><clipPath id="clip35"><rect x="104" y="815" width="2988" height="1102"/></clipPath><clipPath id="clip36"><rect x="104" y="815" width="2988" height="1102"/></clipPath><clipPath id="clip37"><rect x="104" y="815" width="2988" height="1102"/></clipPath><clipPath id="clip38"><rect x="104" y="815" width="2988" height="1102"/></clipPath><clipPath id="clip39"><rect x="-707" y="1653" width="2476" height="138"/></clipPath><clipPath id="clip40"><rect x="104" y="815" width="2988" height="1102"/></clipPath><clipPath id="clip41"><rect x="-707" y="1653" width="2476" height="138"/></clipPath><clipPath id="clip42"><rect x="104" y="815" width="2988" height="1102"/></clipPath><clipPath id="clip43"><rect x="-834" y="1516" width="2699" height="138"/></clipPath><clipPath id="clip44"><rect x="104" y="815" width="2988" height="1102"/></clipPath><clipPath id="clip45"><rect x="-834" y="1516" width="2699" height="138"/></clipPath><clipPath id="clip46"><rect x="104" y="815" width="2988" height="1102"/></clipPath><clipPath id="clip47"><rect x="-1420" y="1379" width="3724" height="138"/></clipPath><clipPath id="clip48"><rect x="104" y="815" width="2988" height="1102"/></clipPath><clipPath id="clip49"><rect x="-1420" y="1379" width="3724" height="138"/></clipPath><clipPath id="clip50"><rect x="104" y="815" width="2988" height="1102"/></clipPath><clipPath id="clip51"><rect x="-1420" y="1379" width="3724" height="138"/></clipPath><clipPath id="clip52"><rect x="104" y="815" width="2988" height="1102"/></clipPath><clipPath id="clip53"><rect x="-1420" y="1379" width="3724" height="138"/></clipPath><clipPath id="clip54"><rect x="104" y="815" width="2988" height="1102"/></clipPath><clipPath id="clip55"><rect x="-962" y="1243" width="2922" height="137"/></clipPath><clipPath id="clip56"><rect x="104" y="815" width="2988" height="1102"/></clipPath><clipPath id="clip57"><rect x="-962" y="1243" width="2922" height="137"/></clipPath><clipPath id="clip58"><rect x="104" y="815" width="2988" height="1102"/></clipPath><clipPath id="clip59"><rect x="-962" y="1243" width="2922" height="137"/></clipPath><clipPath id="clip60"><rect x="104" y="815" width="2988" height="1102"/></clipPath><clipPath id="clip61"><rect x="-962" y="1243" width="2922" height="137"/></clipPath><clipPath id="clip62"><rect x="104" y="815" width="2988" height="1102"/></clipPath><clipPath id="clip63"><rect x="-962" y="1106" width="2922" height="138"/></clipPath><clipPath id="clip64"><rect x="104" y="815" width="2988" height="1102"/></clipPath><clipPath id="clip65"><rect x="-962" y="1106" width="2922" height="138"/></clipPath><clipPath id="clip66"><rect x="104" y="815" width="2988" height="1102"/></clipPath><clipPath id="clip67"><rect x="-962" y="1106" width="2922" height="138"/></clipPath><clipPath id="clip68"><rect x="104" y="815" width="2988" height="1102"/></clipPath><clipPath id="clip69"><rect x="-962" y="1106" width="2922" height="138"/></clipPath><clipPath id="clip70"><rect x="104" y="815" width="2988" height="1102"/></clipPath><clipPath id="clip71"><rect x="-733" y="969" width="2521" height="138"/></clipPath><clipPath id="clip72"><rect x="104" y="815" width="2988" height="1102"/></clipPath><clipPath id="clip73"><rect x="-733" y="969" width="2521" height="138"/></clipPath><clipPath id="clip74"><rect x="104" y="815" width="2988" height="1102"/></clipPath><clipPath id="clip75"><rect x="104" y="815" width="2988" height="1102"/></clipPath><clipPath id="clip76"><rect x="104" y="815" width="2988" height="1102"/></clipPath><clipPath id="clip77"><rect x="104" y="815" width="2988" height="1102"/></clipPath><clipPath id="clip78"><rect x="104" y="815" width="2988" height="1102"/></clipPath><clipPath id="clip79"><rect x="104" y="815" width="2988" height="1102"/></clipPath><clipPath id="clip80"><rect x="104" y="815" width="2988" height="1102"/></clipPath><clipPath id="clip81"><rect x="104" y="815" width="2988" height="1102"/></clipPath><clipPath id="clip82"><rect x="104" y="815" width="2988" height="1102"/></clipPath><clipPath id="clip83"><rect x="104" y="815" width="2988" height="1102"/></clipPath><clipPath id="clip84"><rect x="104" y="815" width="2988" height="1102"/></clipPath><clipPath id="clip85"><rect x="104" y="815" width="2988" height="1102"/></clipPath><clipPath id="clip86"><rect x="104" y="815" width="2988" height="1102"/></clipPath><clipPath id="clip87"><rect x="104" y="815" width="2988" height="1102"/></clipPath><clipPath id="clip88"><rect x="104" y="815" width="2988" height="1102"/></clipPath><clipPath id="clip89"><rect x="104" y="815" width="2988" height="1102"/></clipPath><clipPath id="clip90"><rect x="104" y="815" width="2988" height="1102"/></clipPath><clipPath id="clip91"><rect x="104" y="815" width="2988" height="1102"/></clipPath><clipPath id="clip92"><rect x="104" y="815" width="2989" height="1103"/></clipPath><clipPath id="clip93"><rect x="-5139" y="822" width="12372" height="349"/></clipPath><clipPath id="clip94"><rect x="104" y="815" width="2989" height="1103"/></clipPath><clipPath id="clip95"><rect x="-5139" y="822" width="12372" height="349"/></clipPath><clipPath id="clip96"><rect x="104" y="815" width="2989" height="1103"/></clipPath><clipPath id="clip97"><rect x="-5139" y="822" width="12372" height="349"/></clipPath><clipPath id="clip98"><rect x="104" y="815" width="2989" height="1103"/></clipPath><clipPath id="clip99"><rect x="104" y="815" width="2989" height="1103"/></clipPath></defs><g clip-path="url(#clip0)" transform="translate(-103 -813)"><rect x="105" y="815" width="2988" height="1102" fill="#FFFFFF"/><g clip-path="url(#clip1)"><path d="M1194.54 973.5 1194.54 1794.5M1642.55 973.5 1642.55 1794.5M2091.57 973.5 2091.57 1794.5M2540.5 973.5 2540.5 1794.5" stroke="#D9D9D9" stroke-width="4.58333" stroke-linejoin="round" stroke-miterlimit="10" fill="none"/></g><g clip-path="url(#clip2)"><path d="M2177.5 1086.5 745.5 1086.5 745.5 997.5 2177.5 997.5Z" stroke="#000000" stroke-width="4.58333" stroke-linejoin="round" stroke-miterlimit="10" fill="#FFFFFF"/></g><g clip-path="url(#clip3)"><path d="M2169.57 1770.56 745.5 1770.56 745.5 1681.56 2169.57 1681.56ZM2451.58 1633.55 745.5 1633.55 745.5 1544.55 2451.58 1544.55ZM2069.57 1497.55 745.5 1497.55 745.5 1407.55 2069.57 1407.55ZM2285.58 1360.54 745.5 1360.54 745.5 1270.54 2285.58 1270.54ZM1523.55 1223.54 745.5 1223.54 745.5 1133.54 1523.55 1133.54Z" stroke="#000000" stroke-width="4.58333" stroke-linejoin="round" stroke-miterlimit="10" fill="#FFFFFF"/></g><g clip-path="url(#clip4)"><path d="M2435.5 1086.5 2177.5 1086.5 2177.5 997.5 2435.5 997.5Z" stroke="#000000" stroke-width="4.58333" stroke-linejoin="round" stroke-miterlimit="10" fill="#F1F8FD"/></g><g clip-path="url(#clip5)"><path d="M2231.57 1770.56 2169.57 1770.56 2169.57 1681.56 2231.57 1681.56ZM2512.58 1633.55 2451.58 1633.55 2451.58 1544.55 2512.58 1544.55ZM2276.57 1497.55 2069.57 1497.55 2069.57 1407.55 2276.57 1407.55ZM2463.58 1360.54 2285.58 1360.54 2285.58 1270.54 2463.58 1270.54ZM2487.58 1223.54 1523.55 1223.54 1523.55 1133.54 2487.58 1133.54Z" stroke="#000000" stroke-width="4.58333" stroke-linejoin="round" stroke-miterlimit="10" fill="#F1F8FD"/></g><g clip-path="url(#clip6)"><path d="M2522.58 1633.55 2512.58 1633.55 2512.58 1544.55 2522.58 1544.55ZM2349.58 1497.55 2276.57 1497.55 2276.57 1407.55 2349.58 1407.55ZM2481.58 1360.54 2463.58 1360.54 2463.58 1270.54 2481.58 1270.54ZM2494.58 1223.54 2487.58 1223.54 2487.58 1133.54 2494.58 1133.54ZM2462.58 1086.54 2435.58 1086.54 2435.58 997.533 2462.58 997.533Z" stroke="#000000" stroke-width="4.58333" stroke-linejoin="round" stroke-miterlimit="10" fill="#C2DDF6"/></g><g clip-path="url(#clip7)"><path d="M2540.58 1770.56 2231.57 1770.56 2231.57 1681.56 2540.58 1681.56ZM2540.58 1633.55 2522.58 1633.55 2522.58 1544.55 2540.58 1544.55ZM2540.58 1497.55 2349.58 1497.55 2349.58 1407.55 2540.58 1407.55ZM2540.58 1360.54 2481.58 1360.54 2481.58 1270.54 2540.58 1270.54ZM2540.58 1223.54 2494.58 1223.54 2494.58 1133.54 2540.58 1133.54ZM2540.58 1086.54 2462.58 1086.54 2462.58 997.533 2540.58 997.533Z" stroke="#000000" stroke-width="4.58333" stroke-linejoin="round" stroke-miterlimit="10" fill="#9ECBF0"/></g><g clip-path="url(#clip8)"><path d="M0 0 0.000360892 821" stroke="#D9D9D9" stroke-width="3.4375" stroke-linejoin="round" stroke-miterlimit="10" fill="none" fill-rule="evenodd" transform="matrix(1 0 0 -1 745.5 1794.5)"/></g><g clip-path="url(#clip9)"><text fill="#404040" font-family="Yu Gothic,Yu Gothic_MSFontService,sans-serif" font-weight="700" font-size="55" transform="matrix(1 0 0 1 1425.7 1745)">23</text></g><g clip-path="url(#clip10)"><text fill="#404040" font-family="Yu Gothic,Yu Gothic_MSFontService,sans-serif" font-weight="700" font-size="55" transform="matrix(1 0 0 1 1550.94 1608)">667</text></g><g clip-path="url(#clip11)"><text fill="#404040" font-family="Yu Gothic,Yu Gothic_MSFontService,sans-serif" font-weight="700" font-size="55" transform="matrix(1 0 0 1 1360.05 1471)">326</text></g><g clip-path="url(#clip12)"><text fill="#404040" font-family="Yu Gothic,Yu Gothic_MSFontService,sans-serif" font-weight="700" font-size="55" transform="matrix(1 0 0 1 1468.28 1335)">260</text></g><g clip-path="url(#clip13)"><text fill="#404040" font-family="Yu Gothic,Yu Gothic_MSFontService,sans-serif" font-weight="700" font-size="55" transform="matrix(1 0 0 1 1086.89 1198)">117</text></g><g clip-path="url(#clip14)"><text fill="#404040" font-family="Yu Gothic,Yu Gothic_MSFontService,sans-serif" font-weight="700" font-size="55" transform="matrix(1 0 0 1 1398.4 1061)">1393</text></g><g clip-path="url(#clip15)"><text fill="#404040" font-family="Yu Gothic,Yu Gothic_MSFontService,sans-serif" font-weight="700" font-size="55" transform="matrix(1 0 0 1 2184.56 1745)">1</text></g><g clip-path="url(#clip16)"><text fill="#404040" font-family="Yu Gothic,Yu Gothic_MSFontService,sans-serif" font-weight="700" font-size="55" transform="matrix(1 0 0 1 2450.54 1608)">24</text></g><g clip-path="url(#clip17)"><text fill="#404040" font-family="Yu Gothic,Yu Gothic_MSFontService,sans-serif" font-weight="700" font-size="55" transform="matrix(1 0 0 1 2141.68 1471)">51</text></g><g clip-path="url(#clip18)"><text fill="#404040" font-family="Yu Gothic,Yu Gothic_MSFontService,sans-serif" font-weight="700" font-size="55" transform="matrix(1 0 0 1 2343.43 1335)">30</text></g><g clip-path="url(#clip19)"><text fill="#404040" font-family="Yu Gothic,Yu Gothic_MSFontService,sans-serif" font-weight="700" font-size="55" transform="matrix(1 0 0 1 1958.19 1198)">145</text></g><g clip-path="url(#clip20)"><text fill="#404040" font-family="Yu Gothic,Yu Gothic_MSFontService,sans-serif" font-weight="700" font-size="55" transform="matrix(1 0 0 1 2259.62 1061)">251</text></g><g clip-path="url(#clip21)"><text fill="#404040" font-family="Yu Gothic,Yu Gothic_MSFontService,sans-serif" font-weight="700" font-size="55" transform="matrix(1 0 0 1 2215.52 1681)">0</text></g><g clip-path="url(#clip22)"><text fill="#404040" font-family="Yu Gothic,Yu Gothic_MSFontService,sans-serif" font-weight="700" font-size="55" transform="matrix(1 0 0 1 2502.12 1543)">4</text></g><g clip-path="url(#clip23)"><text fill="#404040" font-family="Yu Gothic,Yu Gothic_MSFontService,sans-serif" font-weight="700" font-size="55" transform="matrix(1 0 0 1 2281.85 1471)">18</text></g><g clip-path="url(#clip24)"><text fill="#404040" font-family="Yu Gothic,Yu Gothic_MSFontService,sans-serif" font-weight="700" font-size="55" transform="matrix(1 0 0 1 2456.98 1270)">3</text></g><g clip-path="url(#clip25)"><text fill="#404040" font-family="Yu Gothic,Yu Gothic_MSFontService,sans-serif" font-weight="700" font-size="55" transform="matrix(1 0 0 1 2475.26 1133)">1</text></g><g clip-path="url(#clip26)"><text fill="#404040" font-family="Yu Gothic,Yu Gothic_MSFontService,sans-serif" font-weight="700" font-size="55" transform="matrix(1 0 0 1 2417.84 994)">26</text></g><g clip-path="url(#clip27)"><text fill="#404040" font-family="Yu Gothic,Yu Gothic_MSFontService,sans-serif" font-weight="700" font-size="55" transform="matrix(1 0 0 1 2370.33 1745)">5</text></g><g clip-path="url(#clip28)"><text fill="#404040" font-family="Yu Gothic,Yu Gothic_MSFontService,sans-serif" font-weight="700" font-size="55" transform="matrix(1 0 0 1 2552.84 1608)">7</text></g><g clip-path="url(#clip29)"><text fill="#404040" font-family="Yu Gothic,Yu Gothic_MSFontService,sans-serif" font-weight="700" font-size="55" transform="matrix(1 0 0 1 2413.9 1471)">47</text></g><g clip-path="url(#clip30)"><text fill="#404040" font-family="Yu Gothic,Yu Gothic_MSFontService,sans-serif" font-weight="700" font-size="55" transform="matrix(1 0 0 1 2479.74 1335)">10</text></g><g clip-path="url(#clip31)"><text fill="#404040" font-family="Yu Gothic,Yu Gothic_MSFontService,sans-serif" font-weight="700" font-size="55" transform="matrix(1 0 0 1 2501.86 1198)">7</text></g><g clip-path="url(#clip32)"><text fill="#404040" font-family="Yu Gothic,Yu Gothic_MSFontService,sans-serif" font-weight="700" font-size="55" transform="matrix(1 0 0 1 2470.29 1061)">76</text></g><g clip-path="url(#clip33)"><text fill="#595959" font-family="Yu Gothic,Yu Gothic_MSFontService,sans-serif" font-weight="500" font-size="60" transform="matrix(1 0 0 1 704.605 1893)">0%</text></g><g clip-path="url(#clip34)"><text fill="#595959" font-family="Yu Gothic,Yu Gothic_MSFontService,sans-serif" font-weight="500" font-size="60" transform="matrix(1 0 0 1 1137.02 1893)">25%</text></g><g clip-path="url(#clip35)"><text fill="#595959" font-family="Yu Gothic,Yu Gothic_MSFontService,sans-serif" font-weight="500" font-size="60" transform="matrix(1 0 0 1 1585.98 1893)">50%</text></g><g clip-path="url(#clip36)"><text fill="#595959" font-family="Yu Gothic,Yu Gothic_MSFontService,sans-serif" font-weight="500" font-size="60" transform="matrix(1 0 0 1 2034.93 1893)">75%</text></g><g clip-path="url(#clip37)"><text fill="#595959" font-family="Yu Gothic,Yu Gothic_MSFontService,sans-serif" font-weight="500" font-size="60" transform="matrix(1 0 0 1 2467.35 1893)">100%</text></g><g clip-path="url(#clip38)"><g clip-path="url(#clip39)"><text fill="#595959" font-family="Yu Gothic,Yu Gothic_MSFontService,sans-serif" font-weight="500" font-size="57" transform="matrix(1 0 0 1 354.121 1742)">その他</text></g></g><g clip-path="url(#clip40)"><g clip-path="url(#clip41)"><text fill="#595959" font-family="Yu Gothic,Yu Gothic_MSFontService,sans-serif" font-weight="500" font-size="57" transform="matrix(1 0 0 1 525.996 1742)">(n=29)</text></g></g><g clip-path="url(#clip42)"><g clip-path="url(#clip43)"><text fill="#595959" font-family="Yu Gothic,Yu Gothic_MSFontService,sans-serif" font-weight="500" font-size="57" transform="matrix(1 0 0 1 322.313 1605)">大学院</text></g></g><g clip-path="url(#clip44)"><g clip-path="url(#clip45)"><text fill="#595959" font-family="Yu Gothic,Yu Gothic_MSFontService,sans-serif" font-weight="500" font-size="57" transform="matrix(1 0 0 1 494.188 1605)">(n=702)</text></g></g><g clip-path="url(#clip46)"><g clip-path="url(#clip47)"><text fill="#595959" font-family="Yu Gothic,Yu Gothic_MSFontService,sans-serif" font-weight="500" font-size="57" transform="matrix(1 0 0 1 175.922 1468)">学部</text></g></g><g clip-path="url(#clip48)"><g clip-path="url(#clip49)"><text fill="#595959" font-family="Yu Gothic,Yu Gothic_MSFontService,sans-serif" font-weight="500" font-size="57" transform="matrix(1 0 0 1 290.505 1468)">3</text></g></g><g clip-path="url(#clip50)"><g clip-path="url(#clip51)"><text fill="#595959" font-family="Yu Gothic,Yu Gothic_MSFontService,sans-serif" font-weight="500" font-size="57" transform="matrix(1 0 0 1 322.313 1468)">年以上</text></g></g><g clip-path="url(#clip52)"><g clip-path="url(#clip53)"><text fill="#595959" font-family="Yu Gothic,Yu Gothic_MSFontService,sans-serif" font-weight="500" font-size="57" transform="matrix(1 0 0 1 494.188 1468)">(n=442)</text></g></g><g clip-path="url(#clip54)"><g clip-path="url(#clip55)"><text fill="#595959" font-family="Yu Gothic,Yu Gothic_MSFontService,sans-serif" font-weight="500" font-size="57" transform="matrix(1 0 0 1 290.505 1332)">学部</text></g></g><g clip-path="url(#clip56)"><g clip-path="url(#clip57)"><text fill="#595959" font-family="Yu Gothic,Yu Gothic_MSFontService,sans-serif" font-weight="500" font-size="57" transform="matrix(1 0 0 1 405.088 1332)">2</text></g></g><g clip-path="url(#clip58)"><g clip-path="url(#clip59)"><text fill="#595959" font-family="Yu Gothic,Yu Gothic_MSFontService,sans-serif" font-weight="500" font-size="57" transform="matrix(1 0 0 1 436.896 1332)">年</text></g></g><g clip-path="url(#clip60)"><g clip-path="url(#clip61)"><text fill="#595959" font-family="Yu Gothic,Yu Gothic_MSFontService,sans-serif" font-weight="500" font-size="57" transform="matrix(1 0 0 1 494.188 1332)">(n=303)</text></g></g><g clip-path="url(#clip62)"><g clip-path="url(#clip63)"><text fill="#595959" font-family="Yu Gothic,Yu Gothic_MSFontService,sans-serif" font-weight="500" font-size="57" transform="matrix(1 0 0 1 290.505 1195)">学部</text></g></g><g clip-path="url(#clip64)"><g clip-path="url(#clip65)"><text fill="#595959" font-family="Yu Gothic,Yu Gothic_MSFontService,sans-serif" font-weight="500" font-size="57" transform="matrix(1 0 0 1 405.088 1195)">1</text></g></g><g clip-path="url(#clip66)"><g clip-path="url(#clip67)"><text fill="#595959" font-family="Yu Gothic,Yu Gothic_MSFontService,sans-serif" font-weight="500" font-size="57" transform="matrix(1 0 0 1 436.896 1195)">年</text></g></g><g clip-path="url(#clip68)"><g clip-path="url(#clip69)"><text fill="#595959" font-family="Yu Gothic,Yu Gothic_MSFontService,sans-serif" font-weight="500" font-size="57" transform="matrix(1 0 0 1 494.188 1195)">(n=270)</text></g></g><g clip-path="url(#clip70)"><g clip-path="url(#clip71)"><text fill="#595959" font-family="Yu Gothic,Yu Gothic_MSFontService,sans-serif" font-weight="500" font-size="57" transform="matrix(1 0 0 1 347.797 1058)">全体</text></g></g><g clip-path="url(#clip72)"><g clip-path="url(#clip73)"><text fill="#595959" font-family="Yu Gothic,Yu Gothic_MSFontService,sans-serif" font-weight="500" font-size="57" transform="matrix(1 0 0 1 462.38 1058)">(n=1746)</text></g></g><g clip-path="url(#clip74)"><rect x="2699.5" y="1231.5" width="32" height="32" stroke="#000000" stroke-width="4.58333" stroke-linejoin="round" stroke-miterlimit="10" fill="#FFFFFF"/></g><g clip-path="url(#clip75)"><text fill="#595959" font-family="Yu Gothic,Yu Gothic_MSFontService,sans-serif" font-weight="500" font-size="55" transform="matrix(1 0 0 1 2745.29 1262)">1</text></g><g clip-path="url(#clip76)"><text fill="#595959" font-family="Yu Gothic,Yu Gothic_MSFontService,sans-serif" font-weight="500" font-size="55" transform="matrix(1 0 0 1 2775.81 1262)">未満</text></g><g clip-path="url(#clip77)"><rect x="2699.5" y="1329.5" width="32" height="32" stroke="#000000" stroke-width="4.58333" stroke-linejoin="round" stroke-miterlimit="10" fill="#F1F8FD"/></g><g clip-path="url(#clip78)"><text fill="#595959" font-family="Yu Gothic,Yu Gothic_MSFontService,sans-serif" font-weight="500" font-size="55" transform="matrix(1 0 0 1 2745.29 1360)">1</text></g><g clip-path="url(#clip79)"><text fill="#595959" font-family="Yu Gothic,Yu Gothic_MSFontService,sans-serif" font-weight="500" font-size="55" transform="matrix(1 0 0 1 2775.81 1360)">以上</text></g><g clip-path="url(#clip80)"><text fill="#595959" font-family="Yu Gothic,Yu Gothic_MSFontService,sans-serif" font-weight="500" font-size="55" transform="matrix(1 0 0 1 2885.81 1360)">-</text></g><g clip-path="url(#clip81)"><text fill="#595959" font-family="Yu Gothic,Yu Gothic_MSFontService,sans-serif" font-weight="500" font-size="55" transform="matrix(1 0 0 1 2909.37 1360)">3</text></g><g clip-path="url(#clip82)"><text fill="#595959" font-family="Yu Gothic,Yu Gothic_MSFontService,sans-serif" font-weight="500" font-size="55" transform="matrix(1 0 0 1 2939.89 1360)">未満</text></g><g clip-path="url(#clip83)"><rect x="2699.5" y="1426.5" width="32" height="32" stroke="#000000" stroke-width="4.58333" stroke-linejoin="round" stroke-miterlimit="10" fill="#C2DDF6"/></g><g clip-path="url(#clip84)"><text fill="#595959" font-family="Yu Gothic,Yu Gothic_MSFontService,sans-serif" font-weight="500" font-size="55" transform="matrix(1 0 0 1 2745.29 1458)">3</text></g><g clip-path="url(#clip85)"><text fill="#595959" font-family="Yu Gothic,Yu Gothic_MSFontService,sans-serif" font-weight="500" font-size="55" transform="matrix(1 0 0 1 2775.81 1458)">以上</text></g><g clip-path="url(#clip86)"><text fill="#595959" font-family="Yu Gothic,Yu Gothic_MSFontService,sans-serif" font-weight="500" font-size="55" transform="matrix(1 0 0 1 2885.81 1458)">-</text></g><g clip-path="url(#clip87)"><text fill="#595959" font-family="Yu Gothic,Yu Gothic_MSFontService,sans-serif" font-weight="500" font-size="55" transform="matrix(1 0 0 1 2909.37 1458)">6</text></g><g clip-path="url(#clip88)"><text fill="#595959" font-family="Yu Gothic,Yu Gothic_MSFontService,sans-serif" font-weight="500" font-size="55" transform="matrix(1 0 0 1 2939.89 1458)">未満</text></g><g clip-path="url(#clip89)"><rect x="2699.5" y="1524.5" width="32" height="32" stroke="#000000" stroke-width="4.58333" stroke-linejoin="round" stroke-miterlimit="10" fill="#9ECBF0"/></g><g clip-path="url(#clip90)"><text fill="#595959" font-family="Yu Gothic,Yu Gothic_MSFontService,sans-serif" font-weight="500" font-size="55" transform="matrix(1 0 0 1 2745.29 1555)">6</text></g><g clip-path="url(#clip91)"><text fill="#595959" font-family="Yu Gothic,Yu Gothic_MSFontService,sans-serif" font-weight="500" font-size="55" transform="matrix(1 0 0 1 2775.81 1555)">以上</text></g><rect x="105.5" y="815.5" width="2988" height="1102" stroke="#000000" stroke-width="4.58333" stroke-linejoin="round" stroke-miterlimit="10" fill="none"/><g clip-path="url(#clip92)"><g clip-path="url(#clip93)"><text font-family="Yu Gothic,Yu Gothic_MSFontService,sans-serif" font-weight="500" font-size="73" transform="matrix(1 0 0 1 163.582 926)">【授業形式】</text></g></g><g clip-path="url(#clip94)"><g clip-path="url(#clip95)"><text font-family="Yu Gothic,Yu Gothic_MSFontService,sans-serif" font-weight="500" font-size="73" transform="matrix(1 0 0 1 603.582 926)">1. </text></g></g><g clip-path="url(#clip96)"><g clip-path="url(#clip97)"><text font-family="Yu Gothic,Yu Gothic_MSFontService,sans-serif" font-weight="500" font-size="73" transform="matrix(1 0 0 1 684.203 926)">対面方式（教員も学生も教室にいる）</text></g></g><g clip-path="url(#clip98)"><text font-family="Yu Gothic,Yu Gothic_MSFontService,sans-serif" font-weight="400" font-size="55" transform="matrix(1 0 0 1 2721.69 1125)">平均コマ数</text></g><g clip-path="url(#clip99)"><path d="M2722.08 1131.46 2790.83 1131.46 2859.58 1131.46 2928.33 1131.46 2997.08 1131.46 2997.08 1134.46 2928.33 1134.46 2859.58 1134.46 2790.83 1134.46 2722.08 1134.46Z" fill-rule="evenodd"/></g></g></svg>