<svg width="2991" height="1268" xmlns="http://www.w3.org/2000/svg" xmlns:xlink="http://www.w3.org/1999/xlink" overflow="hidden"><defs><clipPath id="clip0"><rect x="2863" y="188" width="2991" height="1268"/></clipPath><clipPath id="clip1"><rect x="2865" y="189" width="2985" height="1264"/></clipPath><clipPath id="clip2"><rect x="3505" y="471" width="1797" height="845"/></clipPath><clipPath id="clip3"><rect x="3505" y="471" width="1797" height="845"/></clipPath><clipPath id="clip4"><rect x="3505" y="471" width="1797" height="845"/></clipPath><clipPath id="clip5"><rect x="3505" y="471" width="1797" height="845"/></clipPath><clipPath id="clip6"><rect x="3505" y="471" width="1797" height="845"/></clipPath><clipPath id="clip7"><rect x="2865" y="189" width="2985" height="1264"/></clipPath><clipPath id="clip8"><rect x="2865" y="189" width="2985" height="1264"/></clipPath><clipPath id="clip9"><rect x="2865" y="189" width="2985" height="1264"/></clipPath><clipPath id="clip10"><rect x="2865" y="189" width="2985" height="1264"/></clipPath><clipPath id="clip11"><rect x="2865" y="189" width="2985" height="1264"/></clipPath><clipPath id="clip12"><rect x="2865" y="189" width="2985" height="1264"/></clipPath><clipPath id="clip13"><rect x="2865" y="189" width="2985" height="1264"/></clipPath><clipPath id="clip14"><rect x="2865" y="189" width="2985" height="1264"/></clipPath><clipPath id="clip15"><rect x="2865" y="189" width="2985" height="1264"/></clipPath><clipPath id="clip16"><rect x="2865" y="189" width="2985" height="1264"/></clipPath><clipPath id="clip17"><rect x="2865" y="189" width="2985" height="1264"/></clipPath><clipPath id="clip18"><rect x="2865" y="189" width="2985" height="1264"/></clipPath><clipPath id="clip19"><rect x="2865" y="189" width="2985" height="1264"/></clipPath><clipPath id="clip20"><rect x="2865" y="189" width="2985" height="1264"/></clipPath><clipPath id="clip21"><rect x="2865" y="189" width="2985" height="1264"/></clipPath><clipPath id="clip22"><rect x="2865" y="189" width="2985" height="1264"/></clipPath><clipPath id="clip23"><rect x="2865" y="189" width="2985" height="1264"/></clipPath><clipPath id="clip24"><rect x="2865" y="189" width="2985" height="1264"/></clipPath><clipPath id="clip25"><rect x="2865" y="189" width="2985" height="1264"/></clipPath><clipPath id="clip26"><rect x="2865" y="189" width="2985" height="1264"/></clipPath><clipPath id="clip27"><rect x="2865" y="189" width="2985" height="1264"/></clipPath><clipPath id="clip28"><rect x="2865" y="189" width="2985" height="1264"/></clipPath><clipPath id="clip29"><rect x="2865" y="189" width="2985" height="1264"/></clipPath><clipPath id="clip30"><rect x="2865" y="189" width="2985" height="1264"/></clipPath><clipPath id="clip31"><rect x="2865" y="189" width="2985" height="1264"/></clipPath><clipPath id="clip32"><rect x="2053" y="1168" width="2476" height="142"/></clipPath><clipPath id="clip33"><rect x="2865" y="189" width="2985" height="1264"/></clipPath><clipPath id="clip34"><rect x="2053" y="1168" width="2476" height="142"/></clipPath><clipPath id="clip35"><rect x="2865" y="189" width="2985" height="1264"/></clipPath><clipPath id="clip36"><rect x="1926" y="1028" width="2699" height="141"/></clipPath><clipPath id="clip37"><rect x="2865" y="189" width="2985" height="1264"/></clipPath><clipPath id="clip38"><rect x="1926" y="1028" width="2699" height="141"/></clipPath><clipPath id="clip39"><rect x="2865" y="189" width="2985" height="1264"/></clipPath><clipPath id="clip40"><rect x="1340" y="888" width="3724" height="141"/></clipPath><clipPath id="clip41"><rect x="2865" y="189" width="2985" height="1264"/></clipPath><clipPath id="clip42"><rect x="1340" y="888" width="3724" height="141"/></clipPath><clipPath id="clip43"><rect x="2865" y="189" width="2985" height="1264"/></clipPath><clipPath id="clip44"><rect x="1340" y="888" width="3724" height="141"/></clipPath><clipPath id="clip45"><rect x="2865" y="189" width="2985" height="1264"/></clipPath><clipPath id="clip46"><rect x="1340" y="888" width="3724" height="141"/></clipPath><clipPath id="clip47"><rect x="2865" y="189" width="2985" height="1264"/></clipPath><clipPath id="clip48"><rect x="1798" y="747" width="2922" height="142"/></clipPath><clipPath id="clip49"><rect x="2865" y="189" width="2985" height="1264"/></clipPath><clipPath id="clip50"><rect x="1798" y="747" width="2922" height="142"/></clipPath><clipPath id="clip51"><rect x="2865" y="189" width="2985" height="1264"/></clipPath><clipPath id="clip52"><rect x="1798" y="747" width="2922" height="142"/></clipPath><clipPath id="clip53"><rect x="2865" y="189" width="2985" height="1264"/></clipPath><clipPath id="clip54"><rect x="1798" y="747" width="2922" height="142"/></clipPath><clipPath id="clip55"><rect x="2865" y="189" width="2985" height="1264"/></clipPath><clipPath id="clip56"><rect x="1798" y="607" width="2922" height="141"/></clipPath><clipPath id="clip57"><rect x="2865" y="189" width="2985" height="1264"/></clipPath><clipPath id="clip58"><rect x="1798" y="607" width="2922" height="141"/></clipPath><clipPath id="clip59"><rect x="2865" y="189" width="2985" height="1264"/></clipPath><clipPath id="clip60"><rect x="1798" y="607" width="2922" height="141"/></clipPath><clipPath id="clip61"><rect x="2865" y="189" width="2985" height="1264"/></clipPath><clipPath id="clip62"><rect x="1798" y="607" width="2922" height="141"/></clipPath><clipPath id="clip63"><rect x="2865" y="189" width="2985" height="1264"/></clipPath><clipPath id="clip64"><rect x="2028" y="467" width="2520" height="141"/></clipPath><clipPath id="clip65"><rect x="2865" y="189" width="2985" height="1264"/></clipPath><clipPath id="clip66"><rect x="2028" y="467" width="2520" height="141"/></clipPath><clipPath id="clip67"><rect x="2865" y="189" width="2985" height="1264"/></clipPath><clipPath id="clip68"><rect x="2865" y="189" width="2985" height="1264"/></clipPath><clipPath id="clip69"><rect x="2865" y="189" width="2985" height="1264"/></clipPath><clipPath id="clip70"><rect x="2865" y="189" width="2985" height="1264"/></clipPath><clipPath id="clip71"><rect x="2865" y="189" width="2985" height="1264"/></clipPath><clipPath id="clip72"><rect x="2865" y="189" width="2985" height="1264"/></clipPath><clipPath id="clip73"><rect x="2865" y="189" width="2985" height="1264"/></clipPath><clipPath id="clip74"><rect x="2865" y="189" width="2985" height="1264"/></clipPath><clipPath id="clip75"><rect x="2865" y="189" width="2985" height="1264"/></clipPath><clipPath id="clip76"><rect x="2865" y="189" width="2985" height="1264"/></clipPath><clipPath id="clip77"><rect x="2865" y="189" width="2985" height="1264"/></clipPath><clipPath id="clip78"><rect x="2865" y="189" width="2985" height="1264"/></clipPath><clipPath id="clip79"><rect x="2865" y="189" width="2986" height="1265"/></clipPath><clipPath id="clip80"><rect x="-5615" y="198" width="19925" height="399"/></clipPath><clipPath id="clip81"><rect x="2865" y="189" width="2986" height="1265"/></clipPath><clipPath id="clip82"><rect x="-5615" y="198" width="19925" height="399"/></clipPath><clipPath id="clip83"><rect x="2865" y="189" width="2986" height="1265"/></clipPath><clipPath id="clip84"><rect x="-5615" y="198" width="19925" height="399"/></clipPath><clipPath id="clip85"><rect x="2865" y="189" width="2986" height="1265"/></clipPath><clipPath id="clip86"><rect x="2865" y="189" width="2986" height="1265"/></clipPath><clipPath id="clip87"><rect x="2865" y="189" width="2986" height="1265"/></clipPath></defs><g clip-path="url(#clip0)" transform="translate(-2863 -188)"><rect x="2865" y="190" width="2986" height="1263" fill="#FFFFFF"/><g clip-path="url(#clip1)"><path d="M3953.63 471.5 3953.63 1313.5M4402.64 471.5 4402.64 1313.5M4850.66 471.5 4850.66 1313.5M5299.5 471.5 5299.5 1313.5" stroke="#D9D9D9" stroke-width="4.58333" stroke-linejoin="round" stroke-miterlimit="10" fill="none"/></g><g clip-path="url(#clip2)"><path d="M5278.5 587.5 3505.5 587.5 3505.5 495.5 5278.5 495.5Z" stroke="#000000" stroke-width="4.58333" stroke-linejoin="round" stroke-miterlimit="10" fill="#FFFFFF"/></g><g clip-path="url(#clip3)"><path d="M5030.67 1288.54 3505.5 1288.54 3505.5 1197.54 5030.67 1197.54ZM5274.67 1148.54 3505.5 1148.54 3505.5 1056.53 5274.67 1056.53ZM5299.67 1008.53 3505.5 1008.53 3505.5 916.53 5299.67 916.53ZM5284.67 867.529 3505.5 867.529 3505.5 776.526 5284.67 776.526ZM5267.67 727.524 3505.5 727.524 3505.5 635.521 5267.67 635.521Z" stroke="#000000" stroke-width="4.58333" stroke-linejoin="round" stroke-miterlimit="10" fill="#FFFFFF"/></g><g clip-path="url(#clip4)"><path d="M5289.5 587.5 5278.5 587.5 5278.5 495.5 5289.5 495.5Z" stroke="#000000" stroke-width="4.58333" stroke-linejoin="round" stroke-miterlimit="10" fill="#F1F8FD"/></g><g clip-path="url(#clip5)"><path d="M5209.67 1288.54 5030.67 1288.54 5030.67 1197.54 5209.67 1197.54ZM5286.67 1148.54 5274.67 1148.54 5274.67 1056.53 5286.67 1056.53ZM5292.67 867.529 5284.67 867.529 5284.67 776.526 5292.67 776.526ZM5283.67 727.524 5267.67 727.524 5267.67 635.521 5283.67 635.521Z" stroke="#000000" stroke-width="4.58333" stroke-linejoin="round" stroke-miterlimit="10" fill="#F1F8FD"/></g><g clip-path="url(#clip6)"><path d="M5299.67 1288.54 5209.67 1288.54 5209.67 1197.54 5299.67 1197.54ZM5299.67 1148.54 5286.67 1148.54 5286.67 1056.53 5299.67 1056.53ZM5299.67 867.529 5292.67 867.529 5292.67 776.526 5299.67 776.526ZM5299.67 727.524 5283.67 727.524 5283.67 635.521 5299.67 635.521ZM5299.67 587.519 5289.67 587.519 5289.67 495.516 5299.67 495.516Z" stroke="#000000" stroke-width="4.58333" stroke-linejoin="round" stroke-miterlimit="10" fill="#C2DDF6"/></g><g clip-path="url(#clip7)"><path d="M0 0 0.000360892 842" stroke="#D9D9D9" stroke-width="3.4375" stroke-linejoin="round" stroke-miterlimit="10" fill="none" fill-rule="evenodd" transform="matrix(1 0 0 -1 3505.5 1313.5)"/></g><g clip-path="url(#clip8)"><text fill="#404040" font-family="Yu Gothic,Yu Gothic_MSFontService,sans-serif" font-weight="700" font-size="55" transform="matrix(1 0 0 1 4236.3 1262)">17</text></g><g clip-path="url(#clip9)"><text fill="#404040" font-family="Yu Gothic,Yu Gothic_MSFontService,sans-serif" font-weight="700" font-size="55" transform="matrix(1 0 0 1 4342.53 1122)">563</text></g><g clip-path="url(#clip10)"><text fill="#404040" font-family="Yu Gothic,Yu Gothic_MSFontService,sans-serif" font-weight="700" font-size="55" transform="matrix(1 0 0 1 4355.1 981)">368</text></g><g clip-path="url(#clip11)"><text fill="#404040" font-family="Yu Gothic,Yu Gothic_MSFontService,sans-serif" font-weight="700" font-size="55" transform="matrix(1 0 0 1 4347.86 841)">246</text></g><g clip-path="url(#clip12)"><text fill="#404040" font-family="Yu Gothic,Yu Gothic_MSFontService,sans-serif" font-weight="700" font-size="55" transform="matrix(1 0 0 1 4339.22 701)">222</text></g><g clip-path="url(#clip13)"><text fill="#404040" font-family="Yu Gothic,Yu Gothic_MSFontService,sans-serif" font-weight="700" font-size="55" transform="matrix(1 0 0 1 4328.69 560)">1416</text></g><g clip-path="url(#clip14)"><text fill="#404040" font-family="Yu Gothic,Yu Gothic_MSFontService,sans-serif" font-weight="700" font-size="55" transform="matrix(1 0 0 1 5104.31 1262)">2</text></g><g clip-path="url(#clip15)"><text fill="#404040" font-family="Yu Gothic,Yu Gothic_MSFontService,sans-serif" font-weight="700" font-size="55" transform="matrix(1 0 0 1 5264.87 1054)">4</text></g><g clip-path="url(#clip16)"><text fill="#404040" font-family="Yu Gothic,Yu Gothic_MSFontService,sans-serif" font-weight="700" font-size="55" transform="matrix(1 0 0 1 5279.15 914)">0</text></g><g clip-path="url(#clip17)"><text fill="#404040" font-family="Yu Gothic,Yu Gothic_MSFontService,sans-serif" font-weight="700" font-size="55" transform="matrix(1 0 0 1 5249.98 773)">1</text></g><g clip-path="url(#clip18)"><text fill="#404040" font-family="Yu Gothic,Yu Gothic_MSFontService,sans-serif" font-weight="700" font-size="55" transform="matrix(1 0 0 1 5237.01 633)">2</text></g><g clip-path="url(#clip19)"><text fill="#404040" font-family="Yu Gothic,Yu Gothic_MSFontService,sans-serif" font-weight="700" font-size="55" transform="matrix(1 0 0 1 5240.6 488)">9</text></g><g clip-path="url(#clip20)"><text fill="#404040" font-family="Yu Gothic,Yu Gothic_MSFontService,sans-serif" font-weight="700" font-size="55" transform="matrix(1 0 0 1 5238.87 1262)">1</text></g><g clip-path="url(#clip21)"><text fill="#404040" font-family="Yu Gothic,Yu Gothic_MSFontService,sans-serif" font-weight="700" font-size="55" transform="matrix(1 0 0 1 5304.92 1122)">4</text></g><g clip-path="url(#clip22)"><text fill="#404040" font-family="Yu Gothic,Yu Gothic_MSFontService,sans-serif" font-weight="700" font-size="55" transform="matrix(1 0 0 1 5302.04 981)">0</text></g><g clip-path="url(#clip23)"><text fill="#404040" font-family="Yu Gothic,Yu Gothic_MSFontService,sans-serif" font-weight="700" font-size="55" transform="matrix(1 0 0 1 5303.01 841)">1</text></g><g clip-path="url(#clip24)"><text fill="#404040" font-family="Yu Gothic,Yu Gothic_MSFontService,sans-serif" font-weight="700" font-size="55" transform="matrix(1 0 0 1 5303.26 701)">2</text></g><g clip-path="url(#clip25)"><text fill="#404040" font-family="Yu Gothic,Yu Gothic_MSFontService,sans-serif" font-weight="700" font-size="55" transform="matrix(1 0 0 1 5306.19 560)">8</text></g><g clip-path="url(#clip26)"><text fill="#595959" font-family="Yu Gothic,Yu Gothic_MSFontService,sans-serif" font-weight="500" font-size="60" transform="matrix(1 0 0 1 3464.81 1412)">0%</text></g><g clip-path="url(#clip27)"><text fill="#595959" font-family="Yu Gothic,Yu Gothic_MSFontService,sans-serif" font-weight="500" font-size="60" transform="matrix(1 0 0 1 3896.82 1412)">25%</text></g><g clip-path="url(#clip28)"><text fill="#595959" font-family="Yu Gothic,Yu Gothic_MSFontService,sans-serif" font-weight="500" font-size="60" transform="matrix(1 0 0 1 4345.37 1412)">50%</text></g><g clip-path="url(#clip29)"><text fill="#595959" font-family="Yu Gothic,Yu Gothic_MSFontService,sans-serif" font-weight="500" font-size="60" transform="matrix(1 0 0 1 4793.92 1412)">75%</text></g><g clip-path="url(#clip30)"><text fill="#595959" font-family="Yu Gothic,Yu Gothic_MSFontService,sans-serif" font-weight="500" font-size="60" transform="matrix(1 0 0 1 5225.93 1412)">100%</text></g><g clip-path="url(#clip31)"><g clip-path="url(#clip32)"><text fill="#595959" font-family="Yu Gothic,Yu Gothic_MSFontService,sans-serif" font-weight="500" font-size="57" transform="matrix(1 0 0 1 3114.33 1259)">その他</text></g></g><g clip-path="url(#clip33)"><g clip-path="url(#clip34)"><text fill="#595959" font-family="Yu Gothic,Yu Gothic_MSFontService,sans-serif" font-weight="500" font-size="57" transform="matrix(1 0 0 1 3286.2 1259)">(n=20)</text></g></g><g clip-path="url(#clip35)"><g clip-path="url(#clip36)"><text fill="#595959" font-family="Yu Gothic,Yu Gothic_MSFontService,sans-serif" font-weight="500" font-size="57" transform="matrix(1 0 0 1 3082.52 1119)">大学院</text></g></g><g clip-path="url(#clip37)"><g clip-path="url(#clip38)"><text fill="#595959" font-family="Yu Gothic,Yu Gothic_MSFontService,sans-serif" font-weight="500" font-size="57" transform="matrix(1 0 0 1 3254.39 1119)">(n=571)</text></g></g><g clip-path="url(#clip39)"><g clip-path="url(#clip40)"><text fill="#595959" font-family="Yu Gothic,Yu Gothic_MSFontService,sans-serif" font-weight="500" font-size="57" transform="matrix(1 0 0 1 2936.13 978)">学部</text></g></g><g clip-path="url(#clip41)"><g clip-path="url(#clip42)"><text fill="#595959" font-family="Yu Gothic,Yu Gothic_MSFontService,sans-serif" font-weight="500" font-size="57" transform="matrix(1 0 0 1 3050.71 978)">3</text></g></g><g clip-path="url(#clip43)"><g clip-path="url(#clip44)"><text fill="#595959" font-family="Yu Gothic,Yu Gothic_MSFontService,sans-serif" font-weight="500" font-size="57" transform="matrix(1 0 0 1 3082.52 978)">年以上</text></g></g><g clip-path="url(#clip45)"><g clip-path="url(#clip46)"><text fill="#595959" font-family="Yu Gothic,Yu Gothic_MSFontService,sans-serif" font-weight="500" font-size="57" transform="matrix(1 0 0 1 3254.39 978)">(n=368)</text></g></g><g clip-path="url(#clip47)"><g clip-path="url(#clip48)"><text fill="#595959" font-family="Yu Gothic,Yu Gothic_MSFontService,sans-serif" font-weight="500" font-size="57" transform="matrix(1 0 0 1 3050.71 838)">学部</text></g></g><g clip-path="url(#clip49)"><g clip-path="url(#clip50)"><text fill="#595959" font-family="Yu Gothic,Yu Gothic_MSFontService,sans-serif" font-weight="500" font-size="57" transform="matrix(1 0 0 1 3165.29 838)">2</text></g></g><g clip-path="url(#clip51)"><g clip-path="url(#clip52)"><text fill="#595959" font-family="Yu Gothic,Yu Gothic_MSFontService,sans-serif" font-weight="500" font-size="57" transform="matrix(1 0 0 1 3197.1 838)">年</text></g></g><g clip-path="url(#clip53)"><g clip-path="url(#clip54)"><text fill="#595959" font-family="Yu Gothic,Yu Gothic_MSFontService,sans-serif" font-weight="500" font-size="57" transform="matrix(1 0 0 1 3254.39 838)">(n=248)</text></g></g><g clip-path="url(#clip55)"><g clip-path="url(#clip56)"><text fill="#595959" font-family="Yu Gothic,Yu Gothic_MSFontService,sans-serif" font-weight="500" font-size="57" transform="matrix(1 0 0 1 3050.71 698)">学部</text></g></g><g clip-path="url(#clip57)"><g clip-path="url(#clip58)"><text fill="#595959" font-family="Yu Gothic,Yu Gothic_MSFontService,sans-serif" font-weight="500" font-size="57" transform="matrix(1 0 0 1 3165.29 698)">1</text></g></g><g clip-path="url(#clip59)"><g clip-path="url(#clip60)"><text fill="#595959" font-family="Yu Gothic,Yu Gothic_MSFontService,sans-serif" font-weight="500" font-size="57" transform="matrix(1 0 0 1 3197.1 698)">年</text></g></g><g clip-path="url(#clip61)"><g clip-path="url(#clip62)"><text fill="#595959" font-family="Yu Gothic,Yu Gothic_MSFontService,sans-serif" font-weight="500" font-size="57" transform="matrix(1 0 0 1 3254.39 698)">(n=226)</text></g></g><g clip-path="url(#clip63)"><g clip-path="url(#clip64)"><text fill="#595959" font-family="Yu Gothic,Yu Gothic_MSFontService,sans-serif" font-weight="500" font-size="57" transform="matrix(1 0 0 1 3108 557)">全体</text></g></g><g clip-path="url(#clip65)"><g clip-path="url(#clip66)"><text fill="#595959" font-family="Yu Gothic,Yu Gothic_MSFontService,sans-serif" font-weight="500" font-size="57" transform="matrix(1 0 0 1 3222.59 557)">(n=1433)</text></g></g><g clip-path="url(#clip67)"><rect x="5462.5" y="759.5" width="31" height="31.0003" stroke="#000000" stroke-width="4.58333" stroke-linejoin="round" stroke-miterlimit="10" fill="#FFFFFF"/></g><g clip-path="url(#clip68)"><text fill="#595959" font-family="Yu Gothic,Yu Gothic_MSFontService,sans-serif" font-weight="500" font-size="55" transform="matrix(1 0 0 1 5508.16 790)">1</text></g><g clip-path="url(#clip69)"><text fill="#595959" font-family="Yu Gothic,Yu Gothic_MSFontService,sans-serif" font-weight="500" font-size="55" transform="matrix(1 0 0 1 5538.68 790)">未満</text></g><g clip-path="url(#clip70)"><rect x="5462.5" y="855.5" width="31" height="31.9999" stroke="#000000" stroke-width="4.58333" stroke-linejoin="round" stroke-miterlimit="10" fill="#F1F8FD"/></g><g clip-path="url(#clip71)"><text fill="#595959" font-family="Yu Gothic,Yu Gothic_MSFontService,sans-serif" font-weight="500" font-size="55" transform="matrix(1 0 0 1 5508.16 886)">1</text></g><g clip-path="url(#clip72)"><text fill="#595959" font-family="Yu Gothic,Yu Gothic_MSFontService,sans-serif" font-weight="500" font-size="55" transform="matrix(1 0 0 1 5538.68 886)">以上</text></g><g clip-path="url(#clip73)"><text fill="#595959" font-family="Yu Gothic,Yu Gothic_MSFontService,sans-serif" font-weight="500" font-size="55" transform="matrix(1 0 0 1 5648.68 886)">-</text></g><g clip-path="url(#clip74)"><text fill="#595959" font-family="Yu Gothic,Yu Gothic_MSFontService,sans-serif" font-weight="500" font-size="55" transform="matrix(1 0 0 1 5672.24 886)">3</text></g><g clip-path="url(#clip75)"><text fill="#595959" font-family="Yu Gothic,Yu Gothic_MSFontService,sans-serif" font-weight="500" font-size="55" transform="matrix(1 0 0 1 5702.77 886)">未満</text></g><g clip-path="url(#clip76)"><rect x="5462.5" y="951.5" width="31" height="31.9999" stroke="#000000" stroke-width="4.58333" stroke-linejoin="round" stroke-miterlimit="10" fill="#C2DDF6"/></g><g clip-path="url(#clip77)"><text fill="#595959" font-family="Yu Gothic,Yu Gothic_MSFontService,sans-serif" font-weight="500" font-size="55" transform="matrix(1 0 0 1 5508.16 982)">3</text></g><g clip-path="url(#clip78)"><text fill="#595959" font-family="Yu Gothic,Yu Gothic_MSFontService,sans-serif" font-weight="500" font-size="55" transform="matrix(1 0 0 1 5538.68 982)">以上</text></g><rect x="2865.5" y="190.5" width="2986" height="1263" stroke="#000000" stroke-width="4.58333" stroke-linejoin="round" stroke-miterlimit="10" fill="none"/><g clip-path="url(#clip79)"><g clip-path="url(#clip80)"><text font-family="Yu Gothic,Yu Gothic_MSFontService,sans-serif" font-weight="500" font-size="73" transform="matrix(1 0 0 1 2924.34 302)">【授業形式】</text></g></g><g clip-path="url(#clip81)"><g clip-path="url(#clip82)"><text font-family="Yu Gothic,Yu Gothic_MSFontService,sans-serif" font-weight="500" font-size="73" transform="matrix(1 0 0 1 3364.34 302)">5.</text></g></g><g clip-path="url(#clip83)"><g clip-path="url(#clip84)"><text font-family="Yu Gothic,Yu Gothic_MSFontService,sans-serif" font-weight="500" font-size="73" transform="matrix(1 0 0 1 3424.04 302)">パブリックビューイング方式（ほぼ全員の学生が教室に集まり，教員の</text></g></g><g clip-path="url(#clip85)"><text font-family="Yu Gothic,Yu Gothic_MSFontService,sans-serif" font-weight="500" font-size="73" transform="matrix(1 0 0 1 2924.34 425)">遠隔授業をプロジェクタで投影）</text></g><g clip-path="url(#clip86)"><text font-family="Yu Gothic,Yu Gothic_MSFontService,sans-serif" font-weight="400" font-size="55" transform="matrix(1 0 0 1 5465.51 656)">平均コマ数</text></g><g clip-path="url(#clip87)"><path d="M5465.09 661.584 5533.84 661.584 5602.59 661.584 5671.34 661.584 5740.09 661.584 5740.09 664.584 5671.34 664.584 5602.59 664.584 5533.84 664.584 5465.09 664.584Z" fill-rule="evenodd"/></g></g></svg>