<svg width="2990" height="1309" xmlns="http://www.w3.org/2000/svg" xmlns:xlink="http://www.w3.org/1999/xlink" overflow="hidden"><defs><clipPath id="clip0"><rect x="3049" y="347" width="2990" height="1309"/></clipPath><clipPath id="clip1"><rect x="3051" y="348" width="2984" height="1304"/></clipPath><clipPath id="clip2"><rect x="3691" y="639" width="1796" height="872"/></clipPath><clipPath id="clip3"><rect x="3691" y="639" width="1796" height="872"/></clipPath><clipPath id="clip4"><rect x="3691" y="639" width="1796" height="872"/></clipPath><clipPath id="clip5"><rect x="3691" y="639" width="1796" height="872"/></clipPath><clipPath id="clip6"><rect x="3691" y="639" width="1796" height="872"/></clipPath><clipPath id="clip7"><rect x="3051" y="348" width="2984" height="1304"/></clipPath><clipPath id="clip8"><rect x="3051" y="348" width="2984" height="1304"/></clipPath><clipPath id="clip9"><rect x="3051" y="348" width="2984" height="1304"/></clipPath><clipPath id="clip10"><rect x="3051" y="348" width="2984" height="1304"/></clipPath><clipPath id="clip11"><rect x="3051" y="348" width="2984" height="1304"/></clipPath><clipPath id="clip12"><rect x="3051" y="348" width="2984" height="1304"/></clipPath><clipPath id="clip13"><rect x="3051" y="348" width="2984" height="1304"/></clipPath><clipPath id="clip14"><rect x="3051" y="348" width="2984" height="1304"/></clipPath><clipPath id="clip15"><rect x="3051" y="348" width="2984" height="1304"/></clipPath><clipPath id="clip16"><rect x="3051" y="348" width="2984" height="1304"/></clipPath><clipPath id="clip17"><rect x="3051" y="348" width="2984" height="1304"/></clipPath><clipPath id="clip18"><rect x="3051" y="348" width="2984" height="1304"/></clipPath><clipPath id="clip19"><rect x="3051" y="348" width="2984" height="1304"/></clipPath><clipPath id="clip20"><rect x="3051" y="348" width="2984" height="1304"/></clipPath><clipPath id="clip21"><rect x="3051" y="348" width="2984" height="1304"/></clipPath><clipPath id="clip22"><rect x="3051" y="348" width="2984" height="1304"/></clipPath><clipPath id="clip23"><rect x="3051" y="348" width="2984" height="1304"/></clipPath><clipPath id="clip24"><rect x="3051" y="348" width="2984" height="1304"/></clipPath><clipPath id="clip25"><rect x="3051" y="348" width="2984" height="1304"/></clipPath><clipPath id="clip26"><rect x="3051" y="348" width="2984" height="1304"/></clipPath><clipPath id="clip27"><rect x="3051" y="348" width="2984" height="1304"/></clipPath><clipPath id="clip28"><rect x="3051" y="348" width="2984" height="1304"/></clipPath><clipPath id="clip29"><rect x="3051" y="348" width="2984" height="1304"/></clipPath><clipPath id="clip30"><rect x="3051" y="348" width="2984" height="1304"/></clipPath><clipPath id="clip31"><rect x="3051" y="348" width="2984" height="1304"/></clipPath><clipPath id="clip32"><rect x="2239" y="1359" width="2476" height="146"/></clipPath><clipPath id="clip33"><rect x="3051" y="348" width="2984" height="1304"/></clipPath><clipPath id="clip34"><rect x="2239" y="1359" width="2476" height="146"/></clipPath><clipPath id="clip35"><rect x="3051" y="348" width="2984" height="1304"/></clipPath><clipPath id="clip36"><rect x="2111" y="1214" width="2700" height="146"/></clipPath><clipPath id="clip37"><rect x="3051" y="348" width="2984" height="1304"/></clipPath><clipPath id="clip38"><rect x="2111" y="1214" width="2700" height="146"/></clipPath><clipPath id="clip39"><rect x="3051" y="348" width="2984" height="1304"/></clipPath><clipPath id="clip40"><rect x="1526" y="1069" width="3724" height="146"/></clipPath><clipPath id="clip41"><rect x="3051" y="348" width="2984" height="1304"/></clipPath><clipPath id="clip42"><rect x="1526" y="1069" width="3724" height="146"/></clipPath><clipPath id="clip43"><rect x="3051" y="348" width="2984" height="1304"/></clipPath><clipPath id="clip44"><rect x="1526" y="1069" width="3724" height="146"/></clipPath><clipPath id="clip45"><rect x="3051" y="348" width="2984" height="1304"/></clipPath><clipPath id="clip46"><rect x="1526" y="1069" width="3724" height="146"/></clipPath><clipPath id="clip47"><rect x="3051" y="348" width="2984" height="1304"/></clipPath><clipPath id="clip48"><rect x="1984" y="924" width="2922" height="146"/></clipPath><clipPath id="clip49"><rect x="3051" y="348" width="2984" height="1304"/></clipPath><clipPath id="clip50"><rect x="1984" y="924" width="2922" height="146"/></clipPath><clipPath id="clip51"><rect x="3051" y="348" width="2984" height="1304"/></clipPath><clipPath id="clip52"><rect x="1984" y="924" width="2922" height="146"/></clipPath><clipPath id="clip53"><rect x="3051" y="348" width="2984" height="1304"/></clipPath><clipPath id="clip54"><rect x="1984" y="924" width="2922" height="146"/></clipPath><clipPath id="clip55"><rect x="3051" y="348" width="2984" height="1304"/></clipPath><clipPath id="clip56"><rect x="1984" y="780" width="2922" height="145"/></clipPath><clipPath id="clip57"><rect x="3051" y="348" width="2984" height="1304"/></clipPath><clipPath id="clip58"><rect x="1984" y="780" width="2922" height="145"/></clipPath><clipPath id="clip59"><rect x="3051" y="348" width="2984" height="1304"/></clipPath><clipPath id="clip60"><rect x="1984" y="780" width="2922" height="145"/></clipPath><clipPath id="clip61"><rect x="3051" y="348" width="2984" height="1304"/></clipPath><clipPath id="clip62"><rect x="1984" y="780" width="2922" height="145"/></clipPath><clipPath id="clip63"><rect x="3051" y="348" width="2984" height="1304"/></clipPath><clipPath id="clip64"><rect x="2213" y="635" width="2521" height="146"/></clipPath><clipPath id="clip65"><rect x="3051" y="348" width="2984" height="1304"/></clipPath><clipPath id="clip66"><rect x="2213" y="635" width="2521" height="146"/></clipPath><clipPath id="clip67"><rect x="3051" y="348" width="2984" height="1304"/></clipPath><clipPath id="clip68"><rect x="3051" y="348" width="2984" height="1304"/></clipPath><clipPath id="clip69"><rect x="3051" y="348" width="2984" height="1304"/></clipPath><clipPath id="clip70"><rect x="3051" y="348" width="2984" height="1304"/></clipPath><clipPath id="clip71"><rect x="3051" y="348" width="2984" height="1304"/></clipPath><clipPath id="clip72"><rect x="3051" y="348" width="2984" height="1304"/></clipPath><clipPath id="clip73"><rect x="3051" y="348" width="2984" height="1304"/></clipPath><clipPath id="clip74"><rect x="3051" y="348" width="2984" height="1304"/></clipPath><clipPath id="clip75"><rect x="3051" y="348" width="2984" height="1304"/></clipPath><clipPath id="clip76"><rect x="3051" y="348" width="2984" height="1304"/></clipPath><clipPath id="clip77"><rect x="3051" y="348" width="2984" height="1304"/></clipPath><clipPath id="clip78"><rect x="3051" y="348" width="2984" height="1304"/></clipPath><clipPath id="clip79"><rect x="3051" y="348" width="2985" height="1305"/></clipPath><clipPath id="clip80"><rect x="-5429" y="357" width="19925" height="412"/></clipPath><clipPath id="clip81"><rect x="3051" y="348" width="2985" height="1305"/></clipPath><clipPath id="clip82"><rect x="-5429" y="357" width="19925" height="412"/></clipPath><clipPath id="clip83"><rect x="3051" y="348" width="2985" height="1305"/></clipPath><clipPath id="clip84"><rect x="-5429" y="357" width="19925" height="412"/></clipPath><clipPath id="clip85"><rect x="3051" y="348" width="2985" height="1305"/></clipPath><clipPath id="clip86"><rect x="3051" y="348" width="2985" height="1305"/></clipPath><clipPath id="clip87"><rect x="3051" y="348" width="2985" height="1305"/></clipPath></defs><g clip-path="url(#clip0)" transform="translate(-3049 -347)"><rect x="3051" y="349" width="2985" height="1304" fill="#FFFFFF"/><g clip-path="url(#clip1)"><path d="M4139.64 639.5 4139.64 1508.5M4587.65 639.5 4587.65 1508.5M5035.67 639.5 5035.67 1508.5M5484.5 639.5 5484.5 1508.5" stroke="#D9D9D9" stroke-width="4.58333" stroke-linejoin="round" stroke-miterlimit="10" fill="none"/></g><g clip-path="url(#clip2)"><path d="M5375.5 759.5 3691.5 759.5 3691.5 664.5 5375.5 664.5Z" stroke="#000000" stroke-width="4.58333" stroke-linejoin="round" stroke-miterlimit="10" fill="#FFFFFF"/></g><g clip-path="url(#clip3)"><path d="M5125.67 1483.55 3691.5 1483.55 3691.5 1388.55 5125.67 1388.55ZM5398.68 1338.54 3691.5 1338.54 3691.5 1243.54 5398.68 1243.54ZM5387.68 1193.54 3691.5 1193.54 3691.5 1098.54 5387.68 1098.54ZM5338.68 1048.53 3691.5 1048.53 3691.5 954.531 5338.68 954.531ZM5357.68 903.53 3691.5 903.53 3691.5 809.527 5357.68 809.527Z" stroke="#000000" stroke-width="4.58333" stroke-linejoin="round" stroke-miterlimit="10" fill="#FFFFFF"/></g><g clip-path="url(#clip4)"><path d="M5464.5 759.5 5375.5 759.5 5375.5 664.5 5464.5 664.5Z" stroke="#000000" stroke-width="4.58333" stroke-linejoin="round" stroke-miterlimit="10" fill="#F1F8FD"/></g><g clip-path="url(#clip5)"><path d="M5304.67 1483.55 5125.67 1483.55 5125.67 1388.55 5304.67 1388.55ZM5475.68 1338.54 5398.68 1338.54 5398.68 1243.54 5475.68 1243.54ZM5455.68 1193.54 5387.68 1193.54 5387.68 1098.54 5455.68 1098.54ZM5447.68 1048.53 5338.68 1048.53 5338.68 954.531 5447.68 954.531ZM5484.68 903.53 5357.68 903.53 5357.68 809.527 5484.68 809.527Z" stroke="#000000" stroke-width="4.58333" stroke-linejoin="round" stroke-miterlimit="10" fill="#F1F8FD"/></g><g clip-path="url(#clip6)"><path d="M5484.68 1483.55 5304.67 1483.55 5304.67 1388.55 5484.68 1388.55ZM5484.68 1338.54 5475.68 1338.54 5475.68 1243.54 5484.68 1243.54ZM5484.68 1193.54 5455.68 1193.54 5455.68 1098.54 5484.68 1098.54ZM5484.68 1048.53 5447.68 1048.53 5447.68 954.531 5484.68 954.531ZM5484.68 759.525 5464.68 759.525 5464.68 664.522 5484.68 664.522Z" stroke="#000000" stroke-width="4.58333" stroke-linejoin="round" stroke-miterlimit="10" fill="#C2DDF6"/></g><g clip-path="url(#clip7)"><path d="M0 0 0.000360892 869" stroke="#D9D9D9" stroke-width="3.4375" stroke-linejoin="round" stroke-miterlimit="10" fill="none" fill-rule="evenodd" transform="matrix(1 0 0 -1 3691.5 1508.5)"/></g><g clip-path="url(#clip8)"><text fill="#404040" font-family="Yu Gothic,Yu Gothic_MSFontService,sans-serif" font-weight="700" font-size="55" transform="matrix(1 0 0 1 4376.86 1455)">16</text></g><g clip-path="url(#clip9)"><text fill="#404040" font-family="Yu Gothic,Yu Gothic_MSFontService,sans-serif" font-weight="700" font-size="55" transform="matrix(1 0 0 1 4497.52 1310)">557</text></g><g clip-path="url(#clip10)"><text fill="#404040" font-family="Yu Gothic,Yu Gothic_MSFontService,sans-serif" font-weight="700" font-size="55" transform="matrix(1 0 0 1 4492.1 1165)">351</text></g><g clip-path="url(#clip11)"><text fill="#404040" font-family="Yu Gothic,Yu Gothic_MSFontService,sans-serif" font-weight="700" font-size="55" transform="matrix(1 0 0 1 4467.53 1020)">226</text></g><g clip-path="url(#clip12)"><text fill="#404040" font-family="Yu Gothic,Yu Gothic_MSFontService,sans-serif" font-weight="700" font-size="55" transform="matrix(1 0 0 1 4476.95 876)">210</text></g><g clip-path="url(#clip13)"><text fill="#404040" font-family="Yu Gothic,Yu Gothic_MSFontService,sans-serif" font-weight="700" font-size="55" transform="matrix(1 0 0 1 4470.17 731)">1360</text></g><g clip-path="url(#clip14)"><text fill="#404040" font-family="Yu Gothic,Yu Gothic_MSFontService,sans-serif" font-weight="700" font-size="55" transform="matrix(1 0 0 1 5199.65 1455)">2</text></g><g clip-path="url(#clip15)"><text fill="#404040" font-family="Yu Gothic,Yu Gothic_MSFontService,sans-serif" font-weight="700" font-size="55" transform="matrix(1 0 0 1 5405.37 1310)">25</text></g><g clip-path="url(#clip16)"><text fill="#404040" font-family="Yu Gothic,Yu Gothic_MSFontService,sans-serif" font-weight="700" font-size="55" transform="matrix(1 0 0 1 5390.05 1165)">14</text></g><g clip-path="url(#clip17)"><text fill="#404040" font-family="Yu Gothic,Yu Gothic_MSFontService,sans-serif" font-weight="700" font-size="55" transform="matrix(1 0 0 1 5361.76 1020)">15</text></g><g clip-path="url(#clip18)"><text fill="#404040" font-family="Yu Gothic,Yu Gothic_MSFontService,sans-serif" font-weight="700" font-size="55" transform="matrix(1 0 0 1 5389.41 876)">16</text></g><g clip-path="url(#clip19)"><text fill="#404040" font-family="Yu Gothic,Yu Gothic_MSFontService,sans-serif" font-weight="700" font-size="55" transform="matrix(1 0 0 1 5388.49 731)">72</text></g><g clip-path="url(#clip20)"><text fill="#404040" font-family="Yu Gothic,Yu Gothic_MSFontService,sans-serif" font-weight="700" font-size="55" transform="matrix(1 0 0 1 5378.99 1455)">2</text></g><g clip-path="url(#clip21)"><text fill="#404040" font-family="Yu Gothic,Yu Gothic_MSFontService,sans-serif" font-weight="700" font-size="55" transform="matrix(1 0 0 1 5473.21 1240)">3</text></g><g clip-path="url(#clip22)"><text fill="#404040" font-family="Yu Gothic,Yu Gothic_MSFontService,sans-serif" font-weight="700" font-size="55" transform="matrix(1 0 0 1 5454.16 1165)">6</text></g><g clip-path="url(#clip23)"><text fill="#404040" font-family="Yu Gothic,Yu Gothic_MSFontService,sans-serif" font-weight="700" font-size="55" transform="matrix(1 0 0 1 5450.43 1020)">5</text></g><g clip-path="url(#clip24)"><text fill="#404040" font-family="Yu Gothic,Yu Gothic_MSFontService,sans-serif" font-weight="700" font-size="55" transform="matrix(1 0 0 1 5468.66 806)">0</text></g><g clip-path="url(#clip25)"><text fill="#404040" font-family="Yu Gothic,Yu Gothic_MSFontService,sans-serif" font-weight="700" font-size="55" transform="matrix(1 0 0 1 5442.98 656)">16</text></g><g clip-path="url(#clip26)"><text fill="#595959" font-family="Yu Gothic,Yu Gothic_MSFontService,sans-serif" font-weight="500" font-size="60" transform="matrix(1 0 0 1 3650.55 1607)">0%</text></g><g clip-path="url(#clip27)"><text fill="#595959" font-family="Yu Gothic,Yu Gothic_MSFontService,sans-serif" font-weight="500" font-size="60" transform="matrix(1 0 0 1 4082.36 1607)">25%</text></g><g clip-path="url(#clip28)"><text fill="#595959" font-family="Yu Gothic,Yu Gothic_MSFontService,sans-serif" font-weight="500" font-size="60" transform="matrix(1 0 0 1 4530.71 1607)">50%</text></g><g clip-path="url(#clip29)"><text fill="#595959" font-family="Yu Gothic,Yu Gothic_MSFontService,sans-serif" font-weight="500" font-size="60" transform="matrix(1 0 0 1 4979.05 1607)">75%</text></g><g clip-path="url(#clip30)"><text fill="#595959" font-family="Yu Gothic,Yu Gothic_MSFontService,sans-serif" font-weight="500" font-size="60" transform="matrix(1 0 0 1 5410.86 1607)">100%</text></g><g clip-path="url(#clip31)"><g clip-path="url(#clip32)"><text fill="#595959" font-family="Yu Gothic,Yu Gothic_MSFontService,sans-serif" font-weight="500" font-size="57" transform="matrix(1 0 0 1 3300.07 1452)">その他</text></g></g><g clip-path="url(#clip33)"><g clip-path="url(#clip34)"><text fill="#595959" font-family="Yu Gothic,Yu Gothic_MSFontService,sans-serif" font-weight="500" font-size="57" transform="matrix(1 0 0 1 3471.94 1452)">(n=20)</text></g></g><g clip-path="url(#clip35)"><g clip-path="url(#clip36)"><text fill="#595959" font-family="Yu Gothic,Yu Gothic_MSFontService,sans-serif" font-weight="500" font-size="57" transform="matrix(1 0 0 1 3268.26 1307)">大学院</text></g></g><g clip-path="url(#clip37)"><g clip-path="url(#clip38)"><text fill="#595959" font-family="Yu Gothic,Yu Gothic_MSFontService,sans-serif" font-weight="500" font-size="57" transform="matrix(1 0 0 1 3440.13 1307)">(n=585)</text></g></g><g clip-path="url(#clip39)"><g clip-path="url(#clip40)"><text fill="#595959" font-family="Yu Gothic,Yu Gothic_MSFontService,sans-serif" font-weight="500" font-size="57" transform="matrix(1 0 0 1 3121.87 1162)">学部</text></g></g><g clip-path="url(#clip41)"><g clip-path="url(#clip42)"><text fill="#595959" font-family="Yu Gothic,Yu Gothic_MSFontService,sans-serif" font-weight="500" font-size="57" transform="matrix(1 0 0 1 3236.45 1162)">3</text></g></g><g clip-path="url(#clip43)"><g clip-path="url(#clip44)"><text fill="#595959" font-family="Yu Gothic,Yu Gothic_MSFontService,sans-serif" font-weight="500" font-size="57" transform="matrix(1 0 0 1 3268.26 1162)">年以上</text></g></g><g clip-path="url(#clip45)"><g clip-path="url(#clip46)"><text fill="#595959" font-family="Yu Gothic,Yu Gothic_MSFontService,sans-serif" font-weight="500" font-size="57" transform="matrix(1 0 0 1 3440.13 1162)">(n=371)</text></g></g><g clip-path="url(#clip47)"><g clip-path="url(#clip48)"><text fill="#595959" font-family="Yu Gothic,Yu Gothic_MSFontService,sans-serif" font-weight="500" font-size="57" transform="matrix(1 0 0 1 3236.45 1017)">学部</text></g></g><g clip-path="url(#clip49)"><g clip-path="url(#clip50)"><text fill="#595959" font-family="Yu Gothic,Yu Gothic_MSFontService,sans-serif" font-weight="500" font-size="57" transform="matrix(1 0 0 1 3351.03 1017)">2</text></g></g><g clip-path="url(#clip51)"><g clip-path="url(#clip52)"><text fill="#595959" font-family="Yu Gothic,Yu Gothic_MSFontService,sans-serif" font-weight="500" font-size="57" transform="matrix(1 0 0 1 3382.84 1017)">年</text></g></g><g clip-path="url(#clip53)"><g clip-path="url(#clip54)"><text fill="#595959" font-family="Yu Gothic,Yu Gothic_MSFontService,sans-serif" font-weight="500" font-size="57" transform="matrix(1 0 0 1 3440.13 1017)">(n=246)</text></g></g><g clip-path="url(#clip55)"><g clip-path="url(#clip56)"><text fill="#595959" font-family="Yu Gothic,Yu Gothic_MSFontService,sans-serif" font-weight="500" font-size="57" transform="matrix(1 0 0 1 3236.45 873)">学部</text></g></g><g clip-path="url(#clip57)"><g clip-path="url(#clip58)"><text fill="#595959" font-family="Yu Gothic,Yu Gothic_MSFontService,sans-serif" font-weight="500" font-size="57" transform="matrix(1 0 0 1 3351.03 873)">1</text></g></g><g clip-path="url(#clip59)"><g clip-path="url(#clip60)"><text fill="#595959" font-family="Yu Gothic,Yu Gothic_MSFontService,sans-serif" font-weight="500" font-size="57" transform="matrix(1 0 0 1 3382.84 873)">年</text></g></g><g clip-path="url(#clip61)"><g clip-path="url(#clip62)"><text fill="#595959" font-family="Yu Gothic,Yu Gothic_MSFontService,sans-serif" font-weight="500" font-size="57" transform="matrix(1 0 0 1 3440.13 873)">(n=226)</text></g></g><g clip-path="url(#clip63)"><g clip-path="url(#clip64)"><text fill="#595959" font-family="Yu Gothic,Yu Gothic_MSFontService,sans-serif" font-weight="500" font-size="57" transform="matrix(1 0 0 1 3293.74 728)">全体</text></g></g><g clip-path="url(#clip65)"><g clip-path="url(#clip66)"><text fill="#595959" font-family="Yu Gothic,Yu Gothic_MSFontService,sans-serif" font-weight="500" font-size="57" transform="matrix(1 0 0 1 3408.33 728)">(n=1448)</text></g></g><g clip-path="url(#clip67)"><rect x="5642.5" y="918.5" width="32" height="31.9999" stroke="#000000" stroke-width="4.58333" stroke-linejoin="round" stroke-miterlimit="10" fill="#FFFFFF"/></g><g clip-path="url(#clip68)"><text fill="#595959" font-family="Yu Gothic,Yu Gothic_MSFontService,sans-serif" font-weight="500" font-size="55" transform="matrix(1 0 0 1 5688.36 949)">1</text></g><g clip-path="url(#clip69)"><text fill="#595959" font-family="Yu Gothic,Yu Gothic_MSFontService,sans-serif" font-weight="500" font-size="55" transform="matrix(1 0 0 1 5718.89 949)">未満</text></g><g clip-path="url(#clip70)"><rect x="5642.5" y="1017.5" width="32" height="32" stroke="#000000" stroke-width="4.58333" stroke-linejoin="round" stroke-miterlimit="10" fill="#F1F8FD"/></g><g clip-path="url(#clip71)"><text fill="#595959" font-family="Yu Gothic,Yu Gothic_MSFontService,sans-serif" font-weight="500" font-size="55" transform="matrix(1 0 0 1 5688.36 1048)">1</text></g><g clip-path="url(#clip72)"><text fill="#595959" font-family="Yu Gothic,Yu Gothic_MSFontService,sans-serif" font-weight="500" font-size="55" transform="matrix(1 0 0 1 5718.89 1048)">以上</text></g><g clip-path="url(#clip73)"><text fill="#595959" font-family="Yu Gothic,Yu Gothic_MSFontService,sans-serif" font-weight="500" font-size="55" transform="matrix(1 0 0 1 5828.89 1048)">-</text></g><g clip-path="url(#clip74)"><text fill="#595959" font-family="Yu Gothic,Yu Gothic_MSFontService,sans-serif" font-weight="500" font-size="55" transform="matrix(1 0 0 1 5852.44 1048)">3</text></g><g clip-path="url(#clip75)"><text fill="#595959" font-family="Yu Gothic,Yu Gothic_MSFontService,sans-serif" font-weight="500" font-size="55" transform="matrix(1 0 0 1 5882.97 1048)">未満</text></g><g clip-path="url(#clip76)"><rect x="5642.5" y="1116.5" width="32" height="32" stroke="#000000" stroke-width="4.58333" stroke-linejoin="round" stroke-miterlimit="10" fill="#C2DDF6"/></g><g clip-path="url(#clip77)"><text fill="#595959" font-family="Yu Gothic,Yu Gothic_MSFontService,sans-serif" font-weight="500" font-size="55" transform="matrix(1 0 0 1 5688.36 1148)">3</text></g><g clip-path="url(#clip78)"><text fill="#595959" font-family="Yu Gothic,Yu Gothic_MSFontService,sans-serif" font-weight="500" font-size="55" transform="matrix(1 0 0 1 5718.89 1148)">以上</text></g><rect x="3051.5" y="349.5" width="2985" height="1304" stroke="#000000" stroke-width="4.58333" stroke-linejoin="round" stroke-miterlimit="10" fill="none"/><g clip-path="url(#clip79)"><g clip-path="url(#clip80)"><text font-family="Yu Gothic,Yu Gothic_MSFontService,sans-serif" font-weight="500" font-size="73" transform="matrix(1 0 0 1 3110.36 461)">【授業形式】</text></g></g><g clip-path="url(#clip81)"><g clip-path="url(#clip82)"><text font-family="Yu Gothic,Yu Gothic_MSFontService,sans-serif" font-weight="500" font-size="73" transform="matrix(1 0 0 1 3550.36 461)">6.</text></g></g><g clip-path="url(#clip83)"><g clip-path="url(#clip84)"><text font-family="Yu Gothic,Yu Gothic_MSFontService,sans-serif" font-weight="500" font-size="73" transform="matrix(1 0 0 1 3610.06 461)">ハイフレックス方式（教員が教室で講義を行い，学生は教室で受けても</text></g></g><g clip-path="url(#clip85)"><text font-family="Yu Gothic,Yu Gothic_MSFontService,sans-serif" font-weight="500" font-size="73" transform="matrix(1 0 0 1 3110.36 584)">同時配信を遠隔で受けても良い）</text></g><g clip-path="url(#clip86)"><text font-family="Yu Gothic,Yu Gothic_MSFontService,sans-serif" font-weight="400" font-size="55" transform="matrix(1 0 0 1 5666.46 819)">平均コマ数</text></g><g clip-path="url(#clip87)"><path d="M5666.11 824.726 5734.86 824.726 5803.61 824.726 5872.36 824.726 5941.11 824.726 5941.11 827.726 5872.36 827.726 5803.61 827.726 5734.86 827.726 5666.11 827.726Z" fill-rule="evenodd"/></g></g></svg>