<svg width="2993" height="1248" xmlns="http://www.w3.org/2000/svg" xmlns:xlink="http://www.w3.org/1999/xlink" overflow="hidden"><defs><clipPath id="clip0"><rect x="3063" y="352" width="2993" height="1248"/></clipPath><clipPath id="clip1"><rect x="3064" y="354" width="2989" height="1243"/></clipPath><clipPath id="clip2"><rect x="3705" y="543" width="1799" height="909"/></clipPath><clipPath id="clip3"><rect x="3705" y="543" width="1799" height="909"/></clipPath><clipPath id="clip4"><rect x="3705" y="543" width="1799" height="909"/></clipPath><clipPath id="clip5"><rect x="3705" y="543" width="1799" height="909"/></clipPath><clipPath id="clip6"><rect x="3705" y="543" width="1799" height="909"/></clipPath><clipPath id="clip7"><rect x="3064" y="354" width="2989" height="1243"/></clipPath><clipPath id="clip8"><rect x="3064" y="354" width="2989" height="1243"/></clipPath><clipPath id="clip9"><rect x="3064" y="354" width="2989" height="1243"/></clipPath><clipPath id="clip10"><rect x="3064" y="354" width="2989" height="1243"/></clipPath><clipPath id="clip11"><rect x="3064" y="354" width="2989" height="1243"/></clipPath><clipPath id="clip12"><rect x="3064" y="354" width="2989" height="1243"/></clipPath><clipPath id="clip13"><rect x="3064" y="354" width="2989" height="1243"/></clipPath><clipPath id="clip14"><rect x="3064" y="354" width="2989" height="1243"/></clipPath><clipPath id="clip15"><rect x="3064" y="354" width="2989" height="1243"/></clipPath><clipPath id="clip16"><rect x="3064" y="354" width="2989" height="1243"/></clipPath><clipPath id="clip17"><rect x="3064" y="354" width="2989" height="1243"/></clipPath><clipPath id="clip18"><rect x="3064" y="354" width="2989" height="1243"/></clipPath><clipPath id="clip19"><rect x="3064" y="354" width="2989" height="1243"/></clipPath><clipPath id="clip20"><rect x="3064" y="354" width="2989" height="1243"/></clipPath><clipPath id="clip21"><rect x="3064" y="354" width="2989" height="1243"/></clipPath><clipPath id="clip22"><rect x="3064" y="354" width="2989" height="1243"/></clipPath><clipPath id="clip23"><rect x="3064" y="354" width="2989" height="1243"/></clipPath><clipPath id="clip24"><rect x="3064" y="354" width="2989" height="1243"/></clipPath><clipPath id="clip25"><rect x="3064" y="354" width="2989" height="1243"/></clipPath><clipPath id="clip26"><rect x="3064" y="354" width="2989" height="1243"/></clipPath><clipPath id="clip27"><rect x="3064" y="354" width="2989" height="1243"/></clipPath><clipPath id="clip28"><rect x="3064" y="354" width="2989" height="1243"/></clipPath><clipPath id="clip29"><rect x="3064" y="354" width="2989" height="1243"/></clipPath><clipPath id="clip30"><rect x="3064" y="354" width="2989" height="1243"/></clipPath><clipPath id="clip31"><rect x="3064" y="354" width="2989" height="1243"/></clipPath><clipPath id="clip32"><rect x="2253" y="1294" width="2476" height="151"/></clipPath><clipPath id="clip33"><rect x="3064" y="354" width="2989" height="1243"/></clipPath><clipPath id="clip34"><rect x="2253" y="1294" width="2476" height="151"/></clipPath><clipPath id="clip35"><rect x="3064" y="354" width="2989" height="1243"/></clipPath><clipPath id="clip36"><rect x="2126" y="1143" width="2699" height="152"/></clipPath><clipPath id="clip37"><rect x="3064" y="354" width="2989" height="1243"/></clipPath><clipPath id="clip38"><rect x="2126" y="1143" width="2699" height="152"/></clipPath><clipPath id="clip39"><rect x="3064" y="354" width="2989" height="1243"/></clipPath><clipPath id="clip40"><rect x="1540" y="992" width="3724" height="152"/></clipPath><clipPath id="clip41"><rect x="3064" y="354" width="2989" height="1243"/></clipPath><clipPath id="clip42"><rect x="1540" y="992" width="3724" height="152"/></clipPath><clipPath id="clip43"><rect x="3064" y="354" width="2989" height="1243"/></clipPath><clipPath id="clip44"><rect x="1540" y="992" width="3724" height="152"/></clipPath><clipPath id="clip45"><rect x="3064" y="354" width="2989" height="1243"/></clipPath><clipPath id="clip46"><rect x="1540" y="992" width="3724" height="152"/></clipPath><clipPath id="clip47"><rect x="3064" y="354" width="2989" height="1243"/></clipPath><clipPath id="clip48"><rect x="1999" y="841" width="2921" height="152"/></clipPath><clipPath id="clip49"><rect x="3064" y="354" width="2989" height="1243"/></clipPath><clipPath id="clip50"><rect x="1999" y="841" width="2921" height="152"/></clipPath><clipPath id="clip51"><rect x="3064" y="354" width="2989" height="1243"/></clipPath><clipPath id="clip52"><rect x="1999" y="841" width="2921" height="152"/></clipPath><clipPath id="clip53"><rect x="3064" y="354" width="2989" height="1243"/></clipPath><clipPath id="clip54"><rect x="1999" y="841" width="2921" height="152"/></clipPath><clipPath id="clip55"><rect x="3064" y="354" width="2989" height="1243"/></clipPath><clipPath id="clip56"><rect x="1999" y="690" width="2921" height="152"/></clipPath><clipPath id="clip57"><rect x="3064" y="354" width="2989" height="1243"/></clipPath><clipPath id="clip58"><rect x="1999" y="690" width="2921" height="152"/></clipPath><clipPath id="clip59"><rect x="3064" y="354" width="2989" height="1243"/></clipPath><clipPath id="clip60"><rect x="1999" y="690" width="2921" height="152"/></clipPath><clipPath id="clip61"><rect x="3064" y="354" width="2989" height="1243"/></clipPath><clipPath id="clip62"><rect x="1999" y="690" width="2921" height="152"/></clipPath><clipPath id="clip63"><rect x="3064" y="354" width="2989" height="1243"/></clipPath><clipPath id="clip64"><rect x="2228" y="539" width="2520" height="152"/></clipPath><clipPath id="clip65"><rect x="3064" y="354" width="2989" height="1243"/></clipPath><clipPath id="clip66"><rect x="2228" y="539" width="2520" height="152"/></clipPath><clipPath id="clip67"><rect x="3064" y="354" width="2989" height="1243"/></clipPath><clipPath id="clip68"><rect x="3064" y="354" width="2989" height="1243"/></clipPath><clipPath id="clip69"><rect x="3064" y="354" width="2989" height="1243"/></clipPath><clipPath id="clip70"><rect x="3064" y="354" width="2989" height="1243"/></clipPath><clipPath id="clip71"><rect x="3064" y="354" width="2989" height="1243"/></clipPath><clipPath id="clip72"><rect x="3064" y="354" width="2989" height="1243"/></clipPath><clipPath id="clip73"><rect x="3064" y="354" width="2989" height="1243"/></clipPath><clipPath id="clip74"><rect x="3064" y="354" width="2989" height="1243"/></clipPath><clipPath id="clip75"><rect x="3064" y="354" width="2989" height="1243"/></clipPath><clipPath id="clip76"><rect x="3064" y="354" width="2989" height="1243"/></clipPath><clipPath id="clip77"><rect x="3064" y="354" width="2989" height="1243"/></clipPath><clipPath id="clip78"><rect x="3064" y="354" width="2989" height="1243"/></clipPath><clipPath id="clip79"><rect x="3064" y="354" width="2990" height="1244"/></clipPath><clipPath id="clip80"><rect x="-4316" y="362" width="17359" height="393"/></clipPath><clipPath id="clip81"><rect x="3064" y="354" width="2990" height="1244"/></clipPath><clipPath id="clip82"><rect x="-4316" y="362" width="17359" height="393"/></clipPath><clipPath id="clip83"><rect x="3064" y="354" width="2990" height="1244"/></clipPath><clipPath id="clip84"><rect x="-4316" y="362" width="17359" height="393"/></clipPath><clipPath id="clip85"><rect x="3064" y="354" width="2990" height="1244"/></clipPath><clipPath id="clip86"><rect x="3064" y="354" width="2990" height="1244"/></clipPath></defs><g clip-path="url(#clip0)" transform="translate(-3063 -352)"><rect x="3065" y="354" width="2988" height="1243" fill="#FFFFFF"/><g clip-path="url(#clip1)"><path d="M4154.64 543.5 4154.64 1449.5M4603.65 543.5 4603.65 1449.5M5052.67 543.5 5052.67 1449.5M5501.5 543.5 5501.5 1449.5" stroke="#D9D9D9" stroke-width="4.58333" stroke-linejoin="round" stroke-miterlimit="10" fill="none"/></g><g clip-path="url(#clip2)"><path d="M5103.5 668.5 3705.5 668.5 3705.5 569.5 5103.5 569.5Z" stroke="#000000" stroke-width="4.58333" stroke-linejoin="round" stroke-miterlimit="10" fill="#FFFFFF"/></g><g clip-path="url(#clip3)"><path d="M4962.66 1422.55 3705.5 1422.55 3705.5 1324.54 4962.66 1324.54ZM5309.67 1272.54 3705.5 1272.54 3705.5 1173.54 5309.67 1173.54ZM5035.67 1121.54 3705.5 1121.54 3705.5 1022.53 5035.67 1022.53ZM5046.67 970.532 3705.5 970.532 3705.5 871.529 5046.67 871.529ZM4781.66 819.527 3705.5 819.527 3705.5 720.524 4781.66 720.524Z" stroke="#000000" stroke-width="4.58333" stroke-linejoin="round" stroke-miterlimit="10" fill="#FFFFFF"/></g><g clip-path="url(#clip4)"><path d="M5452.5 668.5 5103.5 668.5 5103.5 569.5 5452.5 569.5Z" stroke="#000000" stroke-width="4.58333" stroke-linejoin="round" stroke-miterlimit="10" fill="#F1F8FD"/></g><g clip-path="url(#clip5)"><path d="M5321.67 1422.55 4962.66 1422.55 4962.66 1324.54 5321.67 1324.54ZM5482.68 1272.54 5309.67 1272.54 5309.67 1173.54 5482.68 1173.54ZM5395.68 1121.54 5035.67 1121.54 5035.67 1022.53 5395.68 1022.53ZM5466.68 970.532 5046.67 970.532 5046.67 871.529 5466.68 871.529ZM5463.68 819.527 4781.66 819.527 4781.66 720.524 5463.68 720.524Z" stroke="#000000" stroke-width="4.58333" stroke-linejoin="round" stroke-miterlimit="10" fill="#F1F8FD"/></g><g clip-path="url(#clip6)"><path d="M5501.68 1422.55 5321.67 1422.55 5321.67 1324.54 5501.68 1324.54ZM5501.68 1272.54 5482.68 1272.54 5482.68 1173.54 5501.68 1173.54ZM5501.68 1121.54 5395.68 1121.54 5395.68 1022.53 5501.68 1022.53ZM5501.68 970.532 5466.68 970.532 5466.68 871.529 5501.68 871.529ZM5501.68 819.527 5463.68 819.527 5463.68 720.524 5501.68 720.524ZM5501.68 668.522 5451.68 668.522 5451.68 569.519 5501.68 569.519Z" stroke="#000000" stroke-width="4.58333" stroke-linejoin="round" stroke-miterlimit="10" fill="#C2DDF6"/></g><g clip-path="url(#clip7)"><path d="M0 0 0.000360892 906" stroke="#D9D9D9" stroke-width="3.4375" stroke-linejoin="round" stroke-miterlimit="10" fill="none" fill-rule="evenodd" transform="matrix(1 0 0 -1 3705.5 1449.5)"/></g><g clip-path="url(#clip8)"><text fill="#404040" font-family="Yu Gothic,Yu Gothic_MSFontService,sans-serif" font-weight="700" font-size="55" transform="matrix(1 0 0 1 4302.39 1393)">14</text></g><g clip-path="url(#clip9)"><text fill="#404040" font-family="Yu Gothic,Yu Gothic_MSFontService,sans-serif" font-weight="700" font-size="55" transform="matrix(1 0 0 1 4460.28 1242)">528</text></g><g clip-path="url(#clip10)"><text fill="#404040" font-family="Yu Gothic,Yu Gothic_MSFontService,sans-serif" font-weight="700" font-size="55" transform="matrix(1 0 0 1 4323.46 1091)">289</text></g><g clip-path="url(#clip11)"><text fill="#404040" font-family="Yu Gothic,Yu Gothic_MSFontService,sans-serif" font-weight="700" font-size="55" transform="matrix(1 0 0 1 4328.9 940)">192</text></g><g clip-path="url(#clip12)"><text fill="#404040" font-family="Yu Gothic,Yu Gothic_MSFontService,sans-serif" font-weight="700" font-size="55" transform="matrix(1 0 0 1 4196.09 789)">145</text></g><g clip-path="url(#clip13)"><text fill="#404040" font-family="Yu Gothic,Yu Gothic_MSFontService,sans-serif" font-weight="700" font-size="55" transform="matrix(1 0 0 1 4341.49 638)">1168</text></g><g clip-path="url(#clip14)"><text fill="#404040" font-family="Yu Gothic,Yu Gothic_MSFontService,sans-serif" font-weight="700" font-size="55" transform="matrix(1 0 0 1 5126.27 1393)">4</text></g><g clip-path="url(#clip15)"><text fill="#404040" font-family="Yu Gothic,Yu Gothic_MSFontService,sans-serif" font-weight="700" font-size="55" transform="matrix(1 0 0 1 5364.84 1242)">57</text></g><g clip-path="url(#clip16)"><text fill="#404040" font-family="Yu Gothic,Yu Gothic_MSFontService,sans-serif" font-weight="700" font-size="55" transform="matrix(1 0 0 1 5184.18 1091)">78</text></g><g clip-path="url(#clip17)"><text fill="#404040" font-family="Yu Gothic,Yu Gothic_MSFontService,sans-serif" font-weight="700" font-size="55" transform="matrix(1 0 0 1 5225.1 940)">60</text></g><g clip-path="url(#clip18)"><text fill="#404040" font-family="Yu Gothic,Yu Gothic_MSFontService,sans-serif" font-weight="700" font-size="55" transform="matrix(1 0 0 1 5091.21 789)">92</text></g><g clip-path="url(#clip19)"><text fill="#404040" font-family="Yu Gothic,Yu Gothic_MSFontService,sans-serif" font-weight="700" font-size="55" transform="matrix(1 0 0 1 5230.62 638)">291</text></g><g clip-path="url(#clip20)"><text fill="#404040" font-family="Yu Gothic,Yu Gothic_MSFontService,sans-serif" font-weight="700" font-size="55" transform="matrix(1 0 0 1 5395.64 1393)">2</text></g><g clip-path="url(#clip21)"><text fill="#404040" font-family="Yu Gothic,Yu Gothic_MSFontService,sans-serif" font-weight="700" font-size="55" transform="matrix(1 0 0 1 5485.49 1170)">6</text></g><g clip-path="url(#clip22)"><text fill="#404040" font-family="Yu Gothic,Yu Gothic_MSFontService,sans-serif" font-weight="700" font-size="55" transform="matrix(1 0 0 1 5416.71 1091)">23</text></g><g clip-path="url(#clip23)"><text fill="#404040" font-family="Yu Gothic,Yu Gothic_MSFontService,sans-serif" font-weight="700" font-size="55" transform="matrix(1 0 0 1 5467.97 940)">5</text></g><g clip-path="url(#clip24)"><text fill="#404040" font-family="Yu Gothic,Yu Gothic_MSFontService,sans-serif" font-weight="700" font-size="55" transform="matrix(1 0 0 1 5466.88 789)">5</text></g><g clip-path="url(#clip25)"><text fill="#404040" font-family="Yu Gothic,Yu Gothic_MSFontService,sans-serif" font-weight="700" font-size="55" transform="matrix(1 0 0 1 5445.13 562)">41</text></g><g clip-path="url(#clip26)"><text fill="#595959" font-family="Yu Gothic,Yu Gothic_MSFontService,sans-serif" font-weight="500" font-size="60" transform="matrix(1 0 0 1 3664.9 1547)">0%</text></g><g clip-path="url(#clip27)"><text fill="#595959" font-family="Yu Gothic,Yu Gothic_MSFontService,sans-serif" font-weight="500" font-size="60" transform="matrix(1 0 0 1 4097.32 1547)">25%</text></g><g clip-path="url(#clip28)"><text fill="#595959" font-family="Yu Gothic,Yu Gothic_MSFontService,sans-serif" font-weight="500" font-size="60" transform="matrix(1 0 0 1 4546.27 1547)">50%</text></g><g clip-path="url(#clip29)"><text fill="#595959" font-family="Yu Gothic,Yu Gothic_MSFontService,sans-serif" font-weight="500" font-size="60" transform="matrix(1 0 0 1 4995.22 1547)">75%</text></g><g clip-path="url(#clip30)"><text fill="#595959" font-family="Yu Gothic,Yu Gothic_MSFontService,sans-serif" font-weight="500" font-size="60" transform="matrix(1 0 0 1 5427.64 1547)">100%</text></g><g clip-path="url(#clip31)"><g clip-path="url(#clip32)"><text fill="#595959" font-family="Yu Gothic,Yu Gothic_MSFontService,sans-serif" font-weight="500" font-size="57" transform="matrix(1 0 0 1 3314.42 1390)">その他</text></g></g><g clip-path="url(#clip33)"><g clip-path="url(#clip34)"><text fill="#595959" font-family="Yu Gothic,Yu Gothic_MSFontService,sans-serif" font-weight="500" font-size="57" transform="matrix(1 0 0 1 3486.29 1390)">(n=20)</text></g></g><g clip-path="url(#clip35)"><g clip-path="url(#clip36)"><text fill="#595959" font-family="Yu Gothic,Yu Gothic_MSFontService,sans-serif" font-weight="500" font-size="57" transform="matrix(1 0 0 1 3282.61 1239)">大学院</text></g></g><g clip-path="url(#clip37)"><g clip-path="url(#clip38)"><text fill="#595959" font-family="Yu Gothic,Yu Gothic_MSFontService,sans-serif" font-weight="500" font-size="57" transform="matrix(1 0 0 1 3454.48 1239)">(n=591)</text></g></g><g clip-path="url(#clip39)"><g clip-path="url(#clip40)"><text fill="#595959" font-family="Yu Gothic,Yu Gothic_MSFontService,sans-serif" font-weight="500" font-size="57" transform="matrix(1 0 0 1 3136.22 1088)">学部</text></g></g><g clip-path="url(#clip41)"><g clip-path="url(#clip42)"><text fill="#595959" font-family="Yu Gothic,Yu Gothic_MSFontService,sans-serif" font-weight="500" font-size="57" transform="matrix(1 0 0 1 3250.8 1088)">3</text></g></g><g clip-path="url(#clip43)"><g clip-path="url(#clip44)"><text fill="#595959" font-family="Yu Gothic,Yu Gothic_MSFontService,sans-serif" font-weight="500" font-size="57" transform="matrix(1 0 0 1 3282.61 1088)">年以上</text></g></g><g clip-path="url(#clip45)"><g clip-path="url(#clip46)"><text fill="#595959" font-family="Yu Gothic,Yu Gothic_MSFontService,sans-serif" font-weight="500" font-size="57" transform="matrix(1 0 0 1 3454.48 1088)">(n=390)</text></g></g><g clip-path="url(#clip47)"><g clip-path="url(#clip48)"><text fill="#595959" font-family="Yu Gothic,Yu Gothic_MSFontService,sans-serif" font-weight="500" font-size="57" transform="matrix(1 0 0 1 3250.8 937)">学部</text></g></g><g clip-path="url(#clip49)"><g clip-path="url(#clip50)"><text fill="#595959" font-family="Yu Gothic,Yu Gothic_MSFontService,sans-serif" font-weight="500" font-size="57" transform="matrix(1 0 0 1 3365.38 937)">2</text></g></g><g clip-path="url(#clip51)"><g clip-path="url(#clip52)"><text fill="#595959" font-family="Yu Gothic,Yu Gothic_MSFontService,sans-serif" font-weight="500" font-size="57" transform="matrix(1 0 0 1 3397.19 937)">年</text></g></g><g clip-path="url(#clip53)"><g clip-path="url(#clip54)"><text fill="#595959" font-family="Yu Gothic,Yu Gothic_MSFontService,sans-serif" font-weight="500" font-size="57" transform="matrix(1 0 0 1 3454.48 937)">(n=257)</text></g></g><g clip-path="url(#clip55)"><g clip-path="url(#clip56)"><text fill="#595959" font-family="Yu Gothic,Yu Gothic_MSFontService,sans-serif" font-weight="500" font-size="57" transform="matrix(1 0 0 1 3250.8 786)">学部</text></g></g><g clip-path="url(#clip57)"><g clip-path="url(#clip58)"><text fill="#595959" font-family="Yu Gothic,Yu Gothic_MSFontService,sans-serif" font-weight="500" font-size="57" transform="matrix(1 0 0 1 3365.38 786)">1</text></g></g><g clip-path="url(#clip59)"><g clip-path="url(#clip60)"><text fill="#595959" font-family="Yu Gothic,Yu Gothic_MSFontService,sans-serif" font-weight="500" font-size="57" transform="matrix(1 0 0 1 3397.19 786)">年</text></g></g><g clip-path="url(#clip61)"><g clip-path="url(#clip62)"><text fill="#595959" font-family="Yu Gothic,Yu Gothic_MSFontService,sans-serif" font-weight="500" font-size="57" transform="matrix(1 0 0 1 3454.48 786)">(n=242)</text></g></g><g clip-path="url(#clip63)"><g clip-path="url(#clip64)"><text fill="#595959" font-family="Yu Gothic,Yu Gothic_MSFontService,sans-serif" font-weight="500" font-size="57" transform="matrix(1 0 0 1 3308.09 635)">全体</text></g></g><g clip-path="url(#clip65)"><g clip-path="url(#clip66)"><text fill="#595959" font-family="Yu Gothic,Yu Gothic_MSFontService,sans-serif" font-weight="500" font-size="57" transform="matrix(1 0 0 1 3422.67 635)">(n=1500)</text></g></g><g clip-path="url(#clip67)"><rect x="5656.5" y="862.5" width="31" height="31.9999" stroke="#000000" stroke-width="4.58333" stroke-linejoin="round" stroke-miterlimit="10" fill="#FFFFFF"/></g><g clip-path="url(#clip68)"><text fill="#595959" font-family="Yu Gothic,Yu Gothic_MSFontService,sans-serif" font-weight="500" font-size="55" transform="matrix(1 0 0 1 5702.14 893)">1</text></g><g clip-path="url(#clip69)"><text fill="#595959" font-family="Yu Gothic,Yu Gothic_MSFontService,sans-serif" font-weight="500" font-size="55" transform="matrix(1 0 0 1 5732.67 893)">未満</text></g><g clip-path="url(#clip70)"><rect x="5656.5" y="959.5" width="31" height="31.9999" stroke="#000000" stroke-width="4.58333" stroke-linejoin="round" stroke-miterlimit="10" fill="#F1F8FD"/></g><g clip-path="url(#clip71)"><text fill="#595959" font-family="Yu Gothic,Yu Gothic_MSFontService,sans-serif" font-weight="500" font-size="55" transform="matrix(1 0 0 1 5702.14 991)">1</text></g><g clip-path="url(#clip72)"><text fill="#595959" font-family="Yu Gothic,Yu Gothic_MSFontService,sans-serif" font-weight="500" font-size="55" transform="matrix(1 0 0 1 5732.67 991)">以上</text></g><g clip-path="url(#clip73)"><text fill="#595959" font-family="Yu Gothic,Yu Gothic_MSFontService,sans-serif" font-weight="500" font-size="55" transform="matrix(1 0 0 1 5842.67 991)">-</text></g><g clip-path="url(#clip74)"><text fill="#595959" font-family="Yu Gothic,Yu Gothic_MSFontService,sans-serif" font-weight="500" font-size="55" transform="matrix(1 0 0 1 5866.23 991)">3</text></g><g clip-path="url(#clip75)"><text fill="#595959" font-family="Yu Gothic,Yu Gothic_MSFontService,sans-serif" font-weight="500" font-size="55" transform="matrix(1 0 0 1 5896.75 991)">未満</text></g><g clip-path="url(#clip76)"><rect x="5656.5" y="1057.5" width="31" height="32" stroke="#000000" stroke-width="4.58333" stroke-linejoin="round" stroke-miterlimit="10" fill="#C2DDF6"/></g><g clip-path="url(#clip77)"><text fill="#595959" font-family="Yu Gothic,Yu Gothic_MSFontService,sans-serif" font-weight="500" font-size="55" transform="matrix(1 0 0 1 5702.14 1088)">3</text></g><g clip-path="url(#clip78)"><text fill="#595959" font-family="Yu Gothic,Yu Gothic_MSFontService,sans-serif" font-weight="500" font-size="55" transform="matrix(1 0 0 1 5732.67 1088)">以上</text></g><rect x="3065.5" y="354.5" width="2988" height="1243" stroke="#000000" stroke-width="4.58333" stroke-linejoin="round" stroke-miterlimit="10" fill="none"/><g clip-path="url(#clip79)"><g clip-path="url(#clip80)"><text font-family="Yu Gothic,Yu Gothic_MSFontService,sans-serif" font-weight="500" font-size="73" transform="matrix(1 0 0 1 3123.88 466)">【授業形式】</text></g></g><g clip-path="url(#clip81)"><g clip-path="url(#clip82)"><text font-family="Yu Gothic,Yu Gothic_MSFontService,sans-serif" font-weight="500" font-size="73" transform="matrix(1 0 0 1 3563.88 466)">7.</text></g></g><g clip-path="url(#clip83)"><g clip-path="url(#clip84)"><text font-family="Yu Gothic,Yu Gothic_MSFontService,sans-serif" font-weight="500" font-size="73" transform="matrix(1 0 0 1 3623.57 466)">オンデマンド方式（事前に録画されたビデオの配信が中心）</text></g></g><g clip-path="url(#clip85)"><text font-family="Yu Gothic,Yu Gothic_MSFontService,sans-serif" font-weight="400" font-size="55" transform="matrix(1 0 0 1 5687.72 753)">平均コマ数</text></g><g clip-path="url(#clip86)"><path d="M5688.11 759.392 5756.86 759.392 5825.61 759.392 5894.36 759.392 5963.11 759.392 5963.11 762.392 5894.36 762.392 5825.61 762.392 5756.86 762.392 5688.11 762.392Z" fill-rule="evenodd"/></g></g></svg>