<svg width="2986" height="1252" xmlns="http://www.w3.org/2000/svg" xmlns:xlink="http://www.w3.org/1999/xlink" overflow="hidden"><defs><clipPath id="clip0"><rect x="3245" y="723" width="2986" height="1252"/></clipPath><clipPath id="clip1"><rect x="3247" y="724" width="2980" height="1248"/></clipPath><clipPath id="clip2"><rect x="3885" y="1001" width="1795" height="836"/></clipPath><clipPath id="clip3"><rect x="3885" y="1001" width="1795" height="836"/></clipPath><clipPath id="clip4"><rect x="3885" y="1001" width="1795" height="836"/></clipPath><clipPath id="clip5"><rect x="3885" y="1001" width="1795" height="836"/></clipPath><clipPath id="clip6"><rect x="3885" y="1001" width="1795" height="836"/></clipPath><clipPath id="clip7"><rect x="3885" y="1001" width="1795" height="836"/></clipPath><clipPath id="clip8"><rect x="3885" y="1001" width="1795" height="836"/></clipPath><clipPath id="clip9"><rect x="3885" y="1001" width="1795" height="836"/></clipPath><clipPath id="clip10"><rect x="3885" y="1001" width="1795" height="836"/></clipPath><clipPath id="clip11"><rect x="3885" y="1001" width="1795" height="836"/></clipPath><clipPath id="clip12"><rect x="3885" y="1001" width="1795" height="836"/></clipPath><clipPath id="clip13"><rect x="3247" y="724" width="2980" height="1248"/></clipPath><clipPath id="clip14"><rect x="3247" y="724" width="2980" height="1248"/></clipPath><clipPath id="clip15"><rect x="3247" y="724" width="2980" height="1248"/></clipPath><clipPath id="clip16"><rect x="3247" y="724" width="2980" height="1248"/></clipPath><clipPath id="clip17"><rect x="3247" y="724" width="2980" height="1248"/></clipPath><clipPath id="clip18"><rect x="3247" y="724" width="2980" height="1248"/></clipPath><clipPath id="clip19"><rect x="3247" y="724" width="2980" height="1248"/></clipPath><clipPath id="clip20"><rect x="3247" y="724" width="2980" height="1248"/></clipPath><clipPath id="clip21"><rect x="3247" y="724" width="2980" height="1248"/></clipPath><clipPath id="clip22"><rect x="3247" y="724" width="2980" height="1248"/></clipPath><clipPath id="clip23"><rect x="3247" y="724" width="2980" height="1248"/></clipPath><clipPath id="clip24"><rect x="3247" y="724" width="2980" height="1248"/></clipPath><clipPath id="clip25"><rect x="3247" y="724" width="2980" height="1248"/></clipPath><clipPath id="clip26"><rect x="3247" y="724" width="2980" height="1248"/></clipPath><clipPath id="clip27"><rect x="3247" y="724" width="2980" height="1248"/></clipPath><clipPath id="clip28"><rect x="3247" y="724" width="2980" height="1248"/></clipPath><clipPath id="clip29"><rect x="3247" y="724" width="2980" height="1248"/></clipPath><clipPath id="clip30"><rect x="3247" y="724" width="2980" height="1248"/></clipPath><clipPath id="clip31"><rect x="3247" y="724" width="2980" height="1248"/></clipPath><clipPath id="clip32"><rect x="3247" y="724" width="2980" height="1248"/></clipPath><clipPath id="clip33"><rect x="3247" y="724" width="2980" height="1248"/></clipPath><clipPath id="clip34"><rect x="3247" y="724" width="2980" height="1248"/></clipPath><clipPath id="clip35"><rect x="3247" y="724" width="2980" height="1248"/></clipPath><clipPath id="clip36"><rect x="3247" y="724" width="2980" height="1248"/></clipPath><clipPath id="clip37"><rect x="3247" y="724" width="2980" height="1248"/></clipPath><clipPath id="clip38"><rect x="3247" y="724" width="2980" height="1248"/></clipPath><clipPath id="clip39"><rect x="3247" y="724" width="2980" height="1248"/></clipPath><clipPath id="clip40"><rect x="3247" y="724" width="2980" height="1248"/></clipPath><clipPath id="clip41"><rect x="3247" y="724" width="2980" height="1248"/></clipPath><clipPath id="clip42"><rect x="3247" y="724" width="2980" height="1248"/></clipPath><clipPath id="clip43"><rect x="3247" y="724" width="2980" height="1248"/></clipPath><clipPath id="clip44"><rect x="3247" y="724" width="2980" height="1248"/></clipPath><clipPath id="clip45"><rect x="3247" y="724" width="2980" height="1248"/></clipPath><clipPath id="clip46"><rect x="3247" y="724" width="2980" height="1248"/></clipPath><clipPath id="clip47"><rect x="3247" y="724" width="2980" height="1248"/></clipPath><clipPath id="clip48"><rect x="3247" y="724" width="2980" height="1248"/></clipPath><clipPath id="clip49"><rect x="3247" y="724" width="2980" height="1248"/></clipPath><clipPath id="clip50"><rect x="3247" y="724" width="2980" height="1248"/></clipPath><clipPath id="clip51"><rect x="3247" y="724" width="2980" height="1248"/></clipPath><clipPath id="clip52"><rect x="3247" y="724" width="2980" height="1248"/></clipPath><clipPath id="clip53"><rect x="3247" y="724" width="2980" height="1248"/></clipPath><clipPath id="clip54"><rect x="3247" y="724" width="2980" height="1248"/></clipPath><clipPath id="clip55"><rect x="3247" y="724" width="2980" height="1248"/></clipPath><clipPath id="clip56"><rect x="3247" y="724" width="2980" height="1248"/></clipPath><clipPath id="clip57"><rect x="3247" y="724" width="2980" height="1248"/></clipPath><clipPath id="clip58"><rect x="3247" y="724" width="2980" height="1248"/></clipPath><clipPath id="clip59"><rect x="3247" y="724" width="2980" height="1248"/></clipPath><clipPath id="clip60"><rect x="3247" y="724" width="2980" height="1248"/></clipPath><clipPath id="clip61"><rect x="3247" y="724" width="2980" height="1248"/></clipPath><clipPath id="clip62"><rect x="3247" y="724" width="2980" height="1248"/></clipPath><clipPath id="clip63"><rect x="3247" y="724" width="2980" height="1248"/></clipPath><clipPath id="clip64"><rect x="3247" y="724" width="2980" height="1248"/></clipPath><clipPath id="clip65"><rect x="3247" y="724" width="2980" height="1248"/></clipPath><clipPath id="clip66"><rect x="3247" y="724" width="2980" height="1248"/></clipPath><clipPath id="clip67"><rect x="3247" y="724" width="2980" height="1248"/></clipPath><clipPath id="clip68"><rect x="3247" y="724" width="2980" height="1248"/></clipPath><clipPath id="clip69"><rect x="3247" y="724" width="2980" height="1248"/></clipPath><clipPath id="clip70"><rect x="3247" y="724" width="2980" height="1248"/></clipPath><clipPath id="clip71"><rect x="3247" y="724" width="2980" height="1248"/></clipPath><clipPath id="clip72"><rect x="2434" y="1691" width="2476" height="140"/></clipPath><clipPath id="clip73"><rect x="3247" y="724" width="2980" height="1248"/></clipPath><clipPath id="clip74"><rect x="2434" y="1691" width="2476" height="140"/></clipPath><clipPath id="clip75"><rect x="3247" y="724" width="2980" height="1248"/></clipPath><clipPath id="clip76"><rect x="2306" y="1552" width="2699" height="140"/></clipPath><clipPath id="clip77"><rect x="3247" y="724" width="2980" height="1248"/></clipPath><clipPath id="clip78"><rect x="2306" y="1552" width="2699" height="140"/></clipPath><clipPath id="clip79"><rect x="3247" y="724" width="2980" height="1248"/></clipPath><clipPath id="clip80"><rect x="1721" y="1413" width="3724" height="140"/></clipPath><clipPath id="clip81"><rect x="3247" y="724" width="2980" height="1248"/></clipPath><clipPath id="clip82"><rect x="1721" y="1413" width="3724" height="140"/></clipPath><clipPath id="clip83"><rect x="3247" y="724" width="2980" height="1248"/></clipPath><clipPath id="clip84"><rect x="1721" y="1413" width="3724" height="140"/></clipPath><clipPath id="clip85"><rect x="3247" y="724" width="2980" height="1248"/></clipPath><clipPath id="clip86"><rect x="1721" y="1413" width="3724" height="140"/></clipPath><clipPath id="clip87"><rect x="3247" y="724" width="2980" height="1248"/></clipPath><clipPath id="clip88"><rect x="2179" y="1275" width="2922" height="139"/></clipPath><clipPath id="clip89"><rect x="3247" y="724" width="2980" height="1248"/></clipPath><clipPath id="clip90"><rect x="2179" y="1275" width="2922" height="139"/></clipPath><clipPath id="clip91"><rect x="3247" y="724" width="2980" height="1248"/></clipPath><clipPath id="clip92"><rect x="2179" y="1275" width="2922" height="139"/></clipPath><clipPath id="clip93"><rect x="3247" y="724" width="2980" height="1248"/></clipPath><clipPath id="clip94"><rect x="2179" y="1275" width="2922" height="139"/></clipPath><clipPath id="clip95"><rect x="3247" y="724" width="2980" height="1248"/></clipPath><clipPath id="clip96"><rect x="2179" y="1136" width="2922" height="140"/></clipPath><clipPath id="clip97"><rect x="3247" y="724" width="2980" height="1248"/></clipPath><clipPath id="clip98"><rect x="2179" y="1136" width="2922" height="140"/></clipPath><clipPath id="clip99"><rect x="3247" y="724" width="2980" height="1248"/></clipPath><clipPath id="clip100"><rect x="2179" y="1136" width="2922" height="140"/></clipPath><clipPath id="clip101"><rect x="3247" y="724" width="2980" height="1248"/></clipPath><clipPath id="clip102"><rect x="2179" y="1136" width="2922" height="140"/></clipPath><clipPath id="clip103"><rect x="3247" y="724" width="2980" height="1248"/></clipPath><clipPath id="clip104"><rect x="2408" y="997" width="2521" height="140"/></clipPath><clipPath id="clip105"><rect x="3247" y="724" width="2980" height="1248"/></clipPath><clipPath id="clip106"><rect x="2408" y="997" width="2521" height="140"/></clipPath><clipPath id="clip107"><rect x="3247" y="724" width="2980" height="1248"/></clipPath><clipPath id="clip108"><rect x="3247" y="724" width="2980" height="1248"/></clipPath><clipPath id="clip109"><rect x="3247" y="724" width="2980" height="1248"/></clipPath><clipPath id="clip110"><rect x="3247" y="724" width="2980" height="1248"/></clipPath><clipPath id="clip111"><rect x="3247" y="724" width="2980" height="1248"/></clipPath><clipPath id="clip112"><rect x="3247" y="724" width="2980" height="1248"/></clipPath><clipPath id="clip113"><rect x="3247" y="724" width="2980" height="1248"/></clipPath><clipPath id="clip114"><rect x="3247" y="724" width="2980" height="1248"/></clipPath><clipPath id="clip115"><rect x="3247" y="724" width="2980" height="1248"/></clipPath><clipPath id="clip116"><rect x="3247" y="724" width="2980" height="1248"/></clipPath><clipPath id="clip117"><rect x="3247" y="724" width="2980" height="1248"/></clipPath><clipPath id="clip118"><rect x="3247" y="724" width="2980" height="1248"/></clipPath><clipPath id="clip119"><rect x="3247" y="724" width="2980" height="1248"/></clipPath><clipPath id="clip120"><rect x="3247" y="724" width="2980" height="1248"/></clipPath><clipPath id="clip121"><rect x="3247" y="724" width="2980" height="1248"/></clipPath><clipPath id="clip122"><rect x="3247" y="724" width="2980" height="1248"/></clipPath><clipPath id="clip123"><rect x="3247" y="724" width="2980" height="1248"/></clipPath><clipPath id="clip124"><rect x="3247" y="724" width="2980" height="1248"/></clipPath><clipPath id="clip125"><rect x="3247" y="724" width="2980" height="1248"/></clipPath><clipPath id="clip126"><rect x="3247" y="724" width="2980" height="1248"/></clipPath><clipPath id="clip127"><rect x="3247" y="724" width="2980" height="1248"/></clipPath><clipPath id="clip128"><rect x="3247" y="724" width="2980" height="1248"/></clipPath><clipPath id="clip129"><rect x="3247" y="724" width="2980" height="1248"/></clipPath><clipPath id="clip130"><rect x="3247" y="724" width="2980" height="1248"/></clipPath><clipPath id="clip131"><rect x="3247" y="724" width="2980" height="1248"/></clipPath><clipPath id="clip132"><rect x="3247" y="724" width="2980" height="1248"/></clipPath><clipPath id="clip133"><rect x="3247" y="724" width="2980" height="1248"/></clipPath><clipPath id="clip134"><rect x="3247" y="724" width="2980" height="1248"/></clipPath><clipPath id="clip135"><rect x="3247" y="724" width="2980" height="1248"/></clipPath><clipPath id="clip136"><rect x="3247" y="724" width="2980" height="1248"/></clipPath><clipPath id="clip137"><rect x="3247" y="724" width="2980" height="1248"/></clipPath><clipPath id="clip138"><rect x="3247" y="724" width="2980" height="1248"/></clipPath><clipPath id="clip139"><rect x="3247" y="724" width="2980" height="1248"/></clipPath><clipPath id="clip140"><rect x="3247" y="724" width="2980" height="1248"/></clipPath><clipPath id="clip141"><rect x="3247" y="724" width="2980" height="1248"/></clipPath><clipPath id="clip142"><rect x="3247" y="724" width="2980" height="1248"/></clipPath><clipPath id="clip143"><rect x="3247" y="724" width="2980" height="1248"/></clipPath><clipPath id="clip144"><rect x="3247" y="724" width="2980" height="1248"/></clipPath><clipPath id="clip145"><rect x="3247" y="724" width="2980" height="1248"/></clipPath><clipPath id="clip146"><rect x="3247" y="724" width="2980" height="1248"/></clipPath><clipPath id="clip147"><rect x="3247" y="724" width="2980" height="1248"/></clipPath><clipPath id="clip148"><rect x="3247" y="724" width="2980" height="1248"/></clipPath><clipPath id="clip149"><rect x="3247" y="724" width="2980" height="1248"/></clipPath><clipPath id="clip150"><rect x="3247" y="724" width="2980" height="1248"/></clipPath><clipPath id="clip151"><rect x="3247" y="724" width="2980" height="1248"/></clipPath><clipPath id="clip152"><rect x="3247" y="724" width="2980" height="1248"/></clipPath><clipPath id="clip153"><rect x="3247" y="724" width="2980" height="1248"/></clipPath><clipPath id="clip154"><rect x="3247" y="724" width="2980" height="1248"/></clipPath><clipPath id="clip155"><rect x="3247" y="724" width="2981" height="1249"/></clipPath><clipPath id="clip156"><rect x="-5169" y="733" width="19775" height="394"/></clipPath><clipPath id="clip157"><rect x="3247" y="724" width="2981" height="1249"/></clipPath><clipPath id="clip158"><rect x="-5169" y="733" width="19775" height="394"/></clipPath><clipPath id="clip159"><rect x="3247" y="724" width="2981" height="1249"/></clipPath><clipPath id="clip160"><rect x="-5169" y="733" width="19775" height="394"/></clipPath><clipPath id="clip161"><rect x="3247" y="724" width="2981" height="1249"/></clipPath><clipPath id="clip162"><rect x="-5169" y="733" width="19775" height="394"/></clipPath><clipPath id="clip163"><rect x="3247" y="724" width="2981" height="1249"/></clipPath><clipPath id="clip164"><rect x="-5169" y="733" width="19775" height="394"/></clipPath><clipPath id="clip165"><rect x="3247" y="724" width="2981" height="1249"/></clipPath><clipPath id="clip166"><rect x="-5169" y="733" width="19775" height="394"/></clipPath><clipPath id="clip167"><rect x="3247" y="724" width="2981" height="1249"/></clipPath><clipPath id="clip168"><rect x="-5169" y="733" width="19775" height="394"/></clipPath><clipPath id="clip169"><rect x="3247" y="724" width="2981" height="1249"/></clipPath><clipPath id="clip170"><rect x="-5169" y="733" width="19775" height="394"/></clipPath><clipPath id="clip171"><rect x="3247" y="724" width="2981" height="1249"/></clipPath><clipPath id="clip172"><rect x="-5169" y="733" width="19775" height="394"/></clipPath><clipPath id="clip173"><rect x="3247" y="724" width="2981" height="1249"/></clipPath></defs><g clip-path="url(#clip0)" transform="translate(-3245 -723)"><rect x="3247" y="725" width="2981" height="1247" fill="#FFFFFF"/><g clip-path="url(#clip1)"><path d="M4333.64 1001.5 4333.64 1834.5M4781.66 1001.5 4781.66 1834.5M5229.67 1001.5 5229.67 1834.5M5677.5 1001.5 5677.5 1834.5" stroke="#D9D9D9" stroke-width="4.58333" stroke-linejoin="round" stroke-miterlimit="10" fill="none"/></g><g clip-path="url(#clip2)"><path d="M4295.5 1116.5 3885.5 1116.5 3885.5 1025.5 4295.5 1025.5Z" stroke="#000000" stroke-width="4.58333" stroke-linejoin="round" stroke-miterlimit="10" fill="#FFFFFF"/></g><g clip-path="url(#clip3)"><path d="M4781.66 1810.56 3885.5 1810.56 3885.5 1719.56 4781.66 1719.56ZM4229.64 1671.55 3885.5 1671.55 3885.5 1580.55 4229.64 1580.55ZM4244.64 1532.55 3885.5 1532.55 3885.5 1441.55 4244.64 1441.55ZM4749.66 1393.55 3885.5 1393.55 3885.5 1303.54 4749.66 1303.54ZM3998.63 1255.54 3885.5 1255.54 3885.5 1164.54 3998.63 1164.54Z" stroke="#000000" stroke-width="4.58333" stroke-linejoin="round" stroke-miterlimit="10" fill="#FFFFFF"/></g><g clip-path="url(#clip4)"><path d="M4637.5 1116.5 4295.5 1116.5 4295.5 1025.5 4637.5 1025.5Z" stroke="#000000" stroke-width="4.58333" stroke-linejoin="round" stroke-miterlimit="10" fill="#F1F8FD"/></g><g clip-path="url(#clip5)"><path d="M5020.67 1810.56 4781.66 1810.56 4781.66 1719.56 5020.67 1719.56ZM4639.65 1671.55 4229.64 1671.55 4229.64 1580.55 4639.65 1580.55ZM4603.65 1532.55 4244.64 1532.55 4244.64 1441.55 4603.65 1441.55ZM5103.67 1393.55 4749.66 1393.55 4749.66 1303.54 5103.67 1303.54ZM4112.64 1255.54 3998.63 1255.54 3998.63 1164.54 4112.64 1164.54Z" stroke="#000000" stroke-width="4.58333" stroke-linejoin="round" stroke-miterlimit="10" fill="#F1F8FD"/></g><g clip-path="url(#clip6)"><path d="M5199.67 1810.56 5020.67 1810.56 5020.67 1719.56 5199.67 1719.56ZM4848.66 1671.55 4639.65 1671.55 4639.65 1580.55 4848.66 1580.55ZM4818.66 1532.55 4603.65 1532.55 4603.65 1441.55 4818.66 1441.55ZM5276.67 1393.55 5103.67 1393.55 5103.67 1303.54 5276.67 1303.54ZM4445.65 1255.54 4112.64 1255.54 4112.64 1164.54 4445.65 1164.54ZM4859.66 1116.54 4637.65 1116.54 4637.65 1025.53 4859.66 1025.53Z" stroke="#000000" stroke-width="4.58333" stroke-linejoin="round" stroke-miterlimit="10" fill="#C2DDF6"/></g><g clip-path="url(#clip7)"><path d="M5318.67 1810.56 5199.67 1810.56 5199.67 1719.56 5318.67 1719.56ZM5082.67 1671.55 4848.66 1671.55 4848.66 1580.55 5082.67 1580.55ZM5130.67 1532.55 4818.66 1532.55 4818.66 1441.55 5130.67 1441.55ZM5497.68 1393.55 5276.67 1393.55 5276.67 1303.54 5497.68 1303.54ZM5297.67 1255.54 4445.65 1255.54 4445.65 1164.54 5297.67 1164.54ZM5198.67 1116.54 4859.66 1116.54 4859.66 1025.53 5198.67 1025.53Z" stroke="#000000" stroke-width="4.58333" stroke-linejoin="round" stroke-miterlimit="10" fill="#9ECBF0"/></g><g clip-path="url(#clip8)"><path d="M5497.68 1810.56 5318.67 1810.56 5318.67 1719.56 5497.68 1719.56ZM5226.67 1671.55 5082.67 1671.55 5082.67 1580.55 5226.67 1580.55ZM5341.68 1532.55 5130.67 1532.55 5130.67 1441.55 5341.68 1441.55ZM5560.68 1393.55 5497.68 1393.55 5497.68 1303.54 5560.68 1303.54ZM5550.68 1255.54 5297.67 1255.54 5297.67 1164.54 5550.68 1164.54ZM5361.68 1116.54 5198.67 1116.54 5198.67 1025.53 5361.68 1025.53Z" stroke="#000000" stroke-width="4.58333" stroke-linejoin="round" stroke-miterlimit="10" fill="#8AC1EE"/></g><g clip-path="url(#clip9)"><path d="M5676.69 1810.56 5497.68 1810.56 5497.68 1719.56 5676.69 1719.56ZM5319.67 1671.55 5226.67 1671.55 5226.67 1580.55 5319.67 1580.55ZM5485.68 1532.55 5341.68 1532.55 5341.68 1441.55 5485.68 1441.55ZM5613.68 1393.55 5560.68 1393.55 5560.68 1303.54 5613.68 1303.54ZM5616.68 1255.54 5550.68 1255.54 5550.68 1164.54 5616.68 1164.54ZM5458.68 1116.54 5361.68 1116.54 5361.68 1025.53 5458.68 1025.53Z" stroke="#000000" stroke-width="4.58333" stroke-linejoin="round" stroke-miterlimit="10" fill="#4CA0E6"/></g><g clip-path="url(#clip10)"><path d="M5403.68 1671.55 5319.67 1671.55 5319.67 1580.55 5403.68 1580.55ZM5551.68 1532.55 5485.68 1532.55 5485.68 1441.55 5551.68 1441.55ZM5636.69 1393.55 5613.68 1393.55 5613.68 1303.54 5636.69 1303.54ZM5650.69 1255.54 5616.68 1255.54 5616.68 1164.54 5650.69 1164.54ZM5519.68 1116.54 5458.68 1116.54 5458.68 1025.53 5519.68 1025.53Z" stroke="#095085" stroke-width="4.58333" stroke-linejoin="round" stroke-miterlimit="10" fill="#2089E0"/></g><g clip-path="url(#clip11)"><path d="M5474.68 1671.55 5403.68 1671.55 5403.68 1580.55 5474.68 1580.55ZM5587.68 1532.55 5551.68 1532.55 5551.68 1441.55 5587.68 1441.55ZM5653.69 1393.55 5636.69 1393.55 5636.69 1303.54 5653.69 1303.54ZM5670.69 1255.54 5650.69 1255.54 5650.69 1164.54 5670.69 1164.54ZM5563.68 1116.54 5519.68 1116.54 5519.68 1025.53 5563.68 1025.53Z" stroke="#000000" stroke-width="4.58333" stroke-linejoin="round" stroke-miterlimit="10" fill="#0C6CB4"/></g><g clip-path="url(#clip12)"><path d="M5676.69 1671.55 5474.68 1671.55 5474.68 1580.55 5676.69 1580.55ZM5676.69 1532.55 5587.68 1532.55 5587.68 1441.55 5676.69 1441.55ZM5676.69 1393.55 5653.69 1393.55 5653.69 1303.54 5676.69 1303.54ZM5676.69 1255.54 5670.69 1255.54 5670.69 1164.54 5676.69 1164.54ZM5676.69 1116.54 5563.68 1116.54 5563.68 1025.53 5676.69 1025.53Z" stroke="#000000" stroke-width="4.58333" stroke-linejoin="round" stroke-miterlimit="10" fill="#095085"/></g><g clip-path="url(#clip13)"><path d="M0 0 0.000360892 833" stroke="#D9D9D9" stroke-width="3.4375" stroke-linejoin="round" stroke-miterlimit="10" fill="none" fill-rule="evenodd" transform="matrix(1 0 0 -1 3885.5 1834.5)"/></g><g clip-path="url(#clip14)"><text fill="#404040" font-family="Yu Gothic,Yu Gothic_MSFontService,sans-serif" font-weight="700" font-size="55" transform="matrix(1 0 0 1 4302.15 1784)">15</text></g><g clip-path="url(#clip15)"><text fill="#404040" font-family="Yu Gothic,Yu Gothic_MSFontService,sans-serif" font-weight="700" font-size="55" transform="matrix(1 0 0 1 4010.43 1645)">151</text></g><g clip-path="url(#clip16)"><text fill="#404040" font-family="Yu Gothic,Yu Gothic_MSFontService,sans-serif" font-weight="700" font-size="55" transform="matrix(1 0 0 1 4033.87 1506)">92</text></g><g clip-path="url(#clip17)"><text fill="#404040" font-family="Yu Gothic,Yu Gothic_MSFontService,sans-serif" font-weight="700" font-size="55" transform="matrix(1 0 0 1 4270.45 1368)">149</text></g><g clip-path="url(#clip18)"><text fill="#404040" font-family="Yu Gothic,Yu Gothic_MSFontService,sans-serif" font-weight="700" font-size="55" transform="matrix(1 0 0 1 3910.96 1229)">17</text></g><g clip-path="url(#clip19)"><text fill="#404040" font-family="Yu Gothic,Yu Gothic_MSFontService,sans-serif" font-weight="700" font-size="55" transform="matrix(1 0 0 1 4043.41 1090)">424</text></g><g clip-path="url(#clip20)"><text fill="#404040" font-family="Yu Gothic,Yu Gothic_MSFontService,sans-serif" font-weight="700" font-size="55" transform="matrix(1 0 0 1 4885.12 1784)">4</text></g><g clip-path="url(#clip21)"><text fill="#404040" font-family="Yu Gothic,Yu Gothic_MSFontService,sans-serif" font-weight="700" font-size="55" transform="matrix(1 0 0 1 4387.1 1645)">180</text></g><g clip-path="url(#clip22)"><text fill="#404040" font-family="Yu Gothic,Yu Gothic_MSFontService,sans-serif" font-weight="700" font-size="55" transform="matrix(1 0 0 1 4392.88 1506)">92</text></g><g clip-path="url(#clip23)"><text fill="#404040" font-family="Yu Gothic,Yu Gothic_MSFontService,sans-serif" font-weight="700" font-size="55" transform="matrix(1 0 0 1 4894.85 1368)">61</text></g><g clip-path="url(#clip24)"><text fill="#404040" font-family="Yu Gothic,Yu Gothic_MSFontService,sans-serif" font-weight="700" font-size="55" transform="matrix(1 0 0 1 4024.16 1229)">17</text></g><g clip-path="url(#clip25)"><text fill="#404040" font-family="Yu Gothic,Yu Gothic_MSFontService,sans-serif" font-weight="700" font-size="55" transform="matrix(1 0 0 1 4419.23 1090)">354</text></g><g clip-path="url(#clip26)"><text fill="#404040" font-family="Yu Gothic,Yu Gothic_MSFontService,sans-serif" font-weight="700" font-size="55" transform="matrix(1 0 0 1 5094.08 1784)">3</text></g><g clip-path="url(#clip27)"><text fill="#404040" font-family="Yu Gothic,Yu Gothic_MSFontService,sans-serif" font-weight="700" font-size="55" transform="matrix(1 0 0 1 4712.39 1645)">92</text></g><g clip-path="url(#clip28)"><text fill="#404040" font-family="Yu Gothic,Yu Gothic_MSFontService,sans-serif" font-weight="700" font-size="55" transform="matrix(1 0 0 1 4679.7 1506)">55</text></g><g clip-path="url(#clip29)"><text fill="#404040" font-family="Yu Gothic,Yu Gothic_MSFontService,sans-serif" font-weight="700" font-size="55" transform="matrix(1 0 0 1 5158.6 1368)">30</text></g><g clip-path="url(#clip30)"><text fill="#404040" font-family="Yu Gothic,Yu Gothic_MSFontService,sans-serif" font-weight="700" font-size="55" transform="matrix(1 0 0 1 4247.22 1229)">50</text></g><g clip-path="url(#clip31)"><text fill="#404040" font-family="Yu Gothic,Yu Gothic_MSFontService,sans-serif" font-weight="700" font-size="55" transform="matrix(1 0 0 1 4701.33 1090)">230</text></g><g clip-path="url(#clip32)"><text fill="#404040" font-family="Yu Gothic,Yu Gothic_MSFontService,sans-serif" font-weight="700" font-size="55" transform="matrix(1 0 0 1 5243.34 1784)">2</text></g><g clip-path="url(#clip33)"><text fill="#404040" font-family="Yu Gothic,Yu Gothic_MSFontService,sans-serif" font-weight="700" font-size="55" transform="matrix(1 0 0 1 4918.52 1645)">103</text></g><g clip-path="url(#clip34)"><text fill="#404040" font-family="Yu Gothic,Yu Gothic_MSFontService,sans-serif" font-weight="700" font-size="55" transform="matrix(1 0 0 1 4943.1 1506)">80</text></g><g clip-path="url(#clip35)"><text fill="#404040" font-family="Yu Gothic,Yu Gothic_MSFontService,sans-serif" font-weight="700" font-size="55" transform="matrix(1 0 0 1 5355.68 1368)">38</text></g><g clip-path="url(#clip36)"><text fill="#404040" font-family="Yu Gothic,Yu Gothic_MSFontService,sans-serif" font-weight="700" font-size="55" transform="matrix(1 0 0 1 4824.06 1229)">128</text></g><g clip-path="url(#clip37)"><text fill="#404040" font-family="Yu Gothic,Yu Gothic_MSFontService,sans-serif" font-weight="700" font-size="55" transform="matrix(1 0 0 1 4981.98 1090)">351</text></g><g clip-path="url(#clip38)"><text fill="#404040" font-family="Yu Gothic,Yu Gothic_MSFontService,sans-serif" font-weight="700" font-size="55" transform="matrix(1 0 0 1 5392.61 1784)">3</text></g><g clip-path="url(#clip39)"><text fill="#404040" font-family="Yu Gothic,Yu Gothic_MSFontService,sans-serif" font-weight="700" font-size="55" transform="matrix(1 0 0 1 5123.19 1645)">63</text></g><g clip-path="url(#clip40)"><text fill="#404040" font-family="Yu Gothic,Yu Gothic_MSFontService,sans-serif" font-weight="700" font-size="55" transform="matrix(1 0 0 1 5204.55 1506)">54</text></g><g clip-path="url(#clip41)"><text fill="#404040" font-family="Yu Gothic,Yu Gothic_MSFontService,sans-serif" font-weight="700" font-size="55" transform="matrix(1 0 0 1 5497.7 1368)">11</text></g><g clip-path="url(#clip42)"><text fill="#404040" font-family="Yu Gothic,Yu Gothic_MSFontService,sans-serif" font-weight="700" font-size="55" transform="matrix(1 0 0 1 5392.49 1229)">38</text></g><g clip-path="url(#clip43)"><text fill="#404040" font-family="Yu Gothic,Yu Gothic_MSFontService,sans-serif" font-weight="700" font-size="55" transform="matrix(1 0 0 1 5233.16 1090)">169</text></g><g clip-path="url(#clip44)"><text fill="#404040" font-family="Yu Gothic,Yu Gothic_MSFontService,sans-serif" font-weight="700" font-size="55" transform="matrix(1 0 0 1 5571.72 1784)">3</text></g><g clip-path="url(#clip45)"><text fill="#404040" font-family="Yu Gothic,Yu Gothic_MSFontService,sans-serif" font-weight="700" font-size="55" transform="matrix(1 0 0 1 5241.54 1645)">41</text></g><g clip-path="url(#clip46)"><text fill="#404040" font-family="Yu Gothic,Yu Gothic_MSFontService,sans-serif" font-weight="700" font-size="55" transform="matrix(1 0 0 1 5382.11 1506)">37</text></g><g clip-path="url(#clip47)"><text fill="#404040" font-family="Yu Gothic,Yu Gothic_MSFontService,sans-serif" font-weight="700" font-size="55" transform="matrix(1 0 0 1 5571.43 1368)">9</text></g><g clip-path="url(#clip48)"><text fill="#404040" font-family="Yu Gothic,Yu Gothic_MSFontService,sans-serif" font-weight="700" font-size="55" transform="matrix(1 0 0 1 5552.29 1229)">10</text></g><g clip-path="url(#clip49)"><text fill="#404040" font-family="Yu Gothic,Yu Gothic_MSFontService,sans-serif" font-weight="700" font-size="55" transform="matrix(1 0 0 1 5363.1 1090)">100</text></g><g clip-path="url(#clip50)"><text fill="#404040" font-family="Yu Gothic,Yu Gothic_MSFontService,sans-serif" font-weight="700" font-size="55" transform="matrix(1 0 0 1 5330.3 1645)">37</text></g><g clip-path="url(#clip51)"><text fill="#404040" font-family="Yu Gothic,Yu Gothic_MSFontService,sans-serif" font-weight="700" font-size="55" transform="matrix(1 0 0 1 5487.47 1506)">17</text></g><g clip-path="url(#clip52)"><text fill="#404040" font-family="Yu Gothic,Yu Gothic_MSFontService,sans-serif" font-weight="700" font-size="55" transform="matrix(1 0 0 1 5577.11 1301)">4</text></g><g clip-path="url(#clip53)"><text fill="#404040" font-family="Yu Gothic,Yu Gothic_MSFontService,sans-serif" font-weight="700" font-size="55" transform="matrix(1 0 0 1 5618 1229)">5</text></g><g clip-path="url(#clip54)"><text fill="#404040" font-family="Yu Gothic,Yu Gothic_MSFontService,sans-serif" font-weight="700" font-size="55" transform="matrix(1 0 0 1 5457.6 1090)">63</text></g><g clip-path="url(#clip55)"><text fill="#FFFFFF" font-family="Yu Gothic,Yu Gothic_MSFontService,sans-serif" font-weight="700" font-size="55" transform="matrix(1 0 0 1 5407.68 1645)">31</text></g><g clip-path="url(#clip56)"><text fill="#FFFFFF" font-family="Yu Gothic,Yu Gothic_MSFontService,sans-serif" font-weight="700" font-size="55" transform="matrix(1 0 0 1 5553.97 1506)">9</text></g><g clip-path="url(#clip57)"><text fill="#404040" font-family="Yu Gothic,Yu Gothic_MSFontService,sans-serif" font-weight="700" font-size="55" transform="matrix(1 0 0 1 5629.4 1301)">3</text></g><g clip-path="url(#clip58)"><text fill="#FFFFFF" font-family="Yu Gothic,Yu Gothic_MSFontService,sans-serif" font-weight="700" font-size="55" transform="matrix(1 0 0 1 5644.63 1229)">3</text></g><g clip-path="url(#clip59)"><text font-family="Yu Gothic,Yu Gothic_MSFontService,sans-serif" font-weight="700" font-size="55" transform="matrix(1 0 0 1 5510.26 1024)">46</text></g><g clip-path="url(#clip60)"><text font-family="Yu Gothic,Yu Gothic_MSFontService,sans-serif" font-weight="700" font-size="55" transform="matrix(1 0 0 1 5661.28 1717)">0</text></g><g clip-path="url(#clip61)"><text fill="#FFFFFF" font-family="Yu Gothic,Yu Gothic_MSFontService,sans-serif" font-weight="700" font-size="55" transform="matrix(1 0 0 1 5544.23 1645)">89</text></g><g clip-path="url(#clip62)"><text fill="#FFFFFF" font-family="Yu Gothic,Yu Gothic_MSFontService,sans-serif" font-weight="700" font-size="55" transform="matrix(1 0 0 1 5600.63 1506)">23</text></g><g clip-path="url(#clip63)"><text fill="#404040" font-family="Yu Gothic,Yu Gothic_MSFontService,sans-serif" font-weight="700" font-size="55" transform="matrix(1 0 0 1 5681.68 1301)">4</text></g><g clip-path="url(#clip64)"><text fill="#404040" font-family="Yu Gothic,Yu Gothic_MSFontService,sans-serif" font-weight="700" font-size="55" transform="matrix(1 0 0 1 5680.87 1162)">1</text></g><g clip-path="url(#clip65)"><text fill="#FFFFFF" font-family="Yu Gothic,Yu Gothic_MSFontService,sans-serif" font-weight="700" font-size="55" transform="matrix(1 0 0 1 5573.23 1090)">117</text></g><g clip-path="url(#clip66)"><text fill="#595959" font-family="Yu Gothic,Yu Gothic_MSFontService,sans-serif" font-weight="500" font-size="60" transform="matrix(1 0 0 1 3845.41 1933)">0%</text></g><g clip-path="url(#clip67)"><text fill="#595959" font-family="Yu Gothic,Yu Gothic_MSFontService,sans-serif" font-weight="500" font-size="60" transform="matrix(1 0 0 1 4276.66 1933)">25%</text></g><g clip-path="url(#clip68)"><text fill="#595959" font-family="Yu Gothic,Yu Gothic_MSFontService,sans-serif" font-weight="500" font-size="60" transform="matrix(1 0 0 1 4724.44 1933)">50%</text></g><g clip-path="url(#clip69)"><text fill="#595959" font-family="Yu Gothic,Yu Gothic_MSFontService,sans-serif" font-weight="500" font-size="60" transform="matrix(1 0 0 1 5172.23 1933)">75%</text></g><g clip-path="url(#clip70)"><text fill="#595959" font-family="Yu Gothic,Yu Gothic_MSFontService,sans-serif" font-weight="500" font-size="60" transform="matrix(1 0 0 1 5603.48 1933)">100%</text></g><g clip-path="url(#clip71)"><g clip-path="url(#clip72)"><text fill="#595959" font-family="Yu Gothic,Yu Gothic_MSFontService,sans-serif" font-weight="500" font-size="57" transform="matrix(1 0 0 1 3494.92 1781)">その他</text></g></g><g clip-path="url(#clip73)"><g clip-path="url(#clip74)"><text fill="#595959" font-family="Yu Gothic,Yu Gothic_MSFontService,sans-serif" font-weight="500" font-size="57" transform="matrix(1 0 0 1 3666.8 1781)">(n=30)</text></g></g><g clip-path="url(#clip75)"><g clip-path="url(#clip76)"><text fill="#595959" font-family="Yu Gothic,Yu Gothic_MSFontService,sans-serif" font-weight="500" font-size="57" transform="matrix(1 0 0 1 3463.11 1642)">大学院</text></g></g><g clip-path="url(#clip77)"><g clip-path="url(#clip78)"><text fill="#595959" font-family="Yu Gothic,Yu Gothic_MSFontService,sans-serif" font-weight="500" font-size="57" transform="matrix(1 0 0 1 3634.99 1642)">(n=787)</text></g></g><g clip-path="url(#clip79)"><g clip-path="url(#clip80)"><text fill="#595959" font-family="Yu Gothic,Yu Gothic_MSFontService,sans-serif" font-weight="500" font-size="57" transform="matrix(1 0 0 1 3316.72 1503)">学部</text></g></g><g clip-path="url(#clip81)"><g clip-path="url(#clip82)"><text fill="#595959" font-family="Yu Gothic,Yu Gothic_MSFontService,sans-serif" font-weight="500" font-size="57" transform="matrix(1 0 0 1 3431.31 1503)">3</text></g></g><g clip-path="url(#clip83)"><g clip-path="url(#clip84)"><text fill="#595959" font-family="Yu Gothic,Yu Gothic_MSFontService,sans-serif" font-weight="500" font-size="57" transform="matrix(1 0 0 1 3463.11 1503)">年以上</text></g></g><g clip-path="url(#clip85)"><g clip-path="url(#clip86)"><text fill="#595959" font-family="Yu Gothic,Yu Gothic_MSFontService,sans-serif" font-weight="500" font-size="57" transform="matrix(1 0 0 1 3634.99 1503)">(n=459)</text></g></g><g clip-path="url(#clip87)"><g clip-path="url(#clip88)"><text fill="#595959" font-family="Yu Gothic,Yu Gothic_MSFontService,sans-serif" font-weight="500" font-size="57" transform="matrix(1 0 0 1 3431.31 1365)">学部</text></g></g><g clip-path="url(#clip89)"><g clip-path="url(#clip90)"><text fill="#595959" font-family="Yu Gothic,Yu Gothic_MSFontService,sans-serif" font-weight="500" font-size="57" transform="matrix(1 0 0 1 3545.89 1365)">2</text></g></g><g clip-path="url(#clip91)"><g clip-path="url(#clip92)"><text fill="#595959" font-family="Yu Gothic,Yu Gothic_MSFontService,sans-serif" font-weight="500" font-size="57" transform="matrix(1 0 0 1 3577.7 1365)">年</text></g></g><g clip-path="url(#clip93)"><g clip-path="url(#clip94)"><text fill="#595959" font-family="Yu Gothic,Yu Gothic_MSFontService,sans-serif" font-weight="500" font-size="57" transform="matrix(1 0 0 1 3634.99 1365)">(n=309)</text></g></g><g clip-path="url(#clip95)"><g clip-path="url(#clip96)"><text fill="#595959" font-family="Yu Gothic,Yu Gothic_MSFontService,sans-serif" font-weight="500" font-size="57" transform="matrix(1 0 0 1 3431.31 1226)">学部</text></g></g><g clip-path="url(#clip97)"><g clip-path="url(#clip98)"><text fill="#595959" font-family="Yu Gothic,Yu Gothic_MSFontService,sans-serif" font-weight="500" font-size="57" transform="matrix(1 0 0 1 3545.89 1226)">1</text></g></g><g clip-path="url(#clip99)"><g clip-path="url(#clip100)"><text fill="#595959" font-family="Yu Gothic,Yu Gothic_MSFontService,sans-serif" font-weight="500" font-size="57" transform="matrix(1 0 0 1 3577.7 1226)">年</text></g></g><g clip-path="url(#clip101)"><g clip-path="url(#clip102)"><text fill="#595959" font-family="Yu Gothic,Yu Gothic_MSFontService,sans-serif" font-weight="500" font-size="57" transform="matrix(1 0 0 1 3634.99 1226)">(n=269)</text></g></g><g clip-path="url(#clip103)"><g clip-path="url(#clip104)"><text fill="#595959" font-family="Yu Gothic,Yu Gothic_MSFontService,sans-serif" font-weight="500" font-size="57" transform="matrix(1 0 0 1 3488.6 1087)">全体</text></g></g><g clip-path="url(#clip105)"><g clip-path="url(#clip106)"><text fill="#595959" font-family="Yu Gothic,Yu Gothic_MSFontService,sans-serif" font-weight="500" font-size="57" transform="matrix(1 0 0 1 3603.18 1087)">(n=1854)</text></g></g><g clip-path="url(#clip107)"><rect x="5728.5" y="1045.5" width="28" height="27.0001" stroke="#000000" stroke-width="4.58333" stroke-linejoin="round" stroke-miterlimit="10" fill="#FFFFFF"/></g><g clip-path="url(#clip108)"><text fill="#595959" font-family="Yu Gothic,Yu Gothic_MSFontService,sans-serif" font-weight="500" font-size="48" transform="matrix(1 0 0 1 5796.32 1072)">0</text></g><g clip-path="url(#clip109)"><text fill="#595959" font-family="Yu Gothic,Yu Gothic_MSFontService,sans-serif" font-weight="500" font-size="48" transform="matrix(1 0 0 1 5823.04 1072)">日</text></g><g clip-path="url(#clip110)"><rect x="5728.5" y="1136.5" width="28" height="28.0002" stroke="#000000" stroke-width="4.58333" stroke-linejoin="round" stroke-miterlimit="10" fill="#F1F8FD"/></g><g clip-path="url(#clip111)"><text fill="#595959" font-family="Yu Gothic,Yu Gothic_MSFontService,sans-serif" font-weight="500" font-size="48" transform="matrix(1 0 0 1 5796.32 1164)">1</text></g><g clip-path="url(#clip112)"><text fill="#595959" font-family="Yu Gothic,Yu Gothic_MSFontService,sans-serif" font-weight="500" font-size="48" transform="matrix(1 0 0 1 5823.04 1164)">日以上</text></g><g clip-path="url(#clip113)"><text fill="#595959" font-family="Yu Gothic,Yu Gothic_MSFontService,sans-serif" font-weight="500" font-size="48" transform="matrix(1 0 0 1 5967.41 1164)">〜</text></g><g clip-path="url(#clip114)"><text fill="#595959" font-family="Yu Gothic,Yu Gothic_MSFontService,sans-serif" font-weight="500" font-size="48" transform="matrix(1 0 0 1 6042.99 1164)">5</text></g><g clip-path="url(#clip115)"><text fill="#595959" font-family="Yu Gothic,Yu Gothic_MSFontService,sans-serif" font-weight="500" font-size="48" transform="matrix(1 0 0 1 6069.71 1164)">日未満</text></g><g clip-path="url(#clip116)"><rect x="5728.5" y="1227.5" width="28" height="27.9999" stroke="#000000" stroke-width="4.58333" stroke-linejoin="round" stroke-miterlimit="10" fill="#C2DDF6"/></g><g clip-path="url(#clip117)"><text fill="#595959" font-family="Yu Gothic,Yu Gothic_MSFontService,sans-serif" font-weight="500" font-size="48" transform="matrix(1 0 0 1 5796.32 1255)">5</text></g><g clip-path="url(#clip118)"><text fill="#595959" font-family="Yu Gothic,Yu Gothic_MSFontService,sans-serif" font-weight="500" font-size="48" transform="matrix(1 0 0 1 5823.04 1255)">日以上</text></g><g clip-path="url(#clip119)"><text fill="#595959" font-family="Yu Gothic,Yu Gothic_MSFontService,sans-serif" font-weight="500" font-size="48" transform="matrix(1 0 0 1 5967.41 1255)">〜</text></g><g clip-path="url(#clip120)"><text fill="#595959" font-family="Yu Gothic,Yu Gothic_MSFontService,sans-serif" font-weight="500" font-size="48" transform="matrix(1 0 0 1 6015.54 1255)">10</text></g><g clip-path="url(#clip121)"><text fill="#595959" font-family="Yu Gothic,Yu Gothic_MSFontService,sans-serif" font-weight="500" font-size="48" transform="matrix(1 0 0 1 6068.98 1255)">日未満</text></g><g clip-path="url(#clip122)"><rect x="5728.5" y="1318.5" width="28" height="27.9999" stroke="#000000" stroke-width="4.58333" stroke-linejoin="round" stroke-miterlimit="10" fill="#9ECBF0"/></g><g clip-path="url(#clip123)"><text fill="#595959" font-family="Yu Gothic,Yu Gothic_MSFontService,sans-serif" font-weight="500" font-size="48" transform="matrix(1 0 0 1 5768.86 1346)">10</text></g><g clip-path="url(#clip124)"><text fill="#595959" font-family="Yu Gothic,Yu Gothic_MSFontService,sans-serif" font-weight="500" font-size="48" transform="matrix(1 0 0 1 5822.3 1346)">日以上</text></g><g clip-path="url(#clip125)"><text fill="#595959" font-family="Yu Gothic,Yu Gothic_MSFontService,sans-serif" font-weight="500" font-size="48" transform="matrix(1 0 0 1 5966.68 1346)">〜</text></g><g clip-path="url(#clip126)"><text fill="#595959" font-family="Yu Gothic,Yu Gothic_MSFontService,sans-serif" font-weight="500" font-size="48" transform="matrix(1 0 0 1 6014.8 1346)">20</text></g><g clip-path="url(#clip127)"><text fill="#595959" font-family="Yu Gothic,Yu Gothic_MSFontService,sans-serif" font-weight="500" font-size="48" transform="matrix(1 0 0 1 6068.24 1346)">日未満</text></g><g clip-path="url(#clip128)"><rect x="5728.5" y="1410.5" width="28" height="28.0002" stroke="#000000" stroke-width="4.58333" stroke-linejoin="round" stroke-miterlimit="10" fill="#8AC1EE"/></g><g clip-path="url(#clip129)"><text fill="#595959" font-family="Yu Gothic,Yu Gothic_MSFontService,sans-serif" font-weight="500" font-size="48" transform="matrix(1 0 0 1 5768.86 1438)">20</text></g><g clip-path="url(#clip130)"><text fill="#595959" font-family="Yu Gothic,Yu Gothic_MSFontService,sans-serif" font-weight="500" font-size="48" transform="matrix(1 0 0 1 5822.3 1438)">日以上</text></g><g clip-path="url(#clip131)"><text fill="#595959" font-family="Yu Gothic,Yu Gothic_MSFontService,sans-serif" font-weight="500" font-size="48" transform="matrix(1 0 0 1 5966.68 1438)">〜</text></g><g clip-path="url(#clip132)"><text fill="#595959" font-family="Yu Gothic,Yu Gothic_MSFontService,sans-serif" font-weight="500" font-size="48" transform="matrix(1 0 0 1 6014.8 1438)">30</text></g><g clip-path="url(#clip133)"><text fill="#595959" font-family="Yu Gothic,Yu Gothic_MSFontService,sans-serif" font-weight="500" font-size="48" transform="matrix(1 0 0 1 6068.24 1438)">日未満</text></g><g clip-path="url(#clip134)"><rect x="5728.5" y="1501.5" width="28" height="27.9999" stroke="#000000" stroke-width="4.58333" stroke-linejoin="round" stroke-miterlimit="10" fill="#4CA0E6"/></g><g clip-path="url(#clip135)"><text fill="#595959" font-family="Yu Gothic,Yu Gothic_MSFontService,sans-serif" font-weight="500" font-size="48" transform="matrix(1 0 0 1 5768.86 1529)">30</text></g><g clip-path="url(#clip136)"><text fill="#595959" font-family="Yu Gothic,Yu Gothic_MSFontService,sans-serif" font-weight="500" font-size="48" transform="matrix(1 0 0 1 5822.3 1529)">日以上</text></g><g clip-path="url(#clip137)"><text fill="#595959" font-family="Yu Gothic,Yu Gothic_MSFontService,sans-serif" font-weight="500" font-size="48" transform="matrix(1 0 0 1 5966.68 1529)">〜</text></g><g clip-path="url(#clip138)"><text fill="#595959" font-family="Yu Gothic,Yu Gothic_MSFontService,sans-serif" font-weight="500" font-size="48" transform="matrix(1 0 0 1 6014.8 1529)">40</text></g><g clip-path="url(#clip139)"><text fill="#595959" font-family="Yu Gothic,Yu Gothic_MSFontService,sans-serif" font-weight="500" font-size="48" transform="matrix(1 0 0 1 6068.24 1529)">日未満</text></g><g clip-path="url(#clip140)"><rect x="5728.5" y="1592.5" width="28" height="27.9999" stroke="#095085" stroke-width="4.58333" stroke-linejoin="round" stroke-miterlimit="10" fill="#2089E0"/></g><g clip-path="url(#clip141)"><text fill="#595959" font-family="Yu Gothic,Yu Gothic_MSFontService,sans-serif" font-weight="500" font-size="48" transform="matrix(1 0 0 1 5768.86 1620)">40</text></g><g clip-path="url(#clip142)"><text fill="#595959" font-family="Yu Gothic,Yu Gothic_MSFontService,sans-serif" font-weight="500" font-size="48" transform="matrix(1 0 0 1 5822.3 1620)">日以上</text></g><g clip-path="url(#clip143)"><text fill="#595959" font-family="Yu Gothic,Yu Gothic_MSFontService,sans-serif" font-weight="500" font-size="48" transform="matrix(1 0 0 1 5966.68 1620)">〜</text></g><g clip-path="url(#clip144)"><text fill="#595959" font-family="Yu Gothic,Yu Gothic_MSFontService,sans-serif" font-weight="500" font-size="48" transform="matrix(1 0 0 1 6014.8 1620)">50</text></g><g clip-path="url(#clip145)"><text fill="#595959" font-family="Yu Gothic,Yu Gothic_MSFontService,sans-serif" font-weight="500" font-size="48" transform="matrix(1 0 0 1 6068.24 1620)">日未満</text></g><g clip-path="url(#clip146)"><rect x="5728.5" y="1684.5" width="28" height="28.0002" stroke="#000000" stroke-width="4.58333" stroke-linejoin="round" stroke-miterlimit="10" fill="#0C6CB4"/></g><g clip-path="url(#clip147)"><text fill="#595959" font-family="Yu Gothic,Yu Gothic_MSFontService,sans-serif" font-weight="500" font-size="48" transform="matrix(1 0 0 1 5768.86 1711)">50</text></g><g clip-path="url(#clip148)"><text fill="#595959" font-family="Yu Gothic,Yu Gothic_MSFontService,sans-serif" font-weight="500" font-size="48" transform="matrix(1 0 0 1 5822.3 1711)">日以上</text></g><g clip-path="url(#clip149)"><text fill="#595959" font-family="Yu Gothic,Yu Gothic_MSFontService,sans-serif" font-weight="500" font-size="48" transform="matrix(1 0 0 1 5966.68 1711)">〜</text></g><g clip-path="url(#clip150)"><text fill="#595959" font-family="Yu Gothic,Yu Gothic_MSFontService,sans-serif" font-weight="500" font-size="48" transform="matrix(1 0 0 1 6014.8 1711)">60</text></g><g clip-path="url(#clip151)"><text fill="#595959" font-family="Yu Gothic,Yu Gothic_MSFontService,sans-serif" font-weight="500" font-size="48" transform="matrix(1 0 0 1 6068.24 1711)">日未満</text></g><g clip-path="url(#clip152)"><rect x="5728.5" y="1775.5" width="28" height="28.0002" stroke="#000000" stroke-width="4.58333" stroke-linejoin="round" stroke-miterlimit="10" fill="#095085"/></g><g clip-path="url(#clip153)"><text fill="#595959" font-family="Yu Gothic,Yu Gothic_MSFontService,sans-serif" font-weight="500" font-size="48" transform="matrix(1 0 0 1 5768.86 1803)">60</text></g><g clip-path="url(#clip154)"><text fill="#595959" font-family="Yu Gothic,Yu Gothic_MSFontService,sans-serif" font-weight="500" font-size="48" transform="matrix(1 0 0 1 5822.3 1803)">日以上</text></g><rect x="3247.5" y="725.5" width="2981" height="1247" stroke="#000000" stroke-width="4.58333" stroke-linejoin="round" stroke-miterlimit="10" fill="none"/><g clip-path="url(#clip155)"><g clip-path="url(#clip156)"><text font-family="Yu Gothic,Yu Gothic_MSFontService,sans-serif" font-weight="500" font-size="73" transform="matrix(1 0 0 1 3305.98 837)">【登校日数】</text></g></g><g clip-path="url(#clip157)"><g clip-path="url(#clip158)"><text font-family="Yu Gothic,Yu Gothic_MSFontService,sans-serif" font-weight="500" font-size="73" transform="matrix(1 0 0 1 3745.98 837)">A</text></g></g><g clip-path="url(#clip159)"><g clip-path="url(#clip160)"><text font-family="Yu Gothic,Yu Gothic_MSFontService,sans-serif" font-weight="500" font-size="73" transform="matrix(1 0 0 1 3793.65 837)">セメスタの授業が行われた期間中</text></g></g><g clip-path="url(#clip161)"><g clip-path="url(#clip162)"><text font-family="Yu Gothic,Yu Gothic_MSFontService,sans-serif" font-weight="500" font-size="73" transform="matrix(1 0 0 1 4893.65 837)">(</text></g></g><g clip-path="url(#clip163)"><g clip-path="url(#clip164)"><text font-family="Yu Gothic,Yu Gothic_MSFontService,sans-serif" font-weight="500" font-size="73" transform="matrix(1 0 0 1 4921.51 837)">およそ</text></g></g><g clip-path="url(#clip165)"><g clip-path="url(#clip166)"><text font-family="Yu Gothic,Yu Gothic_MSFontService,sans-serif" font-weight="500" font-size="73" transform="matrix(1 0 0 1 5141.51 837)">70</text></g></g><g clip-path="url(#clip167)"><g clip-path="url(#clip168)"><text font-family="Yu Gothic,Yu Gothic_MSFontService,sans-serif" font-weight="500" font-size="73" transform="matrix(1 0 0 1 5222.96 837)">日の平日があります</text></g></g><g clip-path="url(#clip169)"><g clip-path="url(#clip170)"><text font-family="Yu Gothic,Yu Gothic_MSFontService,sans-serif" font-weight="500" font-size="73" transform="matrix(1 0 0 1 5882.96 837)">)</text></g></g><g clip-path="url(#clip171)"><g clip-path="url(#clip172)"><text font-family="Yu Gothic,Yu Gothic_MSFontService,sans-serif" font-weight="500" font-size="73" transform="matrix(1 0 0 1 5910.83 837)">のうち</text></g></g><g clip-path="url(#clip173)"><text font-family="Yu Gothic,Yu Gothic_MSFontService,sans-serif" font-weight="500" font-size="73" transform="matrix(1 0 0 1 3305.98 960)">およそ何日くらい登校しましたか？授業のため研究のためなど，理由は問いません．</text></g></g></svg>