<svg width="2993" height="1576" xmlns="http://www.w3.org/2000/svg" xmlns:xlink="http://www.w3.org/1999/xlink" overflow="hidden"><defs><clipPath id="clip0"><rect x="3087" y="49" width="2993" height="1576"/></clipPath><clipPath id="clip1"><rect x="3089" y="50" width="2988" height="1571"/></clipPath><clipPath id="clip2"><rect x="4032" y="204" width="1281" height="1247"/></clipPath><clipPath id="clip3"><rect x="4032" y="204" width="1281" height="1247"/></clipPath><clipPath id="clip4"><rect x="4032" y="204" width="1281" height="1247"/></clipPath><clipPath id="clip5"><rect x="4032" y="204" width="1281" height="1247"/></clipPath><clipPath id="clip6"><rect x="4032" y="204" width="1281" height="1247"/></clipPath><clipPath id="clip7"><rect x="4032" y="204" width="1281" height="1247"/></clipPath><clipPath id="clip8"><rect x="4032" y="204" width="1281" height="1247"/></clipPath><clipPath id="clip9"><rect x="3089" y="50" width="2988" height="1571"/></clipPath><clipPath id="clip10"><rect x="3089" y="50" width="2988" height="1571"/></clipPath><clipPath id="clip11"><rect x="3089" y="50" width="2988" height="1571"/></clipPath><clipPath id="clip12"><rect x="3089" y="50" width="2988" height="1571"/></clipPath><clipPath id="clip13"><rect x="3089" y="50" width="2988" height="1571"/></clipPath><clipPath id="clip14"><rect x="3089" y="50" width="2988" height="1571"/></clipPath><clipPath id="clip15"><rect x="3089" y="50" width="2988" height="1571"/></clipPath><clipPath id="clip16"><rect x="3089" y="50" width="2988" height="1571"/></clipPath><clipPath id="clip17"><rect x="3089" y="50" width="2988" height="1571"/></clipPath><clipPath id="clip18"><rect x="3089" y="50" width="2988" height="1571"/></clipPath><clipPath id="clip19"><rect x="3089" y="50" width="2988" height="1571"/></clipPath><clipPath id="clip20"><rect x="3089" y="50" width="2988" height="1571"/></clipPath><clipPath id="clip21"><rect x="3089" y="50" width="2988" height="1571"/></clipPath><clipPath id="clip22"><rect x="3089" y="50" width="2988" height="1571"/></clipPath><clipPath id="clip23"><rect x="3089" y="50" width="2988" height="1571"/></clipPath><clipPath id="clip24"><rect x="3089" y="50" width="2988" height="1571"/></clipPath><clipPath id="clip25"><rect x="3089" y="50" width="2988" height="1571"/></clipPath><clipPath id="clip26"><rect x="3089" y="50" width="2988" height="1571"/></clipPath><clipPath id="clip27"><rect x="3089" y="50" width="2988" height="1571"/></clipPath><clipPath id="clip28"><rect x="3089" y="50" width="2988" height="1571"/></clipPath><clipPath id="clip29"><rect x="3089" y="50" width="2988" height="1571"/></clipPath><clipPath id="clip30"><rect x="3089" y="50" width="2988" height="1571"/></clipPath><clipPath id="clip31"><rect x="3089" y="50" width="2988" height="1571"/></clipPath><clipPath id="clip32"><rect x="3089" y="50" width="2988" height="1571"/></clipPath><clipPath id="clip33"><rect x="3089" y="50" width="2988" height="1571"/></clipPath><clipPath id="clip34"><rect x="3089" y="50" width="2988" height="1571"/></clipPath><clipPath id="clip35"><rect x="3089" y="50" width="2988" height="1571"/></clipPath><clipPath id="clip36"><rect x="3089" y="50" width="2988" height="1571"/></clipPath><clipPath id="clip37"><rect x="3089" y="50" width="2988" height="1571"/></clipPath><clipPath id="clip38"><rect x="3089" y="50" width="2988" height="1571"/></clipPath><clipPath id="clip39"><rect x="3089" y="50" width="2988" height="1571"/></clipPath><clipPath id="clip40"><rect x="3089" y="50" width="2988" height="1571"/></clipPath><clipPath id="clip41"><rect x="3089" y="50" width="2988" height="1571"/></clipPath><clipPath id="clip42"><rect x="3089" y="50" width="2988" height="1571"/></clipPath><clipPath id="clip43"><rect x="3089" y="50" width="2988" height="1571"/></clipPath><clipPath id="clip44"><rect x="3089" y="50" width="2988" height="1571"/></clipPath><clipPath id="clip45"><rect x="3089" y="50" width="2988" height="1571"/></clipPath><clipPath id="clip46"><rect x="3089" y="50" width="2988" height="1571"/></clipPath><clipPath id="clip47"><rect x="3089" y="50" width="2988" height="1571"/></clipPath><clipPath id="clip48"><rect x="3089" y="50" width="2988" height="1571"/></clipPath><clipPath id="clip49"><rect x="3089" y="50" width="2988" height="1571"/></clipPath><clipPath id="clip50"><rect x="3089" y="50" width="2988" height="1571"/></clipPath><clipPath id="clip51"><rect x="3089" y="50" width="2988" height="1571"/></clipPath><clipPath id="clip52"><rect x="3089" y="50" width="2988" height="1571"/></clipPath><clipPath id="clip53"><rect x="3089" y="50" width="2988" height="1571"/></clipPath><clipPath id="clip54"><rect x="3089" y="50" width="2988" height="1571"/></clipPath><clipPath id="clip55"><rect x="3089" y="50" width="2988" height="1571"/></clipPath><clipPath id="clip56"><rect x="3089" y="50" width="2988" height="1571"/></clipPath><clipPath id="clip57"><rect x="3089" y="50" width="2988" height="1571"/></clipPath><clipPath id="clip58"><rect x="3089" y="50" width="2988" height="1571"/></clipPath><clipPath id="clip59"><rect x="3089" y="50" width="2988" height="1571"/></clipPath><clipPath id="clip60"><rect x="3089" y="50" width="2988" height="1571"/></clipPath><clipPath id="clip61"><rect x="3089" y="50" width="2988" height="1571"/></clipPath><clipPath id="clip62"><rect x="3089" y="50" width="2988" height="1571"/></clipPath><clipPath id="clip63"><rect x="3089" y="50" width="2988" height="1571"/></clipPath><clipPath id="clip64"><rect x="3089" y="50" width="2988" height="1571"/></clipPath><clipPath id="clip65"><rect x="3089" y="50" width="2988" height="1571"/></clipPath><clipPath id="clip66"><rect x="3089" y="50" width="2988" height="1571"/></clipPath><clipPath id="clip67"><rect x="3089" y="50" width="2988" height="1571"/></clipPath><clipPath id="clip68"><rect x="3089" y="50" width="2988" height="1571"/></clipPath><clipPath id="clip69"><rect x="3089" y="50" width="2988" height="1571"/></clipPath><clipPath id="clip70"><rect x="3089" y="50" width="2988" height="1571"/></clipPath><clipPath id="clip71"><rect x="3089" y="50" width="2989" height="1572"/></clipPath><clipPath id="clip72"><rect x="-4878" y="61" width="18728" height="496"/></clipPath><clipPath id="clip73"><rect x="3089" y="50" width="2989" height="1572"/></clipPath><clipPath id="clip74"><rect x="-4878" y="61" width="18728" height="496"/></clipPath><clipPath id="clip75"><rect x="3089" y="50" width="2989" height="1572"/></clipPath><clipPath id="clip76"><rect x="-4878" y="61" width="18728" height="496"/></clipPath><clipPath id="clip77"><rect x="3089" y="50" width="2989" height="1572"/></clipPath><clipPath id="clip78"><rect x="3089" y="50" width="2989" height="1572"/></clipPath><clipPath id="clip79"><rect x="3089" y="50" width="2989" height="1572"/></clipPath><clipPath id="clip80"><rect x="5102" y="635" width="884" height="149"/></clipPath><clipPath id="clip81"><rect x="3089" y="50" width="2989" height="1572"/></clipPath><clipPath id="clip82"><rect x="3089" y="50" width="2989" height="1572"/></clipPath><clipPath id="clip83"><rect x="3089" y="50" width="2989" height="1572"/></clipPath><clipPath id="clip84"><rect x="3089" y="50" width="2989" height="1572"/></clipPath><clipPath id="clip85"><rect x="3089" y="50" width="2989" height="1572"/></clipPath><clipPath id="clip86"><rect x="3089" y="50" width="2989" height="1572"/></clipPath><clipPath id="clip87"><rect x="4530" y="1435" width="2022" height="187"/></clipPath><clipPath id="clip88"><rect x="3089" y="50" width="2989" height="1572"/></clipPath><clipPath id="clip89"><rect x="4530" y="1435" width="2022" height="187"/></clipPath><clipPath id="clip90"><rect x="3089" y="50" width="2989" height="1572"/></clipPath><clipPath id="clip91"><rect x="3089" y="50" width="2989" height="1572"/></clipPath><clipPath id="clip92"><rect x="3089" y="50" width="2989" height="1572"/></clipPath><clipPath id="clip93"><rect x="3089" y="50" width="2989" height="1572"/></clipPath><clipPath id="clip94"><rect x="3089" y="50" width="2989" height="1572"/></clipPath><clipPath id="clip95"><rect x="3089" y="50" width="2989" height="1572"/></clipPath><clipPath id="clip96"><rect x="3089" y="50" width="2989" height="1572"/></clipPath><clipPath id="clip97"><rect x="3089" y="50" width="2989" height="1572"/></clipPath><clipPath id="clip98"><rect x="3089" y="50" width="2989" height="1572"/></clipPath><clipPath id="clip99"><rect x="3089" y="50" width="2989" height="1572"/></clipPath><clipPath id="clip100"><rect x="3089" y="50" width="2989" height="1572"/></clipPath><clipPath id="clip101"><rect x="3089" y="50" width="2989" height="1572"/></clipPath><clipPath id="clip102"><rect x="3089" y="50" width="2989" height="1572"/></clipPath><clipPath id="clip103"><rect x="3089" y="50" width="2989" height="1572"/></clipPath><clipPath id="clip104"><rect x="3089" y="50" width="2989" height="1572"/></clipPath><clipPath id="clip105"><rect x="3089" y="50" width="2989" height="1572"/></clipPath><clipPath id="clip106"><rect x="3089" y="50" width="2989" height="1572"/></clipPath><clipPath id="clip107"><rect x="3089" y="50" width="2989" height="1572"/></clipPath><clipPath id="clip108"><rect x="3089" y="50" width="2989" height="1572"/></clipPath><clipPath id="clip109"><rect x="3089" y="50" width="2989" height="1572"/></clipPath><clipPath id="clip110"><rect x="3089" y="50" width="2989" height="1572"/></clipPath><clipPath id="clip111"><rect x="3089" y="50" width="2989" height="1572"/></clipPath><clipPath id="clip112"><rect x="3089" y="50" width="2989" height="1572"/></clipPath><clipPath id="clip113"><rect x="3089" y="50" width="2989" height="1572"/></clipPath><clipPath id="clip114"><rect x="3089" y="50" width="2989" height="1572"/></clipPath><clipPath id="clip115"><rect x="3089" y="50" width="2989" height="1572"/></clipPath><clipPath id="clip116"><rect x="3089" y="50" width="2989" height="1572"/></clipPath><clipPath id="clip117"><rect x="3089" y="50" width="2989" height="1572"/></clipPath><clipPath id="clip118"><rect x="3089" y="50" width="2989" height="1572"/></clipPath><clipPath id="clip119"><rect x="3089" y="50" width="2989" height="1572"/></clipPath><clipPath id="clip120"><rect x="3089" y="50" width="2989" height="1572"/></clipPath><clipPath id="clip121"><rect x="3089" y="50" width="2989" height="1572"/></clipPath><clipPath id="clip122"><rect x="3089" y="50" width="2989" height="1572"/></clipPath><clipPath id="clip123"><rect x="3089" y="50" width="2989" height="1572"/></clipPath><clipPath id="clip124"><rect x="3089" y="50" width="2989" height="1572"/></clipPath></defs><g clip-path="url(#clip0)" transform="translate(-3087 -49)"><rect x="3089" y="50.9999" width="2988" height="1571" fill="#FFFFFF"/><g clip-path="url(#clip1)"><path d="M4032.5 204.5 4032.5 1447.5M4351.64 204.5 4351.64 1447.5M4670.65 204.5 4670.65 1447.5M4990.66 204.5 4990.66 1447.5M5310.5 204.5 5310.5 1447.5" stroke="#D9D9D9" stroke-width="4.58333" stroke-linejoin="round" stroke-miterlimit="10" fill="none"/></g><g clip-path="url(#clip2)"><path d="M4112.5 732.5 4032.5 732.5 4032.5 642.5 4112.5 642.5Z" stroke="#000000" stroke-width="4.58333" stroke-linejoin="round" stroke-miterlimit="10" fill="#FFFFFF"/></g><g clip-path="url(#clip3)"><path d="M4235.64 1423.55 4032.5 1423.55 4032.5 1333.54 4235.64 1333.54ZM4287.64 1285.54 4032.5 1285.54 4032.5 1195.54 4287.64 1195.54ZM4397.64 1147.54 4032.5 1147.54 4032.5 1057.53 4397.64 1057.53ZM4344.64 1009.53 4032.5 1009.53 4032.5 918.53 4344.64 918.53ZM4117.64 871.529 4032.5 871.529 4032.5 780.526 4117.64 780.526ZM4258.64 594.52 4032.5 594.52 4032.5 504.517 4258.64 504.517ZM4289.64 456.515 4032.5 456.515 4032.5 366.512 4289.64 366.512ZM4439.65 318.511 4032.5 318.511 4032.5 228.508 4439.65 228.508Z" stroke="#000000" stroke-width="4.58333" stroke-linejoin="round" stroke-miterlimit="10" fill="#FFFFFF"/></g><g clip-path="url(#clip4)"><path d="M4412.5 732.5 4112.5 732.5 4112.5 642.5 4412.5 642.5Z" stroke="#000000" stroke-width="4.58333" stroke-linejoin="round" stroke-miterlimit="10" fill="#DEEBF7"/></g><g clip-path="url(#clip5)"><path d="M4554.65 1423.55 4235.64 1423.55 4235.64 1333.54 4554.65 1333.54ZM4661.65 1285.54 4287.64 1285.54 4287.64 1195.54 4661.65 1195.54ZM4869.66 1147.54 4397.64 1147.54 4397.64 1057.53 4869.66 1057.53ZM4824.66 1009.53 4344.64 1009.53 4344.64 918.53 4824.66 918.53ZM4415.65 871.529 4117.64 871.529 4117.64 780.526 4415.65 780.526ZM4789.66 594.52 4258.64 594.52 4258.64 504.517 4789.66 504.517ZM4900.66 456.515 4289.64 456.515 4289.64 366.512 4900.66 366.512ZM5036.67 318.511 4439.65 318.511 4439.65 228.508 5036.67 228.508Z" stroke="#000000" stroke-width="4.58333" stroke-linejoin="round" stroke-miterlimit="10" fill="#DEEBF7"/></g><g clip-path="url(#clip6)"><path d="M5019.67 1423.55 4554.65 1423.55 4554.65 1333.54 5019.67 1333.54ZM4975.66 1285.54 4661.65 1285.54 4661.65 1195.54 4975.66 1195.54ZM5090.67 1147.54 4869.66 1147.54 4869.66 1057.53 5090.67 1057.53ZM5083.67 1009.53 4824.66 1009.53 4824.66 918.53 5083.67 918.53ZM4820.66 871.529 4415.65 871.529 4415.65 780.526 4820.66 780.526ZM4768.66 732.524 4411.65 732.524 4411.65 642.521 4768.66 642.521ZM5093.67 594.52 4789.66 594.52 4789.66 504.517 5093.67 504.517ZM5165.67 456.515 4900.66 456.515 4900.66 366.512 5165.67 366.512ZM5201.67 318.511 5036.67 318.511 5036.67 228.508 5201.67 228.508Z" stroke="#000000" stroke-width="4.58333" stroke-linejoin="round" stroke-miterlimit="10" fill="#9DC3E6"/></g><g clip-path="url(#clip7)"><path d="M5222.67 1423.55 5019.67 1423.55 5019.67 1333.54 5222.67 1333.54ZM5165.67 1285.54 4975.66 1285.54 4975.66 1195.54 5165.67 1195.54ZM5235.67 1147.54 5090.67 1147.54 5090.67 1057.53 5235.67 1057.53ZM5249.67 1009.53 5083.67 1009.53 5083.67 918.53 5249.67 918.53ZM4990.66 871.529 4820.66 871.529 4820.66 780.526 4990.66 780.526ZM4999.66 732.524 4768.66 732.524 4768.66 642.521 4999.66 642.521ZM5240.67 594.52 5093.67 594.52 5093.67 504.517 5240.67 504.517ZM5264.67 456.515 5165.67 456.515 5165.67 366.512 5264.67 366.512ZM5264.67 318.511 5201.67 318.511 5201.67 228.508 5264.67 228.508Z" stroke="#000000" stroke-width="4.58333" stroke-linejoin="round" stroke-miterlimit="10" fill="#4CA0E6"/></g><g clip-path="url(#clip8)"><path d="M5309.67 1423.55 5222.67 1423.55 5222.67 1333.54 5309.67 1333.54ZM5309.67 1285.54 5165.67 1285.54 5165.67 1195.54 5309.67 1195.54ZM5309.67 1147.54 5235.67 1147.54 5235.67 1057.53 5309.67 1057.53ZM5309.67 1009.53 5249.67 1009.53 5249.67 918.53 5309.67 918.53ZM5309.67 871.529 4990.66 871.529 4990.66 780.526 5309.67 780.526ZM5309.67 732.524 4999.66 732.524 4999.66 642.521 5309.67 642.521ZM5309.67 594.52 5240.67 594.52 5240.67 504.517 5309.67 504.517ZM5309.67 456.515 5264.67 456.515 5264.67 366.512 5309.67 366.512ZM5309.67 318.511 5264.67 318.511 5264.67 228.508 5309.67 228.508Z" stroke="#000000" stroke-width="4.58333" stroke-linejoin="round" stroke-miterlimit="10" fill="#095085"/></g><g clip-path="url(#clip9)"><text fill="#404040" font-family="Yu Gothic,Yu Gothic_MSFontService,sans-serif" font-weight="700" font-size="55" transform="matrix(1 0 0 1 4118.04 1398)">7</text></g><g clip-path="url(#clip10)"><text fill="#404040" font-family="Yu Gothic,Yu Gothic_MSFontService,sans-serif" font-weight="700" font-size="55" transform="matrix(1 0 0 1 4128.41 1259)">39</text></g><g clip-path="url(#clip11)"><text fill="#404040" font-family="Yu Gothic,Yu Gothic_MSFontService,sans-serif" font-weight="700" font-size="55" transform="matrix(1 0 0 1 4167.78 1121)">142</text></g><g clip-path="url(#clip12)"><text fill="#404040" font-family="Yu Gothic,Yu Gothic_MSFontService,sans-serif" font-weight="700" font-size="55" transform="matrix(1 0 0 1 4157.03 983)">47</text></g><g clip-path="url(#clip13)"><text fill="#404040" font-family="Yu Gothic,Yu Gothic_MSFontService,sans-serif" font-weight="700" font-size="55" transform="matrix(1 0 0 1 4058.99 845)">4</text></g><g clip-path="url(#clip14)"><text fill="#404040" font-family="Yu Gothic,Yu Gothic_MSFontService,sans-serif" font-weight="700" font-size="55" transform="matrix(1 0 0 1 4056.68 707)">7</text></g><g clip-path="url(#clip15)"><text fill="#404040" font-family="Yu Gothic,Yu Gothic_MSFontService,sans-serif" font-weight="700" font-size="55" transform="matrix(1 0 0 1 4098.09 569)">182</text></g><g clip-path="url(#clip16)"><text fill="#404040" font-family="Yu Gothic,Yu Gothic_MSFontService,sans-serif" font-weight="700" font-size="55" transform="matrix(1 0 0 1 4113.55 430)">343</text></g><g clip-path="url(#clip17)"><text fill="#404040" font-family="Yu Gothic,Yu Gothic_MSFontService,sans-serif" font-weight="700" font-size="55" transform="matrix(1 0 0 1 4188.65 292)">170</text></g><g clip-path="url(#clip18)"><text fill="#404040" font-family="Yu Gothic,Yu Gothic_MSFontService,sans-serif" font-weight="700" font-size="55" transform="matrix(1 0 0 1 4363.66 1398)">11</text></g><g clip-path="url(#clip19)"><text fill="#404040" font-family="Yu Gothic,Yu Gothic_MSFontService,sans-serif" font-weight="700" font-size="55" transform="matrix(1 0 0 1 4442.97 1259)">57</text></g><g clip-path="url(#clip20)"><text fill="#404040" font-family="Yu Gothic,Yu Gothic_MSFontService,sans-serif" font-weight="700" font-size="55" transform="matrix(1 0 0 1 4586.45 1121)">183</text></g><g clip-path="url(#clip21)"><text fill="#404040" font-family="Yu Gothic,Yu Gothic_MSFontService,sans-serif" font-weight="700" font-size="55" transform="matrix(1 0 0 1 4553.05 983)">72</text></g><g clip-path="url(#clip22)"><text fill="#404040" font-family="Yu Gothic,Yu Gothic_MSFontService,sans-serif" font-weight="700" font-size="55" transform="matrix(1 0 0 1 4234.9 845)">14</text></g><g clip-path="url(#clip23)"><text fill="#404040" font-family="Yu Gothic,Yu Gothic_MSFontService,sans-serif" font-weight="700" font-size="55" transform="matrix(1 0 0 1 4230.87 707)">26</text></g><g clip-path="url(#clip24)"><text fill="#404040" font-family="Yu Gothic,Yu Gothic_MSFontService,sans-serif" font-weight="700" font-size="55" transform="matrix(1 0 0 1 4476.98 569)">427</text></g><g clip-path="url(#clip25)"><text fill="#404040" font-family="Yu Gothic,Yu Gothic_MSFontService,sans-serif" font-weight="700" font-size="55" transform="matrix(1 0 0 1 4548.01 430)">815</text></g><g clip-path="url(#clip26)"><text fill="#404040" font-family="Yu Gothic,Yu Gothic_MSFontService,sans-serif" font-weight="700" font-size="55" transform="matrix(1 0 0 1 4690.93 292)">249</text></g><g clip-path="url(#clip27)"><text fill="#404040" font-family="Yu Gothic,Yu Gothic_MSFontService,sans-serif" font-weight="700" font-size="55" transform="matrix(1 0 0 1 4755.74 1398)">16</text></g><g clip-path="url(#clip28)"><text fill="#404040" font-family="Yu Gothic,Yu Gothic_MSFontService,sans-serif" font-weight="700" font-size="55" transform="matrix(1 0 0 1 4787.02 1259)">48</text></g><g clip-path="url(#clip29)"><text fill="#404040" font-family="Yu Gothic,Yu Gothic_MSFontService,sans-serif" font-weight="700" font-size="55" transform="matrix(1 0 0 1 4948.74 1121)">86</text></g><g clip-path="url(#clip30)"><text fill="#404040" font-family="Yu Gothic,Yu Gothic_MSFontService,sans-serif" font-weight="700" font-size="55" transform="matrix(1 0 0 1 4922.44 983)">39</text></g><g clip-path="url(#clip31)"><text fill="#404040" font-family="Yu Gothic,Yu Gothic_MSFontService,sans-serif" font-weight="700" font-size="55" transform="matrix(1 0 0 1 4586.32 845)">19</text></g><g clip-path="url(#clip32)"><text fill="#404040" font-family="Yu Gothic,Yu Gothic_MSFontService,sans-serif" font-weight="700" font-size="55" transform="matrix(1 0 0 1 4558.98 707)">31</text></g><g clip-path="url(#clip33)"><text fill="#404040" font-family="Yu Gothic,Yu Gothic_MSFontService,sans-serif" font-weight="700" font-size="55" transform="matrix(1 0 0 1 4894.44 569)">244</text></g><g clip-path="url(#clip34)"><text fill="#404040" font-family="Yu Gothic,Yu Gothic_MSFontService,sans-serif" font-weight="700" font-size="55" transform="matrix(1 0 0 1 4986.23 430)">353</text></g><g clip-path="url(#clip35)"><text fill="#404040" font-family="Yu Gothic,Yu Gothic_MSFontService,sans-serif" font-weight="700" font-size="55" transform="matrix(1 0 0 1 5087.91 292)">69</text></g><g clip-path="url(#clip36)"><text fill="#404040" font-family="Yu Gothic,Yu Gothic_MSFontService,sans-serif" font-weight="700" font-size="55" transform="matrix(1 0 0 1 5105.5 1398)">7</text></g><g clip-path="url(#clip37)"><text fill="#404040" font-family="Yu Gothic,Yu Gothic_MSFontService,sans-serif" font-weight="700" font-size="55" transform="matrix(1 0 0 1 5039.32 1259)">29</text></g><g clip-path="url(#clip38)"><text fill="#404040" font-family="Yu Gothic,Yu Gothic_MSFontService,sans-serif" font-weight="700" font-size="55" transform="matrix(1 0 0 1 5131.66 1121)">56</text></g><g clip-path="url(#clip39)"><text fill="#404040" font-family="Yu Gothic,Yu Gothic_MSFontService,sans-serif" font-weight="700" font-size="55" transform="matrix(1 0 0 1 5135.42 983)">25</text></g><g clip-path="url(#clip40)"><text fill="#404040" font-family="Yu Gothic,Yu Gothic_MSFontService,sans-serif" font-weight="700" font-size="55" transform="matrix(1 0 0 1 4889.62 845)">8</text></g><g clip-path="url(#clip41)"><text fill="#404040" font-family="Yu Gothic,Yu Gothic_MSFontService,sans-serif" font-weight="700" font-size="55" transform="matrix(1 0 0 1 4852.55 707)">20</text></g><g clip-path="url(#clip42)"><text fill="#404040" font-family="Yu Gothic,Yu Gothic_MSFontService,sans-serif" font-weight="700" font-size="55" transform="matrix(1 0 0 1 5119.66 569)">118</text></g><g clip-path="url(#clip43)"><text fill="#404040" font-family="Yu Gothic,Yu Gothic_MSFontService,sans-serif" font-weight="700" font-size="55" transform="matrix(1 0 0 1 5168.2 430)">132</text></g><g clip-path="url(#clip44)"><text fill="#404040" font-family="Yu Gothic,Yu Gothic_MSFontService,sans-serif" font-weight="700" font-size="55" transform="matrix(1 0 0 1 5201.79 292)">26</text></g><g clip-path="url(#clip45)"><text fill="#FFFFFF" font-family="Yu Gothic,Yu Gothic_MSFontService,sans-serif" font-weight="700" font-size="55" transform="matrix(1 0 0 1 5250.72 1398)">3</text></g><g clip-path="url(#clip46)"><text fill="#FFFFFF" font-family="Yu Gothic,Yu Gothic_MSFontService,sans-serif" font-weight="700" font-size="55" transform="matrix(1 0 0 1 5206.43 1259)">22</text></g><g clip-path="url(#clip47)"><text fill="#FFFFFF" font-family="Yu Gothic,Yu Gothic_MSFontService,sans-serif" font-weight="700" font-size="55" transform="matrix(1 0 0 1 5241.16 1121)">29</text></g><g clip-path="url(#clip48)"><text fill="#FFFFFF" font-family="Yu Gothic,Yu Gothic_MSFontService,sans-serif" font-weight="700" font-size="55" transform="matrix(1 0 0 1 5264.33 983)">9</text></g><g clip-path="url(#clip49)"><text fill="#FFFFFF" font-family="Yu Gothic,Yu Gothic_MSFontService,sans-serif" font-weight="700" font-size="55" transform="matrix(1 0 0 1 5118.78 845)">15</text></g><g clip-path="url(#clip50)"><text fill="#FFFFFF" font-family="Yu Gothic,Yu Gothic_MSFontService,sans-serif" font-weight="700" font-size="55" transform="matrix(1 0 0 1 5123.1 707)">27</text></g><g clip-path="url(#clip51)"><text fill="#FFFFFF" font-family="Yu Gothic,Yu Gothic_MSFontService,sans-serif" font-weight="700" font-size="55" transform="matrix(1 0 0 1 5243.68 569)">56</text></g><g clip-path="url(#clip52)"><text fill="#404040" font-family="Yu Gothic,Yu Gothic_MSFontService,sans-serif" font-weight="700" font-size="55" transform="matrix(1 0 0 1 5311 430)">60</text></g><g clip-path="url(#clip53)"><text fill="#404040" font-family="Yu Gothic,Yu Gothic_MSFontService,sans-serif" font-weight="700" font-size="55" transform="matrix(1 0 0 1 5315.32 292)">19</text></g><g clip-path="url(#clip54)"><text fill="#595959" font-family="Yu Gothic,Yu Gothic_MSFontService,sans-serif" font-weight="500" font-size="60" transform="matrix(1 0 0 1 3991.66 1546)">0%</text></g><g clip-path="url(#clip55)"><text fill="#595959" font-family="Yu Gothic,Yu Gothic_MSFontService,sans-serif" font-weight="500" font-size="60" transform="matrix(1 0 0 1 4294.6 1546)">25%</text></g><g clip-path="url(#clip56)"><text fill="#595959" font-family="Yu Gothic,Yu Gothic_MSFontService,sans-serif" font-weight="500" font-size="60" transform="matrix(1 0 0 1 4614.08 1546)">50%</text></g><g clip-path="url(#clip57)"><text fill="#595959" font-family="Yu Gothic,Yu Gothic_MSFontService,sans-serif" font-weight="500" font-size="60" transform="matrix(1 0 0 1 4933.55 1546)">75%</text></g><g clip-path="url(#clip58)"><text fill="#595959" font-family="Yu Gothic,Yu Gothic_MSFontService,sans-serif" font-weight="500" font-size="60" transform="matrix(1 0 0 1 5236.49 1546)">100%</text></g><g clip-path="url(#clip59)"><rect x="5715.5" y="410.5" width="30" height="29.9999" stroke="#000000" stroke-width="4.58333" stroke-linejoin="round" stroke-miterlimit="10" fill="#FFFFFF"/></g><g clip-path="url(#clip60)"><text fill="#595959" font-family="Yu Gothic,Yu Gothic_MSFontService,sans-serif" font-weight="500" font-size="50" transform="matrix(1 0 0 1 5757.97 440)">大変良かった</text></g><g clip-path="url(#clip61)"><rect x="5715.5" y="605.5" width="30" height="30.0002" stroke="#000000" stroke-width="4.58333" stroke-linejoin="round" stroke-miterlimit="10" fill="#DEEBF7"/></g><g clip-path="url(#clip62)"><text fill="#595959" font-family="Yu Gothic,Yu Gothic_MSFontService,sans-serif" font-weight="500" font-size="50" transform="matrix(1 0 0 1 5757.97 635)">良かった</text></g><g clip-path="url(#clip63)"><rect x="5715.5" y="800.5" width="30" height="28.9999" stroke="#000000" stroke-width="4.58333" stroke-linejoin="round" stroke-miterlimit="10" fill="#9DC3E6"/></g><g clip-path="url(#clip64)"><text fill="#595959" font-family="Yu Gothic,Yu Gothic_MSFontService,sans-serif" font-weight="500" font-size="50" transform="matrix(1 0 0 1 5757.97 830)">どちらとも</text></g><g clip-path="url(#clip65)"><text fill="#595959" font-family="Yu Gothic,Yu Gothic_MSFontService,sans-serif" font-weight="500" font-size="50" transform="matrix(1 0 0 1 5757.97 914)">いえない</text></g><g clip-path="url(#clip66)"><rect x="5715.5" y="995.5" width="30" height="28.9999" stroke="#000000" stroke-width="4.58333" stroke-linejoin="round" stroke-miterlimit="10" fill="#4CA0E6"/></g><g clip-path="url(#clip67)"><text fill="#595959" font-family="Yu Gothic,Yu Gothic_MSFontService,sans-serif" font-weight="500" font-size="50" transform="matrix(1 0 0 1 5757.97 1024)">良くなかった</text></g><g clip-path="url(#clip68)"><rect x="5715.5" y="1190.5" width="30" height="29.0002" stroke="#000000" stroke-width="4.58333" stroke-linejoin="round" stroke-miterlimit="10" fill="#095085"/></g><g clip-path="url(#clip69)"><text fill="#595959" font-family="Yu Gothic,Yu Gothic_MSFontService,sans-serif" font-weight="500" font-size="50" transform="matrix(1 0 0 1 5757.97 1219)">全く</text></g><g clip-path="url(#clip70)"><text fill="#595959" font-family="Yu Gothic,Yu Gothic_MSFontService,sans-serif" font-weight="500" font-size="50" transform="matrix(1 0 0 1 5757.97 1303)">良くなかった</text></g><rect x="3089.5" y="51.5001" width="2988" height="1571" stroke="#000000" stroke-width="4.58333" stroke-linejoin="round" stroke-miterlimit="10" fill="none"/><g clip-path="url(#clip71)"><g clip-path="url(#clip72)"><text font-family="Yu Gothic,Yu Gothic_MSFontService,sans-serif" font-weight="500" font-size="73" transform="matrix(1 0 0 1 3148.14 165)">【授業方法別の評価</text></g></g><g clip-path="url(#clip73)"><g clip-path="url(#clip74)"><text font-family="Yu Gothic,Yu Gothic_MSFontService,sans-serif" font-weight="500" font-size="73" transform="matrix(1 0 0 1 3808.14 165)">/</text></g></g><g clip-path="url(#clip75)"><g clip-path="url(#clip76)"><text font-family="Yu Gothic,Yu Gothic_MSFontService,sans-serif" font-weight="500" font-size="73" transform="matrix(1 0 0 1 3843.41 165)">全体】オンライン授業の形式ごとの評価を教えてください．</text></g></g><g clip-path="url(#clip77)"><path d="M5391.5 210.5 5391.53 1581.77" stroke="#7F7F7F" stroke-width="4.58333" stroke-miterlimit="8" stroke-dasharray="18.3333 13.75" fill="none" fill-rule="evenodd"/></g><g clip-path="url(#clip78)"><rect x="5403" y="210" width="291" height="1390" fill="#F2F2F2"/></g><g clip-path="url(#clip79)"><g clip-path="url(#clip80)"><text fill="#404040" font-family="Yu Gothic,Yu Gothic_MSFontService,sans-serif" font-weight="700" font-size="55" transform="matrix(1 0 0 1 5480.72 717)">1518</text></g></g><g clip-path="url(#clip81)"><text fill="#404040" font-family="Yu Gothic,Yu Gothic_MSFontService,sans-serif" font-weight="700" font-size="55" transform="matrix(1 0 0 1 5480.72 855)">1567</text></g><g clip-path="url(#clip82)"><text fill="#404040" font-family="Yu Gothic,Yu Gothic_MSFontService,sans-serif" font-weight="700" font-size="55" transform="matrix(1 0 0 1 5480.72 992)">1446</text></g><g clip-path="url(#clip83)"><text fill="#404040" font-family="Yu Gothic,Yu Gothic_MSFontService,sans-serif" font-weight="700" font-size="55" transform="matrix(1 0 0 1 5480.72 1130)">1158</text></g><g clip-path="url(#clip84)"><text fill="#404040" font-family="Yu Gothic,Yu Gothic_MSFontService,sans-serif" font-weight="700" font-size="55" transform="matrix(1 0 0 1 5480.72 1267)">1432</text></g><g clip-path="url(#clip85)"><text fill="#404040" font-family="Yu Gothic,Yu Gothic_MSFontService,sans-serif" font-weight="700" font-size="55" transform="matrix(1 0 0 1 5480.72 1405)">1545</text></g><g clip-path="url(#clip86)"><g clip-path="url(#clip87)"><text font-family="Yu Gothic,Yu Gothic_MSFontService,sans-serif" font-weight="400" font-size="41" transform="matrix(1 0 0 1 5396.43 1501)">この形式の授業</text></g></g><g clip-path="url(#clip88)"><g clip-path="url(#clip89)"><text font-family="Yu Gothic,Yu Gothic_MSFontService,sans-serif" font-weight="400" font-size="41" transform="matrix(1 0 0 1 5458.28 1570)">を未受講</text></g></g><g clip-path="url(#clip90)"><text fill="#404040" font-family="Yu Gothic,Yu Gothic_MSFontService,sans-serif" font-weight="700" font-size="55" transform="matrix(1 0 0 1 5496.49 580)">694</text></g><g clip-path="url(#clip91)"><text fill="#404040" font-family="Yu Gothic,Yu Gothic_MSFontService,sans-serif" font-weight="700" font-size="55" transform="matrix(1 0 0 1 5496.49 442)">114</text></g><g clip-path="url(#clip92)"><text fill="#404040" font-family="Yu Gothic,Yu Gothic_MSFontService,sans-serif" font-weight="700" font-size="55" transform="matrix(1 0 0 1 5480.72 304)">1286</text></g><g clip-path="url(#clip93)"><text fill="#595959" font-family="Yu Gothic,Yu Gothic_MSFontService,sans-serif" font-weight="700" font-size="55" transform="matrix(1 0 0 1 3787.4 709)">(n=1629)</text></g><g clip-path="url(#clip94)"><text fill="#595959" font-family="Yu Gothic,Yu Gothic_MSFontService,sans-serif" font-weight="700" font-size="55" transform="matrix(1 0 0 1 3787.4 848)">(n=1627)</text></g><g clip-path="url(#clip95)"><text fill="#595959" font-family="Yu Gothic,Yu Gothic_MSFontService,sans-serif" font-weight="700" font-size="55" transform="matrix(1 0 0 1 3787.4 987)">(n=1638)</text></g><g clip-path="url(#clip96)"><text fill="#595959" font-family="Yu Gothic,Yu Gothic_MSFontService,sans-serif" font-weight="700" font-size="55" transform="matrix(1 0 0 1 3787.4 1126)">(n=1654)</text></g><g clip-path="url(#clip97)"><text fill="#595959" font-family="Yu Gothic,Yu Gothic_MSFontService,sans-serif" font-weight="700" font-size="55" transform="matrix(1 0 0 1 3787.4 1266)">(n=1627)</text></g><g clip-path="url(#clip98)"><text fill="#595959" font-family="Yu Gothic,Yu Gothic_MSFontService,sans-serif" font-weight="700" font-size="55" transform="matrix(1 0 0 1 3787.4 1405)">(n=1589)</text></g><g clip-path="url(#clip99)"><text fill="#595959" font-family="Yu Gothic,Yu Gothic_MSFontService,sans-serif" font-weight="700" font-size="55" transform="matrix(1 0 0 1 3787.4 570)">(n=1721)</text></g><g clip-path="url(#clip100)"><text fill="#595959" font-family="Yu Gothic,Yu Gothic_MSFontService,sans-serif" font-weight="700" font-size="55" transform="matrix(1 0 0 1 3787.4 431)">(n=1817)</text></g><g clip-path="url(#clip101)"><text fill="#595959" font-family="Yu Gothic,Yu Gothic_MSFontService,sans-serif" font-weight="700" font-size="55" transform="matrix(1 0 0 1 3787.4 292)">(n=1819)</text></g><g clip-path="url(#clip102)"><text fill="#595959" font-family="Yu Gothic,Yu Gothic_MSFontService,sans-serif" font-weight="500" font-size="55" transform="matrix(1 0 0 1 3122.23 1264)">8. </text></g><g clip-path="url(#clip103)"><text fill="#595959" font-family="Yu Gothic,Yu Gothic_MSFontService,sans-serif" font-weight="500" font-size="55" transform="matrix(1 0 0 1 3182.66 1264)">自習方式</text></g><g clip-path="url(#clip104)"><text fill="#595959" font-family="Yu Gothic,Yu Gothic_MSFontService,sans-serif" font-weight="500" font-size="55" transform="matrix(1 0 0 1 3122.23 1123)">7.</text></g><g clip-path="url(#clip105)"><text fill="#595959" font-family="Yu Gothic,Yu Gothic_MSFontService,sans-serif" font-weight="500" font-size="55" transform="matrix(1 0 0 1 3166.99 1123)">オンデマンド方式</text></g><g clip-path="url(#clip106)"><text fill="#595959" font-family="Yu Gothic,Yu Gothic_MSFontService,sans-serif" font-weight="500" font-size="55" transform="matrix(1 0 0 1 3122.23 1405)">9.</text></g><g clip-path="url(#clip107)"><text fill="#595959" font-family="Yu Gothic,Yu Gothic_MSFontService,sans-serif" font-weight="500" font-size="55" transform="matrix(1 0 0 1 3166.99 1405)">その他</text></g><g clip-path="url(#clip108)"><text fill="#595959" font-family="Yu Gothic,Yu Gothic_MSFontService,sans-serif" font-weight="500" font-size="55" transform="matrix(1 0 0 1 3122.23 297)">1. </text></g><g clip-path="url(#clip109)"><text fill="#595959" font-family="Yu Gothic,Yu Gothic_MSFontService,sans-serif" font-weight="500" font-size="55" transform="matrix(1 0 0 1 3182.66 297)">対面方式</text></g><g clip-path="url(#clip110)"><text fill="#595959" font-family="Yu Gothic,Yu Gothic_MSFontService,sans-serif" font-weight="500" font-size="55" transform="matrix(1 0 0 1 3126.27 400)">2.</text></g><g clip-path="url(#clip111)"><text fill="#595959" font-family="Yu Gothic,Yu Gothic_MSFontService,sans-serif" font-weight="500" font-size="55" transform="matrix(1 0 0 1 3171.02 400)">ライブのオンライン方式</text></g><g clip-path="url(#clip112)"><text fill="#595959" font-family="Yu Gothic,Yu Gothic_MSFontService,sans-serif" font-weight="500" font-size="55" transform="matrix(1 0 0 1 3126.27 455)">（教員による講義中心）</text></g><g clip-path="url(#clip113)"><text fill="#595959" font-family="Yu Gothic,Yu Gothic_MSFontService,sans-serif" font-weight="500" font-size="55" transform="matrix(1 0 0 1 3122.23 542)">3.</text></g><g clip-path="url(#clip114)"><text fill="#595959" font-family="Yu Gothic,Yu Gothic_MSFontService,sans-serif" font-weight="500" font-size="55" transform="matrix(1 0 0 1 3166.99 542)">ライブのオンライン方式</text></g><g clip-path="url(#clip115)"><text fill="#595959" font-family="Yu Gothic,Yu Gothic_MSFontService,sans-serif" font-weight="500" font-size="55" transform="matrix(1 0 0 1 3122.23 597)">（学生の</text></g><g clip-path="url(#clip116)"><text fill="#595959" font-family="Yu Gothic,Yu Gothic_MSFontService,sans-serif" font-weight="500" font-size="55" transform="matrix(1 0 0 1 3342.23 597)">GW</text></g><g clip-path="url(#clip117)"><text fill="#595959" font-family="Yu Gothic,Yu Gothic_MSFontService,sans-serif" font-weight="500" font-size="55" transform="matrix(1 0 0 1 3433.42 597)">や議論中心）</text></g><g clip-path="url(#clip118)"><text fill="#595959" font-family="Yu Gothic,Yu Gothic_MSFontService,sans-serif" font-weight="500" font-size="55" transform="matrix(1 0 0 1 3122.23 709)">4.</text></g><g clip-path="url(#clip119)"><text fill="#595959" font-family="Yu Gothic,Yu Gothic_MSFontService,sans-serif" font-weight="500" font-size="55" transform="matrix(1 0 0 1 3166.99 709)">コールセンター方式</text></g><g clip-path="url(#clip120)"><text fill="#595959" font-family="Yu Gothic,Yu Gothic_MSFontService,sans-serif" font-weight="500" font-size="55" transform="matrix(1 0 0 1 3122.23 828)">5.</text></g><g clip-path="url(#clip121)"><text fill="#595959" font-family="Yu Gothic,Yu Gothic_MSFontService,sans-serif" font-weight="500" font-size="55" transform="matrix(1 0 0 1 3166.99 828)">パブリックビューイング</text></g><g clip-path="url(#clip122)"><text fill="#595959" font-family="Yu Gothic,Yu Gothic_MSFontService,sans-serif" font-weight="500" font-size="55" transform="matrix(1 0 0 1 3122.23 883)">方式</text></g><g clip-path="url(#clip123)"><text fill="#595959" font-family="Yu Gothic,Yu Gothic_MSFontService,sans-serif" font-weight="500" font-size="55" transform="matrix(1 0 0 1 3122.23 982)">6. </text></g><g clip-path="url(#clip124)"><text fill="#595959" font-family="Yu Gothic,Yu Gothic_MSFontService,sans-serif" font-weight="500" font-size="55" transform="matrix(1 0 0 1 3182.66 982)">ハイフレックス方式</text></g></g></svg>