<svg width="2993" height="1329" xmlns="http://www.w3.org/2000/svg" xmlns:xlink="http://www.w3.org/1999/xlink" overflow="hidden"><defs><clipPath id="clip0"><rect x="2715" y="373" width="2993" height="1329"/></clipPath><clipPath id="clip1"><rect x="2717" y="374" width="2988" height="1324"/></clipPath><clipPath id="clip2"><rect x="3357" y="645" width="1584" height="910"/></clipPath><clipPath id="clip3"><rect x="3357" y="645" width="1584" height="910"/></clipPath><clipPath id="clip4"><rect x="3357" y="645" width="1584" height="910"/></clipPath><clipPath id="clip5"><rect x="3357" y="645" width="1584" height="910"/></clipPath><clipPath id="clip6"><rect x="3357" y="645" width="1584" height="910"/></clipPath><clipPath id="clip7"><rect x="3357" y="645" width="1584" height="910"/></clipPath><clipPath id="clip8"><rect x="3357" y="645" width="1584" height="910"/></clipPath><clipPath id="clip9"><rect x="2717" y="374" width="2988" height="1324"/></clipPath><clipPath id="clip10"><rect x="2717" y="374" width="2988" height="1324"/></clipPath><clipPath id="clip11"><rect x="2717" y="374" width="2988" height="1324"/></clipPath><clipPath id="clip12"><rect x="2717" y="374" width="2988" height="1324"/></clipPath><clipPath id="clip13"><rect x="2717" y="374" width="2988" height="1324"/></clipPath><clipPath id="clip14"><rect x="2717" y="374" width="2988" height="1324"/></clipPath><clipPath id="clip15"><rect x="2717" y="374" width="2988" height="1324"/></clipPath><clipPath id="clip16"><rect x="2717" y="374" width="2988" height="1324"/></clipPath><clipPath id="clip17"><rect x="2717" y="374" width="2988" height="1324"/></clipPath><clipPath id="clip18"><rect x="2717" y="374" width="2988" height="1324"/></clipPath><clipPath id="clip19"><rect x="2717" y="374" width="2988" height="1324"/></clipPath><clipPath id="clip20"><rect x="2717" y="374" width="2988" height="1324"/></clipPath><clipPath id="clip21"><rect x="2717" y="374" width="2988" height="1324"/></clipPath><clipPath id="clip22"><rect x="2717" y="374" width="2988" height="1324"/></clipPath><clipPath id="clip23"><rect x="2717" y="374" width="2988" height="1324"/></clipPath><clipPath id="clip24"><rect x="2717" y="374" width="2988" height="1324"/></clipPath><clipPath id="clip25"><rect x="2717" y="374" width="2988" height="1324"/></clipPath><clipPath id="clip26"><rect x="2717" y="374" width="2988" height="1324"/></clipPath><clipPath id="clip27"><rect x="2717" y="374" width="2988" height="1324"/></clipPath><clipPath id="clip28"><rect x="2717" y="374" width="2988" height="1324"/></clipPath><clipPath id="clip29"><rect x="2717" y="374" width="2988" height="1324"/></clipPath><clipPath id="clip30"><rect x="2717" y="374" width="2988" height="1324"/></clipPath><clipPath id="clip31"><rect x="2717" y="374" width="2988" height="1324"/></clipPath><clipPath id="clip32"><rect x="2717" y="374" width="2988" height="1324"/></clipPath><clipPath id="clip33"><rect x="2717" y="374" width="2988" height="1324"/></clipPath><clipPath id="clip34"><rect x="2717" y="374" width="2988" height="1324"/></clipPath><clipPath id="clip35"><rect x="2717" y="374" width="2988" height="1324"/></clipPath><clipPath id="clip36"><rect x="2717" y="374" width="2988" height="1324"/></clipPath><clipPath id="clip37"><rect x="2717" y="374" width="2988" height="1324"/></clipPath><clipPath id="clip38"><rect x="2717" y="374" width="2988" height="1324"/></clipPath><clipPath id="clip39"><rect x="2717" y="374" width="2988" height="1324"/></clipPath><clipPath id="clip40"><rect x="2717" y="374" width="2988" height="1324"/></clipPath><clipPath id="clip41"><rect x="2717" y="374" width="2988" height="1324"/></clipPath><clipPath id="clip42"><rect x="2717" y="374" width="2988" height="1324"/></clipPath><clipPath id="clip43"><rect x="2717" y="374" width="2988" height="1324"/></clipPath><clipPath id="clip44"><rect x="2717" y="374" width="2988" height="1324"/></clipPath><clipPath id="clip45"><rect x="2717" y="374" width="2988" height="1324"/></clipPath><clipPath id="clip46"><rect x="1905" y="1396" width="2477" height="152"/></clipPath><clipPath id="clip47"><rect x="2717" y="374" width="2988" height="1324"/></clipPath><clipPath id="clip48"><rect x="1905" y="1396" width="2477" height="152"/></clipPath><clipPath id="clip49"><rect x="2717" y="374" width="2988" height="1324"/></clipPath><clipPath id="clip50"><rect x="1778" y="1245" width="2699" height="152"/></clipPath><clipPath id="clip51"><rect x="2717" y="374" width="2988" height="1324"/></clipPath><clipPath id="clip52"><rect x="1778" y="1245" width="2699" height="152"/></clipPath><clipPath id="clip53"><rect x="2717" y="374" width="2988" height="1324"/></clipPath><clipPath id="clip54"><rect x="1192" y="1094" width="3724" height="152"/></clipPath><clipPath id="clip55"><rect x="2717" y="374" width="2988" height="1324"/></clipPath><clipPath id="clip56"><rect x="1192" y="1094" width="3724" height="152"/></clipPath><clipPath id="clip57"><rect x="2717" y="374" width="2988" height="1324"/></clipPath><clipPath id="clip58"><rect x="1192" y="1094" width="3724" height="152"/></clipPath><clipPath id="clip59"><rect x="2717" y="374" width="2988" height="1324"/></clipPath><clipPath id="clip60"><rect x="1192" y="1094" width="3724" height="152"/></clipPath><clipPath id="clip61"><rect x="2717" y="374" width="2988" height="1324"/></clipPath><clipPath id="clip62"><rect x="1651" y="943" width="2921" height="152"/></clipPath><clipPath id="clip63"><rect x="2717" y="374" width="2988" height="1324"/></clipPath><clipPath id="clip64"><rect x="1651" y="943" width="2921" height="152"/></clipPath><clipPath id="clip65"><rect x="2717" y="374" width="2988" height="1324"/></clipPath><clipPath id="clip66"><rect x="1651" y="943" width="2921" height="152"/></clipPath><clipPath id="clip67"><rect x="2717" y="374" width="2988" height="1324"/></clipPath><clipPath id="clip68"><rect x="1651" y="943" width="2921" height="152"/></clipPath><clipPath id="clip69"><rect x="2717" y="374" width="2988" height="1324"/></clipPath><clipPath id="clip70"><rect x="1651" y="792" width="2921" height="152"/></clipPath><clipPath id="clip71"><rect x="2717" y="374" width="2988" height="1324"/></clipPath><clipPath id="clip72"><rect x="1651" y="792" width="2921" height="152"/></clipPath><clipPath id="clip73"><rect x="2717" y="374" width="2988" height="1324"/></clipPath><clipPath id="clip74"><rect x="1651" y="792" width="2921" height="152"/></clipPath><clipPath id="clip75"><rect x="2717" y="374" width="2988" height="1324"/></clipPath><clipPath id="clip76"><rect x="1651" y="792" width="2921" height="152"/></clipPath><clipPath id="clip77"><rect x="2717" y="374" width="2988" height="1324"/></clipPath><clipPath id="clip78"><rect x="1880" y="641" width="2521" height="152"/></clipPath><clipPath id="clip79"><rect x="2717" y="374" width="2988" height="1324"/></clipPath><clipPath id="clip80"><rect x="1880" y="641" width="2521" height="152"/></clipPath><clipPath id="clip81"><rect x="2717" y="374" width="2988" height="1324"/></clipPath><clipPath id="clip82"><rect x="2717" y="374" width="2988" height="1324"/></clipPath><clipPath id="clip83"><rect x="2717" y="374" width="2988" height="1324"/></clipPath><clipPath id="clip84"><rect x="2717" y="374" width="2988" height="1324"/></clipPath><clipPath id="clip85"><rect x="2717" y="374" width="2988" height="1324"/></clipPath><clipPath id="clip86"><rect x="2717" y="374" width="2988" height="1324"/></clipPath><clipPath id="clip87"><rect x="2717" y="374" width="2988" height="1324"/></clipPath><clipPath id="clip88"><rect x="2717" y="374" width="2988" height="1324"/></clipPath><clipPath id="clip89"><rect x="2717" y="374" width="2988" height="1324"/></clipPath><clipPath id="clip90"><rect x="2717" y="374" width="2988" height="1324"/></clipPath><clipPath id="clip91"><rect x="2717" y="374" width="2988" height="1324"/></clipPath><clipPath id="clip92"><rect x="2717" y="374" width="2988" height="1324"/></clipPath><clipPath id="clip93"><rect x="2717" y="374" width="2989" height="1325"/></clipPath><clipPath id="clip94"><rect x="-5839" y="383" width="20102" height="419"/></clipPath><clipPath id="clip95"><rect x="2717" y="374" width="2989" height="1325"/></clipPath><clipPath id="clip96"><rect x="-5839" y="383" width="20102" height="419"/></clipPath><clipPath id="clip97"><rect x="2717" y="374" width="2989" height="1325"/></clipPath><clipPath id="clip98"><rect x="-5839" y="383" width="20102" height="419"/></clipPath><clipPath id="clip99"><rect x="2717" y="374" width="2989" height="1325"/></clipPath><clipPath id="clip100"><rect x="-5839" y="383" width="20102" height="419"/></clipPath><clipPath id="clip101"><rect x="2717" y="374" width="2989" height="1325"/></clipPath><clipPath id="clip102"><rect x="-5839" y="383" width="20102" height="419"/></clipPath><clipPath id="clip103"><rect x="2717" y="374" width="2989" height="1325"/></clipPath><clipPath id="clip104"><rect x="2717" y="374" width="2989" height="1325"/></clipPath><clipPath id="clip105"><rect x="2717" y="374" width="2989" height="1325"/></clipPath><clipPath id="clip106"><rect x="2717" y="374" width="2989" height="1325"/></clipPath><clipPath id="clip107"><rect x="2717" y="374" width="2989" height="1325"/></clipPath><clipPath id="clip108"><rect x="2717" y="374" width="2989" height="1325"/></clipPath><clipPath id="clip109"><rect x="4730" y="660" width="884" height="126"/></clipPath><clipPath id="clip110"><rect x="2717" y="374" width="2989" height="1325"/></clipPath><clipPath id="clip111"><rect x="2717" y="374" width="2989" height="1325"/></clipPath><clipPath id="clip112"><rect x="2717" y="374" width="2989" height="1325"/></clipPath><clipPath id="clip113"><rect x="2717" y="374" width="2989" height="1325"/></clipPath><clipPath id="clip114"><rect x="2717" y="374" width="2989" height="1325"/></clipPath><clipPath id="clip115"><rect x="2717" y="374" width="2989" height="1325"/></clipPath><clipPath id="clip116"><rect x="4162" y="1494" width="2022" height="205"/></clipPath><clipPath id="clip117"><rect x="2717" y="374" width="2989" height="1325"/></clipPath></defs><g clip-path="url(#clip0)" transform="translate(-2715 -373)"><rect x="2717" y="375" width="2988" height="1324" fill="#FFFFFF"/><g clip-path="url(#clip1)"><path d="M3752.62 645.5 3752.62 1551.5M4147.64 645.5 4147.64 1551.5M4542.65 645.5 4542.65 1551.5M4937.5 645.5 4937.5 1551.5" stroke="#D9D9D9" stroke-width="4.58333" stroke-linejoin="round" stroke-miterlimit="10" fill="none"/></g><g clip-path="url(#clip2)"><path d="M3457.5 770.5 3357.5 770.5 3357.5 671.5 3457.5 671.5Z" stroke="#000000" stroke-width="4.58333" stroke-linejoin="round" stroke-miterlimit="10" fill="#FFFFFF"/></g><g clip-path="url(#clip3)"><path d="M3541.62 921.53 3357.5 921.53 3357.5 822.527 3541.62 822.527Z" stroke="#000000" stroke-width="4.58333" stroke-linejoin="round" stroke-miterlimit="10" fill="#FFFFFF"/></g><g clip-path="url(#clip4)"><path d="M3827.5 770.5 3457.5 770.5 3457.5 671.5 3827.5 671.5Z" stroke="#000000" stroke-width="4.58333" stroke-linejoin="round" stroke-miterlimit="10" fill="#DEEBF7"/></g><g clip-path="url(#clip5)"><path d="M3673.62 1525.55 3357.5 1525.55 3357.5 1426.55 3673.62 1426.55ZM3801.62 1374.55 3357.5 1374.55 3357.5 1275.54 3801.62 1275.54ZM4059.63 1223.54 3357.5 1223.54 3357.5 1124.54 4059.63 1124.54ZM3857.63 921.53 3541.62 921.53 3541.62 822.527 3857.63 822.527Z" stroke="#000000" stroke-width="4.58333" stroke-linejoin="round" stroke-miterlimit="10" fill="#DEEBF7"/></g><g clip-path="url(#clip6)"><path d="M4305.64 1525.55 3673.62 1525.55 3673.62 1426.55 4305.64 1426.55ZM4147.64 1374.55 3801.62 1374.55 3801.62 1275.54 4147.64 1275.54ZM4235.64 1223.54 4059.63 1223.54 4059.63 1124.54 4235.64 1124.54ZM3673.62 1072.54 3357.5 1072.54 3357.5 973.532 3673.62 973.532ZM4384.64 921.53 3857.63 921.53 3857.63 822.527 4384.64 822.527ZM4268.64 770.525 3827.63 770.525 3827.63 671.522 4268.64 671.522Z" stroke="#000000" stroke-width="4.58333" stroke-linejoin="round" stroke-miterlimit="10" fill="#BDD7EE"/></g><g clip-path="url(#clip7)"><path d="M4621.65 1525.55 4305.64 1525.55 4305.64 1426.55 4621.65 1426.55ZM4345.64 1374.55 4147.64 1374.55 4147.64 1275.54 4345.64 1275.54ZM4762.66 1223.54 4235.64 1223.54 4235.64 1124.54 4762.66 1124.54ZM3989.63 1072.54 3673.62 1072.54 3673.62 973.532 3989.63 973.532ZM4674.65 921.53 4384.64 921.53 4384.64 822.527 4674.65 822.527ZM4553.65 770.525 4268.64 770.525 4268.64 671.522 4553.65 671.522Z" stroke="#000000" stroke-width="4.58333" stroke-linejoin="round" stroke-miterlimit="10" fill="#4CA0E6"/></g><g clip-path="url(#clip8)"><path d="M4937.66 1525.55 4621.65 1525.55 4621.65 1426.55 4937.66 1426.55ZM4937.66 1374.55 4345.64 1374.55 4345.64 1275.54 4937.66 1275.54ZM4937.66 1223.54 4762.66 1223.54 4762.66 1124.54 4937.66 1124.54ZM4937.66 1072.54 3989.63 1072.54 3989.63 973.532 4937.66 973.532ZM4937.66 921.53 4674.65 921.53 4674.65 822.527 4937.66 822.527ZM4937.66 770.525 4553.65 770.525 4553.65 671.522 4937.66 671.522Z" stroke="#000000" stroke-width="4.58333" stroke-linejoin="round" stroke-miterlimit="10" fill="#095085"/></g><g clip-path="url(#clip9)"><path d="M0 0 0.000360892 906" stroke="#D9D9D9" stroke-width="3.4375" stroke-linejoin="round" stroke-miterlimit="10" fill="none" fill-rule="evenodd" transform="matrix(1 0 0 -1 3357.5 1551.5)"/></g><g clip-path="url(#clip10)"><text fill="#404040" font-family="Yu Gothic,Yu Gothic_MSFontService,sans-serif" font-weight="700" font-size="55" transform="matrix(1 0 0 1 3341.83 1495)">0</text></g><g clip-path="url(#clip11)"><text fill="#404040" font-family="Yu Gothic,Yu Gothic_MSFontService,sans-serif" font-weight="700" font-size="55" transform="matrix(1 0 0 1 3341.83 1344)">0</text></g><g clip-path="url(#clip12)"><text fill="#404040" font-family="Yu Gothic,Yu Gothic_MSFontService,sans-serif" font-weight="700" font-size="55" transform="matrix(1 0 0 1 3341.83 1193)">0</text></g><g clip-path="url(#clip13)"><text fill="#404040" font-family="Yu Gothic,Yu Gothic_MSFontService,sans-serif" font-weight="700" font-size="55" transform="matrix(1 0 0 1 3341.83 1042)">0</text></g><g clip-path="url(#clip14)"><text fill="#404040" font-family="Yu Gothic,Yu Gothic_MSFontService,sans-serif" font-weight="700" font-size="55" transform="matrix(1 0 0 1 3434.02 891)">7</text></g><g clip-path="url(#clip15)"><text fill="#404040" font-family="Yu Gothic,Yu Gothic_MSFontService,sans-serif" font-weight="700" font-size="55" transform="matrix(1 0 0 1 3391.66 740)">7</text></g><g clip-path="url(#clip16)"><text fill="#404040" font-family="Yu Gothic,Yu Gothic_MSFontService,sans-serif" font-weight="700" font-size="55" transform="matrix(1 0 0 1 3499.87 1495)">1</text></g><g clip-path="url(#clip17)"><text fill="#404040" font-family="Yu Gothic,Yu Gothic_MSFontService,sans-serif" font-weight="700" font-size="55" transform="matrix(1 0 0 1 3564.07 1344)">9</text></g><g clip-path="url(#clip18)"><text fill="#404040" font-family="Yu Gothic,Yu Gothic_MSFontService,sans-serif" font-weight="700" font-size="55" transform="matrix(1 0 0 1 3693.03 1193)">4</text></g><g clip-path="url(#clip19)"><text fill="#404040" font-family="Yu Gothic,Yu Gothic_MSFontService,sans-serif" font-weight="700" font-size="55" transform="matrix(1 0 0 1 3341.83 1042)">0</text></g><g clip-path="url(#clip20)"><text fill="#404040" font-family="Yu Gothic,Yu Gothic_MSFontService,sans-serif" font-weight="700" font-size="55" transform="matrix(1 0 0 1 3668.48 891)">12</text></g><g clip-path="url(#clip21)"><text fill="#404040" font-family="Yu Gothic,Yu Gothic_MSFontService,sans-serif" font-weight="700" font-size="55" transform="matrix(1 0 0 1 3610.82 740)">26</text></g><g clip-path="url(#clip22)"><text fill="#404040" font-family="Yu Gothic,Yu Gothic_MSFontService,sans-serif" font-weight="700" font-size="55" transform="matrix(1 0 0 1 3973.99 1495)">2</text></g><g clip-path="url(#clip23)"><text fill="#404040" font-family="Yu Gothic,Yu Gothic_MSFontService,sans-serif" font-weight="700" font-size="55" transform="matrix(1 0 0 1 3959.17 1344)">7</text></g><g clip-path="url(#clip24)"><text fill="#404040" font-family="Yu Gothic,Yu Gothic_MSFontService,sans-serif" font-weight="700" font-size="55" transform="matrix(1 0 0 1 4132.03 1193)">1</text></g><g clip-path="url(#clip25)"><text fill="#404040" font-family="Yu Gothic,Yu Gothic_MSFontService,sans-serif" font-weight="700" font-size="55" transform="matrix(1 0 0 1 3499.87 1042)">1</text></g><g clip-path="url(#clip26)"><text fill="#404040" font-family="Yu Gothic,Yu Gothic_MSFontService,sans-serif" font-weight="700" font-size="55" transform="matrix(1 0 0 1 4089.92 891)">20</text></g><g clip-path="url(#clip27)"><text fill="#404040" font-family="Yu Gothic,Yu Gothic_MSFontService,sans-serif" font-weight="700" font-size="55" transform="matrix(1 0 0 1 4016.6 740)">31</text></g><g clip-path="url(#clip28)"><text fill="#404040" font-family="Yu Gothic,Yu Gothic_MSFontService,sans-serif" font-weight="700" font-size="55" transform="matrix(1 0 0 1 4448.11 1495)">1</text></g><g clip-path="url(#clip29)"><text fill="#404040" font-family="Yu Gothic,Yu Gothic_MSFontService,sans-serif" font-weight="700" font-size="55" transform="matrix(1 0 0 1 4230.8 1344)">4</text></g><g clip-path="url(#clip30)"><text fill="#404040" font-family="Yu Gothic,Yu Gothic_MSFontService,sans-serif" font-weight="700" font-size="55" transform="matrix(1 0 0 1 4483.23 1193)">3</text></g><g clip-path="url(#clip31)"><text fill="#404040" font-family="Yu Gothic,Yu Gothic_MSFontService,sans-serif" font-weight="700" font-size="55" transform="matrix(1 0 0 1 3815.95 1042)">1</text></g><g clip-path="url(#clip32)"><text fill="#404040" font-family="Yu Gothic,Yu Gothic_MSFontService,sans-serif" font-weight="700" font-size="55" transform="matrix(1 0 0 1 4498.19 891)">11</text></g><g clip-path="url(#clip33)"><text fill="#404040" font-family="Yu Gothic,Yu Gothic_MSFontService,sans-serif" font-weight="700" font-size="55" transform="matrix(1 0 0 1 4379.66 740)">20</text></g><g clip-path="url(#clip34)"><text fill="#FFFFFF" font-family="Yu Gothic,Yu Gothic_MSFontService,sans-serif" font-weight="700" font-size="55" transform="matrix(1 0 0 1 4764.18 1495)">1</text></g><g clip-path="url(#clip35)"><text fill="#FFFFFF" font-family="Yu Gothic,Yu Gothic_MSFontService,sans-serif" font-weight="700" font-size="55" transform="matrix(1 0 0 1 4610.13 1344)">12</text></g><g clip-path="url(#clip36)"><text fill="#FFFFFF" font-family="Yu Gothic,Yu Gothic_MSFontService,sans-serif" font-weight="700" font-size="55" transform="matrix(1 0 0 1 4834.42 1193)">1</text></g><g clip-path="url(#clip37)"><text fill="#FFFFFF" font-family="Yu Gothic,Yu Gothic_MSFontService,sans-serif" font-weight="700" font-size="55" transform="matrix(1 0 0 1 4448.11 1042)">3</text></g><g clip-path="url(#clip38)"><text fill="#FFFFFF" font-family="Yu Gothic,Yu Gothic_MSFontService,sans-serif" font-weight="700" font-size="55" transform="matrix(1 0 0 1 4774.76 891)">10</text></g><g clip-path="url(#clip39)"><text fill="#FFFFFF" font-family="Yu Gothic,Yu Gothic_MSFontService,sans-serif" font-weight="700" font-size="55" transform="matrix(1 0 0 1 4714.25 740)">27</text></g><g clip-path="url(#clip40)"><text fill="#595959" font-family="Yu Gothic,Yu Gothic_MSFontService,sans-serif" font-weight="500" font-size="60" transform="matrix(1 0 0 1 3317.1 1650)">0%</text></g><g clip-path="url(#clip41)"><text fill="#595959" font-family="Yu Gothic,Yu Gothic_MSFontService,sans-serif" font-weight="500" font-size="60" transform="matrix(1 0 0 1 3695.67 1650)">25%</text></g><g clip-path="url(#clip42)"><text fill="#595959" font-family="Yu Gothic,Yu Gothic_MSFontService,sans-serif" font-weight="500" font-size="60" transform="matrix(1 0 0 1 4090.77 1650)">50%</text></g><g clip-path="url(#clip43)"><text fill="#595959" font-family="Yu Gothic,Yu Gothic_MSFontService,sans-serif" font-weight="500" font-size="60" transform="matrix(1 0 0 1 4485.86 1650)">75%</text></g><g clip-path="url(#clip44)"><text fill="#595959" font-family="Yu Gothic,Yu Gothic_MSFontService,sans-serif" font-weight="500" font-size="60" transform="matrix(1 0 0 1 4864.43 1650)">100%</text></g><g clip-path="url(#clip45)"><g clip-path="url(#clip46)"><text fill="#595959" font-family="Yu Gothic,Yu Gothic_MSFontService,sans-serif" font-weight="500" font-size="57" transform="matrix(1 0 0 1 2966.62 1492)">その他</text></g></g><g clip-path="url(#clip47)"><g clip-path="url(#clip48)"><text fill="#595959" font-family="Yu Gothic,Yu Gothic_MSFontService,sans-serif" font-weight="500" font-size="57" transform="matrix(1 0 0 1 3138.5 1492)">(n=25)</text></g></g><g clip-path="url(#clip49)"><g clip-path="url(#clip50)"><text fill="#595959" font-family="Yu Gothic,Yu Gothic_MSFontService,sans-serif" font-weight="500" font-size="57" transform="matrix(1 0 0 1 2934.81 1341)">大学院</text></g></g><g clip-path="url(#clip51)"><g clip-path="url(#clip52)"><text fill="#595959" font-family="Yu Gothic,Yu Gothic_MSFontService,sans-serif" font-weight="500" font-size="57" transform="matrix(1 0 0 1 3106.69 1341)">(n=692)</text></g></g><g clip-path="url(#clip53)"><g clip-path="url(#clip54)"><text fill="#595959" font-family="Yu Gothic,Yu Gothic_MSFontService,sans-serif" font-weight="500" font-size="57" transform="matrix(1 0 0 1 2788.42 1190)">学部</text></g></g><g clip-path="url(#clip55)"><g clip-path="url(#clip56)"><text fill="#595959" font-family="Yu Gothic,Yu Gothic_MSFontService,sans-serif" font-weight="500" font-size="57" transform="matrix(1 0 0 1 2903 1190)">3</text></g></g><g clip-path="url(#clip57)"><g clip-path="url(#clip58)"><text fill="#595959" font-family="Yu Gothic,Yu Gothic_MSFontService,sans-serif" font-weight="500" font-size="57" transform="matrix(1 0 0 1 2934.81 1190)">年以上</text></g></g><g clip-path="url(#clip59)"><g clip-path="url(#clip60)"><text fill="#595959" font-family="Yu Gothic,Yu Gothic_MSFontService,sans-serif" font-weight="500" font-size="57" transform="matrix(1 0 0 1 3106.69 1190)">(n=403)</text></g></g><g clip-path="url(#clip61)"><g clip-path="url(#clip62)"><text fill="#595959" font-family="Yu Gothic,Yu Gothic_MSFontService,sans-serif" font-weight="500" font-size="57" transform="matrix(1 0 0 1 2903 1039)">学部</text></g></g><g clip-path="url(#clip63)"><g clip-path="url(#clip64)"><text fill="#595959" font-family="Yu Gothic,Yu Gothic_MSFontService,sans-serif" font-weight="500" font-size="57" transform="matrix(1 0 0 1 3017.59 1039)">2</text></g></g><g clip-path="url(#clip65)"><g clip-path="url(#clip66)"><text fill="#595959" font-family="Yu Gothic,Yu Gothic_MSFontService,sans-serif" font-weight="500" font-size="57" transform="matrix(1 0 0 1 3049.4 1039)">年</text></g></g><g clip-path="url(#clip67)"><g clip-path="url(#clip68)"><text fill="#595959" font-family="Yu Gothic,Yu Gothic_MSFontService,sans-serif" font-weight="500" font-size="57" transform="matrix(1 0 0 1 3106.69 1039)">(n=261)</text></g></g><g clip-path="url(#clip69)"><g clip-path="url(#clip70)"><text fill="#595959" font-family="Yu Gothic,Yu Gothic_MSFontService,sans-serif" font-weight="500" font-size="57" transform="matrix(1 0 0 1 2903 888)">学部</text></g></g><g clip-path="url(#clip71)"><g clip-path="url(#clip72)"><text fill="#595959" font-family="Yu Gothic,Yu Gothic_MSFontService,sans-serif" font-weight="500" font-size="57" transform="matrix(1 0 0 1 3017.59 888)">1</text></g></g><g clip-path="url(#clip73)"><g clip-path="url(#clip74)"><text fill="#595959" font-family="Yu Gothic,Yu Gothic_MSFontService,sans-serif" font-weight="500" font-size="57" transform="matrix(1 0 0 1 3049.4 888)">年</text></g></g><g clip-path="url(#clip75)"><g clip-path="url(#clip76)"><text fill="#595959" font-family="Yu Gothic,Yu Gothic_MSFontService,sans-serif" font-weight="500" font-size="57" transform="matrix(1 0 0 1 3106.69 888)">(n=248)</text></g></g><g clip-path="url(#clip77)"><g clip-path="url(#clip78)"><text fill="#595959" font-family="Yu Gothic,Yu Gothic_MSFontService,sans-serif" font-weight="500" font-size="57" transform="matrix(1 0 0 1 2960.3 737)">全体</text></g></g><g clip-path="url(#clip79)"><g clip-path="url(#clip80)"><text fill="#595959" font-family="Yu Gothic,Yu Gothic_MSFontService,sans-serif" font-weight="500" font-size="57" transform="matrix(1 0 0 1 3074.88 737)">(n=1629)</text></g></g><g clip-path="url(#clip81)"><rect x="5339.5" y="723.5" width="29" height="28.9999" stroke="#000000" stroke-width="4.58333" stroke-linejoin="round" stroke-miterlimit="10" fill="#FFFFFF"/></g><g clip-path="url(#clip82)"><text fill="#595959" font-family="Yu Gothic,Yu Gothic_MSFontService,sans-serif" font-weight="500" font-size="50" transform="matrix(1 0 0 1 5381.32 752)">大変良かった</text></g><g clip-path="url(#clip83)"><rect x="5339.5" y="887.5" width="29" height="28.9999" stroke="#000000" stroke-width="4.58333" stroke-linejoin="round" stroke-miterlimit="10" fill="#DEEBF7"/></g><g clip-path="url(#clip84)"><text fill="#595959" font-family="Yu Gothic,Yu Gothic_MSFontService,sans-serif" font-weight="500" font-size="50" transform="matrix(1 0 0 1 5381.32 916)">良かった</text></g><g clip-path="url(#clip85)"><rect x="5339.5" y="1051.5" width="29" height="29.9999" stroke="#000000" stroke-width="4.58333" stroke-linejoin="round" stroke-miterlimit="10" fill="#BDD7EE"/></g><g clip-path="url(#clip86)"><text fill="#595959" font-family="Yu Gothic,Yu Gothic_MSFontService,sans-serif" font-weight="500" font-size="50" transform="matrix(1 0 0 1 5381.32 1081)">どちらともい</text></g><g clip-path="url(#clip87)"><text fill="#595959" font-family="Yu Gothic,Yu Gothic_MSFontService,sans-serif" font-weight="500" font-size="50" transform="matrix(1 0 0 1 5381.32 1165)">えない</text></g><g clip-path="url(#clip88)"><rect x="5339.5" y="1216.5" width="29" height="28.9999" stroke="#000000" stroke-width="4.58333" stroke-linejoin="round" stroke-miterlimit="10" fill="#4CA0E6"/></g><g clip-path="url(#clip89)"><text fill="#595959" font-family="Yu Gothic,Yu Gothic_MSFontService,sans-serif" font-weight="500" font-size="50" transform="matrix(1 0 0 1 5381.32 1245)">良くなかった</text></g><g clip-path="url(#clip90)"><rect x="5339.5" y="1380.5" width="29" height="28.9999" stroke="#000000" stroke-width="4.58333" stroke-linejoin="round" stroke-miterlimit="10" fill="#095085"/></g><g clip-path="url(#clip91)"><text fill="#595959" font-family="Yu Gothic,Yu Gothic_MSFontService,sans-serif" font-weight="500" font-size="50" transform="matrix(1 0 0 1 5381.32 1409)">全く良くな</text></g><g clip-path="url(#clip92)"><text fill="#595959" font-family="Yu Gothic,Yu Gothic_MSFontService,sans-serif" font-weight="500" font-size="50" transform="matrix(1 0 0 1 5381.32 1493)">かった</text></g><rect x="2717.5" y="375.5" width="2988" height="1324" stroke="#000000" stroke-width="4.58333" stroke-linejoin="round" stroke-miterlimit="10" fill="none"/><g clip-path="url(#clip93)"><g clip-path="url(#clip94)"><text font-family="Yu Gothic,Yu Gothic_MSFontService,sans-serif" font-weight="500" font-size="73" transform="matrix(1 0 0 1 2776.08 487)">【授業方法別の評価】</text></g></g><g clip-path="url(#clip95)"><g clip-path="url(#clip96)"><text font-family="Yu Gothic,Yu Gothic_MSFontService,sans-serif" font-weight="500" font-size="73" transform="matrix(1 0 0 1 3509.42 487)">4.</text></g></g><g clip-path="url(#clip97)"><g clip-path="url(#clip98)"><text font-family="Yu Gothic,Yu Gothic_MSFontService,sans-serif" font-weight="500" font-size="73" transform="matrix(1 0 0 1 3569.11 487)">コールセンター方式（ほぼ全員の学生が</text></g></g><g clip-path="url(#clip99)"><g clip-path="url(#clip100)"><text font-family="Yu Gothic,Yu Gothic_MSFontService,sans-serif" font-weight="500" font-size="73" transform="matrix(1 0 0 1 4889.11 487)">PC</text></g></g><g clip-path="url(#clip101)"><g clip-path="url(#clip102)"><text font-family="Yu Gothic,Yu Gothic_MSFontService,sans-serif" font-weight="500" font-size="73" transform="matrix(1 0 0 1 4987.77 487)">を持って教室に集ま</text></g></g><g clip-path="url(#clip103)"><text font-family="Yu Gothic,Yu Gothic_MSFontService,sans-serif" font-weight="500" font-size="73" transform="matrix(1 0 0 1 2776.08 610)">り</text></g><g clip-path="url(#clip104)"><text font-family="Yu Gothic,Yu Gothic_MSFontService,sans-serif" font-weight="500" font-size="73" transform="matrix(1 0 0 1 2849.42 610)">Zoom</text></g><g clip-path="url(#clip105)"><text font-family="Yu Gothic,Yu Gothic_MSFontService,sans-serif" font-weight="500" font-size="73" transform="matrix(1 0 0 1 3039.42 610)">などに接続する授業）</text></g><g clip-path="url(#clip106)"><path d="M5015.5 663.5 5019.15 1664.97" stroke="#7F7F7F" stroke-width="4.58333" stroke-miterlimit="8" stroke-dasharray="18.3333 13.75" fill="none" fill-rule="evenodd"/></g><g clip-path="url(#clip107)"><rect x="5019" y="667" width="303" height="1013" fill="#F2F2F2"/></g><g clip-path="url(#clip108)"><g clip-path="url(#clip109)"><text font-family="Yu Gothic,Yu Gothic_MSFontService,sans-serif" font-weight="700" font-size="55" transform="matrix(1 0 0 1 5108.67 742)">1518</text></g></g><g clip-path="url(#clip110)"><text fill="#404040" font-family="Yu Gothic,Yu Gothic_MSFontService,sans-serif" font-weight="700" font-size="55" transform="matrix(1 0 0 1 5120.37 890)">188</text></g><g clip-path="url(#clip111)"><text fill="#404040" font-family="Yu Gothic,Yu Gothic_MSFontService,sans-serif" font-weight="700" font-size="55" transform="matrix(1 0 0 1 5124.43 1039)">256</text></g><g clip-path="url(#clip112)"><text fill="#404040" font-family="Yu Gothic,Yu Gothic_MSFontService,sans-serif" font-weight="700" font-size="55" transform="matrix(1 0 0 1 5124.43 1187)">394</text></g><g clip-path="url(#clip113)"><text fill="#404040" font-family="Yu Gothic,Yu Gothic_MSFontService,sans-serif" font-weight="700" font-size="55" transform="matrix(1 0 0 1 5124.43 1336)">660</text></g><g clip-path="url(#clip114)"><text fill="#404040" font-family="Yu Gothic,Yu Gothic_MSFontService,sans-serif" font-weight="700" font-size="55" transform="matrix(1 0 0 1 5140.2 1484)">20</text></g><g clip-path="url(#clip115)"><g clip-path="url(#clip116)"><text font-family="Yu Gothic,Yu Gothic_MSFontService,sans-serif" font-weight="400" font-size="41" transform="matrix(1 0 0 1 5028.4 1560)">この形式の授業</text></g></g><g clip-path="url(#clip117)"><text font-family="Yu Gothic,Yu Gothic_MSFontService,sans-serif" font-weight="400" font-size="41" transform="matrix(1 0 0 1 5090.26 1629)">を未受講</text></g></g></svg>