<svg width="2993" height="1159" xmlns="http://www.w3.org/2000/svg" xmlns:xlink="http://www.w3.org/1999/xlink" overflow="hidden"><defs><clipPath id="clip0"><rect x="2715" y="373" width="2993" height="1159"/></clipPath><clipPath id="clip1"><rect x="2717" y="374" width="2988" height="1154"/></clipPath><clipPath id="clip2"><rect x="3357" y="530" width="1584" height="874"/></clipPath><clipPath id="clip3"><rect x="3357" y="530" width="1584" height="874"/></clipPath><clipPath id="clip4"><rect x="3357" y="530" width="1584" height="874"/></clipPath><clipPath id="clip5"><rect x="3357" y="530" width="1584" height="874"/></clipPath><clipPath id="clip6"><rect x="3357" y="530" width="1584" height="874"/></clipPath><clipPath id="clip7"><rect x="3357" y="530" width="1584" height="874"/></clipPath><clipPath id="clip8"><rect x="3357" y="530" width="1584" height="874"/></clipPath><clipPath id="clip9"><rect x="2717" y="374" width="2988" height="1154"/></clipPath><clipPath id="clip10"><rect x="2717" y="374" width="2988" height="1154"/></clipPath><clipPath id="clip11"><rect x="2717" y="374" width="2988" height="1154"/></clipPath><clipPath id="clip12"><rect x="2717" y="374" width="2988" height="1154"/></clipPath><clipPath id="clip13"><rect x="2717" y="374" width="2988" height="1154"/></clipPath><clipPath id="clip14"><rect x="2717" y="374" width="2988" height="1154"/></clipPath><clipPath id="clip15"><rect x="2717" y="374" width="2988" height="1154"/></clipPath><clipPath id="clip16"><rect x="2717" y="374" width="2988" height="1154"/></clipPath><clipPath id="clip17"><rect x="2717" y="374" width="2988" height="1154"/></clipPath><clipPath id="clip18"><rect x="2717" y="374" width="2988" height="1154"/></clipPath><clipPath id="clip19"><rect x="2717" y="374" width="2988" height="1154"/></clipPath><clipPath id="clip20"><rect x="2717" y="374" width="2988" height="1154"/></clipPath><clipPath id="clip21"><rect x="2717" y="374" width="2988" height="1154"/></clipPath><clipPath id="clip22"><rect x="2717" y="374" width="2988" height="1154"/></clipPath><clipPath id="clip23"><rect x="2717" y="374" width="2988" height="1154"/></clipPath><clipPath id="clip24"><rect x="2717" y="374" width="2988" height="1154"/></clipPath><clipPath id="clip25"><rect x="2717" y="374" width="2988" height="1154"/></clipPath><clipPath id="clip26"><rect x="2717" y="374" width="2988" height="1154"/></clipPath><clipPath id="clip27"><rect x="2717" y="374" width="2988" height="1154"/></clipPath><clipPath id="clip28"><rect x="2717" y="374" width="2988" height="1154"/></clipPath><clipPath id="clip29"><rect x="2717" y="374" width="2988" height="1154"/></clipPath><clipPath id="clip30"><rect x="2717" y="374" width="2988" height="1154"/></clipPath><clipPath id="clip31"><rect x="2717" y="374" width="2988" height="1154"/></clipPath><clipPath id="clip32"><rect x="2717" y="374" width="2988" height="1154"/></clipPath><clipPath id="clip33"><rect x="2717" y="374" width="2988" height="1154"/></clipPath><clipPath id="clip34"><rect x="2717" y="374" width="2988" height="1154"/></clipPath><clipPath id="clip35"><rect x="2717" y="374" width="2988" height="1154"/></clipPath><clipPath id="clip36"><rect x="2717" y="374" width="2988" height="1154"/></clipPath><clipPath id="clip37"><rect x="2717" y="374" width="2988" height="1154"/></clipPath><clipPath id="clip38"><rect x="2717" y="374" width="2988" height="1154"/></clipPath><clipPath id="clip39"><rect x="2717" y="374" width="2988" height="1154"/></clipPath><clipPath id="clip40"><rect x="2717" y="374" width="2988" height="1154"/></clipPath><clipPath id="clip41"><rect x="2717" y="374" width="2988" height="1154"/></clipPath><clipPath id="clip42"><rect x="2717" y="374" width="2988" height="1154"/></clipPath><clipPath id="clip43"><rect x="2717" y="374" width="2988" height="1154"/></clipPath><clipPath id="clip44"><rect x="2717" y="374" width="2988" height="1154"/></clipPath><clipPath id="clip45"><rect x="2717" y="374" width="2988" height="1154"/></clipPath><clipPath id="clip46"><rect x="1905" y="1251" width="2477" height="146"/></clipPath><clipPath id="clip47"><rect x="2717" y="374" width="2988" height="1154"/></clipPath><clipPath id="clip48"><rect x="1905" y="1251" width="2477" height="146"/></clipPath><clipPath id="clip49"><rect x="2717" y="374" width="2988" height="1154"/></clipPath><clipPath id="clip50"><rect x="1778" y="1106" width="2699" height="146"/></clipPath><clipPath id="clip51"><rect x="2717" y="374" width="2988" height="1154"/></clipPath><clipPath id="clip52"><rect x="1778" y="1106" width="2699" height="146"/></clipPath><clipPath id="clip53"><rect x="2717" y="374" width="2988" height="1154"/></clipPath><clipPath id="clip54"><rect x="1192" y="961" width="3724" height="146"/></clipPath><clipPath id="clip55"><rect x="2717" y="374" width="2988" height="1154"/></clipPath><clipPath id="clip56"><rect x="1192" y="961" width="3724" height="146"/></clipPath><clipPath id="clip57"><rect x="2717" y="374" width="2988" height="1154"/></clipPath><clipPath id="clip58"><rect x="1192" y="961" width="3724" height="146"/></clipPath><clipPath id="clip59"><rect x="2717" y="374" width="2988" height="1154"/></clipPath><clipPath id="clip60"><rect x="1192" y="961" width="3724" height="146"/></clipPath><clipPath id="clip61"><rect x="2717" y="374" width="2988" height="1154"/></clipPath><clipPath id="clip62"><rect x="1651" y="816" width="2921" height="146"/></clipPath><clipPath id="clip63"><rect x="2717" y="374" width="2988" height="1154"/></clipPath><clipPath id="clip64"><rect x="1651" y="816" width="2921" height="146"/></clipPath><clipPath id="clip65"><rect x="2717" y="374" width="2988" height="1154"/></clipPath><clipPath id="clip66"><rect x="1651" y="816" width="2921" height="146"/></clipPath><clipPath id="clip67"><rect x="2717" y="374" width="2988" height="1154"/></clipPath><clipPath id="clip68"><rect x="1651" y="816" width="2921" height="146"/></clipPath><clipPath id="clip69"><rect x="2717" y="374" width="2988" height="1154"/></clipPath><clipPath id="clip70"><rect x="1651" y="671" width="2921" height="146"/></clipPath><clipPath id="clip71"><rect x="2717" y="374" width="2988" height="1154"/></clipPath><clipPath id="clip72"><rect x="1651" y="671" width="2921" height="146"/></clipPath><clipPath id="clip73"><rect x="2717" y="374" width="2988" height="1154"/></clipPath><clipPath id="clip74"><rect x="1651" y="671" width="2921" height="146"/></clipPath><clipPath id="clip75"><rect x="2717" y="374" width="2988" height="1154"/></clipPath><clipPath id="clip76"><rect x="1651" y="671" width="2921" height="146"/></clipPath><clipPath id="clip77"><rect x="2717" y="374" width="2988" height="1154"/></clipPath><clipPath id="clip78"><rect x="1880" y="526" width="2521" height="146"/></clipPath><clipPath id="clip79"><rect x="2717" y="374" width="2988" height="1154"/></clipPath><clipPath id="clip80"><rect x="1880" y="526" width="2521" height="146"/></clipPath><clipPath id="clip81"><rect x="2717" y="374" width="2988" height="1154"/></clipPath><clipPath id="clip82"><rect x="2717" y="374" width="2988" height="1154"/></clipPath><clipPath id="clip83"><rect x="2717" y="374" width="2988" height="1154"/></clipPath><clipPath id="clip84"><rect x="2717" y="374" width="2988" height="1154"/></clipPath><clipPath id="clip85"><rect x="2717" y="374" width="2988" height="1154"/></clipPath><clipPath id="clip86"><rect x="2717" y="374" width="2988" height="1154"/></clipPath><clipPath id="clip87"><rect x="2717" y="374" width="2988" height="1154"/></clipPath><clipPath id="clip88"><rect x="2717" y="374" width="2988" height="1154"/></clipPath><clipPath id="clip89"><rect x="2717" y="374" width="2988" height="1154"/></clipPath><clipPath id="clip90"><rect x="2717" y="374" width="2988" height="1154"/></clipPath><clipPath id="clip91"><rect x="2717" y="374" width="2988" height="1154"/></clipPath><clipPath id="clip92"><rect x="2717" y="374" width="2988" height="1154"/></clipPath><clipPath id="clip93"><rect x="2717" y="374" width="2989" height="1155"/></clipPath><clipPath id="clip94"><rect x="-5826" y="382" width="20072" height="365"/></clipPath><clipPath id="clip95"><rect x="2717" y="374" width="2989" height="1155"/></clipPath><clipPath id="clip96"><rect x="-5826" y="382" width="20072" height="365"/></clipPath><clipPath id="clip97"><rect x="2717" y="374" width="2989" height="1155"/></clipPath><clipPath id="clip98"><rect x="-5826" y="382" width="20072" height="365"/></clipPath><clipPath id="clip99"><rect x="2717" y="374" width="2989" height="1155"/></clipPath><clipPath id="clip100"><rect x="2717" y="374" width="2989" height="1155"/></clipPath><clipPath id="clip101"><rect x="2717" y="374" width="2989" height="1155"/></clipPath><clipPath id="clip102"><rect x="4730" y="532" width="884" height="110"/></clipPath><clipPath id="clip103"><rect x="2717" y="374" width="2989" height="1155"/></clipPath><clipPath id="clip104"><rect x="2717" y="374" width="2989" height="1155"/></clipPath><clipPath id="clip105"><rect x="2717" y="374" width="2989" height="1155"/></clipPath><clipPath id="clip106"><rect x="2717" y="374" width="2989" height="1155"/></clipPath><clipPath id="clip107"><rect x="2717" y="374" width="2989" height="1155"/></clipPath><clipPath id="clip108"><rect x="2717" y="374" width="2989" height="1155"/></clipPath><clipPath id="clip109"><rect x="4162" y="1350" width="2022" height="179"/></clipPath><clipPath id="clip110"><rect x="2717" y="374" width="2989" height="1155"/></clipPath><clipPath id="clip111"><rect x="4162" y="1350" width="2022" height="179"/></clipPath></defs><g clip-path="url(#clip0)" transform="translate(-2715 -373)"><rect x="2717" y="375" width="2988" height="1154" fill="#FFFFFF"/><g clip-path="url(#clip1)"><path d="M3752.62 530.5 3752.62 1400.5M4147.64 530.5 4147.64 1400.5M4542.65 530.5 4542.65 1400.5M4937.5 530.5 4937.5 1400.5" stroke="#D9D9D9" stroke-width="4.58333" stroke-linejoin="round" stroke-miterlimit="10" fill="none"/></g><g clip-path="url(#clip2)"><path d="M3673.5 650.5 3357.5 650.5 3357.5 555.5 3673.5 555.5Z" stroke="#000000" stroke-width="4.58333" stroke-linejoin="round" stroke-miterlimit="10" fill="#FFFFFF"/></g><g clip-path="url(#clip3)"><path d="M3560.62 1230.54 3357.5 1230.54 3357.5 1135.54 3560.62 1135.54ZM3636.62 1085.54 3357.5 1085.54 3357.5 990.533 3636.62 990.533ZM3838.63 940.531 3357.5 940.531 3357.5 845.528 3838.63 845.528ZM3714.62 795.526 3357.5 795.526 3357.5 700.523 3714.62 700.523Z" stroke="#000000" stroke-width="4.58333" stroke-linejoin="round" stroke-miterlimit="10" fill="#FFFFFF"/></g><g clip-path="url(#clip4)"><path d="M4135.5 650.5 3673.5 650.5 3673.5 555.5 4135.5 555.5Z" stroke="#000000" stroke-width="4.58333" stroke-linejoin="round" stroke-miterlimit="10" fill="#DEEBF7"/></g><g clip-path="url(#clip5)"><path d="M3620.62 1375.55 3357.5 1375.55 3357.5 1280.54 3620.62 1280.54ZM4086.63 1230.54 3560.62 1230.54 3560.62 1135.54 4086.63 1135.54ZM4008.63 1085.54 3636.62 1085.54 3636.62 990.533 4008.63 990.533ZM4388.64 940.531 3838.63 940.531 3838.63 845.528 4388.64 845.528ZM4173.64 795.526 3714.62 795.526 3714.62 700.523 4173.64 700.523Z" stroke="#000000" stroke-width="4.58333" stroke-linejoin="round" stroke-miterlimit="10" fill="#DEEBF7"/></g><g clip-path="url(#clip6)"><path d="M4147.64 1375.55 3620.62 1375.55 3620.62 1280.54 4147.64 1280.54ZM4532.65 1230.54 4086.63 1230.54 4086.63 1135.54 4532.65 1135.54ZM4380.64 1085.54 4008.63 1085.54 4008.63 990.533 4380.64 990.533ZM4525.65 940.531 4388.64 940.531 4388.64 845.528 4525.65 845.528ZM4597.65 795.526 4173.64 795.526 4173.64 700.523 4597.65 700.523ZM4524.65 650.521 4135.64 650.521 4135.64 555.518 4524.65 555.518Z" stroke="#000000" stroke-width="4.58333" stroke-linejoin="round" stroke-miterlimit="10" fill="#9DC3E6"/></g><g clip-path="url(#clip7)"><path d="M4674.65 1375.55 4147.64 1375.55 4147.64 1280.54 4674.65 1280.54ZM4775.66 1230.54 4532.65 1230.54 4532.65 1135.54 4775.66 1135.54ZM4658.65 1085.54 4380.64 1085.54 4380.64 990.533 4658.65 990.533ZM4731.66 940.531 4525.65 940.531 4525.65 845.528 4731.66 845.528ZM4801.66 795.526 4597.65 795.526 4597.65 700.523 4801.66 700.523ZM4759.66 650.521 4524.65 650.521 4524.65 555.518 4759.66 555.518Z" stroke="#000000" stroke-width="4.58333" stroke-linejoin="round" stroke-miterlimit="10" fill="#4CA0E6"/></g><g clip-path="url(#clip8)"><path d="M4937.66 1375.55 4674.65 1375.55 4674.65 1280.54 4937.66 1280.54ZM4937.66 1230.54 4775.66 1230.54 4775.66 1135.54 4937.66 1135.54ZM4937.66 1085.54 4658.65 1085.54 4658.65 990.533 4937.66 990.533ZM4937.66 940.531 4731.66 940.531 4731.66 845.528 4937.66 845.528ZM4937.66 795.526 4801.66 795.526 4801.66 700.523 4937.66 700.523ZM4937.66 650.521 4759.66 650.521 4759.66 555.518 4937.66 555.518Z" stroke="#000000" stroke-width="4.58333" stroke-linejoin="round" stroke-miterlimit="10" fill="#095085"/></g><g clip-path="url(#clip9)"><path d="M0 0 0.000360892 870" stroke="#D9D9D9" stroke-width="3.4375" stroke-linejoin="round" stroke-miterlimit="10" fill="none" fill-rule="evenodd" transform="matrix(1 0 0 -1 3357.5 1400.5)"/></g><g clip-path="url(#clip10)"><text fill="#404040" font-family="Yu Gothic,Yu Gothic_MSFontService,sans-serif" font-weight="700" font-size="55" transform="matrix(1 0 0 1 3341.83 1347)">0</text></g><g clip-path="url(#clip11)"><text fill="#404040" font-family="Yu Gothic,Yu Gothic_MSFontService,sans-serif" font-weight="700" font-size="55" transform="matrix(1 0 0 1 3443.14 1202)">5</text></g><g clip-path="url(#clip12)"><text fill="#404040" font-family="Yu Gothic,Yu Gothic_MSFontService,sans-serif" font-weight="700" font-size="55" transform="matrix(1 0 0 1 3481.28 1057)">6</text></g><g clip-path="url(#clip13)"><text fill="#404040" font-family="Yu Gothic,Yu Gothic_MSFontService,sans-serif" font-weight="700" font-size="55" transform="matrix(1 0 0 1 3582.33 912)">7</text></g><g clip-path="url(#clip14)"><text fill="#404040" font-family="Yu Gothic,Yu Gothic_MSFontService,sans-serif" font-weight="700" font-size="55" transform="matrix(1 0 0 1 3504.5 767)">21</text></g><g clip-path="url(#clip15)"><text fill="#404040" font-family="Yu Gothic,Yu Gothic_MSFontService,sans-serif" font-weight="700" font-size="55" transform="matrix(1 0 0 1 3484.1 622)">39</text></g><g clip-path="url(#clip16)"><text fill="#404040" font-family="Yu Gothic,Yu Gothic_MSFontService,sans-serif" font-weight="700" font-size="55" transform="matrix(1 0 0 1 3473.53 1347)">1</text></g><g clip-path="url(#clip17)"><text fill="#404040" font-family="Yu Gothic,Yu Gothic_MSFontService,sans-serif" font-weight="700" font-size="55" transform="matrix(1 0 0 1 3792.08 1202)">13</text></g><g clip-path="url(#clip18)"><text fill="#404040" font-family="Yu Gothic,Yu Gothic_MSFontService,sans-serif" font-weight="700" font-size="55" transform="matrix(1 0 0 1 3806.65 1057)">8</text></g><g clip-path="url(#clip19)"><text fill="#404040" font-family="Yu Gothic,Yu Gothic_MSFontService,sans-serif" font-weight="700" font-size="55" transform="matrix(1 0 0 1 4097.67 912)">8</text></g><g clip-path="url(#clip20)"><text fill="#404040" font-family="Yu Gothic,Yu Gothic_MSFontService,sans-serif" font-weight="700" font-size="55" transform="matrix(1 0 0 1 3912.34 767)">27</text></g><g clip-path="url(#clip21)"><text fill="#404040" font-family="Yu Gothic,Yu Gothic_MSFontService,sans-serif" font-weight="700" font-size="55" transform="matrix(1 0 0 1 3873.12 622)">57</text></g><g clip-path="url(#clip22)"><text fill="#404040" font-family="Yu Gothic,Yu Gothic_MSFontService,sans-serif" font-weight="700" font-size="55" transform="matrix(1 0 0 1 3868.63 1347)">2</text></g><g clip-path="url(#clip23)"><text fill="#404040" font-family="Yu Gothic,Yu Gothic_MSFontService,sans-serif" font-weight="700" font-size="55" transform="matrix(1 0 0 1 4278.35 1202)">11</text></g><g clip-path="url(#clip24)"><text fill="#404040" font-family="Yu Gothic,Yu Gothic_MSFontService,sans-serif" font-weight="700" font-size="55" transform="matrix(1 0 0 1 4178.51 1057)">8</text></g><g clip-path="url(#clip25)"><text fill="#404040" font-family="Yu Gothic,Yu Gothic_MSFontService,sans-serif" font-weight="700" font-size="55" transform="matrix(1 0 0 1 4441.24 912)">2</text></g><g clip-path="url(#clip26)"><text fill="#404040" font-family="Yu Gothic,Yu Gothic_MSFontService,sans-serif" font-weight="700" font-size="55" transform="matrix(1 0 0 1 4354.17 767)">25</text></g><g clip-path="url(#clip27)"><text fill="#404040" font-family="Yu Gothic,Yu Gothic_MSFontService,sans-serif" font-weight="700" font-size="55" transform="matrix(1 0 0 1 4298.61 622)">48</text></g><g clip-path="url(#clip28)"><text fill="#404040" font-family="Yu Gothic,Yu Gothic_MSFontService,sans-serif" font-weight="700" font-size="55" transform="matrix(1 0 0 1 4395.43 1347)">2</text></g><g clip-path="url(#clip29)"><text fill="#404040" font-family="Yu Gothic,Yu Gothic_MSFontService,sans-serif" font-weight="700" font-size="55" transform="matrix(1 0 0 1 4638.56 1202)">6</text></g><g clip-path="url(#clip30)"><text fill="#404040" font-family="Yu Gothic,Yu Gothic_MSFontService,sans-serif" font-weight="700" font-size="55" transform="matrix(1 0 0 1 4503.88 1057)">6</text></g><g clip-path="url(#clip31)"><text fill="#404040" font-family="Yu Gothic,Yu Gothic_MSFontService,sans-serif" font-weight="700" font-size="55" transform="matrix(1 0 0 1 4613.02 912)">3</text></g><g clip-path="url(#clip32)"><text fill="#404040" font-family="Yu Gothic,Yu Gothic_MSFontService,sans-serif" font-weight="700" font-size="55" transform="matrix(1 0 0 1 4668.55 767)">12</text></g><g clip-path="url(#clip33)"><text fill="#404040" font-family="Yu Gothic,Yu Gothic_MSFontService,sans-serif" font-weight="700" font-size="55" transform="matrix(1 0 0 1 4610.64 622)">29</text></g><g clip-path="url(#clip34)"><text fill="#FFFFFF" font-family="Yu Gothic,Yu Gothic_MSFontService,sans-serif" font-weight="700" font-size="55" transform="matrix(1 0 0 1 4790.52 1347)">1</text></g><g clip-path="url(#clip35)"><text fill="#FFFFFF" font-family="Yu Gothic,Yu Gothic_MSFontService,sans-serif" font-weight="700" font-size="55" transform="matrix(1 0 0 1 4841.18 1202)">4</text></g><g clip-path="url(#clip36)"><text fill="#FFFFFF" font-family="Yu Gothic,Yu Gothic_MSFontService,sans-serif" font-weight="700" font-size="55" transform="matrix(1 0 0 1 4782.78 1057)">6</text></g><g clip-path="url(#clip37)"><text fill="#FFFFFF" font-family="Yu Gothic,Yu Gothic_MSFontService,sans-serif" font-weight="700" font-size="55" transform="matrix(1 0 0 1 4819.16 912)">3</text></g><g clip-path="url(#clip38)"><text fill="#FFFFFF" font-family="Yu Gothic,Yu Gothic_MSFontService,sans-serif" font-weight="700" font-size="55" transform="matrix(1 0 0 1 4854.25 767)">8</text></g><g clip-path="url(#clip39)"><text fill="#FFFFFF" font-family="Yu Gothic,Yu Gothic_MSFontService,sans-serif" font-weight="700" font-size="55" transform="matrix(1 0 0 1 4817.31 622)">22</text></g><g clip-path="url(#clip40)"><text fill="#595959" font-family="Yu Gothic,Yu Gothic_MSFontService,sans-serif" font-weight="500" font-size="60" transform="matrix(1 0 0 1 3317.1 1499)">0%</text></g><g clip-path="url(#clip41)"><text fill="#595959" font-family="Yu Gothic,Yu Gothic_MSFontService,sans-serif" font-weight="500" font-size="60" transform="matrix(1 0 0 1 3695.67 1499)">25%</text></g><g clip-path="url(#clip42)"><text fill="#595959" font-family="Yu Gothic,Yu Gothic_MSFontService,sans-serif" font-weight="500" font-size="60" transform="matrix(1 0 0 1 4090.77 1499)">50%</text></g><g clip-path="url(#clip43)"><text fill="#595959" font-family="Yu Gothic,Yu Gothic_MSFontService,sans-serif" font-weight="500" font-size="60" transform="matrix(1 0 0 1 4485.86 1499)">75%</text></g><g clip-path="url(#clip44)"><text fill="#595959" font-family="Yu Gothic,Yu Gothic_MSFontService,sans-serif" font-weight="500" font-size="60" transform="matrix(1 0 0 1 4864.43 1499)">100%</text></g><g clip-path="url(#clip45)"><g clip-path="url(#clip46)"><text fill="#595959" font-family="Yu Gothic,Yu Gothic_MSFontService,sans-serif" font-weight="500" font-size="57" transform="matrix(1 0 0 1 2966.62 1344)">その他</text></g></g><g clip-path="url(#clip47)"><g clip-path="url(#clip48)"><text fill="#595959" font-family="Yu Gothic,Yu Gothic_MSFontService,sans-serif" font-weight="500" font-size="57" transform="matrix(1 0 0 1 3138.5 1344)">(n=25)</text></g></g><g clip-path="url(#clip49)"><g clip-path="url(#clip50)"><text fill="#595959" font-family="Yu Gothic,Yu Gothic_MSFontService,sans-serif" font-weight="500" font-size="57" transform="matrix(1 0 0 1 2934.81 1199)">大学院</text></g></g><g clip-path="url(#clip51)"><g clip-path="url(#clip52)"><text fill="#595959" font-family="Yu Gothic,Yu Gothic_MSFontService,sans-serif" font-weight="500" font-size="57" transform="matrix(1 0 0 1 3106.69 1199)">(n=692)</text></g></g><g clip-path="url(#clip53)"><g clip-path="url(#clip54)"><text fill="#595959" font-family="Yu Gothic,Yu Gothic_MSFontService,sans-serif" font-weight="500" font-size="57" transform="matrix(1 0 0 1 2788.42 1054)">学部</text></g></g><g clip-path="url(#clip55)"><g clip-path="url(#clip56)"><text fill="#595959" font-family="Yu Gothic,Yu Gothic_MSFontService,sans-serif" font-weight="500" font-size="57" transform="matrix(1 0 0 1 2903 1054)">3</text></g></g><g clip-path="url(#clip57)"><g clip-path="url(#clip58)"><text fill="#595959" font-family="Yu Gothic,Yu Gothic_MSFontService,sans-serif" font-weight="500" font-size="57" transform="matrix(1 0 0 1 2934.81 1054)">年以上</text></g></g><g clip-path="url(#clip59)"><g clip-path="url(#clip60)"><text fill="#595959" font-family="Yu Gothic,Yu Gothic_MSFontService,sans-serif" font-weight="500" font-size="57" transform="matrix(1 0 0 1 3106.69 1054)">(n=404)</text></g></g><g clip-path="url(#clip61)"><g clip-path="url(#clip62)"><text fill="#595959" font-family="Yu Gothic,Yu Gothic_MSFontService,sans-serif" font-weight="500" font-size="57" transform="matrix(1 0 0 1 2903 909)">学部</text></g></g><g clip-path="url(#clip63)"><g clip-path="url(#clip64)"><text fill="#595959" font-family="Yu Gothic,Yu Gothic_MSFontService,sans-serif" font-weight="500" font-size="57" transform="matrix(1 0 0 1 3017.59 909)">2</text></g></g><g clip-path="url(#clip65)"><g clip-path="url(#clip66)"><text fill="#595959" font-family="Yu Gothic,Yu Gothic_MSFontService,sans-serif" font-weight="500" font-size="57" transform="matrix(1 0 0 1 3049.4 909)">年</text></g></g><g clip-path="url(#clip67)"><g clip-path="url(#clip68)"><text fill="#595959" font-family="Yu Gothic,Yu Gothic_MSFontService,sans-serif" font-weight="500" font-size="57" transform="matrix(1 0 0 1 3106.69 909)">(n=259)</text></g></g><g clip-path="url(#clip69)"><g clip-path="url(#clip70)"><text fill="#595959" font-family="Yu Gothic,Yu Gothic_MSFontService,sans-serif" font-weight="500" font-size="57" transform="matrix(1 0 0 1 2903 764)">学部</text></g></g><g clip-path="url(#clip71)"><g clip-path="url(#clip72)"><text fill="#595959" font-family="Yu Gothic,Yu Gothic_MSFontService,sans-serif" font-weight="500" font-size="57" transform="matrix(1 0 0 1 3017.59 764)">1</text></g></g><g clip-path="url(#clip73)"><g clip-path="url(#clip74)"><text fill="#595959" font-family="Yu Gothic,Yu Gothic_MSFontService,sans-serif" font-weight="500" font-size="57" transform="matrix(1 0 0 1 3049.4 764)">年</text></g></g><g clip-path="url(#clip75)"><g clip-path="url(#clip76)"><text fill="#595959" font-family="Yu Gothic,Yu Gothic_MSFontService,sans-serif" font-weight="500" font-size="57" transform="matrix(1 0 0 1 3106.69 764)">(n=247)</text></g></g><g clip-path="url(#clip77)"><g clip-path="url(#clip78)"><text fill="#595959" font-family="Yu Gothic,Yu Gothic_MSFontService,sans-serif" font-weight="500" font-size="57" transform="matrix(1 0 0 1 2960.3 619)">全体</text></g></g><g clip-path="url(#clip79)"><g clip-path="url(#clip80)"><text fill="#595959" font-family="Yu Gothic,Yu Gothic_MSFontService,sans-serif" font-weight="500" font-size="57" transform="matrix(1 0 0 1 3074.88 619)">(n=1627)</text></g></g><g clip-path="url(#clip81)"><rect x="5343.5" y="626.5" width="30" height="28.9999" stroke="#000000" stroke-width="4.58333" stroke-linejoin="round" stroke-miterlimit="10" fill="#FFFFFF"/></g><g clip-path="url(#clip82)"><text fill="#595959" font-family="Yu Gothic,Yu Gothic_MSFontService,sans-serif" font-weight="500" font-size="50" transform="matrix(1 0 0 1 5385.91 655)">大変良かった</text></g><g clip-path="url(#clip83)"><rect x="5343.5" y="769.5" width="30" height="29.9999" stroke="#000000" stroke-width="4.58333" stroke-linejoin="round" stroke-miterlimit="10" fill="#DEEBF7"/></g><g clip-path="url(#clip84)"><text fill="#595959" font-family="Yu Gothic,Yu Gothic_MSFontService,sans-serif" font-weight="500" font-size="50" transform="matrix(1 0 0 1 5385.91 799)">良かった</text></g><g clip-path="url(#clip85)"><rect x="5343.5" y="913.5" width="30" height="29.0002" stroke="#000000" stroke-width="4.58333" stroke-linejoin="round" stroke-miterlimit="10" fill="#9DC3E6"/></g><g clip-path="url(#clip86)"><text fill="#595959" font-family="Yu Gothic,Yu Gothic_MSFontService,sans-serif" font-weight="500" font-size="50" transform="matrix(1 0 0 1 5385.91 942)">どちらとも</text></g><g clip-path="url(#clip87)"><text fill="#595959" font-family="Yu Gothic,Yu Gothic_MSFontService,sans-serif" font-weight="500" font-size="50" transform="matrix(1 0 0 1 5385.91 1026)">いえない</text></g><g clip-path="url(#clip88)"><rect x="5343.5" y="1056.5" width="30" height="29.0002" stroke="#000000" stroke-width="4.58333" stroke-linejoin="round" stroke-miterlimit="10" fill="#4CA0E6"/></g><g clip-path="url(#clip89)"><text fill="#595959" font-family="Yu Gothic,Yu Gothic_MSFontService,sans-serif" font-weight="500" font-size="50" transform="matrix(1 0 0 1 5385.91 1085)">良くなかった</text></g><g clip-path="url(#clip90)"><rect x="5343.5" y="1199.5" width="30" height="29.0002" stroke="#000000" stroke-width="4.58333" stroke-linejoin="round" stroke-miterlimit="10" fill="#095085"/></g><g clip-path="url(#clip91)"><text fill="#595959" font-family="Yu Gothic,Yu Gothic_MSFontService,sans-serif" font-weight="500" font-size="50" transform="matrix(1 0 0 1 5385.91 1228)">全く</text></g><g clip-path="url(#clip92)"><text fill="#595959" font-family="Yu Gothic,Yu Gothic_MSFontService,sans-serif" font-weight="500" font-size="50" transform="matrix(1 0 0 1 5385.91 1312)">良くなかった</text></g><rect x="2717.5" y="375.5" width="2988" height="1154" stroke="#000000" stroke-width="4.58333" stroke-linejoin="round" stroke-miterlimit="10" fill="none"/><g clip-path="url(#clip93)"><g clip-path="url(#clip94)"><text font-family="Yu Gothic,Yu Gothic_MSFontService,sans-serif" font-weight="500" font-size="73" transform="matrix(1 0 0 1 2776.08 486)">【授業方法別の評価】</text></g></g><g clip-path="url(#clip95)"><g clip-path="url(#clip96)"><text font-family="Yu Gothic,Yu Gothic_MSFontService,sans-serif" font-weight="500" font-size="73" transform="matrix(1 0 0 1 3509.42 486)">8. </text></g></g><g clip-path="url(#clip97)"><g clip-path="url(#clip98)"><text font-family="Yu Gothic,Yu Gothic_MSFontService,sans-serif" font-weight="500" font-size="73" transform="matrix(1 0 0 1 3590.04 486)">自習方式（ほぼ資料配信と課題提示のみでビデオを使わない）</text></g></g><g clip-path="url(#clip99)"><path d="M5015.5 550.5 5019.47 1499.69" stroke="#7F7F7F" stroke-width="4.58333" stroke-miterlimit="8" stroke-dasharray="18.3333 13.75" fill="none" fill-rule="evenodd"/></g><g clip-path="url(#clip100)"><rect x="5019" y="534" width="303" height="978" fill="#F2F2F2"/></g><g clip-path="url(#clip101)"><g clip-path="url(#clip102)"><text font-family="Yu Gothic,Yu Gothic_MSFontService,sans-serif" font-weight="700" font-size="55" transform="matrix(1 0 0 1 5108.67 614)">1432</text></g></g><g clip-path="url(#clip103)"><text fill="#404040" font-family="Yu Gothic,Yu Gothic_MSFontService,sans-serif" font-weight="700" font-size="55" transform="matrix(1 0 0 1 5120.37 761)">154</text></g><g clip-path="url(#clip104)"><text fill="#404040" font-family="Yu Gothic,Yu Gothic_MSFontService,sans-serif" font-weight="700" font-size="55" transform="matrix(1 0 0 1 5124.43 909)">236</text></g><g clip-path="url(#clip105)"><text fill="#404040" font-family="Yu Gothic,Yu Gothic_MSFontService,sans-serif" font-weight="700" font-size="55" transform="matrix(1 0 0 1 5124.43 1057)">370</text></g><g clip-path="url(#clip106)"><text fill="#404040" font-family="Yu Gothic,Yu Gothic_MSFontService,sans-serif" font-weight="700" font-size="55" transform="matrix(1 0 0 1 5124.43 1204)">653</text></g><g clip-path="url(#clip107)"><text fill="#404040" font-family="Yu Gothic,Yu Gothic_MSFontService,sans-serif" font-weight="700" font-size="55" transform="matrix(1 0 0 1 5140.2 1352)">19</text></g><g clip-path="url(#clip108)"><g clip-path="url(#clip109)"><text font-family="Yu Gothic,Yu Gothic_MSFontService,sans-serif" font-weight="400" font-size="41" transform="matrix(1 0 0 1 5028.4 1416)">この形式の授業</text></g></g><g clip-path="url(#clip110)"><g clip-path="url(#clip111)"><text font-family="Yu Gothic,Yu Gothic_MSFontService,sans-serif" font-weight="400" font-size="41" transform="matrix(1 0 0 1 5090.26 1485)">を未受講</text></g></g></g></svg>