<svg width="2996" height="2012" xmlns="http://www.w3.org/2000/svg" xmlns:xlink="http://www.w3.org/1999/xlink" overflow="hidden"><defs><clipPath id="clip0"><rect x="1072" y="1253" width="2996" height="2012"/></clipPath><clipPath id="clip1"><rect x="1073" y="1254" width="2992" height="2008"/></clipPath><clipPath id="clip2"><rect x="2139" y="1595" width="1679" height="1471"/></clipPath><clipPath id="clip3"><rect x="2139" y="1595" width="1679" height="1471"/></clipPath><clipPath id="clip4"><rect x="2139" y="1595" width="1679" height="1471"/></clipPath><clipPath id="clip5"><rect x="2139" y="1595" width="1679" height="1471"/></clipPath><clipPath id="clip6"><rect x="2139" y="1595" width="1679" height="1471"/></clipPath><clipPath id="clip7"><rect x="1073" y="1254" width="2992" height="2008"/></clipPath><clipPath id="clip8"><rect x="1073" y="1254" width="2992" height="2008"/></clipPath><clipPath id="clip9"><rect x="1073" y="1254" width="2992" height="2008"/></clipPath><clipPath id="clip10"><rect x="1928" y="2666" width="479" height="69"/></clipPath><clipPath id="clip11"><rect x="1073" y="1254" width="2992" height="2008"/></clipPath><clipPath id="clip12"><rect x="1073" y="1254" width="2992" height="2008"/></clipPath><clipPath id="clip13"><rect x="1073" y="1254" width="2992" height="2008"/></clipPath><clipPath id="clip14"><rect x="1939" y="2201" width="479" height="74"/></clipPath><clipPath id="clip15"><rect x="1073" y="1254" width="2992" height="2008"/></clipPath><clipPath id="clip16"><rect x="1073" y="1254" width="2992" height="2008"/></clipPath><clipPath id="clip17"><rect x="1073" y="1254" width="2992" height="2008"/></clipPath><clipPath id="clip18"><rect x="1073" y="1254" width="2992" height="2008"/></clipPath><clipPath id="clip19"><rect x="1073" y="1254" width="2992" height="2008"/></clipPath><clipPath id="clip20"><rect x="1073" y="1254" width="2992" height="2008"/></clipPath><clipPath id="clip21"><rect x="1984" y="2767" width="479" height="42"/></clipPath><clipPath id="clip22"><rect x="1073" y="1254" width="2992" height="2008"/></clipPath><clipPath id="clip23"><rect x="1073" y="1254" width="2992" height="2008"/></clipPath><clipPath id="clip24"><rect x="1073" y="1254" width="2992" height="2008"/></clipPath><clipPath id="clip25"><rect x="1911" y="2201" width="718" height="74"/></clipPath><clipPath id="clip26"><rect x="1073" y="1254" width="2992" height="2008"/></clipPath><clipPath id="clip27"><rect x="1073" y="1254" width="2992" height="2008"/></clipPath><clipPath id="clip28"><rect x="1073" y="1254" width="2992" height="2008"/></clipPath><clipPath id="clip29"><rect x="1073" y="1254" width="2992" height="2008"/></clipPath><clipPath id="clip30"><rect x="1073" y="1254" width="2992" height="2008"/></clipPath><clipPath id="clip31"><rect x="1073" y="1254" width="2992" height="2008"/></clipPath><clipPath id="clip32"><rect x="1073" y="1254" width="2992" height="2008"/></clipPath><clipPath id="clip33"><rect x="1073" y="1254" width="2992" height="2008"/></clipPath><clipPath id="clip34"><rect x="1073" y="1254" width="2992" height="2008"/></clipPath><clipPath id="clip35"><rect x="1073" y="1254" width="2992" height="2008"/></clipPath><clipPath id="clip36"><rect x="1073" y="1254" width="2992" height="2008"/></clipPath><clipPath id="clip37"><rect x="1073" y="1254" width="2992" height="2008"/></clipPath><clipPath id="clip38"><rect x="1073" y="1254" width="2992" height="2008"/></clipPath><clipPath id="clip39"><rect x="1073" y="1254" width="2992" height="2008"/></clipPath><clipPath id="clip40"><rect x="1073" y="1254" width="2992" height="2008"/></clipPath><clipPath id="clip41"><rect x="1073" y="1254" width="2992" height="2008"/></clipPath><clipPath id="clip42"><rect x="1073" y="1254" width="2992" height="2008"/></clipPath><clipPath id="clip43"><rect x="1073" y="1254" width="2992" height="2008"/></clipPath><clipPath id="clip44"><rect x="1073" y="1254" width="2992" height="2008"/></clipPath><clipPath id="clip45"><rect x="1073" y="1254" width="2992" height="2008"/></clipPath><clipPath id="clip46"><rect x="1073" y="1254" width="2992" height="2008"/></clipPath><clipPath id="clip47"><rect x="1073" y="1254" width="2992" height="2008"/></clipPath><clipPath id="clip48"><rect x="1073" y="1254" width="2992" height="2008"/></clipPath><clipPath id="clip49"><rect x="1073" y="1254" width="2992" height="2008"/></clipPath><clipPath id="clip50"><rect x="1073" y="1254" width="2992" height="2008"/></clipPath><clipPath id="clip51"><rect x="1073" y="1254" width="2992" height="2008"/></clipPath><clipPath id="clip52"><rect x="1073" y="1254" width="2992" height="2008"/></clipPath><clipPath id="clip53"><rect x="1073" y="1254" width="2992" height="2008"/></clipPath><clipPath id="clip54"><rect x="1073" y="1254" width="2992" height="2008"/></clipPath><clipPath id="clip55"><rect x="1073" y="1254" width="2992" height="2008"/></clipPath><clipPath id="clip56"><rect x="1073" y="1254" width="2992" height="2008"/></clipPath><clipPath id="clip57"><rect x="166" y="2876" width="3081" height="184"/></clipPath><clipPath id="clip58"><rect x="1073" y="1254" width="2992" height="2008"/></clipPath><clipPath id="clip59"><rect x="386" y="2692" width="2696" height="184"/></clipPath><clipPath id="clip60"><rect x="1073" y="1254" width="2992" height="2008"/></clipPath><clipPath id="clip61"><rect x="-1101" y="2509" width="5299" height="184"/></clipPath><clipPath id="clip62"><rect x="1073" y="1254" width="2992" height="2008"/></clipPath><clipPath id="clip63"><rect x="-1101" y="2509" width="5299" height="184"/></clipPath><clipPath id="clip64"><rect x="1073" y="1254" width="2992" height="2008"/></clipPath><clipPath id="clip65"><rect x="-1101" y="2509" width="5299" height="184"/></clipPath><clipPath id="clip66"><rect x="1073" y="1254" width="2992" height="2008"/></clipPath><clipPath id="clip67"><rect x="-1101" y="2509" width="5299" height="184"/></clipPath><clipPath id="clip68"><rect x="1073" y="1254" width="2992" height="2008"/></clipPath><clipPath id="clip69"><rect x="-1101" y="2509" width="5299" height="184"/></clipPath><clipPath id="clip70"><rect x="1073" y="1254" width="2992" height="2008"/></clipPath><clipPath id="clip71"><rect x="-1053" y="2325" width="5215" height="185"/></clipPath><clipPath id="clip72"><rect x="1073" y="1254" width="2992" height="2008"/></clipPath><clipPath id="clip73"><rect x="-1053" y="2325" width="5215" height="185"/></clipPath><clipPath id="clip74"><rect x="1073" y="1254" width="2992" height="2008"/></clipPath><clipPath id="clip75"><rect x="-1053" y="2325" width="5215" height="185"/></clipPath><clipPath id="clip76"><rect x="1073" y="1254" width="2992" height="2008"/></clipPath><clipPath id="clip77"><rect x="-1053" y="2325" width="5215" height="185"/></clipPath><clipPath id="clip78"><rect x="1073" y="1254" width="2992" height="2008"/></clipPath><clipPath id="clip79"><rect x="-1154" y="2142" width="5391" height="184"/></clipPath><clipPath id="clip80"><rect x="1073" y="1254" width="2992" height="2008"/></clipPath><clipPath id="clip81"><rect x="-1154" y="2142" width="5391" height="184"/></clipPath><clipPath id="clip82"><rect x="1073" y="1254" width="2992" height="2008"/></clipPath><clipPath id="clip83"><rect x="-1177" y="1958" width="5432" height="185"/></clipPath><clipPath id="clip84"><rect x="1073" y="1254" width="2992" height="2008"/></clipPath><clipPath id="clip85"><rect x="-1177" y="1958" width="5432" height="185"/></clipPath><clipPath id="clip86"><rect x="1073" y="1254" width="2992" height="2008"/></clipPath><clipPath id="clip87"><rect x="-1177" y="1958" width="5432" height="185"/></clipPath><clipPath id="clip88"><rect x="1073" y="1254" width="2992" height="2008"/></clipPath><clipPath id="clip89"><rect x="-1177" y="1958" width="5432" height="185"/></clipPath><clipPath id="clip90"><rect x="1073" y="1254" width="2992" height="2008"/></clipPath><clipPath id="clip91"><rect x="-1177" y="1958" width="5432" height="185"/></clipPath><clipPath id="clip92"><rect x="1073" y="1254" width="2992" height="2008"/></clipPath><clipPath id="clip93"><rect x="-1053" y="1775" width="5215" height="184"/></clipPath><clipPath id="clip94"><rect x="1073" y="1254" width="2992" height="2008"/></clipPath><clipPath id="clip95"><rect x="-1053" y="1775" width="5215" height="184"/></clipPath><clipPath id="clip96"><rect x="1073" y="1254" width="2992" height="2008"/></clipPath><clipPath id="clip97"><rect x="-1053" y="1775" width="5215" height="184"/></clipPath><clipPath id="clip98"><rect x="1073" y="1254" width="2992" height="2008"/></clipPath><clipPath id="clip99"><rect x="-1053" y="1775" width="5215" height="184"/></clipPath><clipPath id="clip100"><rect x="1073" y="1254" width="2992" height="2008"/></clipPath><clipPath id="clip101"><rect x="386" y="1591" width="2696" height="185"/></clipPath><clipPath id="clip102"><rect x="1073" y="1254" width="2992" height="2008"/></clipPath><clipPath id="clip103"><rect x="1073" y="1254" width="2992" height="2008"/></clipPath><clipPath id="clip104"><rect x="1073" y="1254" width="2992" height="2008"/></clipPath><clipPath id="clip105"><rect x="1073" y="1254" width="2992" height="2008"/></clipPath><clipPath id="clip106"><rect x="1073" y="1254" width="2992" height="2008"/></clipPath><clipPath id="clip107"><rect x="1073" y="1254" width="2992" height="2008"/></clipPath><clipPath id="clip108"><rect x="1073" y="1254" width="2992" height="2008"/></clipPath><clipPath id="clip109"><rect x="1073" y="1254" width="2992" height="2008"/></clipPath><clipPath id="clip110"><rect x="1073" y="1254" width="2992" height="2008"/></clipPath><clipPath id="clip111"><rect x="1073" y="1254" width="2992" height="2008"/></clipPath><clipPath id="clip112"><rect x="1073" y="1254" width="2992" height="2008"/></clipPath><clipPath id="clip113"><rect x="1073" y="1254" width="2992" height="2008"/></clipPath><clipPath id="clip114"><rect x="1073" y="1254" width="2992" height="2008"/></clipPath><clipPath id="clip115"><rect x="1073" y="1254" width="2992" height="2008"/></clipPath><clipPath id="clip116"><rect x="1073" y="1254" width="2992" height="2008"/></clipPath><clipPath id="clip117"><rect x="1073" y="1254" width="2992" height="2008"/></clipPath><clipPath id="clip118"><rect x="1073" y="1254" width="2992" height="2008"/></clipPath><clipPath id="clip119"><rect x="1073" y="1254" width="2993" height="2009"/></clipPath><clipPath id="clip120"><rect x="1073" y="1254" width="2993" height="2009"/></clipPath><clipPath id="clip121"><rect x="1073" y="1254" width="2993" height="2009"/></clipPath><clipPath id="clip122"><rect x="1073" y="1254" width="2993" height="2009"/></clipPath><clipPath id="clip123"><rect x="1073" y="1254" width="2993" height="2009"/></clipPath><clipPath id="clip124"><rect x="1073" y="1254" width="2993" height="2009"/></clipPath><clipPath id="clip125"><rect x="1073" y="1254" width="2993" height="2009"/></clipPath><clipPath id="clip126"><rect x="1073" y="1254" width="2993" height="2009"/></clipPath><clipPath id="clip127"><rect x="1073" y="1254" width="2993" height="2009"/></clipPath><clipPath id="clip128"><rect x="1073" y="1254" width="2993" height="2009"/></clipPath><clipPath id="clip129"><rect x="-1250" y="2823" width="9176" height="263"/></clipPath><clipPath id="clip130"><rect x="1073" y="1254" width="2993" height="2009"/></clipPath><clipPath id="clip131"><rect x="-1250" y="2823" width="9176" height="263"/></clipPath><clipPath id="clip132"><rect x="1073" y="1254" width="2993" height="2009"/></clipPath><clipPath id="clip133"><rect x="-1250" y="2823" width="9176" height="263"/></clipPath><clipPath id="clip134"><rect x="1073" y="1254" width="2993" height="2009"/></clipPath><clipPath id="clip135"><rect x="1073" y="1254" width="2993" height="2009"/></clipPath><clipPath id="clip136"><rect x="1073" y="1254" width="2993" height="2009"/></clipPath><clipPath id="clip137"><rect x="-1250" y="2823" width="9176" height="263"/></clipPath><clipPath id="clip138"><rect x="1073" y="1254" width="2993" height="2009"/></clipPath><clipPath id="clip139"><rect x="-1250" y="2823" width="9176" height="263"/></clipPath><clipPath id="clip140"><rect x="1073" y="1254" width="2993" height="2009"/></clipPath><clipPath id="clip141"><rect x="-1250" y="2823" width="9176" height="263"/></clipPath><clipPath id="clip142"><rect x="1073" y="1254" width="2993" height="2009"/></clipPath><clipPath id="clip143"><rect x="-1250" y="2823" width="9176" height="263"/></clipPath><clipPath id="clip144"><rect x="1073" y="1254" width="2993" height="2009"/></clipPath><clipPath id="clip145"><rect x="1073" y="1254" width="2993" height="2009"/></clipPath><clipPath id="clip146"><rect x="1073" y="1254" width="2993" height="2009"/></clipPath><clipPath id="clip147"><rect x="1073" y="1254" width="2993" height="2009"/></clipPath><clipPath id="clip148"><rect x="1073" y="1254" width="2993" height="2009"/></clipPath><clipPath id="clip149"><rect x="1073" y="1254" width="2993" height="2009"/></clipPath><clipPath id="clip150"><rect x="1073" y="1254" width="2993" height="2009"/></clipPath><clipPath id="clip151"><rect x="1073" y="1254" width="2993" height="2009"/></clipPath><clipPath id="clip152"><rect x="1073" y="1254" width="2993" height="2009"/></clipPath><clipPath id="clip153"><rect x="1073" y="1254" width="2993" height="2009"/></clipPath><clipPath id="clip154"><rect x="1073" y="1254" width="2993" height="2009"/></clipPath><clipPath id="clip155"><rect x="1073" y="1254" width="2993" height="2009"/></clipPath><clipPath id="clip156"><rect x="1073" y="1254" width="2993" height="2009"/></clipPath><clipPath id="clip157"><rect x="1073" y="1254" width="2993" height="2009"/></clipPath><clipPath id="clip158"><rect x="1073" y="1254" width="2993" height="2009"/></clipPath><clipPath id="clip159"><rect x="1073" y="1254" width="2993" height="2009"/></clipPath><clipPath id="clip160"><rect x="1073" y="1254" width="2993" height="2009"/></clipPath><clipPath id="clip161"><rect x="1073" y="1254" width="2993" height="2009"/></clipPath><clipPath id="clip162"><rect x="1073" y="1254" width="2993" height="2009"/></clipPath><clipPath id="clip163"><rect x="1073" y="1254" width="2993" height="2009"/></clipPath><clipPath id="clip164"><rect x="1073" y="1254" width="2993" height="2009"/></clipPath><clipPath id="clip165"><rect x="1073" y="1254" width="2993" height="2009"/></clipPath><clipPath id="clip166"><rect x="1073" y="1254" width="2993" height="2009"/></clipPath><clipPath id="clip167"><rect x="1073" y="1254" width="2993" height="2009"/></clipPath><clipPath id="clip168"><rect x="1073" y="1254" width="2993" height="2009"/></clipPath><clipPath id="clip169"><rect x="1073" y="1254" width="2993" height="2009"/></clipPath><clipPath id="clip170"><rect x="1073" y="1254" width="2993" height="2009"/></clipPath><clipPath id="clip171"><rect x="1073" y="1254" width="2993" height="2009"/></clipPath><clipPath id="clip172"><rect x="1073" y="1254" width="2993" height="2009"/></clipPath><clipPath id="clip173"><rect x="1073" y="1254" width="2993" height="2009"/></clipPath><clipPath id="clip174"><rect x="1073" y="1254" width="2993" height="2009"/></clipPath><clipPath id="clip175"><rect x="1073" y="1254" width="2993" height="2009"/></clipPath><clipPath id="clip176"><rect x="1073" y="1254" width="2993" height="2009"/></clipPath><clipPath id="clip177"><rect x="1073" y="1254" width="2993" height="2009"/></clipPath><clipPath id="clip178"><rect x="1073" y="1254" width="2993" height="2009"/></clipPath><clipPath id="clip179"><rect x="1073" y="1254" width="2993" height="2009"/></clipPath><clipPath id="clip180"><rect x="1073" y="1254" width="2993" height="2009"/></clipPath><clipPath id="clip181"><rect x="1073" y="1254" width="2993" height="2009"/></clipPath><clipPath id="clip182"><rect x="1073" y="1254" width="2993" height="2009"/></clipPath></defs><g clip-path="url(#clip0)" transform="translate(-1072 -1253)"><rect x="1074" y="1255" width="2991" height="2007" fill="#FFFFFF"/><g clip-path="url(#clip1)"><path d="M2977.6 1595.5 2977.6 3063.5M3815.5 1595.5 3815.5 3063.5" stroke="#D9D9D9" stroke-width="3.4375" stroke-linejoin="round" stroke-miterlimit="10" fill="none"/></g><g clip-path="url(#clip2)"><path d="M2160.57 3028.6 2139.5 3028.6 2139.5 2914.6 2160.57 2914.6ZM2185.57 2845.59 2139.5 2845.59 2139.5 2730.59 2185.57 2730.59ZM2198.57 2661.59 2139.5 2661.59 2139.5 2547.58 2198.57 2547.58ZM2252.57 2478.58 2139.5 2478.58 2139.5 2363.58 2252.57 2363.58ZM2216.57 2295.58 2139.5 2295.58 2139.5 2180.57 2216.57 2180.57ZM2256.57 2111.57 2139.5 2111.57 2139.5 1996.57 2256.57 1996.57ZM2297.58 1928.56 2139.5 1928.56 2139.5 1813.56 2297.58 1813.56ZM2350.58 1744.56 2139.5 1744.56 2139.5 1629.55 2350.58 1629.55Z" stroke="#000000" stroke-width="4.58333" stroke-linejoin="round" stroke-miterlimit="10" fill="#FFFFFF"/></g><g clip-path="url(#clip3)"><path d="M2210.57 3028.6 2160.57 3028.6 2160.57 2914.6 2210.57 2914.6ZM2260.57 2845.59 2185.57 2845.59 2185.57 2730.59 2260.57 2730.59ZM2268.57 2661.59 2198.57 2661.59 2198.57 2547.58 2268.57 2547.58ZM2377.58 2478.58 2252.57 2478.58 2252.57 2363.58 2377.58 2363.58ZM2322.58 2295.58 2216.57 2295.58 2216.57 2180.57 2322.58 2180.57ZM2391.58 2111.57 2256.57 2111.57 2256.57 1996.57 2391.58 1996.57ZM2451.58 1928.56 2297.58 1928.56 2297.58 1813.56 2451.58 1813.56ZM2591.59 1744.56 2350.58 1744.56 2350.58 1629.55 2591.59 1629.55Z" stroke="#000000" stroke-width="4.58333" stroke-linejoin="round" stroke-miterlimit="10" fill="#DEEEFA"/></g><g clip-path="url(#clip4)"><path d="M2288.58 3028.6 2210.57 3028.6 2210.57 2914.6 2288.58 2914.6ZM2354.58 2845.59 2260.57 2845.59 2260.57 2730.59 2354.58 2730.59ZM2370.58 2661.59 2268.57 2661.59 2268.57 2547.58 2370.58 2547.58ZM2551.58 2478.58 2377.58 2478.58 2377.58 2363.58 2551.58 2363.58ZM2506.58 2295.58 2322.58 2295.58 2322.58 2180.57 2506.58 2180.57ZM2592.59 2111.57 2391.58 2111.57 2391.58 1996.57 2592.59 1996.57ZM2688.59 1928.56 2451.58 1928.56 2451.58 1813.56 2688.59 1813.56ZM2949.6 1744.56 2591.59 1744.56 2591.59 1629.55 2949.6 1629.55Z" stroke="#000000" stroke-width="4.58333" stroke-linejoin="round" stroke-miterlimit="10" fill="#AFD6F3"/></g><g clip-path="url(#clip5)"><path d="M2415.58 3028.6 2288.58 3028.6 2288.58 2914.6 2415.58 2914.6ZM2511.58 2845.59 2354.58 2845.59 2354.58 2730.59 2511.58 2730.59ZM2555.58 2661.59 2370.58 2661.59 2370.58 2547.58 2555.58 2547.58ZM2779.59 2478.58 2551.58 2478.58 2551.58 2363.58 2779.59 2363.58ZM2877.59 2295.58 2506.58 2295.58 2506.58 2180.57 2877.59 2180.57ZM2921.6 2111.57 2592.59 2111.57 2592.59 1996.57 2921.6 1996.57ZM3051.6 1928.56 2688.59 1928.56 2688.59 1813.56 3051.6 1813.56ZM3557.62 1744.56 2949.6 1744.56 2949.6 1629.55 3557.62 1629.55Z" stroke="#000000" stroke-width="4.58333" stroke-linejoin="round" stroke-miterlimit="10" fill="#51A1E6"/></g><g clip-path="url(#clip6)"><path d="M2420.58 3028.6 2415.58 3028.6 2415.58 2914.6 2420.58 2914.6ZM2516.58 2845.59 2511.58 2845.59 2511.58 2730.59 2516.58 2730.59ZM2563.58 2661.59 2555.58 2661.59 2555.58 2547.58 2563.58 2547.58ZM2789.59 2478.58 2779.59 2478.58 2779.59 2363.58 2789.59 2363.58ZM2887.59 2295.58 2877.59 2295.58 2877.59 2180.57 2887.59 2180.57ZM2935.6 2111.57 2921.6 2111.57 2921.6 1996.57 2935.6 1996.57ZM3067.6 1928.56 3051.6 1928.56 3051.6 1813.56 3067.6 1813.56ZM3578.62 1744.56 3557.62 1744.56 3557.62 1629.55 3578.62 1629.55Z" stroke="#000000" stroke-width="4.58333" stroke-linejoin="round" stroke-miterlimit="10" fill="#145288"/></g><g clip-path="url(#clip7)"><path d="M0 0 0.000360892 1468" stroke="#D9D9D9" stroke-width="3.4375" stroke-linejoin="round" stroke-miterlimit="10" fill="none" fill-rule="evenodd" transform="matrix(1 0 0 -1 2139.5 3063.5)"/></g><g clip-path="url(#clip8)"><text fill="#595959" font-family="Yu Gothic,Yu Gothic_MSFontService,sans-serif" font-weight="700" font-size="60" transform="matrix(1 0 0 1 2116.09 2904)">25</text></g><g clip-path="url(#clip9)"><g clip-path="url(#clip10)"><text fill="#595959" font-family="Yu Gothic,Yu Gothic_MSFontService,sans-serif" font-weight="700" font-size="60" transform="matrix(1 0 0 1 2133.25 2721)">55</text></g></g><g clip-path="url(#clip11)"><text fill="#595959" font-family="Yu Gothic,Yu Gothic_MSFontService,sans-serif" font-weight="700" font-size="60" transform="matrix(1 0 0 1 2134.94 2542)">70</text></g><g clip-path="url(#clip12)"><text fill="#595959" font-family="Yu Gothic,Yu Gothic_MSFontService,sans-serif" font-weight="700" font-size="60" transform="matrix(1 0 0 1 2145.1 2441)">135</text></g><g clip-path="url(#clip13)"><g clip-path="url(#clip14)"><text fill="#595959" font-family="Yu Gothic,Yu Gothic_MSFontService,sans-serif" font-weight="700" font-size="60" transform="matrix(1 0 0 1 2144.16 2258)">92</text></g></g><g clip-path="url(#clip15)"><text fill="#595959" font-family="Yu Gothic,Yu Gothic_MSFontService,sans-serif" font-weight="700" font-size="60" transform="matrix(1 0 0 1 2146.77 2074)">139</text></g><g clip-path="url(#clip16)"><text fill="#595959" font-family="Yu Gothic,Yu Gothic_MSFontService,sans-serif" font-weight="700" font-size="60" transform="matrix(1 0 0 1 2167.3 1891)">188</text></g><g clip-path="url(#clip17)"><text fill="#595959" font-family="Yu Gothic,Yu Gothic_MSFontService,sans-serif" font-weight="700" font-size="60" transform="matrix(1 0 0 1 2194.11 1707)">252</text></g><g clip-path="url(#clip18)"><path d="M2185.5 2914.5 2190.57 2884.5 2211.5 2884.5" stroke="#A6A6A6" stroke-width="3.4375" stroke-linejoin="round" stroke-miterlimit="10" fill="none"/></g><g clip-path="url(#clip19)"><text fill="#595959" font-family="Yu Gothic,Yu Gothic_MSFontService,sans-serif" font-weight="700" font-size="60" transform="matrix(1 0 0 1 2225.14 2904)">60</text></g><g clip-path="url(#clip20)"><g clip-path="url(#clip21)"><text fill="#595959" font-family="Yu Gothic,Yu Gothic_MSFontService,sans-serif" font-weight="700" font-size="60" transform="matrix(1 0 0 1 2188.98 2808)">89</text></g></g><g clip-path="url(#clip22)"><text fill="#595959" font-family="Yu Gothic,Yu Gothic_MSFontService,sans-serif" font-weight="700" font-size="60" transform="matrix(1 0 0 1 2199.45 2625)">84</text></g><g clip-path="url(#clip23)"><text fill="#595959" font-family="Yu Gothic,Yu Gothic_MSFontService,sans-serif" font-weight="700" font-size="60" transform="matrix(1 0 0 1 2264.06 2441)">149</text></g><g clip-path="url(#clip24)"><g clip-path="url(#clip25)"><text fill="#595959" font-family="Yu Gothic,Yu Gothic_MSFontService,sans-serif" font-weight="700" font-size="60" transform="matrix(1 0 0 1 2218.4 2258)">126</text></g></g><g clip-path="url(#clip26)"><text fill="#595959" font-family="Yu Gothic,Yu Gothic_MSFontService,sans-serif" font-weight="700" font-size="60" transform="matrix(1 0 0 1 2272.86 2074)">162</text></g><g clip-path="url(#clip27)"><text fill="#595959" font-family="Yu Gothic,Yu Gothic_MSFontService,sans-serif" font-weight="700" font-size="60" transform="matrix(1 0 0 1 2323.12 1891)">184</text></g><g clip-path="url(#clip28)"><text fill="#595959" font-family="Yu Gothic,Yu Gothic_MSFontService,sans-serif" font-weight="700" font-size="60" transform="matrix(1 0 0 1 2419.89 1707)">287</text></g><g clip-path="url(#clip29)"><text fill="#595959" font-family="Yu Gothic,Yu Gothic_MSFontService,sans-serif" font-weight="700" font-size="60" transform="matrix(1 0 0 1 2215.79 2992)">93</text></g><g clip-path="url(#clip30)"><text fill="#595959" font-family="Yu Gothic,Yu Gothic_MSFontService,sans-serif" font-weight="700" font-size="60" transform="matrix(1 0 0 1 2256.52 2808)">113</text></g><g clip-path="url(#clip31)"><text fill="#595959" font-family="Yu Gothic,Yu Gothic_MSFontService,sans-serif" font-weight="700" font-size="60" transform="matrix(1 0 0 1 2268.67 2625)">122</text></g><g clip-path="url(#clip32)"><text fill="#595959" font-family="Yu Gothic,Yu Gothic_MSFontService,sans-serif" font-weight="700" font-size="60" transform="matrix(1 0 0 1 2413.6 2441)">208</text></g><g clip-path="url(#clip33)"><text fill="#595959" font-family="Yu Gothic,Yu Gothic_MSFontService,sans-serif" font-weight="700" font-size="60" transform="matrix(1 0 0 1 2363.34 2258)">220</text></g><g clip-path="url(#clip34)"><text fill="#595959" font-family="Yu Gothic,Yu Gothic_MSFontService,sans-serif" font-weight="700" font-size="60" transform="matrix(1 0 0 1 2441.25 2074)">240</text></g><g clip-path="url(#clip35)"><text fill="#595959" font-family="Yu Gothic,Yu Gothic_MSFontService,sans-serif" font-weight="700" font-size="60" transform="matrix(1 0 0 1 2518.74 1891)">283</text></g><g clip-path="url(#clip36)"><text fill="#595959" font-family="Yu Gothic,Yu Gothic_MSFontService,sans-serif" font-weight="700" font-size="60" transform="matrix(1 0 0 1 2719.39 1707)">428</text></g><g clip-path="url(#clip37)"><text fill="#595959" font-family="Yu Gothic,Yu Gothic_MSFontService,sans-serif" font-weight="700" font-size="60" transform="matrix(1 0 0 1 2300.92 2992)">151</text></g><g clip-path="url(#clip38)"><text fill="#595959" font-family="Yu Gothic,Yu Gothic_MSFontService,sans-serif" font-weight="700" font-size="55" transform="matrix(1 0 0 1 2386.1 2807)">187</text></g><g clip-path="url(#clip39)"><text fill="#595959" font-family="Yu Gothic,Yu Gothic_MSFontService,sans-serif" font-weight="700" font-size="60" transform="matrix(1 0 0 1 2411.93 2625)">220</text></g><g clip-path="url(#clip40)"><text fill="#595959" font-family="Yu Gothic,Yu Gothic_MSFontService,sans-serif" font-weight="700" font-size="60" transform="matrix(1 0 0 1 2614.67 2441)">272</text></g><g clip-path="url(#clip41)"><text fill="#595959" font-family="Yu Gothic,Yu Gothic_MSFontService,sans-serif" font-weight="700" font-size="60" transform="matrix(1 0 0 1 2641.06 2258)">443</text></g><g clip-path="url(#clip42)"><text fill="#595959" font-family="Yu Gothic,Yu Gothic_MSFontService,sans-serif" font-weight="700" font-size="60" transform="matrix(1 0 0 1 2705.98 2074)">392</text></g><g clip-path="url(#clip43)"><text fill="#595959" font-family="Yu Gothic,Yu Gothic_MSFontService,sans-serif" font-weight="700" font-size="60" transform="matrix(1 0 0 1 2819.08 1891)">434</text></g><g clip-path="url(#clip44)"><text fill="#595959" font-family="Yu Gothic,Yu Gothic_MSFontService,sans-serif" font-weight="700" font-size="60" transform="matrix(1 0 0 1 3202.36 1707)">725</text></g><g clip-path="url(#clip45)"><text fill="#595959" font-family="Yu Gothic,Yu Gothic_MSFontService,sans-serif" font-weight="700" font-size="60" transform="matrix(1 0 0 1 2442.89 2992)">6</text></g><g clip-path="url(#clip46)"><text fill="#595959" font-family="Yu Gothic,Yu Gothic_MSFontService,sans-serif" font-weight="700" font-size="60" transform="matrix(1 0 0 1 2539.24 2808)">6</text></g><g clip-path="url(#clip47)"><text fill="#595959" font-family="Yu Gothic,Yu Gothic_MSFontService,sans-serif" font-weight="700" font-size="60" transform="matrix(1 0 0 1 2582.8 2625)">10</text></g><g clip-path="url(#clip48)"><text fill="#595959" font-family="Yu Gothic,Yu Gothic_MSFontService,sans-serif" font-weight="700" font-size="60" transform="matrix(1 0 0 1 2807.32 2441)">12</text></g><g clip-path="url(#clip49)"><text fill="#595959" font-family="Yu Gothic,Yu Gothic_MSFontService,sans-serif" font-weight="700" font-size="60" transform="matrix(1 0 0 1 2905.34 2258)">12</text></g><g clip-path="url(#clip50)"><text fill="#595959" font-family="Yu Gothic,Yu Gothic_MSFontService,sans-serif" font-weight="700" font-size="60" transform="matrix(1 0 0 1 2948.91 2074)">17</text></g><g clip-path="url(#clip51)"><text fill="#595959" font-family="Yu Gothic,Yu Gothic_MSFontService,sans-serif" font-weight="700" font-size="60" transform="matrix(1 0 0 1 3079.6 1891)">18</text></g><g clip-path="url(#clip52)"><text fill="#595959" font-family="Yu Gothic,Yu Gothic_MSFontService,sans-serif" font-weight="700" font-size="60" transform="matrix(1 0 0 1 3584.78 1707)">25</text></g><g clip-path="url(#clip53)"><text fill="#595959" font-family="Yu Gothic,Yu Gothic_MSFontService,sans-serif" font-weight="500" font-size="60" transform="matrix(1 0 0 1 2123.23 3162)">0</text></g><g clip-path="url(#clip54)"><text fill="#595959" font-family="Yu Gothic,Yu Gothic_MSFontService,sans-serif" font-weight="500" font-size="60" transform="matrix(1 0 0 1 2911.4 3162)">1000</text></g><g clip-path="url(#clip55)"><text fill="#595959" font-family="Yu Gothic,Yu Gothic_MSFontService,sans-serif" font-weight="500" font-size="60" transform="matrix(1 0 0 1 3749.17 3162)">2000</text></g><g clip-path="url(#clip56)"><g clip-path="url(#clip57)"><text fill="#595959" font-family="Yu Gothic,Yu Gothic_MSFontService,sans-serif" font-weight="500" font-size="55" transform="matrix(1 0 0 1 1486.87 2987)">授業に集中できる</text></g></g><g clip-path="url(#clip58)"><g clip-path="url(#clip59)"><text fill="#595959" font-family="Yu Gothic,Yu Gothic_MSFontService,sans-serif" font-weight="500" font-size="55" transform="matrix(1 0 0 1 1541.87 2803)">質問がしやすい</text></g></g><g clip-path="url(#clip60)"><g clip-path="url(#clip61)"><text fill="#595959" font-family="Yu Gothic,Yu Gothic_MSFontService,sans-serif" font-weight="500" font-size="55" transform="matrix(1 0 0 1 1170.07 2620)">(</text></g></g><g clip-path="url(#clip62)"><g clip-path="url(#clip63)"><text fill="#595959" font-family="Yu Gothic,Yu Gothic_MSFontService,sans-serif" font-weight="500" font-size="55" transform="matrix(1 0 0 1 1190.97 2620)">教室と比べて</text></g></g><g clip-path="url(#clip64)"><g clip-path="url(#clip65)"><text fill="#595959" font-family="Yu Gothic,Yu Gothic_MSFontService,sans-serif" font-weight="500" font-size="55" transform="matrix(1 0 0 1 1520.97 2620)">)</text></g></g><g clip-path="url(#clip66)"><g clip-path="url(#clip67)"><text fill="#595959" font-family="Yu Gothic,Yu Gothic_MSFontService,sans-serif" font-weight="500" font-size="55" transform="matrix(1 0 0 1 1541.87 2620)">先生の声が聞き</text></g></g><g clip-path="url(#clip68)"><g clip-path="url(#clip69)"><text fill="#595959" font-family="Yu Gothic,Yu Gothic_MSFontService,sans-serif" font-weight="500" font-size="55" transform="matrix(1 0 0 1 1926.8 2620)">…</text></g></g><g clip-path="url(#clip70)"><g clip-path="url(#clip71)"><text fill="#595959" font-family="Yu Gothic,Yu Gothic_MSFontService,sans-serif" font-weight="500" font-size="55" transform="matrix(1 0 0 1 1181.97 2436)">講義の録画が見られて</text></g></g><g clip-path="url(#clip72)"><g clip-path="url(#clip73)"><text fill="#595959" font-family="Yu Gothic,Yu Gothic_MSFontService,sans-serif" font-weight="500" font-size="55" transform="matrix(1 0 0 1 1731.97 2436)">, </text></g></g><g clip-path="url(#clip74)"><g clip-path="url(#clip75)"><text fill="#595959" font-family="Yu Gothic,Yu Gothic_MSFontService,sans-serif" font-weight="500" font-size="55" transform="matrix(1 0 0 1 1761.87 2436)">復習や</text></g></g><g clip-path="url(#clip76)"><g clip-path="url(#clip77)"><text fill="#595959" font-family="Yu Gothic,Yu Gothic_MSFontService,sans-serif" font-weight="500" font-size="55" transform="matrix(1 0 0 1 1926.76 2436)">…</text></g></g><g clip-path="url(#clip78)"><g clip-path="url(#clip79)"><text fill="#595959" font-family="Yu Gothic,Yu Gothic_MSFontService,sans-serif" font-weight="500" font-size="55" transform="matrix(1 0 0 1 1156.87 2253)">キャンパス間の移動が不要なの</text></g></g><g clip-path="url(#clip80)"><g clip-path="url(#clip81)"><text fill="#595959" font-family="Yu Gothic,Yu Gothic_MSFontService,sans-serif" font-weight="500" font-size="55" transform="matrix(1 0 0 1 1927.19 2253)">…</text></g></g><g clip-path="url(#clip82)"><g clip-path="url(#clip83)"><text fill="#595959" font-family="Yu Gothic,Yu Gothic_MSFontService,sans-serif" font-weight="500" font-size="55" transform="matrix(1 0 0 1 1151.1 2069)">(</text></g></g><g clip-path="url(#clip84)"><g clip-path="url(#clip85)"><text fill="#595959" font-family="Yu Gothic,Yu Gothic_MSFontService,sans-serif" font-weight="500" font-size="55" transform="matrix(1 0 0 1 1172 2069)">教室の黒板と比べて</text></g></g><g clip-path="url(#clip86)"><g clip-path="url(#clip87)"><text fill="#595959" font-family="Yu Gothic,Yu Gothic_MSFontService,sans-serif" font-weight="500" font-size="55" transform="matrix(1 0 0 1 1667 2069)">)PC</text></g></g><g clip-path="url(#clip88)"><g clip-path="url(#clip89)"><text fill="#595959" font-family="Yu Gothic,Yu Gothic_MSFontService,sans-serif" font-weight="500" font-size="55" transform="matrix(1 0 0 1 1761.87 2069)">の画面</text></g></g><g clip-path="url(#clip90)"><g clip-path="url(#clip91)"><text fill="#595959" font-family="Yu Gothic,Yu Gothic_MSFontService,sans-serif" font-weight="500" font-size="55" transform="matrix(1 0 0 1 1927.31 2069)">…</text></g></g><g clip-path="url(#clip92)"><g clip-path="url(#clip93)"><text fill="#595959" font-family="Yu Gothic,Yu Gothic_MSFontService,sans-serif" font-weight="500" font-size="55" transform="matrix(1 0 0 1 1181.97 1886)">講義資料が電子化され</text></g></g><g clip-path="url(#clip94)"><g clip-path="url(#clip95)"><text fill="#595959" font-family="Yu Gothic,Yu Gothic_MSFontService,sans-serif" font-weight="500" font-size="55" transform="matrix(1 0 0 1 1731.97 1886)">, </text></g></g><g clip-path="url(#clip96)"><g clip-path="url(#clip97)"><text fill="#595959" font-family="Yu Gothic,Yu Gothic_MSFontService,sans-serif" font-weight="500" font-size="55" transform="matrix(1 0 0 1 1761.87 1886)">予習復</text></g></g><g clip-path="url(#clip98)"><g clip-path="url(#clip99)"><text fill="#595959" font-family="Yu Gothic,Yu Gothic_MSFontService,sans-serif" font-weight="500" font-size="55" transform="matrix(1 0 0 1 1926.76 1886)">…</text></g></g><g clip-path="url(#clip100)"><g clip-path="url(#clip101)"><text fill="#595959" font-family="Yu Gothic,Yu Gothic_MSFontService,sans-serif" font-weight="500" font-size="55" transform="matrix(1 0 0 1 1541.87 1702)">通学時間が不要</text></g></g><g clip-path="url(#clip102)"><rect x="3429" y="2119" width="594" height="569" fill="#FFFFFF"/></g><g clip-path="url(#clip103)"><rect x="3461.5" y="2154.5" width="42" height="43" stroke="#000000" stroke-width="4.58333" stroke-linejoin="round" stroke-miterlimit="10" fill="#FFFFFF"/></g><g clip-path="url(#clip104)"><text fill="#595959" font-family="Yu Gothic,Yu Gothic_MSFontService,sans-serif" font-weight="500" font-size="73" transform="matrix(1 0 0 1 3523.02 2196)">学部</text></g><g clip-path="url(#clip105)"><text fill="#595959" font-family="Yu Gothic,Yu Gothic_MSFontService,sans-serif" font-weight="500" font-size="73" transform="matrix(1 0 0 1 3669.69 2196)">1</text></g><g clip-path="url(#clip106)"><text fill="#595959" font-family="Yu Gothic,Yu Gothic_MSFontService,sans-serif" font-weight="500" font-size="73" transform="matrix(1 0 0 1 3710.41 2196)">年生</text></g><g clip-path="url(#clip107)"><rect x="3461.5" y="2268.5" width="42" height="42" stroke="#000000" stroke-width="4.58333" stroke-linejoin="round" stroke-miterlimit="10" fill="#DEEEFA"/></g><g clip-path="url(#clip108)"><text fill="#595959" font-family="Yu Gothic,Yu Gothic_MSFontService,sans-serif" font-weight="500" font-size="73" transform="matrix(1 0 0 1 3523.02 2310)">学部</text></g><g clip-path="url(#clip109)"><text fill="#595959" font-family="Yu Gothic,Yu Gothic_MSFontService,sans-serif" font-weight="500" font-size="73" transform="matrix(1 0 0 1 3669.69 2310)">2</text></g><g clip-path="url(#clip110)"><text fill="#595959" font-family="Yu Gothic,Yu Gothic_MSFontService,sans-serif" font-weight="500" font-size="73" transform="matrix(1 0 0 1 3710.41 2310)">年生</text></g><g clip-path="url(#clip111)"><rect x="3461.5" y="2382.5" width="42" height="42" stroke="#000000" stroke-width="4.58333" stroke-linejoin="round" stroke-miterlimit="10" fill="#AFD6F3"/></g><g clip-path="url(#clip112)"><text fill="#595959" font-family="Yu Gothic,Yu Gothic_MSFontService,sans-serif" font-weight="500" font-size="73" transform="matrix(1 0 0 1 3523.02 2424)">学部</text></g><g clip-path="url(#clip113)"><text fill="#595959" font-family="Yu Gothic,Yu Gothic_MSFontService,sans-serif" font-weight="500" font-size="73" transform="matrix(1 0 0 1 3669.69 2424)">3</text></g><g clip-path="url(#clip114)"><text fill="#595959" font-family="Yu Gothic,Yu Gothic_MSFontService,sans-serif" font-weight="500" font-size="73" transform="matrix(1 0 0 1 3710.41 2424)">年生以上</text></g><g clip-path="url(#clip115)"><rect x="3461.5" y="2496.5" width="42" height="42" stroke="#000000" stroke-width="4.58333" stroke-linejoin="round" stroke-miterlimit="10" fill="#51A1E6"/></g><g clip-path="url(#clip116)"><text fill="#595959" font-family="Yu Gothic,Yu Gothic_MSFontService,sans-serif" font-weight="500" font-size="73" transform="matrix(1 0 0 1 3523.02 2538)">大学院</text></g><g clip-path="url(#clip117)"><rect x="3461.5" y="2609.5" width="42" height="43" stroke="#000000" stroke-width="4.58333" stroke-linejoin="round" stroke-miterlimit="10" fill="#145288"/></g><g clip-path="url(#clip118)"><text fill="#595959" font-family="Yu Gothic,Yu Gothic_MSFontService,sans-serif" font-weight="500" font-size="73" transform="matrix(1 0 0 1 3523.02 2651)">その他</text></g><rect x="1074.5" y="1255.5" width="2991" height="2007" stroke="#000000" stroke-width="4.58333" stroke-linejoin="round" stroke-miterlimit="10" fill="none"/><g clip-path="url(#clip119)"><text font-family="Yu Gothic,Yu Gothic_MSFontService,sans-serif" font-weight="500" font-size="73" transform="matrix(1 0 0 1 1124.99 1382)">【メリット】オンライン授業が</text></g><g clip-path="url(#clip120)"><text font-family="Yu Gothic,Yu Gothic_MSFontService,sans-serif" font-weight="500" font-size="73" transform="matrix(1 0 0 1 2151.65 1382)">, </text></g><g clip-path="url(#clip121)"><text font-family="Yu Gothic,Yu Gothic_MSFontService,sans-serif" font-weight="500" font-size="73" transform="matrix(1 0 0 1 2191.55 1382)">対面授業より良いと感じた点にチェックをしてくださ</text></g><g clip-path="url(#clip122)"><text font-family="Yu Gothic,Yu Gothic_MSFontService,sans-serif" font-weight="500" font-size="73" transform="matrix(1 0 0 1 1124.99 1505)">い</text></g><g clip-path="url(#clip123)"><text font-family="Yu Gothic,Yu Gothic_MSFontService,sans-serif" font-weight="500" font-size="73" transform="matrix(1 0 0 1 1219.24 1505)">(</text></g><g clip-path="url(#clip124)"><text font-family="Yu Gothic,Yu Gothic_MSFontService,sans-serif" font-weight="500" font-size="73" transform="matrix(1 0 0 1 1247.11 1505)">複数選択可</text></g><g clip-path="url(#clip125)"><text font-family="Yu Gothic,Yu Gothic_MSFontService,sans-serif" font-weight="500" font-size="73" transform="matrix(1 0 0 1 1613.78 1505)">)</text></g><g clip-path="url(#clip126)"><text font-family="Yu Gothic,Yu Gothic_MSFontService,sans-serif" font-weight="500" font-size="73" transform="matrix(1 0 0 1 1641.64 1505)">．</text></g><g clip-path="url(#clip127)"><rect x="2656" y="2823" width="1370" height="263" fill="#FFFFFF" fill-opacity="0.698039"/></g><g clip-path="url(#clip128)"><g clip-path="url(#clip129)"><text fill="#595959" font-family="Yu Gothic,Yu Gothic_MSFontService,sans-serif" font-weight="400" font-size="69" transform="matrix(1 0 0 1 3471.94 2886)">(</text></g></g><g clip-path="url(#clip130)"><g clip-path="url(#clip131)"><text fill="#595959" font-family="Yu Gothic,Yu Gothic_MSFontService,sans-serif" font-weight="400" font-size="69" transform="matrix(1 0 0 1 3498.5 2886)">回答数</text></g></g><g clip-path="url(#clip132)"><g clip-path="url(#clip133)"><text fill="#595959" font-family="Yu Gothic,Yu Gothic_MSFontService,sans-serif" font-weight="400" font-size="69" transform="matrix(1 0 0 1 3724.34 2886)">n=1829)</text></g></g><g clip-path="url(#clip134)"><text fill="#595959" font-family="Yu Gothic,Yu Gothic_MSFontService,sans-serif" font-weight="400" font-size="50" transform="matrix(1 0 0 1 2682.62 2956)">※</text></g><g clip-path="url(#clip135)"><text fill="#595959" font-family="Yu Gothic,Yu Gothic_MSFontService,sans-serif" font-weight="400" font-size="50" transform="matrix(1 0 0 1 2733.03 2956)">但し、無回答は「メリットなし」を意味する可能性あり</text></g><g clip-path="url(#clip136)"><g clip-path="url(#clip137)"><text fill="#595959" font-family="Yu Gothic,Yu Gothic_MSFontService,sans-serif" font-weight="400" font-size="50" transform="matrix(1 0 0 1 3029.85 3025)">※</text></g></g><g clip-path="url(#clip138)"><g clip-path="url(#clip139)"><text fill="#595959" font-family="Yu Gothic,Yu Gothic_MSFontService,sans-serif" font-weight="400" font-size="50" transform="matrix(1 0 0 1 3080.27 3025)">その他、延べ</text></g></g><g clip-path="url(#clip140)"><g clip-path="url(#clip141)"><text fill="#595959" font-family="Yu Gothic,Yu Gothic_MSFontService,sans-serif" font-weight="400" font-size="50" transform="matrix(1 0 0 1 3382.77 3025)">91</text></g></g><g clip-path="url(#clip142)"><g clip-path="url(#clip143)"><text fill="#595959" font-family="Yu Gothic,Yu Gothic_MSFontService,sans-serif" font-weight="400" font-size="50" transform="matrix(1 0 0 1 3438.87 3025)">個の自由回答記述があり</text></g></g><g clip-path="url(#clip144)"><rect x="3892" y="3075" width="164" height="167" fill="#FFFFFF" fill-opacity="0.698039"/></g><g clip-path="url(#clip145)"><text fill="#595959" font-family="Yu Gothic,Yu Gothic_MSFontService,sans-serif" font-weight="400" font-size="60" transform="matrix(1 0 0 1 3924.66 3162)">人</text></g><g clip-path="url(#clip146)"><rect x="1947" y="1579" width="165" height="1496" fill="#FFFFFF"/></g><g clip-path="url(#clip147)"><rect x="1097" y="2700" width="862" height="195" fill="#FFFFFF"/></g><g clip-path="url(#clip148)"><text fill="#595959" font-family="Yu Gothic,Yu Gothic_MSFontService,sans-serif" font-weight="500" font-size="55" transform="matrix(1 0 0 1 1540.74 2808)">質問がしやすい</text></g><g clip-path="url(#clip149)"><rect x="1110" y="1795" width="845" height="177" fill="#FFFFFF"/></g><g clip-path="url(#clip150)"><text fill="#595959" font-family="Yu Gothic,Yu Gothic_MSFontService,sans-serif" font-weight="500" font-size="55" transform="matrix(1 0 0 1 1177.05 1860)">講義資料が電子化され</text></g><g clip-path="url(#clip151)"><text fill="#595959" font-family="Yu Gothic,Yu Gothic_MSFontService,sans-serif" font-weight="500" font-size="55" transform="matrix(1 0 0 1 1727.05 1860)">, </text></g><g clip-path="url(#clip152)"><text fill="#595959" font-family="Yu Gothic,Yu Gothic_MSFontService,sans-serif" font-weight="500" font-size="55" transform="matrix(1 0 0 1 1756.96 1860)">予習復</text></g><g clip-path="url(#clip153)"><text fill="#595959" font-family="Yu Gothic,Yu Gothic_MSFontService,sans-serif" font-weight="500" font-size="55" transform="matrix(1 0 0 1 1426.96 1928)">習や確認がしやすい</text></g><g clip-path="url(#clip154)"><text fill="#595959" font-family="Arial,Arial_MSFontService,sans-serif" font-weight="700" font-size="64" transform="matrix(1 0 0 1 1963.6 1713)">1717</text></g><g clip-path="url(#clip155)"><text fill="#595959" font-family="Arial,Arial_MSFontService,sans-serif" font-weight="700" font-size="64" transform="matrix(1 0 0 1 1963.6 2264)">893</text></g><g clip-path="url(#clip156)"><text fill="#595959" font-family="Arial,Arial_MSFontService,sans-serif" font-weight="700" font-size="64" transform="matrix(1 0 0 1 1963.6 2448)">776</text></g><g clip-path="url(#clip157)"><text fill="#595959" font-family="Arial,Arial_MSFontService,sans-serif" font-weight="700" font-size="64" transform="matrix(1 0 0 1 1963.66 2631)">506</text></g><g clip-path="url(#clip158)"><text fill="#595959" font-family="Arial,Arial_MSFontService,sans-serif" font-weight="700" font-size="64" transform="matrix(1 0 0 1 1963.66 2815)">450</text></g><g clip-path="url(#clip159)"><text fill="#595959" font-family="Arial,Arial_MSFontService,sans-serif" font-weight="700" font-size="64" transform="matrix(1 0 0 1 1963.66 2999)">335</text></g><g clip-path="url(#clip160)"><text fill="#595959" font-family="Arial,Arial_MSFontService,sans-serif" font-weight="700" font-size="64" transform="matrix(1 0 0 1 1963.6 2080)">950</text></g><g clip-path="url(#clip161)"><text fill="#595959" font-family="Yu Gothic,Yu Gothic_MSFontService,sans-serif" font-weight="500" font-size="73" transform="matrix(1 0 0 1 1959.68 1591)">全体</text></g><g clip-path="url(#clip162)"><text fill="#595959" font-family="Arial,Arial_MSFontService,sans-serif" font-weight="700" font-size="64" transform="matrix(1 0 0 1 1963.6 1897)">1107</text></g><g clip-path="url(#clip163)"><rect x="1087" y="1975" width="869" height="177" fill="#FFFFFF"/></g><g clip-path="url(#clip164)"><text fill="#595959" font-family="Yu Gothic,Yu Gothic_MSFontService,sans-serif" font-weight="500" font-size="55" transform="matrix(1 0 0 1 1147.62 2040)">(</text></g><g clip-path="url(#clip165)"><text fill="#595959" font-family="Yu Gothic,Yu Gothic_MSFontService,sans-serif" font-weight="500" font-size="55" transform="matrix(1 0 0 1 1168.52 2040)">教室の黒板と比べて</text></g><g clip-path="url(#clip166)"><text fill="#595959" font-family="Yu Gothic,Yu Gothic_MSFontService,sans-serif" font-weight="500" font-size="55" transform="matrix(1 0 0 1 1663.52 2040)">)PC</text></g><g clip-path="url(#clip167)"><text fill="#595959" font-family="Yu Gothic,Yu Gothic_MSFontService,sans-serif" font-weight="500" font-size="55" transform="matrix(1 0 0 1 1758.39 2040)">の画面</text></g><g clip-path="url(#clip168)"><text fill="#595959" font-family="Yu Gothic,Yu Gothic_MSFontService,sans-serif" font-weight="500" font-size="55" transform="matrix(1 0 0 1 1208.39 2108)">のほうが資料などが見やすい</text></g><g clip-path="url(#clip169)"><rect x="1123" y="2344" width="835" height="162" fill="#FFFFFF"/></g><g clip-path="url(#clip170)"><text fill="#595959" font-family="Yu Gothic,Yu Gothic_MSFontService,sans-serif" font-weight="500" font-size="55" transform="matrix(1 0 0 1 1180.26 2408)">講義の録画が見られて</text></g><g clip-path="url(#clip171)"><text fill="#595959" font-family="Yu Gothic,Yu Gothic_MSFontService,sans-serif" font-weight="500" font-size="55" transform="matrix(1 0 0 1 1730.26 2408)">, </text></g><g clip-path="url(#clip172)"><text fill="#595959" font-family="Yu Gothic,Yu Gothic_MSFontService,sans-serif" font-weight="500" font-size="55" transform="matrix(1 0 0 1 1760.17 2408)">復習や</text></g><g clip-path="url(#clip173)"><text fill="#595959" font-family="Yu Gothic,Yu Gothic_MSFontService,sans-serif" font-weight="500" font-size="55" transform="matrix(1 0 0 1 1540.17 2476)">確認がしやすい</text></g><g clip-path="url(#clip174)"><rect x="1107" y="2152" width="846" height="162" fill="#FFFFFF"/></g><g clip-path="url(#clip175)"><text fill="#595959" font-family="Yu Gothic,Yu Gothic_MSFontService,sans-serif" font-weight="500" font-size="55" transform="matrix(1 0 0 1 1150 2217)">キャンパス間の移動が不要なの</text></g><g clip-path="url(#clip176)"><text fill="#595959" font-family="Yu Gothic,Yu Gothic_MSFontService,sans-serif" font-weight="500" font-size="55" transform="matrix(1 0 0 1 1260 2285)">で授業選択の幅が広がった</text></g><g clip-path="url(#clip177)"><rect x="1089" y="2517" width="862" height="195" fill="#FFFFFF"/></g><g clip-path="url(#clip178)"><text fill="#595959" font-family="Yu Gothic,Yu Gothic_MSFontService,sans-serif" font-weight="500" font-size="55" transform="matrix(1 0 0 1 1160.84 2591)">(</text></g><g clip-path="url(#clip179)"><text fill="#595959" font-family="Yu Gothic,Yu Gothic_MSFontService,sans-serif" font-weight="500" font-size="55" transform="matrix(1 0 0 1 1181.74 2591)">教室と比べて</text></g><g clip-path="url(#clip180)"><text fill="#595959" font-family="Yu Gothic,Yu Gothic_MSFontService,sans-serif" font-weight="500" font-size="55" transform="matrix(1 0 0 1 1511.74 2591)">)</text></g><g clip-path="url(#clip181)"><text fill="#595959" font-family="Yu Gothic,Yu Gothic_MSFontService,sans-serif" font-weight="500" font-size="55" transform="matrix(1 0 0 1 1532.64 2591)">先生の声が聞き</text></g><g clip-path="url(#clip182)"><text fill="#595959" font-family="Yu Gothic,Yu Gothic_MSFontService,sans-serif" font-weight="500" font-size="55" transform="matrix(1 0 0 1 1642.64 2659)">取りやすい</text></g></g></svg>