<svg width="2988" height="1247" xmlns="http://www.w3.org/2000/svg" xmlns:xlink="http://www.w3.org/1999/xlink" overflow="hidden"><defs><clipPath id="clip0"><rect x="4110" y="720" width="2988" height="1247"/></clipPath><clipPath id="clip1"><rect x="4111" y="721" width="2983" height="1243"/></clipPath><clipPath id="clip2"><rect x="4751" y="997" width="1732" height="833"/></clipPath><clipPath id="clip3"><rect x="4751" y="997" width="1732" height="833"/></clipPath><clipPath id="clip4"><rect x="4751" y="997" width="1732" height="833"/></clipPath><clipPath id="clip5"><rect x="4751" y="997" width="1732" height="833"/></clipPath><clipPath id="clip6"><rect x="4751" y="997" width="1732" height="833"/></clipPath><clipPath id="clip7"><rect x="4751" y="997" width="1732" height="833"/></clipPath><clipPath id="clip8"><rect x="4751" y="997" width="1732" height="833"/></clipPath><clipPath id="clip9"><rect x="4751" y="997" width="1732" height="833"/></clipPath><clipPath id="clip10"><rect x="4751" y="997" width="1732" height="833"/></clipPath><clipPath id="clip11"><rect x="4751" y="997" width="1732" height="833"/></clipPath><clipPath id="clip12"><rect x="4751" y="997" width="1732" height="833"/></clipPath><clipPath id="clip13"><rect x="4751" y="997" width="1732" height="833"/></clipPath><clipPath id="clip14"><rect x="4751" y="997" width="1732" height="833"/></clipPath><clipPath id="clip15"><rect x="4111" y="721" width="2983" height="1243"/></clipPath><clipPath id="clip16"><rect x="4111" y="721" width="2983" height="1243"/></clipPath><clipPath id="clip17"><rect x="4111" y="721" width="2983" height="1243"/></clipPath><clipPath id="clip18"><rect x="4111" y="721" width="2983" height="1243"/></clipPath><clipPath id="clip19"><rect x="4111" y="721" width="2983" height="1243"/></clipPath><clipPath id="clip20"><rect x="4111" y="721" width="2983" height="1243"/></clipPath><clipPath id="clip21"><rect x="4111" y="721" width="2983" height="1243"/></clipPath><clipPath id="clip22"><rect x="4111" y="721" width="2983" height="1243"/></clipPath><clipPath id="clip23"><rect x="4111" y="721" width="2983" height="1243"/></clipPath><clipPath id="clip24"><rect x="4111" y="721" width="2983" height="1243"/></clipPath><clipPath id="clip25"><rect x="4111" y="721" width="2983" height="1243"/></clipPath><clipPath id="clip26"><rect x="4111" y="721" width="2983" height="1243"/></clipPath><clipPath id="clip27"><rect x="4111" y="721" width="2983" height="1243"/></clipPath><clipPath id="clip28"><rect x="4111" y="721" width="2983" height="1243"/></clipPath><clipPath id="clip29"><rect x="4111" y="721" width="2983" height="1243"/></clipPath><clipPath id="clip30"><rect x="4111" y="721" width="2983" height="1243"/></clipPath><clipPath id="clip31"><rect x="4111" y="721" width="2983" height="1243"/></clipPath><clipPath id="clip32"><rect x="4111" y="721" width="2983" height="1243"/></clipPath><clipPath id="clip33"><rect x="4111" y="721" width="2983" height="1243"/></clipPath><clipPath id="clip34"><rect x="4111" y="721" width="2983" height="1243"/></clipPath><clipPath id="clip35"><rect x="4111" y="721" width="2983" height="1243"/></clipPath><clipPath id="clip36"><rect x="4111" y="721" width="2983" height="1243"/></clipPath><clipPath id="clip37"><rect x="4111" y="721" width="2983" height="1243"/></clipPath><clipPath id="clip38"><rect x="4111" y="721" width="2983" height="1243"/></clipPath><clipPath id="clip39"><rect x="4111" y="721" width="2983" height="1243"/></clipPath><clipPath id="clip40"><rect x="4111" y="721" width="2983" height="1243"/></clipPath><clipPath id="clip41"><rect x="4111" y="721" width="2983" height="1243"/></clipPath><clipPath id="clip42"><rect x="4111" y="721" width="2983" height="1243"/></clipPath><clipPath id="clip43"><rect x="4111" y="721" width="2983" height="1243"/></clipPath><clipPath id="clip44"><rect x="4111" y="721" width="2983" height="1243"/></clipPath><clipPath id="clip45"><rect x="4111" y="721" width="2983" height="1243"/></clipPath><clipPath id="clip46"><rect x="4111" y="721" width="2983" height="1243"/></clipPath><clipPath id="clip47"><rect x="4111" y="721" width="2983" height="1243"/></clipPath><clipPath id="clip48"><rect x="4111" y="721" width="2983" height="1243"/></clipPath><clipPath id="clip49"><rect x="4111" y="721" width="2983" height="1243"/></clipPath><clipPath id="clip50"><rect x="4111" y="721" width="2983" height="1243"/></clipPath><clipPath id="clip51"><rect x="4111" y="721" width="2983" height="1243"/></clipPath><clipPath id="clip52"><rect x="4111" y="721" width="2983" height="1243"/></clipPath><clipPath id="clip53"><rect x="4111" y="721" width="2983" height="1243"/></clipPath><clipPath id="clip54"><rect x="4111" y="721" width="2983" height="1243"/></clipPath><clipPath id="clip55"><rect x="4111" y="721" width="2983" height="1243"/></clipPath><clipPath id="clip56"><rect x="4111" y="721" width="2983" height="1243"/></clipPath><clipPath id="clip57"><rect x="4111" y="721" width="2983" height="1243"/></clipPath><clipPath id="clip58"><rect x="4111" y="721" width="2983" height="1243"/></clipPath><clipPath id="clip59"><rect x="4111" y="721" width="2983" height="1243"/></clipPath><clipPath id="clip60"><rect x="4111" y="721" width="2983" height="1243"/></clipPath><clipPath id="clip61"><rect x="4111" y="721" width="2983" height="1243"/></clipPath><clipPath id="clip62"><rect x="4111" y="721" width="2983" height="1243"/></clipPath><clipPath id="clip63"><rect x="4111" y="721" width="2983" height="1243"/></clipPath><clipPath id="clip64"><rect x="4111" y="721" width="2983" height="1243"/></clipPath><clipPath id="clip65"><rect x="4111" y="721" width="2983" height="1243"/></clipPath><clipPath id="clip66"><rect x="4111" y="721" width="2983" height="1243"/></clipPath><clipPath id="clip67"><rect x="4111" y="721" width="2983" height="1243"/></clipPath><clipPath id="clip68"><rect x="4111" y="721" width="2983" height="1243"/></clipPath><clipPath id="clip69"><rect x="4111" y="721" width="2983" height="1243"/></clipPath><clipPath id="clip70"><rect x="4111" y="721" width="2983" height="1243"/></clipPath><clipPath id="clip71"><rect x="4111" y="721" width="2983" height="1243"/></clipPath><clipPath id="clip72"><rect x="4111" y="721" width="2983" height="1243"/></clipPath><clipPath id="clip73"><rect x="4111" y="721" width="2983" height="1243"/></clipPath><clipPath id="clip74"><rect x="4111" y="721" width="2983" height="1243"/></clipPath><clipPath id="clip75"><rect x="4111" y="721" width="2983" height="1243"/></clipPath><clipPath id="clip76"><rect x="4111" y="721" width="2983" height="1243"/></clipPath><clipPath id="clip77"><rect x="4111" y="721" width="2983" height="1243"/></clipPath><clipPath id="clip78"><rect x="4111" y="721" width="2983" height="1243"/></clipPath><clipPath id="clip79"><rect x="4111" y="721" width="2983" height="1243"/></clipPath><clipPath id="clip80"><rect x="4111" y="721" width="2983" height="1243"/></clipPath><clipPath id="clip81"><rect x="4111" y="721" width="2983" height="1243"/></clipPath><clipPath id="clip82"><rect x="4111" y="721" width="2983" height="1243"/></clipPath><clipPath id="clip83"><rect x="4111" y="721" width="2983" height="1243"/></clipPath><clipPath id="clip84"><rect x="4111" y="721" width="2983" height="1243"/></clipPath><clipPath id="clip85"><rect x="4111" y="721" width="2983" height="1243"/></clipPath><clipPath id="clip86"><rect x="4111" y="721" width="2983" height="1243"/></clipPath><clipPath id="clip87"><rect x="4111" y="721" width="2983" height="1243"/></clipPath><clipPath id="clip88"><rect x="3299" y="1684" width="2476" height="139"/></clipPath><clipPath id="clip89"><rect x="4111" y="721" width="2983" height="1243"/></clipPath><clipPath id="clip90"><rect x="3299" y="1684" width="2476" height="139"/></clipPath><clipPath id="clip91"><rect x="4111" y="721" width="2983" height="1243"/></clipPath><clipPath id="clip92"><rect x="3171" y="1546" width="2700" height="139"/></clipPath><clipPath id="clip93"><rect x="4111" y="721" width="2983" height="1243"/></clipPath><clipPath id="clip94"><rect x="3171" y="1546" width="2700" height="139"/></clipPath><clipPath id="clip95"><rect x="4111" y="721" width="2983" height="1243"/></clipPath><clipPath id="clip96"><rect x="2586" y="1408" width="3724" height="139"/></clipPath><clipPath id="clip97"><rect x="4111" y="721" width="2983" height="1243"/></clipPath><clipPath id="clip98"><rect x="2586" y="1408" width="3724" height="139"/></clipPath><clipPath id="clip99"><rect x="4111" y="721" width="2983" height="1243"/></clipPath><clipPath id="clip100"><rect x="2586" y="1408" width="3724" height="139"/></clipPath><clipPath id="clip101"><rect x="4111" y="721" width="2983" height="1243"/></clipPath><clipPath id="clip102"><rect x="2586" y="1408" width="3724" height="139"/></clipPath><clipPath id="clip103"><rect x="4111" y="721" width="2983" height="1243"/></clipPath><clipPath id="clip104"><rect x="3044" y="1270" width="2922" height="139"/></clipPath><clipPath id="clip105"><rect x="4111" y="721" width="2983" height="1243"/></clipPath><clipPath id="clip106"><rect x="3044" y="1270" width="2922" height="139"/></clipPath><clipPath id="clip107"><rect x="4111" y="721" width="2983" height="1243"/></clipPath><clipPath id="clip108"><rect x="3044" y="1270" width="2922" height="139"/></clipPath><clipPath id="clip109"><rect x="4111" y="721" width="2983" height="1243"/></clipPath><clipPath id="clip110"><rect x="3044" y="1270" width="2922" height="139"/></clipPath><clipPath id="clip111"><rect x="4111" y="721" width="2983" height="1243"/></clipPath><clipPath id="clip112"><rect x="3044" y="1131" width="2922" height="140"/></clipPath><clipPath id="clip113"><rect x="4111" y="721" width="2983" height="1243"/></clipPath><clipPath id="clip114"><rect x="3044" y="1131" width="2922" height="140"/></clipPath><clipPath id="clip115"><rect x="4111" y="721" width="2983" height="1243"/></clipPath><clipPath id="clip116"><rect x="3044" y="1131" width="2922" height="140"/></clipPath><clipPath id="clip117"><rect x="4111" y="721" width="2983" height="1243"/></clipPath><clipPath id="clip118"><rect x="3044" y="1131" width="2922" height="140"/></clipPath><clipPath id="clip119"><rect x="4111" y="721" width="2983" height="1243"/></clipPath><clipPath id="clip120"><rect x="3273" y="993" width="2521" height="139"/></clipPath><clipPath id="clip121"><rect x="4111" y="721" width="2983" height="1243"/></clipPath><clipPath id="clip122"><rect x="3273" y="993" width="2521" height="139"/></clipPath><clipPath id="clip123"><rect x="4111" y="721" width="2983" height="1243"/></clipPath><clipPath id="clip124"><rect x="4111" y="721" width="2983" height="1243"/></clipPath><clipPath id="clip125"><rect x="4111" y="721" width="2983" height="1243"/></clipPath><clipPath id="clip126"><rect x="4111" y="721" width="2983" height="1243"/></clipPath><clipPath id="clip127"><rect x="4111" y="721" width="2983" height="1243"/></clipPath><clipPath id="clip128"><rect x="4111" y="721" width="2983" height="1243"/></clipPath><clipPath id="clip129"><rect x="4111" y="721" width="2983" height="1243"/></clipPath><clipPath id="clip130"><rect x="4111" y="721" width="2983" height="1243"/></clipPath><clipPath id="clip131"><rect x="4111" y="721" width="2983" height="1243"/></clipPath><clipPath id="clip132"><rect x="4111" y="721" width="2983" height="1243"/></clipPath><clipPath id="clip133"><rect x="4111" y="721" width="2983" height="1243"/></clipPath><clipPath id="clip134"><rect x="4111" y="721" width="2983" height="1243"/></clipPath><clipPath id="clip135"><rect x="4111" y="721" width="2983" height="1243"/></clipPath><clipPath id="clip136"><rect x="4111" y="721" width="2983" height="1243"/></clipPath><clipPath id="clip137"><rect x="4111" y="721" width="2983" height="1243"/></clipPath><clipPath id="clip138"><rect x="4111" y="721" width="2983" height="1243"/></clipPath><clipPath id="clip139"><rect x="4111" y="721" width="2983" height="1243"/></clipPath><clipPath id="clip140"><rect x="4111" y="721" width="2983" height="1243"/></clipPath><clipPath id="clip141"><rect x="4111" y="721" width="2983" height="1243"/></clipPath><clipPath id="clip142"><rect x="4111" y="721" width="2983" height="1243"/></clipPath><clipPath id="clip143"><rect x="4111" y="721" width="2983" height="1243"/></clipPath><clipPath id="clip144"><rect x="4111" y="721" width="2983" height="1243"/></clipPath><clipPath id="clip145"><rect x="4111" y="721" width="2984" height="1244"/></clipPath><clipPath id="clip146"><rect x="-4579" y="726" width="20355" height="393"/></clipPath><clipPath id="clip147"><rect x="4111" y="721" width="2984" height="1244"/></clipPath><clipPath id="clip148"><rect x="-4579" y="726" width="20355" height="393"/></clipPath><clipPath id="clip149"><rect x="4111" y="721" width="2984" height="1244"/></clipPath><clipPath id="clip150"><rect x="-4579" y="726" width="20355" height="393"/></clipPath><clipPath id="clip151"><rect x="4111" y="721" width="2984" height="1244"/></clipPath><clipPath id="clip152"><rect x="-4579" y="726" width="20355" height="393"/></clipPath><clipPath id="clip153"><rect x="4111" y="721" width="2984" height="1244"/></clipPath><clipPath id="clip154"><rect x="-4579" y="726" width="20355" height="393"/></clipPath><clipPath id="clip155"><rect x="4111" y="721" width="2984" height="1244"/></clipPath><clipPath id="clip156"><rect x="4111" y="721" width="2984" height="1244"/></clipPath><clipPath id="clip157"><rect x="4111" y="721" width="2984" height="1244"/></clipPath><clipPath id="clip158"><rect x="4111" y="721" width="2984" height="1244"/></clipPath><clipPath id="clip159"><rect x="4111" y="721" width="2984" height="1244"/></clipPath><clipPath id="clip160"><rect x="4111" y="721" width="2984" height="1244"/></clipPath><clipPath id="clip161"><rect x="4111" y="721" width="2984" height="1244"/></clipPath><clipPath id="clip162"><rect x="4111" y="721" width="2984" height="1244"/></clipPath><clipPath id="clip163"><rect x="4111" y="721" width="2984" height="1244"/></clipPath><clipPath id="clip164"><rect x="4111" y="721" width="2984" height="1244"/></clipPath></defs><g clip-path="url(#clip0)" transform="translate(-4110 -720)"><rect x="4112" y="722" width="2983" height="1242" fill="#FFFFFF"/><g clip-path="url(#clip1)"><path d="M5183.67 997.5 5183.67 1826.5M5615.68 997.5 5615.68 1826.5M6047.7 997.5 6047.7 1826.5M6479.5 997.5 6479.5 1826.5" stroke="#D9D9D9" stroke-width="4.58333" stroke-linejoin="round" stroke-miterlimit="10" fill="none"/></g><g clip-path="url(#clip2)"><path d="M4790.5 1112.5 4751.5 1112.5 4751.5 1021.5 4790.5 1021.5Z" stroke="#000000" stroke-width="4.58333" stroke-linejoin="round" stroke-miterlimit="10" fill="#FFFFFF"/></g><g clip-path="url(#clip3)"><path d="M4806.66 1802.56 4751.5 1802.56 4751.5 1712.56 4806.66 1712.56ZM4766.66 1664.55 4751.5 1664.55 4751.5 1574.55 4766.66 1574.55ZM4804.66 1526.55 4751.5 1526.55 4751.5 1436.55 4804.66 1436.55ZM4831.66 1388.55 4751.5 1388.55 4751.5 1298.54 4831.66 1298.54ZM4783.66 1250.54 4751.5 1250.54 4751.5 1159.54 4783.66 1159.54Z" stroke="#000000" stroke-width="4.58333" stroke-linejoin="round" stroke-miterlimit="10" fill="#FFFFFF"/></g><g clip-path="url(#clip4)"><path d="M4821.5 1112.5 4790.5 1112.5 4790.5 1021.5 4821.5 1021.5Z" stroke="#000000" stroke-width="4.58333" stroke-linejoin="round" stroke-miterlimit="10" fill="#F1F8FD"/></g><g clip-path="url(#clip5)"><path d="M4862.66 1802.56 4806.66 1802.56 4806.66 1712.56 4862.66 1712.56ZM4787.66 1664.55 4766.66 1664.55 4766.66 1574.55 4787.66 1574.55ZM4820.66 1526.55 4804.66 1526.55 4804.66 1436.55 4820.66 1436.55ZM4866.66 1388.55 4831.66 1388.55 4831.66 1298.54 4866.66 1298.54ZM4866.66 1250.54 4783.66 1250.54 4783.66 1159.54 4866.66 1159.54Z" stroke="#000000" stroke-width="4.58333" stroke-linejoin="round" stroke-miterlimit="10" fill="#F1F8FD"/></g><g clip-path="url(#clip6)"><path d="M4819.66 1664.55 4787.66 1664.55 4787.66 1574.55 4819.66 1574.55ZM4854.66 1526.55 4820.66 1526.55 4820.66 1436.55 4854.66 1436.55ZM4947.66 1388.55 4866.66 1388.55 4866.66 1298.54 4947.66 1298.54ZM4924.66 1250.54 4866.66 1250.54 4866.66 1159.54 4924.66 1159.54ZM4865.66 1112.54 4821.66 1112.54 4821.66 1021.53 4865.66 1021.53Z" stroke="#000000" stroke-width="4.58333" stroke-linejoin="round" stroke-miterlimit="10" fill="#C2DDF6"/></g><g clip-path="url(#clip7)"><path d="M4865.66 1664.55 4819.66 1664.55 4819.66 1574.55 4865.66 1574.55ZM4969.66 1526.55 4854.66 1526.55 4854.66 1436.55 4969.66 1436.55ZM5097.67 1388.55 4947.66 1388.55 4947.66 1298.54 5097.67 1298.54ZM5040.67 1250.54 4924.66 1250.54 4924.66 1159.54 5040.67 1159.54ZM4955.66 1112.54 4865.66 1112.54 4865.66 1021.53 4955.66 1021.53Z" stroke="#000000" stroke-width="4.58333" stroke-linejoin="round" stroke-miterlimit="10" fill="#9CCBF2"/></g><g clip-path="url(#clip8)"><path d="M4973.66 1802.56 4862.66 1802.56 4862.66 1712.56 4973.66 1712.56ZM4922.66 1664.55 4865.66 1664.55 4865.66 1574.55 4922.66 1574.55ZM5077.67 1526.55 4969.66 1526.55 4969.66 1436.55 5077.67 1436.55ZM5219.67 1388.55 5097.67 1388.55 5097.67 1298.54 5219.67 1298.54ZM5136.67 1250.54 5040.67 1250.54 5040.67 1159.54 5136.67 1159.54ZM5042.67 1112.54 4955.66 1112.54 4955.66 1021.53 5042.67 1021.53Z" stroke="#000000" stroke-width="4.58333" stroke-linejoin="round" stroke-miterlimit="10" fill="#8AC1EE"/></g><g clip-path="url(#clip9)"><path d="M5252.67 1802.56 4973.66 1802.56 4973.66 1712.56 5252.67 1712.56ZM5080.67 1664.55 4922.66 1664.55 4922.66 1574.55 5080.67 1574.55ZM5223.67 1526.55 5077.67 1526.55 5077.67 1436.55 5223.67 1436.55ZM5329.67 1388.55 5219.67 1388.55 5219.67 1298.54 5329.67 1298.54ZM5367.68 1250.54 5136.67 1250.54 5136.67 1159.54 5367.68 1159.54ZM5202.67 1112.54 5042.67 1112.54 5042.67 1021.53 5202.67 1021.53Z" stroke="#000000" stroke-width="4.58333" stroke-linejoin="round" stroke-miterlimit="10" fill="#7DB7EB"/></g><g clip-path="url(#clip10)"><path d="M5475.68 1802.56 5252.67 1802.56 5252.67 1712.56 5475.68 1712.56ZM5265.67 1664.55 5080.67 1664.55 5080.67 1574.55 5265.67 1574.55ZM5396.68 1526.55 5223.67 1526.55 5223.67 1436.55 5396.68 1436.55ZM5537.68 1388.55 5329.67 1388.55 5329.67 1298.54 5537.68 1298.54ZM5644.69 1250.54 5367.68 1250.54 5367.68 1159.54 5644.69 1159.54ZM5403.68 1112.54 5202.67 1112.54 5202.67 1021.53 5403.68 1021.53Z" stroke="#095085" stroke-width="4.58333" stroke-linejoin="round" stroke-miterlimit="10" fill="#63A8E7"/></g><g clip-path="url(#clip11)"><path d="M5754.69 1802.56 5475.68 1802.56 5475.68 1712.56 5754.69 1712.56ZM5617.68 1664.55 5265.67 1664.55 5265.67 1574.55 5617.68 1574.55ZM5699.69 1526.55 5396.68 1526.55 5396.68 1436.55 5699.69 1436.55ZM5860.69 1388.55 5537.68 1388.55 5537.68 1298.54 5860.69 1298.54ZM5984.7 1250.54 5644.69 1250.54 5644.69 1159.54 5984.7 1159.54ZM5735.69 1112.54 5403.68 1112.54 5403.68 1021.53 5735.69 1021.53Z" stroke="#000000" stroke-width="4.58333" stroke-linejoin="round" stroke-miterlimit="10" fill="#499AE3"/></g><g clip-path="url(#clip12)"><path d="M5921.69 1802.56 5754.69 1802.56 5754.69 1712.56 5921.69 1712.56ZM6081.7 1664.55 5617.68 1664.55 5617.68 1574.55 6081.7 1574.55ZM6122.7 1526.55 5699.69 1526.55 5699.69 1436.55 6122.7 1436.55ZM6225.7 1388.55 5860.69 1388.55 5860.69 1298.54 6225.7 1298.54ZM6357.71 1250.54 5984.7 1250.54 5984.7 1159.54 6357.71 1159.54ZM6153.7 1112.54 5735.69 1112.54 5735.69 1021.53 6153.7 1021.53Z" stroke="#000000" stroke-width="4.58333" stroke-linejoin="round" stroke-miterlimit="10" fill="#2486E0"/></g><g clip-path="url(#clip13)"><path d="M6312.71 1802.56 5921.69 1802.56 5921.69 1712.56 6312.71 1712.56ZM6291.71 1664.55 6081.7 1664.55 6081.7 1574.55 6291.71 1574.55ZM6341.71 1526.55 6122.7 1526.55 6122.7 1436.55 6341.71 1436.55ZM6357.71 1388.55 6225.7 1388.55 6225.7 1298.54 6357.71 1298.54ZM6440.71 1250.54 6357.71 1250.54 6357.71 1159.54 6440.71 1159.54ZM6337.71 1112.54 6153.7 1112.54 6153.7 1021.53 6337.71 1021.53Z" stroke="#000000" stroke-width="4.58333" stroke-linejoin="round" stroke-miterlimit="10" fill="#1762A3"/></g><g clip-path="url(#clip14)"><path d="M6479.71 1802.56 6312.71 1802.56 6312.71 1712.56 6479.71 1712.56ZM6479.71 1664.55 6291.71 1664.55 6291.71 1574.55 6479.71 1574.55ZM6479.71 1526.55 6341.71 1526.55 6341.71 1436.55 6479.71 1436.55ZM6479.71 1388.55 6357.71 1388.55 6357.71 1298.54 6479.71 1298.54ZM6479.71 1250.54 6440.71 1250.54 6440.71 1159.54 6479.71 1159.54ZM6479.71 1112.54 6337.71 1112.54 6337.71 1021.53 6479.71 1021.53Z" stroke="#000000" stroke-width="4.58333" stroke-linejoin="round" stroke-miterlimit="10" fill="#095085"/></g><g clip-path="url(#clip15)"><path d="M0 0 0.000360892 829" stroke="#D9D9D9" stroke-width="3.4375" stroke-linejoin="round" stroke-miterlimit="10" fill="none" fill-rule="evenodd" transform="matrix(1 0 0 -1 4751.5 1826.5)"/></g><g clip-path="url(#clip16)"><text fill="#404040" font-family="Yu Gothic,Yu Gothic_MSFontService,sans-serif" font-weight="700" font-size="55" transform="matrix(1 0 0 1 4763.2 1777)">1</text></g><g clip-path="url(#clip17)"><text fill="#404040" font-family="Yu Gothic,Yu Gothic_MSFontService,sans-serif" font-weight="700" font-size="55" transform="matrix(1 0 0 1 4743.32 1638)">7</text></g><g clip-path="url(#clip18)"><text fill="#404040" font-family="Yu Gothic,Yu Gothic_MSFontService,sans-serif" font-weight="700" font-size="55" transform="matrix(1 0 0 1 4746.44 1500)">14</text></g><g clip-path="url(#clip19)"><text fill="#404040" font-family="Yu Gothic,Yu Gothic_MSFontService,sans-serif" font-weight="700" font-size="55" transform="matrix(1 0 0 1 4760.02 1362)">14</text></g><g clip-path="url(#clip20)"><text fill="#404040" font-family="Yu Gothic,Yu Gothic_MSFontService,sans-serif" font-weight="700" font-size="55" transform="matrix(1 0 0 1 4751.38 1224)">5</text></g><g clip-path="url(#clip21)"><text fill="#404040" font-family="Yu Gothic,Yu Gothic_MSFontService,sans-serif" font-weight="700" font-size="55" transform="matrix(1 0 0 1 4693.43 1015)">41</text></g><g clip-path="url(#clip22)"><text fill="#404040" font-family="Yu Gothic,Yu Gothic_MSFontService,sans-serif" font-weight="700" font-size="55" transform="matrix(1 0 0 1 4818.96 1777)">1</text></g><g clip-path="url(#clip23)"><text fill="#404040" font-family="Yu Gothic,Yu Gothic_MSFontService,sans-serif" font-weight="700" font-size="55" transform="matrix(1 0 0 1 4747.88 1574)">9</text></g><g clip-path="url(#clip24)"><text fill="#404040" font-family="Yu Gothic,Yu Gothic_MSFontService,sans-serif" font-weight="700" font-size="55" transform="matrix(1 0 0 1 4796.78 1434)">4</text></g><g clip-path="url(#clip25)"><text fill="#404040" font-family="Yu Gothic,Yu Gothic_MSFontService,sans-serif" font-weight="700" font-size="55" transform="matrix(1 0 0 1 4833.6 1362)">6</text></g><g clip-path="url(#clip26)"><text fill="#404040" font-family="Yu Gothic,Yu Gothic_MSFontService,sans-serif" font-weight="700" font-size="55" transform="matrix(1 0 0 1 4793.45 1224)">13</text></g><g clip-path="url(#clip27)"><text fill="#404040" font-family="Yu Gothic,Yu Gothic_MSFontService,sans-serif" font-weight="700" font-size="55" transform="matrix(1 0 0 1 4774.62 1015)">33</text></g><g clip-path="url(#clip28)"><path d="M4843.5 1021.5 4846.66 996.5 4867.5 996.5" stroke="#A6A6A6" stroke-width="3.4375" stroke-linejoin="round" stroke-miterlimit="10" fill="none"/></g><g clip-path="url(#clip29)"><text fill="#404040" font-family="Yu Gothic,Yu Gothic_MSFontService,sans-serif" font-weight="700" font-size="55" transform="matrix(1 0 0 1 4776.72 1572)">14</text></g><g clip-path="url(#clip30)"><text fill="#404040" font-family="Yu Gothic,Yu Gothic_MSFontService,sans-serif" font-weight="700" font-size="55" transform="matrix(1 0 0 1 4821.75 1500)">9</text></g><g clip-path="url(#clip31)"><text fill="#404040" font-family="Yu Gothic,Yu Gothic_MSFontService,sans-serif" font-weight="700" font-size="55" transform="matrix(1 0 0 1 4875.64 1362)">14</text></g><g clip-path="url(#clip32)"><text fill="#404040" font-family="Yu Gothic,Yu Gothic_MSFontService,sans-serif" font-weight="700" font-size="55" transform="matrix(1 0 0 1 4879.9 1224)">9</text></g><g clip-path="url(#clip33)"><text fill="#404040" font-family="Yu Gothic,Yu Gothic_MSFontService,sans-serif" font-weight="700" font-size="55" transform="matrix(1 0 0 1 4881.07 1015)">46</text></g><g clip-path="url(#clip34)"><path d="M4842.5 1574.5 4913.66 1553.5 4934.5 1553.5" stroke="#A6A6A6" stroke-width="3.4375" stroke-linejoin="round" stroke-miterlimit="10" fill="none"/></g><g clip-path="url(#clip35)"><text fill="#404040" font-family="Yu Gothic,Yu Gothic_MSFontService,sans-serif" font-weight="700" font-size="55" transform="matrix(1 0 0 1 4948.26 1572)">20</text></g><g clip-path="url(#clip36)"><text fill="#404040" font-family="Yu Gothic,Yu Gothic_MSFontService,sans-serif" font-weight="700" font-size="55" transform="matrix(1 0 0 1 4880.88 1500)">30</text></g><g clip-path="url(#clip37)"><text fill="#404040" font-family="Yu Gothic,Yu Gothic_MSFontService,sans-serif" font-weight="700" font-size="55" transform="matrix(1 0 0 1 4991.26 1362)">26</text></g><g clip-path="url(#clip38)"><text fill="#404040" font-family="Yu Gothic,Yu Gothic_MSFontService,sans-serif" font-weight="700" font-size="55" transform="matrix(1 0 0 1 4950.88 1224)">18</text></g><g clip-path="url(#clip39)"><text fill="#404040" font-family="Yu Gothic,Yu Gothic_MSFontService,sans-serif" font-weight="700" font-size="55" transform="matrix(1 0 0 1 4879.48 1086)">94</text></g><g clip-path="url(#clip40)"><text fill="#404040" font-family="Yu Gothic,Yu Gothic_MSFontService,sans-serif" font-weight="700" font-size="55" transform="matrix(1 0 0 1 4902.6 1777)">2</text></g><g clip-path="url(#clip41)"><text fill="#404040" font-family="Yu Gothic,Yu Gothic_MSFontService,sans-serif" font-weight="700" font-size="55" transform="matrix(1 0 0 1 4862.45 1638)">25</text></g><g clip-path="url(#clip42)"><text fill="#404040" font-family="Yu Gothic,Yu Gothic_MSFontService,sans-serif" font-weight="700" font-size="55" transform="matrix(1 0 0 1 4992.27 1500)">28</text></g><g clip-path="url(#clip43)"><text fill="#404040" font-family="Yu Gothic,Yu Gothic_MSFontService,sans-serif" font-weight="700" font-size="55" transform="matrix(1 0 0 1 5127.11 1362)">21</text></g><g clip-path="url(#clip44)"><text fill="#404040" font-family="Yu Gothic,Yu Gothic_MSFontService,sans-serif" font-weight="700" font-size="55" transform="matrix(1 0 0 1 5056.9 1224)">15</text></g><g clip-path="url(#clip45)"><text fill="#404040" font-family="Yu Gothic,Yu Gothic_MSFontService,sans-serif" font-weight="700" font-size="55" transform="matrix(1 0 0 1 4968.06 1086)">91</text></g><g clip-path="url(#clip46)"><text fill="#404040" font-family="Yu Gothic,Yu Gothic_MSFontService,sans-serif" font-weight="700" font-size="55" transform="matrix(1 0 0 1 5097.75 1777)">5</text></g><g clip-path="url(#clip47)"><text fill="#404040" font-family="Yu Gothic,Yu Gothic_MSFontService,sans-serif" font-weight="700" font-size="55" transform="matrix(1 0 0 1 4969.91 1638)">69</text></g><g clip-path="url(#clip48)"><text fill="#404040" font-family="Yu Gothic,Yu Gothic_MSFontService,sans-serif" font-weight="700" font-size="55" transform="matrix(1 0 0 1 5119.03 1500)">38</text></g><g clip-path="url(#clip49)"><text fill="#404040" font-family="Yu Gothic,Yu Gothic_MSFontService,sans-serif" font-weight="700" font-size="55" transform="matrix(1 0 0 1 5242.73 1362)">19</text></g><g clip-path="url(#clip50)"><text fill="#404040" font-family="Yu Gothic,Yu Gothic_MSFontService,sans-serif" font-weight="700" font-size="55" transform="matrix(1 0 0 1 5220.76 1224)">36</text></g><g clip-path="url(#clip51)"><text fill="#404040" font-family="Yu Gothic,Yu Gothic_MSFontService,sans-serif" font-weight="700" font-size="55" transform="matrix(1 0 0 1 5075.82 1086)">167</text></g><g clip-path="url(#clip52)"><text fill="#404040" font-family="Yu Gothic,Yu Gothic_MSFontService,sans-serif" font-weight="700" font-size="55" transform="matrix(1 0 0 1 5348.66 1777)">4</text></g><g clip-path="url(#clip53)"><text fill="#404040" font-family="Yu Gothic,Yu Gothic_MSFontService,sans-serif" font-weight="700" font-size="55" transform="matrix(1 0 0 1 5141.39 1638)">81</text></g><g clip-path="url(#clip54)"><text fill="#404040" font-family="Yu Gothic,Yu Gothic_MSFontService,sans-serif" font-weight="700" font-size="55" transform="matrix(1 0 0 1 5278.44 1500)">45</text></g><g clip-path="url(#clip55)"><text fill="#404040" font-family="Yu Gothic,Yu Gothic_MSFontService,sans-serif" font-weight="700" font-size="55" transform="matrix(1 0 0 1 5401.71 1362)">36</text></g><g clip-path="url(#clip56)"><text fill="#404040" font-family="Yu Gothic,Yu Gothic_MSFontService,sans-serif" font-weight="700" font-size="55" transform="matrix(1 0 0 1 5474.57 1224)">43</text></g><g clip-path="url(#clip57)"><text fill="#404040" font-family="Yu Gothic,Yu Gothic_MSFontService,sans-serif" font-weight="700" font-size="55" transform="matrix(1 0 0 1 5255.86 1086)">209</text></g><g clip-path="url(#clip58)"><text fill="#404040" font-family="Yu Gothic,Yu Gothic_MSFontService,sans-serif" font-weight="700" font-size="55" transform="matrix(1 0 0 1 5599.58 1777)">5</text></g><g clip-path="url(#clip59)"><text fill="#404040" font-family="Yu Gothic,Yu Gothic_MSFontService,sans-serif" font-weight="700" font-size="55" transform="matrix(1 0 0 1 5394.28 1638)">154</text></g><g clip-path="url(#clip60)"><text fill="#404040" font-family="Yu Gothic,Yu Gothic_MSFontService,sans-serif" font-weight="700" font-size="55" transform="matrix(1 0 0 1 5516.59 1500)">79</text></g><g clip-path="url(#clip61)"><text fill="#404040" font-family="Yu Gothic,Yu Gothic_MSFontService,sans-serif" font-weight="700" font-size="55" transform="matrix(1 0 0 1 5667.64 1362)">56</text></g><g clip-path="url(#clip62)"><text fill="#404040" font-family="Yu Gothic,Yu Gothic_MSFontService,sans-serif" font-weight="700" font-size="55" transform="matrix(1 0 0 1 5783.01 1224)">53</text></g><g clip-path="url(#clip63)"><text fill="#404040" font-family="Yu Gothic,Yu Gothic_MSFontService,sans-serif" font-weight="700" font-size="55" transform="matrix(1 0 0 1 5522.08 1086)">347</text></g><g clip-path="url(#clip64)"><text fill="#FFFFFF" font-family="Yu Gothic,Yu Gothic_MSFontService,sans-serif" font-weight="700" font-size="55" transform="matrix(1 0 0 1 5822.61 1777)">3</text></g><g clip-path="url(#clip65)"><text fill="#FFFFFF" font-family="Yu Gothic,Yu Gothic_MSFontService,sans-serif" font-weight="700" font-size="55" transform="matrix(1 0 0 1 5802.4 1638)">203</text></g><g clip-path="url(#clip66)"><text fill="#FFFFFF" font-family="Yu Gothic,Yu Gothic_MSFontService,sans-serif" font-weight="700" font-size="55" transform="matrix(1 0 0 1 5863.81 1500)">110</text></g><g clip-path="url(#clip67)"><text fill="#FFFFFF" font-family="Yu Gothic,Yu Gothic_MSFontService,sans-serif" font-weight="700" font-size="55" transform="matrix(1 0 0 1 6011.61 1362)">63</text></g><g clip-path="url(#clip68)"><text fill="#FFFFFF" font-family="Yu Gothic,Yu Gothic_MSFontService,sans-serif" font-weight="700" font-size="55" transform="matrix(1 0 0 1 6139.64 1224)">58</text></g><g clip-path="url(#clip69)"><text fill="#FFFFFF" font-family="Yu Gothic,Yu Gothic_MSFontService,sans-serif" font-weight="700" font-size="55" transform="matrix(1 0 0 1 5897.47 1086)">437</text></g><g clip-path="url(#clip70)"><text fill="#FFFFFF" font-family="Yu Gothic,Yu Gothic_MSFontService,sans-serif" font-weight="700" font-size="50" transform="matrix(1 0 0 1 6102.72 1775)">7</text></g><g clip-path="url(#clip71)"><text fill="#FFFFFF" font-family="Yu Gothic,Yu Gothic_MSFontService,sans-serif" font-weight="700" font-size="50" transform="matrix(1 0 0 1 6158.05 1637)">92</text></g><g clip-path="url(#clip72)"><text fill="#FFFFFF" font-family="Yu Gothic,Yu Gothic_MSFontService,sans-serif" font-weight="700" font-size="50" transform="matrix(1 0 0 1 6202.95 1499)">57</text></g><g clip-path="url(#clip73)"><text fill="#FFFFFF" font-family="Yu Gothic,Yu Gothic_MSFontService,sans-serif" font-weight="700" font-size="50" transform="matrix(1 0 0 1 6262.82 1361)">23</text></g><g clip-path="url(#clip74)"><text fill="#FFFFFF" font-family="Yu Gothic,Yu Gothic_MSFontService,sans-serif" font-weight="700" font-size="50" transform="matrix(1 0 0 1 6370.38 1223)">13</text></g><g clip-path="url(#clip75)"><text fill="#FFFFFF" font-family="Yu Gothic,Yu Gothic_MSFontService,sans-serif" font-weight="700" font-size="50" transform="matrix(1 0 0 1 6202.6 1085)">192</text></g><g clip-path="url(#clip76)"><text fill="#FFFFFF" font-family="Yu Gothic,Yu Gothic_MSFontService,sans-serif" font-weight="700" font-size="55" transform="matrix(1 0 0 1 6380.2 1777)">3</text></g><g clip-path="url(#clip77)"><text fill="#FFFFFF" font-family="Yu Gothic,Yu Gothic_MSFontService,sans-serif" font-weight="700" font-size="55" transform="matrix(1 0 0 1 6354.33 1638)">82</text></g><g clip-path="url(#clip78)"><text fill="#FFFFFF" font-family="Yu Gothic,Yu Gothic_MSFontService,sans-serif" font-weight="700" font-size="55" transform="matrix(1 0 0 1 6378.93 1500)">36</text></g><g clip-path="url(#clip79)"><text fill="#FFFFFF" font-family="Yu Gothic,Yu Gothic_MSFontService,sans-serif" font-weight="700" font-size="55" transform="matrix(1 0 0 1 6387.37 1362)">21</text></g><g clip-path="url(#clip80)"><text fill="#FFFFFF" font-family="Yu Gothic,Yu Gothic_MSFontService,sans-serif" font-weight="700" font-size="55" transform="matrix(1 0 0 1 6444.56 1224)">6</text></g><g clip-path="url(#clip81)"><text fill="#FFFFFF" font-family="Yu Gothic,Yu Gothic_MSFontService,sans-serif" font-weight="700" font-size="55" transform="matrix(1 0 0 1 6361.44 1086)">148</text></g><g clip-path="url(#clip82)"><text fill="#595959" font-family="Yu Gothic,Yu Gothic_MSFontService,sans-serif" font-weight="500" font-size="60" transform="matrix(1 0 0 1 4710.59 1925)">0%</text></g><g clip-path="url(#clip83)"><text fill="#595959" font-family="Yu Gothic,Yu Gothic_MSFontService,sans-serif" font-weight="500" font-size="60" transform="matrix(1 0 0 1 5126.19 1925)">25%</text></g><g clip-path="url(#clip84)"><text fill="#595959" font-family="Yu Gothic,Yu Gothic_MSFontService,sans-serif" font-weight="500" font-size="60" transform="matrix(1 0 0 1 5558.32 1925)">50%</text></g><g clip-path="url(#clip85)"><text fill="#595959" font-family="Yu Gothic,Yu Gothic_MSFontService,sans-serif" font-weight="500" font-size="60" transform="matrix(1 0 0 1 5990.45 1925)">75%</text></g><g clip-path="url(#clip86)"><text fill="#595959" font-family="Yu Gothic,Yu Gothic_MSFontService,sans-serif" font-weight="500" font-size="60" transform="matrix(1 0 0 1 6406.04 1925)">100%</text></g><g clip-path="url(#clip87)"><g clip-path="url(#clip88)"><text fill="#595959" font-family="Yu Gothic,Yu Gothic_MSFontService,sans-serif" font-weight="500" font-size="57" transform="matrix(1 0 0 1 4360.11 1774)">その他</text></g></g><g clip-path="url(#clip89)"><g clip-path="url(#clip90)"><text fill="#595959" font-family="Yu Gothic,Yu Gothic_MSFontService,sans-serif" font-weight="500" font-size="57" transform="matrix(1 0 0 1 4531.98 1774)">(n=21)</text></g></g><g clip-path="url(#clip91)"><g clip-path="url(#clip92)"><text fill="#595959" font-family="Yu Gothic,Yu Gothic_MSFontService,sans-serif" font-weight="500" font-size="57" transform="matrix(1 0 0 1 4328.3 1635)">大学院</text></g></g><g clip-path="url(#clip93)"><g clip-path="url(#clip94)"><text fill="#595959" font-family="Yu Gothic,Yu Gothic_MSFontService,sans-serif" font-weight="500" font-size="57" transform="matrix(1 0 0 1 4500.18 1635)">(n=582)</text></g></g><g clip-path="url(#clip95)"><g clip-path="url(#clip96)"><text fill="#595959" font-family="Yu Gothic,Yu Gothic_MSFontService,sans-serif" font-weight="500" font-size="57" transform="matrix(1 0 0 1 4181.91 1497)">学部</text></g></g><g clip-path="url(#clip97)"><g clip-path="url(#clip98)"><text fill="#595959" font-family="Yu Gothic,Yu Gothic_MSFontService,sans-serif" font-weight="500" font-size="57" transform="matrix(1 0 0 1 4296.49 1497)">3</text></g></g><g clip-path="url(#clip99)"><g clip-path="url(#clip100)"><text fill="#595959" font-family="Yu Gothic,Yu Gothic_MSFontService,sans-serif" font-weight="500" font-size="57" transform="matrix(1 0 0 1 4328.3 1497)">年以上</text></g></g><g clip-path="url(#clip101)"><g clip-path="url(#clip102)"><text fill="#595959" font-family="Yu Gothic,Yu Gothic_MSFontService,sans-serif" font-weight="500" font-size="57" transform="matrix(1 0 0 1 4500.18 1497)">(n=357)</text></g></g><g clip-path="url(#clip103)"><g clip-path="url(#clip104)"><text fill="#595959" font-family="Yu Gothic,Yu Gothic_MSFontService,sans-serif" font-weight="500" font-size="57" transform="matrix(1 0 0 1 4296.49 1359)">学部</text></g></g><g clip-path="url(#clip105)"><g clip-path="url(#clip106)"><text fill="#595959" font-family="Yu Gothic,Yu Gothic_MSFontService,sans-serif" font-weight="500" font-size="57" transform="matrix(1 0 0 1 4411.08 1359)">2</text></g></g><g clip-path="url(#clip107)"><g clip-path="url(#clip108)"><text fill="#595959" font-family="Yu Gothic,Yu Gothic_MSFontService,sans-serif" font-weight="500" font-size="57" transform="matrix(1 0 0 1 4442.88 1359)">年</text></g></g><g clip-path="url(#clip109)"><g clip-path="url(#clip110)"><text fill="#595959" font-family="Yu Gothic,Yu Gothic_MSFontService,sans-serif" font-weight="500" font-size="57" transform="matrix(1 0 0 1 4500.18 1359)">(n=255)</text></g></g><g clip-path="url(#clip111)"><g clip-path="url(#clip112)"><text fill="#595959" font-family="Yu Gothic,Yu Gothic_MSFontService,sans-serif" font-weight="500" font-size="57" transform="matrix(1 0 0 1 4296.49 1221)">学部</text></g></g><g clip-path="url(#clip113)"><g clip-path="url(#clip114)"><text fill="#595959" font-family="Yu Gothic,Yu Gothic_MSFontService,sans-serif" font-weight="500" font-size="57" transform="matrix(1 0 0 1 4411.08 1221)">1</text></g></g><g clip-path="url(#clip115)"><g clip-path="url(#clip116)"><text fill="#595959" font-family="Yu Gothic,Yu Gothic_MSFontService,sans-serif" font-weight="500" font-size="57" transform="matrix(1 0 0 1 4442.88 1221)">年</text></g></g><g clip-path="url(#clip117)"><g clip-path="url(#clip118)"><text fill="#595959" font-family="Yu Gothic,Yu Gothic_MSFontService,sans-serif" font-weight="500" font-size="57" transform="matrix(1 0 0 1 4500.18 1221)">(n=250)</text></g></g><g clip-path="url(#clip119)"><g clip-path="url(#clip120)"><text fill="#595959" font-family="Yu Gothic,Yu Gothic_MSFontService,sans-serif" font-weight="500" font-size="57" transform="matrix(1 0 0 1 4353.78 1083)">全体</text></g></g><g clip-path="url(#clip121)"><g clip-path="url(#clip122)"><text fill="#595959" font-family="Yu Gothic,Yu Gothic_MSFontService,sans-serif" font-weight="500" font-size="57" transform="matrix(1 0 0 1 4468.37 1083)">(n=1465)</text></g></g><g clip-path="url(#clip123)"><rect x="6756.5" y="1095.5" width="38" height="37.0001" stroke="#000000" stroke-width="4.58333" stroke-linejoin="round" stroke-miterlimit="10" fill="#FFFFFF"/></g><g clip-path="url(#clip124)"><text fill="#595959" font-family="Yu Gothic,Yu Gothic_MSFontService,sans-serif" font-weight="500" font-size="64" transform="matrix(1 0 0 1 6810.88 1132)">0</text></g><g clip-path="url(#clip125)"><rect x="6933.5" y="1095.5" width="37" height="37.0001" stroke="#000000" stroke-width="4.58333" stroke-linejoin="round" stroke-miterlimit="10" fill="#F1F8FD"/></g><g clip-path="url(#clip126)"><text fill="#595959" font-family="Yu Gothic,Yu Gothic_MSFontService,sans-serif" font-weight="500" font-size="64" transform="matrix(1 0 0 1 6987.68 1132)">1</text></g><g clip-path="url(#clip127)"><rect x="6756.5" y="1212.5" width="38" height="37.0001" stroke="#000000" stroke-width="4.58333" stroke-linejoin="round" stroke-miterlimit="10" fill="#C2DDF6"/></g><g clip-path="url(#clip128)"><text fill="#595959" font-family="Yu Gothic,Yu Gothic_MSFontService,sans-serif" font-weight="500" font-size="64" transform="matrix(1 0 0 1 6810.88 1249)">2</text></g><g clip-path="url(#clip129)"><rect x="6933.5" y="1212.5" width="37" height="37.0001" stroke="#000000" stroke-width="4.58333" stroke-linejoin="round" stroke-miterlimit="10" fill="#9CCBF2"/></g><g clip-path="url(#clip130)"><text fill="#595959" font-family="Yu Gothic,Yu Gothic_MSFontService,sans-serif" font-weight="500" font-size="64" transform="matrix(1 0 0 1 6987.68 1249)">3</text></g><g clip-path="url(#clip131)"><rect x="6756.5" y="1329.5" width="38" height="37.9998" stroke="#000000" stroke-width="4.58333" stroke-linejoin="round" stroke-miterlimit="10" fill="#8AC1EE"/></g><g clip-path="url(#clip132)"><text fill="#595959" font-family="Yu Gothic,Yu Gothic_MSFontService,sans-serif" font-weight="500" font-size="64" transform="matrix(1 0 0 1 6810.88 1367)">4</text></g><g clip-path="url(#clip133)"><rect x="6933.5" y="1329.5" width="37" height="37.9998" stroke="#000000" stroke-width="4.58333" stroke-linejoin="round" stroke-miterlimit="10" fill="#7DB7EB"/></g><g clip-path="url(#clip134)"><text fill="#595959" font-family="Yu Gothic,Yu Gothic_MSFontService,sans-serif" font-weight="500" font-size="64" transform="matrix(1 0 0 1 6987.68 1367)">5</text></g><g clip-path="url(#clip135)"><rect x="6756.5" y="1446.5" width="38" height="38.0001" stroke="#095085" stroke-width="4.58333" stroke-linejoin="round" stroke-miterlimit="10" fill="#63A8E7"/></g><g clip-path="url(#clip136)"><text fill="#595959" font-family="Yu Gothic,Yu Gothic_MSFontService,sans-serif" font-weight="500" font-size="64" transform="matrix(1 0 0 1 6810.88 1484)">6</text></g><g clip-path="url(#clip137)"><rect x="6933.5" y="1446.5" width="37" height="38.0001" stroke="#000000" stroke-width="4.58333" stroke-linejoin="round" stroke-miterlimit="10" fill="#499AE3"/></g><g clip-path="url(#clip138)"><text fill="#595959" font-family="Yu Gothic,Yu Gothic_MSFontService,sans-serif" font-weight="500" font-size="64" transform="matrix(1 0 0 1 6987.68 1484)">7</text></g><g clip-path="url(#clip139)"><rect x="6756.5" y="1564.5" width="38" height="37.0001" stroke="#000000" stroke-width="4.58333" stroke-linejoin="round" stroke-miterlimit="10" fill="#2486E0"/></g><g clip-path="url(#clip140)"><text fill="#595959" font-family="Yu Gothic,Yu Gothic_MSFontService,sans-serif" font-weight="500" font-size="64" transform="matrix(1 0 0 1 6810.88 1601)">8</text></g><g clip-path="url(#clip141)"><rect x="6933.5" y="1564.5" width="37" height="37.0001" stroke="#000000" stroke-width="4.58333" stroke-linejoin="round" stroke-miterlimit="10" fill="#1762A3"/></g><g clip-path="url(#clip142)"><text fill="#595959" font-family="Yu Gothic,Yu Gothic_MSFontService,sans-serif" font-weight="500" font-size="64" transform="matrix(1 0 0 1 6987.68 1601)">9</text></g><g clip-path="url(#clip143)"><rect x="6756.5" y="1681.5" width="38" height="36.9998" stroke="#000000" stroke-width="4.58333" stroke-linejoin="round" stroke-miterlimit="10" fill="#095085"/></g><g clip-path="url(#clip144)"><text fill="#595959" font-family="Yu Gothic,Yu Gothic_MSFontService,sans-serif" font-weight="500" font-size="64" transform="matrix(1 0 0 1 6810.88 1718)">10</text></g><rect x="4112.5" y="722.5" width="2983" height="1242" stroke="#000000" stroke-width="4.58333" stroke-linejoin="round" stroke-miterlimit="10" fill="none"/><g clip-path="url(#clip145)"><g clip-path="url(#clip146)"><text font-family="Yu Gothic,Yu Gothic_MSFontService,sans-serif" font-weight="500" font-size="73" transform="matrix(1 0 0 1 4144.82 830)">【授業に対する評価】</text></g></g><g clip-path="url(#clip147)"><g clip-path="url(#clip148)"><text font-family="Yu Gothic,Yu Gothic_MSFontService,sans-serif" font-weight="500" font-size="73" transform="matrix(1 0 0 1 4878.15 830)">2020</text></g></g><g clip-path="url(#clip149)"><g clip-path="url(#clip150)"><text font-family="Yu Gothic,Yu Gothic_MSFontService,sans-serif" font-weight="500" font-size="73" transform="matrix(1 0 0 1 5041.04 830)">年度の</text></g></g><g clip-path="url(#clip151)"><g clip-path="url(#clip152)"><text font-family="Yu Gothic,Yu Gothic_MSFontService,sans-serif" font-weight="500" font-size="73" transform="matrix(1 0 0 1 5261.04 830)">A</text></g></g><g clip-path="url(#clip153)"><g clip-path="url(#clip154)"><text font-family="Yu Gothic,Yu Gothic_MSFontService,sans-serif" font-weight="500" font-size="73" transform="matrix(1 0 0 1 5308.71 830)">セメスターでは，オンライン方式以外の授業も行わ</text></g></g><g clip-path="url(#clip155)"><text font-family="Yu Gothic,Yu Gothic_MSFontService,sans-serif" font-weight="500" font-size="73" transform="matrix(1 0 0 1 4144.82 953)">れましたが，</text></g><g clip-path="url(#clip156)"><text font-family="Yu Gothic,Yu Gothic_MSFontService,sans-serif" font-weight="500" font-size="73" transform="matrix(1 0 0 1 4584.82 953)">A</text></g><g clip-path="url(#clip157)"><text font-family="Yu Gothic,Yu Gothic_MSFontService,sans-serif" font-weight="500" font-size="73" transform="matrix(1 0 0 1 4632.48 953)">セメスターの授業全体に対するあなたの総合的な評価を教えてください．</text></g><g clip-path="url(#clip158)"><text font-family="Yu Gothic,Yu Gothic_MSFontService,sans-serif" font-weight="700" font-size="50" transform="matrix(1 0 0 1 6540.57 1010)">平均点</text></g><g clip-path="url(#clip159)"><text font-family="Calibri,Calibri_MSFontService,sans-serif" font-weight="400" font-size="73" transform="matrix(1 0 0 1 6565.86 1100)">6.6</text></g><g clip-path="url(#clip160)"><text font-family="Calibri,Calibri_MSFontService,sans-serif" font-weight="400" font-size="73" transform="matrix(1 0 0 1 6565.86 1238)">5.9</text></g><g clip-path="url(#clip161)"><text font-family="Calibri,Calibri_MSFontService,sans-serif" font-weight="400" font-size="73" transform="matrix(1 0 0 1 6565.86 1377)">6.1</text></g><g clip-path="url(#clip162)"><text font-family="Calibri,Calibri_MSFontService,sans-serif" font-weight="400" font-size="73" transform="matrix(1 0 0 1 6571.74 1515)">6.6</text></g><g clip-path="url(#clip163)"><text font-family="Calibri,Calibri_MSFontService,sans-serif" font-weight="400" font-size="73" transform="matrix(1 0 0 1 6577.62 1653)">7.1</text></g><g clip-path="url(#clip164)"><text font-family="Calibri,Calibri_MSFontService,sans-serif" font-weight="400" font-size="73" transform="matrix(1 0 0 1 6578.6 1792)">6.8</text></g></g></svg>