<svg width="2993" height="1289" xmlns="http://www.w3.org/2000/svg" xmlns:xlink="http://www.w3.org/1999/xlink" overflow="hidden"><defs><clipPath id="clip0"><rect x="3573" y="1003" width="2993" height="1289"/></clipPath><clipPath id="clip1"><rect x="3574" y="1005" width="2988" height="1283"/></clipPath><clipPath id="clip2"><rect x="4214" y="1291" width="1800" height="859"/></clipPath><clipPath id="clip3"><rect x="4214" y="1291" width="1800" height="859"/></clipPath><clipPath id="clip4"><rect x="4214" y="1291" width="1800" height="859"/></clipPath><clipPath id="clip5"><rect x="4214" y="1291" width="1800" height="859"/></clipPath><clipPath id="clip6"><rect x="4214" y="1291" width="1800" height="859"/></clipPath><clipPath id="clip7"><rect x="4214" y="1291" width="1800" height="859"/></clipPath><clipPath id="clip8"><rect x="4214" y="1291" width="1800" height="859"/></clipPath><clipPath id="clip9"><rect x="3574" y="1005" width="2988" height="1283"/></clipPath><clipPath id="clip10"><rect x="3574" y="1005" width="2988" height="1283"/></clipPath><clipPath id="clip11"><rect x="3574" y="1005" width="2988" height="1283"/></clipPath><clipPath id="clip12"><rect x="3574" y="1005" width="2988" height="1283"/></clipPath><clipPath id="clip13"><rect x="3574" y="1005" width="2988" height="1283"/></clipPath><clipPath id="clip14"><rect x="3574" y="1005" width="2988" height="1283"/></clipPath><clipPath id="clip15"><rect x="3574" y="1005" width="2988" height="1283"/></clipPath><clipPath id="clip16"><rect x="3574" y="1005" width="2988" height="1283"/></clipPath><clipPath id="clip17"><rect x="3574" y="1005" width="2988" height="1283"/></clipPath><clipPath id="clip18"><rect x="3574" y="1005" width="2988" height="1283"/></clipPath><clipPath id="clip19"><rect x="3574" y="1005" width="2988" height="1283"/></clipPath><clipPath id="clip20"><rect x="3574" y="1005" width="2988" height="1283"/></clipPath><clipPath id="clip21"><rect x="3574" y="1005" width="2988" height="1283"/></clipPath><clipPath id="clip22"><rect x="3574" y="1005" width="2988" height="1283"/></clipPath><clipPath id="clip23"><rect x="3574" y="1005" width="2988" height="1283"/></clipPath><clipPath id="clip24"><rect x="3574" y="1005" width="2988" height="1283"/></clipPath><clipPath id="clip25"><rect x="3574" y="1005" width="2988" height="1283"/></clipPath><clipPath id="clip26"><rect x="3574" y="1005" width="2988" height="1283"/></clipPath><clipPath id="clip27"><rect x="3574" y="1005" width="2988" height="1283"/></clipPath><clipPath id="clip28"><rect x="3574" y="1005" width="2988" height="1283"/></clipPath><clipPath id="clip29"><rect x="3574" y="1005" width="2988" height="1283"/></clipPath><clipPath id="clip30"><rect x="3574" y="1005" width="2988" height="1283"/></clipPath><clipPath id="clip31"><rect x="3574" y="1005" width="2988" height="1283"/></clipPath><clipPath id="clip32"><rect x="3574" y="1005" width="2988" height="1283"/></clipPath><clipPath id="clip33"><rect x="3574" y="1005" width="2988" height="1283"/></clipPath><clipPath id="clip34"><rect x="3574" y="1005" width="2988" height="1283"/></clipPath><clipPath id="clip35"><rect x="3574" y="1005" width="2988" height="1283"/></clipPath><clipPath id="clip36"><rect x="3574" y="1005" width="2988" height="1283"/></clipPath><clipPath id="clip37"><rect x="3574" y="1005" width="2988" height="1283"/></clipPath><clipPath id="clip38"><rect x="3574" y="1005" width="2988" height="1283"/></clipPath><clipPath id="clip39"><rect x="3574" y="1005" width="2988" height="1283"/></clipPath><clipPath id="clip40"><rect x="3574" y="1005" width="2988" height="1283"/></clipPath><clipPath id="clip41"><rect x="3574" y="1005" width="2988" height="1283"/></clipPath><clipPath id="clip42"><rect x="3574" y="1005" width="2988" height="1283"/></clipPath><clipPath id="clip43"><rect x="3574" y="1005" width="2988" height="1283"/></clipPath><clipPath id="clip44"><rect x="3574" y="1005" width="2988" height="1283"/></clipPath><clipPath id="clip45"><rect x="3574" y="1005" width="2988" height="1283"/></clipPath><clipPath id="clip46"><rect x="2763" y="2000" width="2476" height="143"/></clipPath><clipPath id="clip47"><rect x="3574" y="1005" width="2988" height="1283"/></clipPath><clipPath id="clip48"><rect x="2763" y="2000" width="2476" height="143"/></clipPath><clipPath id="clip49"><rect x="3574" y="1005" width="2988" height="1283"/></clipPath><clipPath id="clip50"><rect x="2635" y="1857" width="2699" height="144"/></clipPath><clipPath id="clip51"><rect x="3574" y="1005" width="2988" height="1283"/></clipPath><clipPath id="clip52"><rect x="2635" y="1857" width="2699" height="144"/></clipPath><clipPath id="clip53"><rect x="3574" y="1005" width="2988" height="1283"/></clipPath><clipPath id="clip54"><rect x="2050" y="1714" width="3724" height="144"/></clipPath><clipPath id="clip55"><rect x="3574" y="1005" width="2988" height="1283"/></clipPath><clipPath id="clip56"><rect x="2050" y="1714" width="3724" height="144"/></clipPath><clipPath id="clip57"><rect x="3574" y="1005" width="2988" height="1283"/></clipPath><clipPath id="clip58"><rect x="2050" y="1714" width="3724" height="144"/></clipPath><clipPath id="clip59"><rect x="3574" y="1005" width="2988" height="1283"/></clipPath><clipPath id="clip60"><rect x="2050" y="1714" width="3724" height="144"/></clipPath><clipPath id="clip61"><rect x="3574" y="1005" width="2988" height="1283"/></clipPath><clipPath id="clip62"><rect x="2508" y="1572" width="2922" height="143"/></clipPath><clipPath id="clip63"><rect x="3574" y="1005" width="2988" height="1283"/></clipPath><clipPath id="clip64"><rect x="2508" y="1572" width="2922" height="143"/></clipPath><clipPath id="clip65"><rect x="3574" y="1005" width="2988" height="1283"/></clipPath><clipPath id="clip66"><rect x="2508" y="1572" width="2922" height="143"/></clipPath><clipPath id="clip67"><rect x="3574" y="1005" width="2988" height="1283"/></clipPath><clipPath id="clip68"><rect x="2508" y="1572" width="2922" height="143"/></clipPath><clipPath id="clip69"><rect x="3574" y="1005" width="2988" height="1283"/></clipPath><clipPath id="clip70"><rect x="2508" y="1429" width="2922" height="144"/></clipPath><clipPath id="clip71"><rect x="3574" y="1005" width="2988" height="1283"/></clipPath><clipPath id="clip72"><rect x="2508" y="1429" width="2922" height="144"/></clipPath><clipPath id="clip73"><rect x="3574" y="1005" width="2988" height="1283"/></clipPath><clipPath id="clip74"><rect x="2508" y="1429" width="2922" height="144"/></clipPath><clipPath id="clip75"><rect x="3574" y="1005" width="2988" height="1283"/></clipPath><clipPath id="clip76"><rect x="2508" y="1429" width="2922" height="144"/></clipPath><clipPath id="clip77"><rect x="3574" y="1005" width="2988" height="1283"/></clipPath><clipPath id="clip78"><rect x="2737" y="1287" width="2521" height="143"/></clipPath><clipPath id="clip79"><rect x="3574" y="1005" width="2988" height="1283"/></clipPath><clipPath id="clip80"><rect x="2737" y="1287" width="2521" height="143"/></clipPath><clipPath id="clip81"><rect x="3574" y="1005" width="2988" height="1283"/></clipPath><clipPath id="clip82"><rect x="3574" y="1005" width="2988" height="1283"/></clipPath><clipPath id="clip83"><rect x="3574" y="1005" width="2988" height="1283"/></clipPath><clipPath id="clip84"><rect x="3574" y="1005" width="2988" height="1283"/></clipPath><clipPath id="clip85"><rect x="3574" y="1005" width="2988" height="1283"/></clipPath><clipPath id="clip86"><rect x="3574" y="1005" width="2988" height="1283"/></clipPath><clipPath id="clip87"><rect x="3574" y="1005" width="2988" height="1283"/></clipPath><clipPath id="clip88"><rect x="3574" y="1005" width="2988" height="1283"/></clipPath><clipPath id="clip89"><rect x="3574" y="1005" width="2988" height="1283"/></clipPath><clipPath id="clip90"><rect x="3574" y="1005" width="2988" height="1283"/></clipPath><clipPath id="clip91"><rect x="3574" y="1005" width="2988" height="1283"/></clipPath><clipPath id="clip92"><rect x="3574" y="1005" width="2988" height="1283"/></clipPath><clipPath id="clip93"><rect x="3574" y="1005" width="2988" height="1283"/></clipPath><clipPath id="clip94"><rect x="3574" y="1005" width="2988" height="1283"/></clipPath><clipPath id="clip95"><rect x="3574" y="1005" width="2989" height="1284"/></clipPath><clipPath id="clip96"><rect x="-4947" y="1014" width="20021" height="405"/></clipPath><clipPath id="clip97"><rect x="3574" y="1005" width="2989" height="1284"/></clipPath></defs><g clip-path="url(#clip0)" transform="translate(-3573 -1003)"><rect x="3575" y="1005" width="2988" height="1284" fill="#FFFFFF"/><g clip-path="url(#clip1)"><path d="M4663.65 1291.5 4663.65 2146.5M5112.67 1291.5 5112.67 2146.5M5561.68 1291.5 5561.68 2146.5M6010.5 1291.5 6010.5 2146.5" stroke="#D9D9D9" stroke-width="4.58333" stroke-linejoin="round" stroke-miterlimit="10" fill="none"/></g><g clip-path="url(#clip2)"><path d="M4439.5 1409.5 4214.5 1409.5 4214.5 1316.5 4439.5 1316.5Z" stroke="#000000" stroke-width="4.58333" stroke-linejoin="round" stroke-miterlimit="10" fill="#FFFFFF"/></g><g clip-path="url(#clip3)"><path d="M4439.65 2122.57 4214.5 2122.57 4214.5 2028.57 4439.65 2028.57ZM4450.65 1979.57 4214.5 1979.57 4214.5 1886.56 4450.65 1886.56ZM4432.65 1836.56 4214.5 1836.56 4214.5 1743.56 4432.65 1743.56ZM4412.65 1694.56 4214.5 1694.56 4214.5 1601.55 4412.65 1601.55ZM4451.65 1551.55 4214.5 1551.55 4214.5 1458.55 4451.65 1458.55Z" stroke="#000000" stroke-width="4.58333" stroke-linejoin="round" stroke-miterlimit="10" fill="#FFFFFF"/></g><g clip-path="url(#clip4)"><path d="M4633.5 1409.5 4439.5 1409.5 4439.5 1316.5 4633.5 1316.5Z" stroke="#000000" stroke-width="4.58333" stroke-linejoin="round" stroke-miterlimit="10" fill="#F1F8FD"/></g><g clip-path="url(#clip5)"><path d="M4514.65 2122.57 4439.65 2122.57 4439.65 2028.57 4514.65 2028.57ZM4646.65 1979.57 4450.65 1979.57 4450.65 1886.56 4646.65 1886.56ZM4613.65 1836.56 4432.65 1836.56 4432.65 1743.56 4613.65 1743.56ZM4572.65 1694.56 4412.65 1694.56 4412.65 1601.55 4572.65 1601.55ZM4707.65 1551.55 4451.65 1551.55 4451.65 1458.55 4707.65 1458.55Z" stroke="#000000" stroke-width="4.58333" stroke-linejoin="round" stroke-miterlimit="10" fill="#F1F8FD"/></g><g clip-path="url(#clip6)"><path d="M5037.67 2122.57 4514.65 2122.57 4514.65 2028.57 5037.67 2028.57ZM5187.67 1979.57 4646.65 1979.57 4646.65 1886.56 5187.67 1886.56ZM5085.67 1836.56 4613.65 1836.56 4613.65 1743.56 5085.67 1743.56ZM4998.66 1694.56 4572.65 1694.56 4572.65 1601.55 4998.66 1601.55ZM5173.67 1551.55 4707.65 1551.55 4707.65 1458.55 5173.67 1458.55ZM5126.67 1409.55 4633.65 1409.55 4633.65 1316.54 5126.67 1316.54Z" stroke="#000000" stroke-width="4.58333" stroke-linejoin="round" stroke-miterlimit="10" fill="#C2DDF6"/></g><g clip-path="url(#clip7)"><path d="M5411.68 2122.57 5037.67 2122.57 5037.67 2028.57 5411.68 2028.57ZM5621.68 1979.57 5187.67 1979.57 5187.67 1886.56 5621.68 1886.56ZM5529.68 1836.56 5085.67 1836.56 5085.67 1743.56 5529.68 1743.56ZM5486.68 1694.56 4998.66 1694.56 4998.66 1601.55 5486.68 1601.55ZM5537.68 1551.55 5173.67 1551.55 5173.67 1458.55 5537.68 1458.55ZM5560.68 1409.55 5126.67 1409.55 5126.67 1316.54 5560.68 1316.54Z" stroke="#000000" stroke-width="4.58333" stroke-linejoin="round" stroke-miterlimit="10" fill="#9ECBF0"/></g><g clip-path="url(#clip8)"><path d="M6010.7 2122.57 5411.68 2122.57 5411.68 2028.57 6010.7 2028.57ZM6010.7 1979.57 5621.68 1979.57 5621.68 1886.56 6010.7 1886.56ZM6010.7 1836.56 5529.68 1836.56 5529.68 1743.56 6010.7 1743.56ZM6010.7 1694.56 5486.68 1694.56 5486.68 1601.55 6010.7 1601.55ZM6010.7 1551.55 5537.68 1551.55 5537.68 1458.55 6010.7 1458.55ZM6010.7 1409.55 5560.68 1409.55 5560.68 1316.54 6010.7 1316.54Z" stroke="#000000" stroke-width="4.58333" stroke-linejoin="round" stroke-miterlimit="10" fill="#095085"/></g><g clip-path="url(#clip9)"><path d="M0 0 0.000360892 855" stroke="#D9D9D9" stroke-width="3.4375" stroke-linejoin="round" stroke-miterlimit="10" fill="none" fill-rule="evenodd" transform="matrix(1 0 0 -1 4214.5 2146.5)"/></g><g clip-path="url(#clip10)"><text fill="#404040" font-family="Yu Gothic,Yu Gothic_MSFontService,sans-serif" font-weight="700" font-size="55" transform="matrix(1 0 0 1 4311.42 2094)">3</text></g><g clip-path="url(#clip11)"><text fill="#404040" font-family="Yu Gothic,Yu Gothic_MSFontService,sans-serif" font-weight="700" font-size="55" transform="matrix(1 0 0 1 4301.24 1952)">95</text></g><g clip-path="url(#clip12)"><text fill="#404040" font-family="Yu Gothic,Yu Gothic_MSFontService,sans-serif" font-weight="700" font-size="55" transform="matrix(1 0 0 1 4292.32 1809)">53</text></g><g clip-path="url(#clip13)"><text fill="#404040" font-family="Yu Gothic,Yu Gothic_MSFontService,sans-serif" font-weight="700" font-size="55" transform="matrix(1 0 0 1 4282.16 1667)">32</text></g><g clip-path="url(#clip14)"><text fill="#404040" font-family="Yu Gothic,Yu Gothic_MSFontService,sans-serif" font-weight="700" font-size="55" transform="matrix(1 0 0 1 4301.56 1524)">35</text></g><g clip-path="url(#clip15)"><text fill="#404040" font-family="Yu Gothic,Yu Gothic_MSFontService,sans-serif" font-weight="700" font-size="55" transform="matrix(1 0 0 1 4280.02 1382)">218</text></g><g clip-path="url(#clip16)"><text fill="#404040" font-family="Yu Gothic,Yu Gothic_MSFontService,sans-serif" font-weight="700" font-size="55" transform="matrix(1 0 0 1 4461.07 2094)">1</text></g><g clip-path="url(#clip17)"><text fill="#404040" font-family="Yu Gothic,Yu Gothic_MSFontService,sans-serif" font-weight="700" font-size="55" transform="matrix(1 0 0 1 4517.03 1952)">79</text></g><g clip-path="url(#clip18)"><text fill="#404040" font-family="Yu Gothic,Yu Gothic_MSFontService,sans-serif" font-weight="700" font-size="55" transform="matrix(1 0 0 1 4491.62 1809)">44</text></g><g clip-path="url(#clip19)"><text fill="#404040" font-family="Yu Gothic,Yu Gothic_MSFontService,sans-serif" font-weight="700" font-size="55" transform="matrix(1 0 0 1 4461.12 1667)">26</text></g><g clip-path="url(#clip20)"><text fill="#404040" font-family="Yu Gothic,Yu Gothic_MSFontService,sans-serif" font-weight="700" font-size="55" transform="matrix(1 0 0 1 4547.98 1524)">38</text></g><g clip-path="url(#clip21)"><text fill="#404040" font-family="Yu Gothic,Yu Gothic_MSFontService,sans-serif" font-weight="700" font-size="55" transform="matrix(1 0 0 1 4489.29 1382)">188</text></g><g clip-path="url(#clip22)"><text fill="#404040" font-family="Yu Gothic,Yu Gothic_MSFontService,sans-serif" font-weight="700" font-size="55" transform="matrix(1 0 0 1 4760.38 2094)">7</text></g><g clip-path="url(#clip23)"><text fill="#404040" font-family="Yu Gothic,Yu Gothic_MSFontService,sans-serif" font-weight="700" font-size="55" transform="matrix(1 0 0 1 4869.6 1952)">218</text></g><g clip-path="url(#clip24)"><text fill="#404040" font-family="Yu Gothic,Yu Gothic_MSFontService,sans-serif" font-weight="700" font-size="55" transform="matrix(1 0 0 1 4802.55 1809)">115</text></g><g clip-path="url(#clip25)"><text fill="#404040" font-family="Yu Gothic,Yu Gothic_MSFontService,sans-serif" font-weight="700" font-size="55" transform="matrix(1 0 0 1 4754.25 1667)">69</text></g><g clip-path="url(#clip26)"><text fill="#404040" font-family="Yu Gothic,Yu Gothic_MSFontService,sans-serif" font-weight="700" font-size="55" transform="matrix(1 0 0 1 4909.17 1524)">69</text></g><g clip-path="url(#clip27)"><text fill="#404040" font-family="Yu Gothic,Yu Gothic_MSFontService,sans-serif" font-weight="700" font-size="55" transform="matrix(1 0 0 1 4832.57 1382)">478</text></g><g clip-path="url(#clip28)"><text fill="#404040" font-family="Yu Gothic,Yu Gothic_MSFontService,sans-serif" font-weight="700" font-size="55" transform="matrix(1 0 0 1 5209.33 2094)">5</text></g><g clip-path="url(#clip29)"><text fill="#404040" font-family="Yu Gothic,Yu Gothic_MSFontService,sans-serif" font-weight="700" font-size="55" transform="matrix(1 0 0 1 5357 1952)">175</text></g><g clip-path="url(#clip30)"><text fill="#404040" font-family="Yu Gothic,Yu Gothic_MSFontService,sans-serif" font-weight="700" font-size="55" transform="matrix(1 0 0 1 5260.75 1809)">108</text></g><g clip-path="url(#clip31)"><text fill="#404040" font-family="Yu Gothic,Yu Gothic_MSFontService,sans-serif" font-weight="700" font-size="55" transform="matrix(1 0 0 1 5210.92 1667)">79</text></g><g clip-path="url(#clip32)"><text fill="#404040" font-family="Yu Gothic,Yu Gothic_MSFontService,sans-serif" font-weight="700" font-size="55" transform="matrix(1 0 0 1 5324.36 1524)">54</text></g><g clip-path="url(#clip33)"><text fill="#404040" font-family="Yu Gothic,Yu Gothic_MSFontService,sans-serif" font-weight="700" font-size="55" transform="matrix(1 0 0 1 5295.96 1382)">421</text></g><g clip-path="url(#clip34)"><text fill="#FFFFFF" font-family="Yu Gothic,Yu Gothic_MSFontService,sans-serif" font-weight="700" font-size="55" transform="matrix(1 0 0 1 5695.69 2094)">8</text></g><g clip-path="url(#clip35)"><text fill="#FFFFFF" font-family="Yu Gothic,Yu Gothic_MSFontService,sans-serif" font-weight="700" font-size="55" transform="matrix(1 0 0 1 5768.75 1952)">157</text></g><g clip-path="url(#clip36)"><text fill="#FFFFFF" font-family="Yu Gothic,Yu Gothic_MSFontService,sans-serif" font-weight="700" font-size="55" transform="matrix(1 0 0 1 5723.06 1809)">117</text></g><g clip-path="url(#clip37)"><text fill="#FFFFFF" font-family="Yu Gothic,Yu Gothic_MSFontService,sans-serif" font-weight="700" font-size="55" transform="matrix(1 0 0 1 5716.95 1667)">85</text></g><g clip-path="url(#clip38)"><text fill="#FFFFFF" font-family="Yu Gothic,Yu Gothic_MSFontService,sans-serif" font-weight="700" font-size="55" transform="matrix(1 0 0 1 5742.94 1524)">70</text></g><g clip-path="url(#clip39)"><text fill="#FFFFFF" font-family="Yu Gothic,Yu Gothic_MSFontService,sans-serif" font-weight="700" font-size="55" transform="matrix(1 0 0 1 5738.21 1382)">437</text></g><g clip-path="url(#clip40)"><text fill="#595959" font-family="Yu Gothic,Yu Gothic_MSFontService,sans-serif" font-weight="500" font-size="60" transform="matrix(1 0 0 1 4174.46 2245)">0%</text></g><g clip-path="url(#clip41)"><text fill="#595959" font-family="Yu Gothic,Yu Gothic_MSFontService,sans-serif" font-weight="500" font-size="60" transform="matrix(1 0 0 1 4606.88 2245)">25%</text></g><g clip-path="url(#clip42)"><text fill="#595959" font-family="Yu Gothic,Yu Gothic_MSFontService,sans-serif" font-weight="500" font-size="60" transform="matrix(1 0 0 1 5055.83 2245)">50%</text></g><g clip-path="url(#clip43)"><text fill="#595959" font-family="Yu Gothic,Yu Gothic_MSFontService,sans-serif" font-weight="500" font-size="60" transform="matrix(1 0 0 1 5504.78 2245)">75%</text></g><g clip-path="url(#clip44)"><text fill="#595959" font-family="Yu Gothic,Yu Gothic_MSFontService,sans-serif" font-weight="500" font-size="60" transform="matrix(1 0 0 1 5937.2 2245)">100%</text></g><g clip-path="url(#clip45)"><g clip-path="url(#clip46)"><text fill="#595959" font-family="Yu Gothic,Yu Gothic_MSFontService,sans-serif" font-weight="500" font-size="57" transform="matrix(1 0 0 1 3823.97 2091)">その他</text></g></g><g clip-path="url(#clip47)"><g clip-path="url(#clip48)"><text fill="#595959" font-family="Yu Gothic,Yu Gothic_MSFontService,sans-serif" font-weight="500" font-size="57" transform="matrix(1 0 0 1 3995.85 2091)">(n=24)</text></g></g><g clip-path="url(#clip49)"><g clip-path="url(#clip50)"><text fill="#595959" font-family="Yu Gothic,Yu Gothic_MSFontService,sans-serif" font-weight="500" font-size="57" transform="matrix(1 0 0 1 3792.17 1949)">大学院</text></g></g><g clip-path="url(#clip51)"><g clip-path="url(#clip52)"><text fill="#595959" font-family="Yu Gothic,Yu Gothic_MSFontService,sans-serif" font-weight="500" font-size="57" transform="matrix(1 0 0 1 3964.04 1949)">(n=724)</text></g></g><g clip-path="url(#clip53)"><g clip-path="url(#clip54)"><text fill="#595959" font-family="Yu Gothic,Yu Gothic_MSFontService,sans-serif" font-weight="500" font-size="57" transform="matrix(1 0 0 1 3645.77 1806)">学部</text></g></g><g clip-path="url(#clip55)"><g clip-path="url(#clip56)"><text fill="#595959" font-family="Yu Gothic,Yu Gothic_MSFontService,sans-serif" font-weight="500" font-size="57" transform="matrix(1 0 0 1 3760.36 1806)">3</text></g></g><g clip-path="url(#clip57)"><g clip-path="url(#clip58)"><text fill="#595959" font-family="Yu Gothic,Yu Gothic_MSFontService,sans-serif" font-weight="500" font-size="57" transform="matrix(1 0 0 1 3792.17 1806)">年以上</text></g></g><g clip-path="url(#clip59)"><g clip-path="url(#clip60)"><text fill="#595959" font-family="Yu Gothic,Yu Gothic_MSFontService,sans-serif" font-weight="500" font-size="57" transform="matrix(1 0 0 1 3964.04 1806)">(n=437)</text></g></g><g clip-path="url(#clip61)"><g clip-path="url(#clip62)"><text fill="#595959" font-family="Yu Gothic,Yu Gothic_MSFontService,sans-serif" font-weight="500" font-size="57" transform="matrix(1 0 0 1 3760.36 1664)">学部</text></g></g><g clip-path="url(#clip63)"><g clip-path="url(#clip64)"><text fill="#595959" font-family="Yu Gothic,Yu Gothic_MSFontService,sans-serif" font-weight="500" font-size="57" transform="matrix(1 0 0 1 3874.94 1664)">2</text></g></g><g clip-path="url(#clip65)"><g clip-path="url(#clip66)"><text fill="#595959" font-family="Yu Gothic,Yu Gothic_MSFontService,sans-serif" font-weight="500" font-size="57" transform="matrix(1 0 0 1 3906.75 1664)">年</text></g></g><g clip-path="url(#clip67)"><g clip-path="url(#clip68)"><text fill="#595959" font-family="Yu Gothic,Yu Gothic_MSFontService,sans-serif" font-weight="500" font-size="57" transform="matrix(1 0 0 1 3964.04 1664)">(n=291)</text></g></g><g clip-path="url(#clip69)"><g clip-path="url(#clip70)"><text fill="#595959" font-family="Yu Gothic,Yu Gothic_MSFontService,sans-serif" font-weight="500" font-size="57" transform="matrix(1 0 0 1 3760.36 1521)">学部</text></g></g><g clip-path="url(#clip71)"><g clip-path="url(#clip72)"><text fill="#595959" font-family="Yu Gothic,Yu Gothic_MSFontService,sans-serif" font-weight="500" font-size="57" transform="matrix(1 0 0 1 3874.94 1521)">1</text></g></g><g clip-path="url(#clip73)"><g clip-path="url(#clip74)"><text fill="#595959" font-family="Yu Gothic,Yu Gothic_MSFontService,sans-serif" font-weight="500" font-size="57" transform="matrix(1 0 0 1 3906.75 1521)">年</text></g></g><g clip-path="url(#clip75)"><g clip-path="url(#clip76)"><text fill="#595959" font-family="Yu Gothic,Yu Gothic_MSFontService,sans-serif" font-weight="500" font-size="57" transform="matrix(1 0 0 1 3964.04 1521)">(n=266)</text></g></g><g clip-path="url(#clip77)"><g clip-path="url(#clip78)"><text fill="#595959" font-family="Yu Gothic,Yu Gothic_MSFontService,sans-serif" font-weight="500" font-size="57" transform="matrix(1 0 0 1 3817.65 1379)">全体</text></g></g><g clip-path="url(#clip79)"><g clip-path="url(#clip80)"><text fill="#595959" font-family="Yu Gothic,Yu Gothic_MSFontService,sans-serif" font-weight="500" font-size="57" transform="matrix(1 0 0 1 3932.23 1379)">(n=1742)</text></g></g><g clip-path="url(#clip81)"><rect x="6063.5" y="1336.5" width="28" height="27.9999" stroke="#000000" stroke-width="4.58333" stroke-linejoin="round" stroke-miterlimit="10" fill="#FFFFFF"/></g><g clip-path="url(#clip82)"><text fill="#595959" font-family="Yu Gothic,Yu Gothic_MSFontService,sans-serif" font-weight="500" font-size="48" transform="matrix(1 0 0 1 6104.05 1364)">原則オンライン授業</text></g><g clip-path="url(#clip83)"><text fill="#595959" font-family="Yu Gothic,Yu Gothic_MSFontService,sans-serif" font-weight="500" font-size="48" transform="matrix(1 0 0 1 6104.05 1444)">にしてほしい</text></g><g clip-path="url(#clip84)"><rect x="6063.5" y="1513.5" width="28" height="26.9998" stroke="#000000" stroke-width="4.58333" stroke-linejoin="round" stroke-miterlimit="10" fill="#F1F8FD"/></g><g clip-path="url(#clip85)"><text fill="#595959" font-family="Yu Gothic,Yu Gothic_MSFontService,sans-serif" font-weight="500" font-size="48" transform="matrix(1 0 0 1 6104.05 1540)">なるべくオンライン</text></g><g clip-path="url(#clip86)"><text fill="#595959" font-family="Yu Gothic,Yu Gothic_MSFontService,sans-serif" font-weight="500" font-size="48" transform="matrix(1 0 0 1 6104.05 1620)">授業にしてほしい</text></g><g clip-path="url(#clip87)"><rect x="6063.5" y="1689.5" width="28" height="27.9999" stroke="#000000" stroke-width="4.58333" stroke-linejoin="round" stroke-miterlimit="10" fill="#C2DDF6"/></g><g clip-path="url(#clip88)"><text fill="#595959" font-family="Yu Gothic,Yu Gothic_MSFontService,sans-serif" font-weight="500" font-size="48" transform="matrix(1 0 0 1 6104.05 1717)">どちらでもよい</text></g><g clip-path="url(#clip89)"><rect x="6063.5" y="1865.5" width="28" height="27.9999" stroke="#000000" stroke-width="4.58333" stroke-linejoin="round" stroke-miterlimit="10" fill="#9ECBF0"/></g><g clip-path="url(#clip90)"><text fill="#595959" font-family="Yu Gothic,Yu Gothic_MSFontService,sans-serif" font-weight="500" font-size="48" transform="matrix(1 0 0 1 6104.05 1893)">なるべく対面の授業</text></g><g clip-path="url(#clip91)"><text fill="#595959" font-family="Yu Gothic,Yu Gothic_MSFontService,sans-serif" font-weight="500" font-size="48" transform="matrix(1 0 0 1 6104.05 1973)">にしてほしい</text></g><g clip-path="url(#clip92)"><rect x="6063.5" y="2042.5" width="28" height="27.9999" stroke="#000000" stroke-width="4.58333" stroke-linejoin="round" stroke-miterlimit="10" fill="#095085"/></g><g clip-path="url(#clip93)"><text fill="#595959" font-family="Yu Gothic,Yu Gothic_MSFontService,sans-serif" font-weight="500" font-size="48" transform="matrix(1 0 0 1 6104.05 2070)">原則対面の授業にし</text></g><g clip-path="url(#clip94)"><text fill="#595959" font-family="Yu Gothic,Yu Gothic_MSFontService,sans-serif" font-weight="500" font-size="48" transform="matrix(1 0 0 1 6104.05 2150)">てほしい</text></g><rect x="3575.5" y="1005.5" width="2988" height="1284" stroke="#000000" stroke-width="4.58333" stroke-linejoin="round" stroke-miterlimit="10" fill="none"/><g clip-path="url(#clip95)"><g clip-path="url(#clip96)"><text font-family="Yu Gothic,Yu Gothic_MSFontService,sans-serif" font-weight="500" font-size="73" transform="matrix(1 0 0 1 3633.43 1118)">【形式別／オンラインか対面か】演習の授業について，どの程度オンライン授業にして</text></g></g><g clip-path="url(#clip97)"><text font-family="Yu Gothic,Yu Gothic_MSFontService,sans-serif" font-weight="500" font-size="73" transform="matrix(1 0 0 1 3633.43 1241)">ほしいですか？</text></g></g></svg>