<svg width="2993" height="1289" xmlns="http://www.w3.org/2000/svg" xmlns:xlink="http://www.w3.org/1999/xlink" overflow="hidden"><defs><clipPath id="clip0"><rect x="3573" y="1088" width="2993" height="1289"/></clipPath><clipPath id="clip1"><rect x="3574" y="1090" width="2988" height="1283"/></clipPath><clipPath id="clip2"><rect x="4214" y="1376" width="1800" height="859"/></clipPath><clipPath id="clip3"><rect x="4214" y="1376" width="1800" height="859"/></clipPath><clipPath id="clip4"><rect x="4214" y="1376" width="1800" height="859"/></clipPath><clipPath id="clip5"><rect x="4214" y="1376" width="1800" height="859"/></clipPath><clipPath id="clip6"><rect x="4214" y="1376" width="1800" height="859"/></clipPath><clipPath id="clip7"><rect x="4214" y="1376" width="1800" height="859"/></clipPath><clipPath id="clip8"><rect x="4214" y="1376" width="1800" height="859"/></clipPath><clipPath id="clip9"><rect x="3574" y="1090" width="2988" height="1283"/></clipPath><clipPath id="clip10"><rect x="3574" y="1090" width="2988" height="1283"/></clipPath><clipPath id="clip11"><rect x="3574" y="1090" width="2988" height="1283"/></clipPath><clipPath id="clip12"><rect x="3574" y="1090" width="2988" height="1283"/></clipPath><clipPath id="clip13"><rect x="3574" y="1090" width="2988" height="1283"/></clipPath><clipPath id="clip14"><rect x="3574" y="1090" width="2988" height="1283"/></clipPath><clipPath id="clip15"><rect x="3574" y="1090" width="2988" height="1283"/></clipPath><clipPath id="clip16"><rect x="3574" y="1090" width="2988" height="1283"/></clipPath><clipPath id="clip17"><rect x="3574" y="1090" width="2988" height="1283"/></clipPath><clipPath id="clip18"><rect x="3574" y="1090" width="2988" height="1283"/></clipPath><clipPath id="clip19"><rect x="3574" y="1090" width="2988" height="1283"/></clipPath><clipPath id="clip20"><rect x="3574" y="1090" width="2988" height="1283"/></clipPath><clipPath id="clip21"><rect x="3574" y="1090" width="2988" height="1283"/></clipPath><clipPath id="clip22"><rect x="3574" y="1090" width="2988" height="1283"/></clipPath><clipPath id="clip23"><rect x="3574" y="1090" width="2988" height="1283"/></clipPath><clipPath id="clip24"><rect x="3574" y="1090" width="2988" height="1283"/></clipPath><clipPath id="clip25"><rect x="3574" y="1090" width="2988" height="1283"/></clipPath><clipPath id="clip26"><rect x="3574" y="1090" width="2988" height="1283"/></clipPath><clipPath id="clip27"><rect x="3574" y="1090" width="2988" height="1283"/></clipPath><clipPath id="clip28"><rect x="3574" y="1090" width="2988" height="1283"/></clipPath><clipPath id="clip29"><rect x="3574" y="1090" width="2988" height="1283"/></clipPath><clipPath id="clip30"><rect x="3574" y="1090" width="2988" height="1283"/></clipPath><clipPath id="clip31"><rect x="3574" y="1090" width="2988" height="1283"/></clipPath><clipPath id="clip32"><rect x="3574" y="1090" width="2988" height="1283"/></clipPath><clipPath id="clip33"><rect x="3574" y="1090" width="2988" height="1283"/></clipPath><clipPath id="clip34"><rect x="3574" y="1090" width="2988" height="1283"/></clipPath><clipPath id="clip35"><rect x="3574" y="1090" width="2988" height="1283"/></clipPath><clipPath id="clip36"><rect x="3574" y="1090" width="2988" height="1283"/></clipPath><clipPath id="clip37"><rect x="3574" y="1090" width="2988" height="1283"/></clipPath><clipPath id="clip38"><rect x="3574" y="1090" width="2988" height="1283"/></clipPath><clipPath id="clip39"><rect x="3574" y="1090" width="2988" height="1283"/></clipPath><clipPath id="clip40"><rect x="3574" y="1090" width="2988" height="1283"/></clipPath><clipPath id="clip41"><rect x="3574" y="1090" width="2988" height="1283"/></clipPath><clipPath id="clip42"><rect x="3574" y="1090" width="2988" height="1283"/></clipPath><clipPath id="clip43"><rect x="3574" y="1090" width="2988" height="1283"/></clipPath><clipPath id="clip44"><rect x="3574" y="1090" width="2988" height="1283"/></clipPath><clipPath id="clip45"><rect x="3574" y="1090" width="2988" height="1283"/></clipPath><clipPath id="clip46"><rect x="2763" y="2085" width="2476" height="143"/></clipPath><clipPath id="clip47"><rect x="3574" y="1090" width="2988" height="1283"/></clipPath><clipPath id="clip48"><rect x="2763" y="2085" width="2476" height="143"/></clipPath><clipPath id="clip49"><rect x="3574" y="1090" width="2988" height="1283"/></clipPath><clipPath id="clip50"><rect x="2635" y="1942" width="2699" height="144"/></clipPath><clipPath id="clip51"><rect x="3574" y="1090" width="2988" height="1283"/></clipPath><clipPath id="clip52"><rect x="2635" y="1942" width="2699" height="144"/></clipPath><clipPath id="clip53"><rect x="3574" y="1090" width="2988" height="1283"/></clipPath><clipPath id="clip54"><rect x="2050" y="1799" width="3724" height="144"/></clipPath><clipPath id="clip55"><rect x="3574" y="1090" width="2988" height="1283"/></clipPath><clipPath id="clip56"><rect x="2050" y="1799" width="3724" height="144"/></clipPath><clipPath id="clip57"><rect x="3574" y="1090" width="2988" height="1283"/></clipPath><clipPath id="clip58"><rect x="2050" y="1799" width="3724" height="144"/></clipPath><clipPath id="clip59"><rect x="3574" y="1090" width="2988" height="1283"/></clipPath><clipPath id="clip60"><rect x="2050" y="1799" width="3724" height="144"/></clipPath><clipPath id="clip61"><rect x="3574" y="1090" width="2988" height="1283"/></clipPath><clipPath id="clip62"><rect x="2508" y="1657" width="2922" height="143"/></clipPath><clipPath id="clip63"><rect x="3574" y="1090" width="2988" height="1283"/></clipPath><clipPath id="clip64"><rect x="2508" y="1657" width="2922" height="143"/></clipPath><clipPath id="clip65"><rect x="3574" y="1090" width="2988" height="1283"/></clipPath><clipPath id="clip66"><rect x="2508" y="1657" width="2922" height="143"/></clipPath><clipPath id="clip67"><rect x="3574" y="1090" width="2988" height="1283"/></clipPath><clipPath id="clip68"><rect x="2508" y="1657" width="2922" height="143"/></clipPath><clipPath id="clip69"><rect x="3574" y="1090" width="2988" height="1283"/></clipPath><clipPath id="clip70"><rect x="2508" y="1514" width="2922" height="144"/></clipPath><clipPath id="clip71"><rect x="3574" y="1090" width="2988" height="1283"/></clipPath><clipPath id="clip72"><rect x="2508" y="1514" width="2922" height="144"/></clipPath><clipPath id="clip73"><rect x="3574" y="1090" width="2988" height="1283"/></clipPath><clipPath id="clip74"><rect x="2508" y="1514" width="2922" height="144"/></clipPath><clipPath id="clip75"><rect x="3574" y="1090" width="2988" height="1283"/></clipPath><clipPath id="clip76"><rect x="2508" y="1514" width="2922" height="144"/></clipPath><clipPath id="clip77"><rect x="3574" y="1090" width="2988" height="1283"/></clipPath><clipPath id="clip78"><rect x="2737" y="1372" width="2521" height="143"/></clipPath><clipPath id="clip79"><rect x="3574" y="1090" width="2988" height="1283"/></clipPath><clipPath id="clip80"><rect x="2737" y="1372" width="2521" height="143"/></clipPath><clipPath id="clip81"><rect x="3574" y="1090" width="2988" height="1283"/></clipPath><clipPath id="clip82"><rect x="3574" y="1090" width="2988" height="1283"/></clipPath><clipPath id="clip83"><rect x="3574" y="1090" width="2988" height="1283"/></clipPath><clipPath id="clip84"><rect x="3574" y="1090" width="2988" height="1283"/></clipPath><clipPath id="clip85"><rect x="3574" y="1090" width="2988" height="1283"/></clipPath><clipPath id="clip86"><rect x="3574" y="1090" width="2988" height="1283"/></clipPath><clipPath id="clip87"><rect x="3574" y="1090" width="2988" height="1283"/></clipPath><clipPath id="clip88"><rect x="3574" y="1090" width="2988" height="1283"/></clipPath><clipPath id="clip89"><rect x="3574" y="1090" width="2988" height="1283"/></clipPath><clipPath id="clip90"><rect x="3574" y="1090" width="2988" height="1283"/></clipPath><clipPath id="clip91"><rect x="3574" y="1090" width="2988" height="1283"/></clipPath><clipPath id="clip92"><rect x="3574" y="1090" width="2988" height="1283"/></clipPath><clipPath id="clip93"><rect x="3574" y="1090" width="2988" height="1283"/></clipPath><clipPath id="clip94"><rect x="3574" y="1090" width="2988" height="1283"/></clipPath><clipPath id="clip95"><rect x="3574" y="1090" width="2989" height="1284"/></clipPath><clipPath id="clip96"><rect x="-4947" y="1098" width="20021" height="406"/></clipPath><clipPath id="clip97"><rect x="3574" y="1090" width="2989" height="1284"/></clipPath></defs><g clip-path="url(#clip0)" transform="translate(-3573 -1088)"><rect x="3575" y="1090" width="2988" height="1284" fill="#FFFFFF"/><g clip-path="url(#clip1)"><path d="M4663.65 1376.5 4663.65 2231.5M5112.67 1376.5 5112.67 2231.5M5561.68 1376.5 5561.68 2231.5M6010.5 1376.5 6010.5 2231.5" stroke="#D9D9D9" stroke-width="4.58333" stroke-linejoin="round" stroke-miterlimit="10" fill="none"/></g><g clip-path="url(#clip2)"><path d="M4316.5 1494.5 4214.5 1494.5 4214.5 1401.5 4316.5 1401.5Z" stroke="#000000" stroke-width="4.58333" stroke-linejoin="round" stroke-miterlimit="10" fill="#FFFFFF"/></g><g clip-path="url(#clip3)"><path d="M4289.64 2206.57 4214.5 2206.57 4214.5 2113.57 4289.64 2113.57ZM4338.64 2064.57 4214.5 2064.57 4214.5 1971.56 4338.64 1971.56ZM4307.64 1921.56 4214.5 1921.56 4214.5 1828.56 4307.64 1828.56ZM4321.64 1779.56 4214.5 1779.56 4214.5 1686.56 4321.64 1686.56ZM4269.64 1636.55 4214.5 1636.55 4214.5 1543.55 4269.64 1543.55Z" stroke="#000000" stroke-width="4.58333" stroke-linejoin="round" stroke-miterlimit="10" fill="#FFFFFF"/></g><g clip-path="url(#clip4)"><path d="M4380.5 1494.5 4316.5 1494.5 4316.5 1401.5 4380.5 1401.5Z" stroke="#000000" stroke-width="4.58333" stroke-linejoin="round" stroke-miterlimit="10" fill="#F1F8FD"/></g><g clip-path="url(#clip5)"><path d="M4364.64 2206.57 4289.64 2206.57 4289.64 2113.57 4364.64 2113.57ZM4421.65 2064.57 4338.64 2064.57 4338.64 1971.56 4421.65 1971.56ZM4366.64 1921.56 4307.64 1921.56 4307.64 1828.56 4366.64 1828.56ZM4359.64 1779.56 4321.64 1779.56 4321.64 1686.56 4359.64 1686.56ZM4317.64 1636.55 4269.64 1636.55 4269.64 1543.55 4317.64 1543.55Z" stroke="#000000" stroke-width="4.58333" stroke-linejoin="round" stroke-miterlimit="10" fill="#F1F8FD"/></g><g clip-path="url(#clip6)"><path d="M4813.66 2206.57 4364.64 2206.57 4364.64 2113.57 4813.66 2113.57ZM4894.66 2064.57 4421.65 2064.57 4421.65 1971.56 4894.66 1971.56ZM4677.65 1921.56 4366.64 1921.56 4366.64 1828.56 4677.65 1828.56ZM4643.65 1779.56 4359.64 1779.56 4359.64 1686.56 4643.65 1686.56ZM4619.65 1636.55 4317.64 1636.55 4317.64 1543.55 4619.65 1543.55ZM4755.66 1494.55 4380.64 1494.55 4380.64 1400.55 4755.66 1400.55Z" stroke="#000000" stroke-width="4.58333" stroke-linejoin="round" stroke-miterlimit="10" fill="#C2DDF6"/></g><g clip-path="url(#clip7)"><path d="M5112.67 2206.57 4813.66 2206.57 4813.66 2113.57 5112.67 2113.57ZM5287.67 2064.57 4894.66 2064.57 4894.66 1971.56 5287.67 1971.56ZM5060.67 1921.56 4677.65 1921.56 4677.65 1828.56 5060.67 1828.56ZM5040.67 1779.56 4643.65 1779.56 4643.65 1686.56 5040.67 1686.56ZM5057.67 1636.55 4619.65 1636.55 4619.65 1543.55 5057.67 1543.55ZM5152.67 1494.55 4755.66 1494.55 4755.66 1400.55 5152.67 1400.55Z" stroke="#000000" stroke-width="4.58333" stroke-linejoin="round" stroke-miterlimit="10" fill="#9ECBF0"/></g><g clip-path="url(#clip8)"><path d="M6010.7 2206.57 5112.67 2206.57 5112.67 2113.57 6010.7 2113.57ZM6010.7 2064.57 5287.67 2064.57 5287.67 1971.56 6010.7 1971.56ZM6010.7 1921.56 5060.67 1921.56 5060.67 1828.56 6010.7 1828.56ZM6010.7 1779.56 5040.67 1779.56 5040.67 1686.56 6010.7 1686.56ZM6010.7 1636.55 5057.67 1636.55 5057.67 1543.55 6010.7 1543.55ZM6010.7 1494.55 5152.67 1494.55 5152.67 1400.55 6010.7 1400.55Z" stroke="#000000" stroke-width="4.58333" stroke-linejoin="round" stroke-miterlimit="10" fill="#095085"/></g><g clip-path="url(#clip9)"><path d="M0 0 0.000360892 855" stroke="#D9D9D9" stroke-width="3.4375" stroke-linejoin="round" stroke-miterlimit="10" fill="none" fill-rule="evenodd" transform="matrix(1 0 0 -1 4214.5 2231.5)"/></g><g clip-path="url(#clip10)"><text fill="#404040" font-family="Yu Gothic,Yu Gothic_MSFontService,sans-serif" font-weight="700" font-size="55" transform="matrix(1 0 0 1 4236.6 2179)">1</text></g><g clip-path="url(#clip11)"><text fill="#404040" font-family="Yu Gothic,Yu Gothic_MSFontService,sans-serif" font-weight="700" font-size="55" transform="matrix(1 0 0 1 4245.12 2037)">49</text></g><g clip-path="url(#clip12)"><text fill="#404040" font-family="Yu Gothic,Yu Gothic_MSFontService,sans-serif" font-weight="700" font-size="55" transform="matrix(1 0 0 1 4229.68 1894)">22</text></g><g clip-path="url(#clip13)"><text fill="#404040" font-family="Yu Gothic,Yu Gothic_MSFontService,sans-serif" font-weight="700" font-size="55" transform="matrix(1 0 0 1 4236.98 1752)">17</text></g><g clip-path="url(#clip14)"><text fill="#404040" font-family="Yu Gothic,Yu Gothic_MSFontService,sans-serif" font-weight="700" font-size="55" transform="matrix(1 0 0 1 4226.6 1609)">8</text></g><g clip-path="url(#clip15)"><text fill="#404040" font-family="Yu Gothic,Yu Gothic_MSFontService,sans-serif" font-weight="700" font-size="55" transform="matrix(1 0 0 1 4234.32 1467)">97</text></g><g clip-path="url(#clip16)"><text fill="#404040" font-family="Yu Gothic,Yu Gothic_MSFontService,sans-serif" font-weight="700" font-size="55" transform="matrix(1 0 0 1 4311.42 2179)">1</text></g><g clip-path="url(#clip17)"><text fill="#404040" font-family="Yu Gothic,Yu Gothic_MSFontService,sans-serif" font-weight="700" font-size="55" transform="matrix(1 0 0 1 4348.39 2037)">33</text></g><g clip-path="url(#clip18)"><text fill="#404040" font-family="Yu Gothic,Yu Gothic_MSFontService,sans-serif" font-weight="700" font-size="55" transform="matrix(1 0 0 1 4305.38 1894)">14</text></g><g clip-path="url(#clip19)"><text fill="#404040" font-family="Yu Gothic,Yu Gothic_MSFontService,sans-serif" font-weight="700" font-size="55" transform="matrix(1 0 0 1 4325.21 1752)">6</text></g><g clip-path="url(#clip20)"><text fill="#404040" font-family="Yu Gothic,Yu Gothic_MSFontService,sans-serif" font-weight="700" font-size="55" transform="matrix(1 0 0 1 4278.01 1609)">7</text></g><g clip-path="url(#clip21)"><text fill="#404040" font-family="Yu Gothic,Yu Gothic_MSFontService,sans-serif" font-weight="700" font-size="55" transform="matrix(1 0 0 1 4317.24 1467)">61</text></g><g clip-path="url(#clip22)"><text fill="#404040" font-family="Yu Gothic,Yu Gothic_MSFontService,sans-serif" font-weight="700" font-size="55" transform="matrix(1 0 0 1 4573.31 2179)">6</text></g><g clip-path="url(#clip23)"><text fill="#404040" font-family="Yu Gothic,Yu Gothic_MSFontService,sans-serif" font-weight="700" font-size="55" transform="matrix(1 0 0 1 4610.94 2037)">188</text></g><g clip-path="url(#clip24)"><text fill="#404040" font-family="Yu Gothic,Yu Gothic_MSFontService,sans-serif" font-weight="700" font-size="55" transform="matrix(1 0 0 1 4490.43 1894)">74</text></g><g clip-path="url(#clip25)"><text fill="#404040" font-family="Yu Gothic,Yu Gothic_MSFontService,sans-serif" font-weight="700" font-size="55" transform="matrix(1 0 0 1 4470.12 1752)">45</text></g><g clip-path="url(#clip26)"><text fill="#404040" font-family="Yu Gothic,Yu Gothic_MSFontService,sans-serif" font-weight="700" font-size="55" transform="matrix(1 0 0 1 4437.02 1609)">44</text></g><g clip-path="url(#clip27)"><text fill="#404040" font-family="Yu Gothic,Yu Gothic_MSFontService,sans-serif" font-weight="700" font-size="55" transform="matrix(1 0 0 1 4520.83 1467)">357</text></g><g clip-path="url(#clip28)"><text fill="#404040" font-family="Yu Gothic,Yu Gothic_MSFontService,sans-serif" font-weight="700" font-size="55" transform="matrix(1 0 0 1 4947.44 2179)">4</text></g><g clip-path="url(#clip29)"><text fill="#404040" font-family="Yu Gothic,Yu Gothic_MSFontService,sans-serif" font-weight="700" font-size="55" transform="matrix(1 0 0 1 5044.15 2037)">156</text></g><g clip-path="url(#clip30)"><text fill="#404040" font-family="Yu Gothic,Yu Gothic_MSFontService,sans-serif" font-weight="700" font-size="55" transform="matrix(1 0 0 1 4837.4 1894)">91</text></g><g clip-path="url(#clip31)"><text fill="#404040" font-family="Yu Gothic,Yu Gothic_MSFontService,sans-serif" font-weight="700" font-size="55" transform="matrix(1 0 0 1 4810.38 1752)">63</text></g><g clip-path="url(#clip32)"><text fill="#404040" font-family="Yu Gothic,Yu Gothic_MSFontService,sans-serif" font-weight="700" font-size="55" transform="matrix(1 0 0 1 4807.15 1609)">64</text></g><g clip-path="url(#clip33)"><text fill="#404040" font-family="Yu Gothic,Yu Gothic_MSFontService,sans-serif" font-weight="700" font-size="55" transform="matrix(1 0 0 1 4906.55 1467)">378</text></g><g clip-path="url(#clip34)"><text fill="#FFFFFF" font-family="Yu Gothic,Yu Gothic_MSFontService,sans-serif" font-weight="700" font-size="55" transform="matrix(1 0 0 1 5530.27 2179)">12</text></g><g clip-path="url(#clip35)"><text fill="#FFFFFF" font-family="Yu Gothic,Yu Gothic_MSFontService,sans-serif" font-weight="700" font-size="55" transform="matrix(1 0 0 1 5602.03 2037)">287</text></g><g clip-path="url(#clip36)"><text fill="#FFFFFF" font-family="Yu Gothic,Yu Gothic_MSFontService,sans-serif" font-weight="700" font-size="55" transform="matrix(1 0 0 1 5488.22 1894)">226</text></g><g clip-path="url(#clip37)"><text fill="#FFFFFF" font-family="Yu Gothic,Yu Gothic_MSFontService,sans-serif" font-weight="700" font-size="55" transform="matrix(1 0 0 1 5478.28 1752)">154</text></g><g clip-path="url(#clip38)"><text fill="#FFFFFF" font-family="Yu Gothic,Yu Gothic_MSFontService,sans-serif" font-weight="700" font-size="55" transform="matrix(1 0 0 1 5487.09 1609)">139</text></g><g clip-path="url(#clip39)"><text fill="#FFFFFF" font-family="Yu Gothic,Yu Gothic_MSFontService,sans-serif" font-weight="700" font-size="55" transform="matrix(1 0 0 1 5534.19 1467)">818</text></g><g clip-path="url(#clip40)"><text fill="#595959" font-family="Yu Gothic,Yu Gothic_MSFontService,sans-serif" font-weight="500" font-size="60" transform="matrix(1 0 0 1 4174.46 2330)">0%</text></g><g clip-path="url(#clip41)"><text fill="#595959" font-family="Yu Gothic,Yu Gothic_MSFontService,sans-serif" font-weight="500" font-size="60" transform="matrix(1 0 0 1 4606.88 2330)">25%</text></g><g clip-path="url(#clip42)"><text fill="#595959" font-family="Yu Gothic,Yu Gothic_MSFontService,sans-serif" font-weight="500" font-size="60" transform="matrix(1 0 0 1 5055.83 2330)">50%</text></g><g clip-path="url(#clip43)"><text fill="#595959" font-family="Yu Gothic,Yu Gothic_MSFontService,sans-serif" font-weight="500" font-size="60" transform="matrix(1 0 0 1 5504.78 2330)">75%</text></g><g clip-path="url(#clip44)"><text fill="#595959" font-family="Yu Gothic,Yu Gothic_MSFontService,sans-serif" font-weight="500" font-size="60" transform="matrix(1 0 0 1 5937.2 2330)">100%</text></g><g clip-path="url(#clip45)"><g clip-path="url(#clip46)"><text fill="#595959" font-family="Yu Gothic,Yu Gothic_MSFontService,sans-serif" font-weight="500" font-size="57" transform="matrix(1 0 0 1 3823.97 2176)">その他</text></g></g><g clip-path="url(#clip47)"><g clip-path="url(#clip48)"><text fill="#595959" font-family="Yu Gothic,Yu Gothic_MSFontService,sans-serif" font-weight="500" font-size="57" transform="matrix(1 0 0 1 3995.85 2176)">(n=24)</text></g></g><g clip-path="url(#clip49)"><g clip-path="url(#clip50)"><text fill="#595959" font-family="Yu Gothic,Yu Gothic_MSFontService,sans-serif" font-weight="500" font-size="57" transform="matrix(1 0 0 1 3792.17 2034)">大学院</text></g></g><g clip-path="url(#clip51)"><g clip-path="url(#clip52)"><text fill="#595959" font-family="Yu Gothic,Yu Gothic_MSFontService,sans-serif" font-weight="500" font-size="57" transform="matrix(1 0 0 1 3964.04 2034)">(n=713)</text></g></g><g clip-path="url(#clip53)"><g clip-path="url(#clip54)"><text fill="#595959" font-family="Yu Gothic,Yu Gothic_MSFontService,sans-serif" font-weight="500" font-size="57" transform="matrix(1 0 0 1 3645.77 1891)">学部</text></g></g><g clip-path="url(#clip55)"><g clip-path="url(#clip56)"><text fill="#595959" font-family="Yu Gothic,Yu Gothic_MSFontService,sans-serif" font-weight="500" font-size="57" transform="matrix(1 0 0 1 3760.36 1891)">3</text></g></g><g clip-path="url(#clip57)"><g clip-path="url(#clip58)"><text fill="#595959" font-family="Yu Gothic,Yu Gothic_MSFontService,sans-serif" font-weight="500" font-size="57" transform="matrix(1 0 0 1 3792.17 1891)">年以上</text></g></g><g clip-path="url(#clip59)"><g clip-path="url(#clip60)"><text fill="#595959" font-family="Yu Gothic,Yu Gothic_MSFontService,sans-serif" font-weight="500" font-size="57" transform="matrix(1 0 0 1 3964.04 1891)">(n=427)</text></g></g><g clip-path="url(#clip61)"><g clip-path="url(#clip62)"><text fill="#595959" font-family="Yu Gothic,Yu Gothic_MSFontService,sans-serif" font-weight="500" font-size="57" transform="matrix(1 0 0 1 3760.36 1749)">学部</text></g></g><g clip-path="url(#clip63)"><g clip-path="url(#clip64)"><text fill="#595959" font-family="Yu Gothic,Yu Gothic_MSFontService,sans-serif" font-weight="500" font-size="57" transform="matrix(1 0 0 1 3874.94 1749)">2</text></g></g><g clip-path="url(#clip65)"><g clip-path="url(#clip66)"><text fill="#595959" font-family="Yu Gothic,Yu Gothic_MSFontService,sans-serif" font-weight="500" font-size="57" transform="matrix(1 0 0 1 3906.75 1749)">年</text></g></g><g clip-path="url(#clip67)"><g clip-path="url(#clip68)"><text fill="#595959" font-family="Yu Gothic,Yu Gothic_MSFontService,sans-serif" font-weight="500" font-size="57" transform="matrix(1 0 0 1 3964.04 1749)">(n=285)</text></g></g><g clip-path="url(#clip69)"><g clip-path="url(#clip70)"><text fill="#595959" font-family="Yu Gothic,Yu Gothic_MSFontService,sans-serif" font-weight="500" font-size="57" transform="matrix(1 0 0 1 3760.36 1606)">学部</text></g></g><g clip-path="url(#clip71)"><g clip-path="url(#clip72)"><text fill="#595959" font-family="Yu Gothic,Yu Gothic_MSFontService,sans-serif" font-weight="500" font-size="57" transform="matrix(1 0 0 1 3874.94 1606)">1</text></g></g><g clip-path="url(#clip73)"><g clip-path="url(#clip74)"><text fill="#595959" font-family="Yu Gothic,Yu Gothic_MSFontService,sans-serif" font-weight="500" font-size="57" transform="matrix(1 0 0 1 3906.75 1606)">年</text></g></g><g clip-path="url(#clip75)"><g clip-path="url(#clip76)"><text fill="#595959" font-family="Yu Gothic,Yu Gothic_MSFontService,sans-serif" font-weight="500" font-size="57" transform="matrix(1 0 0 1 3964.04 1606)">(n=262)</text></g></g><g clip-path="url(#clip77)"><g clip-path="url(#clip78)"><text fill="#595959" font-family="Yu Gothic,Yu Gothic_MSFontService,sans-serif" font-weight="500" font-size="57" transform="matrix(1 0 0 1 3817.65 1464)">全体</text></g></g><g clip-path="url(#clip79)"><g clip-path="url(#clip80)"><text fill="#595959" font-family="Yu Gothic,Yu Gothic_MSFontService,sans-serif" font-weight="500" font-size="57" transform="matrix(1 0 0 1 3932.23 1464)">(n=1711)</text></g></g><g clip-path="url(#clip81)"><rect x="6063.5" y="1421.5" width="28" height="28.0002" stroke="#000000" stroke-width="4.58333" stroke-linejoin="round" stroke-miterlimit="10" fill="#FFFFFF"/></g><g clip-path="url(#clip82)"><text fill="#595959" font-family="Yu Gothic,Yu Gothic_MSFontService,sans-serif" font-weight="500" font-size="48" transform="matrix(1 0 0 1 6104.05 1449)">原則オンライン授業</text></g><g clip-path="url(#clip83)"><text fill="#595959" font-family="Yu Gothic,Yu Gothic_MSFontService,sans-serif" font-weight="500" font-size="48" transform="matrix(1 0 0 1 6104.05 1529)">にしてほしい</text></g><g clip-path="url(#clip84)"><rect x="6063.5" y="1597.5" width="28" height="28.0002" stroke="#000000" stroke-width="4.58333" stroke-linejoin="round" stroke-miterlimit="10" fill="#F1F8FD"/></g><g clip-path="url(#clip85)"><text fill="#595959" font-family="Yu Gothic,Yu Gothic_MSFontService,sans-serif" font-weight="500" font-size="48" transform="matrix(1 0 0 1 6104.05 1625)">なるべくオンライン</text></g><g clip-path="url(#clip86)"><text fill="#595959" font-family="Yu Gothic,Yu Gothic_MSFontService,sans-serif" font-weight="500" font-size="48" transform="matrix(1 0 0 1 6104.05 1705)">授業にしてほしい</text></g><g clip-path="url(#clip87)"><rect x="6063.5" y="1774.5" width="28" height="28.0002" stroke="#000000" stroke-width="4.58333" stroke-linejoin="round" stroke-miterlimit="10" fill="#C2DDF6"/></g><g clip-path="url(#clip88)"><text fill="#595959" font-family="Yu Gothic,Yu Gothic_MSFontService,sans-serif" font-weight="500" font-size="48" transform="matrix(1 0 0 1 6104.05 1802)">どちらでもよい</text></g><g clip-path="url(#clip89)"><rect x="6063.5" y="1950.5" width="28" height="28.0002" stroke="#000000" stroke-width="4.58333" stroke-linejoin="round" stroke-miterlimit="10" fill="#9ECBF0"/></g><g clip-path="url(#clip90)"><text fill="#595959" font-family="Yu Gothic,Yu Gothic_MSFontService,sans-serif" font-weight="500" font-size="48" transform="matrix(1 0 0 1 6104.05 1978)">なるべく対面の授業</text></g><g clip-path="url(#clip91)"><text fill="#595959" font-family="Yu Gothic,Yu Gothic_MSFontService,sans-serif" font-weight="500" font-size="48" transform="matrix(1 0 0 1 6104.05 2058)">にしてほしい</text></g><g clip-path="url(#clip92)"><rect x="6063.5" y="2127.5" width="28" height="28.0002" stroke="#000000" stroke-width="4.58333" stroke-linejoin="round" stroke-miterlimit="10" fill="#095085"/></g><g clip-path="url(#clip93)"><text fill="#595959" font-family="Yu Gothic,Yu Gothic_MSFontService,sans-serif" font-weight="500" font-size="48" transform="matrix(1 0 0 1 6104.05 2154)">原則対面の授業にし</text></g><g clip-path="url(#clip94)"><text fill="#595959" font-family="Yu Gothic,Yu Gothic_MSFontService,sans-serif" font-weight="500" font-size="48" transform="matrix(1 0 0 1 6104.05 2234)">てほしい</text></g><rect x="3575.5" y="1090.5" width="2988" height="1284" stroke="#000000" stroke-width="4.58333" stroke-linejoin="round" stroke-miterlimit="10" fill="none"/><g clip-path="url(#clip95)"><g clip-path="url(#clip96)"><text font-family="Yu Gothic,Yu Gothic_MSFontService,sans-serif" font-weight="500" font-size="73" transform="matrix(1 0 0 1 3633.43 1202)">【形式別／オンラインか対面か】実験・実習の授業について，どの程度オンライン授業</text></g></g><g clip-path="url(#clip97)"><text font-family="Yu Gothic,Yu Gothic_MSFontService,sans-serif" font-weight="500" font-size="73" transform="matrix(1 0 0 1 3633.43 1325)">にしてほしいですか？</text></g></g></svg>