<svg width="872" height="705" xmlns="http://www.w3.org/2000/svg" xmlns:xlink="http://www.w3.org/1999/xlink" overflow="hidden"><defs><clipPath id="clip0"><rect x="33" y="16" width="872" height="705"/></clipPath><clipPath id="clip1"><rect x="33" y="25" width="870" height="358"/></clipPath><clipPath id="clip2"><rect x="220" y="127" width="523" height="240"/></clipPath><clipPath id="clip3"><rect x="220" y="127" width="523" height="240"/></clipPath><clipPath id="clip4"><rect x="220" y="127" width="523" height="240"/></clipPath><clipPath id="clip5"><rect x="220" y="127" width="523" height="240"/></clipPath><clipPath id="clip6"><rect x="220" y="127" width="523" height="240"/></clipPath><clipPath id="clip7"><rect x="220" y="127" width="523" height="240"/></clipPath><clipPath id="clip8"><rect x="220" y="127" width="523" height="240"/></clipPath><clipPath id="clip9"><rect x="33" y="25" width="870" height="358"/></clipPath><clipPath id="clip10"><rect x="33" y="25" width="870" height="358"/></clipPath><clipPath id="clip11"><rect x="33" y="25" width="870" height="358"/></clipPath><clipPath id="clip12"><rect x="33" y="25" width="870" height="358"/></clipPath><clipPath id="clip13"><rect x="33" y="25" width="870" height="358"/></clipPath><clipPath id="clip14"><rect x="33" y="25" width="870" height="358"/></clipPath><clipPath id="clip15"><rect x="33" y="25" width="870" height="358"/></clipPath><clipPath id="clip16"><rect x="33" y="25" width="870" height="358"/></clipPath><clipPath id="clip17"><rect x="33" y="25" width="870" height="358"/></clipPath><clipPath id="clip18"><rect x="33" y="25" width="870" height="358"/></clipPath><clipPath id="clip19"><rect x="33" y="25" width="870" height="358"/></clipPath><clipPath id="clip20"><rect x="33" y="25" width="870" height="358"/></clipPath><clipPath id="clip21"><rect x="33" y="25" width="870" height="358"/></clipPath><clipPath id="clip22"><rect x="33" y="25" width="870" height="358"/></clipPath><clipPath id="clip23"><rect x="33" y="25" width="870" height="358"/></clipPath><clipPath id="clip24"><rect x="33" y="25" width="870" height="358"/></clipPath><clipPath id="clip25"><rect x="33" y="25" width="870" height="358"/></clipPath><clipPath id="clip26"><rect x="33" y="25" width="870" height="358"/></clipPath><clipPath id="clip27"><rect x="33" y="25" width="870" height="358"/></clipPath><clipPath id="clip28"><rect x="33" y="25" width="870" height="358"/></clipPath><clipPath id="clip29"><rect x="33" y="25" width="870" height="358"/></clipPath><clipPath id="clip30"><rect x="33" y="25" width="870" height="358"/></clipPath><clipPath id="clip31"><rect x="33" y="25" width="870" height="358"/></clipPath><clipPath id="clip32"><rect x="33" y="25" width="870" height="358"/></clipPath><clipPath id="clip33"><rect x="33" y="25" width="870" height="358"/></clipPath><clipPath id="clip34"><rect x="33" y="25" width="870" height="358"/></clipPath><clipPath id="clip35"><rect x="33" y="25" width="870" height="358"/></clipPath><clipPath id="clip36"><rect x="33" y="25" width="870" height="358"/></clipPath><clipPath id="clip37"><rect x="33" y="25" width="870" height="358"/></clipPath><clipPath id="clip38"><rect x="33" y="25" width="870" height="358"/></clipPath><clipPath id="clip39"><rect x="33" y="25" width="870" height="358"/></clipPath><clipPath id="clip40"><rect x="33" y="25" width="870" height="358"/></clipPath><clipPath id="clip41"><rect x="-203" y="325" width="721" height="41"/></clipPath><clipPath id="clip42"><rect x="33" y="25" width="870" height="358"/></clipPath><clipPath id="clip43"><rect x="-203" y="325" width="721" height="41"/></clipPath><clipPath id="clip44"><rect x="33" y="25" width="870" height="358"/></clipPath><clipPath id="clip45"><rect x="-240" y="285" width="786" height="41"/></clipPath><clipPath id="clip46"><rect x="33" y="25" width="870" height="358"/></clipPath><clipPath id="clip47"><rect x="-240" y="285" width="786" height="41"/></clipPath><clipPath id="clip48"><rect x="33" y="25" width="870" height="358"/></clipPath><clipPath id="clip49"><rect x="-410" y="245" width="1084" height="41"/></clipPath><clipPath id="clip50"><rect x="33" y="25" width="870" height="358"/></clipPath><clipPath id="clip51"><rect x="-410" y="245" width="1084" height="41"/></clipPath><clipPath id="clip52"><rect x="33" y="25" width="870" height="358"/></clipPath><clipPath id="clip53"><rect x="-410" y="245" width="1084" height="41"/></clipPath><clipPath id="clip54"><rect x="33" y="25" width="870" height="358"/></clipPath><clipPath id="clip55"><rect x="-410" y="245" width="1084" height="41"/></clipPath><clipPath id="clip56"><rect x="33" y="25" width="870" height="358"/></clipPath><clipPath id="clip57"><rect x="-277" y="206" width="851" height="40"/></clipPath><clipPath id="clip58"><rect x="33" y="25" width="870" height="358"/></clipPath><clipPath id="clip59"><rect x="-277" y="206" width="851" height="40"/></clipPath><clipPath id="clip60"><rect x="33" y="25" width="870" height="358"/></clipPath><clipPath id="clip61"><rect x="-277" y="206" width="851" height="40"/></clipPath><clipPath id="clip62"><rect x="33" y="25" width="870" height="358"/></clipPath><clipPath id="clip63"><rect x="-277" y="206" width="851" height="40"/></clipPath><clipPath id="clip64"><rect x="33" y="25" width="870" height="358"/></clipPath><clipPath id="clip65"><rect x="-277" y="166" width="851" height="41"/></clipPath><clipPath id="clip66"><rect x="33" y="25" width="870" height="358"/></clipPath><clipPath id="clip67"><rect x="-277" y="166" width="851" height="41"/></clipPath><clipPath id="clip68"><rect x="33" y="25" width="870" height="358"/></clipPath><clipPath id="clip69"><rect x="-277" y="166" width="851" height="41"/></clipPath><clipPath id="clip70"><rect x="33" y="25" width="870" height="358"/></clipPath><clipPath id="clip71"><rect x="-277" y="166" width="851" height="41"/></clipPath><clipPath id="clip72"><rect x="33" y="25" width="870" height="358"/></clipPath><clipPath id="clip73"><rect x="-210" y="126" width="734" height="41"/></clipPath><clipPath id="clip74"><rect x="33" y="25" width="870" height="358"/></clipPath><clipPath id="clip75"><rect x="-210" y="126" width="734" height="41"/></clipPath><clipPath id="clip76"><rect x="33" y="25" width="871" height="359"/></clipPath><clipPath id="clip77"><rect x="-2446" y="27" width="5825" height="63"/></clipPath><clipPath id="clip78"><rect x="33" y="25" width="871" height="359"/></clipPath><clipPath id="clip79"><rect x="-2446" y="27" width="5825" height="63"/></clipPath><clipPath id="clip80"><rect x="33" y="25" width="871" height="359"/></clipPath><clipPath id="clip81"><rect x="-2446" y="27" width="5825" height="63"/></clipPath><clipPath id="clip82"><rect x="33" y="25" width="871" height="359"/></clipPath><clipPath id="clip83"><rect x="-2446" y="27" width="5825" height="63"/></clipPath><clipPath id="clip84"><rect x="33" y="25" width="871" height="359"/></clipPath><clipPath id="clip85"><rect x="-2446" y="27" width="5825" height="63"/></clipPath><clipPath id="clip86"><rect x="33" y="25" width="871" height="359"/></clipPath><clipPath id="clip87"><rect x="-2446" y="27" width="5825" height="63"/></clipPath><clipPath id="clip88"><rect x="33" y="25" width="871" height="359"/></clipPath><clipPath id="clip89"><rect x="-2446" y="27" width="5825" height="63"/></clipPath><clipPath id="clip90"><rect x="33" y="364" width="870" height="356"/></clipPath><clipPath id="clip91"><rect x="220" y="425" width="523" height="237"/></clipPath><clipPath id="clip92"><rect x="220" y="425" width="523" height="237"/></clipPath><clipPath id="clip93"><rect x="220" y="425" width="523" height="237"/></clipPath><clipPath id="clip94"><rect x="220" y="425" width="523" height="237"/></clipPath><clipPath id="clip95"><rect x="220" y="425" width="523" height="237"/></clipPath><clipPath id="clip96"><rect x="220" y="425" width="523" height="237"/></clipPath><clipPath id="clip97"><rect x="220" y="425" width="523" height="237"/></clipPath><clipPath id="clip98"><rect x="33" y="364" width="870" height="356"/></clipPath><clipPath id="clip99"><rect x="33" y="364" width="870" height="356"/></clipPath><clipPath id="clip100"><rect x="33" y="364" width="870" height="356"/></clipPath><clipPath id="clip101"><rect x="33" y="364" width="870" height="356"/></clipPath><clipPath id="clip102"><rect x="33" y="364" width="870" height="356"/></clipPath><clipPath id="clip103"><rect x="33" y="364" width="870" height="356"/></clipPath><clipPath id="clip104"><rect x="33" y="364" width="870" height="356"/></clipPath><clipPath id="clip105"><rect x="33" y="364" width="870" height="356"/></clipPath><clipPath id="clip106"><rect x="33" y="364" width="870" height="356"/></clipPath><clipPath id="clip107"><rect x="33" y="364" width="870" height="356"/></clipPath><clipPath id="clip108"><rect x="33" y="364" width="870" height="356"/></clipPath><clipPath id="clip109"><rect x="33" y="364" width="870" height="356"/></clipPath><clipPath id="clip110"><rect x="33" y="364" width="870" height="356"/></clipPath><clipPath id="clip111"><rect x="33" y="364" width="870" height="356"/></clipPath><clipPath id="clip112"><rect x="33" y="364" width="870" height="356"/></clipPath><clipPath id="clip113"><rect x="33" y="364" width="870" height="356"/></clipPath><clipPath id="clip114"><rect x="33" y="364" width="870" height="356"/></clipPath><clipPath id="clip115"><rect x="33" y="364" width="870" height="356"/></clipPath><clipPath id="clip116"><rect x="33" y="364" width="870" height="356"/></clipPath><clipPath id="clip117"><rect x="33" y="364" width="870" height="356"/></clipPath><clipPath id="clip118"><rect x="33" y="364" width="870" height="356"/></clipPath><clipPath id="clip119"><rect x="33" y="364" width="870" height="356"/></clipPath><clipPath id="clip120"><rect x="33" y="364" width="870" height="356"/></clipPath><clipPath id="clip121"><rect x="33" y="364" width="870" height="356"/></clipPath><clipPath id="clip122"><rect x="33" y="364" width="870" height="356"/></clipPath><clipPath id="clip123"><rect x="33" y="364" width="870" height="356"/></clipPath><clipPath id="clip124"><rect x="33" y="364" width="870" height="356"/></clipPath><clipPath id="clip125"><rect x="33" y="364" width="870" height="356"/></clipPath><clipPath id="clip126"><rect x="33" y="364" width="870" height="356"/></clipPath><clipPath id="clip127"><rect x="33" y="364" width="870" height="356"/></clipPath><clipPath id="clip128"><rect x="33" y="364" width="870" height="356"/></clipPath><clipPath id="clip129"><rect x="33" y="364" width="870" height="356"/></clipPath><clipPath id="clip130"><rect x="33" y="364" width="870" height="356"/></clipPath><clipPath id="clip131"><rect x="33" y="364" width="870" height="356"/></clipPath><clipPath id="clip132"><rect x="33" y="364" width="870" height="356"/></clipPath><clipPath id="clip133"><rect x="33" y="364" width="870" height="356"/></clipPath><clipPath id="clip134"><rect x="33" y="364" width="870" height="356"/></clipPath><clipPath id="clip135"><rect x="-203" y="621" width="721" height="40"/></clipPath><clipPath id="clip136"><rect x="33" y="364" width="870" height="356"/></clipPath><clipPath id="clip137"><rect x="-203" y="621" width="721" height="40"/></clipPath><clipPath id="clip138"><rect x="33" y="364" width="870" height="356"/></clipPath><clipPath id="clip139"><rect x="-240" y="581" width="786" height="41"/></clipPath><clipPath id="clip140"><rect x="33" y="364" width="870" height="356"/></clipPath><clipPath id="clip141"><rect x="-240" y="581" width="786" height="41"/></clipPath><clipPath id="clip142"><rect x="33" y="364" width="870" height="356"/></clipPath><clipPath id="clip143"><rect x="-410" y="542" width="1084" height="40"/></clipPath><clipPath id="clip144"><rect x="33" y="364" width="870" height="356"/></clipPath><clipPath id="clip145"><rect x="-410" y="542" width="1084" height="40"/></clipPath><clipPath id="clip146"><rect x="33" y="364" width="870" height="356"/></clipPath><clipPath id="clip147"><rect x="-410" y="542" width="1084" height="40"/></clipPath><clipPath id="clip148"><rect x="33" y="364" width="870" height="356"/></clipPath><clipPath id="clip149"><rect x="-410" y="542" width="1084" height="40"/></clipPath><clipPath id="clip150"><rect x="33" y="364" width="870" height="356"/></clipPath><clipPath id="clip151"><rect x="-277" y="502" width="851" height="41"/></clipPath><clipPath id="clip152"><rect x="33" y="364" width="870" height="356"/></clipPath><clipPath id="clip153"><rect x="-277" y="502" width="851" height="41"/></clipPath><clipPath id="clip154"><rect x="33" y="364" width="870" height="356"/></clipPath><clipPath id="clip155"><rect x="-277" y="502" width="851" height="41"/></clipPath><clipPath id="clip156"><rect x="33" y="364" width="870" height="356"/></clipPath><clipPath id="clip157"><rect x="-277" y="502" width="851" height="41"/></clipPath><clipPath id="clip158"><rect x="33" y="364" width="870" height="356"/></clipPath><clipPath id="clip159"><rect x="-277" y="463" width="851" height="40"/></clipPath><clipPath id="clip160"><rect x="33" y="364" width="870" height="356"/></clipPath><clipPath id="clip161"><rect x="-277" y="463" width="851" height="40"/></clipPath><clipPath id="clip162"><rect x="33" y="364" width="870" height="356"/></clipPath><clipPath id="clip163"><rect x="-277" y="463" width="851" height="40"/></clipPath><clipPath id="clip164"><rect x="33" y="364" width="870" height="356"/></clipPath><clipPath id="clip165"><rect x="-277" y="463" width="851" height="40"/></clipPath><clipPath id="clip166"><rect x="33" y="364" width="870" height="356"/></clipPath><clipPath id="clip167"><rect x="-210" y="423" width="734" height="41"/></clipPath><clipPath id="clip168"><rect x="33" y="364" width="870" height="356"/></clipPath><clipPath id="clip169"><rect x="-210" y="423" width="734" height="41"/></clipPath><clipPath id="clip170"><rect x="33" y="364" width="870" height="356"/></clipPath><clipPath id="clip171"><rect x="33" y="364" width="870" height="356"/></clipPath><clipPath id="clip172"><rect x="33" y="364" width="870" height="356"/></clipPath><clipPath id="clip173"><rect x="33" y="364" width="870" height="356"/></clipPath><clipPath id="clip174"><rect x="33" y="364" width="870" height="356"/></clipPath><clipPath id="clip175"><rect x="33" y="364" width="870" height="356"/></clipPath><clipPath id="clip176"><rect x="33" y="364" width="870" height="356"/></clipPath><clipPath id="clip177"><rect x="33" y="364" width="870" height="356"/></clipPath><clipPath id="clip178"><rect x="33" y="364" width="870" height="356"/></clipPath><clipPath id="clip179"><rect x="33" y="364" width="870" height="356"/></clipPath><clipPath id="clip180"><rect x="33" y="364" width="870" height="356"/></clipPath><clipPath id="clip181"><rect x="33" y="364" width="870" height="356"/></clipPath></defs><g clip-path="url(#clip0)" transform="translate(-33 -16)"><rect x="34" y="25" width="869" height="358" fill="#FFFFFF"/><g clip-path="url(#clip1)"><path d="M350.5 127.5 350.5 366.5M481.5 127.5 481.5 366.5M612.5 127.5 612.5 366.5M742.5 127.5 742.5 366.5" stroke="#D9D9D9" stroke-width="1.33333" stroke-linejoin="round" stroke-miterlimit="10" fill="none"/></g><g clip-path="url(#clip2)"><path d="M287.5 160.5 220.5 160.5 220.5 134.5 287.5 134.5Z" stroke="#000000" stroke-width="1.33333" stroke-linejoin="round" stroke-miterlimit="10" fill="#FFFFFF"/></g><g clip-path="url(#clip3)"><path d="M242.5 359.5 220.5 359.5 220.5 333.5 242.5 333.5ZM299.5 319.5 220.5 319.5 220.5 293.5 299.5 293.5ZM292.5 280.5 220.5 280.5 220.5 254.5 292.5 254.5ZM286.5 240.5 220.5 240.5 220.5 214.5 286.5 214.5ZM251.5 200.5 220.5 200.5 220.5 174.5 251.5 174.5Z" stroke="#000000" stroke-width="1.33333" stroke-linejoin="round" stroke-miterlimit="10" fill="#FFFFFF"/></g><g clip-path="url(#clip4)"><path d="M347.5 160.5 287.5 160.5 287.5 134.5 347.5 134.5Z" stroke="#000000" stroke-width="1.33333" stroke-linejoin="round" stroke-miterlimit="10" fill="#F1F8FD"/></g><g clip-path="url(#clip5)"><path d="M288.5 359.5 242.5 359.5 242.5 333.5 288.5 333.5ZM359.5 319.5 299.5 319.5 299.5 293.5 359.5 293.5ZM346.5 280.5 292.5 280.5 292.5 254.5 346.5 254.5ZM372.5 240.5 286.5 240.5 286.5 214.5 372.5 214.5ZM294.5 200.5 251.5 200.5 251.5 174.5 294.5 174.5Z" stroke="#000000" stroke-width="1.33333" stroke-linejoin="round" stroke-miterlimit="10" fill="#F1F8FD"/></g><g clip-path="url(#clip6)"><path d="M379.5 359.5 288.5 359.5 288.5 333.5 379.5 333.5ZM483.5 319.5 359.5 319.5 359.5 293.5 483.5 293.5ZM475.5 280.5 346.5 280.5 346.5 254.5 475.5 254.5ZM503.5 240.5 372.5 240.5 372.5 214.5 503.5 214.5ZM367.5 200.5 294.5 200.5 294.5 174.5 367.5 174.5ZM466.5 160.5 347.5 160.5 347.5 134.5 466.5 134.5Z" stroke="#000000" stroke-width="1.33333" stroke-linejoin="round" stroke-miterlimit="10" fill="#C2DDF6"/></g><g clip-path="url(#clip7)"><path d="M561.5 359.5 379.5 359.5 379.5 333.5 561.5 333.5ZM621.5 319.5 483.5 319.5 483.5 293.5 621.5 293.5ZM629.5 280.5 475.5 280.5 475.5 254.5 629.5 254.5ZM633.5 240.5 503.5 240.5 503.5 214.5 633.5 214.5ZM532.5 200.5 367.5 200.5 367.5 174.5 532.5 174.5ZM611.5 160.5 466.5 160.5 466.5 134.5 611.5 134.5Z" stroke="#000000" stroke-width="1.33333" stroke-linejoin="round" stroke-miterlimit="10" fill="#9ECBF0"/></g><g clip-path="url(#clip8)"><path d="M742.5 359.5 561.5 359.5 561.5 333.5 742.5 333.5ZM742.5 319.5 621.5 319.5 621.5 293.5 742.5 293.5ZM742.5 280.5 629.5 280.5 629.5 254.5 742.5 254.5ZM742.5 240.5 633.5 240.5 633.5 214.5 742.5 214.5ZM742.5 200.5 532.5 200.5 532.5 174.5 742.5 174.5ZM742.5 160.5 611.5 160.5 611.5 134.5 742.5 134.5Z" stroke="#000000" stroke-width="1.33333" stroke-linejoin="round" stroke-miterlimit="10" fill="#095085"/></g><g clip-path="url(#clip9)"><path d="M0 0 0.000104987 239" stroke="#D9D9D9" stroke-linejoin="round" stroke-miterlimit="10" fill="none" fill-rule="evenodd" transform="matrix(1 0 0 -1 220.5 366.5)"/></g><g clip-path="url(#clip10)"><text fill="#404040" font-family="Yu Gothic,Yu Gothic_MSFontService,sans-serif" font-weight="700" font-size="16" transform="translate(226.949 352)">1</text></g><g clip-path="url(#clip11)"><text fill="#404040" font-family="Yu Gothic,Yu Gothic_MSFontService,sans-serif" font-weight="700" font-size="16" transform="translate(246.164 313)">115</text></g><g clip-path="url(#clip12)"><text fill="#404040" font-family="Yu Gothic,Yu Gothic_MSFontService,sans-serif" font-weight="700" font-size="16" transform="translate(247.182 273)">63</text></g><g clip-path="url(#clip13)"><text fill="#404040" font-family="Yu Gothic,Yu Gothic_MSFontService,sans-serif" font-weight="700" font-size="16" transform="translate(244.305 233)">39</text></g><g clip-path="url(#clip14)"><text fill="#404040" font-family="Yu Gothic,Yu Gothic_MSFontService,sans-serif" font-weight="700" font-size="16" transform="translate(226.544 193)">16</text></g><g clip-path="url(#clip15)"><text fill="#404040" font-family="Yu Gothic,Yu Gothic_MSFontService,sans-serif" font-weight="700" font-size="16" transform="translate(240.216 153)">234</text></g><g clip-path="url(#clip16)"><text fill="#404040" font-family="Yu Gothic,Yu Gothic_MSFontService,sans-serif" font-weight="700" font-size="16" transform="translate(261.033 352)">2</text></g><g clip-path="url(#clip17)"><text fill="#404040" font-family="Yu Gothic,Yu Gothic_MSFontService,sans-serif" font-weight="700" font-size="16" transform="translate(320.225 313)">86</text></g><g clip-path="url(#clip18)"><text fill="#404040" font-family="Yu Gothic,Yu Gothic_MSFontService,sans-serif" font-weight="700" font-size="16" transform="translate(310.356 273)">47</text></g><g clip-path="url(#clip19)"><text fill="#404040" font-family="Yu Gothic,Yu Gothic_MSFontService,sans-serif" font-weight="700" font-size="16" transform="translate(320.307 233)">50</text></g><g clip-path="url(#clip20)"><text fill="#404040" font-family="Yu Gothic,Yu Gothic_MSFontService,sans-serif" font-weight="700" font-size="16" transform="translate(263.457 193)">22</text></g><g clip-path="url(#clip21)"><text fill="#404040" font-family="Yu Gothic,Yu Gothic_MSFontService,sans-serif" font-weight="700" font-size="16" transform="translate(303.918 153)">207</text></g><g clip-path="url(#clip22)"><text fill="#404040" font-family="Yu Gothic,Yu Gothic_MSFontService,sans-serif" font-weight="700" font-size="16" transform="translate(329.2 352)">4</text></g><g clip-path="url(#clip23)"><text fill="#404040" font-family="Yu Gothic,Yu Gothic_MSFontService,sans-serif" font-weight="700" font-size="16" transform="translate(407.581 313)">180</text></g><g clip-path="url(#clip24)"><text fill="#404040" font-family="Yu Gothic,Yu Gothic_MSFontService,sans-serif" font-weight="700" font-size="16" transform="translate(397.084 273)">112</text></g><g clip-path="url(#clip25)"><text fill="#404040" font-family="Yu Gothic,Yu Gothic_MSFontService,sans-serif" font-weight="700" font-size="16" transform="translate(428.758 233)">77</text></g><g clip-path="url(#clip26)"><text fill="#404040" font-family="Yu Gothic,Yu Gothic_MSFontService,sans-serif" font-weight="700" font-size="16" transform="translate(321.742 193)">38</text></g><g clip-path="url(#clip27)"><text fill="#404040" font-family="Yu Gothic,Yu Gothic_MSFontService,sans-serif" font-weight="700" font-size="16" transform="translate(393.187 153)">411</text></g><g clip-path="url(#clip28)"><text fill="#404040" font-family="Yu Gothic,Yu Gothic_MSFontService,sans-serif" font-weight="700" font-size="16" transform="translate(465.535 352)">8</text></g><g clip-path="url(#clip29)"><text fill="#404040" font-family="Yu Gothic,Yu Gothic_MSFontService,sans-serif" font-weight="700" font-size="16" transform="translate(538.581 313)">199</text></g><g clip-path="url(#clip30)"><text fill="#404040" font-family="Yu Gothic,Yu Gothic_MSFontService,sans-serif" font-weight="700" font-size="16" transform="translate(538.363 273)">134</text></g><g clip-path="url(#clip31)"><text fill="#404040" font-family="Yu Gothic,Yu Gothic_MSFontService,sans-serif" font-weight="700" font-size="16" transform="translate(559.413 233)">76</text></g><g clip-path="url(#clip32)"><text fill="#404040" font-family="Yu Gothic,Yu Gothic_MSFontService,sans-serif" font-weight="700" font-size="16" transform="translate(441.225 193)">85</text></g><g clip-path="url(#clip33)"><text fill="#404040" font-family="Yu Gothic,Yu Gothic_MSFontService,sans-serif" font-weight="700" font-size="16" transform="translate(525.07 153)">502</text></g><g clip-path="url(#clip34)"><text fill="#FFFFFF" font-family="Yu Gothic,Yu Gothic_MSFontService,sans-serif" font-weight="700" font-size="16" transform="translate(647.315 352)">8</text></g><g clip-path="url(#clip35)"><text fill="#FFFFFF" font-family="Yu Gothic,Yu Gothic_MSFontService,sans-serif" font-weight="700" font-size="16" transform="translate(668.198 313)">176</text></g><g clip-path="url(#clip36)"><text fill="#FFFFFF" font-family="Yu Gothic,Yu Gothic_MSFontService,sans-serif" font-weight="700" font-size="16" transform="translate(676.763 273)">99</text></g><g clip-path="url(#clip37)"><text fill="#FFFFFF" font-family="Yu Gothic,Yu Gothic_MSFontService,sans-serif" font-weight="700" font-size="16" transform="translate(678.966 233)">64</text></g><g clip-path="url(#clip38)"><text fill="#FFFFFF" font-family="Yu Gothic,Yu Gothic_MSFontService,sans-serif" font-weight="700" font-size="16" transform="translate(624.12 193)">108</text></g><g clip-path="url(#clip39)"><text fill="#FFFFFF" font-family="Yu Gothic,Yu Gothic_MSFontService,sans-serif" font-weight="700" font-size="16" transform="translate(663.308 153)">455</text></g><g clip-path="url(#clip40)"><g clip-path="url(#clip41)"><text fill="#595959" font-family="Yu Gothic,Yu Gothic_MSFontService,sans-serif" font-weight="500" font-size="17" transform="translate(106.436 352)">その他</text></g></g><g clip-path="url(#clip42)"><g clip-path="url(#clip43)"><text fill="#595959" font-family="Yu Gothic,Yu Gothic_MSFontService,sans-serif" font-weight="500" font-size="17" transform="translate(156.436 352)">(n=23)</text></g></g><g clip-path="url(#clip44)"><g clip-path="url(#clip45)"><text fill="#595959" font-family="Yu Gothic,Yu Gothic_MSFontService,sans-serif" font-weight="500" font-size="17" transform="translate(97.1823 312)">大学院</text></g></g><g clip-path="url(#clip46)"><g clip-path="url(#clip47)"><text fill="#595959" font-family="Yu Gothic,Yu Gothic_MSFontService,sans-serif" font-weight="500" font-size="17" transform="translate(147.182 312)">(n=756)</text></g></g><g clip-path="url(#clip48)"><g clip-path="url(#clip49)"><text fill="#595959" font-family="Yu Gothic,Yu Gothic_MSFontService,sans-serif" font-weight="500" font-size="17" transform="translate(54.5956 272)">学部</text></g></g><g clip-path="url(#clip50)"><g clip-path="url(#clip51)"><text fill="#595959" font-family="Yu Gothic,Yu Gothic_MSFontService,sans-serif" font-weight="500" font-size="17" transform="translate(87.929 272)">3</text></g></g><g clip-path="url(#clip52)"><g clip-path="url(#clip53)"><text fill="#595959" font-family="Yu Gothic,Yu Gothic_MSFontService,sans-serif" font-weight="500" font-size="17" transform="translate(97.1823 272)">年以上</text></g></g><g clip-path="url(#clip54)"><g clip-path="url(#clip55)"><text fill="#595959" font-family="Yu Gothic,Yu Gothic_MSFontService,sans-serif" font-weight="500" font-size="17" transform="translate(147.182 272)">(n=455)</text></g></g><g clip-path="url(#clip56)"><g clip-path="url(#clip57)"><text fill="#595959" font-family="Yu Gothic,Yu Gothic_MSFontService,sans-serif" font-weight="500" font-size="17" transform="translate(87.929 232)">学部</text></g></g><g clip-path="url(#clip58)"><g clip-path="url(#clip59)"><text fill="#595959" font-family="Yu Gothic,Yu Gothic_MSFontService,sans-serif" font-weight="500" font-size="17" transform="translate(121.262 232)">2</text></g></g><g clip-path="url(#clip60)"><g clip-path="url(#clip61)"><text fill="#595959" font-family="Yu Gothic,Yu Gothic_MSFontService,sans-serif" font-weight="500" font-size="17" transform="translate(130.516 232)">年</text></g></g><g clip-path="url(#clip62)"><g clip-path="url(#clip63)"><text fill="#595959" font-family="Yu Gothic,Yu Gothic_MSFontService,sans-serif" font-weight="500" font-size="17" transform="translate(147.182 232)">(n=306)</text></g></g><g clip-path="url(#clip64)"><g clip-path="url(#clip65)"><text fill="#595959" font-family="Yu Gothic,Yu Gothic_MSFontService,sans-serif" font-weight="500" font-size="17" transform="translate(87.929 192)">学部</text></g></g><g clip-path="url(#clip66)"><g clip-path="url(#clip67)"><text fill="#595959" font-family="Yu Gothic,Yu Gothic_MSFontService,sans-serif" font-weight="500" font-size="17" transform="translate(121.262 192)">1</text></g></g><g clip-path="url(#clip68)"><g clip-path="url(#clip69)"><text fill="#595959" font-family="Yu Gothic,Yu Gothic_MSFontService,sans-serif" font-weight="500" font-size="17" transform="translate(130.516 192)">年</text></g></g><g clip-path="url(#clip70)"><g clip-path="url(#clip71)"><text fill="#595959" font-family="Yu Gothic,Yu Gothic_MSFontService,sans-serif" font-weight="500" font-size="17" transform="translate(147.182 192)">(n=269)</text></g></g><g clip-path="url(#clip72)"><g clip-path="url(#clip73)"><text fill="#595959" font-family="Yu Gothic,Yu Gothic_MSFontService,sans-serif" font-weight="500" font-size="17" transform="translate(104.596 153)">全体</text></g></g><g clip-path="url(#clip74)"><g clip-path="url(#clip75)"><text fill="#595959" font-family="Yu Gothic,Yu Gothic_MSFontService,sans-serif" font-weight="500" font-size="17" transform="translate(137.929 153)">(n=1809)</text></g></g><g clip-path="url(#clip76)"><g clip-path="url(#clip77)"><text font-family="Yu Gothic,Yu Gothic_MSFontService,sans-serif" font-weight="500" font-size="21" transform="translate(50.9374 52)">【</text></g></g><g clip-path="url(#clip78)"><g clip-path="url(#clip79)"><text font-family="Yu Gothic,Yu Gothic_MSFontService,sans-serif" font-weight="500" font-size="21" transform="translate(72.2708 52)">心理面の印象</text></g></g><g clip-path="url(#clip80)"><g clip-path="url(#clip81)"><text font-family="Yu Gothic,Yu Gothic_MSFontService,sans-serif" font-weight="500" font-size="21" transform="translate(200.271 52)">】</text></g></g><g clip-path="url(#clip82)"><g clip-path="url(#clip83)"><text font-family="Yu Gothic,Yu Gothic_MSFontService,sans-serif" font-weight="500" font-size="21" transform="translate(221.604 52)">各セメスターを振り返って，友達との交流が少なくなること</text></g></g><g clip-path="url(#clip84)"><g clip-path="url(#clip85)"><text font-family="Yu Gothic,Yu Gothic_MSFontService,sans-serif" font-weight="500" font-size="21" transform="translate(797.604 52)">の不安</text></g></g><g clip-path="url(#clip86)"><g clip-path="url(#clip87)"><text font-family="Yu Gothic,Yu Gothic_MSFontService,sans-serif" font-weight="500" font-size="21" transform="translate(861.604 52)">・</text></g></g><g clip-path="url(#clip88)"><g clip-path="url(#clip89)"><text font-family="Yu Gothic,Yu Gothic_MSFontService,sans-serif" font-weight="500" font-size="21" transform="translate(50.9374 77)">苦痛をどれだけ感じていたかについて教えてください．</text></g></g><rect x="34" y="365" width="869" height="355" fill="#FFFFFF"/><g clip-path="url(#clip90)"><path d="M350.5 425.5 350.5 661.5M481.5 425.5 481.5 661.5M612.5 425.5 612.5 661.5M742.5 425.5 742.5 661.5" stroke="#D9D9D9" stroke-width="1.33333" stroke-linejoin="round" stroke-miterlimit="10" fill="none"/></g><g clip-path="url(#clip91)"><path d="M284.5 457.5 220.5 457.5 220.5 431.5 284.5 431.5Z" stroke="#000000" stroke-width="1.33333" stroke-linejoin="round" stroke-miterlimit="10" fill="#FFFFFF"/></g><g clip-path="url(#clip92)"><path d="M241.5 655.5 220.5 655.5 220.5 629.5 241.5 629.5ZM295.5 615.5 220.5 615.5 220.5 589.5 295.5 589.5ZM294.5 576.5 220.5 576.5 220.5 550.5 294.5 550.5ZM274.5 536.5 220.5 536.5 220.5 510.5 274.5 510.5ZM249.5 497.5 220.5 497.5 220.5 471.5 249.5 471.5Z" stroke="#000000" stroke-width="1.33333" stroke-linejoin="round" stroke-miterlimit="10" fill="#FFFFFF"/></g><g clip-path="url(#clip93)"><path d="M346.5 457.5 284.5 457.5 284.5 431.5 346.5 431.5Z" stroke="#000000" stroke-width="1.33333" stroke-linejoin="round" stroke-miterlimit="10" fill="#F1F8FD"/></g><g clip-path="url(#clip94)"><path d="M282.5 655.5 241.5 655.5 241.5 629.5 282.5 629.5ZM360.5 615.5 295.5 615.5 295.5 589.5 360.5 589.5ZM360.5 576.5 294.5 576.5 294.5 550.5 360.5 550.5ZM322.5 536.5 274.5 536.5 274.5 510.5 322.5 510.5ZM315.5 497.5 249.5 497.5 249.5 471.5 315.5 471.5Z" stroke="#000000" stroke-width="1.33333" stroke-linejoin="round" stroke-miterlimit="10" fill="#F1F8FD"/></g><g clip-path="url(#clip95)"><path d="M387.5 655.5 282.5 655.5 282.5 629.5 387.5 629.5ZM485.5 615.5 360.5 615.5 360.5 589.5 485.5 589.5ZM493.5 576.5 360.5 576.5 360.5 550.5 493.5 550.5ZM439.5 536.5 322.5 536.5 322.5 510.5 439.5 510.5ZM459.5 497.5 315.5 497.5 315.5 471.5 459.5 471.5ZM474.5 457.5 346.5 457.5 346.5 431.5 474.5 431.5Z" stroke="#000000" stroke-width="1.33333" stroke-linejoin="round" stroke-miterlimit="10" fill="#C2DDF6"/></g><g clip-path="url(#clip96)"><path d="M596.5 655.5 387.5 655.5 387.5 629.5 596.5 629.5ZM629.5 615.5 485.5 615.5 485.5 589.5 629.5 589.5ZM639.5 576.5 493.5 576.5 493.5 550.5 639.5 550.5ZM608.5 536.5 439.5 536.5 439.5 510.5 608.5 510.5ZM612.5 497.5 459.5 497.5 459.5 471.5 612.5 471.5ZM625.5 457.5 474.5 457.5 474.5 431.5 625.5 431.5Z" stroke="#000000" stroke-width="1.33333" stroke-linejoin="round" stroke-miterlimit="10" fill="#9ECBF0"/></g><g clip-path="url(#clip97)"><path d="M742.5 655.5 596.5 655.5 596.5 629.5 742.5 629.5ZM742.5 615.5 629.5 615.5 629.5 589.5 742.5 589.5ZM742.5 576.5 639.5 576.5 639.5 550.5 742.5 550.5ZM742.5 536.5 608.5 536.5 608.5 510.5 742.5 510.5ZM742.5 497.5 612.5 497.5 612.5 471.5 742.5 471.5ZM742.5 457.5 625.5 457.5 625.5 431.5 742.5 431.5Z" stroke="#000000" stroke-width="1.33333" stroke-linejoin="round" stroke-miterlimit="10" fill="#095085"/></g><g clip-path="url(#clip98)"><path d="M0 0 0.000104987 236" stroke="#D9D9D9" stroke-linejoin="round" stroke-miterlimit="10" fill="none" fill-rule="evenodd" transform="matrix(1 0 0 -1 220.5 661.5)"/></g><g clip-path="url(#clip99)"><text fill="#404040" font-family="Yu Gothic,Yu Gothic_MSFontService,sans-serif" font-weight="700" font-size="16" transform="translate(226.04 648)">1</text></g><g clip-path="url(#clip100)"><text fill="#404040" font-family="Yu Gothic,Yu Gothic_MSFontService,sans-serif" font-weight="700" font-size="16" transform="translate(244.194 608)">108</text></g><g clip-path="url(#clip101)"><text fill="#404040" font-family="Yu Gothic,Yu Gothic_MSFontService,sans-serif" font-weight="700" font-size="16" transform="translate(248.165 569)">64</text></g><g clip-path="url(#clip102)"><text fill="#404040" font-family="Yu Gothic,Yu Gothic_MSFontService,sans-serif" font-weight="700" font-size="16" transform="translate(238.003 529)">31</text></g><g clip-path="url(#clip103)"><text fill="#404040" font-family="Yu Gothic,Yu Gothic_MSFontService,sans-serif" font-weight="700" font-size="16" transform="translate(225.572 490)">15</text></g><g clip-path="url(#clip104)"><text fill="#404040" font-family="Yu Gothic,Yu Gothic_MSFontService,sans-serif" font-weight="700" font-size="16" transform="translate(238.367 450)">219</text></g><g clip-path="url(#clip105)"><text fill="#404040" font-family="Yu Gothic,Yu Gothic_MSFontService,sans-serif" font-weight="700" font-size="16" transform="translate(257.397 648)">2</text></g><g clip-path="url(#clip106)"><text fill="#404040" font-family="Yu Gothic,Yu Gothic_MSFontService,sans-serif" font-weight="700" font-size="16" transform="translate(319.093 608)">93</text></g><g clip-path="url(#clip107)"><text fill="#404040" font-family="Yu Gothic,Yu Gothic_MSFontService,sans-serif" font-weight="700" font-size="16" transform="translate(318.428 569)">57</text></g><g clip-path="url(#clip108)"><text fill="#404040" font-family="Yu Gothic,Yu Gothic_MSFontService,sans-serif" font-weight="700" font-size="16" transform="translate(289.394 529)">28</text></g><g clip-path="url(#clip109)"><text fill="#404040" font-family="Yu Gothic,Yu Gothic_MSFontService,sans-serif" font-weight="700" font-size="16" transform="translate(273.171 490)">34</text></g><g clip-path="url(#clip110)"><text fill="#404040" font-family="Yu Gothic,Yu Gothic_MSFontService,sans-serif" font-weight="700" font-size="16" transform="translate(301.542 450)">214</text></g><g clip-path="url(#clip111)"><text fill="#404040" font-family="Yu Gothic,Yu Gothic_MSFontService,sans-serif" font-weight="700" font-size="16" transform="translate(330.564 648)">5</text></g><g clip-path="url(#clip112)"><text fill="#404040" font-family="Yu Gothic,Yu Gothic_MSFontService,sans-serif" font-weight="700" font-size="16" transform="translate(409.305 608)">178</text></g><g clip-path="url(#clip113)"><text fill="#404040" font-family="Yu Gothic,Yu Gothic_MSFontService,sans-serif" font-weight="700" font-size="16" transform="translate(413.139 569)">114</text></g><g clip-path="url(#clip114)"><text fill="#404040" font-family="Yu Gothic,Yu Gothic_MSFontService,sans-serif" font-weight="700" font-size="16" transform="translate(372.142 529)">67</text></g><g clip-path="url(#clip115)"><text fill="#404040" font-family="Yu Gothic,Yu Gothic_MSFontService,sans-serif" font-weight="700" font-size="16" transform="translate(378.083 490)">74</text></g><g clip-path="url(#clip116)"><text fill="#404040" font-family="Yu Gothic,Yu Gothic_MSFontService,sans-serif" font-weight="700" font-size="16" transform="translate(396.669 450)">438</text></g><g clip-path="url(#clip117)"><text fill="#404040" font-family="Yu Gothic,Yu Gothic_MSFontService,sans-serif" font-weight="700" font-size="16" transform="translate(482.762 648)">10</text></g><g clip-path="url(#clip118)"><text fill="#404040" font-family="Yu Gothic,Yu Gothic_MSFontService,sans-serif" font-weight="700" font-size="16" transform="translate(543.632 608)">206</text></g><g clip-path="url(#clip119)"><text fill="#404040" font-family="Yu Gothic,Yu Gothic_MSFontService,sans-serif" font-weight="700" font-size="16" transform="translate(552.503 569)">126</text></g><g clip-path="url(#clip120)"><text fill="#404040" font-family="Yu Gothic,Yu Gothic_MSFontService,sans-serif" font-weight="700" font-size="16" transform="translate(514.99 529)">97</text></g><g clip-path="url(#clip121)"><text fill="#404040" font-family="Yu Gothic,Yu Gothic_MSFontService,sans-serif" font-weight="700" font-size="16" transform="translate(526.709 490)">79</text></g><g clip-path="url(#clip122)"><text fill="#404040" font-family="Yu Gothic,Yu Gothic_MSFontService,sans-serif" font-weight="700" font-size="16" transform="translate(536.151 450)">518</text></g><g clip-path="url(#clip123)"><text fill="#FFFFFF" font-family="Yu Gothic,Yu Gothic_MSFontService,sans-serif" font-weight="700" font-size="16" transform="translate(665.039 648)">7</text></g><g clip-path="url(#clip124)"><text fill="#FFFFFF" font-family="Yu Gothic,Yu Gothic_MSFontService,sans-serif" font-weight="700" font-size="16" transform="translate(672.363 608)">162</text></g><g clip-path="url(#clip125)"><text fill="#FFFFFF" font-family="Yu Gothic,Yu Gothic_MSFontService,sans-serif" font-weight="700" font-size="16" transform="translate(681.938 569)">89</text></g><g clip-path="url(#clip126)"><text fill="#FFFFFF" font-family="Yu Gothic,Yu Gothic_MSFontService,sans-serif" font-weight="700" font-size="16" transform="translate(666.549 529)">77</text></g><g clip-path="url(#clip127)"><text fill="#FFFFFF" font-family="Yu Gothic,Yu Gothic_MSFontService,sans-serif" font-weight="700" font-size="16" transform="translate(668.534 490)">67</text></g><g clip-path="url(#clip128)"><text fill="#FFFFFF" font-family="Yu Gothic,Yu Gothic_MSFontService,sans-serif" font-weight="700" font-size="16" transform="translate(670.38 450)">402</text></g><g clip-path="url(#clip129)"><text fill="#595959" font-family="Yu Gothic,Yu Gothic_MSFontService,sans-serif" font-weight="500" font-size="17" transform="translate(208.394 690)">0%</text></g><g clip-path="url(#clip130)"><text fill="#595959" font-family="Yu Gothic,Yu Gothic_MSFontService,sans-serif" font-weight="500" font-size="17" transform="translate(334.239 690)">25%</text></g><g clip-path="url(#clip131)"><text fill="#595959" font-family="Yu Gothic,Yu Gothic_MSFontService,sans-serif" font-weight="500" font-size="17" transform="translate(464.893 690)">50%</text></g><g clip-path="url(#clip132)"><text fill="#595959" font-family="Yu Gothic,Yu Gothic_MSFontService,sans-serif" font-weight="500" font-size="17" transform="translate(595.548 690)">75%</text></g><g clip-path="url(#clip133)"><text fill="#595959" font-family="Yu Gothic,Yu Gothic_MSFontService,sans-serif" font-weight="500" font-size="17" transform="translate(721.392 690)">100%</text></g><g clip-path="url(#clip134)"><g clip-path="url(#clip135)"><text fill="#595959" font-family="Yu Gothic,Yu Gothic_MSFontService,sans-serif" font-weight="500" font-size="17" transform="translate(106.436 647)">その他</text></g></g><g clip-path="url(#clip136)"><g clip-path="url(#clip137)"><text fill="#595959" font-family="Yu Gothic,Yu Gothic_MSFontService,sans-serif" font-weight="500" font-size="17" transform="translate(156.436 647)">(n=25)</text></g></g><g clip-path="url(#clip138)"><g clip-path="url(#clip139)"><text fill="#595959" font-family="Yu Gothic,Yu Gothic_MSFontService,sans-serif" font-weight="500" font-size="17" transform="translate(97.1823 608)">大学院</text></g></g><g clip-path="url(#clip140)"><g clip-path="url(#clip141)"><text fill="#595959" font-family="Yu Gothic,Yu Gothic_MSFontService,sans-serif" font-weight="500" font-size="17" transform="translate(147.182 608)">(n=747)</text></g></g><g clip-path="url(#clip142)"><g clip-path="url(#clip143)"><text fill="#595959" font-family="Yu Gothic,Yu Gothic_MSFontService,sans-serif" font-weight="500" font-size="17" transform="translate(54.5956 568)">学部</text></g></g><g clip-path="url(#clip144)"><g clip-path="url(#clip145)"><text fill="#595959" font-family="Yu Gothic,Yu Gothic_MSFontService,sans-serif" font-weight="500" font-size="17" transform="translate(87.929 568)">3</text></g></g><g clip-path="url(#clip146)"><g clip-path="url(#clip147)"><text fill="#595959" font-family="Yu Gothic,Yu Gothic_MSFontService,sans-serif" font-weight="500" font-size="17" transform="translate(97.1823 568)">年以上</text></g></g><g clip-path="url(#clip148)"><g clip-path="url(#clip149)"><text fill="#595959" font-family="Yu Gothic,Yu Gothic_MSFontService,sans-serif" font-weight="500" font-size="17" transform="translate(147.182 568)">(n=450)</text></g></g><g clip-path="url(#clip150)"><g clip-path="url(#clip151)"><text fill="#595959" font-family="Yu Gothic,Yu Gothic_MSFontService,sans-serif" font-weight="500" font-size="17" transform="translate(87.929 529)">学部</text></g></g><g clip-path="url(#clip152)"><g clip-path="url(#clip153)"><text fill="#595959" font-family="Yu Gothic,Yu Gothic_MSFontService,sans-serif" font-weight="500" font-size="17" transform="translate(121.262 529)">2</text></g></g><g clip-path="url(#clip154)"><g clip-path="url(#clip155)"><text fill="#595959" font-family="Yu Gothic,Yu Gothic_MSFontService,sans-serif" font-weight="500" font-size="17" transform="translate(130.516 529)">年</text></g></g><g clip-path="url(#clip156)"><g clip-path="url(#clip157)"><text fill="#595959" font-family="Yu Gothic,Yu Gothic_MSFontService,sans-serif" font-weight="500" font-size="17" transform="translate(147.182 529)">(n=300)</text></g></g><g clip-path="url(#clip158)"><g clip-path="url(#clip159)"><text fill="#595959" font-family="Yu Gothic,Yu Gothic_MSFontService,sans-serif" font-weight="500" font-size="17" transform="translate(87.929 489)">学部</text></g></g><g clip-path="url(#clip160)"><g clip-path="url(#clip161)"><text fill="#595959" font-family="Yu Gothic,Yu Gothic_MSFontService,sans-serif" font-weight="500" font-size="17" transform="translate(121.262 489)">1</text></g></g><g clip-path="url(#clip162)"><g clip-path="url(#clip163)"><text fill="#595959" font-family="Yu Gothic,Yu Gothic_MSFontService,sans-serif" font-weight="500" font-size="17" transform="translate(130.516 489)">年</text></g></g><g clip-path="url(#clip164)"><g clip-path="url(#clip165)"><text fill="#595959" font-family="Yu Gothic,Yu Gothic_MSFontService,sans-serif" font-weight="500" font-size="17" transform="translate(147.182 489)">(n=269)</text></g></g><g clip-path="url(#clip166)"><g clip-path="url(#clip167)"><text fill="#595959" font-family="Yu Gothic,Yu Gothic_MSFontService,sans-serif" font-weight="500" font-size="17" transform="translate(104.596 450)">全体</text></g></g><g clip-path="url(#clip168)"><g clip-path="url(#clip169)"><text fill="#595959" font-family="Yu Gothic,Yu Gothic_MSFontService,sans-serif" font-weight="500" font-size="17" transform="translate(137.929 450)">(n=1791)</text></g></g><g clip-path="url(#clip170)"><rect x="762.5" y="452.5" width="8" height="8" stroke="#000000" stroke-width="1.33333" stroke-linejoin="round" stroke-miterlimit="10" fill="#FFFFFF"/></g><g clip-path="url(#clip171)"><text fill="#595959" font-family="Yu Gothic,Yu Gothic_MSFontService,sans-serif" font-weight="500" font-size="15" transform="translate(774.687 460)">全く感じていな</text></g><g clip-path="url(#clip172)"><text fill="#595959" font-family="Yu Gothic,Yu Gothic_MSFontService,sans-serif" font-weight="500" font-size="15" transform="translate(774.687 485)">かった</text></g><g clip-path="url(#clip173)"><rect x="762.5" y="498.5" width="8" height="8" stroke="#000000" stroke-width="1.33333" stroke-linejoin="round" stroke-miterlimit="10" fill="#F1F8FD"/></g><g clip-path="url(#clip174)"><text fill="#595959" font-family="Yu Gothic,Yu Gothic_MSFontService,sans-serif" font-weight="500" font-size="15" transform="translate(774.687 506)">ほとんど感じてい</text></g><g clip-path="url(#clip175)"><text fill="#595959" font-family="Yu Gothic,Yu Gothic_MSFontService,sans-serif" font-weight="500" font-size="15" transform="translate(774.687 531)">なかった</text></g><g clip-path="url(#clip176)"><rect x="762.5" y="544.5" width="8" height="8" stroke="#000000" stroke-width="1.33333" stroke-linejoin="round" stroke-miterlimit="10" fill="#C2DDF6"/></g><g clip-path="url(#clip177)"><text fill="#595959" font-family="Yu Gothic,Yu Gothic_MSFontService,sans-serif" font-weight="500" font-size="15" transform="translate(774.687 552)">少し感じていた</text></g><g clip-path="url(#clip178)"><rect x="762.5" y="589.5" width="8" height="9" stroke="#000000" stroke-width="1.33333" stroke-linejoin="round" stroke-miterlimit="10" fill="#9ECBF0"/></g><g clip-path="url(#clip179)"><text fill="#595959" font-family="Yu Gothic,Yu Gothic_MSFontService,sans-serif" font-weight="500" font-size="15" transform="translate(774.687 598)">かなり感じていた</text></g><g clip-path="url(#clip180)"><rect x="762.5" y="635.5" width="8" height="9" stroke="#000000" stroke-width="1.33333" stroke-linejoin="round" stroke-miterlimit="10" fill="#095085"/></g><g clip-path="url(#clip181)"><text fill="#595959" font-family="Yu Gothic,Yu Gothic_MSFontService,sans-serif" font-weight="500" font-size="15" transform="translate(774.687 644)">深刻に感じていた</text></g><rect x="34.5001" y="17.5001" width="869" height="689" stroke="#000000" stroke-width="1.33333" stroke-miterlimit="8" fill="none"/><text font-family="Yu Gothic,Yu Gothic_MSFontService,sans-serif" font-weight="500" font-size="19" transform="translate(61.6649 410)">2020Aセメスター</text><path d="M61.6649 411.7 110.665 411.7 159.665 411.7 208.665 411.7 208.665 412.7 159.665 412.7 110.665 412.7 61.6649 412.7Z" fill-rule="evenodd"/><text font-family="Yu Gothic,Yu Gothic_MSFontService,sans-serif" font-weight="500" font-size="19" transform="translate(61.6649 109)">2020Sセメスター</text><path d="M61.6649 110.694 110.332 110.694 158.998 110.694 207.665 110.694 207.665 111.694 158.998 111.694 110.332 111.694 61.6649 111.694Z" fill-rule="evenodd"/></g></svg>