<svg width="2993" height="1289" xmlns="http://www.w3.org/2000/svg" xmlns:xlink="http://www.w3.org/1999/xlink" overflow="hidden"><defs><clipPath id="clip0"><rect x="4058" y="1707" width="2993" height="1289"/></clipPath><clipPath id="clip1"><rect x="4059" y="1709" width="2989" height="1283"/></clipPath><clipPath id="clip2"><rect x="4700" y="1995" width="1799" height="858"/></clipPath><clipPath id="clip3"><rect x="4700" y="1995" width="1799" height="858"/></clipPath><clipPath id="clip4"><rect x="4700" y="1995" width="1799" height="858"/></clipPath><clipPath id="clip5"><rect x="4700" y="1995" width="1799" height="858"/></clipPath><clipPath id="clip6"><rect x="4700" y="1995" width="1799" height="858"/></clipPath><clipPath id="clip7"><rect x="4700" y="1995" width="1799" height="858"/></clipPath><clipPath id="clip8"><rect x="4700" y="1995" width="1799" height="858"/></clipPath><clipPath id="clip9"><rect x="4059" y="1709" width="2989" height="1283"/></clipPath><clipPath id="clip10"><rect x="4059" y="1709" width="2989" height="1283"/></clipPath><clipPath id="clip11"><rect x="4059" y="1709" width="2989" height="1283"/></clipPath><clipPath id="clip12"><rect x="4059" y="1709" width="2989" height="1283"/></clipPath><clipPath id="clip13"><rect x="4059" y="1709" width="2989" height="1283"/></clipPath><clipPath id="clip14"><rect x="4059" y="1709" width="2989" height="1283"/></clipPath><clipPath id="clip15"><rect x="4059" y="1709" width="2989" height="1283"/></clipPath><clipPath id="clip16"><rect x="4059" y="1709" width="2989" height="1283"/></clipPath><clipPath id="clip17"><rect x="4059" y="1709" width="2989" height="1283"/></clipPath><clipPath id="clip18"><rect x="4059" y="1709" width="2989" height="1283"/></clipPath><clipPath id="clip19"><rect x="4059" y="1709" width="2989" height="1283"/></clipPath><clipPath id="clip20"><rect x="4059" y="1709" width="2989" height="1283"/></clipPath><clipPath id="clip21"><rect x="4059" y="1709" width="2989" height="1283"/></clipPath><clipPath id="clip22"><rect x="4059" y="1709" width="2989" height="1283"/></clipPath><clipPath id="clip23"><rect x="4059" y="1709" width="2989" height="1283"/></clipPath><clipPath id="clip24"><rect x="4059" y="1709" width="2989" height="1283"/></clipPath><clipPath id="clip25"><rect x="4059" y="1709" width="2989" height="1283"/></clipPath><clipPath id="clip26"><rect x="4059" y="1709" width="2989" height="1283"/></clipPath><clipPath id="clip27"><rect x="4059" y="1709" width="2989" height="1283"/></clipPath><clipPath id="clip28"><rect x="4059" y="1709" width="2989" height="1283"/></clipPath><clipPath id="clip29"><rect x="4059" y="1709" width="2989" height="1283"/></clipPath><clipPath id="clip30"><rect x="4059" y="1709" width="2989" height="1283"/></clipPath><clipPath id="clip31"><rect x="4059" y="1709" width="2989" height="1283"/></clipPath><clipPath id="clip32"><rect x="4059" y="1709" width="2989" height="1283"/></clipPath><clipPath id="clip33"><rect x="4059" y="1709" width="2989" height="1283"/></clipPath><clipPath id="clip34"><rect x="4059" y="1709" width="2989" height="1283"/></clipPath><clipPath id="clip35"><rect x="4059" y="1709" width="2989" height="1283"/></clipPath><clipPath id="clip36"><rect x="4059" y="1709" width="2989" height="1283"/></clipPath><clipPath id="clip37"><rect x="4059" y="1709" width="2989" height="1283"/></clipPath><clipPath id="clip38"><rect x="4059" y="1709" width="2989" height="1283"/></clipPath><clipPath id="clip39"><rect x="4059" y="1709" width="2989" height="1283"/></clipPath><clipPath id="clip40"><rect x="4059" y="1709" width="2989" height="1283"/></clipPath><clipPath id="clip41"><rect x="4059" y="1709" width="2989" height="1283"/></clipPath><clipPath id="clip42"><rect x="4059" y="1709" width="2989" height="1283"/></clipPath><clipPath id="clip43"><rect x="4059" y="1709" width="2989" height="1283"/></clipPath><clipPath id="clip44"><rect x="4059" y="1709" width="2989" height="1283"/></clipPath><clipPath id="clip45"><rect x="4059" y="1709" width="2989" height="1283"/></clipPath><clipPath id="clip46"><rect x="3248" y="2703" width="2476" height="144"/></clipPath><clipPath id="clip47"><rect x="4059" y="1709" width="2989" height="1283"/></clipPath><clipPath id="clip48"><rect x="3248" y="2703" width="2476" height="144"/></clipPath><clipPath id="clip49"><rect x="4059" y="1709" width="2989" height="1283"/></clipPath><clipPath id="clip50"><rect x="3121" y="2561" width="2699" height="143"/></clipPath><clipPath id="clip51"><rect x="4059" y="1709" width="2989" height="1283"/></clipPath><clipPath id="clip52"><rect x="3121" y="2561" width="2699" height="143"/></clipPath><clipPath id="clip53"><rect x="4059" y="1709" width="2989" height="1283"/></clipPath><clipPath id="clip54"><rect x="2535" y="2418" width="3724" height="144"/></clipPath><clipPath id="clip55"><rect x="4059" y="1709" width="2989" height="1283"/></clipPath><clipPath id="clip56"><rect x="2535" y="2418" width="3724" height="144"/></clipPath><clipPath id="clip57"><rect x="4059" y="1709" width="2989" height="1283"/></clipPath><clipPath id="clip58"><rect x="2535" y="2418" width="3724" height="144"/></clipPath><clipPath id="clip59"><rect x="4059" y="1709" width="2989" height="1283"/></clipPath><clipPath id="clip60"><rect x="2535" y="2418" width="3724" height="144"/></clipPath><clipPath id="clip61"><rect x="4059" y="1709" width="2989" height="1283"/></clipPath><clipPath id="clip62"><rect x="2993" y="2276" width="2922" height="143"/></clipPath><clipPath id="clip63"><rect x="4059" y="1709" width="2989" height="1283"/></clipPath><clipPath id="clip64"><rect x="2993" y="2276" width="2922" height="143"/></clipPath><clipPath id="clip65"><rect x="4059" y="1709" width="2989" height="1283"/></clipPath><clipPath id="clip66"><rect x="2993" y="2276" width="2922" height="143"/></clipPath><clipPath id="clip67"><rect x="4059" y="1709" width="2989" height="1283"/></clipPath><clipPath id="clip68"><rect x="2993" y="2276" width="2922" height="143"/></clipPath><clipPath id="clip69"><rect x="4059" y="1709" width="2989" height="1283"/></clipPath><clipPath id="clip70"><rect x="2993" y="2133" width="2922" height="144"/></clipPath><clipPath id="clip71"><rect x="4059" y="1709" width="2989" height="1283"/></clipPath><clipPath id="clip72"><rect x="2993" y="2133" width="2922" height="144"/></clipPath><clipPath id="clip73"><rect x="4059" y="1709" width="2989" height="1283"/></clipPath><clipPath id="clip74"><rect x="2993" y="2133" width="2922" height="144"/></clipPath><clipPath id="clip75"><rect x="4059" y="1709" width="2989" height="1283"/></clipPath><clipPath id="clip76"><rect x="2993" y="2133" width="2922" height="144"/></clipPath><clipPath id="clip77"><rect x="4059" y="1709" width="2989" height="1283"/></clipPath><clipPath id="clip78"><rect x="3223" y="1990" width="2520" height="144"/></clipPath><clipPath id="clip79"><rect x="4059" y="1709" width="2989" height="1283"/></clipPath><clipPath id="clip80"><rect x="3223" y="1990" width="2520" height="144"/></clipPath><clipPath id="clip81"><rect x="4059" y="1709" width="2989" height="1283"/></clipPath><clipPath id="clip82"><rect x="4059" y="1709" width="2989" height="1283"/></clipPath><clipPath id="clip83"><rect x="4059" y="1709" width="2989" height="1283"/></clipPath><clipPath id="clip84"><rect x="4059" y="1709" width="2989" height="1283"/></clipPath><clipPath id="clip85"><rect x="4059" y="1709" width="2989" height="1283"/></clipPath><clipPath id="clip86"><rect x="4059" y="1709" width="2989" height="1283"/></clipPath><clipPath id="clip87"><rect x="4059" y="1709" width="2989" height="1283"/></clipPath><clipPath id="clip88"><rect x="4059" y="1709" width="2989" height="1283"/></clipPath><clipPath id="clip89"><rect x="4059" y="1709" width="2989" height="1283"/></clipPath><clipPath id="clip90"><rect x="4059" y="1709" width="2989" height="1283"/></clipPath><clipPath id="clip91"><rect x="4059" y="1709" width="2989" height="1283"/></clipPath><clipPath id="clip92"><rect x="4059" y="1709" width="2989" height="1283"/></clipPath><clipPath id="clip93"><rect x="4059" y="1709" width="2990" height="1284"/></clipPath><clipPath id="clip94"><rect x="-4429" y="1717" width="19944" height="406"/></clipPath><clipPath id="clip95"><rect x="4059" y="1709" width="2990" height="1284"/></clipPath><clipPath id="clip96"><rect x="-4429" y="1717" width="19944" height="406"/></clipPath><clipPath id="clip97"><rect x="4059" y="1709" width="2990" height="1284"/></clipPath><clipPath id="clip98"><rect x="-4429" y="1717" width="19944" height="406"/></clipPath><clipPath id="clip99"><rect x="4059" y="1709" width="2990" height="1284"/></clipPath><clipPath id="clip100"><rect x="-4429" y="1717" width="19944" height="406"/></clipPath><clipPath id="clip101"><rect x="4059" y="1709" width="2990" height="1284"/></clipPath><clipPath id="clip102"><rect x="-4429" y="1717" width="19944" height="406"/></clipPath><clipPath id="clip103"><rect x="4059" y="1709" width="2990" height="1284"/></clipPath></defs><g clip-path="url(#clip0)" transform="translate(-4058 -1707)"><rect x="4060" y="1709" width="2988" height="1284" fill="#FFFFFF"/><g clip-path="url(#clip1)"><path d="M5149.67 1995.5 5149.67 2850.5M5597.68 1995.5 5597.68 2850.5M6046.7 1995.5 6046.7 2850.5M6496.5 1995.5 6496.5 2850.5" stroke="#D9D9D9" stroke-width="4.58333" stroke-linejoin="round" stroke-miterlimit="10" fill="none"/></g><g clip-path="url(#clip2)"><path d="M4932.5 2112.5 4700.5 2112.5 4700.5 2019.5 4932.5 2019.5Z" stroke="#000000" stroke-width="4.58333" stroke-linejoin="round" stroke-miterlimit="10" fill="#FFFFFF"/></g><g clip-path="url(#clip3)"><path d="M4778.66 2825.59 4700.5 2825.59 4700.5 2732.59 4778.66 2732.59ZM4973.66 2683.59 4700.5 2683.59 4700.5 2589.59 4973.66 2589.59ZM4948.66 2540.58 4700.5 2540.58 4700.5 2447.58 4948.66 2447.58ZM4928.66 2398.58 4700.5 2398.58 4700.5 2304.58 4928.66 2304.58ZM4806.66 2255.57 4700.5 2255.57 4700.5 2162.57 4806.66 2162.57Z" stroke="#000000" stroke-width="4.58333" stroke-linejoin="round" stroke-miterlimit="10" fill="#FFFFFF"/></g><g clip-path="url(#clip4)"><path d="M5138.5 2112.5 4932.5 2112.5 4932.5 2019.5 5138.5 2019.5Z" stroke="#000000" stroke-width="4.58333" stroke-linejoin="round" stroke-miterlimit="10" fill="#F1F8FD"/></g><g clip-path="url(#clip5)"><path d="M4934.66 2825.59 4778.66 2825.59 4778.66 2732.59 4934.66 2732.59ZM5177.67 2683.59 4973.66 2683.59 4973.66 2589.59 5177.67 2589.59ZM5134.67 2540.58 4948.66 2540.58 4948.66 2447.58 5134.67 2447.58ZM5222.67 2398.58 4928.66 2398.58 4928.66 2304.58 5222.67 2304.58ZM4953.66 2255.57 4806.66 2255.57 4806.66 2162.57 4953.66 2162.57Z" stroke="#000000" stroke-width="4.58333" stroke-linejoin="round" stroke-miterlimit="10" fill="#F1F8FD"/></g><g clip-path="url(#clip6)"><path d="M5246.67 2825.59 4934.66 2825.59 4934.66 2732.59 5246.67 2732.59ZM5605.68 2683.59 5177.67 2683.59 5177.67 2589.59 5605.68 2589.59ZM5576.68 2540.58 5134.67 2540.58 5134.67 2447.58 5576.68 2447.58ZM5674.69 2398.58 5222.67 2398.58 5222.67 2304.58 5674.69 2304.58ZM5207.67 2255.57 4953.66 2255.57 4953.66 2162.57 5207.67 2162.57ZM5545.68 2112.57 5137.67 2112.57 5137.67 2019.57 5545.68 2019.57Z" stroke="#000000" stroke-width="4.58333" stroke-linejoin="round" stroke-miterlimit="10" fill="#C2DDF6"/></g><g clip-path="url(#clip7)"><path d="M5871.69 2825.59 5246.67 2825.59 5246.67 2732.59 5871.69 2732.59ZM6077.7 2683.59 5605.68 2683.59 5605.68 2589.59 6077.7 2589.59ZM6105.7 2540.58 5576.68 2540.58 5576.68 2447.58 6105.7 2447.58ZM6120.7 2398.58 5674.69 2398.58 5674.69 2304.58 6120.7 2304.58ZM5774.69 2255.57 5207.67 2255.57 5207.67 2162.57 5774.69 2162.57ZM6044.7 2112.57 5545.68 2112.57 5545.68 2019.57 6044.7 2019.57Z" stroke="#000000" stroke-width="4.58333" stroke-linejoin="round" stroke-miterlimit="10" fill="#9ECBF0"/></g><g clip-path="url(#clip8)"><path d="M6495.71 2825.59 5871.69 2825.59 5871.69 2732.59 6495.71 2732.59ZM6495.71 2683.59 6077.7 2683.59 6077.7 2589.59 6495.71 2589.59ZM6495.71 2540.58 6105.7 2540.58 6105.7 2447.58 6495.71 2447.58ZM6495.71 2398.58 6120.7 2398.58 6120.7 2304.58 6495.71 2304.58ZM6495.71 2255.57 5774.69 2255.57 5774.69 2162.57 6495.71 2162.57ZM6495.71 2112.57 6044.7 2112.57 6044.7 2019.57 6495.71 2019.57Z" stroke="#000000" stroke-width="4.58333" stroke-linejoin="round" stroke-miterlimit="10" fill="#095085"/></g><g clip-path="url(#clip9)"><path d="M0 0 0.000360892 855" stroke="#D9D9D9" stroke-width="3.4375" stroke-linejoin="round" stroke-miterlimit="10" fill="none" fill-rule="evenodd" transform="matrix(1 0 0 -1 4700.5 2850.5)"/></g><g clip-path="url(#clip10)"><text fill="#404040" font-family="Yu Gothic,Yu Gothic_MSFontService,sans-serif" font-weight="700" font-size="55" transform="matrix(1 0 0 1 4723.52 2798)">1</text></g><g clip-path="url(#clip11)"><text fill="#404040" font-family="Yu Gothic,Yu Gothic_MSFontService,sans-serif" font-weight="700" font-size="55" transform="matrix(1 0 0 1 4789.53 2656)">115</text></g><g clip-path="url(#clip12)"><text fill="#404040" font-family="Yu Gothic,Yu Gothic_MSFontService,sans-serif" font-weight="700" font-size="55" transform="matrix(1 0 0 1 4793.04 2513)">63</text></g><g clip-path="url(#clip13)"><text fill="#404040" font-family="Yu Gothic,Yu Gothic_MSFontService,sans-serif" font-weight="700" font-size="55" transform="matrix(1 0 0 1 4783.15 2371)">39</text></g><g clip-path="url(#clip14)"><text fill="#404040" font-family="Yu Gothic,Yu Gothic_MSFontService,sans-serif" font-weight="700" font-size="55" transform="matrix(1 0 0 1 4722.12 2228)">16</text></g><g clip-path="url(#clip15)"><text fill="#404040" font-family="Yu Gothic,Yu Gothic_MSFontService,sans-serif" font-weight="700" font-size="55" transform="matrix(1 0 0 1 4769.09 2085)">234</text></g><g clip-path="url(#clip16)"><text fill="#404040" font-family="Yu Gothic,Yu Gothic_MSFontService,sans-serif" font-weight="700" font-size="55" transform="matrix(1 0 0 1 4840.64 2798)">2</text></g><g clip-path="url(#clip17)"><text fill="#404040" font-family="Yu Gothic,Yu Gothic_MSFontService,sans-serif" font-weight="700" font-size="55" transform="matrix(1 0 0 1 5044.03 2656)">86</text></g><g clip-path="url(#clip18)"><text fill="#404040" font-family="Yu Gothic,Yu Gothic_MSFontService,sans-serif" font-weight="700" font-size="55" transform="matrix(1 0 0 1 5010.11 2513)">47</text></g><g clip-path="url(#clip19)"><text fill="#404040" font-family="Yu Gothic,Yu Gothic_MSFontService,sans-serif" font-weight="700" font-size="55" transform="matrix(1 0 0 1 5044.31 2371)">50</text></g><g clip-path="url(#clip20)"><text fill="#404040" font-family="Yu Gothic,Yu Gothic_MSFontService,sans-serif" font-weight="700" font-size="55" transform="matrix(1 0 0 1 4848.96 2228)">22</text></g><g clip-path="url(#clip21)"><text fill="#404040" font-family="Yu Gothic,Yu Gothic_MSFontService,sans-serif" font-weight="700" font-size="55" transform="matrix(1 0 0 1 4987.98 2085)">207</text></g><g clip-path="url(#clip22)"><text fill="#404040" font-family="Yu Gothic,Yu Gothic_MSFontService,sans-serif" font-weight="700" font-size="55" transform="matrix(1 0 0 1 5074.87 2798)">4</text></g><g clip-path="url(#clip23)"><text fill="#404040" font-family="Yu Gothic,Yu Gothic_MSFontService,sans-serif" font-weight="700" font-size="55" transform="matrix(1 0 0 1 5344.19 2656)">180</text></g><g clip-path="url(#clip24)"><text fill="#404040" font-family="Yu Gothic,Yu Gothic_MSFontService,sans-serif" font-weight="700" font-size="55" transform="matrix(1 0 0 1 5308.12 2513)">112</text></g><g clip-path="url(#clip25)"><text fill="#404040" font-family="Yu Gothic,Yu Gothic_MSFontService,sans-serif" font-weight="700" font-size="55" transform="matrix(1 0 0 1 5416.97 2371)">77</text></g><g clip-path="url(#clip26)"><text fill="#404040" font-family="Yu Gothic,Yu Gothic_MSFontService,sans-serif" font-weight="700" font-size="55" transform="matrix(1 0 0 1 5049.24 2228)">38</text></g><g clip-path="url(#clip27)"><text fill="#404040" font-family="Yu Gothic,Yu Gothic_MSFontService,sans-serif" font-weight="700" font-size="55" transform="matrix(1 0 0 1 5294.73 2085)">411</text></g><g clip-path="url(#clip28)"><text fill="#404040" font-family="Yu Gothic,Yu Gothic_MSFontService,sans-serif" font-weight="700" font-size="55" transform="matrix(1 0 0 1 5543.34 2798)">8</text></g><g clip-path="url(#clip29)"><text fill="#404040" font-family="Yu Gothic,Yu Gothic_MSFontService,sans-serif" font-weight="700" font-size="55" transform="matrix(1 0 0 1 5794.33 2656)">199</text></g><g clip-path="url(#clip30)"><text fill="#404040" font-family="Yu Gothic,Yu Gothic_MSFontService,sans-serif" font-weight="700" font-size="55" transform="matrix(1 0 0 1 5793.58 2513)">134</text></g><g clip-path="url(#clip31)"><text fill="#404040" font-family="Yu Gothic,Yu Gothic_MSFontService,sans-serif" font-weight="700" font-size="55" transform="matrix(1 0 0 1 5865.92 2371)">76</text></g><g clip-path="url(#clip32)"><text fill="#404040" font-family="Yu Gothic,Yu Gothic_MSFontService,sans-serif" font-weight="700" font-size="55" transform="matrix(1 0 0 1 5459.8 2228)">85</text></g><g clip-path="url(#clip33)"><text fill="#404040" font-family="Yu Gothic,Yu Gothic_MSFontService,sans-serif" font-weight="700" font-size="55" transform="matrix(1 0 0 1 5747.9 2085)">502</text></g><g clip-path="url(#clip34)"><text fill="#FFFFFF" font-family="Yu Gothic,Yu Gothic_MSFontService,sans-serif" font-weight="700" font-size="55" transform="matrix(1 0 0 1 6167.97 2798)">8</text></g><g clip-path="url(#clip35)"><text fill="#FFFFFF" font-family="Yu Gothic,Yu Gothic_MSFontService,sans-serif" font-weight="700" font-size="55" transform="matrix(1 0 0 1 6239.72 2656)">176</text></g><g clip-path="url(#clip36)"><text fill="#FFFFFF" font-family="Yu Gothic,Yu Gothic_MSFontService,sans-serif" font-weight="700" font-size="55" transform="matrix(1 0 0 1 6269.15 2513)">99</text></g><g clip-path="url(#clip37)"><text fill="#FFFFFF" font-family="Yu Gothic,Yu Gothic_MSFontService,sans-serif" font-weight="700" font-size="55" transform="matrix(1 0 0 1 6276.72 2371)">64</text></g><g clip-path="url(#clip38)"><text fill="#FFFFFF" font-family="Yu Gothic,Yu Gothic_MSFontService,sans-serif" font-weight="700" font-size="55" transform="matrix(1 0 0 1 6088.26 2228)">108</text></g><g clip-path="url(#clip39)"><text fill="#FFFFFF" font-family="Yu Gothic,Yu Gothic_MSFontService,sans-serif" font-weight="700" font-size="55" transform="matrix(1 0 0 1 6222.91 2085)">455</text></g><g clip-path="url(#clip40)"><text fill="#595959" font-family="Yu Gothic,Yu Gothic_MSFontService,sans-serif" font-weight="500" font-size="60" transform="matrix(1 0 0 1 4659.75 2949)">0%</text></g><g clip-path="url(#clip41)"><text fill="#595959" font-family="Yu Gothic,Yu Gothic_MSFontService,sans-serif" font-weight="500" font-size="60" transform="matrix(1 0 0 1 5092.17 2949)">25%</text></g><g clip-path="url(#clip42)"><text fill="#595959" font-family="Yu Gothic,Yu Gothic_MSFontService,sans-serif" font-weight="500" font-size="60" transform="matrix(1 0 0 1 5541.12 2949)">50%</text></g><g clip-path="url(#clip43)"><text fill="#595959" font-family="Yu Gothic,Yu Gothic_MSFontService,sans-serif" font-weight="500" font-size="60" transform="matrix(1 0 0 1 5990.07 2949)">75%</text></g><g clip-path="url(#clip44)"><text fill="#595959" font-family="Yu Gothic,Yu Gothic_MSFontService,sans-serif" font-weight="500" font-size="60" transform="matrix(1 0 0 1 6422.49 2949)">100%</text></g><g clip-path="url(#clip45)"><g clip-path="url(#clip46)"><text fill="#595959" font-family="Yu Gothic,Yu Gothic_MSFontService,sans-serif" font-weight="500" font-size="57" transform="matrix(1 0 0 1 4309.27 2795)">その他</text></g></g><g clip-path="url(#clip47)"><g clip-path="url(#clip48)"><text fill="#595959" font-family="Yu Gothic,Yu Gothic_MSFontService,sans-serif" font-weight="500" font-size="57" transform="matrix(1 0 0 1 4481.14 2795)">(n=23)</text></g></g><g clip-path="url(#clip49)"><g clip-path="url(#clip50)"><text fill="#595959" font-family="Yu Gothic,Yu Gothic_MSFontService,sans-serif" font-weight="500" font-size="57" transform="matrix(1 0 0 1 4277.46 2653)">大学院</text></g></g><g clip-path="url(#clip51)"><g clip-path="url(#clip52)"><text fill="#595959" font-family="Yu Gothic,Yu Gothic_MSFontService,sans-serif" font-weight="500" font-size="57" transform="matrix(1 0 0 1 4449.33 2653)">(n=756)</text></g></g><g clip-path="url(#clip53)"><g clip-path="url(#clip54)"><text fill="#595959" font-family="Yu Gothic,Yu Gothic_MSFontService,sans-serif" font-weight="500" font-size="57" transform="matrix(1 0 0 1 4131.07 2510)">学部</text></g></g><g clip-path="url(#clip55)"><g clip-path="url(#clip56)"><text fill="#595959" font-family="Yu Gothic,Yu Gothic_MSFontService,sans-serif" font-weight="500" font-size="57" transform="matrix(1 0 0 1 4245.65 2510)">3</text></g></g><g clip-path="url(#clip57)"><g clip-path="url(#clip58)"><text fill="#595959" font-family="Yu Gothic,Yu Gothic_MSFontService,sans-serif" font-weight="500" font-size="57" transform="matrix(1 0 0 1 4277.46 2510)">年以上</text></g></g><g clip-path="url(#clip59)"><g clip-path="url(#clip60)"><text fill="#595959" font-family="Yu Gothic,Yu Gothic_MSFontService,sans-serif" font-weight="500" font-size="57" transform="matrix(1 0 0 1 4449.33 2510)">(n=455)</text></g></g><g clip-path="url(#clip61)"><g clip-path="url(#clip62)"><text fill="#595959" font-family="Yu Gothic,Yu Gothic_MSFontService,sans-serif" font-weight="500" font-size="57" transform="matrix(1 0 0 1 4245.65 2367)">学部</text></g></g><g clip-path="url(#clip63)"><g clip-path="url(#clip64)"><text fill="#595959" font-family="Yu Gothic,Yu Gothic_MSFontService,sans-serif" font-weight="500" font-size="57" transform="matrix(1 0 0 1 4360.23 2367)">2</text></g></g><g clip-path="url(#clip65)"><g clip-path="url(#clip66)"><text fill="#595959" font-family="Yu Gothic,Yu Gothic_MSFontService,sans-serif" font-weight="500" font-size="57" transform="matrix(1 0 0 1 4392.04 2367)">年</text></g></g><g clip-path="url(#clip67)"><g clip-path="url(#clip68)"><text fill="#595959" font-family="Yu Gothic,Yu Gothic_MSFontService,sans-serif" font-weight="500" font-size="57" transform="matrix(1 0 0 1 4449.33 2367)">(n=306)</text></g></g><g clip-path="url(#clip69)"><g clip-path="url(#clip70)"><text fill="#595959" font-family="Yu Gothic,Yu Gothic_MSFontService,sans-serif" font-weight="500" font-size="57" transform="matrix(1 0 0 1 4245.65 2225)">学部</text></g></g><g clip-path="url(#clip71)"><g clip-path="url(#clip72)"><text fill="#595959" font-family="Yu Gothic,Yu Gothic_MSFontService,sans-serif" font-weight="500" font-size="57" transform="matrix(1 0 0 1 4360.23 2225)">1</text></g></g><g clip-path="url(#clip73)"><g clip-path="url(#clip74)"><text fill="#595959" font-family="Yu Gothic,Yu Gothic_MSFontService,sans-serif" font-weight="500" font-size="57" transform="matrix(1 0 0 1 4392.04 2225)">年</text></g></g><g clip-path="url(#clip75)"><g clip-path="url(#clip76)"><text fill="#595959" font-family="Yu Gothic,Yu Gothic_MSFontService,sans-serif" font-weight="500" font-size="57" transform="matrix(1 0 0 1 4449.33 2225)">(n=269)</text></g></g><g clip-path="url(#clip77)"><g clip-path="url(#clip78)"><text fill="#595959" font-family="Yu Gothic,Yu Gothic_MSFontService,sans-serif" font-weight="500" font-size="57" transform="matrix(1 0 0 1 4302.94 2082)">全体</text></g></g><g clip-path="url(#clip79)"><g clip-path="url(#clip80)"><text fill="#595959" font-family="Yu Gothic,Yu Gothic_MSFontService,sans-serif" font-weight="500" font-size="57" transform="matrix(1 0 0 1 4417.53 2082)">(n=1809)</text></g></g><g clip-path="url(#clip81)"><rect x="6563.5" y="2038.5" width="29" height="29.0001" stroke="#000000" stroke-width="4.58333" stroke-linejoin="round" stroke-miterlimit="10" fill="#FFFFFF"/></g><g clip-path="url(#clip82)"><text fill="#595959" font-family="Yu Gothic,Yu Gothic_MSFontService,sans-serif" font-weight="500" font-size="50" transform="matrix(1 0 0 1 6605.58 2067)">全く感じていな</text></g><g clip-path="url(#clip83)"><text fill="#595959" font-family="Yu Gothic,Yu Gothic_MSFontService,sans-serif" font-weight="500" font-size="50" transform="matrix(1 0 0 1 6605.58 2151)">かった</text></g><g clip-path="url(#clip84)"><rect x="6563.5" y="2214.5" width="29" height="29.0002" stroke="#000000" stroke-width="4.58333" stroke-linejoin="round" stroke-miterlimit="10" fill="#F1F8FD"/></g><g clip-path="url(#clip85)"><text fill="#595959" font-family="Yu Gothic,Yu Gothic_MSFontService,sans-serif" font-weight="500" font-size="50" transform="matrix(1 0 0 1 6605.58 2243)">ほとんど感じてい</text></g><g clip-path="url(#clip86)"><text fill="#595959" font-family="Yu Gothic,Yu Gothic_MSFontService,sans-serif" font-weight="500" font-size="50" transform="matrix(1 0 0 1 6605.58 2327)">なかった</text></g><g clip-path="url(#clip87)"><rect x="6563.5" y="2391.5" width="29" height="28.9998" stroke="#000000" stroke-width="4.58333" stroke-linejoin="round" stroke-miterlimit="10" fill="#C2DDF6"/></g><g clip-path="url(#clip88)"><text fill="#595959" font-family="Yu Gothic,Yu Gothic_MSFontService,sans-serif" font-weight="500" font-size="50" transform="matrix(1 0 0 1 6605.58 2420)">少し感じていた</text></g><g clip-path="url(#clip89)"><rect x="6563.5" y="2567.5" width="29" height="28.9998" stroke="#000000" stroke-width="4.58333" stroke-linejoin="round" stroke-miterlimit="10" fill="#9ECBF0"/></g><g clip-path="url(#clip90)"><text fill="#595959" font-family="Yu Gothic,Yu Gothic_MSFontService,sans-serif" font-weight="500" font-size="50" transform="matrix(1 0 0 1 6605.58 2596)">かなり感じていた</text></g><g clip-path="url(#clip91)"><rect x="6563.5" y="2743.5" width="29" height="30" stroke="#000000" stroke-width="4.58333" stroke-linejoin="round" stroke-miterlimit="10" fill="#095085"/></g><g clip-path="url(#clip92)"><text fill="#595959" font-family="Yu Gothic,Yu Gothic_MSFontService,sans-serif" font-weight="500" font-size="50" transform="matrix(1 0 0 1 6605.58 2773)">深刻に感じていた</text></g><rect x="4060.5" y="1709.5" width="2988" height="1284" stroke="#000000" stroke-width="4.58333" stroke-linejoin="round" stroke-miterlimit="10" fill="none"/><g clip-path="url(#clip93)"><g clip-path="url(#clip94)"><text font-family="Yu Gothic,Yu Gothic_MSFontService,sans-serif" font-weight="500" font-size="73" transform="matrix(1 0 0 1 4118.73 1821)">【心理面の印象】</text></g></g><g clip-path="url(#clip95)"><g clip-path="url(#clip96)"><text font-family="Yu Gothic,Yu Gothic_MSFontService,sans-serif" font-weight="500" font-size="73" transform="matrix(1 0 0 1 4705.4 1821)">2020</text></g></g><g clip-path="url(#clip97)"><g clip-path="url(#clip98)"><text font-family="Yu Gothic,Yu Gothic_MSFontService,sans-serif" font-weight="500" font-size="73" transform="matrix(1 0 0 1 4868.29 1821)">年度</text></g></g><g clip-path="url(#clip99)"><g clip-path="url(#clip100)"><text font-family="Yu Gothic,Yu Gothic_MSFontService,sans-serif" font-weight="500" font-size="73" transform="matrix(1 0 0 1 5014.95 1821)">S</text></g></g><g clip-path="url(#clip101)"><g clip-path="url(#clip102)"><text font-family="Yu Gothic,Yu Gothic_MSFontService,sans-serif" font-weight="500" font-size="73" transform="matrix(1 0 0 1 5060.99 1821)">セメスタを振り返って，友達との交流が少なくなることの</text></g></g><g clip-path="url(#clip103)"><text font-family="Yu Gothic,Yu Gothic_MSFontService,sans-serif" font-weight="500" font-size="73" transform="matrix(1 0 0 1 4118.73 1944)">不安・苦痛をどれだけ感じていたかについて教えてください。</text></g></g></svg>