<svg width="872" height="692" xmlns="http://www.w3.org/2000/svg" xmlns:xlink="http://www.w3.org/1999/xlink" overflow="hidden"><defs><clipPath id="clip0"><rect x="33" y="16" width="872" height="692"/></clipPath><clipPath id="clip1"><rect x="33" y="351" width="870" height="355"/></clipPath><clipPath id="clip2"><rect x="220" y="425" width="523" height="238"/></clipPath><clipPath id="clip3"><rect x="220" y="425" width="523" height="238"/></clipPath><clipPath id="clip4"><rect x="220" y="425" width="523" height="238"/></clipPath><clipPath id="clip5"><rect x="220" y="425" width="523" height="238"/></clipPath><clipPath id="clip6"><rect x="220" y="425" width="523" height="238"/></clipPath><clipPath id="clip7"><rect x="220" y="425" width="523" height="238"/></clipPath><clipPath id="clip8"><rect x="220" y="425" width="523" height="238"/></clipPath><clipPath id="clip9"><rect x="33" y="351" width="870" height="355"/></clipPath><clipPath id="clip10"><rect x="33" y="351" width="870" height="355"/></clipPath><clipPath id="clip11"><rect x="33" y="351" width="870" height="355"/></clipPath><clipPath id="clip12"><rect x="33" y="351" width="870" height="355"/></clipPath><clipPath id="clip13"><rect x="33" y="351" width="870" height="355"/></clipPath><clipPath id="clip14"><rect x="33" y="351" width="870" height="355"/></clipPath><clipPath id="clip15"><rect x="33" y="351" width="870" height="355"/></clipPath><clipPath id="clip16"><rect x="33" y="351" width="870" height="355"/></clipPath><clipPath id="clip17"><rect x="33" y="351" width="870" height="355"/></clipPath><clipPath id="clip18"><rect x="33" y="351" width="870" height="355"/></clipPath><clipPath id="clip19"><rect x="33" y="351" width="870" height="355"/></clipPath><clipPath id="clip20"><rect x="33" y="351" width="870" height="355"/></clipPath><clipPath id="clip21"><rect x="33" y="351" width="870" height="355"/></clipPath><clipPath id="clip22"><rect x="33" y="351" width="870" height="355"/></clipPath><clipPath id="clip23"><rect x="33" y="351" width="870" height="355"/></clipPath><clipPath id="clip24"><rect x="33" y="351" width="870" height="355"/></clipPath><clipPath id="clip25"><rect x="33" y="351" width="870" height="355"/></clipPath><clipPath id="clip26"><rect x="33" y="351" width="870" height="355"/></clipPath><clipPath id="clip27"><rect x="33" y="351" width="870" height="355"/></clipPath><clipPath id="clip28"><rect x="33" y="351" width="870" height="355"/></clipPath><clipPath id="clip29"><rect x="33" y="351" width="870" height="355"/></clipPath><clipPath id="clip30"><rect x="33" y="351" width="870" height="355"/></clipPath><clipPath id="clip31"><rect x="33" y="351" width="870" height="355"/></clipPath><clipPath id="clip32"><rect x="33" y="351" width="870" height="355"/></clipPath><clipPath id="clip33"><rect x="33" y="351" width="870" height="355"/></clipPath><clipPath id="clip34"><rect x="33" y="351" width="870" height="355"/></clipPath><clipPath id="clip35"><rect x="33" y="351" width="870" height="355"/></clipPath><clipPath id="clip36"><rect x="33" y="351" width="870" height="355"/></clipPath><clipPath id="clip37"><rect x="33" y="351" width="870" height="355"/></clipPath><clipPath id="clip38"><rect x="33" y="351" width="870" height="355"/></clipPath><clipPath id="clip39"><rect x="33" y="351" width="870" height="355"/></clipPath><clipPath id="clip40"><rect x="33" y="351" width="870" height="355"/></clipPath><clipPath id="clip41"><rect x="33" y="351" width="870" height="355"/></clipPath><clipPath id="clip42"><rect x="33" y="351" width="870" height="355"/></clipPath><clipPath id="clip43"><rect x="33" y="351" width="870" height="355"/></clipPath><clipPath id="clip44"><rect x="33" y="351" width="870" height="355"/></clipPath><clipPath id="clip45"><rect x="33" y="351" width="870" height="355"/></clipPath><clipPath id="clip46"><rect x="-203" y="621" width="721" height="41"/></clipPath><clipPath id="clip47"><rect x="33" y="351" width="870" height="355"/></clipPath><clipPath id="clip48"><rect x="-203" y="621" width="721" height="41"/></clipPath><clipPath id="clip49"><rect x="33" y="351" width="870" height="355"/></clipPath><clipPath id="clip50"><rect x="-240" y="582" width="786" height="40"/></clipPath><clipPath id="clip51"><rect x="33" y="351" width="870" height="355"/></clipPath><clipPath id="clip52"><rect x="-240" y="582" width="786" height="40"/></clipPath><clipPath id="clip53"><rect x="33" y="351" width="870" height="355"/></clipPath><clipPath id="clip54"><rect x="-410" y="542" width="1084" height="41"/></clipPath><clipPath id="clip55"><rect x="33" y="351" width="870" height="355"/></clipPath><clipPath id="clip56"><rect x="-410" y="542" width="1084" height="41"/></clipPath><clipPath id="clip57"><rect x="33" y="351" width="870" height="355"/></clipPath><clipPath id="clip58"><rect x="-410" y="542" width="1084" height="41"/></clipPath><clipPath id="clip59"><rect x="33" y="351" width="870" height="355"/></clipPath><clipPath id="clip60"><rect x="-410" y="542" width="1084" height="41"/></clipPath><clipPath id="clip61"><rect x="33" y="351" width="870" height="355"/></clipPath><clipPath id="clip62"><rect x="-277" y="503" width="851" height="40"/></clipPath><clipPath id="clip63"><rect x="33" y="351" width="870" height="355"/></clipPath><clipPath id="clip64"><rect x="-277" y="503" width="851" height="40"/></clipPath><clipPath id="clip65"><rect x="33" y="351" width="870" height="355"/></clipPath><clipPath id="clip66"><rect x="-277" y="503" width="851" height="40"/></clipPath><clipPath id="clip67"><rect x="33" y="351" width="870" height="355"/></clipPath><clipPath id="clip68"><rect x="-277" y="503" width="851" height="40"/></clipPath><clipPath id="clip69"><rect x="33" y="351" width="870" height="355"/></clipPath><clipPath id="clip70"><rect x="-277" y="463" width="851" height="41"/></clipPath><clipPath id="clip71"><rect x="33" y="351" width="870" height="355"/></clipPath><clipPath id="clip72"><rect x="-277" y="463" width="851" height="41"/></clipPath><clipPath id="clip73"><rect x="33" y="351" width="870" height="355"/></clipPath><clipPath id="clip74"><rect x="-277" y="463" width="851" height="41"/></clipPath><clipPath id="clip75"><rect x="33" y="351" width="870" height="355"/></clipPath><clipPath id="clip76"><rect x="-277" y="463" width="851" height="41"/></clipPath><clipPath id="clip77"><rect x="33" y="351" width="870" height="355"/></clipPath><clipPath id="clip78"><rect x="-210" y="424" width="734" height="40"/></clipPath><clipPath id="clip79"><rect x="33" y="351" width="870" height="355"/></clipPath><clipPath id="clip80"><rect x="-210" y="424" width="734" height="40"/></clipPath><clipPath id="clip81"><rect x="33" y="351" width="870" height="355"/></clipPath><clipPath id="clip82"><rect x="33" y="351" width="870" height="355"/></clipPath><clipPath id="clip83"><rect x="33" y="351" width="870" height="355"/></clipPath><clipPath id="clip84"><rect x="33" y="351" width="870" height="355"/></clipPath><clipPath id="clip85"><rect x="33" y="351" width="870" height="355"/></clipPath><clipPath id="clip86"><rect x="33" y="351" width="870" height="355"/></clipPath><clipPath id="clip87"><rect x="33" y="351" width="870" height="355"/></clipPath><clipPath id="clip88"><rect x="33" y="351" width="870" height="355"/></clipPath><clipPath id="clip89"><rect x="33" y="351" width="870" height="355"/></clipPath><clipPath id="clip90"><rect x="33" y="351" width="870" height="355"/></clipPath><clipPath id="clip91"><rect x="33" y="351" width="870" height="355"/></clipPath><clipPath id="clip92"><rect x="33" y="351" width="870" height="355"/></clipPath><clipPath id="clip93"><rect x="33" y="25" width="870" height="355"/></clipPath><clipPath id="clip94"><rect x="220" y="120" width="523" height="238"/></clipPath><clipPath id="clip95"><rect x="220" y="120" width="523" height="238"/></clipPath><clipPath id="clip96"><rect x="220" y="120" width="523" height="238"/></clipPath><clipPath id="clip97"><rect x="220" y="120" width="523" height="238"/></clipPath><clipPath id="clip98"><rect x="220" y="120" width="523" height="238"/></clipPath><clipPath id="clip99"><rect x="220" y="120" width="523" height="238"/></clipPath><clipPath id="clip100"><rect x="220" y="120" width="523" height="238"/></clipPath><clipPath id="clip101"><rect x="33" y="25" width="870" height="355"/></clipPath><clipPath id="clip102"><rect x="33" y="25" width="870" height="355"/></clipPath><clipPath id="clip103"><rect x="33" y="25" width="870" height="355"/></clipPath><clipPath id="clip104"><rect x="33" y="25" width="870" height="355"/></clipPath><clipPath id="clip105"><rect x="33" y="25" width="870" height="355"/></clipPath><clipPath id="clip106"><rect x="33" y="25" width="870" height="355"/></clipPath><clipPath id="clip107"><rect x="33" y="25" width="870" height="355"/></clipPath><clipPath id="clip108"><rect x="33" y="25" width="870" height="355"/></clipPath><clipPath id="clip109"><rect x="33" y="25" width="870" height="355"/></clipPath><clipPath id="clip110"><rect x="33" y="25" width="870" height="355"/></clipPath><clipPath id="clip111"><rect x="33" y="25" width="870" height="355"/></clipPath><clipPath id="clip112"><rect x="33" y="25" width="870" height="355"/></clipPath><clipPath id="clip113"><rect x="33" y="25" width="870" height="355"/></clipPath><clipPath id="clip114"><rect x="33" y="25" width="870" height="355"/></clipPath><clipPath id="clip115"><rect x="33" y="25" width="870" height="355"/></clipPath><clipPath id="clip116"><rect x="33" y="25" width="870" height="355"/></clipPath><clipPath id="clip117"><rect x="33" y="25" width="870" height="355"/></clipPath><clipPath id="clip118"><rect x="33" y="25" width="870" height="355"/></clipPath><clipPath id="clip119"><rect x="33" y="25" width="870" height="355"/></clipPath><clipPath id="clip120"><rect x="33" y="25" width="870" height="355"/></clipPath><clipPath id="clip121"><rect x="33" y="25" width="870" height="355"/></clipPath><clipPath id="clip122"><rect x="33" y="25" width="870" height="355"/></clipPath><clipPath id="clip123"><rect x="33" y="25" width="870" height="355"/></clipPath><clipPath id="clip124"><rect x="33" y="25" width="870" height="355"/></clipPath><clipPath id="clip125"><rect x="33" y="25" width="870" height="355"/></clipPath><clipPath id="clip126"><rect x="33" y="25" width="870" height="355"/></clipPath><clipPath id="clip127"><rect x="33" y="25" width="870" height="355"/></clipPath><clipPath id="clip128"><rect x="33" y="25" width="870" height="355"/></clipPath><clipPath id="clip129"><rect x="33" y="25" width="870" height="355"/></clipPath><clipPath id="clip130"><rect x="33" y="25" width="870" height="355"/></clipPath><clipPath id="clip131"><rect x="33" y="25" width="870" height="355"/></clipPath><clipPath id="clip132"><rect x="33" y="25" width="870" height="355"/></clipPath><clipPath id="clip133"><rect x="-203" y="316" width="721" height="41"/></clipPath><clipPath id="clip134"><rect x="33" y="25" width="870" height="355"/></clipPath><clipPath id="clip135"><rect x="-203" y="316" width="721" height="41"/></clipPath><clipPath id="clip136"><rect x="33" y="25" width="870" height="355"/></clipPath><clipPath id="clip137"><rect x="-240" y="277" width="786" height="40"/></clipPath><clipPath id="clip138"><rect x="33" y="25" width="870" height="355"/></clipPath><clipPath id="clip139"><rect x="-240" y="277" width="786" height="40"/></clipPath><clipPath id="clip140"><rect x="33" y="25" width="870" height="355"/></clipPath><clipPath id="clip141"><rect x="-410" y="237" width="1084" height="41"/></clipPath><clipPath id="clip142"><rect x="33" y="25" width="870" height="355"/></clipPath><clipPath id="clip143"><rect x="-410" y="237" width="1084" height="41"/></clipPath><clipPath id="clip144"><rect x="33" y="25" width="870" height="355"/></clipPath><clipPath id="clip145"><rect x="-410" y="237" width="1084" height="41"/></clipPath><clipPath id="clip146"><rect x="33" y="25" width="870" height="355"/></clipPath><clipPath id="clip147"><rect x="-410" y="237" width="1084" height="41"/></clipPath><clipPath id="clip148"><rect x="33" y="25" width="870" height="355"/></clipPath><clipPath id="clip149"><rect x="-277" y="198" width="851" height="40"/></clipPath><clipPath id="clip150"><rect x="33" y="25" width="870" height="355"/></clipPath><clipPath id="clip151"><rect x="-277" y="198" width="851" height="40"/></clipPath><clipPath id="clip152"><rect x="33" y="25" width="870" height="355"/></clipPath><clipPath id="clip153"><rect x="-277" y="198" width="851" height="40"/></clipPath><clipPath id="clip154"><rect x="33" y="25" width="870" height="355"/></clipPath><clipPath id="clip155"><rect x="-277" y="198" width="851" height="40"/></clipPath><clipPath id="clip156"><rect x="33" y="25" width="870" height="355"/></clipPath><clipPath id="clip157"><rect x="-277" y="158" width="851" height="41"/></clipPath><clipPath id="clip158"><rect x="33" y="25" width="870" height="355"/></clipPath><clipPath id="clip159"><rect x="-277" y="158" width="851" height="41"/></clipPath><clipPath id="clip160"><rect x="33" y="25" width="870" height="355"/></clipPath><clipPath id="clip161"><rect x="-277" y="158" width="851" height="41"/></clipPath><clipPath id="clip162"><rect x="33" y="25" width="870" height="355"/></clipPath><clipPath id="clip163"><rect x="-277" y="158" width="851" height="41"/></clipPath><clipPath id="clip164"><rect x="33" y="25" width="870" height="355"/></clipPath><clipPath id="clip165"><rect x="-210" y="119" width="734" height="40"/></clipPath><clipPath id="clip166"><rect x="33" y="25" width="870" height="355"/></clipPath><clipPath id="clip167"><rect x="-210" y="119" width="734" height="40"/></clipPath><clipPath id="clip168"><rect x="33" y="25" width="871" height="356"/></clipPath><clipPath id="clip169"><rect x="-2446" y="27" width="5825" height="113"/></clipPath><clipPath id="clip170"><rect x="33" y="25" width="871" height="356"/></clipPath><clipPath id="clip171"><rect x="-2446" y="27" width="5825" height="113"/></clipPath><clipPath id="clip172"><rect x="33" y="25" width="871" height="356"/></clipPath><clipPath id="clip173"><rect x="-2446" y="27" width="5825" height="113"/></clipPath><clipPath id="clip174"><rect x="33" y="25" width="871" height="356"/></clipPath><clipPath id="clip175"><rect x="-2446" y="27" width="5825" height="113"/></clipPath><clipPath id="clip176"><rect x="33" y="25" width="871" height="356"/></clipPath><clipPath id="clip177"><rect x="-2446" y="27" width="5825" height="113"/></clipPath><clipPath id="clip178"><rect x="33" y="25" width="871" height="356"/></clipPath><clipPath id="clip179"><rect x="-2446" y="27" width="5825" height="113"/></clipPath><clipPath id="clip180"><rect x="33" y="25" width="871" height="356"/></clipPath></defs><g clip-path="url(#clip0)" transform="translate(-33 -16)"><rect x="34" y="352" width="869" height="355" fill="#FFFFFF"/><g clip-path="url(#clip1)"><path d="M350.5 425.5 350.5 662.5M481.5 425.5 481.5 662.5M612.5 425.5 612.5 662.5M742.5 425.5 742.5 662.5" stroke="#D9D9D9" stroke-width="1.33333" stroke-linejoin="round" stroke-miterlimit="10" fill="none"/></g><g clip-path="url(#clip2)"><path d="M341.5 458.5 220.5 458.5 220.5 432.5 341.5 432.5Z" stroke="#000000" stroke-width="1.33333" stroke-linejoin="round" stroke-miterlimit="10" fill="#FFFFFF"/></g><g clip-path="url(#clip3)"><path d="M303.5 655.5 220.5 655.5 220.5 629.5 303.5 629.5ZM382.5 615.5 220.5 615.5 220.5 590.5 382.5 590.5ZM343.5 576.5 220.5 576.5 220.5 550.5 343.5 550.5ZM302.5 536.5 220.5 536.5 220.5 511.5 302.5 511.5ZM271.5 497.5 220.5 497.5 220.5 471.5 271.5 471.5Z" stroke="#000000" stroke-width="1.33333" stroke-linejoin="round" stroke-miterlimit="10" fill="#FFFFFF"/></g><g clip-path="url(#clip4)"><path d="M421.5 458.5 341.5 458.5 341.5 432.5 421.5 432.5Z" stroke="#000000" stroke-width="1.33333" stroke-linejoin="round" stroke-miterlimit="10" fill="#F1F8FD"/></g><g clip-path="url(#clip5)"><path d="M366.5 655.5 303.5 655.5 303.5 629.5 366.5 629.5ZM462.5 615.5 382.5 615.5 382.5 590.5 462.5 590.5ZM435.5 576.5 343.5 576.5 343.5 550.5 435.5 550.5ZM370.5 536.5 302.5 536.5 302.5 511.5 370.5 511.5ZM347.5 497.5 271.5 497.5 271.5 471.5 347.5 471.5Z" stroke="#000000" stroke-width="1.33333" stroke-linejoin="round" stroke-miterlimit="10" fill="#F1F8FD"/></g><g clip-path="url(#clip6)"><path d="M408.5 655.5 366.5 655.5 366.5 629.5 408.5 629.5ZM550.5 615.5 462.5 615.5 462.5 590.5 550.5 590.5ZM527.5 576.5 435.5 576.5 435.5 550.5 527.5 550.5ZM481.5 536.5 370.5 536.5 370.5 511.5 481.5 511.5ZM460.5 497.5 347.5 497.5 347.5 471.5 460.5 471.5ZM517.5 458.5 421.5 458.5 421.5 432.5 517.5 432.5Z" stroke="#000000" stroke-width="1.33333" stroke-linejoin="round" stroke-miterlimit="10" fill="#C2DDF6"/></g><g clip-path="url(#clip7)"><path d="M638.5 655.5 408.5 655.5 408.5 629.5 638.5 629.5ZM648.5 615.5 550.5 615.5 550.5 590.5 648.5 590.5ZM631.5 576.5 527.5 576.5 527.5 550.5 631.5 550.5ZM595.5 536.5 481.5 536.5 481.5 511.5 595.5 511.5ZM590.5 497.5 460.5 497.5 460.5 471.5 590.5 471.5ZM626.5 458.5 517.5 458.5 517.5 432.5 626.5 432.5Z" stroke="#000000" stroke-width="1.33333" stroke-linejoin="round" stroke-miterlimit="10" fill="#9ECBF0"/></g><g clip-path="url(#clip8)"><path d="M742.5 655.5 638.5 655.5 638.5 629.5 742.5 629.5ZM742.5 615.5 648.5 615.5 648.5 590.5 742.5 590.5ZM742.5 576.5 631.5 576.5 631.5 550.5 742.5 550.5ZM742.5 536.5 595.5 536.5 595.5 511.5 742.5 511.5ZM742.5 497.5 590.5 497.5 590.5 471.5 742.5 471.5ZM742.5 458.5 626.5 458.5 626.5 432.5 742.5 432.5Z" stroke="#000000" stroke-width="1.33333" stroke-linejoin="round" stroke-miterlimit="10" fill="#095085"/></g><g clip-path="url(#clip9)"><path d="M0 0 0.000104987 237" stroke="#D9D9D9" stroke-linejoin="round" stroke-miterlimit="10" fill="none" fill-rule="evenodd" transform="matrix(1 0 0 -1 220.5 662.5)"/></g><g clip-path="url(#clip10)"><text fill="#404040" font-family="Yu Gothic,Yu Gothic_MSFontService,sans-serif" font-weight="700" font-size="16" transform="translate(257.397 648)">4</text></g><g clip-path="url(#clip11)"><text fill="#404040" font-family="Yu Gothic,Yu Gothic_MSFontService,sans-serif" font-weight="700" font-size="16" transform="translate(287.535 609)">226</text></g><g clip-path="url(#clip12)"><text fill="#404040" font-family="Yu Gothic,Yu Gothic_MSFontService,sans-serif" font-weight="700" font-size="16" transform="translate(268.072 569)">105</text></g><g clip-path="url(#clip13)"><text fill="#404040" font-family="Yu Gothic,Yu Gothic_MSFontService,sans-serif" font-weight="700" font-size="16" transform="translate(252.214 530)">47</text></g><g clip-path="url(#clip14)"><text fill="#404040" font-family="Yu Gothic,Yu Gothic_MSFontService,sans-serif" font-weight="700" font-size="16" transform="translate(236.447 490)">26</text></g><g clip-path="url(#clip15)"><text fill="#404040" font-family="Yu Gothic,Yu Gothic_MSFontService,sans-serif" font-weight="700" font-size="16" transform="translate(266.887 451)">408</text></g><g clip-path="url(#clip16)"><text fill="#404040" font-family="Yu Gothic,Yu Gothic_MSFontService,sans-serif" font-weight="700" font-size="16" transform="translate(330.564 648)">3</text></g><g clip-path="url(#clip17)"><text fill="#404040" font-family="Yu Gothic,Yu Gothic_MSFontService,sans-serif" font-weight="700" font-size="16" transform="translate(408.857 609)">112</text></g><g clip-path="url(#clip18)"><text fill="#404040" font-family="Yu Gothic,Yu Gothic_MSFontService,sans-serif" font-weight="700" font-size="16" transform="translate(380.118 569)">78</text></g><g clip-path="url(#clip19)"><text fill="#404040" font-family="Yu Gothic,Yu Gothic_MSFontService,sans-serif" font-weight="700" font-size="16" transform="translate(327.626 530)">39</text></g><g clip-path="url(#clip20)"><text fill="#404040" font-family="Yu Gothic,Yu Gothic_MSFontService,sans-serif" font-weight="700" font-size="16" transform="translate(300.061 490)">39</text></g><g clip-path="url(#clip21)"><text fill="#404040" font-family="Yu Gothic,Yu Gothic_MSFontService,sans-serif" font-weight="700" font-size="16" transform="translate(367.528 451)">271</text></g><g clip-path="url(#clip22)"><text fill="#404040" font-family="Yu Gothic,Yu Gothic_MSFontService,sans-serif" font-weight="700" font-size="16" transform="translate(382.825 648)">2</text></g><g clip-path="url(#clip23)"><text fill="#404040" font-family="Yu Gothic,Yu Gothic_MSFontService,sans-serif" font-weight="700" font-size="16" transform="translate(492.849 609)">122</text></g><g clip-path="url(#clip24)"><text fill="#404040" font-family="Yu Gothic,Yu Gothic_MSFontService,sans-serif" font-weight="700" font-size="16" transform="translate(472.31 569)">79</text></g><g clip-path="url(#clip25)"><text fill="#404040" font-family="Yu Gothic,Yu Gothic_MSFontService,sans-serif" font-weight="700" font-size="16" transform="translate(417.067 530)">63</text></g><g clip-path="url(#clip26)"><text fill="#404040" font-family="Yu Gothic,Yu Gothic_MSFontService,sans-serif" font-weight="700" font-size="16" transform="translate(394.994 490)">58</text></g><g clip-path="url(#clip27)"><text fill="#404040" font-family="Yu Gothic,Yu Gothic_MSFontService,sans-serif" font-weight="700" font-size="16" transform="translate(455.718 451)">324</text></g><g clip-path="url(#clip28)"><text fill="#404040" font-family="Yu Gothic,Yu Gothic_MSFontService,sans-serif" font-weight="700" font-size="16" transform="translate(514.119 648)">11</text></g><g clip-path="url(#clip29)"><text fill="#404040" font-family="Yu Gothic,Yu Gothic_MSFontService,sans-serif" font-weight="700" font-size="16" transform="translate(585.815 609)">137</text></g><g clip-path="url(#clip30)"><text fill="#404040" font-family="Yu Gothic,Yu Gothic_MSFontService,sans-serif" font-weight="700" font-size="16" transform="translate(570.374 569)">88</text></g><g clip-path="url(#clip31)"><text fill="#404040" font-family="Yu Gothic,Yu Gothic_MSFontService,sans-serif" font-weight="700" font-size="16" transform="translate(529.307 530)">65</text></g><g clip-path="url(#clip32)"><text fill="#404040" font-family="Yu Gothic,Yu Gothic_MSFontService,sans-serif" font-weight="700" font-size="16" transform="translate(516.351 490)">66</text></g><g clip-path="url(#clip33)"><text fill="#404040" font-family="Yu Gothic,Yu Gothic_MSFontService,sans-serif" font-weight="700" font-size="16" transform="translate(558.136 451)">367</text></g><g clip-path="url(#clip34)"><text fill="#FFFFFF" font-family="Yu Gothic,Yu Gothic_MSFontService,sans-serif" font-weight="700" font-size="16" transform="translate(685.944 648)">5</text></g><g clip-path="url(#clip35)"><text fill="#FFFFFF" font-family="Yu Gothic,Yu Gothic_MSFontService,sans-serif" font-weight="700" font-size="16" transform="translate(682.011 609)">131</text></g><g clip-path="url(#clip36)"><text fill="#FFFFFF" font-family="Yu Gothic,Yu Gothic_MSFontService,sans-serif" font-weight="700" font-size="16" transform="translate(677.834 569)">95</text></g><g clip-path="url(#clip37)"><text fill="#FFFFFF" font-family="Yu Gothic,Yu Gothic_MSFontService,sans-serif" font-weight="700" font-size="16" transform="translate(659.961 530)">84</text></g><g clip-path="url(#clip38)"><text fill="#FFFFFF" font-family="Yu Gothic,Yu Gothic_MSFontService,sans-serif" font-weight="700" font-size="16" transform="translate(657.281 490)">78</text></g><g clip-path="url(#clip39)"><text fill="#FFFFFF" font-family="Yu Gothic,Yu Gothic_MSFontService,sans-serif" font-weight="700" font-size="16" transform="translate(670.782 451)">393</text></g><g clip-path="url(#clip40)"><text fill="#595959" font-family="Yu Gothic,Yu Gothic_MSFontService,sans-serif" font-weight="500" font-size="17" transform="translate(208.394 691)">0%</text></g><g clip-path="url(#clip41)"><text fill="#595959" font-family="Yu Gothic,Yu Gothic_MSFontService,sans-serif" font-weight="500" font-size="17" transform="translate(334.239 691)">25%</text></g><g clip-path="url(#clip42)"><text fill="#595959" font-family="Yu Gothic,Yu Gothic_MSFontService,sans-serif" font-weight="500" font-size="17" transform="translate(464.893 691)">50%</text></g><g clip-path="url(#clip43)"><text fill="#595959" font-family="Yu Gothic,Yu Gothic_MSFontService,sans-serif" font-weight="500" font-size="17" transform="translate(595.548 691)">75%</text></g><g clip-path="url(#clip44)"><text fill="#595959" font-family="Yu Gothic,Yu Gothic_MSFontService,sans-serif" font-weight="500" font-size="17" transform="translate(721.392 691)">100%</text></g><g clip-path="url(#clip45)"><g clip-path="url(#clip46)"><text fill="#595959" font-family="Yu Gothic,Yu Gothic_MSFontService,sans-serif" font-weight="500" font-size="17" transform="translate(106.436 647)">その他</text></g></g><g clip-path="url(#clip47)"><g clip-path="url(#clip48)"><text fill="#595959" font-family="Yu Gothic,Yu Gothic_MSFontService,sans-serif" font-weight="500" font-size="17" transform="translate(156.436 647)">(n=25)</text></g></g><g clip-path="url(#clip49)"><g clip-path="url(#clip50)"><text fill="#595959" font-family="Yu Gothic,Yu Gothic_MSFontService,sans-serif" font-weight="500" font-size="17" transform="translate(97.1823 608)">大学院</text></g></g><g clip-path="url(#clip51)"><g clip-path="url(#clip52)"><text fill="#595959" font-family="Yu Gothic,Yu Gothic_MSFontService,sans-serif" font-weight="500" font-size="17" transform="translate(147.182 608)">(n=728)</text></g></g><g clip-path="url(#clip53)"><g clip-path="url(#clip54)"><text fill="#595959" font-family="Yu Gothic,Yu Gothic_MSFontService,sans-serif" font-weight="500" font-size="17" transform="translate(54.5956 568)">学部</text></g></g><g clip-path="url(#clip55)"><g clip-path="url(#clip56)"><text fill="#595959" font-family="Yu Gothic,Yu Gothic_MSFontService,sans-serif" font-weight="500" font-size="17" transform="translate(87.929 568)">3</text></g></g><g clip-path="url(#clip57)"><g clip-path="url(#clip58)"><text fill="#595959" font-family="Yu Gothic,Yu Gothic_MSFontService,sans-serif" font-weight="500" font-size="17" transform="translate(97.1823 568)">年以上</text></g></g><g clip-path="url(#clip59)"><g clip-path="url(#clip60)"><text fill="#595959" font-family="Yu Gothic,Yu Gothic_MSFontService,sans-serif" font-weight="500" font-size="17" transform="translate(147.182 568)">(n=445)</text></g></g><g clip-path="url(#clip61)"><g clip-path="url(#clip62)"><text fill="#595959" font-family="Yu Gothic,Yu Gothic_MSFontService,sans-serif" font-weight="500" font-size="17" transform="translate(87.929 529)">学部</text></g></g><g clip-path="url(#clip63)"><g clip-path="url(#clip64)"><text fill="#595959" font-family="Yu Gothic,Yu Gothic_MSFontService,sans-serif" font-weight="500" font-size="17" transform="translate(121.262 529)">2</text></g></g><g clip-path="url(#clip65)"><g clip-path="url(#clip66)"><text fill="#595959" font-family="Yu Gothic,Yu Gothic_MSFontService,sans-serif" font-weight="500" font-size="17" transform="translate(130.516 529)">年</text></g></g><g clip-path="url(#clip67)"><g clip-path="url(#clip68)"><text fill="#595959" font-family="Yu Gothic,Yu Gothic_MSFontService,sans-serif" font-weight="500" font-size="17" transform="translate(147.182 529)">(n=298)</text></g></g><g clip-path="url(#clip69)"><g clip-path="url(#clip70)"><text fill="#595959" font-family="Yu Gothic,Yu Gothic_MSFontService,sans-serif" font-weight="500" font-size="17" transform="translate(87.929 489)">学部</text></g></g><g clip-path="url(#clip71)"><g clip-path="url(#clip72)"><text fill="#595959" font-family="Yu Gothic,Yu Gothic_MSFontService,sans-serif" font-weight="500" font-size="17" transform="translate(121.262 489)">1</text></g></g><g clip-path="url(#clip73)"><g clip-path="url(#clip74)"><text fill="#595959" font-family="Yu Gothic,Yu Gothic_MSFontService,sans-serif" font-weight="500" font-size="17" transform="translate(130.516 489)">年</text></g></g><g clip-path="url(#clip75)"><g clip-path="url(#clip76)"><text fill="#595959" font-family="Yu Gothic,Yu Gothic_MSFontService,sans-serif" font-weight="500" font-size="17" transform="translate(147.182 489)">(n=267)</text></g></g><g clip-path="url(#clip77)"><g clip-path="url(#clip78)"><text fill="#595959" font-family="Yu Gothic,Yu Gothic_MSFontService,sans-serif" font-weight="500" font-size="17" transform="translate(104.596 450)">全体</text></g></g><g clip-path="url(#clip79)"><g clip-path="url(#clip80)"><text fill="#595959" font-family="Yu Gothic,Yu Gothic_MSFontService,sans-serif" font-weight="500" font-size="17" transform="translate(137.929 450)">(n=1763)</text></g></g><g clip-path="url(#clip81)"><rect x="762.5" y="441.5" width="8" height="9" stroke="#000000" stroke-width="1.33333" stroke-linejoin="round" stroke-miterlimit="10" fill="#FFFFFF"/></g><g clip-path="url(#clip82)"><text fill="#595959" font-family="Yu Gothic,Yu Gothic_MSFontService,sans-serif" font-weight="500" font-size="15" transform="translate(774.687 450)">全く感じていな</text></g><g clip-path="url(#clip83)"><text fill="#595959" font-family="Yu Gothic,Yu Gothic_MSFontService,sans-serif" font-weight="500" font-size="15" transform="translate(774.687 475)">かった</text></g><g clip-path="url(#clip84)"><rect x="762.5" y="490.5" width="8" height="9" stroke="#000000" stroke-width="1.33333" stroke-linejoin="round" stroke-miterlimit="10" fill="#F1F8FD"/></g><g clip-path="url(#clip85)"><text fill="#595959" font-family="Yu Gothic,Yu Gothic_MSFontService,sans-serif" font-weight="500" font-size="15" transform="translate(774.687 499)">ほとんど感じてい</text></g><g clip-path="url(#clip86)"><text fill="#595959" font-family="Yu Gothic,Yu Gothic_MSFontService,sans-serif" font-weight="500" font-size="15" transform="translate(774.687 524)">なかった</text></g><g clip-path="url(#clip87)"><rect x="762.5" y="539.5" width="8" height="9" stroke="#000000" stroke-width="1.33333" stroke-linejoin="round" stroke-miterlimit="10" fill="#C2DDF6"/></g><g clip-path="url(#clip88)"><text fill="#595959" font-family="Yu Gothic,Yu Gothic_MSFontService,sans-serif" font-weight="500" font-size="15" transform="translate(774.687 548)">少し感じていた</text></g><g clip-path="url(#clip89)"><rect x="762.5" y="588.5" width="8" height="9" stroke="#000000" stroke-width="1.33333" stroke-linejoin="round" stroke-miterlimit="10" fill="#9ECBF0"/></g><g clip-path="url(#clip90)"><text fill="#595959" font-family="Yu Gothic,Yu Gothic_MSFontService,sans-serif" font-weight="500" font-size="15" transform="translate(774.687 596)">かなり感じていた</text></g><g clip-path="url(#clip91)"><rect x="762.5" y="637.5" width="8" height="8" stroke="#000000" stroke-width="1.33333" stroke-linejoin="round" stroke-miterlimit="10" fill="#095085"/></g><g clip-path="url(#clip92)"><text fill="#595959" font-family="Yu Gothic,Yu Gothic_MSFontService,sans-serif" font-weight="500" font-size="15" transform="translate(774.687 645)">深刻に感じていた</text></g><rect x="34.5001" y="352.5" width="869" height="355" stroke="#000000" stroke-width="1.33333" stroke-linejoin="round" stroke-miterlimit="10" fill="none"/><rect x="34" y="25" width="869" height="356" fill="#FFFFFF"/><g clip-path="url(#clip93)"><path d="M350.5 120.5 350.5 357.5M481.5 120.5 481.5 357.5M612.5 120.5 612.5 357.5M742.5 120.5 742.5 357.5" stroke="#D9D9D9" stroke-width="1.33333" stroke-linejoin="round" stroke-miterlimit="10" fill="none"/></g><g clip-path="url(#clip94)"><path d="M339.5 153.5 220.5 153.5 220.5 127.5 339.5 127.5Z" stroke="#000000" stroke-width="1.33333" stroke-linejoin="round" stroke-miterlimit="10" fill="#FFFFFF"/></g><g clip-path="url(#clip95)"><path d="M294.5 350.5 220.5 350.5 220.5 324.5 294.5 324.5ZM382.5 311.5 220.5 311.5 220.5 285.5 382.5 285.5ZM335.5 271.5 220.5 271.5 220.5 245.5 335.5 245.5ZM306.5 232.5 220.5 232.5 220.5 206.5 306.5 206.5ZM274.5 192.5 220.5 192.5 220.5 166.5 274.5 166.5Z" stroke="#000000" stroke-width="1.33333" stroke-linejoin="round" stroke-miterlimit="10" fill="#FFFFFF"/></g><g clip-path="url(#clip96)"><path d="M414.5 153.5 339.5 153.5 339.5 127.5 414.5 127.5Z" stroke="#000000" stroke-width="1.33333" stroke-linejoin="round" stroke-miterlimit="10" fill="#F1F8FD"/></g><g clip-path="url(#clip97)"><path d="M369.5 350.5 294.5 350.5 294.5 324.5 369.5 324.5ZM462.5 311.5 382.5 311.5 382.5 285.5 462.5 285.5ZM414.5 271.5 335.5 271.5 335.5 245.5 414.5 245.5ZM363.5 232.5 306.5 232.5 306.5 206.5 363.5 206.5ZM341.5 192.5 274.5 192.5 274.5 166.5 341.5 166.5Z" stroke="#000000" stroke-width="1.33333" stroke-linejoin="round" stroke-miterlimit="10" fill="#F1F8FD"/></g><g clip-path="url(#clip98)"><path d="M394.5 350.5 369.5 350.5 369.5 324.5 394.5 324.5ZM541.5 311.5 462.5 311.5 462.5 285.5 541.5 285.5ZM508.5 271.5 414.5 271.5 414.5 245.5 508.5 245.5ZM455.5 232.5 363.5 232.5 363.5 206.5 455.5 206.5ZM417.5 192.5 341.5 192.5 341.5 166.5 417.5 166.5ZM497.5 153.5 414.5 153.5 414.5 127.5 497.5 127.5Z" stroke="#000000" stroke-width="1.33333" stroke-linejoin="round" stroke-miterlimit="10" fill="#C2DDF6"/></g><g clip-path="url(#clip99)"><path d="M618.5 350.5 394.5 350.5 394.5 324.5 618.5 324.5ZM641.5 311.5 541.5 311.5 541.5 285.5 641.5 285.5ZM615.5 271.5 508.5 271.5 508.5 245.5 615.5 245.5ZM567.5 232.5 455.5 232.5 455.5 206.5 567.5 206.5ZM530.5 192.5 417.5 192.5 417.5 166.5 530.5 166.5ZM604.5 153.5 497.5 153.5 497.5 127.5 604.5 127.5Z" stroke="#000000" stroke-width="1.33333" stroke-linejoin="round" stroke-miterlimit="10" fill="#9ECBF0"/></g><g clip-path="url(#clip100)"><path d="M742.5 350.5 618.5 350.5 618.5 324.5 742.5 324.5ZM742.5 311.5 641.5 311.5 641.5 285.5 742.5 285.5ZM742.5 271.5 615.5 271.5 615.5 245.5 742.5 245.5ZM742.5 232.5 567.5 232.5 567.5 206.5 742.5 206.5ZM742.5 192.5 530.5 192.5 530.5 166.5 742.5 166.5ZM742.5 153.5 604.5 153.5 604.5 127.5 742.5 127.5Z" stroke="#000000" stroke-width="1.33333" stroke-linejoin="round" stroke-miterlimit="10" fill="#095085"/></g><g clip-path="url(#clip101)"><path d="M0 0 0.000104987 237" stroke="#D9D9D9" stroke-linejoin="round" stroke-miterlimit="10" fill="none" fill-rule="evenodd" transform="matrix(1 0 0 -1 220.5 357.5)"/></g><g clip-path="url(#clip102)"><text fill="#404040" font-family="Yu Gothic,Yu Gothic_MSFontService,sans-serif" font-weight="700" font-size="16" transform="translate(252.918 343)">3</text></g><g clip-path="url(#clip103)"><text fill="#404040" font-family="Yu Gothic,Yu Gothic_MSFontService,sans-serif" font-weight="700" font-size="16" transform="translate(287.46 304)">223</text></g><g clip-path="url(#clip104)"><text fill="#404040" font-family="Yu Gothic,Yu Gothic_MSFontService,sans-serif" font-weight="700" font-size="16" transform="translate(268.419 264)">98</text></g><g clip-path="url(#clip105)"><text fill="#404040" font-family="Yu Gothic,Yu Gothic_MSFontService,sans-serif" font-weight="700" font-size="16" transform="translate(253.968 225)">49</text></g><g clip-path="url(#clip106)"><text fill="#404040" font-family="Yu Gothic,Yu Gothic_MSFontService,sans-serif" font-weight="700" font-size="16" transform="translate(238.302 186)">28</text></g><g clip-path="url(#clip107)"><text fill="#404040" font-family="Yu Gothic,Yu Gothic_MSFontService,sans-serif" font-weight="700" font-size="16" transform="translate(266.223 146)">401</text></g><g clip-path="url(#clip108)"><text fill="#404040" font-family="Yu Gothic,Yu Gothic_MSFontService,sans-serif" font-weight="700" font-size="16" transform="translate(327.577 343)">3</text></g><g clip-path="url(#clip109)"><text fill="#404040" font-family="Yu Gothic,Yu Gothic_MSFontService,sans-serif" font-weight="700" font-size="16" transform="translate(408.847 304)">111</text></g><g clip-path="url(#clip110)"><text fill="#404040" font-family="Yu Gothic,Yu Gothic_MSFontService,sans-serif" font-weight="700" font-size="16" transform="translate(365.677 264)">68</text></g><g clip-path="url(#clip111)"><text fill="#404040" font-family="Yu Gothic,Yu Gothic_MSFontService,sans-serif" font-weight="700" font-size="16" transform="translate(325.872 225)">33</text></g><g clip-path="url(#clip112)"><text fill="#404040" font-family="Yu Gothic,Yu Gothic_MSFontService,sans-serif" font-weight="700" font-size="16" transform="translate(298.754 186)">34</text></g><g clip-path="url(#clip113)"><text fill="#404040" font-family="Yu Gothic,Yu Gothic_MSFontService,sans-serif" font-weight="700" font-size="16" transform="translate(363.17 146)">249</text></g><g clip-path="url(#clip114)"><text fill="#404040" font-family="Yu Gothic,Yu Gothic_MSFontService,sans-serif" font-weight="700" font-size="16" transform="translate(377.35 343)">1</text></g><g clip-path="url(#clip115)"><text fill="#404040" font-family="Yu Gothic,Yu Gothic_MSFontService,sans-serif" font-weight="700" font-size="16" transform="translate(488.439 304)">108</text></g><g clip-path="url(#clip116)"><text fill="#404040" font-family="Yu Gothic,Yu Gothic_MSFontService,sans-serif" font-weight="700" font-size="16" transform="translate(452.389 264)">80</text></g><g clip-path="url(#clip117)"><text fill="#404040" font-family="Yu Gothic,Yu Gothic_MSFontService,sans-serif" font-weight="700" font-size="16" transform="translate(400.406 225)">52</text></g><g clip-path="url(#clip118)"><text fill="#404040" font-family="Yu Gothic,Yu Gothic_MSFontService,sans-serif" font-weight="700" font-size="16" transform="translate(369.931 186)">39</text></g><g clip-path="url(#clip119)"><text fill="#404040" font-family="Yu Gothic,Yu Gothic_MSFontService,sans-serif" font-weight="700" font-size="16" transform="translate(442.07 146)">280</text></g><g clip-path="url(#clip120)"><text fill="#404040" font-family="Yu Gothic,Yu Gothic_MSFontService,sans-serif" font-weight="700" font-size="16" transform="translate(501.783 343)">9</text></g><g clip-path="url(#clip121)"><text fill="#404040" font-family="Yu Gothic,Yu Gothic_MSFontService,sans-serif" font-weight="700" font-size="16" transform="translate(577.844 304)">138</text></g><g clip-path="url(#clip122)"><text fill="#404040" font-family="Yu Gothic,Yu Gothic_MSFontService,sans-serif" font-weight="700" font-size="16" transform="translate(552.577 264)">91</text></g><g clip-path="url(#clip123)"><text fill="#404040" font-family="Yu Gothic,Yu Gothic_MSFontService,sans-serif" font-weight="700" font-size="16" transform="translate(502.124 225)">64</text></g><g clip-path="url(#clip124)"><text fill="#404040" font-family="Yu Gothic,Yu Gothic_MSFontService,sans-serif" font-weight="700" font-size="16" transform="translate(464.51 186)">58</text></g><g clip-path="url(#clip125)"><text fill="#404040" font-family="Yu Gothic,Yu Gothic_MSFontService,sans-serif" font-weight="700" font-size="16" transform="translate(537.525 146)">360</text></g><g clip-path="url(#clip126)"><text fill="#FFFFFF" font-family="Yu Gothic,Yu Gothic_MSFontService,sans-serif" font-weight="700" font-size="16" transform="translate(675.989 343)">5</text></g><g clip-path="url(#clip127)"><text fill="#FFFFFF" font-family="Yu Gothic,Yu Gothic_MSFontService,sans-serif" font-weight="700" font-size="16" transform="translate(678.515 304)">139</text></g><g clip-path="url(#clip128)"><text fill="#FFFFFF" font-family="Yu Gothic,Yu Gothic_MSFontService,sans-serif" font-weight="700" font-size="16" transform="translate(665.17 264)">109</text></g><g clip-path="url(#clip129)"><text fill="#FFFFFF" font-family="Yu Gothic,Yu Gothic_MSFontService,sans-serif" font-weight="700" font-size="16" transform="translate(641.344 225)">100</text></g><g clip-path="url(#clip130)"><text fill="#FFFFFF" font-family="Yu Gothic,Yu Gothic_MSFontService,sans-serif" font-weight="700" font-size="16" transform="translate(622.753 186)">109</text></g><g clip-path="url(#clip131)"><text fill="#FFFFFF" font-family="Yu Gothic,Yu Gothic_MSFontService,sans-serif" font-weight="700" font-size="16" transform="translate(660.125 146)">462</text></g><g clip-path="url(#clip132)"><g clip-path="url(#clip133)"><text fill="#595959" font-family="Yu Gothic,Yu Gothic_MSFontService,sans-serif" font-weight="500" font-size="17" transform="translate(106.436 343)">その他</text></g></g><g clip-path="url(#clip134)"><g clip-path="url(#clip135)"><text fill="#595959" font-family="Yu Gothic,Yu Gothic_MSFontService,sans-serif" font-weight="500" font-size="17" transform="translate(156.436 343)">(n=21)</text></g></g><g clip-path="url(#clip136)"><g clip-path="url(#clip137)"><text fill="#595959" font-family="Yu Gothic,Yu Gothic_MSFontService,sans-serif" font-weight="500" font-size="17" transform="translate(97.1823 303)">大学院</text></g></g><g clip-path="url(#clip138)"><g clip-path="url(#clip139)"><text fill="#595959" font-family="Yu Gothic,Yu Gothic_MSFontService,sans-serif" font-weight="500" font-size="17" transform="translate(147.182 303)">(n=719)</text></g></g><g clip-path="url(#clip140)"><g clip-path="url(#clip141)"><text fill="#595959" font-family="Yu Gothic,Yu Gothic_MSFontService,sans-serif" font-weight="500" font-size="17" transform="translate(54.5956 264)">学部</text></g></g><g clip-path="url(#clip142)"><g clip-path="url(#clip143)"><text fill="#595959" font-family="Yu Gothic,Yu Gothic_MSFontService,sans-serif" font-weight="500" font-size="17" transform="translate(87.929 264)">3</text></g></g><g clip-path="url(#clip144)"><g clip-path="url(#clip145)"><text fill="#595959" font-family="Yu Gothic,Yu Gothic_MSFontService,sans-serif" font-weight="500" font-size="17" transform="translate(97.1823 264)">年以上</text></g></g><g clip-path="url(#clip146)"><g clip-path="url(#clip147)"><text fill="#595959" font-family="Yu Gothic,Yu Gothic_MSFontService,sans-serif" font-weight="500" font-size="17" transform="translate(147.182 264)">(n=446)</text></g></g><g clip-path="url(#clip148)"><g clip-path="url(#clip149)"><text fill="#595959" font-family="Yu Gothic,Yu Gothic_MSFontService,sans-serif" font-weight="500" font-size="17" transform="translate(87.929 224)">学部</text></g></g><g clip-path="url(#clip150)"><g clip-path="url(#clip151)"><text fill="#595959" font-family="Yu Gothic,Yu Gothic_MSFontService,sans-serif" font-weight="500" font-size="17" transform="translate(121.262 224)">2</text></g></g><g clip-path="url(#clip152)"><g clip-path="url(#clip153)"><text fill="#595959" font-family="Yu Gothic,Yu Gothic_MSFontService,sans-serif" font-weight="500" font-size="17" transform="translate(130.516 224)">年</text></g></g><g clip-path="url(#clip154)"><g clip-path="url(#clip155)"><text fill="#595959" font-family="Yu Gothic,Yu Gothic_MSFontService,sans-serif" font-weight="500" font-size="17" transform="translate(147.182 224)">(n=298)</text></g></g><g clip-path="url(#clip156)"><g clip-path="url(#clip157)"><text fill="#595959" font-family="Yu Gothic,Yu Gothic_MSFontService,sans-serif" font-weight="500" font-size="17" transform="translate(87.929 185)">学部</text></g></g><g clip-path="url(#clip158)"><g clip-path="url(#clip159)"><text fill="#595959" font-family="Yu Gothic,Yu Gothic_MSFontService,sans-serif" font-weight="500" font-size="17" transform="translate(121.262 185)">1</text></g></g><g clip-path="url(#clip160)"><g clip-path="url(#clip161)"><text fill="#595959" font-family="Yu Gothic,Yu Gothic_MSFontService,sans-serif" font-weight="500" font-size="17" transform="translate(130.516 185)">年</text></g></g><g clip-path="url(#clip162)"><g clip-path="url(#clip163)"><text fill="#595959" font-family="Yu Gothic,Yu Gothic_MSFontService,sans-serif" font-weight="500" font-size="17" transform="translate(147.182 185)">(n=268)</text></g></g><g clip-path="url(#clip164)"><g clip-path="url(#clip165)"><text fill="#595959" font-family="Yu Gothic,Yu Gothic_MSFontService,sans-serif" font-weight="500" font-size="17" transform="translate(104.596 145)">全体</text></g></g><g clip-path="url(#clip166)"><g clip-path="url(#clip167)"><text fill="#595959" font-family="Yu Gothic,Yu Gothic_MSFontService,sans-serif" font-weight="500" font-size="17" transform="translate(137.929 145)">(n=1752)</text></g></g><g clip-path="url(#clip168)"><g clip-path="url(#clip169)"><text font-family="Yu Gothic,Yu Gothic_MSFontService,sans-serif" font-weight="500" font-size="21" transform="translate(50.9374 53)">【</text></g></g><g clip-path="url(#clip170)"><g clip-path="url(#clip171)"><text font-family="Yu Gothic,Yu Gothic_MSFontService,sans-serif" font-weight="500" font-size="21" transform="translate(72.2708 53)">心理面の印象</text></g></g><g clip-path="url(#clip172)"><g clip-path="url(#clip173)"><text font-family="Yu Gothic,Yu Gothic_MSFontService,sans-serif" font-weight="500" font-size="21" transform="translate(200.271 53)">】</text></g></g><g clip-path="url(#clip174)"><g clip-path="url(#clip175)"><text font-family="Yu Gothic,Yu Gothic_MSFontService,sans-serif" font-weight="500" font-size="21" transform="translate(221.604 53)">各セメスターを振り返って，課外活動が出来ないこと</text></g></g><g clip-path="url(#clip176)"><g clip-path="url(#clip177)"><text font-family="Yu Gothic,Yu Gothic_MSFontService,sans-serif" font-weight="500" font-size="21" transform="translate(733.604 53)">の不安</text></g></g><g clip-path="url(#clip178)"><g clip-path="url(#clip179)"><text font-family="Yu Gothic,Yu Gothic_MSFontService,sans-serif" font-weight="500" font-size="21" transform="translate(797.604 53)">・苦痛を</text></g></g><g clip-path="url(#clip180)"><text font-family="Yu Gothic,Yu Gothic_MSFontService,sans-serif" font-weight="500" font-size="21" transform="translate(50.9374 78)">どれだけ感じていたかについて教えてください．</text></g><rect x="34.5001" y="17.5001" width="869" height="689" stroke="#000000" stroke-width="1.33333" stroke-miterlimit="8" fill="none"/><text font-family="Yu Gothic,Yu Gothic_MSFontService,sans-serif" font-weight="500" font-size="19" transform="translate(61.6649 410)">2020Aセメスター</text><path d="M61.6649 411.7 110.665 411.7 159.665 411.7 208.665 411.7 208.665 412.7 159.665 412.7 110.665 412.7 61.6649 412.7Z" fill-rule="evenodd"/><text font-family="Yu Gothic,Yu Gothic_MSFontService,sans-serif" font-weight="500" font-size="19" transform="translate(61.6649 109)">2020Sセメスター</text><path d="M61.6649 110.694 110.332 110.694 158.998 110.694 207.665 110.694 207.665 111.694 158.998 111.694 110.332 111.694 61.6649 111.694Z" fill-rule="evenodd"/></g></svg>