<svg width="2993" height="1289" xmlns="http://www.w3.org/2000/svg" xmlns:xlink="http://www.w3.org/1999/xlink" overflow="hidden"><defs><clipPath id="clip0"><rect x="4058" y="1622" width="2993" height="1289"/></clipPath><clipPath id="clip1"><rect x="4059" y="1624" width="2989" height="1283"/></clipPath><clipPath id="clip2"><rect x="4700" y="1910" width="1799" height="859"/></clipPath><clipPath id="clip3"><rect x="4700" y="1910" width="1799" height="859"/></clipPath><clipPath id="clip4"><rect x="4700" y="1910" width="1799" height="859"/></clipPath><clipPath id="clip5"><rect x="4700" y="1910" width="1799" height="859"/></clipPath><clipPath id="clip6"><rect x="4700" y="1910" width="1799" height="859"/></clipPath><clipPath id="clip7"><rect x="4700" y="1910" width="1799" height="859"/></clipPath><clipPath id="clip8"><rect x="4700" y="1910" width="1799" height="859"/></clipPath><clipPath id="clip9"><rect x="4059" y="1624" width="2989" height="1283"/></clipPath><clipPath id="clip10"><rect x="4059" y="1624" width="2989" height="1283"/></clipPath><clipPath id="clip11"><rect x="4059" y="1624" width="2989" height="1283"/></clipPath><clipPath id="clip12"><rect x="4059" y="1624" width="2989" height="1283"/></clipPath><clipPath id="clip13"><rect x="4059" y="1624" width="2989" height="1283"/></clipPath><clipPath id="clip14"><rect x="4059" y="1624" width="2989" height="1283"/></clipPath><clipPath id="clip15"><rect x="4059" y="1624" width="2989" height="1283"/></clipPath><clipPath id="clip16"><rect x="4059" y="1624" width="2989" height="1283"/></clipPath><clipPath id="clip17"><rect x="4059" y="1624" width="2989" height="1283"/></clipPath><clipPath id="clip18"><rect x="4059" y="1624" width="2989" height="1283"/></clipPath><clipPath id="clip19"><rect x="4059" y="1624" width="2989" height="1283"/></clipPath><clipPath id="clip20"><rect x="4059" y="1624" width="2989" height="1283"/></clipPath><clipPath id="clip21"><rect x="4059" y="1624" width="2989" height="1283"/></clipPath><clipPath id="clip22"><rect x="4059" y="1624" width="2989" height="1283"/></clipPath><clipPath id="clip23"><rect x="4059" y="1624" width="2989" height="1283"/></clipPath><clipPath id="clip24"><rect x="4059" y="1624" width="2989" height="1283"/></clipPath><clipPath id="clip25"><rect x="4059" y="1624" width="2989" height="1283"/></clipPath><clipPath id="clip26"><rect x="4059" y="1624" width="2989" height="1283"/></clipPath><clipPath id="clip27"><rect x="4059" y="1624" width="2989" height="1283"/></clipPath><clipPath id="clip28"><rect x="4059" y="1624" width="2989" height="1283"/></clipPath><clipPath id="clip29"><rect x="4059" y="1624" width="2989" height="1283"/></clipPath><clipPath id="clip30"><rect x="4059" y="1624" width="2989" height="1283"/></clipPath><clipPath id="clip31"><rect x="4059" y="1624" width="2989" height="1283"/></clipPath><clipPath id="clip32"><rect x="4059" y="1624" width="2989" height="1283"/></clipPath><clipPath id="clip33"><rect x="4059" y="1624" width="2989" height="1283"/></clipPath><clipPath id="clip34"><rect x="4059" y="1624" width="2989" height="1283"/></clipPath><clipPath id="clip35"><rect x="4059" y="1624" width="2989" height="1283"/></clipPath><clipPath id="clip36"><rect x="4059" y="1624" width="2989" height="1283"/></clipPath><clipPath id="clip37"><rect x="4059" y="1624" width="2989" height="1283"/></clipPath><clipPath id="clip38"><rect x="4059" y="1624" width="2989" height="1283"/></clipPath><clipPath id="clip39"><rect x="4059" y="1624" width="2989" height="1283"/></clipPath><clipPath id="clip40"><rect x="4059" y="1624" width="2989" height="1283"/></clipPath><clipPath id="clip41"><rect x="4059" y="1624" width="2989" height="1283"/></clipPath><clipPath id="clip42"><rect x="4059" y="1624" width="2989" height="1283"/></clipPath><clipPath id="clip43"><rect x="4059" y="1624" width="2989" height="1283"/></clipPath><clipPath id="clip44"><rect x="4059" y="1624" width="2989" height="1283"/></clipPath><clipPath id="clip45"><rect x="4059" y="1624" width="2989" height="1283"/></clipPath><clipPath id="clip46"><rect x="3248" y="2618" width="2476" height="144"/></clipPath><clipPath id="clip47"><rect x="4059" y="1624" width="2989" height="1283"/></clipPath><clipPath id="clip48"><rect x="3248" y="2618" width="2476" height="144"/></clipPath><clipPath id="clip49"><rect x="4059" y="1624" width="2989" height="1283"/></clipPath><clipPath id="clip50"><rect x="3121" y="2476" width="2699" height="143"/></clipPath><clipPath id="clip51"><rect x="4059" y="1624" width="2989" height="1283"/></clipPath><clipPath id="clip52"><rect x="3121" y="2476" width="2699" height="143"/></clipPath><clipPath id="clip53"><rect x="4059" y="1624" width="2989" height="1283"/></clipPath><clipPath id="clip54"><rect x="2535" y="2333" width="3724" height="144"/></clipPath><clipPath id="clip55"><rect x="4059" y="1624" width="2989" height="1283"/></clipPath><clipPath id="clip56"><rect x="2535" y="2333" width="3724" height="144"/></clipPath><clipPath id="clip57"><rect x="4059" y="1624" width="2989" height="1283"/></clipPath><clipPath id="clip58"><rect x="2535" y="2333" width="3724" height="144"/></clipPath><clipPath id="clip59"><rect x="4059" y="1624" width="2989" height="1283"/></clipPath><clipPath id="clip60"><rect x="2535" y="2333" width="3724" height="144"/></clipPath><clipPath id="clip61"><rect x="4059" y="1624" width="2989" height="1283"/></clipPath><clipPath id="clip62"><rect x="2993" y="2191" width="2922" height="143"/></clipPath><clipPath id="clip63"><rect x="4059" y="1624" width="2989" height="1283"/></clipPath><clipPath id="clip64"><rect x="2993" y="2191" width="2922" height="143"/></clipPath><clipPath id="clip65"><rect x="4059" y="1624" width="2989" height="1283"/></clipPath><clipPath id="clip66"><rect x="2993" y="2191" width="2922" height="143"/></clipPath><clipPath id="clip67"><rect x="4059" y="1624" width="2989" height="1283"/></clipPath><clipPath id="clip68"><rect x="2993" y="2191" width="2922" height="143"/></clipPath><clipPath id="clip69"><rect x="4059" y="1624" width="2989" height="1283"/></clipPath><clipPath id="clip70"><rect x="2993" y="2048" width="2922" height="144"/></clipPath><clipPath id="clip71"><rect x="4059" y="1624" width="2989" height="1283"/></clipPath><clipPath id="clip72"><rect x="2993" y="2048" width="2922" height="144"/></clipPath><clipPath id="clip73"><rect x="4059" y="1624" width="2989" height="1283"/></clipPath><clipPath id="clip74"><rect x="2993" y="2048" width="2922" height="144"/></clipPath><clipPath id="clip75"><rect x="4059" y="1624" width="2989" height="1283"/></clipPath><clipPath id="clip76"><rect x="2993" y="2048" width="2922" height="144"/></clipPath><clipPath id="clip77"><rect x="4059" y="1624" width="2989" height="1283"/></clipPath><clipPath id="clip78"><rect x="3223" y="1906" width="2520" height="143"/></clipPath><clipPath id="clip79"><rect x="4059" y="1624" width="2989" height="1283"/></clipPath><clipPath id="clip80"><rect x="3223" y="1906" width="2520" height="143"/></clipPath><clipPath id="clip81"><rect x="4059" y="1624" width="2989" height="1283"/></clipPath><clipPath id="clip82"><rect x="4059" y="1624" width="2989" height="1283"/></clipPath><clipPath id="clip83"><rect x="4059" y="1624" width="2989" height="1283"/></clipPath><clipPath id="clip84"><rect x="4059" y="1624" width="2989" height="1283"/></clipPath><clipPath id="clip85"><rect x="4059" y="1624" width="2989" height="1283"/></clipPath><clipPath id="clip86"><rect x="4059" y="1624" width="2989" height="1283"/></clipPath><clipPath id="clip87"><rect x="4059" y="1624" width="2989" height="1283"/></clipPath><clipPath id="clip88"><rect x="4059" y="1624" width="2989" height="1283"/></clipPath><clipPath id="clip89"><rect x="4059" y="1624" width="2989" height="1283"/></clipPath><clipPath id="clip90"><rect x="4059" y="1624" width="2989" height="1283"/></clipPath><clipPath id="clip91"><rect x="4059" y="1624" width="2989" height="1283"/></clipPath><clipPath id="clip92"><rect x="4059" y="1624" width="2989" height="1283"/></clipPath><clipPath id="clip93"><rect x="4059" y="1624" width="2990" height="1284"/></clipPath><clipPath id="clip94"><rect x="-3773" y="1632" width="18414" height="406"/></clipPath><clipPath id="clip95"><rect x="4059" y="1624" width="2990" height="1284"/></clipPath><clipPath id="clip96"><rect x="-3773" y="1632" width="18414" height="406"/></clipPath><clipPath id="clip97"><rect x="4059" y="1624" width="2990" height="1284"/></clipPath><clipPath id="clip98"><rect x="-3773" y="1632" width="18414" height="406"/></clipPath><clipPath id="clip99"><rect x="4059" y="1624" width="2990" height="1284"/></clipPath><clipPath id="clip100"><rect x="-3773" y="1632" width="18414" height="406"/></clipPath><clipPath id="clip101"><rect x="4059" y="1624" width="2990" height="1284"/></clipPath><clipPath id="clip102"><rect x="-3773" y="1632" width="18414" height="406"/></clipPath><clipPath id="clip103"><rect x="4059" y="1624" width="2990" height="1284"/></clipPath></defs><g clip-path="url(#clip0)" transform="translate(-4058 -1622)"><rect x="4060" y="1624" width="2988" height="1284" fill="#FFFFFF"/><g clip-path="url(#clip1)"><path d="M5149.67 1910.5 5149.67 2765.5M5597.68 1910.5 5597.68 2765.5M6046.7 1910.5 6046.7 2765.5M6496.5 1910.5 6496.5 2765.5" stroke="#D9D9D9" stroke-width="4.58333" stroke-linejoin="round" stroke-miterlimit="10" fill="none"/></g><g clip-path="url(#clip2)"><path d="M5115.5 2028.5 4700.5 2028.5 4700.5 1934.5 5115.5 1934.5Z" stroke="#000000" stroke-width="4.58333" stroke-linejoin="round" stroke-miterlimit="10" fill="#FFFFFF"/></g><g clip-path="url(#clip3)"><path d="M4987.66 2740.59 4700.5 2740.59 4700.5 2647.59 4987.66 2647.59ZM5257.67 2598.59 4700.5 2598.59 4700.5 2505.58 5257.67 2505.58ZM5123.67 2455.58 4700.5 2455.58 4700.5 2362.58 5123.67 2362.58ZM4983.66 2313.58 4700.5 2313.58 4700.5 2219.57 4983.66 2219.57ZM4874.66 2170.57 4700.5 2170.57 4700.5 2077.57 4874.66 2077.57Z" stroke="#000000" stroke-width="4.58333" stroke-linejoin="round" stroke-miterlimit="10" fill="#FFFFFF"/></g><g clip-path="url(#clip4)"><path d="M5391.5 2028.5 5115.5 2028.5 5115.5 1934.5 5391.5 1934.5Z" stroke="#000000" stroke-width="4.58333" stroke-linejoin="round" stroke-miterlimit="10" fill="#F1F8FD"/></g><g clip-path="url(#clip5)"><path d="M5202.67 2740.59 4987.66 2740.59 4987.66 2647.59 5202.67 2647.59ZM5533.68 2598.59 5257.67 2598.59 5257.67 2505.58 5533.68 2505.58ZM5438.68 2455.58 5123.67 2455.58 5123.67 2362.58 5438.68 2362.58ZM5218.67 2313.58 4983.66 2313.58 4983.66 2219.57 5218.67 2219.57ZM5137.67 2170.57 4874.66 2170.57 4874.66 2077.57 5137.67 2077.57Z" stroke="#000000" stroke-width="4.58333" stroke-linejoin="round" stroke-miterlimit="10" fill="#F1F8FD"/></g><g clip-path="url(#clip6)"><path d="M5346.68 2740.59 5202.67 2740.59 5202.67 2647.59 5346.68 2647.59ZM5834.69 2598.59 5533.68 2598.59 5533.68 2505.58 5834.69 2505.58ZM5757.69 2455.58 5438.68 2455.58 5438.68 2362.58 5757.69 2362.58ZM5597.68 2313.58 5218.67 2313.58 5218.67 2219.57 5597.68 2219.57ZM5527.68 2170.57 5137.67 2170.57 5137.67 2077.57 5527.68 2077.57ZM5721.69 2027.57 5391.68 2027.57 5391.68 1934.56 5721.69 1934.56Z" stroke="#000000" stroke-width="4.58333" stroke-linejoin="round" stroke-miterlimit="10" fill="#C2DDF6"/></g><g clip-path="url(#clip7)"><path d="M6136.7 2740.59 5346.68 2740.59 5346.68 2647.59 6136.7 2647.59ZM6172.7 2598.59 5834.69 2598.59 5834.69 2505.58 6172.7 2505.58ZM6112.7 2455.58 5757.69 2455.58 5757.69 2362.58 6112.7 2362.58ZM5989.7 2313.58 5597.68 2313.58 5597.68 2219.57 5989.7 2219.57ZM5971.7 2170.57 5527.68 2170.57 5527.68 2077.57 5971.7 2077.57ZM6095.7 2027.57 5721.69 2027.57 5721.69 1934.56 6095.7 1934.56Z" stroke="#000000" stroke-width="4.58333" stroke-linejoin="round" stroke-miterlimit="10" fill="#9ECBF0"/></g><g clip-path="url(#clip8)"><path d="M6495.71 2740.59 6136.7 2740.59 6136.7 2647.59 6495.71 2647.59ZM6495.71 2598.59 6172.7 2598.59 6172.7 2505.58 6495.71 2505.58ZM6495.71 2455.58 6112.7 2455.58 6112.7 2362.58 6495.71 2362.58ZM6495.71 2313.58 5989.7 2313.58 5989.7 2219.57 6495.71 2219.57ZM6495.71 2170.57 5971.7 2170.57 5971.7 2077.57 6495.71 2077.57ZM6495.71 2027.57 6095.7 2027.57 6095.7 1934.56 6495.71 1934.56Z" stroke="#000000" stroke-width="4.58333" stroke-linejoin="round" stroke-miterlimit="10" fill="#095085"/></g><g clip-path="url(#clip9)"><path d="M0 0 0.000360892 855" stroke="#D9D9D9" stroke-width="3.4375" stroke-linejoin="round" stroke-miterlimit="10" fill="none" fill-rule="evenodd" transform="matrix(1 0 0 -1 4700.5 2765.5)"/></g><g clip-path="url(#clip10)"><text fill="#404040" font-family="Yu Gothic,Yu Gothic_MSFontService,sans-serif" font-weight="700" font-size="55" transform="matrix(1 0 0 1 4828.14 2713)">4</text></g><g clip-path="url(#clip11)"><text fill="#404040" font-family="Yu Gothic,Yu Gothic_MSFontService,sans-serif" font-weight="700" font-size="55" transform="matrix(1 0 0 1 4931.69 2571)">226</text></g><g clip-path="url(#clip12)"><text fill="#404040" font-family="Yu Gothic,Yu Gothic_MSFontService,sans-serif" font-weight="700" font-size="55" transform="matrix(1 0 0 1 4864.81 2428)">105</text></g><g clip-path="url(#clip13)"><text fill="#404040" font-family="Yu Gothic,Yu Gothic_MSFontService,sans-serif" font-weight="700" font-size="55" transform="matrix(1 0 0 1 4810.33 2286)">47</text></g><g clip-path="url(#clip14)"><text fill="#404040" font-family="Yu Gothic,Yu Gothic_MSFontService,sans-serif" font-weight="700" font-size="55" transform="matrix(1 0 0 1 4756.15 2143)">26</text></g><g clip-path="url(#clip15)"><text fill="#404040" font-family="Yu Gothic,Yu Gothic_MSFontService,sans-serif" font-weight="700" font-size="55" transform="matrix(1 0 0 1 4860.74 2000)">408</text></g><g clip-path="url(#clip16)"><text fill="#404040" font-family="Yu Gothic,Yu Gothic_MSFontService,sans-serif" font-weight="700" font-size="55" transform="matrix(1 0 0 1 5079.56 2713)">3</text></g><g clip-path="url(#clip17)"><text fill="#404040" font-family="Yu Gothic,Yu Gothic_MSFontService,sans-serif" font-weight="700" font-size="55" transform="matrix(1 0 0 1 5348.57 2571)">112</text></g><g clip-path="url(#clip18)"><text fill="#404040" font-family="Yu Gothic,Yu Gothic_MSFontService,sans-serif" font-weight="700" font-size="55" transform="matrix(1 0 0 1 5249.83 2428)">78</text></g><g clip-path="url(#clip19)"><text fill="#404040" font-family="Yu Gothic,Yu Gothic_MSFontService,sans-serif" font-weight="700" font-size="55" transform="matrix(1 0 0 1 5069.45 2286)">39</text></g><g clip-path="url(#clip20)"><text fill="#404040" font-family="Yu Gothic,Yu Gothic_MSFontService,sans-serif" font-weight="700" font-size="55" transform="matrix(1 0 0 1 4974.74 2143)">39</text></g><g clip-path="url(#clip21)"><text fill="#404040" font-family="Yu Gothic,Yu Gothic_MSFontService,sans-serif" font-weight="700" font-size="55" transform="matrix(1 0 0 1 5206.56 2000)">271</text></g><g clip-path="url(#clip22)"><text fill="#404040" font-family="Yu Gothic,Yu Gothic_MSFontService,sans-serif" font-weight="700" font-size="55" transform="matrix(1 0 0 1 5259.14 2713)">2</text></g><g clip-path="url(#clip23)"><text fill="#404040" font-family="Yu Gothic,Yu Gothic_MSFontService,sans-serif" font-weight="700" font-size="55" transform="matrix(1 0 0 1 5637.19 2571)">122</text></g><g clip-path="url(#clip24)"><text fill="#404040" font-family="Yu Gothic,Yu Gothic_MSFontService,sans-serif" font-weight="700" font-size="55" transform="matrix(1 0 0 1 5566.62 2428)">79</text></g><g clip-path="url(#clip25)"><text fill="#404040" font-family="Yu Gothic,Yu Gothic_MSFontService,sans-serif" font-weight="700" font-size="55" transform="matrix(1 0 0 1 5376.79 2286)">63</text></g><g clip-path="url(#clip26)"><text fill="#404040" font-family="Yu Gothic,Yu Gothic_MSFontService,sans-serif" font-weight="700" font-size="55" transform="matrix(1 0 0 1 5300.94 2143)">58</text></g><g clip-path="url(#clip27)"><text fill="#404040" font-family="Yu Gothic,Yu Gothic_MSFontService,sans-serif" font-weight="700" font-size="55" transform="matrix(1 0 0 1 5509.6 2000)">324</text></g><g clip-path="url(#clip28)"><text fill="#404040" font-family="Yu Gothic,Yu Gothic_MSFontService,sans-serif" font-weight="700" font-size="55" transform="matrix(1 0 0 1 5710.28 2713)">11</text></g><g clip-path="url(#clip29)"><text fill="#404040" font-family="Yu Gothic,Yu Gothic_MSFontService,sans-serif" font-weight="700" font-size="55" transform="matrix(1 0 0 1 5956.63 2571)">137</text></g><g clip-path="url(#clip30)"><text fill="#404040" font-family="Yu Gothic,Yu Gothic_MSFontService,sans-serif" font-weight="700" font-size="55" transform="matrix(1 0 0 1 5903.58 2428)">88</text></g><g clip-path="url(#clip31)"><text fill="#404040" font-family="Yu Gothic,Yu Gothic_MSFontService,sans-serif" font-weight="700" font-size="55" transform="matrix(1 0 0 1 5762.47 2286)">65</text></g><g clip-path="url(#clip32)"><text fill="#404040" font-family="Yu Gothic,Yu Gothic_MSFontService,sans-serif" font-weight="700" font-size="55" transform="matrix(1 0 0 1 5717.95 2143)">66</text></g><g clip-path="url(#clip33)"><text fill="#404040" font-family="Yu Gothic,Yu Gothic_MSFontService,sans-serif" font-weight="700" font-size="55" transform="matrix(1 0 0 1 5861.53 2000)">367</text></g><g clip-path="url(#clip34)"><text fill="#FFFFFF" font-family="Yu Gothic,Yu Gothic_MSFontService,sans-serif" font-weight="700" font-size="55" transform="matrix(1 0 0 1 6300.71 2713)">5</text></g><g clip-path="url(#clip35)"><text fill="#FFFFFF" font-family="Yu Gothic,Yu Gothic_MSFontService,sans-serif" font-weight="700" font-size="55" transform="matrix(1 0 0 1 6287.18 2571)">131</text></g><g clip-path="url(#clip36)"><text fill="#FFFFFF" font-family="Yu Gothic,Yu Gothic_MSFontService,sans-serif" font-weight="700" font-size="55" transform="matrix(1 0 0 1 6272.83 2428)">95</text></g><g clip-path="url(#clip37)"><text fill="#FFFFFF" font-family="Yu Gothic,Yu Gothic_MSFontService,sans-serif" font-weight="700" font-size="55" transform="matrix(1 0 0 1 6211.42 2286)">84</text></g><g clip-path="url(#clip38)"><text fill="#FFFFFF" font-family="Yu Gothic,Yu Gothic_MSFontService,sans-serif" font-weight="700" font-size="55" transform="matrix(1 0 0 1 6202.21 2143)">78</text></g><g clip-path="url(#clip39)"><text fill="#FFFFFF" font-family="Yu Gothic,Yu Gothic_MSFontService,sans-serif" font-weight="700" font-size="55" transform="matrix(1 0 0 1 6248.6 2000)">393</text></g><g clip-path="url(#clip40)"><text fill="#595959" font-family="Yu Gothic,Yu Gothic_MSFontService,sans-serif" font-weight="500" font-size="60" transform="matrix(1 0 0 1 4659.75 2864)">0%</text></g><g clip-path="url(#clip41)"><text fill="#595959" font-family="Yu Gothic,Yu Gothic_MSFontService,sans-serif" font-weight="500" font-size="60" transform="matrix(1 0 0 1 5092.17 2864)">25%</text></g><g clip-path="url(#clip42)"><text fill="#595959" font-family="Yu Gothic,Yu Gothic_MSFontService,sans-serif" font-weight="500" font-size="60" transform="matrix(1 0 0 1 5541.12 2864)">50%</text></g><g clip-path="url(#clip43)"><text fill="#595959" font-family="Yu Gothic,Yu Gothic_MSFontService,sans-serif" font-weight="500" font-size="60" transform="matrix(1 0 0 1 5990.07 2864)">75%</text></g><g clip-path="url(#clip44)"><text fill="#595959" font-family="Yu Gothic,Yu Gothic_MSFontService,sans-serif" font-weight="500" font-size="60" transform="matrix(1 0 0 1 6422.49 2864)">100%</text></g><g clip-path="url(#clip45)"><g clip-path="url(#clip46)"><text fill="#595959" font-family="Yu Gothic,Yu Gothic_MSFontService,sans-serif" font-weight="500" font-size="57" transform="matrix(1 0 0 1 4309.27 2710)">その他</text></g></g><g clip-path="url(#clip47)"><g clip-path="url(#clip48)"><text fill="#595959" font-family="Yu Gothic,Yu Gothic_MSFontService,sans-serif" font-weight="500" font-size="57" transform="matrix(1 0 0 1 4481.14 2710)">(n=25)</text></g></g><g clip-path="url(#clip49)"><g clip-path="url(#clip50)"><text fill="#595959" font-family="Yu Gothic,Yu Gothic_MSFontService,sans-serif" font-weight="500" font-size="57" transform="matrix(1 0 0 1 4277.46 2568)">大学院</text></g></g><g clip-path="url(#clip51)"><g clip-path="url(#clip52)"><text fill="#595959" font-family="Yu Gothic,Yu Gothic_MSFontService,sans-serif" font-weight="500" font-size="57" transform="matrix(1 0 0 1 4449.33 2568)">(n=728)</text></g></g><g clip-path="url(#clip53)"><g clip-path="url(#clip54)"><text fill="#595959" font-family="Yu Gothic,Yu Gothic_MSFontService,sans-serif" font-weight="500" font-size="57" transform="matrix(1 0 0 1 4131.07 2425)">学部</text></g></g><g clip-path="url(#clip55)"><g clip-path="url(#clip56)"><text fill="#595959" font-family="Yu Gothic,Yu Gothic_MSFontService,sans-serif" font-weight="500" font-size="57" transform="matrix(1 0 0 1 4245.65 2425)">3</text></g></g><g clip-path="url(#clip57)"><g clip-path="url(#clip58)"><text fill="#595959" font-family="Yu Gothic,Yu Gothic_MSFontService,sans-serif" font-weight="500" font-size="57" transform="matrix(1 0 0 1 4277.46 2425)">年以上</text></g></g><g clip-path="url(#clip59)"><g clip-path="url(#clip60)"><text fill="#595959" font-family="Yu Gothic,Yu Gothic_MSFontService,sans-serif" font-weight="500" font-size="57" transform="matrix(1 0 0 1 4449.33 2425)">(n=445)</text></g></g><g clip-path="url(#clip61)"><g clip-path="url(#clip62)"><text fill="#595959" font-family="Yu Gothic,Yu Gothic_MSFontService,sans-serif" font-weight="500" font-size="57" transform="matrix(1 0 0 1 4245.65 2283)">学部</text></g></g><g clip-path="url(#clip63)"><g clip-path="url(#clip64)"><text fill="#595959" font-family="Yu Gothic,Yu Gothic_MSFontService,sans-serif" font-weight="500" font-size="57" transform="matrix(1 0 0 1 4360.23 2283)">2</text></g></g><g clip-path="url(#clip65)"><g clip-path="url(#clip66)"><text fill="#595959" font-family="Yu Gothic,Yu Gothic_MSFontService,sans-serif" font-weight="500" font-size="57" transform="matrix(1 0 0 1 4392.04 2283)">年</text></g></g><g clip-path="url(#clip67)"><g clip-path="url(#clip68)"><text fill="#595959" font-family="Yu Gothic,Yu Gothic_MSFontService,sans-serif" font-weight="500" font-size="57" transform="matrix(1 0 0 1 4449.33 2283)">(n=298)</text></g></g><g clip-path="url(#clip69)"><g clip-path="url(#clip70)"><text fill="#595959" font-family="Yu Gothic,Yu Gothic_MSFontService,sans-serif" font-weight="500" font-size="57" transform="matrix(1 0 0 1 4245.65 2140)">学部</text></g></g><g clip-path="url(#clip71)"><g clip-path="url(#clip72)"><text fill="#595959" font-family="Yu Gothic,Yu Gothic_MSFontService,sans-serif" font-weight="500" font-size="57" transform="matrix(1 0 0 1 4360.23 2140)">1</text></g></g><g clip-path="url(#clip73)"><g clip-path="url(#clip74)"><text fill="#595959" font-family="Yu Gothic,Yu Gothic_MSFontService,sans-serif" font-weight="500" font-size="57" transform="matrix(1 0 0 1 4392.04 2140)">年</text></g></g><g clip-path="url(#clip75)"><g clip-path="url(#clip76)"><text fill="#595959" font-family="Yu Gothic,Yu Gothic_MSFontService,sans-serif" font-weight="500" font-size="57" transform="matrix(1 0 0 1 4449.33 2140)">(n=267)</text></g></g><g clip-path="url(#clip77)"><g clip-path="url(#clip78)"><text fill="#595959" font-family="Yu Gothic,Yu Gothic_MSFontService,sans-serif" font-weight="500" font-size="57" transform="matrix(1 0 0 1 4302.94 1997)">全体</text></g></g><g clip-path="url(#clip79)"><g clip-path="url(#clip80)"><text fill="#595959" font-family="Yu Gothic,Yu Gothic_MSFontService,sans-serif" font-weight="500" font-size="57" transform="matrix(1 0 0 1 4417.53 1997)">(n=1763)</text></g></g><g clip-path="url(#clip81)"><rect x="6563.5" y="1953.5" width="29" height="28.9999" stroke="#000000" stroke-width="4.58333" stroke-linejoin="round" stroke-miterlimit="10" fill="#FFFFFF"/></g><g clip-path="url(#clip82)"><text fill="#595959" font-family="Yu Gothic,Yu Gothic_MSFontService,sans-serif" font-weight="500" font-size="50" transform="matrix(1 0 0 1 6605.58 1982)">全く感じていな</text></g><g clip-path="url(#clip83)"><text fill="#595959" font-family="Yu Gothic,Yu Gothic_MSFontService,sans-serif" font-weight="500" font-size="50" transform="matrix(1 0 0 1 6605.58 2066)">かった</text></g><g clip-path="url(#clip84)"><rect x="6563.5" y="2129.5" width="29" height="28.9998" stroke="#000000" stroke-width="4.58333" stroke-linejoin="round" stroke-miterlimit="10" fill="#F1F8FD"/></g><g clip-path="url(#clip85)"><text fill="#595959" font-family="Yu Gothic,Yu Gothic_MSFontService,sans-serif" font-weight="500" font-size="50" transform="matrix(1 0 0 1 6605.58 2158)">ほとんど感じてい</text></g><g clip-path="url(#clip86)"><text fill="#595959" font-family="Yu Gothic,Yu Gothic_MSFontService,sans-serif" font-weight="500" font-size="50" transform="matrix(1 0 0 1 6605.58 2242)">なかった</text></g><g clip-path="url(#clip87)"><rect x="6563.5" y="2306.5" width="29" height="28.9998" stroke="#000000" stroke-width="4.58333" stroke-linejoin="round" stroke-miterlimit="10" fill="#C2DDF6"/></g><g clip-path="url(#clip88)"><text fill="#595959" font-family="Yu Gothic,Yu Gothic_MSFontService,sans-serif" font-weight="500" font-size="50" transform="matrix(1 0 0 1 6605.58 2335)">少し感じていた</text></g><g clip-path="url(#clip89)"><rect x="6563.5" y="2482.5" width="29" height="28.9998" stroke="#000000" stroke-width="4.58333" stroke-linejoin="round" stroke-miterlimit="10" fill="#9ECBF0"/></g><g clip-path="url(#clip90)"><text fill="#595959" font-family="Yu Gothic,Yu Gothic_MSFontService,sans-serif" font-weight="500" font-size="50" transform="matrix(1 0 0 1 6605.58 2511)">かなり感じていた</text></g><g clip-path="url(#clip91)"><rect x="6563.5" y="2658.5" width="29" height="30" stroke="#000000" stroke-width="4.58333" stroke-linejoin="round" stroke-miterlimit="10" fill="#095085"/></g><g clip-path="url(#clip92)"><text fill="#595959" font-family="Yu Gothic,Yu Gothic_MSFontService,sans-serif" font-weight="500" font-size="50" transform="matrix(1 0 0 1 6605.58 2688)">深刻に感じていた</text></g><rect x="4060.5" y="1624.5" width="2988" height="1284" stroke="#000000" stroke-width="4.58333" stroke-linejoin="round" stroke-miterlimit="10" fill="none"/><g clip-path="url(#clip93)"><g clip-path="url(#clip94)"><text font-family="Yu Gothic,Yu Gothic_MSFontService,sans-serif" font-weight="500" font-size="73" transform="matrix(1 0 0 1 4118.73 1736)">【心理面の印象】</text></g></g><g clip-path="url(#clip95)"><g clip-path="url(#clip96)"><text font-family="Yu Gothic,Yu Gothic_MSFontService,sans-serif" font-weight="500" font-size="73" transform="matrix(1 0 0 1 4705.4 1736)">2020</text></g></g><g clip-path="url(#clip97)"><g clip-path="url(#clip98)"><text font-family="Yu Gothic,Yu Gothic_MSFontService,sans-serif" font-weight="500" font-size="73" transform="matrix(1 0 0 1 4868.29 1736)">年度</text></g></g><g clip-path="url(#clip99)"><g clip-path="url(#clip100)"><text font-family="Yu Gothic,Yu Gothic_MSFontService,sans-serif" font-weight="500" font-size="73" transform="matrix(1 0 0 1 5014.95 1736)">A</text></g></g><g clip-path="url(#clip101)"><g clip-path="url(#clip102)"><text font-family="Yu Gothic,Yu Gothic_MSFontService,sans-serif" font-weight="500" font-size="73" transform="matrix(1 0 0 1 5062.62 1736)">セメスタを振り返って，課外活動が出来ないことの</text></g></g><g clip-path="url(#clip103)"><text font-family="Yu Gothic,Yu Gothic_MSFontService,sans-serif" font-weight="500" font-size="73" transform="matrix(1 0 0 1 4118.73 1859)">不安・苦痛をどれだけ感じていたかについて教えてください。</text></g></g></svg>