<svg width="2993" height="1288" xmlns="http://www.w3.org/2000/svg" xmlns:xlink="http://www.w3.org/1999/xlink" overflow="hidden"><defs><clipPath id="clip0"><rect x="3241" y="567" width="2993" height="1288"/></clipPath><clipPath id="clip1"><rect x="3242" y="568" width="2989" height="1284"/></clipPath><clipPath id="clip2"><rect x="3883" y="854" width="1799" height="859"/></clipPath><clipPath id="clip3"><rect x="3883" y="854" width="1799" height="859"/></clipPath><clipPath id="clip4"><rect x="3883" y="854" width="1799" height="859"/></clipPath><clipPath id="clip5"><rect x="3883" y="854" width="1799" height="859"/></clipPath><clipPath id="clip6"><rect x="3883" y="854" width="1799" height="859"/></clipPath><clipPath id="clip7"><rect x="3883" y="854" width="1799" height="859"/></clipPath><clipPath id="clip8"><rect x="3883" y="854" width="1799" height="859"/></clipPath><clipPath id="clip9"><rect x="3242" y="568" width="2989" height="1284"/></clipPath><clipPath id="clip10"><rect x="3242" y="568" width="2989" height="1284"/></clipPath><clipPath id="clip11"><rect x="3242" y="568" width="2989" height="1284"/></clipPath><clipPath id="clip12"><rect x="3242" y="568" width="2989" height="1284"/></clipPath><clipPath id="clip13"><rect x="3242" y="568" width="2989" height="1284"/></clipPath><clipPath id="clip14"><rect x="3242" y="568" width="2989" height="1284"/></clipPath><clipPath id="clip15"><rect x="3242" y="568" width="2989" height="1284"/></clipPath><clipPath id="clip16"><rect x="3242" y="568" width="2989" height="1284"/></clipPath><clipPath id="clip17"><rect x="3242" y="568" width="2989" height="1284"/></clipPath><clipPath id="clip18"><rect x="3242" y="568" width="2989" height="1284"/></clipPath><clipPath id="clip19"><rect x="3242" y="568" width="2989" height="1284"/></clipPath><clipPath id="clip20"><rect x="3242" y="568" width="2989" height="1284"/></clipPath><clipPath id="clip21"><rect x="3242" y="568" width="2989" height="1284"/></clipPath><clipPath id="clip22"><rect x="3242" y="568" width="2989" height="1284"/></clipPath><clipPath id="clip23"><rect x="3242" y="568" width="2989" height="1284"/></clipPath><clipPath id="clip24"><rect x="3242" y="568" width="2989" height="1284"/></clipPath><clipPath id="clip25"><rect x="3242" y="568" width="2989" height="1284"/></clipPath><clipPath id="clip26"><rect x="3242" y="568" width="2989" height="1284"/></clipPath><clipPath id="clip27"><rect x="3242" y="568" width="2989" height="1284"/></clipPath><clipPath id="clip28"><rect x="3242" y="568" width="2989" height="1284"/></clipPath><clipPath id="clip29"><rect x="3242" y="568" width="2989" height="1284"/></clipPath><clipPath id="clip30"><rect x="3242" y="568" width="2989" height="1284"/></clipPath><clipPath id="clip31"><rect x="3242" y="568" width="2989" height="1284"/></clipPath><clipPath id="clip32"><rect x="3242" y="568" width="2989" height="1284"/></clipPath><clipPath id="clip33"><rect x="3242" y="568" width="2989" height="1284"/></clipPath><clipPath id="clip34"><rect x="3242" y="568" width="2989" height="1284"/></clipPath><clipPath id="clip35"><rect x="3242" y="568" width="2989" height="1284"/></clipPath><clipPath id="clip36"><rect x="3242" y="568" width="2989" height="1284"/></clipPath><clipPath id="clip37"><rect x="3242" y="568" width="2989" height="1284"/></clipPath><clipPath id="clip38"><rect x="3242" y="568" width="2989" height="1284"/></clipPath><clipPath id="clip39"><rect x="3242" y="568" width="2989" height="1284"/></clipPath><clipPath id="clip40"><rect x="3242" y="568" width="2989" height="1284"/></clipPath><clipPath id="clip41"><rect x="3242" y="568" width="2989" height="1284"/></clipPath><clipPath id="clip42"><rect x="3242" y="568" width="2989" height="1284"/></clipPath><clipPath id="clip43"><rect x="3242" y="568" width="2989" height="1284"/></clipPath><clipPath id="clip44"><rect x="3242" y="568" width="2989" height="1284"/></clipPath><clipPath id="clip45"><rect x="3242" y="568" width="2989" height="1284"/></clipPath><clipPath id="clip46"><rect x="2431" y="1563" width="2476" height="143"/></clipPath><clipPath id="clip47"><rect x="3242" y="568" width="2989" height="1284"/></clipPath><clipPath id="clip48"><rect x="2431" y="1563" width="2476" height="143"/></clipPath><clipPath id="clip49"><rect x="3242" y="568" width="2989" height="1284"/></clipPath><clipPath id="clip50"><rect x="2304" y="1420" width="2699" height="144"/></clipPath><clipPath id="clip51"><rect x="3242" y="568" width="2989" height="1284"/></clipPath><clipPath id="clip52"><rect x="2304" y="1420" width="2699" height="144"/></clipPath><clipPath id="clip53"><rect x="3242" y="568" width="2989" height="1284"/></clipPath><clipPath id="clip54"><rect x="1718" y="1278" width="3724" height="143"/></clipPath><clipPath id="clip55"><rect x="3242" y="568" width="2989" height="1284"/></clipPath><clipPath id="clip56"><rect x="1718" y="1278" width="3724" height="143"/></clipPath><clipPath id="clip57"><rect x="3242" y="568" width="2989" height="1284"/></clipPath><clipPath id="clip58"><rect x="1718" y="1278" width="3724" height="143"/></clipPath><clipPath id="clip59"><rect x="3242" y="568" width="2989" height="1284"/></clipPath><clipPath id="clip60"><rect x="1718" y="1278" width="3724" height="143"/></clipPath><clipPath id="clip61"><rect x="3242" y="568" width="2989" height="1284"/></clipPath><clipPath id="clip62"><rect x="2177" y="1135" width="2921" height="144"/></clipPath><clipPath id="clip63"><rect x="3242" y="568" width="2989" height="1284"/></clipPath><clipPath id="clip64"><rect x="2177" y="1135" width="2921" height="144"/></clipPath><clipPath id="clip65"><rect x="3242" y="568" width="2989" height="1284"/></clipPath><clipPath id="clip66"><rect x="2177" y="1135" width="2921" height="144"/></clipPath><clipPath id="clip67"><rect x="3242" y="568" width="2989" height="1284"/></clipPath><clipPath id="clip68"><rect x="2177" y="1135" width="2921" height="144"/></clipPath><clipPath id="clip69"><rect x="3242" y="568" width="2989" height="1284"/></clipPath><clipPath id="clip70"><rect x="2177" y="993" width="2921" height="143"/></clipPath><clipPath id="clip71"><rect x="3242" y="568" width="2989" height="1284"/></clipPath><clipPath id="clip72"><rect x="2177" y="993" width="2921" height="143"/></clipPath><clipPath id="clip73"><rect x="3242" y="568" width="2989" height="1284"/></clipPath><clipPath id="clip74"><rect x="2177" y="993" width="2921" height="143"/></clipPath><clipPath id="clip75"><rect x="3242" y="568" width="2989" height="1284"/></clipPath><clipPath id="clip76"><rect x="2177" y="993" width="2921" height="143"/></clipPath><clipPath id="clip77"><rect x="3242" y="568" width="2989" height="1284"/></clipPath><clipPath id="clip78"><rect x="2406" y="850" width="2520" height="144"/></clipPath><clipPath id="clip79"><rect x="3242" y="568" width="2989" height="1284"/></clipPath><clipPath id="clip80"><rect x="2406" y="850" width="2520" height="144"/></clipPath><clipPath id="clip81"><rect x="3242" y="568" width="2989" height="1284"/></clipPath><clipPath id="clip82"><rect x="3242" y="568" width="2989" height="1284"/></clipPath><clipPath id="clip83"><rect x="3242" y="568" width="2989" height="1284"/></clipPath><clipPath id="clip84"><rect x="3242" y="568" width="2989" height="1284"/></clipPath><clipPath id="clip85"><rect x="3242" y="568" width="2989" height="1284"/></clipPath><clipPath id="clip86"><rect x="3242" y="568" width="2989" height="1284"/></clipPath><clipPath id="clip87"><rect x="3242" y="568" width="2989" height="1284"/></clipPath><clipPath id="clip88"><rect x="3242" y="568" width="2989" height="1284"/></clipPath><clipPath id="clip89"><rect x="3242" y="568" width="2989" height="1284"/></clipPath><clipPath id="clip90"><rect x="3242" y="568" width="2989" height="1284"/></clipPath><clipPath id="clip91"><rect x="3242" y="568" width="2989" height="1284"/></clipPath><clipPath id="clip92"><rect x="3242" y="568" width="2989" height="1284"/></clipPath><clipPath id="clip93"><rect x="3242" y="568" width="2990" height="1285"/></clipPath><clipPath id="clip94"><rect x="-5245" y="577" width="19943" height="406"/></clipPath><clipPath id="clip95"><rect x="3242" y="568" width="2990" height="1285"/></clipPath><clipPath id="clip96"><rect x="-5245" y="577" width="19943" height="406"/></clipPath><clipPath id="clip97"><rect x="3242" y="568" width="2990" height="1285"/></clipPath><clipPath id="clip98"><rect x="-5245" y="577" width="19943" height="406"/></clipPath><clipPath id="clip99"><rect x="3242" y="568" width="2990" height="1285"/></clipPath><clipPath id="clip100"><rect x="-5245" y="577" width="19943" height="406"/></clipPath><clipPath id="clip101"><rect x="3242" y="568" width="2990" height="1285"/></clipPath><clipPath id="clip102"><rect x="-5245" y="577" width="19943" height="406"/></clipPath><clipPath id="clip103"><rect x="3242" y="568" width="2990" height="1285"/></clipPath></defs><g clip-path="url(#clip0)" transform="translate(-3241 -567)"><rect x="3243" y="569" width="2988" height="1283" fill="#FFFFFF"/><g clip-path="url(#clip1)"><path d="M4332.64 854.5 4332.64 1710.5M4781.66 854.5 4781.66 1710.5M5230.67 854.5 5230.67 1710.5M5679.5 854.5 5679.5 1710.5" stroke="#D9D9D9" stroke-width="4.58333" stroke-linejoin="round" stroke-miterlimit="10" fill="none"/></g><g clip-path="url(#clip2)"><path d="M4266.5 972.5 3883.5 972.5 3883.5 879.5 4266.5 879.5Z" stroke="#000000" stroke-width="4.58333" stroke-linejoin="round" stroke-miterlimit="10" fill="#FFFFFF"/></g><g clip-path="url(#clip3)"><path d="M4291.64 1685.56 3883.5 1685.56 3883.5 1592.55 4291.64 1592.55ZM4453.65 1542.55 3883.5 1542.55 3883.5 1449.55 4453.65 1449.55ZM4247.64 1400.55 3883.5 1400.55 3883.5 1307.54 4247.64 1307.54ZM4148.64 1257.54 3883.5 1257.54 3883.5 1164.54 4148.64 1164.54ZM3930.63 1115.54 3883.5 1115.54 3883.5 1021.53 3930.63 1021.53Z" stroke="#000000" stroke-width="4.58333" stroke-linejoin="round" stroke-miterlimit="10" fill="#FFFFFF"/></g><g clip-path="url(#clip4)"><path d="M4747.5 972.5 4266.5 972.5 4266.5 879.5 4747.5 879.5Z" stroke="#000000" stroke-width="4.58333" stroke-linejoin="round" stroke-miterlimit="10" fill="#F1F8FD"/></g><g clip-path="url(#clip5)"><path d="M4944.66 1685.56 4291.64 1685.56 4291.64 1592.55 4944.66 1592.55ZM5000.66 1542.55 4453.65 1542.55 4453.65 1449.55 5000.66 1449.55ZM4736.66 1400.55 4247.64 1400.55 4247.64 1307.54 4736.66 1307.54ZM4678.65 1257.54 4148.64 1257.54 4148.64 1164.54 4678.65 1164.54ZM4151.64 1115.54 3930.63 1115.54 3930.63 1021.53 4151.64 1021.53Z" stroke="#000000" stroke-width="4.58333" stroke-linejoin="round" stroke-miterlimit="10" fill="#F1F8FD"/></g><g clip-path="url(#clip6)"><path d="M5434.68 1685.56 4944.66 1685.56 4944.66 1592.55 5434.68 1592.55ZM5337.68 1542.55 5000.66 1542.55 5000.66 1449.55 5337.68 1449.55ZM5120.67 1400.55 4736.66 1400.55 4736.66 1307.54 5120.67 1307.54ZM5118.67 1257.54 4678.65 1257.54 4678.65 1164.54 5118.67 1164.54ZM4472.65 1115.54 4151.64 1115.54 4151.64 1021.53 4472.65 1021.53ZM5113.67 972.532 4747.66 972.532 4747.66 879.529 5113.67 879.529Z" stroke="#000000" stroke-width="4.58333" stroke-linejoin="round" stroke-miterlimit="10" fill="#C2DDF6"/></g><g clip-path="url(#clip7)"><path d="M5597.68 1685.56 5434.68 1685.56 5434.68 1592.55 5597.68 1592.55ZM5540.68 1542.55 5337.68 1542.55 5337.68 1449.55 5540.68 1449.55ZM5440.68 1400.55 5120.67 1400.55 5120.67 1307.54 5440.68 1307.54ZM5443.68 1257.54 5118.67 1257.54 5118.67 1164.54 5443.68 1164.54ZM4961.66 1115.54 4472.65 1115.54 4472.65 1021.53 4961.66 1021.53ZM5410.68 972.532 5113.67 972.532 5113.67 879.529 5410.68 879.529Z" stroke="#000000" stroke-width="4.58333" stroke-linejoin="round" stroke-miterlimit="10" fill="#9ECBF0"/></g><g clip-path="url(#clip8)"><path d="M5678.69 1685.56 5597.68 1685.56 5597.68 1592.55 5678.69 1592.55ZM5678.69 1542.55 5540.68 1542.55 5540.68 1449.55 5678.69 1449.55ZM5678.69 1400.55 5440.68 1400.55 5440.68 1307.54 5678.69 1307.54ZM5678.69 1257.54 5443.68 1257.54 5443.68 1164.54 5678.69 1164.54ZM5678.69 1115.54 4961.66 1115.54 4961.66 1021.53 5678.69 1021.53ZM5678.69 972.532 5410.68 972.532 5410.68 879.529 5678.69 879.529Z" stroke="#000000" stroke-width="4.58333" stroke-linejoin="round" stroke-miterlimit="10" fill="#095085"/></g><g clip-path="url(#clip9)"><path d="M0 0 0.000360892 856" stroke="#D9D9D9" stroke-width="3.4375" stroke-linejoin="round" stroke-miterlimit="10" fill="none" fill-rule="evenodd" transform="matrix(1 0 0 -1 3883.5 1710.5)"/></g><g clip-path="url(#clip10)"><text fill="#404040" font-family="Yu Gothic,Yu Gothic_MSFontService,sans-serif" font-weight="700" font-size="55" transform="matrix(1 0 0 1 4071.64 1658)">5</text></g><g clip-path="url(#clip11)"><text fill="#404040" font-family="Yu Gothic,Yu Gothic_MSFontService,sans-serif" font-weight="700" font-size="55" transform="matrix(1 0 0 1 4121.1 1515)">227</text></g><g clip-path="url(#clip12)"><text fill="#404040" font-family="Yu Gothic,Yu Gothic_MSFontService,sans-serif" font-weight="700" font-size="55" transform="matrix(1 0 0 1 4033.81 1373)">90</text></g><g clip-path="url(#clip13)"><text fill="#404040" font-family="Yu Gothic,Yu Gothic_MSFontService,sans-serif" font-weight="700" font-size="55" transform="matrix(1 0 0 1 3984.38 1230)">44</text></g><g clip-path="url(#clip14)"><text fill="#404040" font-family="Yu Gothic,Yu Gothic_MSFontService,sans-serif" font-weight="700" font-size="55" transform="matrix(1 0 0 1 3891.02 1088)">7</text></g><g clip-path="url(#clip15)"><text fill="#404040" font-family="Yu Gothic,Yu Gothic_MSFontService,sans-serif" font-weight="700" font-size="55" transform="matrix(1 0 0 1 4027.74 945)">373</text></g><g clip-path="url(#clip16)"><text fill="#404040" font-family="Yu Gothic,Yu Gothic_MSFontService,sans-serif" font-weight="700" font-size="55" transform="matrix(1 0 0 1 4602.22 1658)">8</text></g><g clip-path="url(#clip17)"><text fill="#404040" font-family="Yu Gothic,Yu Gothic_MSFontService,sans-serif" font-weight="700" font-size="55" transform="matrix(1 0 0 1 4679.94 1515)">218</text></g><g clip-path="url(#clip18)"><text fill="#404040" font-family="Yu Gothic,Yu Gothic_MSFontService,sans-serif" font-weight="700" font-size="55" transform="matrix(1 0 0 1 4444.75 1373)">121</text></g><g clip-path="url(#clip19)"><text fill="#404040" font-family="Yu Gothic,Yu Gothic_MSFontService,sans-serif" font-weight="700" font-size="55" transform="matrix(1 0 0 1 4382.11 1230)">88</text></g><g clip-path="url(#clip20)"><text fill="#404040" font-family="Yu Gothic,Yu Gothic_MSFontService,sans-serif" font-weight="700" font-size="55" transform="matrix(1 0 0 1 4009.27 1088)">33</text></g><g clip-path="url(#clip21)"><text fill="#404040" font-family="Yu Gothic,Yu Gothic_MSFontService,sans-serif" font-weight="700" font-size="55" transform="matrix(1 0 0 1 4459.99 945)">468</text></g><g clip-path="url(#clip22)"><text fill="#404040" font-family="Yu Gothic,Yu Gothic_MSFontService,sans-serif" font-weight="700" font-size="55" transform="matrix(1 0 0 1 5173.61 1658)">6</text></g><g clip-path="url(#clip23)"><text fill="#404040" font-family="Yu Gothic,Yu Gothic_MSFontService,sans-serif" font-weight="700" font-size="55" transform="matrix(1 0 0 1 5121.98 1515)">134</text></g><g clip-path="url(#clip24)"><text fill="#404040" font-family="Yu Gothic,Yu Gothic_MSFontService,sans-serif" font-weight="700" font-size="55" transform="matrix(1 0 0 1 4897.33 1373)">95</text></g><g clip-path="url(#clip25)"><text fill="#404040" font-family="Yu Gothic,Yu Gothic_MSFontService,sans-serif" font-weight="700" font-size="55" transform="matrix(1 0 0 1 4867.22 1230)">73</text></g><g clip-path="url(#clip26)"><text fill="#404040" font-family="Yu Gothic,Yu Gothic_MSFontService,sans-serif" font-weight="700" font-size="55" transform="matrix(1 0 0 1 4280.65 1088)">48</text></g><g clip-path="url(#clip27)"><text fill="#404040" font-family="Yu Gothic,Yu Gothic_MSFontService,sans-serif" font-weight="700" font-size="55" transform="matrix(1 0 0 1 4883.5 945)">356</text></g><g clip-path="url(#clip28)"><text fill="#404040" font-family="Yu Gothic,Yu Gothic_MSFontService,sans-serif" font-weight="700" font-size="55" transform="matrix(1 0 0 1 5500.12 1658)">2</text></g><g clip-path="url(#clip29)"><text fill="#404040" font-family="Yu Gothic,Yu Gothic_MSFontService,sans-serif" font-weight="700" font-size="55" transform="matrix(1 0 0 1 5407.75 1515)">81</text></g><g clip-path="url(#clip30)"><text fill="#404040" font-family="Yu Gothic,Yu Gothic_MSFontService,sans-serif" font-weight="700" font-size="55" transform="matrix(1 0 0 1 5249.21 1373)">79</text></g><g clip-path="url(#clip31)"><text fill="#404040" font-family="Yu Gothic,Yu Gothic_MSFontService,sans-serif" font-weight="700" font-size="55" transform="matrix(1 0 0 1 5249.88 1230)">54</text></g><g clip-path="url(#clip32)"><text fill="#404040" font-family="Yu Gothic,Yu Gothic_MSFontService,sans-serif" font-weight="700" font-size="55" transform="matrix(1 0 0 1 4686.05 1088)">73</text></g><g clip-path="url(#clip33)"><text fill="#404040" font-family="Yu Gothic,Yu Gothic_MSFontService,sans-serif" font-weight="700" font-size="55" transform="matrix(1 0 0 1 5215.01 945)">289</text></g><g clip-path="url(#clip34)"><text fill="#FFFFFF" font-family="Yu Gothic,Yu Gothic_MSFontService,sans-serif" font-weight="700" font-size="55" transform="matrix(1 0 0 1 5622.56 1658)">1</text></g><g clip-path="url(#clip35)"><text fill="#FFFFFF" font-family="Yu Gothic,Yu Gothic_MSFontService,sans-serif" font-weight="700" font-size="55" transform="matrix(1 0 0 1 5578.54 1515)">55</text></g><g clip-path="url(#clip36)"><text fill="#FFFFFF" font-family="Yu Gothic,Yu Gothic_MSFontService,sans-serif" font-weight="700" font-size="55" transform="matrix(1 0 0 1 5528.29 1373)">59</text></g><g clip-path="url(#clip37)"><text fill="#FFFFFF" font-family="Yu Gothic,Yu Gothic_MSFontService,sans-serif" font-weight="700" font-size="55" transform="matrix(1 0 0 1 5530.1 1230)">39</text></g><g clip-path="url(#clip38)"><text fill="#FFFFFF" font-family="Yu Gothic,Yu Gothic_MSFontService,sans-serif" font-weight="700" font-size="55" transform="matrix(1 0 0 1 5273.35 1088)">107</text></g><g clip-path="url(#clip39)"><text fill="#FFFFFF" font-family="Yu Gothic,Yu Gothic_MSFontService,sans-serif" font-weight="700" font-size="55" transform="matrix(1 0 0 1 5497.7 945)">261</text></g><g clip-path="url(#clip40)"><text fill="#595959" font-family="Yu Gothic,Yu Gothic_MSFontService,sans-serif" font-weight="500" font-size="60" transform="matrix(1 0 0 1 3842.84 1808)">0%</text></g><g clip-path="url(#clip41)"><text fill="#595959" font-family="Yu Gothic,Yu Gothic_MSFontService,sans-serif" font-weight="500" font-size="60" transform="matrix(1 0 0 1 4275.26 1808)">25%</text></g><g clip-path="url(#clip42)"><text fill="#595959" font-family="Yu Gothic,Yu Gothic_MSFontService,sans-serif" font-weight="500" font-size="60" transform="matrix(1 0 0 1 4724.21 1808)">50%</text></g><g clip-path="url(#clip43)"><text fill="#595959" font-family="Yu Gothic,Yu Gothic_MSFontService,sans-serif" font-weight="500" font-size="60" transform="matrix(1 0 0 1 5173.16 1808)">75%</text></g><g clip-path="url(#clip44)"><text fill="#595959" font-family="Yu Gothic,Yu Gothic_MSFontService,sans-serif" font-weight="500" font-size="60" transform="matrix(1 0 0 1 5605.58 1808)">100%</text></g><g clip-path="url(#clip45)"><g clip-path="url(#clip46)"><text fill="#595959" font-family="Yu Gothic,Yu Gothic_MSFontService,sans-serif" font-weight="500" font-size="57" transform="matrix(1 0 0 1 3492.36 1655)">その他</text></g></g><g clip-path="url(#clip47)"><g clip-path="url(#clip48)"><text fill="#595959" font-family="Yu Gothic,Yu Gothic_MSFontService,sans-serif" font-weight="500" font-size="57" transform="matrix(1 0 0 1 3664.23 1655)">(n=22)</text></g></g><g clip-path="url(#clip49)"><g clip-path="url(#clip50)"><text fill="#595959" font-family="Yu Gothic,Yu Gothic_MSFontService,sans-serif" font-weight="500" font-size="57" transform="matrix(1 0 0 1 3460.55 1512)">大学院</text></g></g><g clip-path="url(#clip51)"><g clip-path="url(#clip52)"><text fill="#595959" font-family="Yu Gothic,Yu Gothic_MSFontService,sans-serif" font-weight="500" font-size="57" transform="matrix(1 0 0 1 3632.42 1512)">(n=715)</text></g></g><g clip-path="url(#clip53)"><g clip-path="url(#clip54)"><text fill="#595959" font-family="Yu Gothic,Yu Gothic_MSFontService,sans-serif" font-weight="500" font-size="57" transform="matrix(1 0 0 1 3314.16 1370)">学部</text></g></g><g clip-path="url(#clip55)"><g clip-path="url(#clip56)"><text fill="#595959" font-family="Yu Gothic,Yu Gothic_MSFontService,sans-serif" font-weight="500" font-size="57" transform="matrix(1 0 0 1 3428.74 1370)">3</text></g></g><g clip-path="url(#clip57)"><g clip-path="url(#clip58)"><text fill="#595959" font-family="Yu Gothic,Yu Gothic_MSFontService,sans-serif" font-weight="500" font-size="57" transform="matrix(1 0 0 1 3460.55 1370)">年以上</text></g></g><g clip-path="url(#clip59)"><g clip-path="url(#clip60)"><text fill="#595959" font-family="Yu Gothic,Yu Gothic_MSFontService,sans-serif" font-weight="500" font-size="57" transform="matrix(1 0 0 1 3632.42 1370)">(n=444)</text></g></g><g clip-path="url(#clip61)"><g clip-path="url(#clip62)"><text fill="#595959" font-family="Yu Gothic,Yu Gothic_MSFontService,sans-serif" font-weight="500" font-size="57" transform="matrix(1 0 0 1 3428.74 1227)">学部</text></g></g><g clip-path="url(#clip63)"><g clip-path="url(#clip64)"><text fill="#595959" font-family="Yu Gothic,Yu Gothic_MSFontService,sans-serif" font-weight="500" font-size="57" transform="matrix(1 0 0 1 3543.32 1227)">2</text></g></g><g clip-path="url(#clip65)"><g clip-path="url(#clip66)"><text fill="#595959" font-family="Yu Gothic,Yu Gothic_MSFontService,sans-serif" font-weight="500" font-size="57" transform="matrix(1 0 0 1 3575.13 1227)">年</text></g></g><g clip-path="url(#clip67)"><g clip-path="url(#clip68)"><text fill="#595959" font-family="Yu Gothic,Yu Gothic_MSFontService,sans-serif" font-weight="500" font-size="57" transform="matrix(1 0 0 1 3632.42 1227)">(n=298)</text></g></g><g clip-path="url(#clip69)"><g clip-path="url(#clip70)"><text fill="#595959" font-family="Yu Gothic,Yu Gothic_MSFontService,sans-serif" font-weight="500" font-size="57" transform="matrix(1 0 0 1 3428.74 1084)">学部</text></g></g><g clip-path="url(#clip71)"><g clip-path="url(#clip72)"><text fill="#595959" font-family="Yu Gothic,Yu Gothic_MSFontService,sans-serif" font-weight="500" font-size="57" transform="matrix(1 0 0 1 3543.32 1084)">1</text></g></g><g clip-path="url(#clip73)"><g clip-path="url(#clip74)"><text fill="#595959" font-family="Yu Gothic,Yu Gothic_MSFontService,sans-serif" font-weight="500" font-size="57" transform="matrix(1 0 0 1 3575.13 1084)">年</text></g></g><g clip-path="url(#clip75)"><g clip-path="url(#clip76)"><text fill="#595959" font-family="Yu Gothic,Yu Gothic_MSFontService,sans-serif" font-weight="500" font-size="57" transform="matrix(1 0 0 1 3632.42 1084)">(n=268)</text></g></g><g clip-path="url(#clip77)"><g clip-path="url(#clip78)"><text fill="#595959" font-family="Yu Gothic,Yu Gothic_MSFontService,sans-serif" font-weight="500" font-size="57" transform="matrix(1 0 0 1 3486.03 942)">全体</text></g></g><g clip-path="url(#clip79)"><g clip-path="url(#clip80)"><text fill="#595959" font-family="Yu Gothic,Yu Gothic_MSFontService,sans-serif" font-weight="500" font-size="57" transform="matrix(1 0 0 1 3600.61 942)">(n=1747)</text></g></g><g clip-path="url(#clip81)"><rect x="5746.5" y="897.5" width="29" height="28.9999" stroke="#000000" stroke-width="4.58333" stroke-linejoin="round" stroke-miterlimit="10" fill="#FFFFFF"/></g><g clip-path="url(#clip82)"><text fill="#595959" font-family="Yu Gothic,Yu Gothic_MSFontService,sans-serif" font-weight="500" font-size="50" transform="matrix(1 0 0 1 5788.67 926)">全く感じていな</text></g><g clip-path="url(#clip83)"><text fill="#595959" font-family="Yu Gothic,Yu Gothic_MSFontService,sans-serif" font-weight="500" font-size="50" transform="matrix(1 0 0 1 5788.67 1010)">かった</text></g><g clip-path="url(#clip84)"><rect x="5746.5" y="1074.5" width="29" height="28.9999" stroke="#000000" stroke-width="4.58333" stroke-linejoin="round" stroke-miterlimit="10" fill="#F1F8FD"/></g><g clip-path="url(#clip85)"><text fill="#595959" font-family="Yu Gothic,Yu Gothic_MSFontService,sans-serif" font-weight="500" font-size="50" transform="matrix(1 0 0 1 5788.67 1103)">ほとんど感じてい</text></g><g clip-path="url(#clip86)"><text fill="#595959" font-family="Yu Gothic,Yu Gothic_MSFontService,sans-serif" font-weight="500" font-size="50" transform="matrix(1 0 0 1 5788.67 1187)">なかった</text></g><g clip-path="url(#clip87)"><rect x="5746.5" y="1250.5" width="29" height="28.9999" stroke="#000000" stroke-width="4.58333" stroke-linejoin="round" stroke-miterlimit="10" fill="#C2DDF6"/></g><g clip-path="url(#clip88)"><text fill="#595959" font-family="Yu Gothic,Yu Gothic_MSFontService,sans-serif" font-weight="500" font-size="50" transform="matrix(1 0 0 1 5788.67 1279)">少し感じていた</text></g><g clip-path="url(#clip89)"><rect x="5746.5" y="1427.5" width="29" height="28.9999" stroke="#000000" stroke-width="4.58333" stroke-linejoin="round" stroke-miterlimit="10" fill="#9ECBF0"/></g><g clip-path="url(#clip90)"><text fill="#595959" font-family="Yu Gothic,Yu Gothic_MSFontService,sans-serif" font-weight="500" font-size="50" transform="matrix(1 0 0 1 5788.67 1456)">かなり感じていた</text></g><g clip-path="url(#clip91)"><rect x="5746.5" y="1603.5" width="29" height="28.9999" stroke="#000000" stroke-width="4.58333" stroke-linejoin="round" stroke-miterlimit="10" fill="#095085"/></g><g clip-path="url(#clip92)"><text fill="#595959" font-family="Yu Gothic,Yu Gothic_MSFontService,sans-serif" font-weight="500" font-size="50" transform="matrix(1 0 0 1 5788.67 1632)">深刻に感じていた</text></g><rect x="3243.5" y="569.5" width="2988" height="1283" stroke="#000000" stroke-width="4.58333" stroke-linejoin="round" stroke-miterlimit="10" fill="none"/><g clip-path="url(#clip93)"><g clip-path="url(#clip94)"><text font-family="Yu Gothic,Yu Gothic_MSFontService,sans-serif" font-weight="500" font-size="73" transform="matrix(1 0 0 1 3301.82 681)">【心理面の印象】</text></g></g><g clip-path="url(#clip95)"><g clip-path="url(#clip96)"><text font-family="Yu Gothic,Yu Gothic_MSFontService,sans-serif" font-weight="500" font-size="73" transform="matrix(1 0 0 1 3888.48 681)">2020</text></g></g><g clip-path="url(#clip97)"><g clip-path="url(#clip98)"><text font-family="Yu Gothic,Yu Gothic_MSFontService,sans-serif" font-weight="500" font-size="73" transform="matrix(1 0 0 1 4051.37 681)">年度</text></g></g><g clip-path="url(#clip99)"><g clip-path="url(#clip100)"><text font-family="Yu Gothic,Yu Gothic_MSFontService,sans-serif" font-weight="500" font-size="73" transform="matrix(1 0 0 1 4198.04 681)">S</text></g></g><g clip-path="url(#clip101)"><g clip-path="url(#clip102)"><text font-family="Yu Gothic,Yu Gothic_MSFontService,sans-serif" font-weight="500" font-size="73" transform="matrix(1 0 0 1 4244.08 681)">セメスタを振り返って，課題が重いことへの不安・苦痛を</text></g></g><g clip-path="url(#clip103)"><text font-family="Yu Gothic,Yu Gothic_MSFontService,sans-serif" font-weight="500" font-size="73" transform="matrix(1 0 0 1 3301.82 804)">どれだけ感じていたかについて教えてください。</text></g></g></svg>