<svg width="2993" height="1289" xmlns="http://www.w3.org/2000/svg" xmlns:xlink="http://www.w3.org/1999/xlink" overflow="hidden"><defs><clipPath id="clip0"><rect x="4058" y="1711" width="2993" height="1289"/></clipPath><clipPath id="clip1"><rect x="4059" y="1713" width="2989" height="1283"/></clipPath><clipPath id="clip2"><rect x="4700" y="1999" width="1799" height="858"/></clipPath><clipPath id="clip3"><rect x="4700" y="1999" width="1799" height="858"/></clipPath><clipPath id="clip4"><rect x="4700" y="1999" width="1799" height="858"/></clipPath><clipPath id="clip5"><rect x="4700" y="1999" width="1799" height="858"/></clipPath><clipPath id="clip6"><rect x="4700" y="1999" width="1799" height="858"/></clipPath><clipPath id="clip7"><rect x="4700" y="1999" width="1799" height="858"/></clipPath><clipPath id="clip8"><rect x="4700" y="1999" width="1799" height="858"/></clipPath><clipPath id="clip9"><rect x="4059" y="1713" width="2989" height="1283"/></clipPath><clipPath id="clip10"><rect x="4059" y="1713" width="2989" height="1283"/></clipPath><clipPath id="clip11"><rect x="4059" y="1713" width="2989" height="1283"/></clipPath><clipPath id="clip12"><rect x="4059" y="1713" width="2989" height="1283"/></clipPath><clipPath id="clip13"><rect x="4059" y="1713" width="2989" height="1283"/></clipPath><clipPath id="clip14"><rect x="4059" y="1713" width="2989" height="1283"/></clipPath><clipPath id="clip15"><rect x="4059" y="1713" width="2989" height="1283"/></clipPath><clipPath id="clip16"><rect x="4059" y="1713" width="2989" height="1283"/></clipPath><clipPath id="clip17"><rect x="4059" y="1713" width="2989" height="1283"/></clipPath><clipPath id="clip18"><rect x="4059" y="1713" width="2989" height="1283"/></clipPath><clipPath id="clip19"><rect x="4059" y="1713" width="2989" height="1283"/></clipPath><clipPath id="clip20"><rect x="4059" y="1713" width="2989" height="1283"/></clipPath><clipPath id="clip21"><rect x="4059" y="1713" width="2989" height="1283"/></clipPath><clipPath id="clip22"><rect x="4059" y="1713" width="2989" height="1283"/></clipPath><clipPath id="clip23"><rect x="4059" y="1713" width="2989" height="1283"/></clipPath><clipPath id="clip24"><rect x="4059" y="1713" width="2989" height="1283"/></clipPath><clipPath id="clip25"><rect x="4059" y="1713" width="2989" height="1283"/></clipPath><clipPath id="clip26"><rect x="4059" y="1713" width="2989" height="1283"/></clipPath><clipPath id="clip27"><rect x="4059" y="1713" width="2989" height="1283"/></clipPath><clipPath id="clip28"><rect x="4059" y="1713" width="2989" height="1283"/></clipPath><clipPath id="clip29"><rect x="4059" y="1713" width="2989" height="1283"/></clipPath><clipPath id="clip30"><rect x="4059" y="1713" width="2989" height="1283"/></clipPath><clipPath id="clip31"><rect x="4059" y="1713" width="2989" height="1283"/></clipPath><clipPath id="clip32"><rect x="4059" y="1713" width="2989" height="1283"/></clipPath><clipPath id="clip33"><rect x="4059" y="1713" width="2989" height="1283"/></clipPath><clipPath id="clip34"><rect x="4059" y="1713" width="2989" height="1283"/></clipPath><clipPath id="clip35"><rect x="4059" y="1713" width="2989" height="1283"/></clipPath><clipPath id="clip36"><rect x="4059" y="1713" width="2989" height="1283"/></clipPath><clipPath id="clip37"><rect x="4059" y="1713" width="2989" height="1283"/></clipPath><clipPath id="clip38"><rect x="4059" y="1713" width="2989" height="1283"/></clipPath><clipPath id="clip39"><rect x="4059" y="1713" width="2989" height="1283"/></clipPath><clipPath id="clip40"><rect x="4059" y="1713" width="2989" height="1283"/></clipPath><clipPath id="clip41"><rect x="4059" y="1713" width="2989" height="1283"/></clipPath><clipPath id="clip42"><rect x="4059" y="1713" width="2989" height="1283"/></clipPath><clipPath id="clip43"><rect x="4059" y="1713" width="2989" height="1283"/></clipPath><clipPath id="clip44"><rect x="4059" y="1713" width="2989" height="1283"/></clipPath><clipPath id="clip45"><rect x="4059" y="1713" width="2989" height="1283"/></clipPath><clipPath id="clip46"><rect x="3248" y="2707" width="2476" height="144"/></clipPath><clipPath id="clip47"><rect x="4059" y="1713" width="2989" height="1283"/></clipPath><clipPath id="clip48"><rect x="3248" y="2707" width="2476" height="144"/></clipPath><clipPath id="clip49"><rect x="4059" y="1713" width="2989" height="1283"/></clipPath><clipPath id="clip50"><rect x="3121" y="2565" width="2699" height="143"/></clipPath><clipPath id="clip51"><rect x="4059" y="1713" width="2989" height="1283"/></clipPath><clipPath id="clip52"><rect x="3121" y="2565" width="2699" height="143"/></clipPath><clipPath id="clip53"><rect x="4059" y="1713" width="2989" height="1283"/></clipPath><clipPath id="clip54"><rect x="2535" y="2422" width="3724" height="144"/></clipPath><clipPath id="clip55"><rect x="4059" y="1713" width="2989" height="1283"/></clipPath><clipPath id="clip56"><rect x="2535" y="2422" width="3724" height="144"/></clipPath><clipPath id="clip57"><rect x="4059" y="1713" width="2989" height="1283"/></clipPath><clipPath id="clip58"><rect x="2535" y="2422" width="3724" height="144"/></clipPath><clipPath id="clip59"><rect x="4059" y="1713" width="2989" height="1283"/></clipPath><clipPath id="clip60"><rect x="2535" y="2422" width="3724" height="144"/></clipPath><clipPath id="clip61"><rect x="4059" y="1713" width="2989" height="1283"/></clipPath><clipPath id="clip62"><rect x="2993" y="2280" width="2922" height="143"/></clipPath><clipPath id="clip63"><rect x="4059" y="1713" width="2989" height="1283"/></clipPath><clipPath id="clip64"><rect x="2993" y="2280" width="2922" height="143"/></clipPath><clipPath id="clip65"><rect x="4059" y="1713" width="2989" height="1283"/></clipPath><clipPath id="clip66"><rect x="2993" y="2280" width="2922" height="143"/></clipPath><clipPath id="clip67"><rect x="4059" y="1713" width="2989" height="1283"/></clipPath><clipPath id="clip68"><rect x="2993" y="2280" width="2922" height="143"/></clipPath><clipPath id="clip69"><rect x="4059" y="1713" width="2989" height="1283"/></clipPath><clipPath id="clip70"><rect x="2993" y="2137" width="2922" height="144"/></clipPath><clipPath id="clip71"><rect x="4059" y="1713" width="2989" height="1283"/></clipPath><clipPath id="clip72"><rect x="2993" y="2137" width="2922" height="144"/></clipPath><clipPath id="clip73"><rect x="4059" y="1713" width="2989" height="1283"/></clipPath><clipPath id="clip74"><rect x="2993" y="2137" width="2922" height="144"/></clipPath><clipPath id="clip75"><rect x="4059" y="1713" width="2989" height="1283"/></clipPath><clipPath id="clip76"><rect x="2993" y="2137" width="2922" height="144"/></clipPath><clipPath id="clip77"><rect x="4059" y="1713" width="2989" height="1283"/></clipPath><clipPath id="clip78"><rect x="3223" y="1995" width="2520" height="143"/></clipPath><clipPath id="clip79"><rect x="4059" y="1713" width="2989" height="1283"/></clipPath><clipPath id="clip80"><rect x="3223" y="1995" width="2520" height="143"/></clipPath><clipPath id="clip81"><rect x="4059" y="1713" width="2989" height="1283"/></clipPath><clipPath id="clip82"><rect x="4059" y="1713" width="2989" height="1283"/></clipPath><clipPath id="clip83"><rect x="4059" y="1713" width="2989" height="1283"/></clipPath><clipPath id="clip84"><rect x="4059" y="1713" width="2989" height="1283"/></clipPath><clipPath id="clip85"><rect x="4059" y="1713" width="2989" height="1283"/></clipPath><clipPath id="clip86"><rect x="4059" y="1713" width="2989" height="1283"/></clipPath><clipPath id="clip87"><rect x="4059" y="1713" width="2989" height="1283"/></clipPath><clipPath id="clip88"><rect x="4059" y="1713" width="2989" height="1283"/></clipPath><clipPath id="clip89"><rect x="4059" y="1713" width="2989" height="1283"/></clipPath><clipPath id="clip90"><rect x="4059" y="1713" width="2989" height="1283"/></clipPath><clipPath id="clip91"><rect x="4059" y="1713" width="2989" height="1283"/></clipPath><clipPath id="clip92"><rect x="4059" y="1713" width="2989" height="1283"/></clipPath><clipPath id="clip93"><rect x="4059" y="1713" width="2990" height="1284"/></clipPath><clipPath id="clip94"><rect x="-4429" y="1721" width="19944" height="406"/></clipPath><clipPath id="clip95"><rect x="4059" y="1713" width="2990" height="1284"/></clipPath><clipPath id="clip96"><rect x="-4429" y="1721" width="19944" height="406"/></clipPath><clipPath id="clip97"><rect x="4059" y="1713" width="2990" height="1284"/></clipPath><clipPath id="clip98"><rect x="-4429" y="1721" width="19944" height="406"/></clipPath><clipPath id="clip99"><rect x="4059" y="1713" width="2990" height="1284"/></clipPath><clipPath id="clip100"><rect x="-4429" y="1721" width="19944" height="406"/></clipPath><clipPath id="clip101"><rect x="4059" y="1713" width="2990" height="1284"/></clipPath><clipPath id="clip102"><rect x="-4429" y="1721" width="19944" height="406"/></clipPath><clipPath id="clip103"><rect x="4059" y="1713" width="2990" height="1284"/></clipPath></defs><g clip-path="url(#clip0)" transform="translate(-4058 -1711)"><rect x="4060" y="1713" width="2988" height="1284" fill="#FFFFFF"/><g clip-path="url(#clip1)"><path d="M5149.67 1999.5 5149.67 2854.5M5597.68 1999.5 5597.68 2854.5M6046.7 1999.5 6046.7 2854.5M6496.5 1999.5 6496.5 2854.5" stroke="#D9D9D9" stroke-width="4.58333" stroke-linejoin="round" stroke-miterlimit="10" fill="none"/></g><g clip-path="url(#clip2)"><path d="M5242.5 2117.5 4700.5 2117.5 4700.5 2023.5 5242.5 2023.5Z" stroke="#000000" stroke-width="4.58333" stroke-linejoin="round" stroke-miterlimit="10" fill="#FFFFFF"/></g><g clip-path="url(#clip3)"><path d="M5042.67 2829.59 4700.5 2829.59 4700.5 2736.59 5042.67 2736.59ZM5399.68 2687.59 4700.5 2687.59 4700.5 2594.59 5399.68 2594.59ZM5306.67 2544.58 4700.5 2544.58 4700.5 2451.58 5306.67 2451.58ZM5117.67 2402.58 4700.5 2402.58 4700.5 2308.58 5117.67 2308.58ZM4868.66 2259.57 4700.5 2259.57 4700.5 2166.57 4868.66 2166.57Z" stroke="#000000" stroke-width="4.58333" stroke-linejoin="round" stroke-miterlimit="10" fill="#FFFFFF"/></g><g clip-path="url(#clip4)"><path d="M5727.5 2117.5 5242.5 2117.5 5242.5 2023.5 5727.5 2023.5Z" stroke="#000000" stroke-width="4.58333" stroke-linejoin="round" stroke-miterlimit="10" fill="#F1F8FD"/></g><g clip-path="url(#clip5)"><path d="M5384.68 2829.59 5042.67 2829.59 5042.67 2736.59 5384.68 2736.59ZM5871.69 2687.59 5399.68 2687.59 5399.68 2594.59 5871.69 2594.59ZM5832.69 2544.58 5306.67 2544.58 5306.67 2451.58 5832.69 2451.58ZM5770.69 2402.58 5117.67 2402.58 5117.67 2308.58 5770.69 2308.58ZM5143.67 2259.57 4868.66 2259.57 4868.66 2166.57 5143.67 2166.57Z" stroke="#000000" stroke-width="4.58333" stroke-linejoin="round" stroke-miterlimit="10" fill="#F1F8FD"/></g><g clip-path="url(#clip6)"><path d="M6068.7 2829.59 5384.68 2829.59 5384.68 2736.59 6068.7 2736.59ZM6164.7 2687.59 5871.69 2687.59 5871.69 2594.59 6164.7 2594.59ZM6192.7 2544.58 5832.69 2544.58 5832.69 2451.58 6192.7 2451.58ZM6266.71 2402.58 5770.69 2402.58 5770.69 2308.58 6266.71 2308.58ZM5594.68 2259.57 5143.67 2259.57 5143.67 2166.57 5594.68 2166.57ZM6100.7 2116.57 5727.69 2116.57 5727.69 2023.57 6100.7 2023.57Z" stroke="#000000" stroke-width="4.58333" stroke-linejoin="round" stroke-miterlimit="10" fill="#C2DDF6"/></g><g clip-path="url(#clip7)"><path d="M6410.71 2829.59 6068.7 2829.59 6068.7 2736.59 6410.71 2736.59ZM6355.71 2687.59 6164.7 2687.59 6164.7 2594.59 6355.71 2594.59ZM6406.71 2544.58 6192.7 2544.58 6192.7 2451.58 6406.71 2451.58ZM6417.71 2402.58 6266.71 2402.58 6266.71 2308.58 6417.71 2308.58ZM6051.7 2259.57 5594.68 2259.57 5594.68 2166.57 6051.7 2166.57ZM6333.71 2116.57 6100.7 2116.57 6100.7 2023.57 6333.71 2023.57Z" stroke="#000000" stroke-width="4.58333" stroke-linejoin="round" stroke-miterlimit="10" fill="#9ECBF0"/></g><g clip-path="url(#clip8)"><path d="M6495.71 2829.59 6410.71 2829.59 6410.71 2736.59 6495.71 2736.59ZM6495.71 2687.59 6355.71 2687.59 6355.71 2594.59 6495.71 2594.59ZM6495.71 2544.58 6406.71 2544.58 6406.71 2451.58 6495.71 2451.58ZM6495.71 2402.58 6417.71 2402.58 6417.71 2308.58 6495.71 2308.58ZM6495.71 2259.57 6051.7 2259.57 6051.7 2166.57 6495.71 2166.57ZM6495.71 2116.57 6333.71 2116.57 6333.71 2023.57 6495.71 2023.57Z" stroke="#000000" stroke-width="4.58333" stroke-linejoin="round" stroke-miterlimit="10" fill="#095085"/></g><g clip-path="url(#clip9)"><path d="M0 0 0.000360892 855" stroke="#D9D9D9" stroke-width="3.4375" stroke-linejoin="round" stroke-miterlimit="10" fill="none" fill-rule="evenodd" transform="matrix(1 0 0 -1 4700.5 2854.5)"/></g><g clip-path="url(#clip10)"><text fill="#404040" font-family="Yu Gothic,Yu Gothic_MSFontService,sans-serif" font-weight="700" font-size="55" transform="matrix(1 0 0 1 4855.51 2802)">4</text></g><g clip-path="url(#clip11)"><text fill="#404040" font-family="Yu Gothic,Yu Gothic_MSFontService,sans-serif" font-weight="700" font-size="55" transform="matrix(1 0 0 1 5002.83 2660)">279</text></g><g clip-path="url(#clip12)"><text fill="#404040" font-family="Yu Gothic,Yu Gothic_MSFontService,sans-serif" font-weight="700" font-size="55" transform="matrix(1 0 0 1 4956.29 2517)">150</text></g><g clip-path="url(#clip13)"><text fill="#404040" font-family="Yu Gothic,Yu Gothic_MSFontService,sans-serif" font-weight="700" font-size="55" transform="matrix(1 0 0 1 4877.32 2375)">69</text></g><g clip-path="url(#clip14)"><text fill="#404040" font-family="Yu Gothic,Yu Gothic_MSFontService,sans-serif" font-weight="700" font-size="55" transform="matrix(1 0 0 1 4752.79 2232)">25</text></g><g clip-path="url(#clip15)"><text fill="#404040" font-family="Yu Gothic,Yu Gothic_MSFontService,sans-serif" font-weight="700" font-size="55" transform="matrix(1 0 0 1 4924.12 2089)">527</text></g><g clip-path="url(#clip16)"><text fill="#404040" font-family="Yu Gothic,Yu Gothic_MSFontService,sans-serif" font-weight="700" font-size="55" transform="matrix(1 0 0 1 5197.57 2802)">4</text></g><g clip-path="url(#clip17)"><text fill="#404040" font-family="Yu Gothic,Yu Gothic_MSFontService,sans-serif" font-weight="700" font-size="55" transform="matrix(1 0 0 1 5588.47 2660)">188</text></g><g clip-path="url(#clip18)"><text fill="#404040" font-family="Yu Gothic,Yu Gothic_MSFontService,sans-serif" font-weight="700" font-size="55" transform="matrix(1 0 0 1 5522.54 2517)">130</text></g><g clip-path="url(#clip19)"><text fill="#404040" font-family="Yu Gothic,Yu Gothic_MSFontService,sans-serif" font-weight="700" font-size="55" transform="matrix(1 0 0 1 5396.66 2375)">108</text></g><g clip-path="url(#clip20)"><text fill="#404040" font-family="Yu Gothic,Yu Gothic_MSFontService,sans-serif" font-weight="700" font-size="55" transform="matrix(1 0 0 1 4974.74 2232)">41</text></g><g clip-path="url(#clip21)"><text fill="#404040" font-family="Yu Gothic,Yu Gothic_MSFontService,sans-serif" font-weight="700" font-size="55" transform="matrix(1 0 0 1 5437.65 2089)">471</text></g><g clip-path="url(#clip22)"><text fill="#404040" font-family="Yu Gothic,Yu Gothic_MSFontService,sans-serif" font-weight="700" font-size="55" transform="matrix(1 0 0 1 5710.66 2802)">8</text></g><g clip-path="url(#clip23)"><text fill="#404040" font-family="Yu Gothic,Yu Gothic_MSFontService,sans-serif" font-weight="700" font-size="55" transform="matrix(1 0 0 1 5970.96 2660)">117</text></g><g clip-path="url(#clip24)"><text fill="#404040" font-family="Yu Gothic,Yu Gothic_MSFontService,sans-serif" font-weight="700" font-size="55" transform="matrix(1 0 0 1 5981.19 2517)">89</text></g><g clip-path="url(#clip25)"><text fill="#404040" font-family="Yu Gothic,Yu Gothic_MSFontService,sans-serif" font-weight="700" font-size="55" transform="matrix(1 0 0 1 5986.85 2375)">82</text></g><g clip-path="url(#clip26)"><text fill="#404040" font-family="Yu Gothic,Yu Gothic_MSFontService,sans-serif" font-weight="700" font-size="55" transform="matrix(1 0 0 1 5337.94 2232)">67</text></g><g clip-path="url(#clip27)"><text fill="#404040" font-family="Yu Gothic,Yu Gothic_MSFontService,sans-serif" font-weight="700" font-size="55" transform="matrix(1 0 0 1 5866.79 2089)">363</text></g><g clip-path="url(#clip28)"><text fill="#404040" font-family="Yu Gothic,Yu Gothic_MSFontService,sans-serif" font-weight="700" font-size="55" transform="matrix(1 0 0 1 6223.74 2802)">4</text></g><g clip-path="url(#clip29)"><text fill="#404040" font-family="Yu Gothic,Yu Gothic_MSFontService,sans-serif" font-weight="700" font-size="55" transform="matrix(1 0 0 1 6228.76 2660)">76</text></g><g clip-path="url(#clip30)"><text fill="#404040" font-family="Yu Gothic,Yu Gothic_MSFontService,sans-serif" font-weight="700" font-size="55" transform="matrix(1 0 0 1 6268.36 2517)">53</text></g><g clip-path="url(#clip31)"><text fill="#404040" font-family="Yu Gothic,Yu Gothic_MSFontService,sans-serif" font-weight="700" font-size="55" transform="matrix(1 0 0 1 6310.33 2375)">25</text></g><g clip-path="url(#clip32)"><text fill="#404040" font-family="Yu Gothic,Yu Gothic_MSFontService,sans-serif" font-weight="700" font-size="55" transform="matrix(1 0 0 1 5791.93 2232)">68</text></g><g clip-path="url(#clip33)"><text fill="#404040" font-family="Yu Gothic,Yu Gothic_MSFontService,sans-serif" font-weight="700" font-size="55" transform="matrix(1 0 0 1 6169.86 2089)">226</text></g><g clip-path="url(#clip34)"><text fill="#FFFFFF" font-family="Yu Gothic,Yu Gothic_MSFontService,sans-serif" font-weight="700" font-size="55" transform="matrix(1 0 0 1 6437.53 2802)">1</text></g><g clip-path="url(#clip35)"><text fill="#FFFFFF" font-family="Yu Gothic,Yu Gothic_MSFontService,sans-serif" font-weight="700" font-size="55" transform="matrix(1 0 0 1 6394.29 2660)">56</text></g><g clip-path="url(#clip36)"><text fill="#FFFFFF" font-family="Yu Gothic,Yu Gothic_MSFontService,sans-serif" font-weight="700" font-size="55" transform="matrix(1 0 0 1 6420.03 2517)">22</text></g><g clip-path="url(#clip37)"><text fill="#FFFFFF" font-family="Yu Gothic,Yu Gothic_MSFontService,sans-serif" font-weight="700" font-size="55" transform="matrix(1 0 0 1 6425.22 2375)">13</text></g><g clip-path="url(#clip38)"><text fill="#FFFFFF" font-family="Yu Gothic,Yu Gothic_MSFontService,sans-serif" font-weight="700" font-size="55" transform="matrix(1 0 0 1 6242.57 2232)">66</text></g><g clip-path="url(#clip39)"><text fill="#FFFFFF" font-family="Yu Gothic,Yu Gothic_MSFontService,sans-serif" font-weight="700" font-size="55" transform="matrix(1 0 0 1 6367.45 2089)">158</text></g><g clip-path="url(#clip40)"><text fill="#595959" font-family="Yu Gothic,Yu Gothic_MSFontService,sans-serif" font-weight="500" font-size="60" transform="matrix(1 0 0 1 4659.75 2953)">0%</text></g><g clip-path="url(#clip41)"><text fill="#595959" font-family="Yu Gothic,Yu Gothic_MSFontService,sans-serif" font-weight="500" font-size="60" transform="matrix(1 0 0 1 5092.17 2953)">25%</text></g><g clip-path="url(#clip42)"><text fill="#595959" font-family="Yu Gothic,Yu Gothic_MSFontService,sans-serif" font-weight="500" font-size="60" transform="matrix(1 0 0 1 5541.12 2953)">50%</text></g><g clip-path="url(#clip43)"><text fill="#595959" font-family="Yu Gothic,Yu Gothic_MSFontService,sans-serif" font-weight="500" font-size="60" transform="matrix(1 0 0 1 5990.07 2953)">75%</text></g><g clip-path="url(#clip44)"><text fill="#595959" font-family="Yu Gothic,Yu Gothic_MSFontService,sans-serif" font-weight="500" font-size="60" transform="matrix(1 0 0 1 6422.49 2953)">100%</text></g><g clip-path="url(#clip45)"><g clip-path="url(#clip46)"><text fill="#595959" font-family="Yu Gothic,Yu Gothic_MSFontService,sans-serif" font-weight="500" font-size="57" transform="matrix(1 0 0 1 4309.27 2799)">その他</text></g></g><g clip-path="url(#clip47)"><g clip-path="url(#clip48)"><text fill="#595959" font-family="Yu Gothic,Yu Gothic_MSFontService,sans-serif" font-weight="500" font-size="57" transform="matrix(1 0 0 1 4481.14 2799)">(n=21)</text></g></g><g clip-path="url(#clip49)"><g clip-path="url(#clip50)"><text fill="#595959" font-family="Yu Gothic,Yu Gothic_MSFontService,sans-serif" font-weight="500" font-size="57" transform="matrix(1 0 0 1 4277.46 2657)">大学院</text></g></g><g clip-path="url(#clip51)"><g clip-path="url(#clip52)"><text fill="#595959" font-family="Yu Gothic,Yu Gothic_MSFontService,sans-serif" font-weight="500" font-size="57" transform="matrix(1 0 0 1 4449.33 2657)">(n=716)</text></g></g><g clip-path="url(#clip53)"><g clip-path="url(#clip54)"><text fill="#595959" font-family="Yu Gothic,Yu Gothic_MSFontService,sans-serif" font-weight="500" font-size="57" transform="matrix(1 0 0 1 4131.07 2514)">学部</text></g></g><g clip-path="url(#clip55)"><g clip-path="url(#clip56)"><text fill="#595959" font-family="Yu Gothic,Yu Gothic_MSFontService,sans-serif" font-weight="500" font-size="57" transform="matrix(1 0 0 1 4245.65 2514)">3</text></g></g><g clip-path="url(#clip57)"><g clip-path="url(#clip58)"><text fill="#595959" font-family="Yu Gothic,Yu Gothic_MSFontService,sans-serif" font-weight="500" font-size="57" transform="matrix(1 0 0 1 4277.46 2514)">年以上</text></g></g><g clip-path="url(#clip59)"><g clip-path="url(#clip60)"><text fill="#595959" font-family="Yu Gothic,Yu Gothic_MSFontService,sans-serif" font-weight="500" font-size="57" transform="matrix(1 0 0 1 4449.33 2514)">(n=444)</text></g></g><g clip-path="url(#clip61)"><g clip-path="url(#clip62)"><text fill="#595959" font-family="Yu Gothic,Yu Gothic_MSFontService,sans-serif" font-weight="500" font-size="57" transform="matrix(1 0 0 1 4245.65 2372)">学部</text></g></g><g clip-path="url(#clip63)"><g clip-path="url(#clip64)"><text fill="#595959" font-family="Yu Gothic,Yu Gothic_MSFontService,sans-serif" font-weight="500" font-size="57" transform="matrix(1 0 0 1 4360.23 2372)">2</text></g></g><g clip-path="url(#clip65)"><g clip-path="url(#clip66)"><text fill="#595959" font-family="Yu Gothic,Yu Gothic_MSFontService,sans-serif" font-weight="500" font-size="57" transform="matrix(1 0 0 1 4392.04 2372)">年</text></g></g><g clip-path="url(#clip67)"><g clip-path="url(#clip68)"><text fill="#595959" font-family="Yu Gothic,Yu Gothic_MSFontService,sans-serif" font-weight="500" font-size="57" transform="matrix(1 0 0 1 4449.33 2372)">(n=297)</text></g></g><g clip-path="url(#clip69)"><g clip-path="url(#clip70)"><text fill="#595959" font-family="Yu Gothic,Yu Gothic_MSFontService,sans-serif" font-weight="500" font-size="57" transform="matrix(1 0 0 1 4245.65 2229)">学部</text></g></g><g clip-path="url(#clip71)"><g clip-path="url(#clip72)"><text fill="#595959" font-family="Yu Gothic,Yu Gothic_MSFontService,sans-serif" font-weight="500" font-size="57" transform="matrix(1 0 0 1 4360.23 2229)">1</text></g></g><g clip-path="url(#clip73)"><g clip-path="url(#clip74)"><text fill="#595959" font-family="Yu Gothic,Yu Gothic_MSFontService,sans-serif" font-weight="500" font-size="57" transform="matrix(1 0 0 1 4392.04 2229)">年</text></g></g><g clip-path="url(#clip75)"><g clip-path="url(#clip76)"><text fill="#595959" font-family="Yu Gothic,Yu Gothic_MSFontService,sans-serif" font-weight="500" font-size="57" transform="matrix(1 0 0 1 4449.33 2229)">(n=267)</text></g></g><g clip-path="url(#clip77)"><g clip-path="url(#clip78)"><text fill="#595959" font-family="Yu Gothic,Yu Gothic_MSFontService,sans-serif" font-weight="500" font-size="57" transform="matrix(1 0 0 1 4302.94 2086)">全体</text></g></g><g clip-path="url(#clip79)"><g clip-path="url(#clip80)"><text fill="#595959" font-family="Yu Gothic,Yu Gothic_MSFontService,sans-serif" font-weight="500" font-size="57" transform="matrix(1 0 0 1 4417.53 2086)">(n=1745)</text></g></g><g clip-path="url(#clip81)"><rect x="6563.5" y="2042.5" width="29" height="28.9999" stroke="#000000" stroke-width="4.58333" stroke-linejoin="round" stroke-miterlimit="10" fill="#FFFFFF"/></g><g clip-path="url(#clip82)"><text fill="#595959" font-family="Yu Gothic,Yu Gothic_MSFontService,sans-serif" font-weight="500" font-size="50" transform="matrix(1 0 0 1 6605.58 2071)">全く感じていな</text></g><g clip-path="url(#clip83)"><text fill="#595959" font-family="Yu Gothic,Yu Gothic_MSFontService,sans-serif" font-weight="500" font-size="50" transform="matrix(1 0 0 1 6605.58 2155)">かった</text></g><g clip-path="url(#clip84)"><rect x="6563.5" y="2218.5" width="29" height="28.9998" stroke="#000000" stroke-width="4.58333" stroke-linejoin="round" stroke-miterlimit="10" fill="#F1F8FD"/></g><g clip-path="url(#clip85)"><text fill="#595959" font-family="Yu Gothic,Yu Gothic_MSFontService,sans-serif" font-weight="500" font-size="50" transform="matrix(1 0 0 1 6605.58 2247)">ほとんど感じてい</text></g><g clip-path="url(#clip86)"><text fill="#595959" font-family="Yu Gothic,Yu Gothic_MSFontService,sans-serif" font-weight="500" font-size="50" transform="matrix(1 0 0 1 6605.58 2331)">なかった</text></g><g clip-path="url(#clip87)"><rect x="6563.5" y="2395.5" width="29" height="28.9998" stroke="#000000" stroke-width="4.58333" stroke-linejoin="round" stroke-miterlimit="10" fill="#C2DDF6"/></g><g clip-path="url(#clip88)"><text fill="#595959" font-family="Yu Gothic,Yu Gothic_MSFontService,sans-serif" font-weight="500" font-size="50" transform="matrix(1 0 0 1 6605.58 2424)">少し感じていた</text></g><g clip-path="url(#clip89)"><rect x="6563.5" y="2571.5" width="29" height="28.9998" stroke="#000000" stroke-width="4.58333" stroke-linejoin="round" stroke-miterlimit="10" fill="#9ECBF0"/></g><g clip-path="url(#clip90)"><text fill="#595959" font-family="Yu Gothic,Yu Gothic_MSFontService,sans-serif" font-weight="500" font-size="50" transform="matrix(1 0 0 1 6605.58 2600)">かなり感じていた</text></g><g clip-path="url(#clip91)"><rect x="6563.5" y="2747.5" width="29" height="30" stroke="#000000" stroke-width="4.58333" stroke-linejoin="round" stroke-miterlimit="10" fill="#095085"/></g><g clip-path="url(#clip92)"><text fill="#595959" font-family="Yu Gothic,Yu Gothic_MSFontService,sans-serif" font-weight="500" font-size="50" transform="matrix(1 0 0 1 6605.58 2777)">深刻に感じていた</text></g><rect x="4060.5" y="1713.5" width="2988" height="1284" stroke="#000000" stroke-width="4.58333" stroke-linejoin="round" stroke-miterlimit="10" fill="none"/><g clip-path="url(#clip93)"><g clip-path="url(#clip94)"><text font-family="Yu Gothic,Yu Gothic_MSFontService,sans-serif" font-weight="500" font-size="73" transform="matrix(1 0 0 1 4118.73 1825)">【心理面の印象】</text></g></g><g clip-path="url(#clip95)"><g clip-path="url(#clip96)"><text font-family="Yu Gothic,Yu Gothic_MSFontService,sans-serif" font-weight="500" font-size="73" transform="matrix(1 0 0 1 4705.4 1825)">2020</text></g></g><g clip-path="url(#clip97)"><g clip-path="url(#clip98)"><text font-family="Yu Gothic,Yu Gothic_MSFontService,sans-serif" font-weight="500" font-size="73" transform="matrix(1 0 0 1 4868.29 1825)">年度</text></g></g><g clip-path="url(#clip99)"><g clip-path="url(#clip100)"><text font-family="Yu Gothic,Yu Gothic_MSFontService,sans-serif" font-weight="500" font-size="73" transform="matrix(1 0 0 1 5014.95 1825)">S</text></g></g><g clip-path="url(#clip101)"><g clip-path="url(#clip102)"><text font-family="Yu Gothic,Yu Gothic_MSFontService,sans-serif" font-weight="500" font-size="73" transform="matrix(1 0 0 1 5060.99 1825)">セメスタを振り返って，授業についていけてないのではな</text></g></g><g clip-path="url(#clip103)"><text font-family="Yu Gothic,Yu Gothic_MSFontService,sans-serif" font-weight="500" font-size="73" transform="matrix(1 0 0 1 4118.73 1948)">いかという不安をどれだけ感じていたかについて教えてください。</text></g></g></svg>