<svg width="2979" height="1213" xmlns="http://www.w3.org/2000/svg" xmlns:xlink="http://www.w3.org/1999/xlink" overflow="hidden"><defs><clipPath id="clip0"><rect x="1105" y="1188" width="2979" height="1213"/></clipPath><clipPath id="clip1"><rect x="1107" y="1189" width="2974" height="1208"/></clipPath><clipPath id="clip2"><rect x="2167" y="1538" width="1669" height="740"/></clipPath><clipPath id="clip3"><rect x="2167" y="1538" width="1669" height="740"/></clipPath><clipPath id="clip4"><rect x="2167" y="1538" width="1669" height="740"/></clipPath><clipPath id="clip5"><rect x="2167" y="1538" width="1669" height="740"/></clipPath><clipPath id="clip6"><rect x="2167" y="1538" width="1669" height="740"/></clipPath><clipPath id="clip7"><rect x="1107" y="1189" width="2974" height="1208"/></clipPath><clipPath id="clip8"><rect x="1107" y="1189" width="2974" height="1208"/></clipPath><clipPath id="clip9"><rect x="1863" y="2063" width="516" height="65"/></clipPath><clipPath id="clip10"><rect x="1107" y="1189" width="2974" height="1208"/></clipPath><clipPath id="clip11"><rect x="1107" y="1189" width="2974" height="1208"/></clipPath><clipPath id="clip12"><rect x="1878" y="1656" width="516" height="139"/></clipPath><clipPath id="clip13"><rect x="1107" y="1189" width="2974" height="1208"/></clipPath><clipPath id="clip14"><rect x="1107" y="1189" width="2974" height="1208"/></clipPath><clipPath id="clip15"><rect x="1947" y="2063" width="516" height="65"/></clipPath><clipPath id="clip16"><rect x="1107" y="1189" width="2974" height="1208"/></clipPath><clipPath id="clip17"><rect x="1971" y="1877" width="516" height="65"/></clipPath><clipPath id="clip18"><rect x="1107" y="1189" width="2974" height="1208"/></clipPath><clipPath id="clip19"><rect x="1107" y="1189" width="2974" height="1208"/></clipPath><clipPath id="clip20"><rect x="1107" y="1189" width="2974" height="1208"/></clipPath><clipPath id="clip21"><rect x="1107" y="1189" width="2974" height="1208"/></clipPath><clipPath id="clip22"><rect x="1107" y="1189" width="2974" height="1208"/></clipPath><clipPath id="clip23"><rect x="1107" y="1189" width="2974" height="1208"/></clipPath><clipPath id="clip24"><rect x="2094" y="2062" width="516" height="70"/></clipPath><clipPath id="clip25"><rect x="1107" y="1189" width="2974" height="1208"/></clipPath><clipPath id="clip26"><rect x="2178" y="1872" width="516" height="79"/></clipPath><clipPath id="clip27"><rect x="1107" y="1189" width="2974" height="1208"/></clipPath><clipPath id="clip28"><rect x="1107" y="1189" width="2974" height="1208"/></clipPath><clipPath id="clip29"><rect x="1107" y="1189" width="2974" height="1208"/></clipPath><clipPath id="clip30"><rect x="1927" y="2150" width="773" height="79"/></clipPath><clipPath id="clip31"><rect x="1107" y="1189" width="2974" height="1208"/></clipPath><clipPath id="clip32"><rect x="1107" y="1189" width="2974" height="1208"/></clipPath><clipPath id="clip33"><rect x="1107" y="1189" width="2974" height="1208"/></clipPath><clipPath id="clip34"><rect x="1107" y="1189" width="2974" height="1208"/></clipPath><clipPath id="clip35"><rect x="1107" y="1189" width="2974" height="1208"/></clipPath><clipPath id="clip36"><rect x="1107" y="1189" width="2974" height="1208"/></clipPath><clipPath id="clip37"><rect x="1107" y="1189" width="2974" height="1208"/></clipPath><clipPath id="clip38"><rect x="1107" y="1189" width="2974" height="1208"/></clipPath><clipPath id="clip39"><rect x="1107" y="1189" width="2974" height="1208"/></clipPath><clipPath id="clip40"><rect x="1107" y="1189" width="2974" height="1208"/></clipPath><clipPath id="clip41"><rect x="1107" y="1189" width="2974" height="1208"/></clipPath><clipPath id="clip42"><rect x="-272" y="2085" width="3772" height="185"/></clipPath><clipPath id="clip43"><rect x="1107" y="1189" width="2974" height="1208"/></clipPath><clipPath id="clip44"><rect x="-272" y="2085" width="3772" height="185"/></clipPath><clipPath id="clip45"><rect x="1107" y="1189" width="2974" height="1208"/></clipPath><clipPath id="clip46"><rect x="-171" y="1901" width="3595" height="185"/></clipPath><clipPath id="clip47"><rect x="1107" y="1189" width="2974" height="1208"/></clipPath><clipPath id="clip48"><rect x="-171" y="1717" width="3595" height="185"/></clipPath><clipPath id="clip49"><rect x="1107" y="1189" width="2974" height="1208"/></clipPath><clipPath id="clip50"><rect x="608" y="1533" width="2232" height="185"/></clipPath><clipPath id="clip51"><rect x="1107" y="1189" width="2974" height="1208"/></clipPath><clipPath id="clip52"><rect x="608" y="1533" width="2232" height="185"/></clipPath><clipPath id="clip53"><rect x="1107" y="1189" width="2974" height="1208"/></clipPath><clipPath id="clip54"><rect x="1107" y="1189" width="2974" height="1208"/></clipPath><clipPath id="clip55"><rect x="1107" y="1189" width="2974" height="1208"/></clipPath><clipPath id="clip56"><rect x="1107" y="1189" width="2974" height="1208"/></clipPath><clipPath id="clip57"><rect x="1107" y="1189" width="2974" height="1208"/></clipPath><clipPath id="clip58"><rect x="1107" y="1189" width="2974" height="1208"/></clipPath><clipPath id="clip59"><rect x="1107" y="1189" width="2974" height="1208"/></clipPath><clipPath id="clip60"><rect x="1107" y="1189" width="2974" height="1208"/></clipPath><clipPath id="clip61"><rect x="1107" y="1189" width="2974" height="1208"/></clipPath><clipPath id="clip62"><rect x="1107" y="1189" width="2974" height="1208"/></clipPath><clipPath id="clip63"><rect x="1107" y="1189" width="2974" height="1208"/></clipPath><clipPath id="clip64"><rect x="1107" y="1189" width="2974" height="1208"/></clipPath><clipPath id="clip65"><rect x="1107" y="1189" width="2974" height="1208"/></clipPath><clipPath id="clip66"><rect x="1107" y="1189" width="2974" height="1208"/></clipPath><clipPath id="clip67"><rect x="1107" y="1189" width="2974" height="1208"/></clipPath><clipPath id="clip68"><rect x="1107" y="1189" width="2974" height="1208"/></clipPath><clipPath id="clip69"><rect x="1107" y="1189" width="2974" height="1208"/></clipPath><clipPath id="clip70"><rect x="1107" y="1189" width="2975" height="1209"/></clipPath><clipPath id="clip71"><rect x="1107" y="1189" width="2975" height="1209"/></clipPath><clipPath id="clip72"><rect x="1107" y="1189" width="2975" height="1209"/></clipPath><clipPath id="clip73"><rect x="1107" y="1189" width="2975" height="1209"/></clipPath><clipPath id="clip74"><rect x="1899" y="2186" width="3651" height="101"/></clipPath><clipPath id="clip75"><rect x="1107" y="1189" width="2975" height="1209"/></clipPath><clipPath id="clip76"><rect x="1899" y="2186" width="3651" height="101"/></clipPath><clipPath id="clip77"><rect x="1107" y="1189" width="2975" height="1209"/></clipPath><clipPath id="clip78"><rect x="1899" y="2186" width="3651" height="101"/></clipPath><clipPath id="clip79"><rect x="1107" y="1189" width="2975" height="1209"/></clipPath><clipPath id="clip80"><rect x="1107" y="1189" width="2975" height="1209"/></clipPath><clipPath id="clip81"><rect x="1107" y="1189" width="2975" height="1209"/></clipPath><clipPath id="clip82"><rect x="1107" y="1189" width="2975" height="1209"/></clipPath><clipPath id="clip83"><rect x="1107" y="1189" width="2975" height="1209"/></clipPath><clipPath id="clip84"><rect x="1107" y="1189" width="2975" height="1209"/></clipPath><clipPath id="clip85"><rect x="1107" y="1189" width="2975" height="1209"/></clipPath></defs><g clip-path="url(#clip0)" transform="translate(-1105 -1188)"><rect x="1107" y="1190" width="2974" height="1208" fill="#FFFFFF"/><g clip-path="url(#clip1)"><path d="M2833.59 1538.5 2833.59 2274.5M3499.5 1538.5 3499.5 2274.5" stroke="#D9D9D9" stroke-width="3.4375" stroke-linejoin="round" stroke-miterlimit="10" fill="none"/></g><g clip-path="url(#clip2)"><path d="M2184.57 2240.57 2167.5 2240.57 2167.5 2125.57 2184.57 2125.57ZM2199.57 2056.57 2167.5 2056.57 2167.5 1941.56 2199.57 1941.56ZM2211.57 1872.56 2167.5 1872.56 2167.5 1757.56 2211.57 1757.56ZM2336.58 1688.56 2167.5 1688.56 2167.5 1573.55 2336.58 1573.55Z" stroke="#000000" stroke-width="4.58333" stroke-linejoin="round" stroke-miterlimit="10" fill="#FFFFFF"/></g><g clip-path="url(#clip3)"><path d="M2207.57 2240.57 2184.57 2240.57 2184.57 2125.57 2207.57 2125.57ZM2230.57 2056.57 2199.57 2056.57 2199.57 1941.56 2230.57 1941.56ZM2258.57 1872.56 2211.57 1872.56 2211.57 1757.56 2258.57 1757.56ZM2520.58 1688.56 2336.58 1688.56 2336.58 1573.55 2520.58 1573.55Z" stroke="#000000" stroke-width="4.58333" stroke-linejoin="round" stroke-miterlimit="10" fill="#DEEEFA"/></g><g clip-path="url(#clip4)"><path d="M2240.57 2240.57 2207.57 2240.57 2207.57 2125.57 2240.57 2125.57ZM2286.58 2056.57 2230.57 2056.57 2230.57 1941.56 2286.58 1941.56ZM2317.58 1872.56 2258.57 1872.56 2258.57 1757.56 2317.58 1757.56ZM2854.59 1688.56 2520.58 1688.56 2520.58 1573.55 2854.59 1573.55Z" stroke="#000000" stroke-width="4.58333" stroke-linejoin="round" stroke-miterlimit="10" fill="#AFD6F3"/></g><g clip-path="url(#clip5)"><path d="M2386.58 2240.57 2240.57 2240.57 2240.57 2125.57 2386.58 2125.57ZM2420.58 2056.57 2286.58 2056.57 2286.58 1941.56 2420.58 1941.56ZM2450.58 1872.56 2317.58 1872.56 2317.58 1757.56 2450.58 1757.56ZM3600.62 1688.56 2854.59 1688.56 2854.59 1573.55 3600.62 1573.55Z" stroke="#000000" stroke-width="4.58333" stroke-linejoin="round" stroke-miterlimit="10" fill="#51A1E6"/></g><g clip-path="url(#clip6)"><path d="M2390.58 2240.57 2386.58 2240.57 2386.58 2125.57 2390.58 2125.57ZM2424.58 2056.57 2420.58 2056.57 2420.58 1941.56 2424.58 1941.56ZM2457.58 1872.56 2450.58 1872.56 2450.58 1757.56 2457.58 1757.56ZM3624.62 1688.56 3600.62 1688.56 3600.62 1573.55 3624.62 1573.55Z" stroke="#000000" stroke-width="4.58333" stroke-linejoin="round" stroke-miterlimit="10" fill="#145288"/></g><g clip-path="url(#clip7)"><path d="M0 0 0.000360892 736" stroke="#D9D9D9" stroke-width="3.4375" stroke-linejoin="round" stroke-miterlimit="10" fill="none" fill-rule="evenodd" transform="matrix(1 0 0 -1 2167.5 2274.5)"/></g><g clip-path="url(#clip8)"><g clip-path="url(#clip9)"><text fill="#595959" font-family="Yu Gothic,Yu Gothic_MSFontService,sans-serif" font-weight="700" font-size="64" transform="matrix(1 0 0 1 2083.89 2118)">26</text></g></g><g clip-path="url(#clip10)"><text fill="#595959" font-family="Yu Gothic,Yu Gothic_MSFontService,sans-serif" font-weight="700" font-size="64" transform="matrix(1 0 0 1 2100.99 1932)">49</text></g><g clip-path="url(#clip11)"><g clip-path="url(#clip12)"><text fill="#595959" font-family="Yu Gothic,Yu Gothic_MSFontService,sans-serif" font-weight="700" font-size="64" transform="matrix(1 0 0 1 2099.37 1748)">67</text></g></g><g clip-path="url(#clip13)"><text fill="#595959" font-family="Yu Gothic,Yu Gothic_MSFontService,sans-serif" font-weight="700" font-size="64" transform="matrix(1 0 0 1 2196.86 1653)">255</text></g><g clip-path="url(#clip14)"><g clip-path="url(#clip15)"><text fill="#595959" font-family="Yu Gothic,Yu Gothic_MSFontService,sans-serif" font-weight="700" font-size="64" transform="matrix(1 0 0 1 2168.41 2118)">35</text></g></g><g clip-path="url(#clip16)"><g clip-path="url(#clip17)"><text fill="#595959" font-family="Yu Gothic,Yu Gothic_MSFontService,sans-serif" font-weight="700" font-size="64" transform="matrix(1 0 0 1 2191.92 1932)">46</text></g></g><g clip-path="url(#clip18)"><text fill="#595959" font-family="Yu Gothic,Yu Gothic_MSFontService,sans-serif" font-weight="700" font-size="64" transform="matrix(1 0 0 1 2198.59 1748)">71</text></g><g clip-path="url(#clip19)"><text fill="#595959" font-family="Yu Gothic,Yu Gothic_MSFontService,sans-serif" font-weight="700" font-size="64" transform="matrix(1 0 0 1 2373.45 1653)">275</text></g><g clip-path="url(#clip20)"><path d="M2224.5 2125.5 2250.57 2097.5 2271.5 2097.5" stroke="#A6A6A6" stroke-width="3.4375" stroke-linejoin="round" stroke-miterlimit="10" fill="none"/></g><g clip-path="url(#clip21)"><path d="M2258.5 1941.5 2334.58 1911.5 2355.5 1911.5" stroke="#A6A6A6" stroke-width="3.4375" stroke-linejoin="round" stroke-miterlimit="10" fill="none"/></g><g clip-path="url(#clip22)"><path d="M2288.5 1757.5 2335.58 1726.5 2356.5 1726.5" stroke="#A6A6A6" stroke-width="3.4375" stroke-linejoin="round" stroke-miterlimit="10" fill="none"/></g><g clip-path="url(#clip23)"><g clip-path="url(#clip24)"><text fill="#595959" font-family="Yu Gothic,Yu Gothic_MSFontService,sans-serif" font-weight="700" font-size="64" transform="matrix(1 0 0 1 2315.19 2119)">50</text></g></g><g clip-path="url(#clip25)"><g clip-path="url(#clip26)"><text fill="#595959" font-family="Yu Gothic,Yu Gothic_MSFontService,sans-serif" font-weight="700" font-size="64" transform="matrix(1 0 0 1 2399.3 1934)">84</text></g></g><g clip-path="url(#clip27)"><text fill="#595959" font-family="Yu Gothic,Yu Gothic_MSFontService,sans-serif" font-weight="700" font-size="64" transform="matrix(1 0 0 1 2370.11 1749)">88</text></g><g clip-path="url(#clip28)"><text fill="#595959" font-family="Yu Gothic,Yu Gothic_MSFontService,sans-serif" font-weight="700" font-size="64" transform="matrix(1 0 0 1 2632.01 1653)">501</text></g><g clip-path="url(#clip29)"><g clip-path="url(#clip30)"><text fill="#404040" font-family="Yu Gothic,Yu Gothic_MSFontService,sans-serif" font-weight="700" font-size="64" transform="matrix(1 0 0 1 2258.5 2212)">218</text></g></g><g clip-path="url(#clip31)"><text fill="#404040" font-family="Yu Gothic,Yu Gothic_MSFontService,sans-serif" font-weight="700" font-size="64" transform="matrix(1 0 0 1 2298.48 2021)">202</text></g><g clip-path="url(#clip32)"><text fill="#404040" font-family="Yu Gothic,Yu Gothic_MSFontService,sans-serif" font-weight="700" font-size="64" transform="matrix(1 0 0 1 2333.7 1837)">200</text></g><g clip-path="url(#clip33)"><text fill="#404040" font-family="Yu Gothic,Yu Gothic_MSFontService,sans-serif" font-weight="700" font-size="64" transform="matrix(1 0 0 1 3158.28 1653)">1120</text></g><g clip-path="url(#clip34)"><text fill="#595959" font-family="Yu Gothic,Yu Gothic_MSFontService,sans-serif" font-weight="700" font-size="64" transform="matrix(1 0 0 1 2413.81 2205)">6</text></g><g clip-path="url(#clip35)"><text fill="#595959" font-family="Yu Gothic,Yu Gothic_MSFontService,sans-serif" font-weight="700" font-size="64" transform="matrix(1 0 0 1 2448.46 2021)">6</text></g><g clip-path="url(#clip36)"><text fill="#595959" font-family="Yu Gothic,Yu Gothic_MSFontService,sans-serif" font-weight="700" font-size="64" transform="matrix(1 0 0 1 2478.45 1837)">10</text></g><g clip-path="url(#clip37)"><text fill="#595959" font-family="Yu Gothic,Yu Gothic_MSFontService,sans-serif" font-weight="700" font-size="64" transform="matrix(1 0 0 1 3627.96 1653)">36</text></g><g clip-path="url(#clip38)"><text fill="#595959" font-family="Yu Gothic,Yu Gothic_MSFontService,sans-serif" font-weight="500" font-size="60" transform="matrix(1 0 0 1 2150.53 2373)">0</text></g><g clip-path="url(#clip39)"><text fill="#595959" font-family="Yu Gothic,Yu Gothic_MSFontService,sans-serif" font-weight="500" font-size="60" transform="matrix(1 0 0 1 2767.31 2373)">1000</text></g><g clip-path="url(#clip40)"><text fill="#595959" font-family="Yu Gothic,Yu Gothic_MSFontService,sans-serif" font-weight="500" font-size="60" transform="matrix(1 0 0 1 3433.7 2373)">2000</text></g><g clip-path="url(#clip41)"><g clip-path="url(#clip42)"><text fill="#595959" font-family="Yu Gothic,Yu Gothic_MSFontService,sans-serif" font-weight="500" font-size="73" transform="matrix(1 0 0 1 1344.62 2203)">デスクトップ</text></g></g><g clip-path="url(#clip43)"><g clip-path="url(#clip44)"><text fill="#595959" font-family="Yu Gothic,Yu Gothic_MSFontService,sans-serif" font-weight="500" font-size="73" transform="matrix(1 0 0 1 1784.62 2203)">PC</text></g></g><g clip-path="url(#clip45)"><g clip-path="url(#clip46)"><text fill="#595959" font-family="Yu Gothic,Yu Gothic_MSFontService,sans-serif" font-weight="500" font-size="73" transform="matrix(1 0 0 1 1369.94 2019)">タブレット端末</text></g></g><g clip-path="url(#clip47)"><g clip-path="url(#clip48)"><text fill="#595959" font-family="Yu Gothic,Yu Gothic_MSFontService,sans-serif" font-weight="500" font-size="73" transform="matrix(1 0 0 1 1369.94 1835)">スマートフォン</text></g></g><g clip-path="url(#clip49)"><g clip-path="url(#clip50)"><text fill="#595959" font-family="Yu Gothic,Yu Gothic_MSFontService,sans-serif" font-weight="500" font-size="73" transform="matrix(1 0 0 1 1564.62 1651)">ノート</text></g></g><g clip-path="url(#clip51)"><g clip-path="url(#clip52)"><text fill="#595959" font-family="Yu Gothic,Yu Gothic_MSFontService,sans-serif" font-weight="500" font-size="73" transform="matrix(1 0 0 1 1784.62 1651)">PC</text></g></g><g clip-path="url(#clip53)"><rect x="3454" y="1735" width="590" height="439" fill="#FFFFFF"/></g><g clip-path="url(#clip54)"><rect x="3516.5" y="1760.5" width="36.9998" height="37.0001" stroke="#000000" stroke-width="4.58333" stroke-linejoin="round" stroke-miterlimit="10" fill="#FFFFFF"/></g><g clip-path="url(#clip55)"><text fill="#595959" font-family="Yu Gothic,Yu Gothic_MSFontService,sans-serif" font-weight="500" font-size="64" transform="matrix(1 0 0 1 3570.57 1797)">学部</text></g><g clip-path="url(#clip56)"><text fill="#595959" font-family="Yu Gothic,Yu Gothic_MSFontService,sans-serif" font-weight="500" font-size="64" transform="matrix(1 0 0 1 3698.9 1797)">1</text></g><g clip-path="url(#clip57)"><text fill="#595959" font-family="Yu Gothic,Yu Gothic_MSFontService,sans-serif" font-weight="500" font-size="64" transform="matrix(1 0 0 1 3734.51 1797)">年生</text></g><g clip-path="url(#clip58)"><rect x="3516.5" y="1848.5" width="36.9998" height="37.0001" stroke="#000000" stroke-width="4.58333" stroke-linejoin="round" stroke-miterlimit="10" fill="#DEEEFA"/></g><g clip-path="url(#clip59)"><text fill="#595959" font-family="Yu Gothic,Yu Gothic_MSFontService,sans-serif" font-weight="500" font-size="64" transform="matrix(1 0 0 1 3570.57 1885)">学部</text></g><g clip-path="url(#clip60)"><text fill="#595959" font-family="Yu Gothic,Yu Gothic_MSFontService,sans-serif" font-weight="500" font-size="64" transform="matrix(1 0 0 1 3698.9 1885)">2</text></g><g clip-path="url(#clip61)"><text fill="#595959" font-family="Yu Gothic,Yu Gothic_MSFontService,sans-serif" font-weight="500" font-size="64" transform="matrix(1 0 0 1 3734.51 1885)">年生</text></g><g clip-path="url(#clip62)"><rect x="3516.5" y="1936.5" width="36.9998" height="37.0001" stroke="#000000" stroke-width="4.58333" stroke-linejoin="round" stroke-miterlimit="10" fill="#AFD6F3"/></g><g clip-path="url(#clip63)"><text fill="#595959" font-family="Yu Gothic,Yu Gothic_MSFontService,sans-serif" font-weight="500" font-size="64" transform="matrix(1 0 0 1 3570.57 1972)">学部</text></g><g clip-path="url(#clip64)"><text fill="#595959" font-family="Yu Gothic,Yu Gothic_MSFontService,sans-serif" font-weight="500" font-size="64" transform="matrix(1 0 0 1 3698.9 1972)">3</text></g><g clip-path="url(#clip65)"><text fill="#595959" font-family="Yu Gothic,Yu Gothic_MSFontService,sans-serif" font-weight="500" font-size="64" transform="matrix(1 0 0 1 3734.51 1972)">年生以上</text></g><g clip-path="url(#clip66)"><rect x="3516.5" y="2024.5" width="36.9998" height="37.0001" stroke="#000000" stroke-width="4.58333" stroke-linejoin="round" stroke-miterlimit="10" fill="#51A1E6"/></g><g clip-path="url(#clip67)"><text fill="#595959" font-family="Yu Gothic,Yu Gothic_MSFontService,sans-serif" font-weight="500" font-size="64" transform="matrix(1 0 0 1 3570.57 2060)">大学院</text></g><g clip-path="url(#clip68)"><rect x="3516.5" y="2111.5" width="36.9998" height="37.9998" stroke="#000000" stroke-width="4.58333" stroke-linejoin="round" stroke-miterlimit="10" fill="#145288"/></g><g clip-path="url(#clip69)"><text fill="#595959" font-family="Yu Gothic,Yu Gothic_MSFontService,sans-serif" font-weight="500" font-size="64" transform="matrix(1 0 0 1 3570.57 2148)">その他</text></g><rect x="1107.5" y="1190.5" width="2974" height="1208" stroke="#000000" stroke-width="4.58333" stroke-linejoin="round" stroke-miterlimit="10" fill="none"/><g clip-path="url(#clip70)"><text font-family="Yu Gothic,Yu Gothic_MSFontService,sans-serif" font-weight="500" font-size="73" transform="matrix(1 0 0 1 1158.28 1308)">【ツール】オンライン授業や研究などのために，どの機器を使ってインターネットに</text></g><g clip-path="url(#clip71)"><text font-family="Yu Gothic,Yu Gothic_MSFontService,sans-serif" font-weight="500" font-size="73" transform="matrix(1 0 0 1 1158.28 1431)">接続していましたか？（複数選択可）</text></g><g clip-path="url(#clip72)"><rect x="3066" y="2186" width="952" height="100" fill="#FFFFFF" fill-opacity="0.698039"/></g><g clip-path="url(#clip73)"><g clip-path="url(#clip74)"><text fill="#595959" font-family="Yu Gothic,Yu Gothic_MSFontService,sans-serif" font-weight="400" font-size="69" transform="matrix(1 0 0 1 3463.86 2249)">(</text></g></g><g clip-path="url(#clip75)"><g clip-path="url(#clip76)"><text fill="#595959" font-family="Yu Gothic,Yu Gothic_MSFontService,sans-serif" font-weight="400" font-size="69" transform="matrix(1 0 0 1 3490.43 2249)">回答数</text></g></g><g clip-path="url(#clip77)"><g clip-path="url(#clip78)"><text fill="#595959" font-family="Yu Gothic,Yu Gothic_MSFontService,sans-serif" font-weight="400" font-size="69" transform="matrix(1 0 0 1 3716.27 2249)">n=2401)</text></g></g><g clip-path="url(#clip79)"><rect x="3909" y="2280" width="163" height="77" fill="#FFFFFF" fill-opacity="0.698039"/></g><g clip-path="url(#clip80)"><text fill="#595959" font-family="Yu Gothic,Yu Gothic_MSFontService,sans-serif" font-weight="400" font-size="60" transform="matrix(1 0 0 1 3941.94 2367)">人</text></g><g clip-path="url(#clip81)"><text fill="#595959" font-family="Yu Gothic,Yu Gothic_MSFontService,sans-serif" font-weight="700" font-size="73" transform="matrix(1 0 0 1 1964.14 1842)">436</text></g><g clip-path="url(#clip82)"><text fill="#595959" font-family="Yu Gothic,Yu Gothic_MSFontService,sans-serif" font-weight="700" font-size="73" transform="matrix(1 0 0 1 1964.14 2019)">387</text></g><g clip-path="url(#clip83)"><text fill="#595959" font-family="Yu Gothic,Yu Gothic_MSFontService,sans-serif" font-weight="700" font-size="73" transform="matrix(1 0 0 1 1964.14 2199)">335</text></g><g clip-path="url(#clip84)"><text fill="#595959" font-family="Yu Gothic,Yu Gothic_MSFontService,sans-serif" font-weight="700" font-size="73" transform="matrix(1 0 0 1 1964.14 1656)">2187</text></g><g clip-path="url(#clip85)"><text fill="#595959" font-family="Yu Gothic,Yu Gothic_MSFontService,sans-serif" font-weight="500" font-size="73" transform="matrix(1 0 0 1 1969.19 1546)">全体</text></g></g></svg>