<svg width="2993" height="1127" xmlns="http://www.w3.org/2000/svg" xmlns:xlink="http://www.w3.org/1999/xlink" overflow="hidden"><defs><clipPath id="clip0"><rect x="3585" y="1266" width="2993" height="1127"/></clipPath><clipPath id="clip1"><rect x="3586" y="1268" width="2988" height="1121"/></clipPath><clipPath id="clip2"><rect x="4300" y="1440" width="1508" height="812"/></clipPath><clipPath id="clip3"><rect x="4300" y="1440" width="1508" height="812"/></clipPath><clipPath id="clip4"><rect x="3586" y="1268" width="2988" height="1121"/></clipPath><clipPath id="clip5"><rect x="3586" y="1268" width="2988" height="1121"/></clipPath><clipPath id="clip6"><rect x="3586" y="1268" width="2988" height="1121"/></clipPath><clipPath id="clip7"><rect x="3586" y="1268" width="2988" height="1121"/></clipPath><clipPath id="clip8"><rect x="3586" y="1268" width="2988" height="1121"/></clipPath><clipPath id="clip9"><rect x="3586" y="1268" width="2988" height="1121"/></clipPath><clipPath id="clip10"><rect x="3586" y="1268" width="2988" height="1121"/></clipPath><clipPath id="clip11"><rect x="3586" y="1268" width="2988" height="1121"/></clipPath><clipPath id="clip12"><rect x="3586" y="1268" width="2988" height="1121"/></clipPath><clipPath id="clip13"><rect x="3586" y="1268" width="2988" height="1121"/></clipPath><clipPath id="clip14"><rect x="3586" y="1268" width="2988" height="1121"/></clipPath><clipPath id="clip15"><rect x="3586" y="1268" width="2988" height="1121"/></clipPath><clipPath id="clip16"><rect x="3586" y="1268" width="2988" height="1121"/></clipPath><clipPath id="clip17"><rect x="3586" y="1268" width="2988" height="1121"/></clipPath><clipPath id="clip18"><rect x="3586" y="1268" width="2988" height="1121"/></clipPath><clipPath id="clip19"><rect x="3586" y="1268" width="2988" height="1121"/></clipPath><clipPath id="clip20"><rect x="3586" y="1268" width="2988" height="1121"/></clipPath><clipPath id="clip21"><rect x="3586" y="1268" width="2988" height="1121"/></clipPath><clipPath id="clip22"><rect x="3586" y="1268" width="2988" height="1121"/></clipPath><clipPath id="clip23"><rect x="2790" y="2109" width="2575" height="136"/></clipPath><clipPath id="clip24"><rect x="3586" y="1268" width="2988" height="1121"/></clipPath><clipPath id="clip25"><rect x="2790" y="2109" width="2575" height="136"/></clipPath><clipPath id="clip26"><rect x="3586" y="1268" width="2988" height="1121"/></clipPath><clipPath id="clip27"><rect x="2525" y="1975" width="3039" height="135"/></clipPath><clipPath id="clip28"><rect x="3586" y="1268" width="2988" height="1121"/></clipPath><clipPath id="clip29"><rect x="2525" y="1975" width="3039" height="135"/></clipPath><clipPath id="clip30"><rect x="3586" y="1268" width="2988" height="1121"/></clipPath><clipPath id="clip31"><rect x="2049" y="1840" width="3872" height="136"/></clipPath><clipPath id="clip32"><rect x="3586" y="1268" width="2988" height="1121"/></clipPath><clipPath id="clip33"><rect x="2049" y="1840" width="3872" height="136"/></clipPath><clipPath id="clip34"><rect x="3586" y="1268" width="2988" height="1121"/></clipPath><clipPath id="clip35"><rect x="2049" y="1840" width="3872" height="136"/></clipPath><clipPath id="clip36"><rect x="3586" y="1268" width="2988" height="1121"/></clipPath><clipPath id="clip37"><rect x="2049" y="1840" width="3872" height="136"/></clipPath><clipPath id="clip38"><rect x="3586" y="1268" width="2988" height="1121"/></clipPath><clipPath id="clip39"><rect x="2525" y="1705" width="3039" height="136"/></clipPath><clipPath id="clip40"><rect x="3586" y="1268" width="2988" height="1121"/></clipPath><clipPath id="clip41"><rect x="2525" y="1705" width="3039" height="136"/></clipPath><clipPath id="clip42"><rect x="3586" y="1268" width="2988" height="1121"/></clipPath><clipPath id="clip43"><rect x="2525" y="1705" width="3039" height="136"/></clipPath><clipPath id="clip44"><rect x="3586" y="1268" width="2988" height="1121"/></clipPath><clipPath id="clip45"><rect x="2525" y="1705" width="3039" height="136"/></clipPath><clipPath id="clip46"><rect x="3586" y="1268" width="2988" height="1121"/></clipPath><clipPath id="clip47"><rect x="2525" y="1571" width="3039" height="135"/></clipPath><clipPath id="clip48"><rect x="3586" y="1268" width="2988" height="1121"/></clipPath><clipPath id="clip49"><rect x="2525" y="1571" width="3039" height="135"/></clipPath><clipPath id="clip50"><rect x="3586" y="1268" width="2988" height="1121"/></clipPath><clipPath id="clip51"><rect x="2525" y="1571" width="3039" height="135"/></clipPath><clipPath id="clip52"><rect x="3586" y="1268" width="2988" height="1121"/></clipPath><clipPath id="clip53"><rect x="2525" y="1571" width="3039" height="135"/></clipPath><clipPath id="clip54"><rect x="3586" y="1268" width="2988" height="1121"/></clipPath><clipPath id="clip55"><rect x="2764" y="1436" width="2621" height="136"/></clipPath><clipPath id="clip56"><rect x="3586" y="1268" width="2988" height="1121"/></clipPath><clipPath id="clip57"><rect x="2764" y="1436" width="2621" height="136"/></clipPath><clipPath id="clip58"><rect x="3586" y="1268" width="2988" height="1121"/></clipPath><clipPath id="clip59"><rect x="3586" y="1268" width="2988" height="1121"/></clipPath><clipPath id="clip60"><rect x="3586" y="1268" width="2988" height="1121"/></clipPath><clipPath id="clip61"><rect x="3586" y="1268" width="2988" height="1121"/></clipPath><clipPath id="clip62"><rect x="3586" y="1268" width="2989" height="1122"/></clipPath><clipPath id="clip63"><rect x="-2075" y="1275" width="13348" height="355"/></clipPath><clipPath id="clip64"><rect x="3586" y="1268" width="2989" height="1122"/></clipPath><clipPath id="clip65"><rect x="-2075" y="1275" width="13348" height="355"/></clipPath><clipPath id="clip66"><rect x="3586" y="1268" width="2989" height="1122"/></clipPath><clipPath id="clip67"><rect x="-2075" y="1275" width="13348" height="355"/></clipPath><clipPath id="clip68"><rect x="3586" y="1268" width="2989" height="1122"/></clipPath><clipPath id="clip69"><rect x="-2075" y="1275" width="13348" height="355"/></clipPath></defs><g clip-path="url(#clip0)" transform="translate(-3585 -1266)"><rect x="3587" y="1268" width="2988" height="1122" fill="#FFFFFF"/><g clip-path="url(#clip1)"><path d="M4676.65 1440.5 4676.65 2248.5M5052.67 1440.5 5052.67 2248.5M5429.68 1440.5 5429.68 2248.5M5805.5 1440.5 5805.5 2248.5" stroke="#D9D9D9" stroke-width="4.58333" stroke-linejoin="round" stroke-miterlimit="10" fill="none"/></g><g clip-path="url(#clip2)"><path d="M5420.68 2225.57 4300.5 2225.57 4300.5 2137.57 5420.68 2137.57ZM5267.67 2090.57 4300.5 2090.57 4300.5 2002.57 5267.67 2002.57ZM5601.68 1955.56 4300.5 1955.56 4300.5 1867.56 5601.68 1867.56ZM5795.69 1821.56 4300.5 1821.56 4300.5 1733.56 5795.69 1733.56ZM5788.69 1686.56 4300.5 1686.56 4300.5 1598.55 5788.69 1598.55ZM5472.68 1551.55 4300.5 1551.55 4300.5 1463.55 5472.68 1463.55Z" stroke="#000000" stroke-width="4.58333" stroke-linejoin="round" stroke-miterlimit="10" fill="#DEEBF7"/></g><g clip-path="url(#clip3)"><path d="M5805.69 2225.57 5420.68 2225.57 5420.68 2137.57 5805.69 2137.57ZM5805.69 2090.57 5267.67 2090.57 5267.67 2002.57 5805.69 2002.57ZM5805.69 1955.56 5601.68 1955.56 5601.68 1867.56 5805.69 1867.56ZM5805.69 1821.56 5795.69 1821.56 5795.69 1733.56 5805.69 1733.56ZM5805.69 1686.56 5788.69 1686.56 5788.69 1598.55 5805.69 1598.55ZM5805.69 1551.55 5472.68 1551.55 5472.68 1463.55 5805.69 1463.55Z" stroke="#000000" stroke-width="4.58333" stroke-linejoin="round" stroke-miterlimit="10" fill="#095085"/></g><g clip-path="url(#clip4)"><path d="M0 0 0.000360892 808" stroke="#D9D9D9" stroke-width="3.4375" stroke-linejoin="round" stroke-miterlimit="10" fill="none" fill-rule="evenodd" transform="matrix(1 0 0 -1 4300.5 2248.5)"/></g><g clip-path="url(#clip5)"><text fill="#404040" font-family="Yu Gothic,Yu Gothic_MSFontService,sans-serif" font-weight="700" font-size="55" transform="matrix(1 0 0 1 4828.77 2200)">32</text></g><g clip-path="url(#clip6)"><text fill="#404040" font-family="Yu Gothic,Yu Gothic_MSFontService,sans-serif" font-weight="700" font-size="55" transform="matrix(1 0 0 1 4736.69 2066)">799</text></g><g clip-path="url(#clip7)"><text fill="#404040" font-family="Yu Gothic,Yu Gothic_MSFontService,sans-serif" font-weight="700" font-size="55" transform="matrix(1 0 0 1 4903.61 1931)">466</text></g><g clip-path="url(#clip8)"><text fill="#404040" font-family="Yu Gothic,Yu Gothic_MSFontService,sans-serif" font-weight="700" font-size="55" transform="matrix(1 0 0 1 5000.74 1796)">311</text></g><g clip-path="url(#clip9)"><text fill="#404040" font-family="Yu Gothic,Yu Gothic_MSFontService,sans-serif" font-weight="700" font-size="55" transform="matrix(1 0 0 1 4997.34 1662)">272</text></g><g clip-path="url(#clip10)"><text fill="#404040" font-family="Yu Gothic,Yu Gothic_MSFontService,sans-serif" font-weight="700" font-size="55" transform="matrix(1 0 0 1 4823.52 1527)">1880</text></g><g clip-path="url(#clip11)"><text fill="#FFFFFF" font-family="Yu Gothic,Yu Gothic_MSFontService,sans-serif" font-weight="700" font-size="55" transform="matrix(1 0 0 1 5581.45 2200)">11</text></g><g clip-path="url(#clip12)"><text fill="#FFFFFF" font-family="Yu Gothic,Yu Gothic_MSFontService,sans-serif" font-weight="700" font-size="55" transform="matrix(1 0 0 1 5489.37 2066)">444</text></g><g clip-path="url(#clip13)"><text fill="#FFFFFF" font-family="Yu Gothic,Yu Gothic_MSFontService,sans-serif" font-weight="700" font-size="55" transform="matrix(1 0 0 1 5672.06 1931)">73</text></g><g clip-path="url(#clip14)"><text fill="#404040" font-family="Yu Gothic,Yu Gothic_MSFontService,sans-serif" font-weight="700" font-size="55" transform="matrix(1 0 0 1 5830.79 1796)">2</text></g><g clip-path="url(#clip15)"><text fill="#404040" font-family="Yu Gothic,Yu Gothic_MSFontService,sans-serif" font-weight="700" font-size="55" transform="matrix(1 0 0 1 5827.39 1662)">3</text></g><g clip-path="url(#clip16)"><text fill="#FFFFFF" font-family="Yu Gothic,Yu Gothic_MSFontService,sans-serif" font-weight="700" font-size="55" transform="matrix(1 0 0 1 5591.97 1527)">533</text></g><g clip-path="url(#clip17)"><text fill="#595959" font-family="Yu Gothic,Yu Gothic_MSFontService,sans-serif" font-weight="500" font-size="60" transform="matrix(1 0 0 1 4259.67 2347)">0%</text></g><g clip-path="url(#clip18)"><text fill="#595959" font-family="Yu Gothic,Yu Gothic_MSFontService,sans-serif" font-weight="500" font-size="60" transform="matrix(1 0 0 1 4619.48 2347)">25%</text></g><g clip-path="url(#clip19)"><text fill="#595959" font-family="Yu Gothic,Yu Gothic_MSFontService,sans-serif" font-weight="500" font-size="60" transform="matrix(1 0 0 1 4995.82 2347)">50%</text></g><g clip-path="url(#clip20)"><text fill="#595959" font-family="Yu Gothic,Yu Gothic_MSFontService,sans-serif" font-weight="500" font-size="60" transform="matrix(1 0 0 1 5372.16 2347)">75%</text></g><g clip-path="url(#clip21)"><text fill="#595959" font-family="Yu Gothic,Yu Gothic_MSFontService,sans-serif" font-weight="500" font-size="60" transform="matrix(1 0 0 1 5731.97 2347)">100%</text></g><g clip-path="url(#clip22)"><g clip-path="url(#clip23)"><text fill="#595959" font-family="Yu Gothic,Yu Gothic_MSFontService,sans-serif" font-weight="500" font-size="60" transform="matrix(1 0 0 1 3893.55 2198)">その他</text></g></g><g clip-path="url(#clip24)"><g clip-path="url(#clip25)"><text fill="#595959" font-family="Yu Gothic,Yu Gothic_MSFontService,sans-serif" font-weight="500" font-size="60" transform="matrix(1 0 0 1 4072.3 2198)">(n=43)</text></g></g><g clip-path="url(#clip26)"><g clip-path="url(#clip27)"><text fill="#595959" font-family="Yu Gothic,Yu Gothic_MSFontService,sans-serif" font-weight="500" font-size="60" transform="matrix(1 0 0 1 3827.41 2064)">大学院</text></g></g><g clip-path="url(#clip28)"><g clip-path="url(#clip29)"><text fill="#595959" font-family="Yu Gothic,Yu Gothic_MSFontService,sans-serif" font-weight="500" font-size="60" transform="matrix(1 0 0 1 4006.16 2064)">(n=1243)</text></g></g><g clip-path="url(#clip30)"><g clip-path="url(#clip31)"><text fill="#595959" font-family="Yu Gothic,Yu Gothic_MSFontService,sans-serif" font-weight="500" font-size="60" transform="matrix(1 0 0 1 3708.25 1929)">学部</text></g></g><g clip-path="url(#clip32)"><g clip-path="url(#clip33)"><text fill="#595959" font-family="Yu Gothic,Yu Gothic_MSFontService,sans-serif" font-weight="500" font-size="60" transform="matrix(1 0 0 1 3827.41 1929)">3</text></g></g><g clip-path="url(#clip34)"><g clip-path="url(#clip35)"><text fill="#595959" font-family="Yu Gothic,Yu Gothic_MSFontService,sans-serif" font-weight="500" font-size="60" transform="matrix(1 0 0 1 3860.48 1929)">年以上</text></g></g><g clip-path="url(#clip36)"><g clip-path="url(#clip37)"><text fill="#595959" font-family="Yu Gothic,Yu Gothic_MSFontService,sans-serif" font-weight="500" font-size="60" transform="matrix(1 0 0 1 4039.23 1929)">(n=539)</text></g></g><g clip-path="url(#clip38)"><g clip-path="url(#clip39)"><text fill="#595959" font-family="Yu Gothic,Yu Gothic_MSFontService,sans-serif" font-weight="500" font-size="60" transform="matrix(1 0 0 1 3827.41 1794)">学部</text></g></g><g clip-path="url(#clip40)"><g clip-path="url(#clip41)"><text fill="#595959" font-family="Yu Gothic,Yu Gothic_MSFontService,sans-serif" font-weight="500" font-size="60" transform="matrix(1 0 0 1 3946.58 1794)">2</text></g></g><g clip-path="url(#clip42)"><g clip-path="url(#clip43)"><text fill="#595959" font-family="Yu Gothic,Yu Gothic_MSFontService,sans-serif" font-weight="500" font-size="60" transform="matrix(1 0 0 1 3979.65 1794)">年</text></g></g><g clip-path="url(#clip44)"><g clip-path="url(#clip45)"><text fill="#595959" font-family="Yu Gothic,Yu Gothic_MSFontService,sans-serif" font-weight="500" font-size="60" transform="matrix(1 0 0 1 4039.23 1794)">(n=313)</text></g></g><g clip-path="url(#clip46)"><g clip-path="url(#clip47)"><text fill="#595959" font-family="Yu Gothic,Yu Gothic_MSFontService,sans-serif" font-weight="500" font-size="60" transform="matrix(1 0 0 1 3827.41 1660)">学部</text></g></g><g clip-path="url(#clip48)"><g clip-path="url(#clip49)"><text fill="#595959" font-family="Yu Gothic,Yu Gothic_MSFontService,sans-serif" font-weight="500" font-size="60" transform="matrix(1 0 0 1 3946.58 1660)">1</text></g></g><g clip-path="url(#clip50)"><g clip-path="url(#clip51)"><text fill="#595959" font-family="Yu Gothic,Yu Gothic_MSFontService,sans-serif" font-weight="500" font-size="60" transform="matrix(1 0 0 1 3979.65 1660)">年</text></g></g><g clip-path="url(#clip52)"><g clip-path="url(#clip53)"><text fill="#595959" font-family="Yu Gothic,Yu Gothic_MSFontService,sans-serif" font-weight="500" font-size="60" transform="matrix(1 0 0 1 4039.23 1660)">(n=275)</text></g></g><g clip-path="url(#clip54)"><g clip-path="url(#clip55)"><text fill="#595959" font-family="Yu Gothic,Yu Gothic_MSFontService,sans-serif" font-weight="500" font-size="60" transform="matrix(1 0 0 1 3887 1525)">全体</text></g></g><g clip-path="url(#clip56)"><g clip-path="url(#clip57)"><text fill="#595959" font-family="Yu Gothic,Yu Gothic_MSFontService,sans-serif" font-weight="500" font-size="60" transform="matrix(1 0 0 1 4006.16 1525)">(n=2413)</text></g></g><g clip-path="url(#clip58)"><rect x="6030.5" y="1741.5" width="32" height="32" stroke="#000000" stroke-width="4.58333" stroke-linejoin="round" stroke-miterlimit="10" fill="#DEEBF7"/></g><g clip-path="url(#clip59)"><text fill="#595959" font-family="Yu Gothic,Yu Gothic_MSFontService,sans-serif" font-weight="500" font-size="55" transform="matrix(1 0 0 1 6076.91 1772)">受けている</text></g><g clip-path="url(#clip60)"><rect x="6030.5" y="1922.5" width="32" height="32" stroke="#000000" stroke-width="4.58333" stroke-linejoin="round" stroke-miterlimit="10" fill="#095085"/></g><g clip-path="url(#clip61)"><text fill="#595959" font-family="Yu Gothic,Yu Gothic_MSFontService,sans-serif" font-weight="500" font-size="55" transform="matrix(1 0 0 1 6076.91 1953)">受けていない</text></g><rect x="3587.5" y="1268.5" width="2988" height="1122" stroke="#000000" stroke-width="4.58333" stroke-linejoin="round" stroke-miterlimit="10" fill="none"/><g clip-path="url(#clip62)"><g clip-path="url(#clip63)"><text font-family="Yu Gothic,Yu Gothic_MSFontService,sans-serif" font-weight="500" font-size="73" transform="matrix(1 0 0 1 3645.43 1379)">【</text></g></g><g clip-path="url(#clip64)"><g clip-path="url(#clip65)"><text font-family="Yu Gothic,Yu Gothic_MSFontService,sans-serif" font-weight="500" font-size="73" transform="matrix(1 0 0 1 3718.77 1379)">授業の有無</text></g></g><g clip-path="url(#clip66)"><g clip-path="url(#clip67)"><text font-family="Yu Gothic,Yu Gothic_MSFontService,sans-serif" font-weight="500" font-size="73" transform="matrix(1 0 0 1 4085.43 1379)">】</text></g></g><g clip-path="url(#clip68)"><g clip-path="url(#clip69)"><text font-family="Yu Gothic,Yu Gothic_MSFontService,sans-serif" font-weight="500" font-size="73" transform="matrix(1 0 0 1 4158.77 1379)">今学期に授業を一つ以上受けていますか？</text></g></g></g></svg>