<svg width="2993" height="1107" xmlns="http://www.w3.org/2000/svg" xmlns:xlink="http://www.w3.org/1999/xlink" overflow="hidden"><defs><clipPath id="clip0"><rect x="103" y="813" width="2993" height="1107"/></clipPath><clipPath id="clip1"><rect x="104" y="815" width="2988" height="1102"/></clipPath><clipPath id="clip2"><rect x="745" y="973" width="1799" height="824"/></clipPath><clipPath id="clip3"><rect x="745" y="973" width="1799" height="824"/></clipPath><clipPath id="clip4"><rect x="745" y="973" width="1799" height="824"/></clipPath><clipPath id="clip5"><rect x="745" y="973" width="1799" height="824"/></clipPath><clipPath id="clip6"><rect x="745" y="973" width="1799" height="824"/></clipPath><clipPath id="clip7"><rect x="745" y="973" width="1799" height="824"/></clipPath><clipPath id="clip8"><rect x="745" y="973" width="1799" height="824"/></clipPath><clipPath id="clip9"><rect x="745" y="973" width="1799" height="824"/></clipPath><clipPath id="clip10"><rect x="745" y="973" width="1799" height="824"/></clipPath><clipPath id="clip11"><rect x="104" y="815" width="2988" height="1102"/></clipPath><clipPath id="clip12"><rect x="104" y="815" width="2988" height="1102"/></clipPath><clipPath id="clip13"><rect x="104" y="815" width="2988" height="1102"/></clipPath><clipPath id="clip14"><rect x="104" y="815" width="2988" height="1102"/></clipPath><clipPath id="clip15"><rect x="104" y="815" width="2988" height="1102"/></clipPath><clipPath id="clip16"><rect x="104" y="815" width="2988" height="1102"/></clipPath><clipPath id="clip17"><rect x="104" y="815" width="2988" height="1102"/></clipPath><clipPath id="clip18"><rect x="104" y="815" width="2988" height="1102"/></clipPath><clipPath id="clip19"><rect x="104" y="815" width="2988" height="1102"/></clipPath><clipPath id="clip20"><rect x="104" y="815" width="2988" height="1102"/></clipPath><clipPath id="clip21"><rect x="104" y="815" width="2988" height="1102"/></clipPath><clipPath id="clip22"><rect x="104" y="815" width="2988" height="1102"/></clipPath><clipPath id="clip23"><rect x="104" y="815" width="2988" height="1102"/></clipPath><clipPath id="clip24"><rect x="104" y="815" width="2988" height="1102"/></clipPath><clipPath id="clip25"><rect x="104" y="815" width="2988" height="1102"/></clipPath><clipPath id="clip26"><rect x="104" y="815" width="2988" height="1102"/></clipPath><clipPath id="clip27"><rect x="104" y="815" width="2988" height="1102"/></clipPath><clipPath id="clip28"><rect x="104" y="815" width="2988" height="1102"/></clipPath><clipPath id="clip29"><rect x="104" y="815" width="2988" height="1102"/></clipPath><clipPath id="clip30"><rect x="104" y="815" width="2988" height="1102"/></clipPath><clipPath id="clip31"><rect x="104" y="815" width="2988" height="1102"/></clipPath><clipPath id="clip32"><rect x="104" y="815" width="2988" height="1102"/></clipPath><clipPath id="clip33"><rect x="104" y="815" width="2988" height="1102"/></clipPath><clipPath id="clip34"><rect x="104" y="815" width="2988" height="1102"/></clipPath><clipPath id="clip35"><rect x="104" y="815" width="2988" height="1102"/></clipPath><clipPath id="clip36"><rect x="104" y="815" width="2988" height="1102"/></clipPath><clipPath id="clip37"><rect x="104" y="815" width="2988" height="1102"/></clipPath><clipPath id="clip38"><rect x="104" y="815" width="2988" height="1102"/></clipPath><clipPath id="clip39"><rect x="104" y="815" width="2988" height="1102"/></clipPath><clipPath id="clip40"><rect x="104" y="815" width="2988" height="1102"/></clipPath><clipPath id="clip41"><rect x="104" y="815" width="2988" height="1102"/></clipPath><clipPath id="clip42"><rect x="104" y="815" width="2988" height="1102"/></clipPath><clipPath id="clip43"><rect x="104" y="815" width="2988" height="1102"/></clipPath><clipPath id="clip44"><rect x="104" y="815" width="2988" height="1102"/></clipPath><clipPath id="clip45"><rect x="104" y="815" width="2988" height="1102"/></clipPath><clipPath id="clip46"><rect x="104" y="815" width="2988" height="1102"/></clipPath><clipPath id="clip47"><rect x="104" y="815" width="2988" height="1102"/></clipPath><clipPath id="clip48"><rect x="104" y="815" width="2988" height="1102"/></clipPath><clipPath id="clip49"><rect x="104" y="815" width="2988" height="1102"/></clipPath><clipPath id="clip50"><rect x="104" y="815" width="2988" height="1102"/></clipPath><clipPath id="clip51"><rect x="104" y="815" width="2988" height="1102"/></clipPath><clipPath id="clip52"><rect x="104" y="815" width="2988" height="1102"/></clipPath><clipPath id="clip53"><rect x="104" y="815" width="2988" height="1102"/></clipPath><clipPath id="clip54"><rect x="104" y="815" width="2988" height="1102"/></clipPath><clipPath id="clip55"><rect x="104" y="815" width="2988" height="1102"/></clipPath><clipPath id="clip56"><rect x="104" y="815" width="2988" height="1102"/></clipPath><clipPath id="clip57"><rect x="104" y="815" width="2988" height="1102"/></clipPath><clipPath id="clip58"><rect x="104" y="815" width="2988" height="1102"/></clipPath><clipPath id="clip59"><rect x="104" y="815" width="2988" height="1102"/></clipPath><clipPath id="clip60"><rect x="104" y="815" width="2988" height="1102"/></clipPath><clipPath id="clip61"><rect x="104" y="815" width="2988" height="1102"/></clipPath><clipPath id="clip62"><rect x="-707" y="1653" width="2476" height="138"/></clipPath><clipPath id="clip63"><rect x="104" y="815" width="2988" height="1102"/></clipPath><clipPath id="clip64"><rect x="-707" y="1653" width="2476" height="138"/></clipPath><clipPath id="clip65"><rect x="104" y="815" width="2988" height="1102"/></clipPath><clipPath id="clip66"><rect x="-834" y="1516" width="2699" height="138"/></clipPath><clipPath id="clip67"><rect x="104" y="815" width="2988" height="1102"/></clipPath><clipPath id="clip68"><rect x="-834" y="1516" width="2699" height="138"/></clipPath><clipPath id="clip69"><rect x="104" y="815" width="2988" height="1102"/></clipPath><clipPath id="clip70"><rect x="-1420" y="1379" width="3724" height="138"/></clipPath><clipPath id="clip71"><rect x="104" y="815" width="2988" height="1102"/></clipPath><clipPath id="clip72"><rect x="-1420" y="1379" width="3724" height="138"/></clipPath><clipPath id="clip73"><rect x="104" y="815" width="2988" height="1102"/></clipPath><clipPath id="clip74"><rect x="-1420" y="1379" width="3724" height="138"/></clipPath><clipPath id="clip75"><rect x="104" y="815" width="2988" height="1102"/></clipPath><clipPath id="clip76"><rect x="-1420" y="1379" width="3724" height="138"/></clipPath><clipPath id="clip77"><rect x="104" y="815" width="2988" height="1102"/></clipPath><clipPath id="clip78"><rect x="-962" y="1243" width="2922" height="137"/></clipPath><clipPath id="clip79"><rect x="104" y="815" width="2988" height="1102"/></clipPath><clipPath id="clip80"><rect x="-962" y="1243" width="2922" height="137"/></clipPath><clipPath id="clip81"><rect x="104" y="815" width="2988" height="1102"/></clipPath><clipPath id="clip82"><rect x="-962" y="1243" width="2922" height="137"/></clipPath><clipPath id="clip83"><rect x="104" y="815" width="2988" height="1102"/></clipPath><clipPath id="clip84"><rect x="-962" y="1243" width="2922" height="137"/></clipPath><clipPath id="clip85"><rect x="104" y="815" width="2988" height="1102"/></clipPath><clipPath id="clip86"><rect x="-962" y="1106" width="2922" height="138"/></clipPath><clipPath id="clip87"><rect x="104" y="815" width="2988" height="1102"/></clipPath><clipPath id="clip88"><rect x="-962" y="1106" width="2922" height="138"/></clipPath><clipPath id="clip89"><rect x="104" y="815" width="2988" height="1102"/></clipPath><clipPath id="clip90"><rect x="-962" y="1106" width="2922" height="138"/></clipPath><clipPath id="clip91"><rect x="104" y="815" width="2988" height="1102"/></clipPath><clipPath id="clip92"><rect x="-962" y="1106" width="2922" height="138"/></clipPath><clipPath id="clip93"><rect x="104" y="815" width="2988" height="1102"/></clipPath><clipPath id="clip94"><rect x="-733" y="969" width="2521" height="138"/></clipPath><clipPath id="clip95"><rect x="104" y="815" width="2988" height="1102"/></clipPath><clipPath id="clip96"><rect x="-733" y="969" width="2521" height="138"/></clipPath><clipPath id="clip97"><rect x="104" y="815" width="2988" height="1102"/></clipPath><clipPath id="clip98"><rect x="104" y="815" width="2988" height="1102"/></clipPath><clipPath id="clip99"><rect x="104" y="815" width="2988" height="1102"/></clipPath><clipPath id="clip100"><rect x="104" y="815" width="2988" height="1102"/></clipPath><clipPath id="clip101"><rect x="104" y="815" width="2988" height="1102"/></clipPath><clipPath id="clip102"><rect x="104" y="815" width="2988" height="1102"/></clipPath><clipPath id="clip103"><rect x="104" y="815" width="2988" height="1102"/></clipPath><clipPath id="clip104"><rect x="104" y="815" width="2988" height="1102"/></clipPath><clipPath id="clip105"><rect x="104" y="815" width="2988" height="1102"/></clipPath><clipPath id="clip106"><rect x="104" y="815" width="2988" height="1102"/></clipPath><clipPath id="clip107"><rect x="104" y="815" width="2988" height="1102"/></clipPath><clipPath id="clip108"><rect x="104" y="815" width="2988" height="1102"/></clipPath><clipPath id="clip109"><rect x="104" y="815" width="2988" height="1102"/></clipPath><clipPath id="clip110"><rect x="104" y="815" width="2988" height="1102"/></clipPath><clipPath id="clip111"><rect x="104" y="815" width="2988" height="1102"/></clipPath><clipPath id="clip112"><rect x="104" y="815" width="2988" height="1102"/></clipPath><clipPath id="clip113"><rect x="104" y="815" width="2988" height="1102"/></clipPath><clipPath id="clip114"><rect x="104" y="815" width="2988" height="1102"/></clipPath><clipPath id="clip115"><rect x="104" y="815" width="2988" height="1102"/></clipPath><clipPath id="clip116"><rect x="104" y="815" width="2988" height="1102"/></clipPath><clipPath id="clip117"><rect x="104" y="815" width="2988" height="1102"/></clipPath><clipPath id="clip118"><rect x="104" y="815" width="2988" height="1102"/></clipPath><clipPath id="clip119"><rect x="104" y="815" width="2988" height="1102"/></clipPath><clipPath id="clip120"><rect x="104" y="815" width="2988" height="1102"/></clipPath><clipPath id="clip121"><rect x="104" y="815" width="2988" height="1102"/></clipPath><clipPath id="clip122"><rect x="104" y="815" width="2988" height="1102"/></clipPath><clipPath id="clip123"><rect x="104" y="815" width="2988" height="1102"/></clipPath><clipPath id="clip124"><rect x="104" y="815" width="2988" height="1102"/></clipPath><clipPath id="clip125"><rect x="104" y="815" width="2988" height="1102"/></clipPath><clipPath id="clip126"><rect x="104" y="815" width="2988" height="1102"/></clipPath><clipPath id="clip127"><rect x="104" y="815" width="2988" height="1102"/></clipPath><clipPath id="clip128"><rect x="104" y="815" width="2988" height="1102"/></clipPath><clipPath id="clip129"><rect x="104" y="815" width="2988" height="1102"/></clipPath><clipPath id="clip130"><rect x="104" y="815" width="2988" height="1102"/></clipPath><clipPath id="clip131"><rect x="104" y="815" width="2988" height="1102"/></clipPath><clipPath id="clip132"><rect x="104" y="815" width="2988" height="1102"/></clipPath><clipPath id="clip133"><rect x="104" y="815" width="2989" height="1103"/></clipPath><clipPath id="clip134"><rect x="-7909" y="822" width="18836" height="349"/></clipPath><clipPath id="clip135"><rect x="104" y="815" width="2989" height="1103"/></clipPath><clipPath id="clip136"><rect x="-7909" y="822" width="18836" height="349"/></clipPath><clipPath id="clip137"><rect x="104" y="815" width="2989" height="1103"/></clipPath><clipPath id="clip138"><rect x="-7909" y="822" width="18836" height="349"/></clipPath><clipPath id="clip139"><rect x="104" y="815" width="2989" height="1103"/></clipPath><clipPath id="clip140"><rect x="-7909" y="822" width="18836" height="349"/></clipPath><clipPath id="clip141"><rect x="104" y="815" width="2989" height="1103"/></clipPath><clipPath id="clip142"><rect x="-7909" y="822" width="18836" height="349"/></clipPath><clipPath id="clip143"><rect x="104" y="815" width="2989" height="1103"/></clipPath><clipPath id="clip144"><rect x="104" y="815" width="2989" height="1103"/></clipPath></defs><g clip-path="url(#clip0)" transform="translate(-103 -813)"><rect x="105" y="815" width="2988" height="1102" fill="#FFFFFF"/><g clip-path="url(#clip1)"><path d="M1194.54 973.5 1194.54 1794.5M1642.55 973.5 1642.55 1794.5M2091.57 973.5 2091.57 1794.5M2540.5 973.5 2540.5 1794.5" stroke="#D9D9D9" stroke-width="4.58333" stroke-linejoin="round" stroke-miterlimit="10" fill="none"/></g><g clip-path="url(#clip2)"><path d="M947.5 1086.5 745.5 1086.5 745.5 997.5 947.5 997.5Z" stroke="#000000" stroke-width="4.58333" stroke-linejoin="round" stroke-miterlimit="10" fill="#FFFFFF"/></g><g clip-path="url(#clip3)"><path d="M984.532 1770.56 745.5 1770.56 745.5 1681.56 984.532 1681.56ZM1154.54 1633.55 745.5 1633.55 745.5 1544.55 1154.54 1544.55ZM856.528 1497.55 745.5 1497.55 745.5 1407.55 856.528 1407.55ZM750.525 1360.54 745.5 1360.54 745.5 1270.54 750.525 1270.54Z" stroke="#000000" stroke-width="4.58333" stroke-linejoin="round" stroke-miterlimit="10" fill="#FFFFFF"/></g><g clip-path="url(#clip4)"><path d="M1397.5 1086.5 947.5 1086.5 947.5 997.5 1397.5 997.5Z" stroke="#000000" stroke-width="4.58333" stroke-linejoin="round" stroke-miterlimit="10" fill="#F1F8FD"/></g><g clip-path="url(#clip5)"><path d="M1762.56 1770.56 984.532 1770.56 984.532 1681.56 1762.56 1681.56ZM1967.56 1633.55 1154.54 1633.55 1154.54 1544.55 1967.56 1544.55ZM1233.54 1497.55 856.528 1497.55 856.528 1407.55 1233.54 1407.55ZM780.526 1360.54 750.525 1360.54 750.525 1270.54 780.526 1270.54ZM751.525 1223.54 745.5 1223.54 745.5 1133.54 751.525 1133.54Z" stroke="#000000" stroke-width="4.58333" stroke-linejoin="round" stroke-miterlimit="10" fill="#F1F8FD"/></g><g clip-path="url(#clip6)"><path d="M2181.57 1770.56 1762.56 1770.56 1762.56 1681.56 2181.57 1681.56ZM2331.58 1633.55 1967.56 1633.55 1967.56 1544.55 2331.58 1544.55ZM1587.55 1497.55 1233.54 1497.55 1233.54 1407.55 1587.55 1407.55ZM897.53 1360.54 780.526 1360.54 780.526 1270.54 897.53 1270.54ZM799.526 1223.54 751.525 1223.54 751.525 1133.54 799.526 1133.54ZM1671.56 1086.54 1397.55 1086.54 1397.55 997.533 1671.56 997.533Z" stroke="#000000" stroke-width="4.58333" stroke-linejoin="round" stroke-miterlimit="10" fill="#C2DDF6"/></g><g clip-path="url(#clip7)"><path d="M2301.58 1770.56 2181.57 1770.56 2181.57 1681.56 2301.58 1681.56ZM2478.58 1633.55 2331.58 1633.55 2331.58 1544.55 2478.58 1544.55ZM1980.57 1497.55 1587.55 1497.55 1587.55 1407.55 1980.57 1407.55ZM1255.54 1360.54 897.53 1360.54 897.53 1270.54 1255.54 1270.54ZM1055.53 1223.54 799.526 1223.54 799.526 1133.54 1055.53 1133.54ZM1931.56 1086.54 1671.56 1086.54 1671.56 997.533 1931.56 997.533Z" stroke="#000000" stroke-width="4.58333" stroke-linejoin="round" stroke-miterlimit="10" fill="#9ECBF0"/></g><g clip-path="url(#clip8)"><path d="M2421.58 1770.56 2301.58 1770.56 2301.58 1681.56 2421.58 1681.56ZM2507.58 1633.55 2478.58 1633.55 2478.58 1544.55 2507.58 1544.55ZM2342.58 1497.55 1980.57 1497.55 1980.57 1407.55 2342.58 1407.55ZM1836.56 1360.54 1255.54 1360.54 1255.54 1270.54 1836.56 1270.54ZM1818.56 1223.54 1055.53 1223.54 1055.53 1133.54 1818.56 1133.54ZM2248.57 1086.54 1931.56 1086.54 1931.56 997.533 2248.57 997.533Z" stroke="#000000" stroke-width="4.58333" stroke-linejoin="round" stroke-miterlimit="10" fill="#70B3EA"/></g><g clip-path="url(#clip9)"><path d="M2519.58 1633.55 2507.58 1633.55 2507.58 1544.55 2519.58 1544.55ZM2453.58 1497.55 2342.58 1497.55 2342.58 1407.55 2453.58 1407.55ZM2247.57 1360.54 1836.56 1360.54 1836.56 1270.54 2247.57 1270.54ZM2399.58 1223.54 1818.56 1223.54 1818.56 1133.54 2399.58 1133.54ZM2437.58 1086.54 2248.57 1086.54 2248.57 997.533 2437.58 997.533Z" stroke="#000000" stroke-width="4.58333" stroke-linejoin="round" stroke-miterlimit="10" fill="#3694E2"/></g><g clip-path="url(#clip10)"><path d="M2540.58 1770.56 2421.58 1770.56 2421.58 1681.56 2540.58 1681.56ZM2540.58 1633.55 2519.58 1633.55 2519.58 1544.55 2540.58 1544.55ZM2540.58 1497.55 2453.58 1497.55 2453.58 1407.55 2540.58 1407.55ZM2540.58 1360.54 2247.57 1360.54 2247.57 1270.54 2540.58 1270.54ZM2540.58 1223.54 2399.58 1223.54 2399.58 1133.54 2540.58 1133.54ZM2540.58 1086.54 2437.58 1086.54 2437.58 997.533 2540.58 997.533Z" stroke="#095085" stroke-width="4.58333" stroke-linejoin="round" stroke-miterlimit="10" fill="#095085"/></g><g clip-path="url(#clip11)"><path d="M0 0 0.000360892 821" stroke="#D9D9D9" stroke-width="3.4375" stroke-linejoin="round" stroke-miterlimit="10" fill="none" fill-rule="evenodd" transform="matrix(1 0 0 -1 745.5 1794.5)"/></g><g clip-path="url(#clip12)"><text fill="#404040" font-family="Yu Gothic,Yu Gothic_MSFontService,sans-serif" font-weight="700" font-size="55" transform="matrix(1 0 0 1 849.053 1745)">4</text></g><g clip-path="url(#clip13)"><text fill="#404040" font-family="Yu Gothic,Yu Gothic_MSFontService,sans-serif" font-weight="700" font-size="55" transform="matrix(1 0 0 1 902.689 1608)">170</text></g><g clip-path="url(#clip14)"><text fill="#404040" font-family="Yu Gothic,Yu Gothic_MSFontService,sans-serif" font-weight="700" font-size="55" transform="matrix(1 0 0 1 769.187 1471)">28</text></g><g clip-path="url(#clip15)"><text fill="#404040" font-family="Yu Gothic,Yu Gothic_MSFontService,sans-serif" font-weight="700" font-size="55" transform="matrix(1 0 0 1 723.096 1263)">1</text></g><g clip-path="url(#clip16)"><text fill="#404040" font-family="Yu Gothic,Yu Gothic_MSFontService,sans-serif" font-weight="700" font-size="55" transform="matrix(1 0 0 1 729.332 1198)">0</text></g><g clip-path="url(#clip17)"><text fill="#404040" font-family="Yu Gothic,Yu Gothic_MSFontService,sans-serif" font-weight="700" font-size="55" transform="matrix(1 0 0 1 799.118 1061)">203</text></g><g clip-path="url(#clip18)"><path d="M748.5 1134.5 762.525 1111.5 782.5 1111.5" stroke="#A6A6A6" stroke-width="3.4375" stroke-linejoin="round" stroke-miterlimit="10" fill="none"/></g><g clip-path="url(#clip19)"><text fill="#404040" font-family="Yu Gothic,Yu Gothic_MSFontService,sans-serif" font-weight="700" font-size="55" transform="matrix(1 0 0 1 1342.1 1745)">13</text></g><g clip-path="url(#clip20)"><text fill="#404040" font-family="Yu Gothic,Yu Gothic_MSFontService,sans-serif" font-weight="700" font-size="55" transform="matrix(1 0 0 1 1513.75 1608)">337</text></g><g clip-path="url(#clip21)"><text fill="#404040" font-family="Yu Gothic,Yu Gothic_MSFontService,sans-serif" font-weight="700" font-size="55" transform="matrix(1 0 0 1 1013.53 1471)">95</text></g><g clip-path="url(#clip22)"><text fill="#404040" font-family="Yu Gothic,Yu Gothic_MSFontService,sans-serif" font-weight="700" font-size="55" transform="matrix(1 0 0 1 749.872 1335)">5</text></g><g clip-path="url(#clip23)"><text fill="#404040" font-family="Yu Gothic,Yu Gothic_MSFontService,sans-serif" font-weight="700" font-size="55" transform="matrix(1 0 0 1 796.598 1131)">1</text></g><g clip-path="url(#clip24)"><text fill="#404040" font-family="Yu Gothic,Yu Gothic_MSFontService,sans-serif" font-weight="700" font-size="55" transform="matrix(1 0 0 1 1125.54 1061)">451</text></g><g clip-path="url(#clip25)"><text fill="#404040" font-family="Yu Gothic,Yu Gothic_MSFontService,sans-serif" font-weight="700" font-size="55" transform="matrix(1 0 0 1 1956.47 1745)">7</text></g><g clip-path="url(#clip26)"><text fill="#404040" font-family="Yu Gothic,Yu Gothic_MSFontService,sans-serif" font-weight="700" font-size="55" transform="matrix(1 0 0 1 2101.9 1608)">151</text></g><g clip-path="url(#clip27)"><text fill="#404040" font-family="Yu Gothic,Yu Gothic_MSFontService,sans-serif" font-weight="700" font-size="55" transform="matrix(1 0 0 1 1379.05 1471)">89</text></g><g clip-path="url(#clip28)"><text fill="#404040" font-family="Yu Gothic,Yu Gothic_MSFontService,sans-serif" font-weight="700" font-size="55" transform="matrix(1 0 0 1 807.464 1335)">20</text></g><g clip-path="url(#clip29)"><text fill="#404040" font-family="Yu Gothic,Yu Gothic_MSFontService,sans-serif" font-weight="700" font-size="55" transform="matrix(1 0 0 1 759.712 1198)">7</text></g><g clip-path="url(#clip30)"><text fill="#404040" font-family="Yu Gothic,Yu Gothic_MSFontService,sans-serif" font-weight="700" font-size="55" transform="matrix(1 0 0 1 1487.4 1061)">274</text></g><g clip-path="url(#clip31)"><text fill="#404040" font-family="Yu Gothic,Yu Gothic_MSFontService,sans-serif" font-weight="700" font-size="55" transform="matrix(1 0 0 1 2225.84 1745)">2</text></g><g clip-path="url(#clip32)"><text fill="#404040" font-family="Yu Gothic,Yu Gothic_MSFontService,sans-serif" font-weight="700" font-size="55" transform="matrix(1 0 0 1 2373.18 1608)">61</text></g><g clip-path="url(#clip33)"><text fill="#404040" font-family="Yu Gothic,Yu Gothic_MSFontService,sans-serif" font-weight="700" font-size="55" transform="matrix(1 0 0 1 1752.51 1471)">99</text></g><g clip-path="url(#clip34)"><text fill="#404040" font-family="Yu Gothic,Yu Gothic_MSFontService,sans-serif" font-weight="700" font-size="55" transform="matrix(1 0 0 1 1045.14 1335)">61</text></g><g clip-path="url(#clip35)"><text fill="#404040" font-family="Yu Gothic,Yu Gothic_MSFontService,sans-serif" font-weight="700" font-size="55" transform="matrix(1 0 0 1 895.847 1198)">38</text></g><g clip-path="url(#clip36)"><text fill="#404040" font-family="Yu Gothic,Yu Gothic_MSFontService,sans-serif" font-weight="700" font-size="55" transform="matrix(1 0 0 1 1754.42 1061)">261</text></g><g clip-path="url(#clip37)"><path d="M2492.5 1544.5 2475.58 1522.5 2455.5 1522.5" stroke="#A6A6A6" stroke-width="3.4375" stroke-linejoin="round" stroke-miterlimit="10" fill="none"/></g><g clip-path="url(#clip38)"><text fill="#404040" font-family="Yu Gothic,Yu Gothic_MSFontService,sans-serif" font-weight="700" font-size="55" transform="matrix(1 0 0 1 2345.56 1745)">2</text></g><g clip-path="url(#clip39)"><text fill="#404040" font-family="Yu Gothic,Yu Gothic_MSFontService,sans-serif" font-weight="700" font-size="55" transform="matrix(1 0 0 1 2378.63 1541)">12</text></g><g clip-path="url(#clip40)"><text fill="#404040" font-family="Yu Gothic,Yu Gothic_MSFontService,sans-serif" font-weight="700" font-size="55" transform="matrix(1 0 0 1 2129.95 1471)">91</text></g><g clip-path="url(#clip41)"><text fill="#404040" font-family="Yu Gothic,Yu Gothic_MSFontService,sans-serif" font-weight="700" font-size="55" transform="matrix(1 0 0 1 1514.64 1335)">99</text></g><g clip-path="url(#clip42)"><text fill="#404040" font-family="Yu Gothic,Yu Gothic_MSFontService,sans-serif" font-weight="700" font-size="55" transform="matrix(1 0 0 1 1389.79 1198)">113</text></g><g clip-path="url(#clip43)"><text fill="#404040" font-family="Yu Gothic,Yu Gothic_MSFontService,sans-serif" font-weight="700" font-size="55" transform="matrix(1 0 0 1 2042.91 1061)">317</text></g><g clip-path="url(#clip44)"><text fill="#404040" font-family="Yu Gothic,Yu Gothic_MSFontService,sans-serif" font-weight="700" font-size="55" transform="matrix(1 0 0 1 2405.42 1681)">0</text></g><g clip-path="url(#clip45)"><text fill="#404040" font-family="Yu Gothic,Yu Gothic_MSFontService,sans-serif" font-weight="700" font-size="55" transform="matrix(1 0 0 1 2492.84 1541)">5</text></g><g clip-path="url(#clip46)"><text fill="#404040" font-family="Yu Gothic,Yu Gothic_MSFontService,sans-serif" font-weight="700" font-size="55" transform="matrix(1 0 0 1 2366.35 1471)">28</text></g><g clip-path="url(#clip47)"><text fill="#404040" font-family="Yu Gothic,Yu Gothic_MSFontService,sans-serif" font-weight="700" font-size="55" transform="matrix(1 0 0 1 2010.54 1335)">70</text></g><g clip-path="url(#clip48)"><text fill="#404040" font-family="Yu Gothic,Yu Gothic_MSFontService,sans-serif" font-weight="700" font-size="55" transform="matrix(1 0 0 1 2077.3 1198)">86</text></g><g clip-path="url(#clip49)"><text fill="#404040" font-family="Yu Gothic,Yu Gothic_MSFontService,sans-serif" font-weight="700" font-size="55" transform="matrix(1 0 0 1 2295.46 1061)">189</text></g><g clip-path="url(#clip50)"><text fill="#FFFFFF" font-family="Yu Gothic,Yu Gothic_MSFontService,sans-serif" font-weight="700" font-size="55" transform="matrix(1 0 0 1 2465.28 1745)">2</text></g><g clip-path="url(#clip51)"><text fill="#FFFFFF" font-family="Yu Gothic,Yu Gothic_MSFontService,sans-serif" font-weight="700" font-size="55" transform="matrix(1 0 0 1 2514.29 1608)">9</text></g><g clip-path="url(#clip52)"><text fill="#FFFFFF" font-family="Yu Gothic,Yu Gothic_MSFontService,sans-serif" font-weight="700" font-size="55" transform="matrix(1 0 0 1 2465.67 1471)">22</text></g><g clip-path="url(#clip53)"><text fill="#FFFFFF" font-family="Yu Gothic,Yu Gothic_MSFontService,sans-serif" font-weight="700" font-size="55" transform="matrix(1 0 0 1 2362.66 1335)">50</text></g><g clip-path="url(#clip54)"><text fill="#FFFFFF" font-family="Yu Gothic,Yu Gothic_MSFontService,sans-serif" font-weight="700" font-size="55" transform="matrix(1 0 0 1 2438.49 1198)">21</text></g><g clip-path="url(#clip55)"><text fill="#FFFFFF" font-family="Yu Gothic,Yu Gothic_MSFontService,sans-serif" font-weight="700" font-size="55" transform="matrix(1 0 0 1 2441.7 1061)">104</text></g><g clip-path="url(#clip56)"><text fill="#595959" font-family="Yu Gothic,Yu Gothic_MSFontService,sans-serif" font-weight="500" font-size="60" transform="matrix(1 0 0 1 704.605 1893)">0%</text></g><g clip-path="url(#clip57)"><text fill="#595959" font-family="Yu Gothic,Yu Gothic_MSFontService,sans-serif" font-weight="500" font-size="60" transform="matrix(1 0 0 1 1137.02 1893)">25%</text></g><g clip-path="url(#clip58)"><text fill="#595959" font-family="Yu Gothic,Yu Gothic_MSFontService,sans-serif" font-weight="500" font-size="60" transform="matrix(1 0 0 1 1585.98 1893)">50%</text></g><g clip-path="url(#clip59)"><text fill="#595959" font-family="Yu Gothic,Yu Gothic_MSFontService,sans-serif" font-weight="500" font-size="60" transform="matrix(1 0 0 1 2034.93 1893)">75%</text></g><g clip-path="url(#clip60)"><text fill="#595959" font-family="Yu Gothic,Yu Gothic_MSFontService,sans-serif" font-weight="500" font-size="60" transform="matrix(1 0 0 1 2467.35 1893)">100%</text></g><g clip-path="url(#clip61)"><g clip-path="url(#clip62)"><text fill="#595959" font-family="Yu Gothic,Yu Gothic_MSFontService,sans-serif" font-weight="500" font-size="57" transform="matrix(1 0 0 1 354.121 1742)">その他</text></g></g><g clip-path="url(#clip63)"><g clip-path="url(#clip64)"><text fill="#595959" font-family="Yu Gothic,Yu Gothic_MSFontService,sans-serif" font-weight="500" font-size="57" transform="matrix(1 0 0 1 525.996 1742)">(n=30)</text></g></g><g clip-path="url(#clip65)"><g clip-path="url(#clip66)"><text fill="#595959" font-family="Yu Gothic,Yu Gothic_MSFontService,sans-serif" font-weight="500" font-size="57" transform="matrix(1 0 0 1 322.313 1605)">大学院</text></g></g><g clip-path="url(#clip67)"><g clip-path="url(#clip68)"><text fill="#595959" font-family="Yu Gothic,Yu Gothic_MSFontService,sans-serif" font-weight="500" font-size="57" transform="matrix(1 0 0 1 494.188 1605)">(n=745)</text></g></g><g clip-path="url(#clip69)"><g clip-path="url(#clip70)"><text fill="#595959" font-family="Yu Gothic,Yu Gothic_MSFontService,sans-serif" font-weight="500" font-size="57" transform="matrix(1 0 0 1 175.922 1468)">学部</text></g></g><g clip-path="url(#clip71)"><g clip-path="url(#clip72)"><text fill="#595959" font-family="Yu Gothic,Yu Gothic_MSFontService,sans-serif" font-weight="500" font-size="57" transform="matrix(1 0 0 1 290.505 1468)">3</text></g></g><g clip-path="url(#clip73)"><g clip-path="url(#clip74)"><text fill="#595959" font-family="Yu Gothic,Yu Gothic_MSFontService,sans-serif" font-weight="500" font-size="57" transform="matrix(1 0 0 1 322.313 1468)">年以上</text></g></g><g clip-path="url(#clip75)"><g clip-path="url(#clip76)"><text fill="#595959" font-family="Yu Gothic,Yu Gothic_MSFontService,sans-serif" font-weight="500" font-size="57" transform="matrix(1 0 0 1 494.188 1468)">(n=452)</text></g></g><g clip-path="url(#clip77)"><g clip-path="url(#clip78)"><text fill="#595959" font-family="Yu Gothic,Yu Gothic_MSFontService,sans-serif" font-weight="500" font-size="57" transform="matrix(1 0 0 1 290.505 1332)">学部</text></g></g><g clip-path="url(#clip79)"><g clip-path="url(#clip80)"><text fill="#595959" font-family="Yu Gothic,Yu Gothic_MSFontService,sans-serif" font-weight="500" font-size="57" transform="matrix(1 0 0 1 405.088 1332)">2</text></g></g><g clip-path="url(#clip81)"><g clip-path="url(#clip82)"><text fill="#595959" font-family="Yu Gothic,Yu Gothic_MSFontService,sans-serif" font-weight="500" font-size="57" transform="matrix(1 0 0 1 436.896 1332)">年</text></g></g><g clip-path="url(#clip83)"><g clip-path="url(#clip84)"><text fill="#595959" font-family="Yu Gothic,Yu Gothic_MSFontService,sans-serif" font-weight="500" font-size="57" transform="matrix(1 0 0 1 494.188 1332)">(n=306)</text></g></g><g clip-path="url(#clip85)"><g clip-path="url(#clip86)"><text fill="#595959" font-family="Yu Gothic,Yu Gothic_MSFontService,sans-serif" font-weight="500" font-size="57" transform="matrix(1 0 0 1 290.505 1195)">学部</text></g></g><g clip-path="url(#clip87)"><g clip-path="url(#clip88)"><text fill="#595959" font-family="Yu Gothic,Yu Gothic_MSFontService,sans-serif" font-weight="500" font-size="57" transform="matrix(1 0 0 1 405.088 1195)">1</text></g></g><g clip-path="url(#clip89)"><g clip-path="url(#clip90)"><text fill="#595959" font-family="Yu Gothic,Yu Gothic_MSFontService,sans-serif" font-weight="500" font-size="57" transform="matrix(1 0 0 1 436.896 1195)">年</text></g></g><g clip-path="url(#clip91)"><g clip-path="url(#clip92)"><text fill="#595959" font-family="Yu Gothic,Yu Gothic_MSFontService,sans-serif" font-weight="500" font-size="57" transform="matrix(1 0 0 1 494.188 1195)">(n=266)</text></g></g><g clip-path="url(#clip93)"><g clip-path="url(#clip94)"><text fill="#595959" font-family="Yu Gothic,Yu Gothic_MSFontService,sans-serif" font-weight="500" font-size="57" transform="matrix(1 0 0 1 347.797 1058)">全体</text></g></g><g clip-path="url(#clip95)"><g clip-path="url(#clip96)"><text fill="#595959" font-family="Yu Gothic,Yu Gothic_MSFontService,sans-serif" font-weight="500" font-size="57" transform="matrix(1 0 0 1 462.38 1058)">(n=1799)</text></g></g><g clip-path="url(#clip97)"><rect x="2638.5" y="1126.5" width="32" height="32" stroke="#000000" stroke-width="4.58333" stroke-linejoin="round" stroke-miterlimit="10" fill="#FFFFFF"/></g><g clip-path="url(#clip98)"><text fill="#595959" font-family="Yu Gothic,Yu Gothic_MSFontService,sans-serif" font-weight="500" font-size="55" transform="matrix(1 0 0 1 2715.59 1157)">1</text></g><g clip-path="url(#clip99)"><text fill="#595959" font-family="Yu Gothic,Yu Gothic_MSFontService,sans-serif" font-weight="500" font-size="55" transform="matrix(1 0 0 1 2746.11 1157)">未満</text></g><g clip-path="url(#clip100)"><rect x="2638.5" y="1223.5" width="32" height="32" stroke="#000000" stroke-width="4.58333" stroke-linejoin="round" stroke-miterlimit="10" fill="#F1F8FD"/></g><g clip-path="url(#clip101)"><text fill="#595959" font-family="Yu Gothic,Yu Gothic_MSFontService,sans-serif" font-weight="500" font-size="55" transform="matrix(1 0 0 1 2715.59 1255)">1</text></g><g clip-path="url(#clip102)"><text fill="#595959" font-family="Yu Gothic,Yu Gothic_MSFontService,sans-serif" font-weight="500" font-size="55" transform="matrix(1 0 0 1 2746.11 1255)">以上</text></g><g clip-path="url(#clip103)"><text fill="#595959" font-family="Yu Gothic,Yu Gothic_MSFontService,sans-serif" font-weight="500" font-size="55" transform="matrix(1 0 0 1 2856.11 1255)">-</text></g><g clip-path="url(#clip104)"><text fill="#595959" font-family="Yu Gothic,Yu Gothic_MSFontService,sans-serif" font-weight="500" font-size="55" transform="matrix(1 0 0 1 2911.02 1255)">3</text></g><g clip-path="url(#clip105)"><text fill="#595959" font-family="Yu Gothic,Yu Gothic_MSFontService,sans-serif" font-weight="500" font-size="55" transform="matrix(1 0 0 1 2941.54 1255)">未満</text></g><g clip-path="url(#clip106)"><rect x="2638.5" y="1321.5" width="32" height="32" stroke="#000000" stroke-width="4.58333" stroke-linejoin="round" stroke-miterlimit="10" fill="#C2DDF6"/></g><g clip-path="url(#clip107)"><text fill="#595959" font-family="Yu Gothic,Yu Gothic_MSFontService,sans-serif" font-weight="500" font-size="55" transform="matrix(1 0 0 1 2715.59 1353)">3</text></g><g clip-path="url(#clip108)"><text fill="#595959" font-family="Yu Gothic,Yu Gothic_MSFontService,sans-serif" font-weight="500" font-size="55" transform="matrix(1 0 0 1 2746.11 1353)">以上</text></g><g clip-path="url(#clip109)"><text fill="#595959" font-family="Yu Gothic,Yu Gothic_MSFontService,sans-serif" font-weight="500" font-size="55" transform="matrix(1 0 0 1 2856.11 1353)">-</text></g><g clip-path="url(#clip110)"><text fill="#595959" font-family="Yu Gothic,Yu Gothic_MSFontService,sans-serif" font-weight="500" font-size="55" transform="matrix(1 0 0 1 2911.02 1353)">6</text></g><g clip-path="url(#clip111)"><text fill="#595959" font-family="Yu Gothic,Yu Gothic_MSFontService,sans-serif" font-weight="500" font-size="55" transform="matrix(1 0 0 1 2941.54 1353)">未満</text></g><g clip-path="url(#clip112)"><rect x="2638.5" y="1419.5" width="32" height="32.0004" stroke="#000000" stroke-width="4.58333" stroke-linejoin="round" stroke-miterlimit="10" fill="#9ECBF0"/></g><g clip-path="url(#clip113)"><text fill="#595959" font-family="Yu Gothic,Yu Gothic_MSFontService,sans-serif" font-weight="500" font-size="55" transform="matrix(1 0 0 1 2715.59 1450)">6</text></g><g clip-path="url(#clip114)"><text fill="#595959" font-family="Yu Gothic,Yu Gothic_MSFontService,sans-serif" font-weight="500" font-size="55" transform="matrix(1 0 0 1 2746.11 1450)">以上</text></g><g clip-path="url(#clip115)"><text fill="#595959" font-family="Yu Gothic,Yu Gothic_MSFontService,sans-serif" font-weight="500" font-size="55" transform="matrix(1 0 0 1 2856.11 1450)">-</text></g><g clip-path="url(#clip116)"><text fill="#595959" font-family="Yu Gothic,Yu Gothic_MSFontService,sans-serif" font-weight="500" font-size="55" transform="matrix(1 0 0 1 2911.02 1450)">9</text></g><g clip-path="url(#clip117)"><text fill="#595959" font-family="Yu Gothic,Yu Gothic_MSFontService,sans-serif" font-weight="500" font-size="55" transform="matrix(1 0 0 1 2941.54 1450)">未満</text></g><g clip-path="url(#clip118)"><rect x="2638.5" y="1516.5" width="32" height="32" stroke="#000000" stroke-width="4.58333" stroke-linejoin="round" stroke-miterlimit="10" fill="#70B3EA"/></g><g clip-path="url(#clip119)"><text fill="#595959" font-family="Yu Gothic,Yu Gothic_MSFontService,sans-serif" font-weight="500" font-size="55" transform="matrix(1 0 0 1 2715.59 1548)">9</text></g><g clip-path="url(#clip120)"><text fill="#595959" font-family="Yu Gothic,Yu Gothic_MSFontService,sans-serif" font-weight="500" font-size="55" transform="matrix(1 0 0 1 2746.11 1548)">以上</text></g><g clip-path="url(#clip121)"><text fill="#595959" font-family="Yu Gothic,Yu Gothic_MSFontService,sans-serif" font-weight="500" font-size="55" transform="matrix(1 0 0 1 2856.11 1548)">-</text></g><g clip-path="url(#clip122)"><text fill="#595959" font-family="Yu Gothic,Yu Gothic_MSFontService,sans-serif" font-weight="500" font-size="55" transform="matrix(1 0 0 1 2879.67 1548)">12</text></g><g clip-path="url(#clip123)"><text fill="#595959" font-family="Yu Gothic,Yu Gothic_MSFontService,sans-serif" font-weight="500" font-size="55" transform="matrix(1 0 0 1 2940.72 1548)">未満</text></g><g clip-path="url(#clip124)"><rect x="2638.5" y="1614.5" width="32" height="32" stroke="#000000" stroke-width="4.58333" stroke-linejoin="round" stroke-miterlimit="10" fill="#3694E2"/></g><g clip-path="url(#clip125)"><text fill="#595959" font-family="Yu Gothic,Yu Gothic_MSFontService,sans-serif" font-weight="500" font-size="55" transform="matrix(1 0 0 1 2684.24 1645)">12</text></g><g clip-path="url(#clip126)"><text fill="#595959" font-family="Yu Gothic,Yu Gothic_MSFontService,sans-serif" font-weight="500" font-size="55" transform="matrix(1 0 0 1 2745.29 1645)">以上</text></g><g clip-path="url(#clip127)"><text fill="#595959" font-family="Yu Gothic,Yu Gothic_MSFontService,sans-serif" font-weight="500" font-size="55" transform="matrix(1 0 0 1 2855.29 1645)">-</text></g><g clip-path="url(#clip128)"><text fill="#595959" font-family="Yu Gothic,Yu Gothic_MSFontService,sans-serif" font-weight="500" font-size="55" transform="matrix(1 0 0 1 2878.84 1645)">15</text></g><g clip-path="url(#clip129)"><text fill="#595959" font-family="Yu Gothic,Yu Gothic_MSFontService,sans-serif" font-weight="500" font-size="55" transform="matrix(1 0 0 1 2939.89 1645)">未満</text></g><g clip-path="url(#clip130)"><rect x="2638.5" y="1712.5" width="32" height="30.9999" stroke="#095085" stroke-width="4.58333" stroke-linejoin="round" stroke-miterlimit="10" fill="#095085"/></g><g clip-path="url(#clip131)"><text fill="#595959" font-family="Yu Gothic,Yu Gothic_MSFontService,sans-serif" font-weight="500" font-size="55" transform="matrix(1 0 0 1 2684.24 1743)">15</text></g><g clip-path="url(#clip132)"><text fill="#595959" font-family="Yu Gothic,Yu Gothic_MSFontService,sans-serif" font-weight="500" font-size="55" transform="matrix(1 0 0 1 2745.29 1743)">以上</text></g><rect x="105.5" y="815.5" width="2988" height="1102" stroke="#000000" stroke-width="4.58333" stroke-linejoin="round" stroke-miterlimit="10" fill="none"/><g clip-path="url(#clip133)"><g clip-path="url(#clip134)"><text font-family="Yu Gothic,Yu Gothic_MSFontService,sans-serif" font-weight="500" font-size="73" transform="matrix(1 0 0 1 163.582 926)">【授業形式】</text></g></g><g clip-path="url(#clip135)"><g clip-path="url(#clip136)"><text font-family="Yu Gothic,Yu Gothic_MSFontService,sans-serif" font-weight="500" font-size="73" transform="matrix(1 0 0 1 603.582 926)">2. </text></g></g><g clip-path="url(#clip137)"><g clip-path="url(#clip138)"><text font-family="Yu Gothic,Yu Gothic_MSFontService,sans-serif" font-weight="500" font-size="73" transform="matrix(1 0 0 1 684.203 926)">ライブの</text></g></g><g clip-path="url(#clip139)"><g clip-path="url(#clip140)"><text font-family="Yu Gothic,Yu Gothic_MSFontService,sans-serif" font-weight="500" font-size="73" transform="matrix(1 0 0 1 977.537 926)">Zoom</text></g></g><g clip-path="url(#clip141)"><g clip-path="url(#clip142)"><text font-family="Yu Gothic,Yu Gothic_MSFontService,sans-serif" font-weight="500" font-size="73" transform="matrix(1 0 0 1 1167.54 926)">などによるオンライン方式（教員による講義中心）</text></g></g><g clip-path="url(#clip143)"><text font-family="Yu Gothic,Yu Gothic_MSFontService,sans-serif" font-weight="400" font-size="55" transform="matrix(1 0 0 1 2695.06 1057)">平均コマ数</text></g><g clip-path="url(#clip144)"><path d="M2695.46 1062.71 2764.21 1062.71 2832.96 1062.71 2901.71 1062.71 2970.46 1062.71 2970.46 1065.71 2901.71 1065.71 2832.96 1065.71 2764.21 1065.71 2695.46 1065.71Z" fill-rule="evenodd"/></g></g></svg>