<svg width="2993" height="1289" xmlns="http://www.w3.org/2000/svg" xmlns:xlink="http://www.w3.org/1999/xlink" overflow="hidden"><defs><clipPath id="clip0"><rect x="143" y="704" width="2993" height="1289"/></clipPath><clipPath id="clip1"><rect x="145" y="706" width="2988" height="1283"/></clipPath><clipPath id="clip2"><rect x="785" y="992" width="1799" height="858"/></clipPath><clipPath id="clip3"><rect x="785" y="992" width="1799" height="858"/></clipPath><clipPath id="clip4"><rect x="785" y="992" width="1799" height="858"/></clipPath><clipPath id="clip5"><rect x="785" y="992" width="1799" height="858"/></clipPath><clipPath id="clip6"><rect x="785" y="992" width="1799" height="858"/></clipPath><clipPath id="clip7"><rect x="785" y="992" width="1799" height="858"/></clipPath><clipPath id="clip8"><rect x="145" y="706" width="2988" height="1283"/></clipPath><clipPath id="clip9"><rect x="145" y="706" width="2988" height="1283"/></clipPath><clipPath id="clip10"><rect x="145" y="706" width="2988" height="1283"/></clipPath><clipPath id="clip11"><rect x="145" y="706" width="2988" height="1283"/></clipPath><clipPath id="clip12"><rect x="145" y="706" width="2988" height="1283"/></clipPath><clipPath id="clip13"><rect x="145" y="706" width="2988" height="1283"/></clipPath><clipPath id="clip14"><rect x="145" y="706" width="2988" height="1283"/></clipPath><clipPath id="clip15"><rect x="145" y="706" width="2988" height="1283"/></clipPath><clipPath id="clip16"><rect x="145" y="706" width="2988" height="1283"/></clipPath><clipPath id="clip17"><rect x="145" y="706" width="2988" height="1283"/></clipPath><clipPath id="clip18"><rect x="145" y="706" width="2988" height="1283"/></clipPath><clipPath id="clip19"><rect x="145" y="706" width="2988" height="1283"/></clipPath><clipPath id="clip20"><rect x="145" y="706" width="2988" height="1283"/></clipPath><clipPath id="clip21"><rect x="145" y="706" width="2988" height="1283"/></clipPath><clipPath id="clip22"><rect x="145" y="706" width="2988" height="1283"/></clipPath><clipPath id="clip23"><rect x="145" y="706" width="2988" height="1283"/></clipPath><clipPath id="clip24"><rect x="145" y="706" width="2988" height="1283"/></clipPath><clipPath id="clip25"><rect x="145" y="706" width="2988" height="1283"/></clipPath><clipPath id="clip26"><rect x="145" y="706" width="2988" height="1283"/></clipPath><clipPath id="clip27"><rect x="145" y="706" width="2988" height="1283"/></clipPath><clipPath id="clip28"><rect x="145" y="706" width="2988" height="1283"/></clipPath><clipPath id="clip29"><rect x="145" y="706" width="2988" height="1283"/></clipPath><clipPath id="clip30"><rect x="145" y="706" width="2988" height="1283"/></clipPath><clipPath id="clip31"><rect x="145" y="706" width="2988" height="1283"/></clipPath><clipPath id="clip32"><rect x="145" y="706" width="2988" height="1283"/></clipPath><clipPath id="clip33"><rect x="145" y="706" width="2988" height="1283"/></clipPath><clipPath id="clip34"><rect x="145" y="706" width="2988" height="1283"/></clipPath><clipPath id="clip35"><rect x="145" y="706" width="2988" height="1283"/></clipPath><clipPath id="clip36"><rect x="145" y="706" width="2988" height="1283"/></clipPath><clipPath id="clip37"><rect x="145" y="706" width="2988" height="1283"/></clipPath><clipPath id="clip38"><rect x="145" y="706" width="2988" height="1283"/></clipPath><clipPath id="clip39"><rect x="-667" y="1700" width="2477" height="144"/></clipPath><clipPath id="clip40"><rect x="145" y="706" width="2988" height="1283"/></clipPath><clipPath id="clip41"><rect x="-667" y="1700" width="2477" height="144"/></clipPath><clipPath id="clip42"><rect x="145" y="706" width="2988" height="1283"/></clipPath><clipPath id="clip43"><rect x="-794" y="1558" width="2699" height="143"/></clipPath><clipPath id="clip44"><rect x="145" y="706" width="2988" height="1283"/></clipPath><clipPath id="clip45"><rect x="-794" y="1558" width="2699" height="143"/></clipPath><clipPath id="clip46"><rect x="145" y="706" width="2988" height="1283"/></clipPath><clipPath id="clip47"><rect x="-1380" y="1415" width="3724" height="144"/></clipPath><clipPath id="clip48"><rect x="145" y="706" width="2988" height="1283"/></clipPath><clipPath id="clip49"><rect x="-1380" y="1415" width="3724" height="144"/></clipPath><clipPath id="clip50"><rect x="145" y="706" width="2988" height="1283"/></clipPath><clipPath id="clip51"><rect x="-1380" y="1415" width="3724" height="144"/></clipPath><clipPath id="clip52"><rect x="145" y="706" width="2988" height="1283"/></clipPath><clipPath id="clip53"><rect x="-1380" y="1415" width="3724" height="144"/></clipPath><clipPath id="clip54"><rect x="145" y="706" width="2988" height="1283"/></clipPath><clipPath id="clip55"><rect x="-921" y="1273" width="2921" height="143"/></clipPath><clipPath id="clip56"><rect x="145" y="706" width="2988" height="1283"/></clipPath><clipPath id="clip57"><rect x="-921" y="1273" width="2921" height="143"/></clipPath><clipPath id="clip58"><rect x="145" y="706" width="2988" height="1283"/></clipPath><clipPath id="clip59"><rect x="-921" y="1273" width="2921" height="143"/></clipPath><clipPath id="clip60"><rect x="145" y="706" width="2988" height="1283"/></clipPath><clipPath id="clip61"><rect x="-921" y="1273" width="2921" height="143"/></clipPath><clipPath id="clip62"><rect x="145" y="706" width="2988" height="1283"/></clipPath><clipPath id="clip63"><rect x="-921" y="1130" width="2921" height="144"/></clipPath><clipPath id="clip64"><rect x="145" y="706" width="2988" height="1283"/></clipPath><clipPath id="clip65"><rect x="-921" y="1130" width="2921" height="144"/></clipPath><clipPath id="clip66"><rect x="145" y="706" width="2988" height="1283"/></clipPath><clipPath id="clip67"><rect x="-921" y="1130" width="2921" height="144"/></clipPath><clipPath id="clip68"><rect x="145" y="706" width="2988" height="1283"/></clipPath><clipPath id="clip69"><rect x="-921" y="1130" width="2921" height="144"/></clipPath><clipPath id="clip70"><rect x="145" y="706" width="2988" height="1283"/></clipPath><clipPath id="clip71"><rect x="-692" y="988" width="2521" height="143"/></clipPath><clipPath id="clip72"><rect x="145" y="706" width="2988" height="1283"/></clipPath><clipPath id="clip73"><rect x="-692" y="988" width="2521" height="143"/></clipPath><clipPath id="clip74"><rect x="145" y="706" width="2988" height="1283"/></clipPath><clipPath id="clip75"><rect x="145" y="706" width="2988" height="1283"/></clipPath><clipPath id="clip76"><rect x="145" y="706" width="2988" height="1283"/></clipPath><clipPath id="clip77"><rect x="145" y="706" width="2988" height="1283"/></clipPath><clipPath id="clip78"><rect x="145" y="706" width="2988" height="1283"/></clipPath><clipPath id="clip79"><rect x="145" y="706" width="2988" height="1283"/></clipPath><clipPath id="clip80"><rect x="145" y="706" width="2988" height="1283"/></clipPath><clipPath id="clip81"><rect x="145" y="706" width="2988" height="1283"/></clipPath><clipPath id="clip82"><rect x="145" y="706" width="2988" height="1283"/></clipPath><clipPath id="clip83"><rect x="145" y="706" width="2988" height="1283"/></clipPath><clipPath id="clip84"><rect x="145" y="706" width="2988" height="1283"/></clipPath><clipPath id="clip85"><rect x="145" y="706" width="2988" height="1283"/></clipPath><clipPath id="clip86"><rect x="145" y="706" width="2988" height="1283"/></clipPath><clipPath id="clip87"><rect x="145" y="706" width="2988" height="1283"/></clipPath><clipPath id="clip88"><rect x="145" y="706" width="2988" height="1283"/></clipPath><clipPath id="clip89"><rect x="145" y="706" width="2988" height="1283"/></clipPath><clipPath id="clip90"><rect x="145" y="706" width="2988" height="1283"/></clipPath><clipPath id="clip91"><rect x="145" y="706" width="2988" height="1283"/></clipPath><clipPath id="clip92"><rect x="145" y="706" width="2989" height="1284"/></clipPath><clipPath id="clip93"><rect x="-8308" y="714" width="19862" height="406"/></clipPath><clipPath id="clip94"><rect x="145" y="706" width="2989" height="1284"/></clipPath><clipPath id="clip95"><rect x="-8308" y="714" width="19862" height="406"/></clipPath><clipPath id="clip96"><rect x="145" y="706" width="2989" height="1284"/></clipPath><clipPath id="clip97"><rect x="-8308" y="714" width="19862" height="406"/></clipPath><clipPath id="clip98"><rect x="145" y="706" width="2989" height="1284"/></clipPath><clipPath id="clip99"><rect x="-8308" y="714" width="19862" height="406"/></clipPath><clipPath id="clip100"><rect x="145" y="706" width="2989" height="1284"/></clipPath><clipPath id="clip101"><rect x="-8308" y="714" width="19862" height="406"/></clipPath><clipPath id="clip102"><rect x="145" y="706" width="2989" height="1284"/></clipPath><clipPath id="clip103"><rect x="145" y="706" width="2989" height="1284"/></clipPath><clipPath id="clip104"><rect x="145" y="706" width="2989" height="1284"/></clipPath></defs><g clip-path="url(#clip0)" transform="translate(-143 -704)"><rect x="145" y="706" width="2988" height="1284" fill="#FFFFFF"/><g clip-path="url(#clip1)"><path d="M1234.54 992.5 1234.54 1847.5M1683.56 992.5 1683.56 1847.5M2132.57 992.5 2132.57 1847.5M2581.5 992.5 2581.5 1847.5" stroke="#D9D9D9" stroke-width="4.58333" stroke-linejoin="round" stroke-miterlimit="10" fill="none"/></g><g clip-path="url(#clip2)"><path d="M1705.5 1110.5 785.5 1110.5 785.5 1016.5 1705.5 1016.5Z" stroke="#000000" stroke-width="4.58333" stroke-linejoin="round" stroke-miterlimit="10" fill="#FFFFFF"/></g><g clip-path="url(#clip3)"><path d="M1234.54 1822.56 785.5 1822.56 785.5 1729.56 1234.54 1729.56ZM1604.55 1680.56 785.5 1680.56 785.5 1587.55 1604.55 1587.55ZM1761.56 1537.55 785.5 1537.55 785.5 1444.55 1761.56 1444.55ZM1978.56 1395.55 785.5 1395.55 785.5 1301.54 1978.56 1301.54ZM1644.55 1252.54 785.5 1252.54 785.5 1159.54 1644.55 1159.54Z" stroke="#000000" stroke-width="4.58333" stroke-linejoin="round" stroke-miterlimit="10" fill="#FFFFFF"/></g><g clip-path="url(#clip4)"><path d="M2365.5 1110.5 1705.5 1110.5 1705.5 1016.5 2365.5 1016.5Z" stroke="#000000" stroke-width="4.58333" stroke-linejoin="round" stroke-miterlimit="10" fill="#F1F8FD"/></g><g clip-path="url(#clip5)"><path d="M2207.57 1822.56 1234.54 1822.56 1234.54 1729.56 2207.57 1729.56ZM2346.58 1680.56 1604.55 1680.56 1604.55 1587.55 2346.58 1587.55ZM2306.58 1537.55 1761.56 1537.55 1761.56 1444.55 2306.58 1444.55ZM2400.58 1395.55 1978.56 1395.55 1978.56 1301.54 2400.58 1301.54ZM2495.58 1252.54 1644.55 1252.54 1644.55 1159.54 2495.58 1159.54Z" stroke="#000000" stroke-width="4.58333" stroke-linejoin="round" stroke-miterlimit="10" fill="#F1F8FD"/></g><g clip-path="url(#clip6)"><path d="M2431.58 1822.56 2207.57 1822.56 2207.57 1729.56 2431.58 1729.56ZM2511.58 1680.56 2346.58 1680.56 2346.58 1587.55 2511.58 1587.55ZM2472.58 1537.55 2306.58 1537.55 2306.58 1444.55 2472.58 1444.55ZM2547.58 1395.55 2400.58 1395.55 2400.58 1301.54 2547.58 1301.54ZM2559.58 1252.54 2495.58 1252.54 2495.58 1159.54 2559.58 1159.54ZM2513.58 1109.54 2365.58 1109.54 2365.58 1016.53 2513.58 1016.53Z" stroke="#000000" stroke-width="4.58333" stroke-linejoin="round" stroke-miterlimit="10" fill="#C2DDF6"/></g><g clip-path="url(#clip7)"><path d="M2581.58 1822.56 2431.58 1822.56 2431.58 1729.56 2581.58 1729.56ZM2581.58 1680.56 2511.58 1680.56 2511.58 1587.55 2581.58 1587.55ZM2581.58 1537.55 2472.58 1537.55 2472.58 1444.55 2581.58 1444.55ZM2581.58 1395.55 2547.58 1395.55 2547.58 1301.54 2581.58 1301.54ZM2581.58 1252.54 2559.58 1252.54 2559.58 1159.54 2581.58 1159.54ZM2581.58 1109.54 2513.58 1109.54 2513.58 1016.53 2581.58 1016.53Z" stroke="#000000" stroke-width="4.58333" stroke-linejoin="round" stroke-miterlimit="10" fill="#9ECBF0"/></g><g clip-path="url(#clip8)"><path d="M0 0 0.000360892 855" stroke="#D9D9D9" stroke-width="3.4375" stroke-linejoin="round" stroke-miterlimit="10" fill="none" fill-rule="evenodd" transform="matrix(1 0 0 -1 785.5 1847.5)"/></g><g clip-path="url(#clip9)"><text fill="#404040" font-family="Yu Gothic,Yu Gothic_MSFontService,sans-serif" font-weight="700" font-size="55" transform="matrix(1 0 0 1 994.249 1795)">6</text></g><g clip-path="url(#clip10)"><text fill="#404040" font-family="Yu Gothic,Yu Gothic_MSFontService,sans-serif" font-weight="700" font-size="55" transform="matrix(1 0 0 1 1147.79 1653)">317</text></g><g clip-path="url(#clip11)"><text fill="#404040" font-family="Yu Gothic,Yu Gothic_MSFontService,sans-serif" font-weight="700" font-size="55" transform="matrix(1 0 0 1 1226.42 1510)">224</text></g><g clip-path="url(#clip12)"><text fill="#404040" font-family="Yu Gothic,Yu Gothic_MSFontService,sans-serif" font-weight="700" font-size="55" transform="matrix(1 0 0 1 1334.61 1368)">178</text></g><g clip-path="url(#clip13)"><text fill="#404040" font-family="Yu Gothic,Yu Gothic_MSFontService,sans-serif" font-weight="700" font-size="55" transform="matrix(1 0 0 1 1167.52 1225)">120</text></g><g clip-path="url(#clip14)"><text fill="#404040" font-family="Yu Gothic,Yu Gothic_MSFontService,sans-serif" font-weight="700" font-size="55" transform="matrix(1 0 0 1 1198.08 1082)">845</text></g><g clip-path="url(#clip15)"><text fill="#404040" font-family="Yu Gothic,Yu Gothic_MSFontService,sans-serif" font-weight="700" font-size="55" transform="matrix(1 0 0 1 1689.32 1795)">13</text></g><g clip-path="url(#clip16)"><text fill="#404040" font-family="Yu Gothic,Yu Gothic_MSFontService,sans-serif" font-weight="700" font-size="55" transform="matrix(1 0 0 1 1928.12 1653)">287</text></g><g clip-path="url(#clip17)"><text fill="#404040" font-family="Yu Gothic,Yu Gothic_MSFontService,sans-serif" font-weight="700" font-size="55" transform="matrix(1 0 0 1 1987.02 1510)">125</text></g><g clip-path="url(#clip18)"><text fill="#404040" font-family="Yu Gothic,Yu Gothic_MSFontService,sans-serif" font-weight="700" font-size="55" transform="matrix(1 0 0 1 2157.82 1368)">63</text></g><g clip-path="url(#clip19)"><text fill="#404040" font-family="Yu Gothic,Yu Gothic_MSFontService,sans-serif" font-weight="700" font-size="55" transform="matrix(1 0 0 1 2022.49 1225)">119</text></g><g clip-path="url(#clip20)"><text fill="#404040" font-family="Yu Gothic,Yu Gothic_MSFontService,sans-serif" font-weight="700" font-size="55" transform="matrix(1 0 0 1 1988.23 1082)">607</text></g><g clip-path="url(#clip21)"><text fill="#404040" font-family="Yu Gothic,Yu Gothic_MSFontService,sans-serif" font-weight="700" font-size="55" transform="matrix(1 0 0 1 2303.69 1795)">3</text></g><g clip-path="url(#clip22)"><text fill="#404040" font-family="Yu Gothic,Yu Gothic_MSFontService,sans-serif" font-weight="700" font-size="55" transform="matrix(1 0 0 1 2397.37 1653)">64</text></g><g clip-path="url(#clip23)"><text fill="#404040" font-family="Yu Gothic,Yu Gothic_MSFontService,sans-serif" font-weight="700" font-size="55" transform="matrix(1 0 0 1 2358.03 1510)">38</text></g><g clip-path="url(#clip24)"><text fill="#404040" font-family="Yu Gothic,Yu Gothic_MSFontService,sans-serif" font-weight="700" font-size="55" transform="matrix(1 0 0 1 2442.6 1368)">22</text></g><g clip-path="url(#clip25)"><text fill="#404040" font-family="Yu Gothic,Yu Gothic_MSFontService,sans-serif" font-weight="700" font-size="55" transform="matrix(1 0 0 1 2511.92 1225)">9</text></g><g clip-path="url(#clip26)"><text fill="#404040" font-family="Yu Gothic,Yu Gothic_MSFontService,sans-serif" font-weight="700" font-size="55" transform="matrix(1 0 0 1 2392.56 1082)">136</text></g><g clip-path="url(#clip27)"><text fill="#404040" font-family="Yu Gothic,Yu Gothic_MSFontService,sans-serif" font-weight="700" font-size="55" transform="matrix(1 0 0 1 2490.76 1795)">2</text></g><g clip-path="url(#clip28)"><text fill="#404040" font-family="Yu Gothic,Yu Gothic_MSFontService,sans-serif" font-weight="700" font-size="55" transform="matrix(1 0 0 1 2514.93 1653)">27</text></g><g clip-path="url(#clip29)"><text fill="#404040" font-family="Yu Gothic,Yu Gothic_MSFontService,sans-serif" font-weight="700" font-size="55" transform="matrix(1 0 0 1 2495.33 1510)">25</text></g><g clip-path="url(#clip30)"><text fill="#404040" font-family="Yu Gothic,Yu Gothic_MSFontService,sans-serif" font-weight="700" font-size="55" transform="matrix(1 0 0 1 2548.83 1368)">5</text></g><g clip-path="url(#clip31)"><text fill="#404040" font-family="Yu Gothic,Yu Gothic_MSFontService,sans-serif" font-weight="700" font-size="55" transform="matrix(1 0 0 1 2554.85 1225)">3</text></g><g clip-path="url(#clip32)"><text fill="#404040" font-family="Yu Gothic,Yu Gothic_MSFontService,sans-serif" font-weight="700" font-size="55" transform="matrix(1 0 0 1 2516.08 1082)">62</text></g><g clip-path="url(#clip33)"><text fill="#595959" font-family="Yu Gothic,Yu Gothic_MSFontService,sans-serif" font-weight="500" font-size="60" transform="matrix(1 0 0 1 745.046 1946)">0%</text></g><g clip-path="url(#clip34)"><text fill="#595959" font-family="Yu Gothic,Yu Gothic_MSFontService,sans-serif" font-weight="500" font-size="60" transform="matrix(1 0 0 1 1177.46 1946)">25%</text></g><g clip-path="url(#clip35)"><text fill="#595959" font-family="Yu Gothic,Yu Gothic_MSFontService,sans-serif" font-weight="500" font-size="60" transform="matrix(1 0 0 1 1626.42 1946)">50%</text></g><g clip-path="url(#clip36)"><text fill="#595959" font-family="Yu Gothic,Yu Gothic_MSFontService,sans-serif" font-weight="500" font-size="60" transform="matrix(1 0 0 1 2075.37 1946)">75%</text></g><g clip-path="url(#clip37)"><text fill="#595959" font-family="Yu Gothic,Yu Gothic_MSFontService,sans-serif" font-weight="500" font-size="60" transform="matrix(1 0 0 1 2507.79 1946)">100%</text></g><g clip-path="url(#clip38)"><g clip-path="url(#clip39)"><text fill="#595959" font-family="Yu Gothic,Yu Gothic_MSFontService,sans-serif" font-weight="500" font-size="57" transform="matrix(1 0 0 1 394.563 1792)">その他</text></g></g><g clip-path="url(#clip40)"><g clip-path="url(#clip41)"><text fill="#595959" font-family="Yu Gothic,Yu Gothic_MSFontService,sans-serif" font-weight="500" font-size="57" transform="matrix(1 0 0 1 566.438 1792)">(n=24)</text></g></g><g clip-path="url(#clip42)"><g clip-path="url(#clip43)"><text fill="#595959" font-family="Yu Gothic,Yu Gothic_MSFontService,sans-serif" font-weight="500" font-size="57" transform="matrix(1 0 0 1 362.754 1650)">大学院</text></g></g><g clip-path="url(#clip44)"><g clip-path="url(#clip45)"><text fill="#595959" font-family="Yu Gothic,Yu Gothic_MSFontService,sans-serif" font-weight="500" font-size="57" transform="matrix(1 0 0 1 534.629 1650)">(n=695)</text></g></g><g clip-path="url(#clip46)"><g clip-path="url(#clip47)"><text fill="#595959" font-family="Yu Gothic,Yu Gothic_MSFontService,sans-serif" font-weight="500" font-size="57" transform="matrix(1 0 0 1 216.363 1507)">学部</text></g></g><g clip-path="url(#clip48)"><g clip-path="url(#clip49)"><text fill="#595959" font-family="Yu Gothic,Yu Gothic_MSFontService,sans-serif" font-weight="500" font-size="57" transform="matrix(1 0 0 1 330.946 1507)">3</text></g></g><g clip-path="url(#clip50)"><g clip-path="url(#clip51)"><text fill="#595959" font-family="Yu Gothic,Yu Gothic_MSFontService,sans-serif" font-weight="500" font-size="57" transform="matrix(1 0 0 1 362.754 1507)">年以上</text></g></g><g clip-path="url(#clip52)"><g clip-path="url(#clip53)"><text fill="#595959" font-family="Yu Gothic,Yu Gothic_MSFontService,sans-serif" font-weight="500" font-size="57" transform="matrix(1 0 0 1 534.629 1507)">(n=412)</text></g></g><g clip-path="url(#clip54)"><g clip-path="url(#clip55)"><text fill="#595959" font-family="Yu Gothic,Yu Gothic_MSFontService,sans-serif" font-weight="500" font-size="57" transform="matrix(1 0 0 1 330.946 1364)">学部</text></g></g><g clip-path="url(#clip56)"><g clip-path="url(#clip57)"><text fill="#595959" font-family="Yu Gothic,Yu Gothic_MSFontService,sans-serif" font-weight="500" font-size="57" transform="matrix(1 0 0 1 445.529 1364)">2</text></g></g><g clip-path="url(#clip58)"><g clip-path="url(#clip59)"><text fill="#595959" font-family="Yu Gothic,Yu Gothic_MSFontService,sans-serif" font-weight="500" font-size="57" transform="matrix(1 0 0 1 477.338 1364)">年</text></g></g><g clip-path="url(#clip60)"><g clip-path="url(#clip61)"><text fill="#595959" font-family="Yu Gothic,Yu Gothic_MSFontService,sans-serif" font-weight="500" font-size="57" transform="matrix(1 0 0 1 534.629 1364)">(n=268)</text></g></g><g clip-path="url(#clip62)"><g clip-path="url(#clip63)"><text fill="#595959" font-family="Yu Gothic,Yu Gothic_MSFontService,sans-serif" font-weight="500" font-size="57" transform="matrix(1 0 0 1 330.946 1222)">学部</text></g></g><g clip-path="url(#clip64)"><g clip-path="url(#clip65)"><text fill="#595959" font-family="Yu Gothic,Yu Gothic_MSFontService,sans-serif" font-weight="500" font-size="57" transform="matrix(1 0 0 1 445.529 1222)">1</text></g></g><g clip-path="url(#clip66)"><g clip-path="url(#clip67)"><text fill="#595959" font-family="Yu Gothic,Yu Gothic_MSFontService,sans-serif" font-weight="500" font-size="57" transform="matrix(1 0 0 1 477.338 1222)">年</text></g></g><g clip-path="url(#clip68)"><g clip-path="url(#clip69)"><text fill="#595959" font-family="Yu Gothic,Yu Gothic_MSFontService,sans-serif" font-weight="500" font-size="57" transform="matrix(1 0 0 1 534.629 1222)">(n=251)</text></g></g><g clip-path="url(#clip70)"><g clip-path="url(#clip71)"><text fill="#595959" font-family="Yu Gothic,Yu Gothic_MSFontService,sans-serif" font-weight="500" font-size="57" transform="matrix(1 0 0 1 388.238 1079)">全体</text></g></g><g clip-path="url(#clip72)"><g clip-path="url(#clip73)"><text fill="#595959" font-family="Yu Gothic,Yu Gothic_MSFontService,sans-serif" font-weight="500" font-size="57" transform="matrix(1 0 0 1 502.821 1079)">(n=1650)</text></g></g><g clip-path="url(#clip74)"><rect x="2739.5" y="1277.5" width="32.0002" height="32" stroke="#000000" stroke-width="4.58333" stroke-linejoin="round" stroke-miterlimit="10" fill="#FFFFFF"/></g><g clip-path="url(#clip75)"><text fill="#595959" font-family="Yu Gothic,Yu Gothic_MSFontService,sans-serif" font-weight="500" font-size="55" transform="matrix(1 0 0 1 2785.73 1308)">1</text></g><g clip-path="url(#clip76)"><text fill="#595959" font-family="Yu Gothic,Yu Gothic_MSFontService,sans-serif" font-weight="500" font-size="55" transform="matrix(1 0 0 1 2816.25 1308)">未満</text></g><g clip-path="url(#clip77)"><rect x="2739.5" y="1374.5" width="32.0002" height="32" stroke="#000000" stroke-width="4.58333" stroke-linejoin="round" stroke-miterlimit="10" fill="#F1F8FD"/></g><g clip-path="url(#clip78)"><text fill="#595959" font-family="Yu Gothic,Yu Gothic_MSFontService,sans-serif" font-weight="500" font-size="55" transform="matrix(1 0 0 1 2785.73 1406)">1</text></g><g clip-path="url(#clip79)"><text fill="#595959" font-family="Yu Gothic,Yu Gothic_MSFontService,sans-serif" font-weight="500" font-size="55" transform="matrix(1 0 0 1 2816.25 1406)">以上</text></g><g clip-path="url(#clip80)"><text fill="#595959" font-family="Yu Gothic,Yu Gothic_MSFontService,sans-serif" font-weight="500" font-size="55" transform="matrix(1 0 0 1 2926.25 1406)">-</text></g><g clip-path="url(#clip81)"><text fill="#595959" font-family="Yu Gothic,Yu Gothic_MSFontService,sans-serif" font-weight="500" font-size="55" transform="matrix(1 0 0 1 2949.81 1406)">3</text></g><g clip-path="url(#clip82)"><text fill="#595959" font-family="Yu Gothic,Yu Gothic_MSFontService,sans-serif" font-weight="500" font-size="55" transform="matrix(1 0 0 1 2980.34 1406)">未満</text></g><g clip-path="url(#clip83)"><rect x="2739.5" y="1472.5" width="32.0002" height="32" stroke="#000000" stroke-width="4.58333" stroke-linejoin="round" stroke-miterlimit="10" fill="#C2DDF6"/></g><g clip-path="url(#clip84)"><text fill="#595959" font-family="Yu Gothic,Yu Gothic_MSFontService,sans-serif" font-weight="500" font-size="55" transform="matrix(1 0 0 1 2785.73 1503)">3</text></g><g clip-path="url(#clip85)"><text fill="#595959" font-family="Yu Gothic,Yu Gothic_MSFontService,sans-serif" font-weight="500" font-size="55" transform="matrix(1 0 0 1 2816.25 1503)">以上</text></g><g clip-path="url(#clip86)"><text fill="#595959" font-family="Yu Gothic,Yu Gothic_MSFontService,sans-serif" font-weight="500" font-size="55" transform="matrix(1 0 0 1 2926.25 1503)">-</text></g><g clip-path="url(#clip87)"><text fill="#595959" font-family="Yu Gothic,Yu Gothic_MSFontService,sans-serif" font-weight="500" font-size="55" transform="matrix(1 0 0 1 2949.81 1503)">6</text></g><g clip-path="url(#clip88)"><text fill="#595959" font-family="Yu Gothic,Yu Gothic_MSFontService,sans-serif" font-weight="500" font-size="55" transform="matrix(1 0 0 1 2980.34 1503)">未満</text></g><g clip-path="url(#clip89)"><rect x="2739.5" y="1570.5" width="32.0002" height="30.9999" stroke="#000000" stroke-width="4.58333" stroke-linejoin="round" stroke-miterlimit="10" fill="#9ECBF0"/></g><g clip-path="url(#clip90)"><text fill="#595959" font-family="Yu Gothic,Yu Gothic_MSFontService,sans-serif" font-weight="500" font-size="55" transform="matrix(1 0 0 1 2785.73 1601)">6</text></g><g clip-path="url(#clip91)"><text fill="#595959" font-family="Yu Gothic,Yu Gothic_MSFontService,sans-serif" font-weight="500" font-size="55" transform="matrix(1 0 0 1 2816.25 1601)">以上</text></g><rect x="145.5" y="706.5" width="2988" height="1284" stroke="#000000" stroke-width="4.58333" stroke-linejoin="round" stroke-miterlimit="10" fill="none"/><g clip-path="url(#clip92)"><g clip-path="url(#clip93)"><text font-family="Yu Gothic,Yu Gothic_MSFontService,sans-serif" font-weight="500" font-size="73" transform="matrix(1 0 0 1 204.023 818)">【授業形式】</text></g></g><g clip-path="url(#clip94)"><g clip-path="url(#clip95)"><text font-family="Yu Gothic,Yu Gothic_MSFontService,sans-serif" font-weight="500" font-size="73" transform="matrix(1 0 0 1 644.023 818)">3. </text></g></g><g clip-path="url(#clip96)"><g clip-path="url(#clip97)"><text font-family="Yu Gothic,Yu Gothic_MSFontService,sans-serif" font-weight="500" font-size="73" transform="matrix(1 0 0 1 724.644 818)">ライブの</text></g></g><g clip-path="url(#clip98)"><g clip-path="url(#clip99)"><text font-family="Yu Gothic,Yu Gothic_MSFontService,sans-serif" font-weight="500" font-size="73" transform="matrix(1 0 0 1 1017.98 818)">Zoom</text></g></g><g clip-path="url(#clip100)"><g clip-path="url(#clip101)"><text font-family="Yu Gothic,Yu Gothic_MSFontService,sans-serif" font-weight="500" font-size="73" transform="matrix(1 0 0 1 1207.98 818)">などによるオンライン方式（学生のグループワークや議</text></g></g><g clip-path="url(#clip102)"><text font-family="Yu Gothic,Yu Gothic_MSFontService,sans-serif" font-weight="500" font-size="73" transform="matrix(1 0 0 1 204.023 941)">論中心）</text></g><g clip-path="url(#clip103)"><text font-family="Yu Gothic,Yu Gothic_MSFontService,sans-serif" font-weight="400" font-size="55" transform="matrix(1 0 0 1 2763.82 1162)">平均コマ数</text></g><g clip-path="url(#clip104)"><path d="M2764.19 1167.85 2832.94 1167.85 2901.69 1167.85 2970.44 1167.85 3039.19 1167.85 3039.19 1170.85 2970.44 1170.85 2901.69 1170.85 2832.94 1170.85 2764.19 1170.85Z" fill-rule="evenodd"/></g></g></svg>