<svg width="2985" height="1268" xmlns="http://www.w3.org/2000/svg" xmlns:xlink="http://www.w3.org/1999/xlink" overflow="hidden"><defs><clipPath id="clip0"><rect x="2006" y="714" width="2985" height="1268"/></clipPath><clipPath id="clip1"><rect x="2008" y="715" width="2980" height="1263"/></clipPath><clipPath id="clip2"><rect x="2646" y="997" width="1795" height="845"/></clipPath><clipPath id="clip3"><rect x="2646" y="997" width="1795" height="845"/></clipPath><clipPath id="clip4"><rect x="2646" y="997" width="1795" height="845"/></clipPath><clipPath id="clip5"><rect x="2646" y="997" width="1795" height="845"/></clipPath><clipPath id="clip6"><rect x="2646" y="997" width="1795" height="845"/></clipPath><clipPath id="clip7"><rect x="2646" y="997" width="1795" height="845"/></clipPath><clipPath id="clip8"><rect x="2646" y="997" width="1795" height="845"/></clipPath><clipPath id="clip9"><rect x="2008" y="715" width="2980" height="1263"/></clipPath><clipPath id="clip10"><rect x="2008" y="715" width="2980" height="1263"/></clipPath><clipPath id="clip11"><rect x="2008" y="715" width="2980" height="1263"/></clipPath><clipPath id="clip12"><rect x="2008" y="715" width="2980" height="1263"/></clipPath><clipPath id="clip13"><rect x="2008" y="715" width="2980" height="1263"/></clipPath><clipPath id="clip14"><rect x="2008" y="715" width="2980" height="1263"/></clipPath><clipPath id="clip15"><rect x="2008" y="715" width="2980" height="1263"/></clipPath><clipPath id="clip16"><rect x="2008" y="715" width="2980" height="1263"/></clipPath><clipPath id="clip17"><rect x="2008" y="715" width="2980" height="1263"/></clipPath><clipPath id="clip18"><rect x="2008" y="715" width="2980" height="1263"/></clipPath><clipPath id="clip19"><rect x="2008" y="715" width="2980" height="1263"/></clipPath><clipPath id="clip20"><rect x="2008" y="715" width="2980" height="1263"/></clipPath><clipPath id="clip21"><rect x="2008" y="715" width="2980" height="1263"/></clipPath><clipPath id="clip22"><rect x="2008" y="715" width="2980" height="1263"/></clipPath><clipPath id="clip23"><rect x="2008" y="715" width="2980" height="1263"/></clipPath><clipPath id="clip24"><rect x="2008" y="715" width="2980" height="1263"/></clipPath><clipPath id="clip25"><rect x="2008" y="715" width="2980" height="1263"/></clipPath><clipPath id="clip26"><rect x="2008" y="715" width="2980" height="1263"/></clipPath><clipPath id="clip27"><rect x="2008" y="715" width="2980" height="1263"/></clipPath><clipPath id="clip28"><rect x="2008" y="715" width="2980" height="1263"/></clipPath><clipPath id="clip29"><rect x="2008" y="715" width="2980" height="1263"/></clipPath><clipPath id="clip30"><rect x="2008" y="715" width="2980" height="1263"/></clipPath><clipPath id="clip31"><rect x="2008" y="715" width="2980" height="1263"/></clipPath><clipPath id="clip32"><rect x="2008" y="715" width="2980" height="1263"/></clipPath><clipPath id="clip33"><rect x="2008" y="715" width="2980" height="1263"/></clipPath><clipPath id="clip34"><rect x="2008" y="715" width="2980" height="1263"/></clipPath><clipPath id="clip35"><rect x="2008" y="715" width="2980" height="1263"/></clipPath><clipPath id="clip36"><rect x="2008" y="715" width="2980" height="1263"/></clipPath><clipPath id="clip37"><rect x="2008" y="715" width="2980" height="1263"/></clipPath><clipPath id="clip38"><rect x="2008" y="715" width="2980" height="1263"/></clipPath><clipPath id="clip39"><rect x="2008" y="715" width="2980" height="1263"/></clipPath><clipPath id="clip40"><rect x="2008" y="715" width="2980" height="1263"/></clipPath><clipPath id="clip41"><rect x="2008" y="715" width="2980" height="1263"/></clipPath><clipPath id="clip42"><rect x="2008" y="715" width="2980" height="1263"/></clipPath><clipPath id="clip43"><rect x="2008" y="715" width="2980" height="1263"/></clipPath><clipPath id="clip44"><rect x="2008" y="715" width="2980" height="1263"/></clipPath><clipPath id="clip45"><rect x="2008" y="715" width="2980" height="1263"/></clipPath><clipPath id="clip46"><rect x="1194" y="1694" width="2477" height="141"/></clipPath><clipPath id="clip47"><rect x="2008" y="715" width="2980" height="1263"/></clipPath><clipPath id="clip48"><rect x="1194" y="1694" width="2477" height="141"/></clipPath><clipPath id="clip49"><rect x="2008" y="715" width="2980" height="1263"/></clipPath><clipPath id="clip50"><rect x="1067" y="1554" width="2699" height="141"/></clipPath><clipPath id="clip51"><rect x="2008" y="715" width="2980" height="1263"/></clipPath><clipPath id="clip52"><rect x="1067" y="1554" width="2699" height="141"/></clipPath><clipPath id="clip53"><rect x="2008" y="715" width="2980" height="1263"/></clipPath><clipPath id="clip54"><rect x="482" y="1413" width="3723" height="142"/></clipPath><clipPath id="clip55"><rect x="2008" y="715" width="2980" height="1263"/></clipPath><clipPath id="clip56"><rect x="482" y="1413" width="3723" height="142"/></clipPath><clipPath id="clip57"><rect x="2008" y="715" width="2980" height="1263"/></clipPath><clipPath id="clip58"><rect x="482" y="1413" width="3723" height="142"/></clipPath><clipPath id="clip59"><rect x="2008" y="715" width="2980" height="1263"/></clipPath><clipPath id="clip60"><rect x="482" y="1413" width="3723" height="142"/></clipPath><clipPath id="clip61"><rect x="2008" y="715" width="2980" height="1263"/></clipPath><clipPath id="clip62"><rect x="940" y="1273" width="2922" height="141"/></clipPath><clipPath id="clip63"><rect x="2008" y="715" width="2980" height="1263"/></clipPath><clipPath id="clip64"><rect x="940" y="1273" width="2922" height="141"/></clipPath><clipPath id="clip65"><rect x="2008" y="715" width="2980" height="1263"/></clipPath><clipPath id="clip66"><rect x="940" y="1273" width="2922" height="141"/></clipPath><clipPath id="clip67"><rect x="2008" y="715" width="2980" height="1263"/></clipPath><clipPath id="clip68"><rect x="940" y="1273" width="2922" height="141"/></clipPath><clipPath id="clip69"><rect x="2008" y="715" width="2980" height="1263"/></clipPath><clipPath id="clip70"><rect x="940" y="1133" width="2922" height="141"/></clipPath><clipPath id="clip71"><rect x="2008" y="715" width="2980" height="1263"/></clipPath><clipPath id="clip72"><rect x="940" y="1133" width="2922" height="141"/></clipPath><clipPath id="clip73"><rect x="2008" y="715" width="2980" height="1263"/></clipPath><clipPath id="clip74"><rect x="940" y="1133" width="2922" height="141"/></clipPath><clipPath id="clip75"><rect x="2008" y="715" width="2980" height="1263"/></clipPath><clipPath id="clip76"><rect x="940" y="1133" width="2922" height="141"/></clipPath><clipPath id="clip77"><rect x="2008" y="715" width="2980" height="1263"/></clipPath><clipPath id="clip78"><rect x="1169" y="992" width="2521" height="142"/></clipPath><clipPath id="clip79"><rect x="2008" y="715" width="2980" height="1263"/></clipPath><clipPath id="clip80"><rect x="1169" y="992" width="2521" height="142"/></clipPath><clipPath id="clip81"><rect x="2008" y="715" width="2980" height="1263"/></clipPath><clipPath id="clip82"><rect x="2008" y="715" width="2980" height="1263"/></clipPath><clipPath id="clip83"><rect x="2008" y="715" width="2980" height="1263"/></clipPath><clipPath id="clip84"><rect x="2008" y="715" width="2980" height="1263"/></clipPath><clipPath id="clip85"><rect x="2008" y="715" width="2980" height="1263"/></clipPath><clipPath id="clip86"><rect x="2008" y="715" width="2980" height="1263"/></clipPath><clipPath id="clip87"><rect x="2008" y="715" width="2980" height="1263"/></clipPath><clipPath id="clip88"><rect x="2008" y="715" width="2980" height="1263"/></clipPath><clipPath id="clip89"><rect x="2008" y="715" width="2980" height="1263"/></clipPath><clipPath id="clip90"><rect x="2008" y="715" width="2980" height="1263"/></clipPath><clipPath id="clip91"><rect x="2008" y="715" width="2981" height="1264"/></clipPath><clipPath id="clip92"><rect x="-6507" y="724" width="20006" height="399"/></clipPath><clipPath id="clip93"><rect x="2008" y="715" width="2981" height="1264"/></clipPath><clipPath id="clip94"><rect x="-6507" y="724" width="20006" height="399"/></clipPath><clipPath id="clip95"><rect x="2008" y="715" width="2981" height="1264"/></clipPath><clipPath id="clip96"><rect x="-6507" y="724" width="20006" height="399"/></clipPath><clipPath id="clip97"><rect x="2008" y="715" width="2981" height="1264"/></clipPath><clipPath id="clip98"><rect x="-6507" y="724" width="20006" height="399"/></clipPath><clipPath id="clip99"><rect x="2008" y="715" width="2981" height="1264"/></clipPath><clipPath id="clip100"><rect x="-6507" y="724" width="20006" height="399"/></clipPath><clipPath id="clip101"><rect x="2008" y="715" width="2981" height="1264"/></clipPath><clipPath id="clip102"><rect x="2008" y="715" width="2981" height="1264"/></clipPath><clipPath id="clip103"><rect x="2008" y="715" width="2981" height="1264"/></clipPath></defs><g clip-path="url(#clip0)" transform="translate(-2006 -714)"><rect x="2008" y="716" width="2980" height="1263" fill="#FFFFFF"/><g clip-path="url(#clip1)"><path d="M3094.6 997.5 3094.6 1838.5M3542.62 997.5 3542.62 1838.5M3989.63 997.5 3989.63 1838.5M4437.5 997.5 4437.5 1838.5" stroke="#D9D9D9" stroke-width="4.58333" stroke-linejoin="round" stroke-miterlimit="10" fill="none"/></g><g clip-path="url(#clip2)"><path d="M2659.5 1113.5 2646.5 1113.5 2646.5 1021.5 2659.5 1021.5Z" stroke="#000000" stroke-width="4.58333" stroke-linejoin="round" stroke-miterlimit="10" fill="#FFFFFF"/></g><g clip-path="url(#clip3)"><path d="M2658.59 1674.56 2646.5 1674.56 2646.5 1582.55 2658.59 1582.55ZM2662.59 1533.55 2646.5 1533.55 2646.5 1442.55 2662.59 1442.55ZM2664.59 1393.55 2646.5 1393.55 2646.5 1301.54 2664.59 1301.54ZM2653.59 1253.54 2646.5 1253.54 2646.5 1161.54 2653.59 1161.54Z" stroke="#000000" stroke-width="4.58333" stroke-linejoin="round" stroke-miterlimit="10" fill="#FFFFFF"/></g><g clip-path="url(#clip4)"><path d="M2714.5 1113.5 2659.5 1113.5 2659.5 1021.5 2714.5 1021.5Z" stroke="#000000" stroke-width="4.58333" stroke-linejoin="round" stroke-miterlimit="10" fill="#F1F8FD"/></g><g clip-path="url(#clip5)"><path d="M2689.59 1674.56 2658.59 1674.56 2658.59 1582.55 2689.59 1582.55ZM2760.59 1533.55 2662.59 1533.55 2662.59 1442.55 2760.59 1442.55ZM2728.59 1393.55 2664.59 1393.55 2664.59 1301.54 2728.59 1301.54ZM2699.59 1253.54 2653.59 1253.54 2653.59 1161.54 2699.59 1161.54Z" stroke="#000000" stroke-width="4.58333" stroke-linejoin="round" stroke-miterlimit="10" fill="#F1F8FD"/></g><g clip-path="url(#clip6)"><path d="M2766.59 1674.56 2689.59 1674.56 2689.59 1582.55 2766.59 1582.55ZM2889.59 1533.55 2760.59 1533.55 2760.59 1442.55 2889.59 1442.55ZM2897.6 1393.55 2728.59 1393.55 2728.59 1301.54 2897.6 1301.54ZM2799.59 1253.54 2699.59 1253.54 2699.59 1161.54 2799.59 1161.54ZM2821.59 1113.54 2714.59 1113.54 2714.59 1021.53 2821.59 1021.53Z" stroke="#000000" stroke-width="4.58333" stroke-linejoin="round" stroke-miterlimit="10" fill="#C2DDF6"/></g><g clip-path="url(#clip7)"><path d="M3339.61 1814.56 2646.5 1814.56 2646.5 1722.56 3339.61 1722.56ZM3267.61 1674.56 2766.59 1674.56 2766.59 1582.55 3267.61 1582.55ZM3422.61 1533.55 2889.59 1533.55 2889.59 1442.55 3422.61 1442.55ZM3457.61 1393.55 2897.6 1393.55 2897.6 1301.54 3457.61 1301.54ZM3190.6 1253.54 2799.59 1253.54 2799.59 1161.54 3190.6 1161.54ZM3326.61 1113.54 2821.59 1113.54 2821.59 1021.53 3326.61 1021.53Z" stroke="#000000" stroke-width="4.58333" stroke-linejoin="round" stroke-miterlimit="10" fill="#9ECBF0"/></g><g clip-path="url(#clip8)"><path d="M4437.65 1814.56 3339.61 1814.56 3339.61 1722.56 4437.65 1722.56ZM4437.65 1674.56 3267.61 1674.56 3267.61 1582.55 4437.65 1582.55ZM4437.65 1533.55 3422.61 1533.55 3422.61 1442.55 4437.65 1442.55ZM4437.65 1393.55 3457.61 1393.55 3457.61 1301.54 4437.65 1301.54ZM4437.65 1253.54 3190.6 1253.54 3190.6 1161.54 4437.65 1161.54ZM4437.65 1113.54 3326.61 1113.54 3326.61 1021.53 4437.65 1021.53Z" stroke="#000000" stroke-width="4.58333" stroke-linejoin="round" stroke-miterlimit="10" fill="#095085"/></g><g clip-path="url(#clip9)"><path d="M0 0 0.000360892 841" stroke="#D9D9D9" stroke-width="3.4375" stroke-linejoin="round" stroke-miterlimit="10" fill="none" fill-rule="evenodd" transform="matrix(1 0 0 -1 2646.5 1838.5)"/></g><g clip-path="url(#clip10)"><text fill="#404040" font-family="Yu Gothic,Yu Gothic_MSFontService,sans-serif" font-weight="700" font-size="55" transform="matrix(1 0 0 1 2631.03 1788)">0</text></g><g clip-path="url(#clip11)"><text fill="#404040" font-family="Yu Gothic,Yu Gothic_MSFontService,sans-serif" font-weight="700" font-size="55" transform="matrix(1 0 0 1 2636.69 1647)">5</text></g><g clip-path="url(#clip12)"><text fill="#404040" font-family="Yu Gothic,Yu Gothic_MSFontService,sans-serif" font-weight="700" font-size="55" transform="matrix(1 0 0 1 2638.87 1507)">4</text></g><g clip-path="url(#clip13)"><text fill="#404040" font-family="Yu Gothic,Yu Gothic_MSFontService,sans-serif" font-weight="700" font-size="55" transform="matrix(1 0 0 1 2639.78 1367)">3</text></g><g clip-path="url(#clip14)"><text fill="#404040" font-family="Yu Gothic,Yu Gothic_MSFontService,sans-serif" font-weight="700" font-size="55" transform="matrix(1 0 0 1 2634.35 1159)">1</text></g><g clip-path="url(#clip15)"><text fill="#404040" font-family="Yu Gothic,Yu Gothic_MSFontService,sans-serif" font-weight="700" font-size="55" transform="matrix(1 0 0 1 2621.54 1019)">13</text></g><g clip-path="url(#clip16)"><text fill="#404040" font-family="Yu Gothic,Yu Gothic_MSFontService,sans-serif" font-weight="700" font-size="55" transform="matrix(1 0 0 1 2631.03 1788)">0</text></g><g clip-path="url(#clip17)"><text fill="#404040" font-family="Yu Gothic,Yu Gothic_MSFontService,sans-serif" font-weight="700" font-size="55" transform="matrix(1 0 0 1 2642.43 1580)">14</text></g><g clip-path="url(#clip18)"><text fill="#404040" font-family="Yu Gothic,Yu Gothic_MSFontService,sans-serif" font-weight="700" font-size="55" transform="matrix(1 0 0 1 2679.93 1507)">25</text></g><g clip-path="url(#clip19)"><text fill="#404040" font-family="Yu Gothic,Yu Gothic_MSFontService,sans-serif" font-weight="700" font-size="55" transform="matrix(1 0 0 1 2664.85 1367)">11</text></g><g clip-path="url(#clip20)"><text fill="#404040" font-family="Yu Gothic,Yu Gothic_MSFontService,sans-serif" font-weight="700" font-size="55" transform="matrix(1 0 0 1 2660.88 1227)">7</text></g><g clip-path="url(#clip21)"><text fill="#404040" font-family="Yu Gothic,Yu Gothic_MSFontService,sans-serif" font-weight="700" font-size="55" transform="matrix(1 0 0 1 2655.31 1086)">57</text></g><g clip-path="url(#clip22)"><text fill="#404040" font-family="Yu Gothic,Yu Gothic_MSFontService,sans-serif" font-weight="700" font-size="55" transform="matrix(1 0 0 1 2631.03 1788)">0</text></g><g clip-path="url(#clip23)"><text fill="#404040" font-family="Yu Gothic,Yu Gothic_MSFontService,sans-serif" font-weight="700" font-size="55" transform="matrix(1 0 0 1 2696.77 1647)">34</text></g><g clip-path="url(#clip24)"><text fill="#404040" font-family="Yu Gothic,Yu Gothic_MSFontService,sans-serif" font-weight="700" font-size="55" transform="matrix(1 0 0 1 2793.57 1507)">33</text></g><g clip-path="url(#clip25)"><text fill="#404040" font-family="Yu Gothic,Yu Gothic_MSFontService,sans-serif" font-weight="700" font-size="55" transform="matrix(1 0 0 1 2781.52 1367)">29</text></g><g clip-path="url(#clip26)"><text fill="#404040" font-family="Yu Gothic,Yu Gothic_MSFontService,sans-serif" font-weight="700" font-size="55" transform="matrix(1 0 0 1 2718.08 1227)">15</text></g><g clip-path="url(#clip27)"><text fill="#404040" font-family="Yu Gothic,Yu Gothic_MSFontService,sans-serif" font-weight="700" font-size="55" transform="matrix(1 0 0 1 2720.6 1086)">111</text></g><g clip-path="url(#clip28)"><text fill="#404040" font-family="Yu Gothic,Yu Gothic_MSFontService,sans-serif" font-weight="700" font-size="55" transform="matrix(1 0 0 1 2961.9 1788)">12</text></g><g clip-path="url(#clip29)"><text fill="#404040" font-family="Yu Gothic,Yu Gothic_MSFontService,sans-serif" font-weight="700" font-size="55" transform="matrix(1 0 0 1 2969.69 1647)">221</text></g><g clip-path="url(#clip30)"><text fill="#404040" font-family="Yu Gothic,Yu Gothic_MSFontService,sans-serif" font-weight="700" font-size="55" transform="matrix(1 0 0 1 3108.96 1507)">136</text></g><g clip-path="url(#clip31)"><text fill="#404040" font-family="Yu Gothic,Yu Gothic_MSFontService,sans-serif" font-weight="700" font-size="55" transform="matrix(1 0 0 1 3146.13 1367)">96</text></g><g clip-path="url(#clip32)"><text fill="#404040" font-family="Yu Gothic,Yu Gothic_MSFontService,sans-serif" font-weight="700" font-size="55" transform="matrix(1 0 0 1 2963.5 1227)">59</text></g><g clip-path="url(#clip33)"><text fill="#404040" font-family="Yu Gothic,Yu Gothic_MSFontService,sans-serif" font-weight="700" font-size="55" transform="matrix(1 0 0 1 3026.97 1086)">524</text></g><g clip-path="url(#clip34)"><text fill="#FFFFFF" font-family="Yu Gothic,Yu Gothic_MSFontService,sans-serif" font-weight="700" font-size="55" transform="matrix(1 0 0 1 3857.37 1788)">19</text></g><g clip-path="url(#clip35)"><text fill="#FFFFFF" font-family="Yu Gothic,Yu Gothic_MSFontService,sans-serif" font-weight="700" font-size="55" transform="matrix(1 0 0 1 3805.16 1647)">517</text></g><g clip-path="url(#clip36)"><text fill="#FFFFFF" font-family="Yu Gothic,Yu Gothic_MSFontService,sans-serif" font-weight="700" font-size="55" transform="matrix(1 0 0 1 3882.94 1507)">259</text></g><g clip-path="url(#clip37)"><text fill="#FFFFFF" font-family="Yu Gothic,Yu Gothic_MSFontService,sans-serif" font-weight="700" font-size="55" transform="matrix(1 0 0 1 3900.41 1367)">168</text></g><g clip-path="url(#clip38)"><text fill="#FFFFFF" font-family="Yu Gothic,Yu Gothic_MSFontService,sans-serif" font-weight="700" font-size="55" transform="matrix(1 0 0 1 3766.93 1227)">188</text></g><g clip-path="url(#clip39)"><text fill="#FFFFFF" font-family="Yu Gothic,Yu Gothic_MSFontService,sans-serif" font-weight="700" font-size="55" transform="matrix(1 0 0 1 3819.35 1086)">1151</text></g><g clip-path="url(#clip40)"><text fill="#595959" font-family="Yu Gothic,Yu Gothic_MSFontService,sans-serif" font-weight="500" font-size="60" transform="matrix(1 0 0 1 2606.3 1937)">0%</text></g><g clip-path="url(#clip41)"><text fill="#595959" font-family="Yu Gothic,Yu Gothic_MSFontService,sans-serif" font-weight="500" font-size="60" transform="matrix(1 0 0 1 3037.51 1937)">25%</text></g><g clip-path="url(#clip42)"><text fill="#595959" font-family="Yu Gothic,Yu Gothic_MSFontService,sans-serif" font-weight="500" font-size="60" transform="matrix(1 0 0 1 3485.24 1937)">50%</text></g><g clip-path="url(#clip43)"><text fill="#595959" font-family="Yu Gothic,Yu Gothic_MSFontService,sans-serif" font-weight="500" font-size="60" transform="matrix(1 0 0 1 3932.98 1937)">75%</text></g><g clip-path="url(#clip44)"><text fill="#595959" font-family="Yu Gothic,Yu Gothic_MSFontService,sans-serif" font-weight="500" font-size="60" transform="matrix(1 0 0 1 4364.18 1937)">100%</text></g><g clip-path="url(#clip45)"><g clip-path="url(#clip46)"><text fill="#595959" font-family="Yu Gothic,Yu Gothic_MSFontService,sans-serif" font-weight="500" font-size="57" transform="matrix(1 0 0 1 2255.82 1785)">その他</text></g></g><g clip-path="url(#clip47)"><g clip-path="url(#clip48)"><text fill="#595959" font-family="Yu Gothic,Yu Gothic_MSFontService,sans-serif" font-weight="500" font-size="57" transform="matrix(1 0 0 1 2427.69 1785)">(n=31)</text></g></g><g clip-path="url(#clip49)"><g clip-path="url(#clip50)"><text fill="#595959" font-family="Yu Gothic,Yu Gothic_MSFontService,sans-serif" font-weight="500" font-size="57" transform="matrix(1 0 0 1 2224.01 1644)">大学院</text></g></g><g clip-path="url(#clip51)"><g clip-path="url(#clip52)"><text fill="#595959" font-family="Yu Gothic,Yu Gothic_MSFontService,sans-serif" font-weight="500" font-size="57" transform="matrix(1 0 0 1 2395.89 1644)">(n=791)</text></g></g><g clip-path="url(#clip53)"><g clip-path="url(#clip54)"><text fill="#595959" font-family="Yu Gothic,Yu Gothic_MSFontService,sans-serif" font-weight="500" font-size="57" transform="matrix(1 0 0 1 2077.62 1504)">学部</text></g></g><g clip-path="url(#clip55)"><g clip-path="url(#clip56)"><text fill="#595959" font-family="Yu Gothic,Yu Gothic_MSFontService,sans-serif" font-weight="500" font-size="57" transform="matrix(1 0 0 1 2192.2 1504)">3</text></g></g><g clip-path="url(#clip57)"><g clip-path="url(#clip58)"><text fill="#595959" font-family="Yu Gothic,Yu Gothic_MSFontService,sans-serif" font-weight="500" font-size="57" transform="matrix(1 0 0 1 2224.01 1504)">年以上</text></g></g><g clip-path="url(#clip59)"><g clip-path="url(#clip60)"><text fill="#595959" font-family="Yu Gothic,Yu Gothic_MSFontService,sans-serif" font-weight="500" font-size="57" transform="matrix(1 0 0 1 2395.89 1504)">(n=457)</text></g></g><g clip-path="url(#clip61)"><g clip-path="url(#clip62)"><text fill="#595959" font-family="Yu Gothic,Yu Gothic_MSFontService,sans-serif" font-weight="500" font-size="57" transform="matrix(1 0 0 1 2192.2 1364)">学部</text></g></g><g clip-path="url(#clip63)"><g clip-path="url(#clip64)"><text fill="#595959" font-family="Yu Gothic,Yu Gothic_MSFontService,sans-serif" font-weight="500" font-size="57" transform="matrix(1 0 0 1 2306.79 1364)">2</text></g></g><g clip-path="url(#clip65)"><g clip-path="url(#clip66)"><text fill="#595959" font-family="Yu Gothic,Yu Gothic_MSFontService,sans-serif" font-weight="500" font-size="57" transform="matrix(1 0 0 1 2338.59 1364)">年</text></g></g><g clip-path="url(#clip67)"><g clip-path="url(#clip68)"><text fill="#595959" font-family="Yu Gothic,Yu Gothic_MSFontService,sans-serif" font-weight="500" font-size="57" transform="matrix(1 0 0 1 2395.89 1364)">(n=307)</text></g></g><g clip-path="url(#clip69)"><g clip-path="url(#clip70)"><text fill="#595959" font-family="Yu Gothic,Yu Gothic_MSFontService,sans-serif" font-weight="500" font-size="57" transform="matrix(1 0 0 1 2192.2 1223)">学部</text></g></g><g clip-path="url(#clip71)"><g clip-path="url(#clip72)"><text fill="#595959" font-family="Yu Gothic,Yu Gothic_MSFontService,sans-serif" font-weight="500" font-size="57" transform="matrix(1 0 0 1 2306.79 1223)">1</text></g></g><g clip-path="url(#clip73)"><g clip-path="url(#clip74)"><text fill="#595959" font-family="Yu Gothic,Yu Gothic_MSFontService,sans-serif" font-weight="500" font-size="57" transform="matrix(1 0 0 1 2338.59 1223)">年</text></g></g><g clip-path="url(#clip75)"><g clip-path="url(#clip76)"><text fill="#595959" font-family="Yu Gothic,Yu Gothic_MSFontService,sans-serif" font-weight="500" font-size="57" transform="matrix(1 0 0 1 2395.89 1223)">(n=270)</text></g></g><g clip-path="url(#clip77)"><g clip-path="url(#clip78)"><text fill="#595959" font-family="Yu Gothic,Yu Gothic_MSFontService,sans-serif" font-weight="500" font-size="57" transform="matrix(1 0 0 1 2249.49 1083)">全体</text></g></g><g clip-path="url(#clip79)"><g clip-path="url(#clip80)"><text fill="#595959" font-family="Yu Gothic,Yu Gothic_MSFontService,sans-serif" font-weight="500" font-size="57" transform="matrix(1 0 0 1 2364.08 1083)">(n=1856)</text></g></g><g clip-path="url(#clip81)"><rect x="4641.5" y="1161.5" width="32" height="32" stroke="#000000" stroke-width="4.58333" stroke-linejoin="round" stroke-miterlimit="10" fill="#FFFFFF"/></g><g clip-path="url(#clip82)"><text fill="#595959" font-family="Yu Gothic,Yu Gothic_MSFontService,sans-serif" font-weight="500" font-size="55" transform="matrix(1 0 0 1 4687.5 1192)">0%</text></g><g clip-path="url(#clip83)"><rect x="4641.5" y="1287.5" width="32" height="32.0004" stroke="#000000" stroke-width="4.58333" stroke-linejoin="round" stroke-miterlimit="10" fill="#F1F8FD"/></g><g clip-path="url(#clip84)"><text fill="#595959" font-family="Yu Gothic,Yu Gothic_MSFontService,sans-serif" font-weight="500" font-size="55" transform="matrix(1 0 0 1 4687.5 1318)">20%</text></g><g clip-path="url(#clip85)"><rect x="4641.5" y="1412.5" width="32" height="32" stroke="#000000" stroke-width="4.58333" stroke-linejoin="round" stroke-miterlimit="10" fill="#C2DDF6"/></g><g clip-path="url(#clip86)"><text fill="#595959" font-family="Yu Gothic,Yu Gothic_MSFontService,sans-serif" font-weight="500" font-size="55" transform="matrix(1 0 0 1 4687.5 1443)">50%</text></g><g clip-path="url(#clip87)"><rect x="4641.5" y="1537.5" width="32" height="32" stroke="#000000" stroke-width="4.58333" stroke-linejoin="round" stroke-miterlimit="10" fill="#9ECBF0"/></g><g clip-path="url(#clip88)"><text fill="#595959" font-family="Yu Gothic,Yu Gothic_MSFontService,sans-serif" font-weight="500" font-size="55" transform="matrix(1 0 0 1 4687.5 1569)">80%</text></g><g clip-path="url(#clip89)"><rect x="4641.5" y="1663.5" width="32" height="32" stroke="#000000" stroke-width="4.58333" stroke-linejoin="round" stroke-miterlimit="10" fill="#095085"/></g><g clip-path="url(#clip90)"><text fill="#595959" font-family="Yu Gothic,Yu Gothic_MSFontService,sans-serif" font-weight="500" font-size="55" transform="matrix(1 0 0 1 4687.5 1694)">100%</text></g><rect x="2008.5" y="716.5" width="2980" height="1263" stroke="#000000" stroke-width="4.58333" stroke-linejoin="round" stroke-miterlimit="10" fill="none"/><g clip-path="url(#clip91)"><g clip-path="url(#clip92)"><text font-family="Yu Gothic,Yu Gothic_MSFontService,sans-serif" font-weight="500" font-size="73" transform="matrix(1 0 0 1 2066.94 828)">【出席率】ライブの</text></g></g><g clip-path="url(#clip93)"><g clip-path="url(#clip94)"><text font-family="Yu Gothic,Yu Gothic_MSFontService,sans-serif" font-weight="500" font-size="73" transform="matrix(1 0 0 1 2726.94 828)">Zoom</text></g></g><g clip-path="url(#clip95)"><g clip-path="url(#clip96)"><text font-family="Yu Gothic,Yu Gothic_MSFontService,sans-serif" font-weight="500" font-size="73" transform="matrix(1 0 0 1 2916.94 828)">などによるオンライン方式で行われている授業の出席率</text></g></g><g clip-path="url(#clip97)"><g clip-path="url(#clip98)"><text font-family="Yu Gothic,Yu Gothic_MSFontService,sans-serif" font-weight="500" font-size="73" transform="matrix(1 0 0 1 4750.28 828)">(</text></g></g><g clip-path="url(#clip99)"><g clip-path="url(#clip100)"><text font-family="Yu Gothic,Yu Gothic_MSFontService,sans-serif" font-weight="500" font-size="73" transform="matrix(1 0 0 1 4778.15 828)">実際</text></g></g><g clip-path="url(#clip101)"><text font-family="Yu Gothic,Yu Gothic_MSFontService,sans-serif" font-weight="500" font-size="73" transform="matrix(1 0 0 1 2066.94 951)">にライブで聞いている割合</text></g><g clip-path="url(#clip102)"><text font-family="Yu Gothic,Yu Gothic_MSFontService,sans-serif" font-weight="500" font-size="73" transform="matrix(1 0 0 1 2946.94 951)">)</text></g><g clip-path="url(#clip103)"><text font-family="Yu Gothic,Yu Gothic_MSFontService,sans-serif" font-weight="500" font-size="73" transform="matrix(1 0 0 1 2974.81 951)">は，だいたいどのくらいの割合でしょうか？</text></g></g></svg>