<svg width="2993" height="1274" xmlns="http://www.w3.org/2000/svg" xmlns:xlink="http://www.w3.org/1999/xlink" overflow="hidden"><defs><clipPath id="clip0"><rect x="2842" y="406" width="2993" height="1274"/></clipPath><clipPath id="clip1"><rect x="2844" y="408" width="2987" height="1268"/></clipPath><clipPath id="clip2"><rect x="3484" y="691" width="1584" height="848"/></clipPath><clipPath id="clip3"><rect x="3484" y="691" width="1584" height="848"/></clipPath><clipPath id="clip4"><rect x="3484" y="691" width="1584" height="848"/></clipPath><clipPath id="clip5"><rect x="3484" y="691" width="1584" height="848"/></clipPath><clipPath id="clip6"><rect x="3484" y="691" width="1584" height="848"/></clipPath><clipPath id="clip7"><rect x="3484" y="691" width="1584" height="848"/></clipPath><clipPath id="clip8"><rect x="3484" y="691" width="1584" height="848"/></clipPath><clipPath id="clip9"><rect x="3484" y="691" width="1584" height="848"/></clipPath><clipPath id="clip10"><rect x="2844" y="408" width="2987" height="1268"/></clipPath><clipPath id="clip11"><rect x="2844" y="408" width="2987" height="1268"/></clipPath><clipPath id="clip12"><rect x="2844" y="408" width="2987" height="1268"/></clipPath><clipPath id="clip13"><rect x="2844" y="408" width="2987" height="1268"/></clipPath><clipPath id="clip14"><rect x="2844" y="408" width="2987" height="1268"/></clipPath><clipPath id="clip15"><rect x="2844" y="408" width="2987" height="1268"/></clipPath><clipPath id="clip16"><rect x="2844" y="408" width="2987" height="1268"/></clipPath><clipPath id="clip17"><rect x="2844" y="408" width="2987" height="1268"/></clipPath><clipPath id="clip18"><rect x="2844" y="408" width="2987" height="1268"/></clipPath><clipPath id="clip19"><rect x="2844" y="408" width="2987" height="1268"/></clipPath><clipPath id="clip20"><rect x="2844" y="408" width="2987" height="1268"/></clipPath><clipPath id="clip21"><rect x="2844" y="408" width="2987" height="1268"/></clipPath><clipPath id="clip22"><rect x="2844" y="408" width="2987" height="1268"/></clipPath><clipPath id="clip23"><rect x="2844" y="408" width="2987" height="1268"/></clipPath><clipPath id="clip24"><rect x="2844" y="408" width="2987" height="1268"/></clipPath><clipPath id="clip25"><rect x="2844" y="408" width="2987" height="1268"/></clipPath><clipPath id="clip26"><rect x="2844" y="408" width="2987" height="1268"/></clipPath><clipPath id="clip27"><rect x="2844" y="408" width="2987" height="1268"/></clipPath><clipPath id="clip28"><rect x="2844" y="408" width="2987" height="1268"/></clipPath><clipPath id="clip29"><rect x="2844" y="408" width="2987" height="1268"/></clipPath><clipPath id="clip30"><rect x="2844" y="408" width="2987" height="1268"/></clipPath><clipPath id="clip31"><rect x="2844" y="408" width="2987" height="1268"/></clipPath><clipPath id="clip32"><rect x="2844" y="408" width="2987" height="1268"/></clipPath><clipPath id="clip33"><rect x="2844" y="408" width="2987" height="1268"/></clipPath><clipPath id="clip34"><rect x="2844" y="408" width="2987" height="1268"/></clipPath><clipPath id="clip35"><rect x="2844" y="408" width="2987" height="1268"/></clipPath><clipPath id="clip36"><rect x="2844" y="408" width="2987" height="1268"/></clipPath><clipPath id="clip37"><rect x="2844" y="408" width="2987" height="1268"/></clipPath><clipPath id="clip38"><rect x="2844" y="408" width="2987" height="1268"/></clipPath><clipPath id="clip39"><rect x="2844" y="408" width="2987" height="1268"/></clipPath><clipPath id="clip40"><rect x="2844" y="408" width="2987" height="1268"/></clipPath><clipPath id="clip41"><rect x="2844" y="408" width="2987" height="1268"/></clipPath><clipPath id="clip42"><rect x="2844" y="408" width="2987" height="1268"/></clipPath><clipPath id="clip43"><rect x="2844" y="408" width="2987" height="1268"/></clipPath><clipPath id="clip44"><rect x="2844" y="408" width="2987" height="1268"/></clipPath><clipPath id="clip45"><rect x="2844" y="408" width="2987" height="1268"/></clipPath><clipPath id="clip46"><rect x="2844" y="408" width="2987" height="1268"/></clipPath><clipPath id="clip47"><rect x="2844" y="408" width="2987" height="1268"/></clipPath><clipPath id="clip48"><rect x="2844" y="408" width="2987" height="1268"/></clipPath><clipPath id="clip49"><rect x="2844" y="408" width="2987" height="1268"/></clipPath><clipPath id="clip50"><rect x="2844" y="408" width="2987" height="1268"/></clipPath><clipPath id="clip51"><rect x="2844" y="408" width="2987" height="1268"/></clipPath><clipPath id="clip52"><rect x="2844" y="408" width="2987" height="1268"/></clipPath><clipPath id="clip53"><rect x="2844" y="408" width="2987" height="1268"/></clipPath><clipPath id="clip54"><rect x="2844" y="408" width="2987" height="1268"/></clipPath><clipPath id="clip55"><rect x="2032" y="1391" width="2476" height="142"/></clipPath><clipPath id="clip56"><rect x="2844" y="408" width="2987" height="1268"/></clipPath><clipPath id="clip57"><rect x="2032" y="1391" width="2476" height="142"/></clipPath><clipPath id="clip58"><rect x="2844" y="408" width="2987" height="1268"/></clipPath><clipPath id="clip59"><rect x="1905" y="1250" width="2699" height="142"/></clipPath><clipPath id="clip60"><rect x="2844" y="408" width="2987" height="1268"/></clipPath><clipPath id="clip61"><rect x="1905" y="1250" width="2699" height="142"/></clipPath><clipPath id="clip62"><rect x="2844" y="408" width="2987" height="1268"/></clipPath><clipPath id="clip63"><rect x="1319" y="1109" width="3724" height="142"/></clipPath><clipPath id="clip64"><rect x="2844" y="408" width="2987" height="1268"/></clipPath><clipPath id="clip65"><rect x="1319" y="1109" width="3724" height="142"/></clipPath><clipPath id="clip66"><rect x="2844" y="408" width="2987" height="1268"/></clipPath><clipPath id="clip67"><rect x="1319" y="1109" width="3724" height="142"/></clipPath><clipPath id="clip68"><rect x="2844" y="408" width="2987" height="1268"/></clipPath><clipPath id="clip69"><rect x="1319" y="1109" width="3724" height="142"/></clipPath><clipPath id="clip70"><rect x="2844" y="408" width="2987" height="1268"/></clipPath><clipPath id="clip71"><rect x="1778" y="968" width="2921" height="142"/></clipPath><clipPath id="clip72"><rect x="2844" y="408" width="2987" height="1268"/></clipPath><clipPath id="clip73"><rect x="1778" y="968" width="2921" height="142"/></clipPath><clipPath id="clip74"><rect x="2844" y="408" width="2987" height="1268"/></clipPath><clipPath id="clip75"><rect x="1778" y="968" width="2921" height="142"/></clipPath><clipPath id="clip76"><rect x="2844" y="408" width="2987" height="1268"/></clipPath><clipPath id="clip77"><rect x="1778" y="968" width="2921" height="142"/></clipPath><clipPath id="clip78"><rect x="2844" y="408" width="2987" height="1268"/></clipPath><clipPath id="clip79"><rect x="1778" y="827" width="2921" height="142"/></clipPath><clipPath id="clip80"><rect x="2844" y="408" width="2987" height="1268"/></clipPath><clipPath id="clip81"><rect x="1778" y="827" width="2921" height="142"/></clipPath><clipPath id="clip82"><rect x="2844" y="408" width="2987" height="1268"/></clipPath><clipPath id="clip83"><rect x="1778" y="827" width="2921" height="142"/></clipPath><clipPath id="clip84"><rect x="2844" y="408" width="2987" height="1268"/></clipPath><clipPath id="clip85"><rect x="1778" y="827" width="2921" height="142"/></clipPath><clipPath id="clip86"><rect x="2844" y="408" width="2987" height="1268"/></clipPath><clipPath id="clip87"><rect x="2007" y="686" width="2520" height="142"/></clipPath><clipPath id="clip88"><rect x="2844" y="408" width="2987" height="1268"/></clipPath><clipPath id="clip89"><rect x="2007" y="686" width="2520" height="142"/></clipPath><clipPath id="clip90"><rect x="2844" y="408" width="2987" height="1268"/></clipPath><clipPath id="clip91"><rect x="2844" y="408" width="2987" height="1268"/></clipPath><clipPath id="clip92"><rect x="2844" y="408" width="2987" height="1268"/></clipPath><clipPath id="clip93"><rect x="2844" y="408" width="2987" height="1268"/></clipPath><clipPath id="clip94"><rect x="2844" y="408" width="2987" height="1268"/></clipPath><clipPath id="clip95"><rect x="2844" y="408" width="2987" height="1268"/></clipPath><clipPath id="clip96"><rect x="2844" y="408" width="2987" height="1268"/></clipPath><clipPath id="clip97"><rect x="2844" y="408" width="2987" height="1268"/></clipPath><clipPath id="clip98"><rect x="2844" y="408" width="2987" height="1268"/></clipPath><clipPath id="clip99"><rect x="2844" y="408" width="2987" height="1268"/></clipPath><clipPath id="clip100"><rect x="2844" y="408" width="2987" height="1268"/></clipPath><clipPath id="clip101"><rect x="2844" y="408" width="2987" height="1268"/></clipPath><clipPath id="clip102"><rect x="2844" y="408" width="2987" height="1268"/></clipPath><clipPath id="clip103"><rect x="2844" y="408" width="2987" height="1268"/></clipPath><clipPath id="clip104"><rect x="2844" y="408" width="2987" height="1268"/></clipPath><clipPath id="clip105"><rect x="2844" y="408" width="2987" height="1268"/></clipPath><clipPath id="clip106"><rect x="2844" y="408" width="2987" height="1268"/></clipPath><clipPath id="clip107"><rect x="2844" y="408" width="2987" height="1268"/></clipPath><clipPath id="clip108"><rect x="2844" y="408" width="2987" height="1268"/></clipPath><clipPath id="clip109"><rect x="2844" y="408" width="2987" height="1268"/></clipPath><clipPath id="clip110"><rect x="2844" y="408" width="2988" height="1269"/></clipPath><clipPath id="clip111"><rect x="-5625" y="416" width="19898" height="401"/></clipPath><clipPath id="clip112"><rect x="2844" y="408" width="2988" height="1269"/></clipPath><clipPath id="clip113"><rect x="-5625" y="416" width="19898" height="401"/></clipPath><clipPath id="clip114"><rect x="2844" y="408" width="2988" height="1269"/></clipPath><clipPath id="clip115"><rect x="-5625" y="416" width="19898" height="401"/></clipPath><clipPath id="clip116"><rect x="2844" y="408" width="2988" height="1269"/></clipPath><clipPath id="clip117"><rect x="-5625" y="416" width="19898" height="401"/></clipPath><clipPath id="clip118"><rect x="2844" y="408" width="2988" height="1269"/></clipPath><clipPath id="clip119"><rect x="-5625" y="416" width="19898" height="401"/></clipPath><clipPath id="clip120"><rect x="2844" y="408" width="2988" height="1269"/></clipPath><clipPath id="clip121"><rect x="2844" y="408" width="2988" height="1269"/></clipPath><clipPath id="clip122"><rect x="2844" y="408" width="2988" height="1269"/></clipPath><clipPath id="clip123"><rect x="2844" y="408" width="2988" height="1269"/></clipPath><clipPath id="clip124"><rect x="2844" y="408" width="2988" height="1269"/></clipPath><clipPath id="clip125"><rect x="2844" y="408" width="2988" height="1269"/></clipPath><clipPath id="clip126"><rect x="2844" y="408" width="2988" height="1269"/></clipPath><clipPath id="clip127"><rect x="2844" y="408" width="2988" height="1269"/></clipPath><clipPath id="clip128"><rect x="4873" y="701" width="883" height="121"/></clipPath><clipPath id="clip129"><rect x="2844" y="408" width="2988" height="1269"/></clipPath><clipPath id="clip130"><rect x="2844" y="408" width="2988" height="1269"/></clipPath><clipPath id="clip131"><rect x="2844" y="408" width="2988" height="1269"/></clipPath><clipPath id="clip132"><rect x="2844" y="408" width="2988" height="1269"/></clipPath><clipPath id="clip133"><rect x="2844" y="408" width="2988" height="1269"/></clipPath><clipPath id="clip134"><rect x="2844" y="408" width="2988" height="1269"/></clipPath><clipPath id="clip135"><rect x="4300" y="1492" width="2023" height="185"/></clipPath><clipPath id="clip136"><rect x="2844" y="408" width="2988" height="1269"/></clipPath><clipPath id="clip137"><rect x="4300" y="1492" width="2023" height="185"/></clipPath></defs><g clip-path="url(#clip0)" transform="translate(-2842 -406)"><rect x="2844" y="408" width="2988" height="1269" fill="#FFFFFF"/><g clip-path="url(#clip1)"><path d="M3879.63 691.5 3879.63 1536.5M4274.64 691.5 4274.64 1536.5M4669.65 691.5 4669.65 1536.5M5064.5 691.5 5064.5 1536.5" stroke="#D9D9D9" stroke-width="4.58333" stroke-linejoin="round" stroke-miterlimit="10" fill="none"/></g><g clip-path="url(#clip2)"><path d="M4195.5 807.5 3484.5 807.5 3484.5 715.5 4195.5 715.5Z" stroke="#000000" stroke-width="4.58333" stroke-linejoin="round" stroke-miterlimit="10" fill="#FFFFFF"/></g><g clip-path="url(#clip3)"><path d="M4669.65 1511.55 3484.5 1511.55 3484.5 1419.55 4669.65 1419.55ZM4432.65 1370.55 3484.5 1370.55 3484.5 1278.54 4432.65 1278.54ZM4204.64 1230.54 3484.5 1230.54 3484.5 1138.54 4204.64 1138.54ZM4032.63 1089.54 3484.5 1089.54 3484.5 997.533 4032.63 997.533ZM3738.62 948.531 3484.5 948.531 3484.5 856.528 3738.62 856.528Z" stroke="#000000" stroke-width="4.58333" stroke-linejoin="round" stroke-miterlimit="10" fill="#FFFFFF"/></g><g clip-path="url(#clip4)"><path d="M4332.5 807.5 4195.5 807.5 4195.5 715.5 4332.5 715.5Z" stroke="#000000" stroke-width="4.58333" stroke-linejoin="round" stroke-miterlimit="10" fill="#F1F8FD"/></g><g clip-path="url(#clip5)"><path d="M4801.66 1511.55 4669.65 1511.55 4669.65 1419.55 4801.66 1419.55ZM4556.65 1370.55 4432.65 1370.55 4432.65 1278.54 4556.65 1278.54ZM4367.64 1230.54 4204.64 1230.54 4204.64 1138.54 4367.64 1138.54ZM4290.64 1089.54 4032.63 1089.54 4032.63 997.533 4290.64 997.533ZM3766.62 948.531 3738.62 948.531 3738.62 856.528 3766.62 856.528Z" stroke="#000000" stroke-width="4.58333" stroke-linejoin="round" stroke-miterlimit="10" fill="#F1F8FD"/></g><g clip-path="url(#clip6)"><path d="M4583.65 1370.55 4556.65 1370.55 4556.65 1278.54 4583.65 1278.54ZM4460.65 1230.54 4367.64 1230.54 4367.64 1138.54 4460.65 1138.54ZM4451.65 1089.54 4290.64 1089.54 4290.64 997.533 4451.65 997.533ZM3851.63 948.531 3766.62 948.531 3766.62 856.528 3851.63 856.528ZM4406.64 807.527 4332.64 807.527 4332.64 715.524 4406.64 715.524Z" stroke="#000000" stroke-width="4.58333" stroke-linejoin="round" stroke-miterlimit="10" fill="#C2DDF6"/></g><g clip-path="url(#clip7)"><path d="M4652.65 1370.55 4583.65 1370.55 4583.65 1278.54 4652.65 1278.54ZM4646.65 1230.54 4460.65 1230.54 4460.65 1138.54 4646.65 1138.54ZM4548.65 1089.54 4451.65 1089.54 4451.65 997.533 4548.65 997.533ZM3907.63 948.531 3851.63 948.531 3851.63 856.528 3907.63 856.528ZM4500.65 807.527 4406.64 807.527 4406.64 715.524 4500.65 715.524Z" stroke="#000000" stroke-width="4.58333" stroke-linejoin="round" stroke-miterlimit="10" fill="#9ECBF0"/></g><g clip-path="url(#clip8)"><path d="M4830.66 1370.55 4652.65 1370.55 4652.65 1278.54 4830.66 1278.54ZM4785.66 1230.54 4646.65 1230.54 4646.65 1138.54 4785.66 1138.54ZM4612.65 1089.54 4548.65 1089.54 4548.65 997.533 4612.65 997.533ZM4048.63 948.531 3907.63 948.531 3907.63 856.528 4048.63 856.528ZM4637.65 807.527 4500.65 807.527 4500.65 715.524 4637.65 715.524Z" stroke="#000000" stroke-width="4.58333" stroke-linejoin="round" stroke-miterlimit="10" fill="#3694E2"/></g><g clip-path="url(#clip9)"><path d="M5064.67 1511.55 4801.66 1511.55 4801.66 1419.55 5064.67 1419.55ZM5064.67 1370.55 4830.66 1370.55 4830.66 1278.54 5064.67 1278.54ZM5064.67 1230.54 4785.66 1230.54 4785.66 1138.54 5064.67 1138.54ZM5064.67 1089.54 4612.65 1089.54 4612.65 997.533 5064.67 997.533ZM5064.67 948.531 4048.63 948.531 4048.63 856.528 5064.67 856.528ZM5064.67 807.527 4637.65 807.527 4637.65 715.524 5064.67 715.524Z" stroke="#000000" stroke-width="4.58333" stroke-linejoin="round" stroke-miterlimit="10" fill="#095085"/></g><g clip-path="url(#clip10)"><path d="M0 0 0.000360892 845" stroke="#D9D9D9" stroke-width="3.4375" stroke-linejoin="round" stroke-miterlimit="10" fill="none" fill-rule="evenodd" transform="matrix(1 0 0 -1 3484.5 1536.5)"/></g><g clip-path="url(#clip11)"><text fill="#404040" font-family="Yu Gothic,Yu Gothic_MSFontService,sans-serif" font-weight="700" font-size="55" transform="matrix(1 0 0 1 4061.23 1485)">9</text></g><g clip-path="url(#clip12)"><text fill="#404040" font-family="Yu Gothic,Yu Gothic_MSFontService,sans-serif" font-weight="700" font-size="55" transform="matrix(1 0 0 1 3926.95 1344)">69</text></g><g clip-path="url(#clip13)"><text fill="#404040" font-family="Yu Gothic,Yu Gothic_MSFontService,sans-serif" font-weight="700" font-size="55" transform="matrix(1 0 0 1 3813.08 1203)">31</text></g><g clip-path="url(#clip14)"><text fill="#404040" font-family="Yu Gothic,Yu Gothic_MSFontService,sans-serif" font-weight="700" font-size="55" transform="matrix(1 0 0 1 3727.01 1062)">17</text></g><g clip-path="url(#clip15)"><text fill="#404040" font-family="Yu Gothic,Yu Gothic_MSFontService,sans-serif" font-weight="700" font-size="55" transform="matrix(1 0 0 1 3595.64 921)">9</text></g><g clip-path="url(#clip16)"><text fill="#404040" font-family="Yu Gothic,Yu Gothic_MSFontService,sans-serif" font-weight="700" font-size="55" transform="matrix(1 0 0 1 3792.67 780)">135</text></g><g clip-path="url(#clip17)"><text fill="#404040" font-family="Yu Gothic,Yu Gothic_MSFontService,sans-serif" font-weight="700" font-size="55" transform="matrix(1 0 0 1 4719.64 1485)">1</text></g><g clip-path="url(#clip18)"><text fill="#404040" font-family="Yu Gothic,Yu Gothic_MSFontService,sans-serif" font-weight="700" font-size="55" transform="matrix(1 0 0 1 4478.6 1344)">9</text></g><g clip-path="url(#clip19)"><text fill="#404040" font-family="Yu Gothic,Yu Gothic_MSFontService,sans-serif" font-weight="700" font-size="55" transform="matrix(1 0 0 1 4270.37 1203)">7</text></g><g clip-path="url(#clip20)"><text fill="#404040" font-family="Yu Gothic,Yu Gothic_MSFontService,sans-serif" font-weight="700" font-size="55" transform="matrix(1 0 0 1 4145.88 1062)">8</text></g><g clip-path="url(#clip21)"><text fill="#404040" font-family="Yu Gothic,Yu Gothic_MSFontService,sans-serif" font-weight="700" font-size="55" transform="matrix(1 0 0 1 3736.73 921)">1</text></g><g clip-path="url(#clip22)"><text fill="#404040" font-family="Yu Gothic,Yu Gothic_MSFontService,sans-serif" font-weight="700" font-size="55" transform="matrix(1 0 0 1 4232.45 780)">26</text></g><g clip-path="url(#clip23)"><path d="M4801.5 1419.5 4782.66 1397.5 4762.5 1397.5" stroke="#A6A6A6" stroke-width="3.4375" stroke-linejoin="round" stroke-miterlimit="10" fill="none"/></g><g clip-path="url(#clip24)"><text fill="#404040" font-family="Yu Gothic,Yu Gothic_MSFontService,sans-serif" font-weight="700" font-size="55" transform="matrix(1 0 0 1 4716.74 1417)">0</text></g><g clip-path="url(#clip25)"><text fill="#404040" font-family="Yu Gothic,Yu Gothic_MSFontService,sans-serif" font-weight="700" font-size="55" transform="matrix(1 0 0 1 4554.18 1344)">2</text></g><g clip-path="url(#clip26)"><text fill="#404040" font-family="Yu Gothic,Yu Gothic_MSFontService,sans-serif" font-weight="700" font-size="55" transform="matrix(1 0 0 1 4398.18 1203)">4</text></g><g clip-path="url(#clip27)"><text fill="#404040" font-family="Yu Gothic,Yu Gothic_MSFontService,sans-serif" font-weight="700" font-size="55" transform="matrix(1 0 0 1 4355.5 1062)">5</text></g><g clip-path="url(#clip28)"><text fill="#404040" font-family="Yu Gothic,Yu Gothic_MSFontService,sans-serif" font-weight="700" font-size="55" transform="matrix(1 0 0 1 3793.16 921)">3</text></g><g clip-path="url(#clip29)"><text fill="#404040" font-family="Yu Gothic,Yu Gothic_MSFontService,sans-serif" font-weight="700" font-size="55" transform="matrix(1 0 0 1 4337.8 780)">14</text></g><g clip-path="url(#clip30)"><text fill="#404040" font-family="Yu Gothic,Yu Gothic_MSFontService,sans-serif" font-weight="700" font-size="55" transform="matrix(1 0 0 1 4785.48 1417)">0</text></g><g clip-path="url(#clip31)"><text fill="#404040" font-family="Yu Gothic,Yu Gothic_MSFontService,sans-serif" font-weight="700" font-size="55" transform="matrix(1 0 0 1 4602.27 1344)">5</text></g><g clip-path="url(#clip32)"><text fill="#404040" font-family="Yu Gothic,Yu Gothic_MSFontService,sans-serif" font-weight="700" font-size="55" transform="matrix(1 0 0 1 4537.61 1203)">8</text></g><g clip-path="url(#clip33)"><text fill="#404040" font-family="Yu Gothic,Yu Gothic_MSFontService,sans-serif" font-weight="700" font-size="55" transform="matrix(1 0 0 1 4484.49 1062)">3</text></g><g clip-path="url(#clip34)"><text fill="#404040" font-family="Yu Gothic,Yu Gothic_MSFontService,sans-serif" font-weight="700" font-size="55" transform="matrix(1 0 0 1 3863.71 921)">2</text></g><g clip-path="url(#clip35)"><text fill="#404040" font-family="Yu Gothic,Yu Gothic_MSFontService,sans-serif" font-weight="700" font-size="55" transform="matrix(1 0 0 1 4422.07 780)">18</text></g><g clip-path="url(#clip36)"><path d="M4801.5 1419.5 4819.66 1397.5 4840.5 1397.5" stroke="#A6A6A6" stroke-width="3.4375" stroke-linejoin="round" stroke-miterlimit="10" fill="none"/></g><g clip-path="url(#clip37)"><text fill="#404040" font-family="Yu Gothic,Yu Gothic_MSFontService,sans-serif" font-weight="700" font-size="55" transform="matrix(1 0 0 1 4854.22 1417)">0</text></g><g clip-path="url(#clip38)"><text fill="#404040" font-family="Yu Gothic,Yu Gothic_MSFontService,sans-serif" font-weight="700" font-size="55" transform="matrix(1 0 0 1 4710.17 1344)">13</text></g><g clip-path="url(#clip39)"><text fill="#404040" font-family="Yu Gothic,Yu Gothic_MSFontService,sans-serif" font-weight="700" font-size="55" transform="matrix(1 0 0 1 4700.27 1203)">6</text></g><g clip-path="url(#clip40)"><text fill="#404040" font-family="Yu Gothic,Yu Gothic_MSFontService,sans-serif" font-weight="700" font-size="55" transform="matrix(1 0 0 1 4565.11 1062)">2</text></g><g clip-path="url(#clip41)"><text fill="#404040" font-family="Yu Gothic,Yu Gothic_MSFontService,sans-serif" font-weight="700" font-size="55" transform="matrix(1 0 0 1 3962.47 921)">5</text></g><g clip-path="url(#clip42)"><text fill="#404040" font-family="Yu Gothic,Yu Gothic_MSFontService,sans-serif" font-weight="700" font-size="55" transform="matrix(1 0 0 1 4537.95 780)">26</text></g><g clip-path="url(#clip43)"><text fill="#FFFFFF" font-family="Yu Gothic,Yu Gothic_MSFontService,sans-serif" font-weight="700" font-size="55" transform="matrix(1 0 0 1 4917.16 1485)">2</text></g><g clip-path="url(#clip44)"><text fill="#FFFFFF" font-family="Yu Gothic,Yu Gothic_MSFontService,sans-serif" font-weight="700" font-size="55" transform="matrix(1 0 0 1 4916.28 1344)">17</text></g><g clip-path="url(#clip45)"><text fill="#FFFFFF" font-family="Yu Gothic,Yu Gothic_MSFontService,sans-serif" font-weight="700" font-size="55" transform="matrix(1 0 0 1 4893.65 1203)">12</text></g><g clip-path="url(#clip46)"><text fill="#FFFFFF" font-family="Yu Gothic,Yu Gothic_MSFontService,sans-serif" font-weight="700" font-size="55" transform="matrix(1 0 0 1 4807.33 1062)">14</text></g><g clip-path="url(#clip47)"><text fill="#FFFFFF" font-family="Yu Gothic,Yu Gothic_MSFontService,sans-serif" font-weight="700" font-size="55" transform="matrix(1 0 0 1 4525.16 921)">36</text></g><g clip-path="url(#clip48)"><text fill="#FFFFFF" font-family="Yu Gothic,Yu Gothic_MSFontService,sans-serif" font-weight="700" font-size="55" transform="matrix(1 0 0 1 4819.75 780)">81</text></g><g clip-path="url(#clip49)"><text fill="#595959" font-family="Yu Gothic,Yu Gothic_MSFontService,sans-serif" font-weight="500" font-size="60" transform="matrix(1 0 0 1 3443.94 1635)">0%</text></g><g clip-path="url(#clip50)"><text fill="#595959" font-family="Yu Gothic,Yu Gothic_MSFontService,sans-serif" font-weight="500" font-size="60" transform="matrix(1 0 0 1 3822.45 1635)">25%</text></g><g clip-path="url(#clip51)"><text fill="#595959" font-family="Yu Gothic,Yu Gothic_MSFontService,sans-serif" font-weight="500" font-size="60" transform="matrix(1 0 0 1 4217.49 1635)">50%</text></g><g clip-path="url(#clip52)"><text fill="#595959" font-family="Yu Gothic,Yu Gothic_MSFontService,sans-serif" font-weight="500" font-size="60" transform="matrix(1 0 0 1 4612.54 1635)">75%</text></g><g clip-path="url(#clip53)"><text fill="#595959" font-family="Yu Gothic,Yu Gothic_MSFontService,sans-serif" font-weight="500" font-size="60" transform="matrix(1 0 0 1 4991.05 1635)">100%</text></g><g clip-path="url(#clip54)"><g clip-path="url(#clip55)"><text fill="#595959" font-family="Yu Gothic,Yu Gothic_MSFontService,sans-serif" font-weight="500" font-size="57" transform="matrix(1 0 0 1 3093.45 1482)">その他</text></g></g><g clip-path="url(#clip56)"><g clip-path="url(#clip57)"><text fill="#595959" font-family="Yu Gothic,Yu Gothic_MSFontService,sans-serif" font-weight="500" font-size="57" transform="matrix(1 0 0 1 3265.33 1482)">(n=31)</text></g></g><g clip-path="url(#clip58)"><g clip-path="url(#clip59)"><text fill="#595959" font-family="Yu Gothic,Yu Gothic_MSFontService,sans-serif" font-weight="500" font-size="57" transform="matrix(1 0 0 1 3061.64 1341)">大学院</text></g></g><g clip-path="url(#clip60)"><g clip-path="url(#clip61)"><text fill="#595959" font-family="Yu Gothic,Yu Gothic_MSFontService,sans-serif" font-weight="500" font-size="57" transform="matrix(1 0 0 1 3233.52 1341)">(n=767)</text></g></g><g clip-path="url(#clip62)"><g clip-path="url(#clip63)"><text fill="#595959" font-family="Yu Gothic,Yu Gothic_MSFontService,sans-serif" font-weight="500" font-size="57" transform="matrix(1 0 0 1 2915.25 1200)">学部</text></g></g><g clip-path="url(#clip64)"><g clip-path="url(#clip65)"><text fill="#595959" font-family="Yu Gothic,Yu Gothic_MSFontService,sans-serif" font-weight="500" font-size="57" transform="matrix(1 0 0 1 3029.84 1200)">3</text></g></g><g clip-path="url(#clip66)"><g clip-path="url(#clip67)"><text fill="#595959" font-family="Yu Gothic,Yu Gothic_MSFontService,sans-serif" font-weight="500" font-size="57" transform="matrix(1 0 0 1 3061.64 1200)">年以上</text></g></g><g clip-path="url(#clip68)"><g clip-path="url(#clip69)"><text fill="#595959" font-family="Yu Gothic,Yu Gothic_MSFontService,sans-serif" font-weight="500" font-size="57" transform="matrix(1 0 0 1 3233.52 1200)">(n=446)</text></g></g><g clip-path="url(#clip70)"><g clip-path="url(#clip71)"><text fill="#595959" font-family="Yu Gothic,Yu Gothic_MSFontService,sans-serif" font-weight="500" font-size="57" transform="matrix(1 0 0 1 3029.84 1059)">学部</text></g></g><g clip-path="url(#clip72)"><g clip-path="url(#clip73)"><text fill="#595959" font-family="Yu Gothic,Yu Gothic_MSFontService,sans-serif" font-weight="500" font-size="57" transform="matrix(1 0 0 1 3144.42 1059)">2</text></g></g><g clip-path="url(#clip74)"><g clip-path="url(#clip75)"><text fill="#595959" font-family="Yu Gothic,Yu Gothic_MSFontService,sans-serif" font-weight="500" font-size="57" transform="matrix(1 0 0 1 3176.23 1059)">年</text></g></g><g clip-path="url(#clip76)"><g clip-path="url(#clip77)"><text fill="#595959" font-family="Yu Gothic,Yu Gothic_MSFontService,sans-serif" font-weight="500" font-size="57" transform="matrix(1 0 0 1 3233.52 1059)">(n=298)</text></g></g><g clip-path="url(#clip78)"><g clip-path="url(#clip79)"><text fill="#595959" font-family="Yu Gothic,Yu Gothic_MSFontService,sans-serif" font-weight="500" font-size="57" transform="matrix(1 0 0 1 3029.84 918)">学部</text></g></g><g clip-path="url(#clip80)"><g clip-path="url(#clip81)"><text fill="#595959" font-family="Yu Gothic,Yu Gothic_MSFontService,sans-serif" font-weight="500" font-size="57" transform="matrix(1 0 0 1 3144.42 918)">1</text></g></g><g clip-path="url(#clip82)"><g clip-path="url(#clip83)"><text fill="#595959" font-family="Yu Gothic,Yu Gothic_MSFontService,sans-serif" font-weight="500" font-size="57" transform="matrix(1 0 0 1 3176.23 918)">年</text></g></g><g clip-path="url(#clip84)"><g clip-path="url(#clip85)"><text fill="#595959" font-family="Yu Gothic,Yu Gothic_MSFontService,sans-serif" font-weight="500" font-size="57" transform="matrix(1 0 0 1 3233.52 918)">(n=265)</text></g></g><g clip-path="url(#clip86)"><g clip-path="url(#clip87)"><text fill="#595959" font-family="Yu Gothic,Yu Gothic_MSFontService,sans-serif" font-weight="500" font-size="57" transform="matrix(1 0 0 1 3087.13 777)">全体</text></g></g><g clip-path="url(#clip88)"><g clip-path="url(#clip89)"><text fill="#595959" font-family="Yu Gothic,Yu Gothic_MSFontService,sans-serif" font-weight="500" font-size="57" transform="matrix(1 0 0 1 3201.71 777)">(n=1807)</text></g></g><g clip-path="url(#clip90)"><rect x="5484.5" y="851.5" width="32" height="31.9999" stroke="#000000" stroke-width="4.58333" stroke-linejoin="round" stroke-miterlimit="10" fill="#FFFFFF"/></g><g clip-path="url(#clip91)"><text fill="#595959" font-family="Yu Gothic,Yu Gothic_MSFontService,sans-serif" font-weight="500" font-size="55" transform="matrix(1 0 0 1 5530.49 882)">0%</text></g><g clip-path="url(#clip92)"><rect x="5484.5" y="948.5" width="32" height="30.9999" stroke="#000000" stroke-width="4.58333" stroke-linejoin="round" stroke-miterlimit="10" fill="#F1F8FD"/></g><g clip-path="url(#clip93)"><text fill="#595959" font-family="Yu Gothic,Yu Gothic_MSFontService,sans-serif" font-weight="500" font-size="55" transform="matrix(1 0 0 1 5530.49 979)">10%</text></g><g clip-path="url(#clip94)"><text fill="#595959" font-family="Yu Gothic,Yu Gothic_MSFontService,sans-serif" font-weight="500" font-size="55" transform="matrix(1 0 0 1 5635.77 979)">未満</text></g><g clip-path="url(#clip95)"><rect x="5484.5" y="1044.5" width="32" height="32" stroke="#000000" stroke-width="4.58333" stroke-linejoin="round" stroke-miterlimit="10" fill="#C2DDF6"/></g><g clip-path="url(#clip96)"><text fill="#595959" font-family="Yu Gothic,Yu Gothic_MSFontService,sans-serif" font-weight="500" font-size="55" transform="matrix(1 0 0 1 5530.49 1075)">10</text></g><g clip-path="url(#clip97)"><text fill="#595959" font-family="Yu Gothic,Yu Gothic_MSFontService,sans-serif" font-weight="500" font-size="55" transform="matrix(1 0 0 1 5591.54 1075)">～</text></g><g clip-path="url(#clip98)"><text fill="#595959" font-family="Yu Gothic,Yu Gothic_MSFontService,sans-serif" font-weight="500" font-size="55" transform="matrix(1 0 0 1 5646.54 1075)">24%</text></g><g clip-path="url(#clip99)"><rect x="5484.5" y="1140.5" width="32" height="32" stroke="#000000" stroke-width="4.58333" stroke-linejoin="round" stroke-miterlimit="10" fill="#9ECBF0"/></g><g clip-path="url(#clip100)"><text fill="#595959" font-family="Yu Gothic,Yu Gothic_MSFontService,sans-serif" font-weight="500" font-size="55" transform="matrix(1 0 0 1 5530.49 1172)">25</text></g><g clip-path="url(#clip101)"><text fill="#595959" font-family="Yu Gothic,Yu Gothic_MSFontService,sans-serif" font-weight="500" font-size="55" transform="matrix(1 0 0 1 5591.54 1172)">～</text></g><g clip-path="url(#clip102)"><text fill="#595959" font-family="Yu Gothic,Yu Gothic_MSFontService,sans-serif" font-weight="500" font-size="55" transform="matrix(1 0 0 1 5646.54 1172)">49%</text></g><g clip-path="url(#clip103)"><rect x="5484.5" y="1237.5" width="32" height="32" stroke="#000000" stroke-width="4.58333" stroke-linejoin="round" stroke-miterlimit="10" fill="#3694E2"/></g><g clip-path="url(#clip104)"><text fill="#595959" font-family="Yu Gothic,Yu Gothic_MSFontService,sans-serif" font-weight="500" font-size="55" transform="matrix(1 0 0 1 5530.49 1268)">50</text></g><g clip-path="url(#clip105)"><text fill="#595959" font-family="Yu Gothic,Yu Gothic_MSFontService,sans-serif" font-weight="500" font-size="55" transform="matrix(1 0 0 1 5591.54 1268)">～</text></g><g clip-path="url(#clip106)"><text fill="#595959" font-family="Yu Gothic,Yu Gothic_MSFontService,sans-serif" font-weight="500" font-size="55" transform="matrix(1 0 0 1 5646.54 1268)">74%</text></g><g clip-path="url(#clip107)"><rect x="5484.5" y="1333.5" width="32" height="32" stroke="#000000" stroke-width="4.58333" stroke-linejoin="round" stroke-miterlimit="10" fill="#095085"/></g><g clip-path="url(#clip108)"><text fill="#595959" font-family="Yu Gothic,Yu Gothic_MSFontService,sans-serif" font-weight="500" font-size="55" transform="matrix(1 0 0 1 5530.49 1365)">75%</text></g><g clip-path="url(#clip109)"><text fill="#595959" font-family="Yu Gothic,Yu Gothic_MSFontService,sans-serif" font-weight="500" font-size="55" transform="matrix(1 0 0 1 5635.77 1365)">以上</text></g><rect x="2844.5" y="408.5" width="2988" height="1269" stroke="#000000" stroke-width="4.58333" stroke-linejoin="round" stroke-miterlimit="10" fill="none"/><g clip-path="url(#clip110)"><g clip-path="url(#clip111)"><text font-family="Yu Gothic,Yu Gothic_MSFontService,sans-serif" font-weight="500" font-size="73" transform="matrix(1 0 0 1 2903 520)">【出席の選択】ハイフレックス</text></g></g><g clip-path="url(#clip112)"><g clip-path="url(#clip113)"><text font-family="Yu Gothic,Yu Gothic_MSFontService,sans-serif" font-weight="500" font-size="73" transform="matrix(1 0 0 1 3929.66 520)">(</text></g></g><g clip-path="url(#clip114)"><g clip-path="url(#clip115)"><text font-family="Yu Gothic,Yu Gothic_MSFontService,sans-serif" font-weight="500" font-size="73" transform="matrix(1 0 0 1 3957.53 520)">教員が教室におり，学生は教室で受けても学外</text></g></g><g clip-path="url(#clip116)"><g clip-path="url(#clip117)"><text font-family="Yu Gothic,Yu Gothic_MSFontService,sans-serif" font-weight="500" font-size="73" transform="matrix(1 0 0 1 5497.53 520)">(</text></g></g><g clip-path="url(#clip118)"><g clip-path="url(#clip119)"><text font-family="Yu Gothic,Yu Gothic_MSFontService,sans-serif" font-weight="500" font-size="73" transform="matrix(1 0 0 1 5525.4 520)">主に自</text></g></g><g clip-path="url(#clip120)"><text font-family="Yu Gothic,Yu Gothic_MSFontService,sans-serif" font-weight="500" font-size="73" transform="matrix(1 0 0 1 2903 643)">宅</text></g><g clip-path="url(#clip121)"><text font-family="Yu Gothic,Yu Gothic_MSFontService,sans-serif" font-weight="500" font-size="73" transform="matrix(1 0 0 1 2976.33 643)">)</text></g><g clip-path="url(#clip122)"><text font-family="Yu Gothic,Yu Gothic_MSFontService,sans-serif" font-weight="500" font-size="73" transform="matrix(1 0 0 1 3004.2 643)">から受けても良い</text></g><g clip-path="url(#clip123)"><text font-family="Yu Gothic,Yu Gothic_MSFontService,sans-serif" font-weight="500" font-size="73" transform="matrix(1 0 0 1 3590.86 643)">)</text></g><g clip-path="url(#clip124)"><text font-family="Yu Gothic,Yu Gothic_MSFontService,sans-serif" font-weight="500" font-size="73" transform="matrix(1 0 0 1 3618.73 643)">形式の授業について，あなたは主にどのように参加しましたか？</text></g><g clip-path="url(#clip125)"><path d="M5162.5 690.5 5162.5 1649.58" stroke="#7F7F7F" stroke-width="4.58333" stroke-miterlimit="8" stroke-dasharray="18.3333 13.75" fill="none" fill-rule="evenodd"/></g><g clip-path="url(#clip126)"><rect x="5170" y="702" width="299" height="935" fill="#F2F2F2"/></g><g clip-path="url(#clip127)"><g clip-path="url(#clip128)"><text font-family="Yu Gothic,Yu Gothic_MSFontService,sans-serif" font-weight="700" font-size="55" transform="matrix(1 0 0 1 5251.42 783)">1507</text></g></g><g clip-path="url(#clip129)"><text fill="#404040" font-family="Yu Gothic,Yu Gothic_MSFontService,sans-serif" font-weight="700" font-size="55" transform="matrix(1 0 0 1 5267.18 922)">209</text></g><g clip-path="url(#clip130)"><text fill="#404040" font-family="Yu Gothic,Yu Gothic_MSFontService,sans-serif" font-weight="700" font-size="55" transform="matrix(1 0 0 1 5267.18 1062)">249</text></g><g clip-path="url(#clip131)"><text fill="#404040" font-family="Yu Gothic,Yu Gothic_MSFontService,sans-serif" font-weight="700" font-size="55" transform="matrix(1 0 0 1 5267.18 1201)">378</text></g><g clip-path="url(#clip132)"><text fill="#404040" font-family="Yu Gothic,Yu Gothic_MSFontService,sans-serif" font-weight="700" font-size="55" transform="matrix(1 0 0 1 5267.18 1340)">652</text></g><g clip-path="url(#clip133)"><text fill="#404040" font-family="Yu Gothic,Yu Gothic_MSFontService,sans-serif" font-weight="700" font-size="55" transform="matrix(1 0 0 1 5282.95 1479)">19</text></g><g clip-path="url(#clip134)"><g clip-path="url(#clip135)"><text font-family="Yu Gothic,Yu Gothic_MSFontService,sans-serif" font-weight="400" font-size="41" transform="matrix(1 0 0 1 5167.12 1558)">この形式の授業</text></g></g><g clip-path="url(#clip136)"><g clip-path="url(#clip137)"><text font-family="Yu Gothic,Yu Gothic_MSFontService,sans-serif" font-weight="400" font-size="41" transform="matrix(1 0 0 1 5228.97 1627)">を未受講</text></g></g></g></svg>