<svg width="2993" height="1296" xmlns="http://www.w3.org/2000/svg" xmlns:xlink="http://www.w3.org/1999/xlink" overflow="hidden"><defs><clipPath id="clip0"><rect x="3261" y="745" width="2993" height="1296"/></clipPath><clipPath id="clip1"><rect x="3263" y="746" width="2988" height="1292"/></clipPath><clipPath id="clip2"><rect x="3903" y="1033" width="1799" height="865"/></clipPath><clipPath id="clip3"><rect x="3903" y="1033" width="1799" height="865"/></clipPath><clipPath id="clip4"><rect x="3903" y="1033" width="1799" height="865"/></clipPath><clipPath id="clip5"><rect x="3903" y="1033" width="1799" height="865"/></clipPath><clipPath id="clip6"><rect x="3903" y="1033" width="1799" height="865"/></clipPath><clipPath id="clip7"><rect x="3903" y="1033" width="1799" height="865"/></clipPath><clipPath id="clip8"><rect x="3903" y="1033" width="1799" height="865"/></clipPath><clipPath id="clip9"><rect x="3903" y="1033" width="1799" height="865"/></clipPath><clipPath id="clip10"><rect x="3903" y="1033" width="1799" height="865"/></clipPath><clipPath id="clip11"><rect x="3263" y="746" width="2988" height="1292"/></clipPath><clipPath id="clip12"><rect x="3263" y="746" width="2988" height="1292"/></clipPath><clipPath id="clip13"><rect x="3263" y="746" width="2988" height="1292"/></clipPath><clipPath id="clip14"><rect x="3263" y="746" width="2988" height="1292"/></clipPath><clipPath id="clip15"><rect x="3263" y="746" width="2988" height="1292"/></clipPath><clipPath id="clip16"><rect x="3263" y="746" width="2988" height="1292"/></clipPath><clipPath id="clip17"><rect x="3263" y="746" width="2988" height="1292"/></clipPath><clipPath id="clip18"><rect x="3263" y="746" width="2988" height="1292"/></clipPath><clipPath id="clip19"><rect x="3263" y="746" width="2988" height="1292"/></clipPath><clipPath id="clip20"><rect x="3263" y="746" width="2988" height="1292"/></clipPath><clipPath id="clip21"><rect x="3263" y="746" width="2988" height="1292"/></clipPath><clipPath id="clip22"><rect x="3263" y="746" width="2988" height="1292"/></clipPath><clipPath id="clip23"><rect x="3263" y="746" width="2988" height="1292"/></clipPath><clipPath id="clip24"><rect x="3263" y="746" width="2988" height="1292"/></clipPath><clipPath id="clip25"><rect x="3263" y="746" width="2988" height="1292"/></clipPath><clipPath id="clip26"><rect x="3263" y="746" width="2988" height="1292"/></clipPath><clipPath id="clip27"><rect x="3263" y="746" width="2988" height="1292"/></clipPath><clipPath id="clip28"><rect x="3263" y="746" width="2988" height="1292"/></clipPath><clipPath id="clip29"><rect x="3263" y="746" width="2988" height="1292"/></clipPath><clipPath id="clip30"><rect x="3263" y="746" width="2988" height="1292"/></clipPath><clipPath id="clip31"><rect x="3263" y="746" width="2988" height="1292"/></clipPath><clipPath id="clip32"><rect x="3263" y="746" width="2988" height="1292"/></clipPath><clipPath id="clip33"><rect x="3263" y="746" width="2988" height="1292"/></clipPath><clipPath id="clip34"><rect x="3263" y="746" width="2988" height="1292"/></clipPath><clipPath id="clip35"><rect x="3263" y="746" width="2988" height="1292"/></clipPath><clipPath id="clip36"><rect x="3263" y="746" width="2988" height="1292"/></clipPath><clipPath id="clip37"><rect x="3263" y="746" width="2988" height="1292"/></clipPath><clipPath id="clip38"><rect x="3263" y="746" width="2988" height="1292"/></clipPath><clipPath id="clip39"><rect x="3263" y="746" width="2988" height="1292"/></clipPath><clipPath id="clip40"><rect x="3263" y="746" width="2988" height="1292"/></clipPath><clipPath id="clip41"><rect x="3263" y="746" width="2988" height="1292"/></clipPath><clipPath id="clip42"><rect x="3263" y="746" width="2988" height="1292"/></clipPath><clipPath id="clip43"><rect x="3263" y="746" width="2988" height="1292"/></clipPath><clipPath id="clip44"><rect x="3263" y="746" width="2988" height="1292"/></clipPath><clipPath id="clip45"><rect x="3263" y="746" width="2988" height="1292"/></clipPath><clipPath id="clip46"><rect x="3263" y="746" width="2988" height="1292"/></clipPath><clipPath id="clip47"><rect x="3263" y="746" width="2988" height="1292"/></clipPath><clipPath id="clip48"><rect x="3263" y="746" width="2988" height="1292"/></clipPath><clipPath id="clip49"><rect x="3263" y="746" width="2988" height="1292"/></clipPath><clipPath id="clip50"><rect x="3263" y="746" width="2988" height="1292"/></clipPath><clipPath id="clip51"><rect x="3263" y="746" width="2988" height="1292"/></clipPath><clipPath id="clip52"><rect x="3263" y="746" width="2988" height="1292"/></clipPath><clipPath id="clip53"><rect x="3263" y="746" width="2988" height="1292"/></clipPath><clipPath id="clip54"><rect x="3263" y="746" width="2988" height="1292"/></clipPath><clipPath id="clip55"><rect x="3263" y="746" width="2988" height="1292"/></clipPath><clipPath id="clip56"><rect x="3263" y="746" width="2988" height="1292"/></clipPath><clipPath id="clip57"><rect x="3263" y="746" width="2988" height="1292"/></clipPath><clipPath id="clip58"><rect x="3263" y="746" width="2988" height="1292"/></clipPath><clipPath id="clip59"><rect x="3263" y="746" width="2988" height="1292"/></clipPath><clipPath id="clip60"><rect x="2451" y="1747" width="2477" height="145"/></clipPath><clipPath id="clip61"><rect x="3263" y="746" width="2988" height="1292"/></clipPath><clipPath id="clip62"><rect x="2451" y="1747" width="2477" height="145"/></clipPath><clipPath id="clip63"><rect x="3263" y="746" width="2988" height="1292"/></clipPath><clipPath id="clip64"><rect x="2324" y="1603" width="2699" height="145"/></clipPath><clipPath id="clip65"><rect x="3263" y="746" width="2988" height="1292"/></clipPath><clipPath id="clip66"><rect x="2324" y="1603" width="2699" height="145"/></clipPath><clipPath id="clip67"><rect x="3263" y="746" width="2988" height="1292"/></clipPath><clipPath id="clip68"><rect x="1738" y="1460" width="3724" height="144"/></clipPath><clipPath id="clip69"><rect x="3263" y="746" width="2988" height="1292"/></clipPath><clipPath id="clip70"><rect x="1738" y="1460" width="3724" height="144"/></clipPath><clipPath id="clip71"><rect x="3263" y="746" width="2988" height="1292"/></clipPath><clipPath id="clip72"><rect x="1738" y="1460" width="3724" height="144"/></clipPath><clipPath id="clip73"><rect x="3263" y="746" width="2988" height="1292"/></clipPath><clipPath id="clip74"><rect x="1738" y="1460" width="3724" height="144"/></clipPath><clipPath id="clip75"><rect x="3263" y="746" width="2988" height="1292"/></clipPath><clipPath id="clip76"><rect x="2197" y="1316" width="2921" height="145"/></clipPath><clipPath id="clip77"><rect x="3263" y="746" width="2988" height="1292"/></clipPath><clipPath id="clip78"><rect x="2197" y="1316" width="2921" height="145"/></clipPath><clipPath id="clip79"><rect x="3263" y="746" width="2988" height="1292"/></clipPath><clipPath id="clip80"><rect x="2197" y="1316" width="2921" height="145"/></clipPath><clipPath id="clip81"><rect x="3263" y="746" width="2988" height="1292"/></clipPath><clipPath id="clip82"><rect x="2197" y="1316" width="2921" height="145"/></clipPath><clipPath id="clip83"><rect x="3263" y="746" width="2988" height="1292"/></clipPath><clipPath id="clip84"><rect x="2197" y="1172" width="2921" height="145"/></clipPath><clipPath id="clip85"><rect x="3263" y="746" width="2988" height="1292"/></clipPath><clipPath id="clip86"><rect x="2197" y="1172" width="2921" height="145"/></clipPath><clipPath id="clip87"><rect x="3263" y="746" width="2988" height="1292"/></clipPath><clipPath id="clip88"><rect x="2197" y="1172" width="2921" height="145"/></clipPath><clipPath id="clip89"><rect x="3263" y="746" width="2988" height="1292"/></clipPath><clipPath id="clip90"><rect x="2197" y="1172" width="2921" height="145"/></clipPath><clipPath id="clip91"><rect x="3263" y="746" width="2988" height="1292"/></clipPath><clipPath id="clip92"><rect x="2426" y="1029" width="2521" height="144"/></clipPath><clipPath id="clip93"><rect x="3263" y="746" width="2988" height="1292"/></clipPath><clipPath id="clip94"><rect x="2426" y="1029" width="2521" height="144"/></clipPath><clipPath id="clip95"><rect x="3263" y="746" width="2988" height="1292"/></clipPath><clipPath id="clip96"><rect x="3263" y="746" width="2988" height="1292"/></clipPath><clipPath id="clip97"><rect x="3263" y="746" width="2988" height="1292"/></clipPath><clipPath id="clip98"><rect x="3263" y="746" width="2988" height="1292"/></clipPath><clipPath id="clip99"><rect x="3263" y="746" width="2988" height="1292"/></clipPath><clipPath id="clip100"><rect x="3263" y="746" width="2988" height="1292"/></clipPath><clipPath id="clip101"><rect x="3263" y="746" width="2988" height="1292"/></clipPath><clipPath id="clip102"><rect x="3263" y="746" width="2988" height="1292"/></clipPath><clipPath id="clip103"><rect x="3263" y="746" width="2988" height="1292"/></clipPath><clipPath id="clip104"><rect x="3263" y="746" width="2988" height="1292"/></clipPath><clipPath id="clip105"><rect x="3263" y="746" width="2988" height="1292"/></clipPath><clipPath id="clip106"><rect x="3263" y="746" width="2988" height="1292"/></clipPath><clipPath id="clip107"><rect x="3263" y="746" width="2988" height="1292"/></clipPath><clipPath id="clip108"><rect x="3263" y="746" width="2988" height="1292"/></clipPath><clipPath id="clip109"><rect x="3263" y="746" width="2988" height="1292"/></clipPath><clipPath id="clip110"><rect x="3263" y="746" width="2988" height="1292"/></clipPath><clipPath id="clip111"><rect x="3263" y="746" width="2988" height="1292"/></clipPath><clipPath id="clip112"><rect x="3263" y="746" width="2988" height="1292"/></clipPath><clipPath id="clip113"><rect x="3263" y="746" width="2988" height="1292"/></clipPath><clipPath id="clip114"><rect x="3263" y="746" width="2988" height="1292"/></clipPath><clipPath id="clip115"><rect x="3263" y="746" width="2988" height="1292"/></clipPath><clipPath id="clip116"><rect x="3263" y="746" width="2988" height="1292"/></clipPath><clipPath id="clip117"><rect x="3263" y="746" width="2988" height="1292"/></clipPath><clipPath id="clip118"><rect x="3263" y="746" width="2988" height="1292"/></clipPath><clipPath id="clip119"><rect x="3263" y="746" width="2988" height="1292"/></clipPath><clipPath id="clip120"><rect x="3263" y="746" width="2988" height="1292"/></clipPath><clipPath id="clip121"><rect x="3263" y="746" width="2988" height="1292"/></clipPath><clipPath id="clip122"><rect x="3263" y="746" width="2988" height="1292"/></clipPath><clipPath id="clip123"><rect x="3263" y="746" width="2988" height="1292"/></clipPath><clipPath id="clip124"><rect x="3263" y="746" width="2988" height="1292"/></clipPath><clipPath id="clip125"><rect x="3263" y="746" width="2988" height="1292"/></clipPath><clipPath id="clip126"><rect x="3263" y="746" width="2989" height="1293"/></clipPath><clipPath id="clip127"><rect x="-5225" y="755" width="19943" height="408"/></clipPath><clipPath id="clip128"><rect x="3263" y="746" width="2989" height="1293"/></clipPath><clipPath id="clip129"><rect x="-5225" y="755" width="19943" height="408"/></clipPath><clipPath id="clip130"><rect x="3263" y="746" width="2989" height="1293"/></clipPath><clipPath id="clip131"><rect x="-5225" y="755" width="19943" height="408"/></clipPath><clipPath id="clip132"><rect x="3263" y="746" width="2989" height="1293"/></clipPath><clipPath id="clip133"><rect x="-5225" y="755" width="19943" height="408"/></clipPath><clipPath id="clip134"><rect x="3263" y="746" width="2989" height="1293"/></clipPath><clipPath id="clip135"><rect x="-5225" y="755" width="19943" height="408"/></clipPath><clipPath id="clip136"><rect x="3263" y="746" width="2989" height="1293"/></clipPath><clipPath id="clip137"><rect x="-5225" y="755" width="19943" height="408"/></clipPath><clipPath id="clip138"><rect x="3263" y="746" width="2989" height="1293"/></clipPath><clipPath id="clip139"><rect x="-5225" y="755" width="19943" height="408"/></clipPath><clipPath id="clip140"><rect x="3263" y="746" width="2989" height="1293"/></clipPath><clipPath id="clip141"><rect x="-5225" y="755" width="19943" height="408"/></clipPath><clipPath id="clip142"><rect x="3263" y="746" width="2989" height="1293"/></clipPath><clipPath id="clip143"><rect x="-5225" y="755" width="19943" height="408"/></clipPath><clipPath id="clip144"><rect x="3263" y="746" width="2989" height="1293"/></clipPath></defs><g clip-path="url(#clip0)" transform="translate(-3261 -745)"><rect x="3263" y="747" width="2988" height="1291" fill="#FFFFFF"/><g clip-path="url(#clip1)"><path d="M4352.64 1033.5 4352.64 1895.5M4801.66 1033.5 4801.66 1895.5M5250.67 1033.5 5250.67 1895.5M5699.5 1033.5 5699.5 1895.5" stroke="#D9D9D9" stroke-width="4.58333" stroke-linejoin="round" stroke-miterlimit="10" fill="none"/></g><g clip-path="url(#clip2)"><path d="M4271.5 1152.5 3903.5 1152.5 3903.5 1058.5 4271.5 1058.5Z" stroke="#000000" stroke-width="4.58333" stroke-linejoin="round" stroke-miterlimit="10" fill="#FFFFFF"/></g><g clip-path="url(#clip3)"><path d="M4083.63 1870.56 3903.5 1870.56 3903.5 1776.56 4083.63 1776.56ZM4324.64 1726.56 3903.5 1726.56 3903.5 1632.55 4324.64 1632.55ZM4250.64 1582.55 3903.5 1582.55 3903.5 1489.55 4250.64 1489.55ZM4291.64 1439.55 3903.5 1439.55 3903.5 1345.54 4291.64 1345.54ZM4151.64 1295.54 3903.5 1295.54 3903.5 1201.54 4151.64 1201.54Z" stroke="#000000" stroke-width="4.58333" stroke-linejoin="round" stroke-miterlimit="10" fill="#FFFFFF"/></g><g clip-path="url(#clip4)"><path d="M4671.5 1152.5 4271.5 1152.5 4271.5 1058.5 4671.5 1058.5Z" stroke="#000000" stroke-width="4.58333" stroke-linejoin="round" stroke-miterlimit="10" fill="#F1F8FD"/></g><g clip-path="url(#clip5)"><path d="M4561.65 1870.56 4083.63 1870.56 4083.63 1776.56 4561.65 1776.56ZM4706.65 1726.56 4324.64 1726.56 4324.64 1632.55 4706.65 1632.55ZM4684.65 1582.55 4250.64 1582.55 4250.64 1489.55 4684.65 1489.55ZM4668.65 1439.55 4291.64 1439.55 4291.64 1345.54 4668.65 1345.54ZM4560.65 1295.54 4151.64 1295.54 4151.64 1201.54 4560.65 1201.54Z" stroke="#000000" stroke-width="4.58333" stroke-linejoin="round" stroke-miterlimit="10" fill="#F1F8FD"/></g><g clip-path="url(#clip6)"><path d="M4980.66 1870.56 4561.65 1870.56 4561.65 1776.56 4980.66 1776.56ZM4992.66 1726.56 4706.65 1726.56 4706.65 1632.55 4992.66 1632.55ZM4988.66 1582.55 4684.65 1582.55 4684.65 1489.55 4988.66 1489.55ZM5108.67 1439.55 4668.65 1439.55 4668.65 1345.54 5108.67 1345.54ZM5015.67 1295.54 4560.65 1295.54 4560.65 1201.54 5015.67 1201.54ZM5014.67 1152.54 4671.65 1152.54 4671.65 1058.53 5014.67 1058.53Z" stroke="#000000" stroke-width="4.58333" stroke-linejoin="round" stroke-miterlimit="10" fill="#C2DDF6"/></g><g clip-path="url(#clip7)"><path d="M5220.67 1870.56 4980.66 1870.56 4980.66 1776.56 5220.67 1776.56ZM5177.67 1726.56 4992.66 1726.56 4992.66 1632.55 5177.67 1632.55ZM5284.67 1582.55 4988.66 1582.55 4988.66 1489.55 5284.67 1489.55ZM5415.68 1439.55 5108.67 1439.55 5108.67 1345.54 5415.68 1345.54ZM5330.68 1295.54 5015.67 1295.54 5015.67 1201.54 5330.68 1201.54ZM5266.67 1152.54 5014.67 1152.54 5014.67 1058.53 5266.67 1058.53Z" stroke="#000000" stroke-width="4.58333" stroke-linejoin="round" stroke-miterlimit="10" fill="#9ECBF0"/></g><g clip-path="url(#clip8)"><path d="M5519.68 1870.56 5220.67 1870.56 5220.67 1776.56 5519.68 1776.56ZM5337.68 1726.56 5177.67 1726.56 5177.67 1632.55 5337.68 1632.55ZM5438.68 1582.55 5284.67 1582.55 5284.67 1489.55 5438.68 1489.55ZM5531.68 1439.55 5415.68 1439.55 5415.68 1345.54 5531.68 1345.54ZM5484.68 1295.54 5330.68 1295.54 5330.68 1201.54 5484.68 1201.54ZM5419.68 1152.54 5266.67 1152.54 5266.67 1058.53 5419.68 1058.53Z" stroke="#000000" stroke-width="4.58333" stroke-linejoin="round" stroke-miterlimit="10" fill="#8AC1EE"/></g><g clip-path="url(#clip9)"><path d="M5639.69 1870.56 5519.68 1870.56 5519.68 1776.56 5639.69 1776.56ZM5447.68 1726.56 5337.68 1726.56 5337.68 1632.55 5447.68 1632.55ZM5513.68 1582.55 5438.68 1582.55 5438.68 1489.55 5513.68 1489.55ZM5600.68 1439.55 5531.68 1439.55 5531.68 1345.54 5600.68 1345.54ZM5598.68 1295.54 5484.68 1295.54 5484.68 1201.54 5598.68 1201.54ZM5514.68 1152.54 5419.68 1152.54 5419.68 1058.53 5514.68 1058.53Z" stroke="#000000" stroke-width="4.58333" stroke-linejoin="round" stroke-miterlimit="10" fill="#2089E0"/></g><g clip-path="url(#clip10)"><path d="M5699.69 1870.56 5639.69 1870.56 5639.69 1776.56 5699.69 1776.56ZM5699.69 1726.56 5447.68 1726.56 5447.68 1632.55 5699.69 1632.55ZM5699.69 1582.55 5513.68 1582.55 5513.68 1489.55 5699.69 1489.55ZM5699.69 1439.55 5600.68 1439.55 5600.68 1345.54 5699.69 1345.54ZM5699.69 1295.54 5598.68 1295.54 5598.68 1201.54 5699.69 1201.54ZM5699.69 1152.54 5514.68 1152.54 5514.68 1058.53 5699.69 1058.53Z" stroke="#095085" stroke-width="4.58333" stroke-linejoin="round" stroke-miterlimit="10" fill="#095085"/></g><g clip-path="url(#clip11)"><path d="M0 0 0.000360892 862" stroke="#D9D9D9" stroke-width="3.4375" stroke-linejoin="round" stroke-miterlimit="10" fill="none" fill-rule="evenodd" transform="matrix(1 0 0 -1 3903.5 1895.5)"/></g><g clip-path="url(#clip12)"><text fill="#404040" font-family="Yu Gothic,Yu Gothic_MSFontService,sans-serif" font-weight="700" font-size="55" transform="matrix(1 0 0 1 3977.58 1842)">3</text></g><g clip-path="url(#clip13)"><text fill="#404040" font-family="Yu Gothic,Yu Gothic_MSFontService,sans-serif" font-weight="700" font-size="55" transform="matrix(1 0 0 1 4066.72 1699)">184</text></g><g clip-path="url(#clip14)"><text fill="#404040" font-family="Yu Gothic,Yu Gothic_MSFontService,sans-serif" font-weight="700" font-size="55" transform="matrix(1 0 0 1 4045.68 1555)">88</text></g><g clip-path="url(#clip15)"><text fill="#404040" font-family="Yu Gothic,Yu Gothic_MSFontService,sans-serif" font-weight="700" font-size="55" transform="matrix(1 0 0 1 4066.08 1411)">67</text></g><g clip-path="url(#clip16)"><text fill="#404040" font-family="Yu Gothic,Yu Gothic_MSFontService,sans-serif" font-weight="700" font-size="55" transform="matrix(1 0 0 1 3995.99 1268)">37</text></g><g clip-path="url(#clip17)"><text fill="#404040" font-family="Yu Gothic,Yu Gothic_MSFontService,sans-serif" font-weight="700" font-size="55" transform="matrix(1 0 0 1 4040.4 1124)">379</text></g><g clip-path="url(#clip18)"><text fill="#404040" font-family="Yu Gothic,Yu Gothic_MSFontService,sans-serif" font-weight="700" font-size="55" transform="matrix(1 0 0 1 4306.81 1842)">8</text></g><g clip-path="url(#clip19)"><text fill="#404040" font-family="Yu Gothic,Yu Gothic_MSFontService,sans-serif" font-weight="700" font-size="55" transform="matrix(1 0 0 1 4468.2 1699)">167</text></g><g clip-path="url(#clip20)"><text fill="#404040" font-family="Yu Gothic,Yu Gothic_MSFontService,sans-serif" font-weight="700" font-size="55" transform="matrix(1 0 0 1 4420.65 1555)">110</text></g><g clip-path="url(#clip21)"><text fill="#404040" font-family="Yu Gothic,Yu Gothic_MSFontService,sans-serif" font-weight="700" font-size="55" transform="matrix(1 0 0 1 4448.42 1411)">65</text></g><g clip-path="url(#clip22)"><text fill="#404040" font-family="Yu Gothic,Yu Gothic_MSFontService,sans-serif" font-weight="700" font-size="55" transform="matrix(1 0 0 1 4324.32 1268)">61</text></g><g clip-path="url(#clip23)"><text fill="#404040" font-family="Yu Gothic,Yu Gothic_MSFontService,sans-serif" font-weight="700" font-size="55" transform="matrix(1 0 0 1 4424.25 1124)">411</text></g><g clip-path="url(#clip24)"><text fill="#404040" font-family="Yu Gothic,Yu Gothic_MSFontService,sans-serif" font-weight="700" font-size="55" transform="matrix(1 0 0 1 4755.76 1842)">7</text></g><g clip-path="url(#clip25)"><text fill="#404040" font-family="Yu Gothic,Yu Gothic_MSFontService,sans-serif" font-weight="700" font-size="55" transform="matrix(1 0 0 1 4802.2 1699)">125</text></g><g clip-path="url(#clip26)"><text fill="#404040" font-family="Yu Gothic,Yu Gothic_MSFontService,sans-serif" font-weight="700" font-size="55" transform="matrix(1 0 0 1 4805.45 1555)">77</text></g><g clip-path="url(#clip27)"><text fill="#404040" font-family="Yu Gothic,Yu Gothic_MSFontService,sans-serif" font-weight="700" font-size="55" transform="matrix(1 0 0 1 4856.82 1411)">76</text></g><g clip-path="url(#clip28)"><text fill="#404040" font-family="Yu Gothic,Yu Gothic_MSFontService,sans-serif" font-weight="700" font-size="55" transform="matrix(1 0 0 1 4756.52 1268)">68</text></g><g clip-path="url(#clip29)"><text fill="#404040" font-family="Yu Gothic,Yu Gothic_MSFontService,sans-serif" font-weight="700" font-size="55" transform="matrix(1 0 0 1 4795.46 1124)">353</text></g><g clip-path="url(#clip30)"><text fill="#404040" font-family="Yu Gothic,Yu Gothic_MSFontService,sans-serif" font-weight="700" font-size="55" transform="matrix(1 0 0 1 5084.99 1842)">4</text></g><g clip-path="url(#clip31)"><text fill="#404040" font-family="Yu Gothic,Yu Gothic_MSFontService,sans-serif" font-weight="700" font-size="55" transform="matrix(1 0 0 1 5053.6 1699)">81</text></g><g clip-path="url(#clip32)"><text fill="#404040" font-family="Yu Gothic,Yu Gothic_MSFontService,sans-serif" font-weight="700" font-size="55" transform="matrix(1 0 0 1 5105.41 1555)">75</text></g><g clip-path="url(#clip33)"><text fill="#404040" font-family="Yu Gothic,Yu Gothic_MSFontService,sans-serif" font-weight="700" font-size="55" transform="matrix(1 0 0 1 5230.46 1411)">53</text></g><g clip-path="url(#clip34)"><text fill="#404040" font-family="Yu Gothic,Yu Gothic_MSFontService,sans-serif" font-weight="700" font-size="55" transform="matrix(1 0 0 1 5141.82 1268)">47</text></g><g clip-path="url(#clip35)"><text fill="#404040" font-family="Yu Gothic,Yu Gothic_MSFontService,sans-serif" font-weight="700" font-size="55" transform="matrix(1 0 0 1 5093.3 1124)">260</text></g><g clip-path="url(#clip36)"><text fill="#404040" font-family="Yu Gothic,Yu Gothic_MSFontService,sans-serif" font-weight="700" font-size="55" transform="matrix(1 0 0 1 5354.37 1842)">5</text></g><g clip-path="url(#clip37)"><text fill="#404040" font-family="Yu Gothic,Yu Gothic_MSFontService,sans-serif" font-weight="700" font-size="55" transform="matrix(1 0 0 1 5226.31 1699)">70</text></g><g clip-path="url(#clip38)"><text fill="#404040" font-family="Yu Gothic,Yu Gothic_MSFontService,sans-serif" font-weight="700" font-size="55" transform="matrix(1 0 0 1 5330.38 1555)">39</text></g><g clip-path="url(#clip39)"><text fill="#404040" font-family="Yu Gothic,Yu Gothic_MSFontService,sans-serif" font-weight="700" font-size="55" transform="matrix(1 0 0 1 5441.91 1411)">20</text></g><g clip-path="url(#clip40)"><text fill="#404040" font-family="Yu Gothic,Yu Gothic_MSFontService,sans-serif" font-weight="700" font-size="55" transform="matrix(1 0 0 1 5376.35 1268)">23</text></g><g clip-path="url(#clip41)"><text fill="#404040" font-family="Yu Gothic,Yu Gothic_MSFontService,sans-serif" font-weight="700" font-size="55" transform="matrix(1 0 0 1 5295.91 1124)">157</text></g><g clip-path="url(#clip42)"><text fill="#404040" font-family="Yu Gothic,Yu Gothic_MSFontService,sans-serif" font-weight="700" font-size="55" transform="matrix(1 0 0 1 5563.88 1842)">2</text></g><g clip-path="url(#clip43)"><text fill="#404040" font-family="Yu Gothic,Yu Gothic_MSFontService,sans-serif" font-weight="700" font-size="55" transform="matrix(1 0 0 1 5361.29 1699)">48</text></g><g clip-path="url(#clip44)"><text fill="#404040" font-family="Yu Gothic,Yu Gothic_MSFontService,sans-serif" font-weight="700" font-size="55" transform="matrix(1 0 0 1 5444.83 1555)">19</text></g><g clip-path="url(#clip45)"><text fill="#404040" font-family="Yu Gothic,Yu Gothic_MSFontService,sans-serif" font-weight="700" font-size="55" transform="matrix(1 0 0 1 5534.59 1411)">12</text></g><g clip-path="url(#clip46)"><text fill="#404040" font-family="Yu Gothic,Yu Gothic_MSFontService,sans-serif" font-weight="700" font-size="55" transform="matrix(1 0 0 1 5510.36 1268)">17</text></g><g clip-path="url(#clip47)"><text fill="#404040" font-family="Yu Gothic,Yu Gothic_MSFontService,sans-serif" font-weight="700" font-size="55" transform="matrix(1 0 0 1 5435.58 1124)">98</text></g><g clip-path="url(#clip48)"><text fill="#FFFFFF" font-family="Yu Gothic,Yu Gothic_MSFontService,sans-serif" font-weight="700" font-size="55" transform="matrix(1 0 0 1 5653.67 1842)">1</text></g><g clip-path="url(#clip49)"><text fill="#FFFFFF" font-family="Yu Gothic,Yu Gothic_MSFontService,sans-serif" font-weight="700" font-size="55" transform="matrix(1 0 0 1 5526.24 1699)">110</text></g><g clip-path="url(#clip50)"><text fill="#FFFFFF" font-family="Yu Gothic,Yu Gothic_MSFontService,sans-serif" font-weight="700" font-size="55" transform="matrix(1 0 0 1 5575.08 1555)">47</text></g><g clip-path="url(#clip51)"><text fill="#FFFFFF" font-family="Yu Gothic,Yu Gothic_MSFontService,sans-serif" font-weight="700" font-size="55" transform="matrix(1 0 0 1 5618.59 1411)">17</text></g><g clip-path="url(#clip52)"><text fill="#FFFFFF" font-family="Yu Gothic,Yu Gothic_MSFontService,sans-serif" font-weight="700" font-size="55" transform="matrix(1 0 0 1 5617.57 1268)">15</text></g><g clip-path="url(#clip53)"><text fill="#FFFFFF" font-family="Yu Gothic,Yu Gothic_MSFontService,sans-serif" font-weight="700" font-size="55" transform="matrix(1 0 0 1 5559.75 1124)">190</text></g><g clip-path="url(#clip54)"><text fill="#595959" font-family="Yu Gothic,Yu Gothic_MSFontService,sans-serif" font-weight="500" font-size="60" transform="matrix(1 0 0 1 3863.06 1993)">0%</text></g><g clip-path="url(#clip55)"><text fill="#595959" font-family="Yu Gothic,Yu Gothic_MSFontService,sans-serif" font-weight="500" font-size="60" transform="matrix(1 0 0 1 4295.48 1993)">25%</text></g><g clip-path="url(#clip56)"><text fill="#595959" font-family="Yu Gothic,Yu Gothic_MSFontService,sans-serif" font-weight="500" font-size="60" transform="matrix(1 0 0 1 4744.43 1993)">50%</text></g><g clip-path="url(#clip57)"><text fill="#595959" font-family="Yu Gothic,Yu Gothic_MSFontService,sans-serif" font-weight="500" font-size="60" transform="matrix(1 0 0 1 5193.38 1993)">75%</text></g><g clip-path="url(#clip58)"><text fill="#595959" font-family="Yu Gothic,Yu Gothic_MSFontService,sans-serif" font-weight="500" font-size="60" transform="matrix(1 0 0 1 5625.8 1993)">100%</text></g><g clip-path="url(#clip59)"><g clip-path="url(#clip60)"><text fill="#595959" font-family="Yu Gothic,Yu Gothic_MSFontService,sans-serif" font-weight="500" font-size="57" transform="matrix(1 0 0 1 3512.58 1839)">その他</text></g></g><g clip-path="url(#clip61)"><g clip-path="url(#clip62)"><text fill="#595959" font-family="Yu Gothic,Yu Gothic_MSFontService,sans-serif" font-weight="500" font-size="57" transform="matrix(1 0 0 1 3684.45 1839)">(n=30)</text></g></g><g clip-path="url(#clip63)"><g clip-path="url(#clip64)"><text fill="#595959" font-family="Yu Gothic,Yu Gothic_MSFontService,sans-serif" font-weight="500" font-size="57" transform="matrix(1 0 0 1 3480.77 1696)">大学院</text></g></g><g clip-path="url(#clip65)"><g clip-path="url(#clip66)"><text fill="#595959" font-family="Yu Gothic,Yu Gothic_MSFontService,sans-serif" font-weight="500" font-size="57" transform="matrix(1 0 0 1 3652.64 1696)">(n=785)</text></g></g><g clip-path="url(#clip67)"><g clip-path="url(#clip68)"><text fill="#595959" font-family="Yu Gothic,Yu Gothic_MSFontService,sans-serif" font-weight="500" font-size="57" transform="matrix(1 0 0 1 3334.38 1552)">学部</text></g></g><g clip-path="url(#clip69)"><g clip-path="url(#clip70)"><text fill="#595959" font-family="Yu Gothic,Yu Gothic_MSFontService,sans-serif" font-weight="500" font-size="57" transform="matrix(1 0 0 1 3448.96 1552)">3</text></g></g><g clip-path="url(#clip71)"><g clip-path="url(#clip72)"><text fill="#595959" font-family="Yu Gothic,Yu Gothic_MSFontService,sans-serif" font-weight="500" font-size="57" transform="matrix(1 0 0 1 3480.77 1552)">年以上</text></g></g><g clip-path="url(#clip73)"><g clip-path="url(#clip74)"><text fill="#595959" font-family="Yu Gothic,Yu Gothic_MSFontService,sans-serif" font-weight="500" font-size="57" transform="matrix(1 0 0 1 3652.64 1552)">(n=455)</text></g></g><g clip-path="url(#clip75)"><g clip-path="url(#clip76)"><text fill="#595959" font-family="Yu Gothic,Yu Gothic_MSFontService,sans-serif" font-weight="500" font-size="57" transform="matrix(1 0 0 1 3448.96 1408)">学部</text></g></g><g clip-path="url(#clip77)"><g clip-path="url(#clip78)"><text fill="#595959" font-family="Yu Gothic,Yu Gothic_MSFontService,sans-serif" font-weight="500" font-size="57" transform="matrix(1 0 0 1 3563.54 1408)">2</text></g></g><g clip-path="url(#clip79)"><g clip-path="url(#clip80)"><text fill="#595959" font-family="Yu Gothic,Yu Gothic_MSFontService,sans-serif" font-weight="500" font-size="57" transform="matrix(1 0 0 1 3595.35 1408)">年</text></g></g><g clip-path="url(#clip81)"><g clip-path="url(#clip82)"><text fill="#595959" font-family="Yu Gothic,Yu Gothic_MSFontService,sans-serif" font-weight="500" font-size="57" transform="matrix(1 0 0 1 3652.64 1408)">(n=310)</text></g></g><g clip-path="url(#clip83)"><g clip-path="url(#clip84)"><text fill="#595959" font-family="Yu Gothic,Yu Gothic_MSFontService,sans-serif" font-weight="500" font-size="57" transform="matrix(1 0 0 1 3448.96 1265)">学部</text></g></g><g clip-path="url(#clip85)"><g clip-path="url(#clip86)"><text fill="#595959" font-family="Yu Gothic,Yu Gothic_MSFontService,sans-serif" font-weight="500" font-size="57" transform="matrix(1 0 0 1 3563.54 1265)">1</text></g></g><g clip-path="url(#clip87)"><g clip-path="url(#clip88)"><text fill="#595959" font-family="Yu Gothic,Yu Gothic_MSFontService,sans-serif" font-weight="500" font-size="57" transform="matrix(1 0 0 1 3595.35 1265)">年</text></g></g><g clip-path="url(#clip89)"><g clip-path="url(#clip90)"><text fill="#595959" font-family="Yu Gothic,Yu Gothic_MSFontService,sans-serif" font-weight="500" font-size="57" transform="matrix(1 0 0 1 3652.64 1265)">(n=268)</text></g></g><g clip-path="url(#clip91)"><g clip-path="url(#clip92)"><text fill="#595959" font-family="Yu Gothic,Yu Gothic_MSFontService,sans-serif" font-weight="500" font-size="57" transform="matrix(1 0 0 1 3506.25 1121)">全体</text></g></g><g clip-path="url(#clip93)"><g clip-path="url(#clip94)"><text fill="#595959" font-family="Yu Gothic,Yu Gothic_MSFontService,sans-serif" font-weight="500" font-size="57" transform="matrix(1 0 0 1 3620.84 1121)">(n=1848)</text></g></g><g clip-path="url(#clip95)"><rect x="5824.5" y="939.5" width="28" height="27.0002" stroke="#000000" stroke-width="4.58333" stroke-linejoin="round" stroke-miterlimit="10" fill="#FFFFFF"/></g><g clip-path="url(#clip96)"><text fill="#595959" font-family="Yu Gothic,Yu Gothic_MSFontService,sans-serif" font-weight="500" font-size="48" transform="matrix(1 0 0 1 5864.42 966)">3.5</text></g><g clip-path="url(#clip97)"><text fill="#595959" font-family="Yu Gothic,Yu Gothic_MSFontService,sans-serif" font-weight="500" font-size="48" transform="matrix(1 0 0 1 5930.31 966)">時間未満</text></g><g clip-path="url(#clip98)"><rect x="5824.5" y="1099.5" width="28" height="27.9999" stroke="#000000" stroke-width="4.58333" stroke-linejoin="round" stroke-miterlimit="10" fill="#F1F8FD"/></g><g clip-path="url(#clip99)"><text fill="#595959" font-family="Yu Gothic,Yu Gothic_MSFontService,sans-serif" font-weight="500" font-size="48" transform="matrix(1 0 0 1 5864.42 1127)">3.5</text></g><g clip-path="url(#clip100)"><text fill="#595959" font-family="Yu Gothic,Yu Gothic_MSFontService,sans-serif" font-weight="500" font-size="48" transform="matrix(1 0 0 1 5930.31 1127)">時間以上～</text></g><g clip-path="url(#clip101)"><text fill="#595959" font-family="Yu Gothic,Yu Gothic_MSFontService,sans-serif" font-weight="500" font-size="48" transform="matrix(1 0 0 1 5891.87 1207)">7</text></g><g clip-path="url(#clip102)"><text fill="#595959" font-family="Yu Gothic,Yu Gothic_MSFontService,sans-serif" font-weight="500" font-size="48" transform="matrix(1 0 0 1 5918.59 1207)">時間未満</text></g><g clip-path="url(#clip103)"><rect x="5824.5" y="1260.5" width="28" height="27.9999" stroke="#000000" stroke-width="4.58333" stroke-linejoin="round" stroke-miterlimit="10" fill="#C2DDF6"/></g><g clip-path="url(#clip104)"><text fill="#595959" font-family="Yu Gothic,Yu Gothic_MSFontService,sans-serif" font-weight="500" font-size="48" transform="matrix(1 0 0 1 5864.42 1288)">7</text></g><g clip-path="url(#clip105)"><text fill="#595959" font-family="Yu Gothic,Yu Gothic_MSFontService,sans-serif" font-weight="500" font-size="48" transform="matrix(1 0 0 1 5891.14 1288)">時間以上～</text></g><g clip-path="url(#clip106)"><text fill="#595959" font-family="Yu Gothic,Yu Gothic_MSFontService,sans-serif" font-weight="500" font-size="48" transform="matrix(1 0 0 1 5878.15 1368)">14</text></g><g clip-path="url(#clip107)"><text fill="#595959" font-family="Yu Gothic,Yu Gothic_MSFontService,sans-serif" font-weight="500" font-size="48" transform="matrix(1 0 0 1 5931.59 1368)">時間未満</text></g><g clip-path="url(#clip108)"><rect x="5824.5" y="1421.5" width="28" height="28.0002" stroke="#000000" stroke-width="4.58333" stroke-linejoin="round" stroke-miterlimit="10" fill="#9ECBF0"/></g><g clip-path="url(#clip109)"><text fill="#595959" font-family="Yu Gothic,Yu Gothic_MSFontService,sans-serif" font-weight="500" font-size="48" transform="matrix(1 0 0 1 5864.42 1449)">14</text></g><g clip-path="url(#clip110)"><text fill="#595959" font-family="Yu Gothic,Yu Gothic_MSFontService,sans-serif" font-weight="500" font-size="48" transform="matrix(1 0 0 1 5917.86 1449)">時間以上～</text></g><g clip-path="url(#clip111)"><text fill="#595959" font-family="Yu Gothic,Yu Gothic_MSFontService,sans-serif" font-weight="500" font-size="48" transform="matrix(1 0 0 1 5878.15 1529)">21</text></g><g clip-path="url(#clip112)"><text fill="#595959" font-family="Yu Gothic,Yu Gothic_MSFontService,sans-serif" font-weight="500" font-size="48" transform="matrix(1 0 0 1 5931.59 1529)">時間未満</text></g><g clip-path="url(#clip113)"><rect x="5824.5" y="1582.5" width="28" height="27.9999" stroke="#000000" stroke-width="4.58333" stroke-linejoin="round" stroke-miterlimit="10" fill="#8AC1EE"/></g><g clip-path="url(#clip114)"><text fill="#595959" font-family="Yu Gothic,Yu Gothic_MSFontService,sans-serif" font-weight="500" font-size="48" transform="matrix(1 0 0 1 5864.42 1610)">21</text></g><g clip-path="url(#clip115)"><text fill="#595959" font-family="Yu Gothic,Yu Gothic_MSFontService,sans-serif" font-weight="500" font-size="48" transform="matrix(1 0 0 1 5917.86 1610)">時間以上～</text></g><g clip-path="url(#clip116)"><text fill="#595959" font-family="Yu Gothic,Yu Gothic_MSFontService,sans-serif" font-weight="500" font-size="48" transform="matrix(1 0 0 1 5878.15 1690)">28</text></g><g clip-path="url(#clip117)"><text fill="#595959" font-family="Yu Gothic,Yu Gothic_MSFontService,sans-serif" font-weight="500" font-size="48" transform="matrix(1 0 0 1 5931.59 1690)">時間未満</text></g><g clip-path="url(#clip118)"><rect x="5824.5" y="1743.5" width="28" height="27.9999" stroke="#000000" stroke-width="4.58333" stroke-linejoin="round" stroke-miterlimit="10" fill="#2089E0"/></g><g clip-path="url(#clip119)"><text fill="#595959" font-family="Yu Gothic,Yu Gothic_MSFontService,sans-serif" font-weight="500" font-size="48" transform="matrix(1 0 0 1 5864.42 1770)">28</text></g><g clip-path="url(#clip120)"><text fill="#595959" font-family="Yu Gothic,Yu Gothic_MSFontService,sans-serif" font-weight="500" font-size="48" transform="matrix(1 0 0 1 5917.86 1770)">時間以上～</text></g><g clip-path="url(#clip121)"><text fill="#595959" font-family="Yu Gothic,Yu Gothic_MSFontService,sans-serif" font-weight="500" font-size="48" transform="matrix(1 0 0 1 5878.15 1850)">35</text></g><g clip-path="url(#clip122)"><text fill="#595959" font-family="Yu Gothic,Yu Gothic_MSFontService,sans-serif" font-weight="500" font-size="48" transform="matrix(1 0 0 1 5931.59 1850)">時間未満</text></g><g clip-path="url(#clip123)"><rect x="5824.5" y="1904.5" width="28" height="27.0001" stroke="#095085" stroke-width="4.58333" stroke-linejoin="round" stroke-miterlimit="10" fill="#095085"/></g><g clip-path="url(#clip124)"><text fill="#595959" font-family="Yu Gothic,Yu Gothic_MSFontService,sans-serif" font-weight="500" font-size="48" transform="matrix(1 0 0 1 5864.42 1931)">35</text></g><g clip-path="url(#clip125)"><text fill="#595959" font-family="Yu Gothic,Yu Gothic_MSFontService,sans-serif" font-weight="500" font-size="48" transform="matrix(1 0 0 1 5917.86 1931)">時間以上</text></g><rect x="3263.5" y="747.5" width="2988" height="1291" stroke="#000000" stroke-width="4.58333" stroke-linejoin="round" stroke-miterlimit="10" fill="none"/><g clip-path="url(#clip126)"><g clip-path="url(#clip127)"><text font-family="Yu Gothic,Yu Gothic_MSFontService,sans-serif" font-weight="500" font-size="73" transform="matrix(1 0 0 1 3322.04 859)">【授業外学習時間】授業に参加している以外</text></g></g><g clip-path="url(#clip128)"><g clip-path="url(#clip129)"><text font-family="Yu Gothic,Yu Gothic_MSFontService,sans-serif" font-weight="500" font-size="73" transform="matrix(1 0 0 1 4788.71 859)">(</text></g></g><g clip-path="url(#clip130)"><g clip-path="url(#clip131)"><text font-family="Yu Gothic,Yu Gothic_MSFontService,sans-serif" font-weight="500" font-size="73" transform="matrix(1 0 0 1 4816.57 859)">予習</text></g></g><g clip-path="url(#clip132)"><g clip-path="url(#clip133)"><text font-family="Yu Gothic,Yu Gothic_MSFontService,sans-serif" font-weight="500" font-size="73" transform="matrix(1 0 0 1 4963.24 859)">, </text></g></g><g clip-path="url(#clip134)"><g clip-path="url(#clip135)"><text font-family="Yu Gothic,Yu Gothic_MSFontService,sans-serif" font-weight="500" font-size="73" transform="matrix(1 0 0 1 5003.14 859)">復習</text></g></g><g clip-path="url(#clip136)"><g clip-path="url(#clip137)"><text font-family="Yu Gothic,Yu Gothic_MSFontService,sans-serif" font-weight="500" font-size="73" transform="matrix(1 0 0 1 5149.8 859)">, </text></g></g><g clip-path="url(#clip138)"><g clip-path="url(#clip139)"><text font-family="Yu Gothic,Yu Gothic_MSFontService,sans-serif" font-weight="500" font-size="73" transform="matrix(1 0 0 1 5189.7 859)">課題など</text></g></g><g clip-path="url(#clip140)"><g clip-path="url(#clip141)"><text font-family="Yu Gothic,Yu Gothic_MSFontService,sans-serif" font-weight="500" font-size="73" transform="matrix(1 0 0 1 5483.03 859)">)</text></g></g><g clip-path="url(#clip142)"><g clip-path="url(#clip143)"><text font-family="Yu Gothic,Yu Gothic_MSFontService,sans-serif" font-weight="500" font-size="73" transform="matrix(1 0 0 1 5510.9 859)">で平均週何時間程度</text></g></g><g clip-path="url(#clip144)"><text font-family="Yu Gothic,Yu Gothic_MSFontService,sans-serif" font-weight="500" font-size="73" transform="matrix(1 0 0 1 3322.04 982)">の時間を大学の勉強に使いましたか？</text></g></g></svg>