<svg width="2990" height="1308" xmlns="http://www.w3.org/2000/svg" xmlns:xlink="http://www.w3.org/1999/xlink" overflow="hidden"><defs><clipPath id="clip0"><rect x="2702" y="367" width="2990" height="1308"/></clipPath><clipPath id="clip1"><rect x="2703" y="369" width="2986" height="1302"/></clipPath><clipPath id="clip2"><rect x="3343" y="635" width="1582" height="895"/></clipPath><clipPath id="clip3"><rect x="3343" y="635" width="1582" height="895"/></clipPath><clipPath id="clip4"><rect x="3343" y="635" width="1582" height="895"/></clipPath><clipPath id="clip5"><rect x="3343" y="635" width="1582" height="895"/></clipPath><clipPath id="clip6"><rect x="3343" y="635" width="1582" height="895"/></clipPath><clipPath id="clip7"><rect x="3343" y="635" width="1582" height="895"/></clipPath><clipPath id="clip8"><rect x="3343" y="635" width="1582" height="895"/></clipPath><clipPath id="clip9"><rect x="2703" y="369" width="2986" height="1302"/></clipPath><clipPath id="clip10"><rect x="2703" y="369" width="2986" height="1302"/></clipPath><clipPath id="clip11"><rect x="2703" y="369" width="2986" height="1302"/></clipPath><clipPath id="clip12"><rect x="2703" y="369" width="2986" height="1302"/></clipPath><clipPath id="clip13"><rect x="2703" y="369" width="2986" height="1302"/></clipPath><clipPath id="clip14"><rect x="2703" y="369" width="2986" height="1302"/></clipPath><clipPath id="clip15"><rect x="2703" y="369" width="2986" height="1302"/></clipPath><clipPath id="clip16"><rect x="2703" y="369" width="2986" height="1302"/></clipPath><clipPath id="clip17"><rect x="2703" y="369" width="2986" height="1302"/></clipPath><clipPath id="clip18"><rect x="2703" y="369" width="2986" height="1302"/></clipPath><clipPath id="clip19"><rect x="2703" y="369" width="2986" height="1302"/></clipPath><clipPath id="clip20"><rect x="2703" y="369" width="2986" height="1302"/></clipPath><clipPath id="clip21"><rect x="2703" y="369" width="2986" height="1302"/></clipPath><clipPath id="clip22"><rect x="2703" y="369" width="2986" height="1302"/></clipPath><clipPath id="clip23"><rect x="2703" y="369" width="2986" height="1302"/></clipPath><clipPath id="clip24"><rect x="2703" y="369" width="2986" height="1302"/></clipPath><clipPath id="clip25"><rect x="2703" y="369" width="2986" height="1302"/></clipPath><clipPath id="clip26"><rect x="2703" y="369" width="2986" height="1302"/></clipPath><clipPath id="clip27"><rect x="2703" y="369" width="2986" height="1302"/></clipPath><clipPath id="clip28"><rect x="2703" y="369" width="2986" height="1302"/></clipPath><clipPath id="clip29"><rect x="2703" y="369" width="2986" height="1302"/></clipPath><clipPath id="clip30"><rect x="2703" y="369" width="2986" height="1302"/></clipPath><clipPath id="clip31"><rect x="2703" y="369" width="2986" height="1302"/></clipPath><clipPath id="clip32"><rect x="2703" y="369" width="2986" height="1302"/></clipPath><clipPath id="clip33"><rect x="2703" y="369" width="2986" height="1302"/></clipPath><clipPath id="clip34"><rect x="2703" y="369" width="2986" height="1302"/></clipPath><clipPath id="clip35"><rect x="2703" y="369" width="2986" height="1302"/></clipPath><clipPath id="clip36"><rect x="2703" y="369" width="2986" height="1302"/></clipPath><clipPath id="clip37"><rect x="2703" y="369" width="2986" height="1302"/></clipPath><clipPath id="clip38"><rect x="2703" y="369" width="2986" height="1302"/></clipPath><clipPath id="clip39"><rect x="2703" y="369" width="2986" height="1302"/></clipPath><clipPath id="clip40"><rect x="2703" y="369" width="2986" height="1302"/></clipPath><clipPath id="clip41"><rect x="2703" y="369" width="2986" height="1302"/></clipPath><clipPath id="clip42"><rect x="2703" y="369" width="2986" height="1302"/></clipPath><clipPath id="clip43"><rect x="2703" y="369" width="2986" height="1302"/></clipPath><clipPath id="clip44"><rect x="2703" y="369" width="2986" height="1302"/></clipPath><clipPath id="clip45"><rect x="2703" y="369" width="2986" height="1302"/></clipPath><clipPath id="clip46"><rect x="1891" y="1374" width="2477" height="150"/></clipPath><clipPath id="clip47"><rect x="2703" y="369" width="2986" height="1302"/></clipPath><clipPath id="clip48"><rect x="1891" y="1374" width="2477" height="150"/></clipPath><clipPath id="clip49"><rect x="2703" y="369" width="2986" height="1302"/></clipPath><clipPath id="clip50"><rect x="1764" y="1225" width="2699" height="150"/></clipPath><clipPath id="clip51"><rect x="2703" y="369" width="2986" height="1302"/></clipPath><clipPath id="clip52"><rect x="1764" y="1225" width="2699" height="150"/></clipPath><clipPath id="clip53"><rect x="2703" y="369" width="2986" height="1302"/></clipPath><clipPath id="clip54"><rect x="1178" y="1077" width="3724" height="149"/></clipPath><clipPath id="clip55"><rect x="2703" y="369" width="2986" height="1302"/></clipPath><clipPath id="clip56"><rect x="1178" y="1077" width="3724" height="149"/></clipPath><clipPath id="clip57"><rect x="2703" y="369" width="2986" height="1302"/></clipPath><clipPath id="clip58"><rect x="1178" y="1077" width="3724" height="149"/></clipPath><clipPath id="clip59"><rect x="2703" y="369" width="2986" height="1302"/></clipPath><clipPath id="clip60"><rect x="1178" y="1077" width="3724" height="149"/></clipPath><clipPath id="clip61"><rect x="2703" y="369" width="2986" height="1302"/></clipPath><clipPath id="clip62"><rect x="1637" y="928" width="2921" height="150"/></clipPath><clipPath id="clip63"><rect x="2703" y="369" width="2986" height="1302"/></clipPath><clipPath id="clip64"><rect x="1637" y="928" width="2921" height="150"/></clipPath><clipPath id="clip65"><rect x="2703" y="369" width="2986" height="1302"/></clipPath><clipPath id="clip66"><rect x="1637" y="928" width="2921" height="150"/></clipPath><clipPath id="clip67"><rect x="2703" y="369" width="2986" height="1302"/></clipPath><clipPath id="clip68"><rect x="1637" y="928" width="2921" height="150"/></clipPath><clipPath id="clip69"><rect x="2703" y="369" width="2986" height="1302"/></clipPath><clipPath id="clip70"><rect x="1637" y="780" width="2921" height="149"/></clipPath><clipPath id="clip71"><rect x="2703" y="369" width="2986" height="1302"/></clipPath><clipPath id="clip72"><rect x="1637" y="780" width="2921" height="149"/></clipPath><clipPath id="clip73"><rect x="2703" y="369" width="2986" height="1302"/></clipPath><clipPath id="clip74"><rect x="1637" y="780" width="2921" height="149"/></clipPath><clipPath id="clip75"><rect x="2703" y="369" width="2986" height="1302"/></clipPath><clipPath id="clip76"><rect x="1637" y="780" width="2921" height="149"/></clipPath><clipPath id="clip77"><rect x="2703" y="369" width="2986" height="1302"/></clipPath><clipPath id="clip78"><rect x="1866" y="631" width="2521" height="150"/></clipPath><clipPath id="clip79"><rect x="2703" y="369" width="2986" height="1302"/></clipPath><clipPath id="clip80"><rect x="1866" y="631" width="2521" height="150"/></clipPath><clipPath id="clip81"><rect x="2703" y="369" width="2986" height="1302"/></clipPath><clipPath id="clip82"><rect x="2703" y="369" width="2986" height="1302"/></clipPath><clipPath id="clip83"><rect x="2703" y="369" width="2986" height="1302"/></clipPath><clipPath id="clip84"><rect x="2703" y="369" width="2986" height="1302"/></clipPath><clipPath id="clip85"><rect x="2703" y="369" width="2986" height="1302"/></clipPath><clipPath id="clip86"><rect x="2703" y="369" width="2986" height="1302"/></clipPath><clipPath id="clip87"><rect x="2703" y="369" width="2986" height="1302"/></clipPath><clipPath id="clip88"><rect x="2703" y="369" width="2986" height="1302"/></clipPath><clipPath id="clip89"><rect x="2703" y="369" width="2986" height="1302"/></clipPath><clipPath id="clip90"><rect x="2703" y="369" width="2986" height="1302"/></clipPath><clipPath id="clip91"><rect x="2703" y="369" width="2986" height="1302"/></clipPath><clipPath id="clip92"><rect x="2703" y="369" width="2986" height="1302"/></clipPath><clipPath id="clip93"><rect x="2703" y="369" width="2987" height="1303"/></clipPath><clipPath id="clip94"><rect x="-5777" y="377" width="19926" height="412"/></clipPath><clipPath id="clip95"><rect x="2703" y="369" width="2987" height="1303"/></clipPath><clipPath id="clip96"><rect x="-5777" y="377" width="19926" height="412"/></clipPath><clipPath id="clip97"><rect x="2703" y="369" width="2987" height="1303"/></clipPath><clipPath id="clip98"><rect x="-5777" y="377" width="19926" height="412"/></clipPath><clipPath id="clip99"><rect x="2703" y="369" width="2987" height="1303"/></clipPath><clipPath id="clip100"><rect x="2703" y="369" width="2987" height="1303"/></clipPath><clipPath id="clip101"><rect x="2703" y="369" width="2987" height="1303"/></clipPath><clipPath id="clip102"><rect x="2703" y="369" width="2987" height="1303"/></clipPath><clipPath id="clip103"><rect x="4714" y="650" width="884" height="124"/></clipPath><clipPath id="clip104"><rect x="2703" y="369" width="2987" height="1303"/></clipPath><clipPath id="clip105"><rect x="2703" y="369" width="2987" height="1303"/></clipPath><clipPath id="clip106"><rect x="2703" y="369" width="2987" height="1303"/></clipPath><clipPath id="clip107"><rect x="2703" y="369" width="2987" height="1303"/></clipPath><clipPath id="clip108"><rect x="2703" y="369" width="2987" height="1303"/></clipPath><clipPath id="clip109"><rect x="2703" y="369" width="2987" height="1303"/></clipPath><clipPath id="clip110"><rect x="4146" y="1470" width="2022" height="202"/></clipPath><clipPath id="clip111"><rect x="2703" y="369" width="2987" height="1303"/></clipPath></defs><g clip-path="url(#clip0)" transform="translate(-2702 -367)"><rect x="2704" y="369" width="2985" height="1303" fill="#FFFFFF"/><g clip-path="url(#clip1)"><path d="M3738.62 635.5 3738.62 1527.5M4132.64 635.5 4132.64 1527.5M4527.65 635.5 4527.65 1527.5M4922.5 635.5 4922.5 1527.5" stroke="#D9D9D9" stroke-width="4.58333" stroke-linejoin="round" stroke-miterlimit="10" fill="none"/></g><g clip-path="url(#clip2)"><path d="M3448.5 758.5 3343.5 758.5 3343.5 661.5 3448.5 661.5Z" stroke="#000000" stroke-width="4.58333" stroke-linejoin="round" stroke-miterlimit="10" fill="#FFFFFF"/></g><g clip-path="url(#clip3)"><path d="M3442.61 1352.54 3343.5 1352.54 3343.5 1255.54 3442.61 1255.54ZM4132.64 1055.53 3343.5 1055.53 3343.5 958.532 4132.64 958.532ZM3456.61 907.53 3343.5 907.53 3343.5 810.527 3456.61 810.527Z" stroke="#000000" stroke-width="4.58333" stroke-linejoin="round" stroke-miterlimit="10" fill="#FFFFFF"/></g><g clip-path="url(#clip4)"><path d="M3817.5 758.5 3448.5 758.5 3448.5 661.5 3817.5 661.5Z" stroke="#000000" stroke-width="4.58333" stroke-linejoin="round" stroke-miterlimit="10" fill="#DEEBF7"/></g><g clip-path="url(#clip5)"><path d="M3659.62 1501.55 3343.5 1501.55 3343.5 1404.55 3659.62 1404.55ZM3836.63 1352.54 3442.61 1352.54 3442.61 1255.54 3836.63 1255.54ZM3568.62 1204.54 3343.5 1204.54 3343.5 1107.54 3568.62 1107.54ZM4922.66 1055.53 4132.64 1055.53 4132.64 958.532 4922.66 958.532ZM3794.62 907.53 3456.61 907.53 3456.61 810.527 3794.62 810.527Z" stroke="#000000" stroke-width="4.58333" stroke-linejoin="round" stroke-miterlimit="10" fill="#DEEBF7"/></g><g clip-path="url(#clip6)"><path d="M4290.64 1501.55 3659.62 1501.55 3659.62 1404.55 4290.64 1404.55ZM4280.64 1352.54 3836.63 1352.54 3836.63 1255.54 4280.64 1255.54ZM3794.62 1204.54 3568.62 1204.54 3568.62 1107.54 3794.62 1107.54ZM4584.65 907.53 3794.62 907.53 3794.62 810.527 4584.65 810.527ZM4317.64 758.525 3817.63 758.525 3817.63 661.522 4317.64 661.522Z" stroke="#000000" stroke-width="4.58333" stroke-linejoin="round" stroke-miterlimit="10" fill="#BDD7EE"/></g><g clip-path="url(#clip7)"><path d="M4606.65 1501.55 4290.64 1501.55 4290.64 1404.55 4606.65 1404.55ZM4428.65 1352.54 4280.64 1352.54 4280.64 1255.54 4428.65 1255.54ZM4471.65 1204.54 3794.62 1204.54 3794.62 1107.54 4471.65 1107.54ZM4696.65 907.53 4584.65 907.53 4584.65 810.527 4696.65 810.527ZM4527.65 758.525 4317.64 758.525 4317.64 661.522 4527.65 661.522Z" stroke="#000000" stroke-width="4.58333" stroke-linejoin="round" stroke-miterlimit="10" fill="#4CA0E6"/></g><g clip-path="url(#clip8)"><path d="M4922.66 1501.55 4606.65 1501.55 4606.65 1404.55 4922.66 1404.55ZM4922.66 1352.54 4428.65 1352.54 4428.65 1255.54 4922.66 1255.54ZM4922.66 1204.54 4471.65 1204.54 4471.65 1107.54 4922.66 1107.54ZM4922.66 907.53 4696.65 907.53 4696.65 810.527 4922.66 810.527ZM4922.66 758.525 4527.65 758.525 4527.65 661.522 4922.66 661.522Z" stroke="#000000" stroke-width="4.58333" stroke-linejoin="round" stroke-miterlimit="10" fill="#095085"/></g><g clip-path="url(#clip9)"><path d="M0 0 0.000360892 892" stroke="#D9D9D9" stroke-width="3.4375" stroke-linejoin="round" stroke-miterlimit="10" fill="none" fill-rule="evenodd" transform="matrix(1 0 0 -1 3343.5 1527.5)"/></g><g clip-path="url(#clip10)"><text fill="#404040" font-family="Yu Gothic,Yu Gothic_MSFontService,sans-serif" font-weight="700" font-size="55" transform="matrix(1 0 0 1 3327.77 1472)">0</text></g><g clip-path="url(#clip11)"><text fill="#404040" font-family="Yu Gothic,Yu Gothic_MSFontService,sans-serif" font-weight="700" font-size="55" transform="matrix(1 0 0 1 3377.12 1323)">2</text></g><g clip-path="url(#clip12)"><text fill="#404040" font-family="Yu Gothic,Yu Gothic_MSFontService,sans-serif" font-weight="700" font-size="55" transform="matrix(1 0 0 1 3327.77 1175)">0</text></g><g clip-path="url(#clip13)"><text fill="#404040" font-family="Yu Gothic,Yu Gothic_MSFontService,sans-serif" font-weight="700" font-size="55" transform="matrix(1 0 0 1 3722.52 1026)">1</text></g><g clip-path="url(#clip14)"><text fill="#404040" font-family="Yu Gothic,Yu Gothic_MSFontService,sans-serif" font-weight="700" font-size="55" transform="matrix(1 0 0 1 3384.17 878)">1</text></g><g clip-path="url(#clip15)"><text fill="#404040" font-family="Yu Gothic,Yu Gothic_MSFontService,sans-serif" font-weight="700" font-size="55" transform="matrix(1 0 0 1 3380.41 729)">4</text></g><g clip-path="url(#clip16)"><text fill="#404040" font-family="Yu Gothic,Yu Gothic_MSFontService,sans-serif" font-weight="700" font-size="55" transform="matrix(1 0 0 1 3485.67 1472)">1</text></g><g clip-path="url(#clip17)"><text fill="#404040" font-family="Yu Gothic,Yu Gothic_MSFontService,sans-serif" font-weight="700" font-size="55" transform="matrix(1 0 0 1 3623.83 1323)">8</text></g><g clip-path="url(#clip18)"><text fill="#404040" font-family="Yu Gothic,Yu Gothic_MSFontService,sans-serif" font-weight="700" font-size="55" transform="matrix(1 0 0 1 3440.56 1175)">1</text></g><g clip-path="url(#clip19)"><text fill="#404040" font-family="Yu Gothic,Yu Gothic_MSFontService,sans-serif" font-weight="700" font-size="55" transform="matrix(1 0 0 1 4512 1026)">1</text></g><g clip-path="url(#clip20)"><text fill="#404040" font-family="Yu Gothic,Yu Gothic_MSFontService,sans-serif" font-weight="700" font-size="55" transform="matrix(1 0 0 1 3609.73 878)">3</text></g><g clip-path="url(#clip21)"><text fill="#404040" font-family="Yu Gothic,Yu Gothic_MSFontService,sans-serif" font-weight="700" font-size="55" transform="matrix(1 0 0 1 3601.48 729)">14</text></g><g clip-path="url(#clip22)"><text fill="#404040" font-family="Yu Gothic,Yu Gothic_MSFontService,sans-serif" font-weight="700" font-size="55" transform="matrix(1 0 0 1 3959.36 1472)">2</text></g><g clip-path="url(#clip23)"><text fill="#404040" font-family="Yu Gothic,Yu Gothic_MSFontService,sans-serif" font-weight="700" font-size="55" transform="matrix(1 0 0 1 4043.24 1323)">9</text></g><g clip-path="url(#clip24)"><text fill="#404040" font-family="Yu Gothic,Yu Gothic_MSFontService,sans-serif" font-weight="700" font-size="55" transform="matrix(1 0 0 1 3666.12 1175)">1</text></g><g clip-path="url(#clip25)"><text fill="#404040" font-family="Yu Gothic,Yu Gothic_MSFontService,sans-serif" font-weight="700" font-size="55" transform="matrix(1 0 0 1 4906.74 1026)">0</text></g><g clip-path="url(#clip26)"><text fill="#404040" font-family="Yu Gothic,Yu Gothic_MSFontService,sans-serif" font-weight="700" font-size="55" transform="matrix(1 0 0 1 4173.65 878)">7</text></g><g clip-path="url(#clip27)"><text fill="#404040" font-family="Yu Gothic,Yu Gothic_MSFontService,sans-serif" font-weight="700" font-size="55" transform="matrix(1 0 0 1 4035.7 729)">19</text></g><g clip-path="url(#clip28)"><text fill="#404040" font-family="Yu Gothic,Yu Gothic_MSFontService,sans-serif" font-weight="700" font-size="55" transform="matrix(1 0 0 1 4433.05 1472)">1</text></g><g clip-path="url(#clip29)"><text fill="#404040" font-family="Yu Gothic,Yu Gothic_MSFontService,sans-serif" font-weight="700" font-size="55" transform="matrix(1 0 0 1 4339.3 1323)">3</text></g><g clip-path="url(#clip30)"><text fill="#404040" font-family="Yu Gothic,Yu Gothic_MSFontService,sans-serif" font-weight="700" font-size="55" transform="matrix(1 0 0 1 4117.26 1175)">3</text></g><g clip-path="url(#clip31)"><text fill="#404040" font-family="Yu Gothic,Yu Gothic_MSFontService,sans-serif" font-weight="700" font-size="55" transform="matrix(1 0 0 1 4906.74 1026)">0</text></g><g clip-path="url(#clip32)"><text fill="#404040" font-family="Yu Gothic,Yu Gothic_MSFontService,sans-serif" font-weight="700" font-size="55" transform="matrix(1 0 0 1 4624.78 878)">1</text></g><g clip-path="url(#clip33)"><text fill="#404040" font-family="Yu Gothic,Yu Gothic_MSFontService,sans-serif" font-weight="700" font-size="55" transform="matrix(1 0 0 1 4406.73 729)">8</text></g><g clip-path="url(#clip34)"><text fill="#FFFFFF" font-family="Yu Gothic,Yu Gothic_MSFontService,sans-serif" font-weight="700" font-size="55" transform="matrix(1 0 0 1 4748.84 1472)">1</text></g><g clip-path="url(#clip35)"><text fill="#FFFFFF" font-family="Yu Gothic,Yu Gothic_MSFontService,sans-serif" font-weight="700" font-size="55" transform="matrix(1 0 0 1 4644.26 1323)">10</text></g><g clip-path="url(#clip36)"><text fill="#FFFFFF" font-family="Yu Gothic,Yu Gothic_MSFontService,sans-serif" font-weight="700" font-size="55" transform="matrix(1 0 0 1 4681.17 1175)">2</text></g><g clip-path="url(#clip37)"><text fill="#404040" font-family="Yu Gothic,Yu Gothic_MSFontService,sans-serif" font-weight="700" font-size="55" transform="matrix(1 0 0 1 4906.74 1026)">0</text></g><g clip-path="url(#clip38)"><text fill="#FFFFFF" font-family="Yu Gothic,Yu Gothic_MSFontService,sans-serif" font-weight="700" font-size="55" transform="matrix(1 0 0 1 4793.96 878)">2</text></g><g clip-path="url(#clip39)"><text fill="#FFFFFF" font-family="Yu Gothic,Yu Gothic_MSFontService,sans-serif" font-weight="700" font-size="55" transform="matrix(1 0 0 1 4693.6 729)">15</text></g><g clip-path="url(#clip40)"><text fill="#595959" font-family="Yu Gothic,Yu Gothic_MSFontService,sans-serif" font-weight="500" font-size="60" transform="matrix(1 0 0 1 3303.05 1626)">0%</text></g><g clip-path="url(#clip41)"><text fill="#595959" font-family="Yu Gothic,Yu Gothic_MSFontService,sans-serif" font-weight="500" font-size="60" transform="matrix(1 0 0 1 3681.25 1626)">25%</text></g><g clip-path="url(#clip42)"><text fill="#595959" font-family="Yu Gothic,Yu Gothic_MSFontService,sans-serif" font-weight="500" font-size="60" transform="matrix(1 0 0 1 4076 1626)">50%</text></g><g clip-path="url(#clip43)"><text fill="#595959" font-family="Yu Gothic,Yu Gothic_MSFontService,sans-serif" font-weight="500" font-size="60" transform="matrix(1 0 0 1 4470.74 1626)">75%</text></g><g clip-path="url(#clip44)"><text fill="#595959" font-family="Yu Gothic,Yu Gothic_MSFontService,sans-serif" font-weight="500" font-size="60" transform="matrix(1 0 0 1 4848.94 1626)">100%</text></g><g clip-path="url(#clip45)"><g clip-path="url(#clip46)"><text fill="#595959" font-family="Yu Gothic,Yu Gothic_MSFontService,sans-serif" font-weight="500" font-size="57" transform="matrix(1 0 0 1 2952.56 1469)">その他</text></g></g><g clip-path="url(#clip47)"><g clip-path="url(#clip48)"><text fill="#595959" font-family="Yu Gothic,Yu Gothic_MSFontService,sans-serif" font-weight="500" font-size="57" transform="matrix(1 0 0 1 3124.44 1469)">(n=25)</text></g></g><g clip-path="url(#clip49)"><g clip-path="url(#clip50)"><text fill="#595959" font-family="Yu Gothic,Yu Gothic_MSFontService,sans-serif" font-weight="500" font-size="57" transform="matrix(1 0 0 1 2920.75 1320)">大学院</text></g></g><g clip-path="url(#clip51)"><g clip-path="url(#clip52)"><text fill="#595959" font-family="Yu Gothic,Yu Gothic_MSFontService,sans-serif" font-weight="500" font-size="57" transform="matrix(1 0 0 1 3092.63 1320)">(n=693)</text></g></g><g clip-path="url(#clip53)"><g clip-path="url(#clip54)"><text fill="#595959" font-family="Yu Gothic,Yu Gothic_MSFontService,sans-serif" font-weight="500" font-size="57" transform="matrix(1 0 0 1 2774.36 1172)">学部</text></g></g><g clip-path="url(#clip55)"><g clip-path="url(#clip56)"><text fill="#595959" font-family="Yu Gothic,Yu Gothic_MSFontService,sans-serif" font-weight="500" font-size="57" transform="matrix(1 0 0 1 2888.95 1172)">3</text></g></g><g clip-path="url(#clip57)"><g clip-path="url(#clip58)"><text fill="#595959" font-family="Yu Gothic,Yu Gothic_MSFontService,sans-serif" font-weight="500" font-size="57" transform="matrix(1 0 0 1 2920.75 1172)">年以上</text></g></g><g clip-path="url(#clip59)"><g clip-path="url(#clip60)"><text fill="#595959" font-family="Yu Gothic,Yu Gothic_MSFontService,sans-serif" font-weight="500" font-size="57" transform="matrix(1 0 0 1 3092.63 1172)">(n=403)</text></g></g><g clip-path="url(#clip61)"><g clip-path="url(#clip62)"><text fill="#595959" font-family="Yu Gothic,Yu Gothic_MSFontService,sans-serif" font-weight="500" font-size="57" transform="matrix(1 0 0 1 2888.95 1023)">学部</text></g></g><g clip-path="url(#clip63)"><g clip-path="url(#clip64)"><text fill="#595959" font-family="Yu Gothic,Yu Gothic_MSFontService,sans-serif" font-weight="500" font-size="57" transform="matrix(1 0 0 1 3003.53 1023)">2</text></g></g><g clip-path="url(#clip65)"><g clip-path="url(#clip66)"><text fill="#595959" font-family="Yu Gothic,Yu Gothic_MSFontService,sans-serif" font-weight="500" font-size="57" transform="matrix(1 0 0 1 3035.34 1023)">年</text></g></g><g clip-path="url(#clip67)"><g clip-path="url(#clip68)"><text fill="#595959" font-family="Yu Gothic,Yu Gothic_MSFontService,sans-serif" font-weight="500" font-size="57" transform="matrix(1 0 0 1 3092.63 1023)">(n=260)</text></g></g><g clip-path="url(#clip69)"><g clip-path="url(#clip70)"><text fill="#595959" font-family="Yu Gothic,Yu Gothic_MSFontService,sans-serif" font-weight="500" font-size="57" transform="matrix(1 0 0 1 2888.95 875)">学部</text></g></g><g clip-path="url(#clip71)"><g clip-path="url(#clip72)"><text fill="#595959" font-family="Yu Gothic,Yu Gothic_MSFontService,sans-serif" font-weight="500" font-size="57" transform="matrix(1 0 0 1 3003.53 875)">1</text></g></g><g clip-path="url(#clip73)"><g clip-path="url(#clip74)"><text fill="#595959" font-family="Yu Gothic,Yu Gothic_MSFontService,sans-serif" font-weight="500" font-size="57" transform="matrix(1 0 0 1 3035.34 875)">年</text></g></g><g clip-path="url(#clip75)"><g clip-path="url(#clip76)"><text fill="#595959" font-family="Yu Gothic,Yu Gothic_MSFontService,sans-serif" font-weight="500" font-size="57" transform="matrix(1 0 0 1 3092.63 875)">(n=246)</text></g></g><g clip-path="url(#clip77)"><g clip-path="url(#clip78)"><text fill="#595959" font-family="Yu Gothic,Yu Gothic_MSFontService,sans-serif" font-weight="500" font-size="57" transform="matrix(1 0 0 1 2946.24 726)">全体</text></g></g><g clip-path="url(#clip79)"><g clip-path="url(#clip80)"><text fill="#595959" font-family="Yu Gothic,Yu Gothic_MSFontService,sans-serif" font-weight="500" font-size="57" transform="matrix(1 0 0 1 3060.82 726)">(n=1627)</text></g></g><g clip-path="url(#clip81)"><rect x="5323.5" y="711.5" width="29" height="28.9999" stroke="#000000" stroke-width="4.58333" stroke-linejoin="round" stroke-miterlimit="10" fill="#FFFFFF"/></g><g clip-path="url(#clip82)"><text fill="#595959" font-family="Yu Gothic,Yu Gothic_MSFontService,sans-serif" font-weight="500" font-size="50" transform="matrix(1 0 0 1 5365.33 740)">大変良かった</text></g><g clip-path="url(#clip83)"><rect x="5323.5" y="873.5" width="29" height="28.9999" stroke="#000000" stroke-width="4.58333" stroke-linejoin="round" stroke-miterlimit="10" fill="#DEEBF7"/></g><g clip-path="url(#clip84)"><text fill="#595959" font-family="Yu Gothic,Yu Gothic_MSFontService,sans-serif" font-weight="500" font-size="50" transform="matrix(1 0 0 1 5365.33 902)">良かった</text></g><g clip-path="url(#clip85)"><rect x="5323.5" y="1034.5" width="29" height="29.0002" stroke="#000000" stroke-width="4.58333" stroke-linejoin="round" stroke-miterlimit="10" fill="#BDD7EE"/></g><g clip-path="url(#clip86)"><text fill="#595959" font-family="Yu Gothic,Yu Gothic_MSFontService,sans-serif" font-weight="500" font-size="50" transform="matrix(1 0 0 1 5365.33 1063)">どちらとも</text></g><g clip-path="url(#clip87)"><text fill="#595959" font-family="Yu Gothic,Yu Gothic_MSFontService,sans-serif" font-weight="500" font-size="50" transform="matrix(1 0 0 1 5365.33 1147)">いえない</text></g><g clip-path="url(#clip88)"><rect x="5323.5" y="1196.5" width="29" height="28.9999" stroke="#000000" stroke-width="4.58333" stroke-linejoin="round" stroke-miterlimit="10" fill="#4CA0E6"/></g><g clip-path="url(#clip89)"><text fill="#595959" font-family="Yu Gothic,Yu Gothic_MSFontService,sans-serif" font-weight="500" font-size="50" transform="matrix(1 0 0 1 5365.33 1225)">良くなかった</text></g><g clip-path="url(#clip90)"><rect x="5323.5" y="1357.5" width="29" height="29.9999" stroke="#000000" stroke-width="4.58333" stroke-linejoin="round" stroke-miterlimit="10" fill="#095085"/></g><g clip-path="url(#clip91)"><text fill="#595959" font-family="Yu Gothic,Yu Gothic_MSFontService,sans-serif" font-weight="500" font-size="50" transform="matrix(1 0 0 1 5365.33 1387)">全く</text></g><g clip-path="url(#clip92)"><text fill="#595959" font-family="Yu Gothic,Yu Gothic_MSFontService,sans-serif" font-weight="500" font-size="50" transform="matrix(1 0 0 1 5365.33 1471)">良くなかった</text></g><rect x="2704.5" y="369.5" width="2985" height="1303" stroke="#000000" stroke-width="4.58333" stroke-linejoin="round" stroke-miterlimit="10" fill="none"/><g clip-path="url(#clip93)"><g clip-path="url(#clip94)"><text font-family="Yu Gothic,Yu Gothic_MSFontService,sans-serif" font-weight="500" font-size="73" transform="matrix(1 0 0 1 2762.58 481)">【授業方法別の評価】</text></g></g><g clip-path="url(#clip95)"><g clip-path="url(#clip96)"><text font-family="Yu Gothic,Yu Gothic_MSFontService,sans-serif" font-weight="500" font-size="73" transform="matrix(1 0 0 1 3495.91 481)">5.</text></g></g><g clip-path="url(#clip97)"><g clip-path="url(#clip98)"><text font-family="Yu Gothic,Yu Gothic_MSFontService,sans-serif" font-weight="500" font-size="73" transform="matrix(1 0 0 1 3555.61 481)">パブリックビューイング方式（ほぼ全員の学生が教室に集まり</text></g></g><g clip-path="url(#clip99)"><text font-family="Yu Gothic,Yu Gothic_MSFontService,sans-serif" font-weight="500" font-size="73" transform="matrix(1 0 0 1 2762.58 604)">教員の遠隔授業をプロジェクタで投影）</text></g><g clip-path="url(#clip100)"><path d="M5000.5 653.5 5004.14 1638.65" stroke="#7F7F7F" stroke-width="4.58333" stroke-miterlimit="8" stroke-dasharray="18.3333 13.75" fill="none" fill-rule="evenodd"/></g><g clip-path="url(#clip101)"><rect x="5003" y="657" width="303" height="996" fill="#F2F2F2"/></g><g clip-path="url(#clip102)"><g clip-path="url(#clip103)"><text font-family="Yu Gothic,Yu Gothic_MSFontService,sans-serif" font-weight="700" font-size="55" transform="matrix(1 0 0 1 5092.97 732)">1567</text></g></g><g clip-path="url(#clip104)"><text fill="#404040" font-family="Yu Gothic,Yu Gothic_MSFontService,sans-serif" font-weight="700" font-size="55" transform="matrix(1 0 0 1 5104.68 878)">232</text></g><g clip-path="url(#clip105)"><text fill="#404040" font-family="Yu Gothic,Yu Gothic_MSFontService,sans-serif" font-weight="700" font-size="55" transform="matrix(1 0 0 1 5108.74 1024)">258</text></g><g clip-path="url(#clip106)"><text fill="#404040" font-family="Yu Gothic,Yu Gothic_MSFontService,sans-serif" font-weight="700" font-size="55" transform="matrix(1 0 0 1 5108.74 1170)">396</text></g><g clip-path="url(#clip107)"><text fill="#404040" font-family="Yu Gothic,Yu Gothic_MSFontService,sans-serif" font-weight="700" font-size="55" transform="matrix(1 0 0 1 5108.74 1316)">661</text></g><g clip-path="url(#clip108)"><text fill="#404040" font-family="Yu Gothic,Yu Gothic_MSFontService,sans-serif" font-weight="700" font-size="55" transform="matrix(1 0 0 1 5124.5 1462)">20</text></g><g clip-path="url(#clip109)"><g clip-path="url(#clip110)"><text font-family="Yu Gothic,Yu Gothic_MSFontService,sans-serif" font-weight="400" font-size="41" transform="matrix(1 0 0 1 5012.71 1536)">この形式の授業</text></g></g><g clip-path="url(#clip111)"><text font-family="Yu Gothic,Yu Gothic_MSFontService,sans-serif" font-weight="400" font-size="41" transform="matrix(1 0 0 1 5074.56 1605)">を未受講</text></g></g></svg>