<svg width="2983" height="1232" xmlns="http://www.w3.org/2000/svg" xmlns:xlink="http://www.w3.org/1999/xlink" overflow="hidden"><defs><clipPath id="clip0"><rect x="1082" y="1146" width="2983" height="1232"/></clipPath><clipPath id="clip1"><rect x="1084" y="1147" width="2978" height="1228"/></clipPath><clipPath id="clip2"><rect x="2175" y="1499" width="1608" height="727"/></clipPath><clipPath id="clip3"><rect x="2175" y="1499" width="1608" height="727"/></clipPath><clipPath id="clip4"><rect x="2175" y="1499" width="1608" height="727"/></clipPath><clipPath id="clip5"><rect x="2175" y="1499" width="1608" height="727"/></clipPath><clipPath id="clip6"><rect x="2175" y="1499" width="1608" height="727"/></clipPath><clipPath id="clip7"><rect x="1084" y="1147" width="2978" height="1228"/></clipPath><clipPath id="clip8"><rect x="1084" y="1147" width="2978" height="1228"/></clipPath><clipPath id="clip9"><rect x="1959" y="2120" width="516" height="62"/></clipPath><clipPath id="clip10"><rect x="1084" y="1147" width="2978" height="1228"/></clipPath><clipPath id="clip11"><rect x="1084" y="1147" width="2978" height="1228"/></clipPath><clipPath id="clip12"><rect x="1084" y="1147" width="2978" height="1228"/></clipPath><clipPath id="clip13"><rect x="1084" y="1147" width="2978" height="1228"/></clipPath><clipPath id="clip14"><rect x="1084" y="1147" width="2978" height="1228"/></clipPath><clipPath id="clip15"><rect x="2025" y="2046" width="516" height="66"/></clipPath><clipPath id="clip16"><rect x="1084" y="1147" width="2978" height="1228"/></clipPath><clipPath id="clip17"><rect x="1084" y="1147" width="2978" height="1228"/></clipPath><clipPath id="clip18"><rect x="1084" y="1147" width="2978" height="1228"/></clipPath><clipPath id="clip19"><rect x="1084" y="1147" width="2978" height="1228"/></clipPath><clipPath id="clip20"><rect x="1084" y="1147" width="2978" height="1228"/></clipPath><clipPath id="clip21"><rect x="1084" y="1147" width="2978" height="1228"/></clipPath><clipPath id="clip22"><rect x="1084" y="1147" width="2978" height="1228"/></clipPath><clipPath id="clip23"><rect x="1084" y="1147" width="2978" height="1228"/></clipPath><clipPath id="clip24"><rect x="1084" y="1147" width="2978" height="1228"/></clipPath><clipPath id="clip25"><rect x="1084" y="1147" width="2978" height="1228"/></clipPath><clipPath id="clip26"><rect x="1084" y="1147" width="2978" height="1228"/></clipPath><clipPath id="clip27"><rect x="1084" y="1147" width="2978" height="1228"/></clipPath><clipPath id="clip28"><rect x="1084" y="1147" width="2978" height="1228"/></clipPath><clipPath id="clip29"><rect x="1084" y="1147" width="2978" height="1228"/></clipPath><clipPath id="clip30"><rect x="1084" y="1147" width="2978" height="1228"/></clipPath><clipPath id="clip31"><rect x="1084" y="1147" width="2978" height="1228"/></clipPath><clipPath id="clip32"><rect x="1084" y="1147" width="2978" height="1228"/></clipPath><clipPath id="clip33"><rect x="1084" y="1147" width="2978" height="1228"/></clipPath><clipPath id="clip34"><rect x="1084" y="1147" width="2978" height="1228"/></clipPath><clipPath id="clip35"><rect x="1084" y="1147" width="2978" height="1228"/></clipPath><clipPath id="clip36"><rect x="1084" y="1147" width="2978" height="1228"/></clipPath><clipPath id="clip37"><rect x="1084" y="1147" width="2978" height="1228"/></clipPath><clipPath id="clip38"><rect x="1084" y="1147" width="2978" height="1228"/></clipPath><clipPath id="clip39"><rect x="1084" y="1147" width="2978" height="1228"/></clipPath><clipPath id="clip40"><rect x="1084" y="1147" width="2978" height="1228"/></clipPath><clipPath id="clip41"><rect x="1084" y="1147" width="2978" height="1228"/></clipPath><clipPath id="clip42"><rect x="1084" y="1147" width="2978" height="1228"/></clipPath><clipPath id="clip43"><rect x="1084" y="1147" width="2978" height="1228"/></clipPath><clipPath id="clip44"><rect x="1084" y="1147" width="2978" height="1228"/></clipPath><clipPath id="clip45"><rect x="1084" y="1147" width="2978" height="1228"/></clipPath><clipPath id="clip46"><rect x="31" y="1930" width="3466" height="146"/></clipPath><clipPath id="clip47"><rect x="1084" y="1147" width="2978" height="1228"/></clipPath><clipPath id="clip48"><rect x="31" y="1930" width="3466" height="146"/></clipPath><clipPath id="clip49"><rect x="1084" y="1147" width="2978" height="1228"/></clipPath><clipPath id="clip50"><rect x="31" y="1930" width="3466" height="146"/></clipPath><clipPath id="clip51"><rect x="1084" y="1147" width="2978" height="1228"/></clipPath><clipPath id="clip52"><rect x="31" y="1930" width="3466" height="146"/></clipPath><clipPath id="clip53"><rect x="1084" y="1147" width="2978" height="1228"/></clipPath><clipPath id="clip54"><rect x="1084" y="1147" width="2978" height="1228"/></clipPath><clipPath id="clip55"><rect x="1084" y="1147" width="2978" height="1228"/></clipPath><clipPath id="clip56"><rect x="-1516" y="1496" width="6174" height="146"/></clipPath><clipPath id="clip57"><rect x="1084" y="1147" width="2978" height="1228"/></clipPath><clipPath id="clip58"><rect x="-1516" y="1496" width="6174" height="146"/></clipPath><clipPath id="clip59"><rect x="1084" y="1147" width="2978" height="1228"/></clipPath><clipPath id="clip60"><rect x="-1516" y="1496" width="6174" height="146"/></clipPath><clipPath id="clip61"><rect x="1084" y="1147" width="2978" height="1228"/></clipPath><clipPath id="clip62"><rect x="-1516" y="1496" width="6174" height="146"/></clipPath><clipPath id="clip63"><rect x="1084" y="1147" width="2978" height="1228"/></clipPath><clipPath id="clip64"><rect x="-1516" y="1496" width="6174" height="146"/></clipPath><clipPath id="clip65"><rect x="1084" y="1147" width="2978" height="1228"/></clipPath><clipPath id="clip66"><rect x="1084" y="1147" width="2978" height="1228"/></clipPath><clipPath id="clip67"><rect x="1084" y="1147" width="2978" height="1228"/></clipPath><clipPath id="clip68"><rect x="1084" y="1147" width="2978" height="1228"/></clipPath><clipPath id="clip69"><rect x="1084" y="1147" width="2978" height="1228"/></clipPath><clipPath id="clip70"><rect x="1084" y="1147" width="2978" height="1228"/></clipPath><clipPath id="clip71"><rect x="1084" y="1147" width="2978" height="1228"/></clipPath><clipPath id="clip72"><rect x="1084" y="1147" width="2978" height="1228"/></clipPath><clipPath id="clip73"><rect x="1084" y="1147" width="2978" height="1228"/></clipPath><clipPath id="clip74"><rect x="1084" y="1147" width="2978" height="1228"/></clipPath><clipPath id="clip75"><rect x="1084" y="1147" width="2978" height="1228"/></clipPath><clipPath id="clip76"><rect x="1084" y="1147" width="2978" height="1228"/></clipPath><clipPath id="clip77"><rect x="1084" y="1147" width="2978" height="1228"/></clipPath><clipPath id="clip78"><rect x="1084" y="1147" width="2978" height="1228"/></clipPath><clipPath id="clip79"><rect x="1084" y="1147" width="2978" height="1228"/></clipPath><clipPath id="clip80"><rect x="1084" y="1147" width="2978" height="1228"/></clipPath><clipPath id="clip81"><rect x="1084" y="1147" width="2978" height="1228"/></clipPath><clipPath id="clip82"><rect x="1084" y="1147" width="2979" height="1229"/></clipPath><clipPath id="clip83"><rect x="1084" y="1147" width="2979" height="1229"/></clipPath><clipPath id="clip84"><rect x="1084" y="1147" width="2979" height="1229"/></clipPath><clipPath id="clip85"><rect x="1084" y="1147" width="2979" height="1229"/></clipPath><clipPath id="clip86"><rect x="1084" y="1147" width="2979" height="1229"/></clipPath><clipPath id="clip87"><rect x="1084" y="1147" width="2979" height="1229"/></clipPath><clipPath id="clip88"><rect x="1084" y="1147" width="2979" height="1229"/></clipPath><clipPath id="clip89"><rect x="1084" y="1147" width="2979" height="1229"/></clipPath><clipPath id="clip90"><rect x="41" y="2071" width="6943" height="196"/></clipPath><clipPath id="clip91"><rect x="1084" y="1147" width="2979" height="1229"/></clipPath><clipPath id="clip92"><rect x="41" y="2071" width="6943" height="196"/></clipPath><clipPath id="clip93"><rect x="1084" y="1147" width="2979" height="1229"/></clipPath><clipPath id="clip94"><rect x="41" y="2071" width="6943" height="196"/></clipPath><clipPath id="clip95"><rect x="1084" y="1147" width="2979" height="1229"/></clipPath><clipPath id="clip96"><rect x="41" y="2071" width="6943" height="196"/></clipPath><clipPath id="clip97"><rect x="1084" y="1147" width="2979" height="1229"/></clipPath><clipPath id="clip98"><rect x="41" y="2071" width="6943" height="196"/></clipPath><clipPath id="clip99"><rect x="1084" y="1147" width="2979" height="1229"/></clipPath><clipPath id="clip100"><rect x="41" y="2071" width="6943" height="196"/></clipPath><clipPath id="clip101"><rect x="1084" y="1147" width="2979" height="1229"/></clipPath><clipPath id="clip102"><rect x="41" y="2071" width="6943" height="196"/></clipPath><clipPath id="clip103"><rect x="1084" y="1147" width="2979" height="1229"/></clipPath><clipPath id="clip104"><rect x="41" y="2071" width="6943" height="196"/></clipPath><clipPath id="clip105"><rect x="1084" y="1147" width="2979" height="1229"/></clipPath><clipPath id="clip106"><rect x="41" y="2071" width="6943" height="196"/></clipPath><clipPath id="clip107"><rect x="1084" y="1147" width="2979" height="1229"/></clipPath><clipPath id="clip108"><rect x="1084" y="1147" width="2979" height="1229"/></clipPath><clipPath id="clip109"><rect x="1084" y="1147" width="2979" height="1229"/></clipPath><clipPath id="clip110"><rect x="1084" y="1147" width="2979" height="1229"/></clipPath><clipPath id="clip111"><rect x="1084" y="1147" width="2979" height="1229"/></clipPath><clipPath id="clip112"><rect x="-319" y="1764" width="3466" height="89"/></clipPath><clipPath id="clip113"><rect x="1084" y="1147" width="2979" height="1229"/></clipPath><clipPath id="clip114"><rect x="1084" y="1147" width="2979" height="1229"/></clipPath><clipPath id="clip115"><rect x="-1345" y="1462" width="5784" height="222"/></clipPath><clipPath id="clip116"><rect x="1084" y="1147" width="2979" height="1229"/></clipPath><clipPath id="clip117"><rect x="-1345" y="1462" width="5784" height="222"/></clipPath><clipPath id="clip118"><rect x="1084" y="1147" width="2979" height="1229"/></clipPath><clipPath id="clip119"><rect x="-1345" y="1462" width="5784" height="222"/></clipPath><clipPath id="clip120"><rect x="1084" y="1147" width="2979" height="1229"/></clipPath><clipPath id="clip121"><rect x="-1345" y="1462" width="5784" height="222"/></clipPath><clipPath id="clip122"><rect x="1084" y="1147" width="2979" height="1229"/></clipPath><clipPath id="clip123"><rect x="1084" y="1147" width="2979" height="1229"/></clipPath><clipPath id="clip124"><rect x="-35" y="1765" width="3466" height="171"/></clipPath><clipPath id="clip125"><rect x="1084" y="1147" width="2979" height="1229"/></clipPath><clipPath id="clip126"><rect x="1084" y="1147" width="2979" height="1229"/></clipPath><clipPath id="clip127"><rect x="-686" y="1897" width="4621" height="223"/></clipPath><clipPath id="clip128"><rect x="1084" y="1147" width="2979" height="1229"/></clipPath><clipPath id="clip129"><rect x="-686" y="1897" width="4621" height="223"/></clipPath><clipPath id="clip130"><rect x="1084" y="1147" width="2979" height="1229"/></clipPath><clipPath id="clip131"><rect x="-686" y="1897" width="4621" height="223"/></clipPath><clipPath id="clip132"><rect x="1084" y="1147" width="2979" height="1229"/></clipPath><clipPath id="clip133"><rect x="-686" y="1897" width="4621" height="223"/></clipPath><clipPath id="clip134"><rect x="1084" y="1147" width="2979" height="1229"/></clipPath><clipPath id="clip135"><rect x="1084" y="1147" width="2979" height="1229"/></clipPath><clipPath id="clip136"><rect x="-788" y="2076" width="4806" height="93"/></clipPath><clipPath id="clip137"><rect x="1084" y="1147" width="2979" height="1229"/></clipPath><clipPath id="clip138"><rect x="-788" y="2076" width="4806" height="93"/></clipPath><clipPath id="clip139"><rect x="1084" y="1147" width="2979" height="1229"/></clipPath><clipPath id="clip140"><rect x="-788" y="2076" width="4806" height="93"/></clipPath><clipPath id="clip141"><rect x="1084" y="1147" width="2979" height="1229"/></clipPath><clipPath id="clip142"><rect x="1084" y="1147" width="2979" height="1229"/></clipPath><clipPath id="clip143"><rect x="1084" y="1147" width="2979" height="1229"/></clipPath><clipPath id="clip144"><rect x="1084" y="1147" width="2979" height="1229"/></clipPath><clipPath id="clip145"><rect x="1084" y="1147" width="2979" height="1229"/></clipPath><clipPath id="clip146"><rect x="1084" y="1147" width="2979" height="1229"/></clipPath><clipPath id="clip147"><rect x="1084" y="1147" width="2979" height="1229"/></clipPath><clipPath id="clip148"><rect x="1084" y="1147" width="2979" height="1229"/></clipPath><clipPath id="clip149"><rect x="-917" y="1651" width="5006" height="126"/></clipPath></defs><g clip-path="url(#clip0)" transform="translate(-1082 -1146)"><rect x="1084" y="1148" width="2978" height="1227" fill="#FFFFFF"/><g clip-path="url(#clip1)"><path d="M2576.58 1499.5 2576.58 2223.5M2977.6 1499.5 2977.6 2223.5M3378.61 1499.5 3378.61 2223.5M3779.5 1499.5 3779.5 2223.5" stroke="#D9D9D9" stroke-width="3.4375" stroke-linejoin="round" stroke-miterlimit="10" fill="none"/></g><g clip-path="url(#clip2)"><path d="M2258.57 2196.57 2175.5 2196.57 2175.5 2105.57 2258.57 2105.57ZM2284.57 2051.57 2175.5 2051.57 2175.5 1961.56 2284.57 1961.56ZM2404.58 1906.56 2175.5 1906.56 2175.5 1816.56 2404.58 1816.56ZM2378.58 1761.56 2175.5 1761.56 2175.5 1671.55 2378.58 1671.55ZM2438.58 1617.55 2175.5 1617.55 2175.5 1526.55 2438.58 1526.55Z" stroke="#000000" stroke-width="4.58333" stroke-linejoin="round" stroke-miterlimit="10" fill="#FFFFFF"/></g><g clip-path="url(#clip3)"><path d="M2300.58 2196.57 2258.57 2196.57 2258.57 2105.57 2300.58 2105.57ZM2382.58 2051.57 2284.57 2051.57 2284.57 1961.56 2382.58 1961.56ZM2592.59 1906.56 2404.58 1906.56 2404.58 1816.56 2592.59 1816.56ZM2584.58 1761.56 2378.58 1761.56 2378.58 1671.55 2584.58 1671.55ZM2751.59 1617.55 2438.58 1617.55 2438.58 1526.55 2751.59 1526.55Z" stroke="#000000" stroke-width="4.58333" stroke-linejoin="round" stroke-miterlimit="10" fill="#DEEEFA"/></g><g clip-path="url(#clip4)"><path d="M2424.58 2196.57 2300.58 2196.57 2300.58 2105.57 2424.58 2105.57ZM2534.58 2051.57 2382.58 2051.57 2382.58 1961.56 2534.58 1961.56ZM2777.59 1906.56 2592.59 1906.56 2592.59 1816.56 2777.59 1816.56ZM2853.59 1761.56 2584.58 1761.56 2584.58 1671.55 2853.59 1671.55ZM3077.6 1617.55 2751.59 1617.55 2751.59 1526.55 3077.6 1526.55Z" stroke="#000000" stroke-width="4.58333" stroke-linejoin="round" stroke-miterlimit="10" fill="#AFD6F3"/></g><g clip-path="url(#clip5)"><path d="M2636.59 2196.57 2424.58 2196.57 2424.58 2105.57 2636.59 2105.57ZM2767.59 2051.57 2534.58 2051.57 2534.58 1961.56 2767.59 1961.56ZM2971.6 1906.56 2777.59 1906.56 2777.59 1816.56 2971.6 1816.56ZM3158.6 1761.56 2853.59 1761.56 2853.59 1671.55 3158.6 1671.55ZM3537.62 1617.55 3077.6 1617.55 3077.6 1526.55 3537.62 1526.55Z" stroke="#000000" stroke-width="4.58333" stroke-linejoin="round" stroke-miterlimit="10" fill="#51A1E6"/></g><g clip-path="url(#clip6)"><path d="M2648.59 2196.57 2636.59 2196.57 2636.59 2105.57 2648.59 2105.57ZM2771.59 2051.57 2767.59 2051.57 2767.59 1961.56 2771.59 1961.56ZM2973.6 1906.56 2971.6 1906.56 2971.6 1816.56 2973.6 1816.56ZM3176.6 1761.56 3158.6 1761.56 3158.6 1671.55 3176.6 1671.55ZM3561.62 1617.55 3537.62 1617.55 3537.62 1526.55 3561.62 1526.55Z" stroke="#000000" stroke-width="4.58333" stroke-linejoin="round" stroke-miterlimit="10" fill="#145288"/></g><g clip-path="url(#clip7)"><path d="M0 0 0.000360892 724" stroke="#D9D9D9" stroke-width="3.4375" stroke-linejoin="round" stroke-miterlimit="10" fill="none" fill-rule="evenodd" transform="matrix(1 0 0 -1 2175.5 2223.5)"/></g><g clip-path="url(#clip8)"><g clip-path="url(#clip9)"><text fill="#404040" font-family="Yu Gothic,Yu Gothic_MSFontService,sans-serif" font-weight="700" font-size="64" transform="matrix(1 0 0 1 2180.21 2173)">41</text></g></g><g clip-path="url(#clip10)"><text fill="#404040" font-family="Yu Gothic,Yu Gothic_MSFontService,sans-serif" font-weight="700" font-size="64" transform="matrix(1 0 0 1 2193.24 2029)">54</text></g><g clip-path="url(#clip11)"><text fill="#404040" font-family="Yu Gothic,Yu Gothic_MSFontService,sans-serif" font-weight="700" font-size="64" transform="matrix(1 0 0 1 2234.99 1884)">114</text></g><g clip-path="url(#clip12)"><text fill="#404040" font-family="Yu Gothic,Yu Gothic_MSFontService,sans-serif" font-weight="700" font-size="64" transform="matrix(1 0 0 1 2221.96 1739)">101</text></g><g clip-path="url(#clip13)"><text fill="#404040" font-family="Yu Gothic,Yu Gothic_MSFontService,sans-serif" font-weight="700" font-size="64" transform="matrix(1 0 0 1 2252.03 1594)">131</text></g><g clip-path="url(#clip14)"><g clip-path="url(#clip15)"><text fill="#404040" font-family="Yu Gothic,Yu Gothic_MSFontService,sans-serif" font-weight="700" font-size="64" transform="matrix(1 0 0 1 2246.51 2101)">21</text></g></g><g clip-path="url(#clip16)"><text fill="#404040" font-family="Yu Gothic,Yu Gothic_MSFontService,sans-serif" font-weight="700" font-size="64" transform="matrix(1 0 0 1 2296.49 2029)">49</text></g><g clip-path="url(#clip17)"><text fill="#404040" font-family="Yu Gothic,Yu Gothic_MSFontService,sans-serif" font-weight="700" font-size="64" transform="matrix(1 0 0 1 2461.88 1884)">94</text></g><g clip-path="url(#clip18)"><text fill="#404040" font-family="Yu Gothic,Yu Gothic_MSFontService,sans-serif" font-weight="700" font-size="64" transform="matrix(1 0 0 1 2426.45 1739)">103</text></g><g clip-path="url(#clip19)"><text fill="#404040" font-family="Yu Gothic,Yu Gothic_MSFontService,sans-serif" font-weight="700" font-size="64" transform="matrix(1 0 0 1 2539.72 1594)">156</text></g><g clip-path="url(#clip20)"><text fill="#404040" font-family="Yu Gothic,Yu Gothic_MSFontService,sans-serif" font-weight="700" font-size="64" transform="matrix(1 0 0 1 2325.56 2173)">62</text></g><g clip-path="url(#clip21)"><text fill="#404040" font-family="Yu Gothic,Yu Gothic_MSFontService,sans-serif" font-weight="700" font-size="64" transform="matrix(1 0 0 1 2421.79 2029)">76</text></g><g clip-path="url(#clip22)"><text fill="#404040" font-family="Yu Gothic,Yu Gothic_MSFontService,sans-serif" font-weight="700" font-size="64" transform="matrix(1 0 0 1 2648.33 1884)">92</text></g><g clip-path="url(#clip23)"><text fill="#404040" font-family="Yu Gothic,Yu Gothic_MSFontService,sans-serif" font-weight="700" font-size="64" transform="matrix(1 0 0 1 2664.02 1739)">134</text></g><g clip-path="url(#clip24)"><text fill="#404040" font-family="Yu Gothic,Yu Gothic_MSFontService,sans-serif" font-weight="700" font-size="64" transform="matrix(1 0 0 1 2859.49 1594)">163</text></g><g clip-path="url(#clip25)"><text fill="#404040" font-family="Yu Gothic,Yu Gothic_MSFontService,sans-serif" font-weight="700" font-size="64" transform="matrix(1 0 0 1 2475.57 2173)">106</text></g><g clip-path="url(#clip26)"><text fill="#404040" font-family="Yu Gothic,Yu Gothic_MSFontService,sans-serif" font-weight="700" font-size="64" transform="matrix(1 0 0 1 2595.86 2029)">116</text></g><g clip-path="url(#clip27)"><text fill="#404040" font-family="Yu Gothic,Yu Gothic_MSFontService,sans-serif" font-weight="700" font-size="64" transform="matrix(1 0 0 1 2837.78 1884)">97</text></g><g clip-path="url(#clip28)"><text fill="#404040" font-family="Yu Gothic,Yu Gothic_MSFontService,sans-serif" font-weight="700" font-size="64" transform="matrix(1 0 0 1 2950.71 1739)">152</text></g><g clip-path="url(#clip29)"><text fill="#404040" font-family="Yu Gothic,Yu Gothic_MSFontService,sans-serif" font-weight="700" font-size="64" transform="matrix(1 0 0 1 3252.43 1594)">229</text></g><g clip-path="url(#clip30)"><path d="M2771.5 2006.5 2782.59 2006.5 2803.5 2006.5" stroke="#A6A6A6" stroke-width="3.4375" stroke-linejoin="round" stroke-miterlimit="10" fill="none"/></g><g clip-path="url(#clip31)"><path d="M2973.5 1862.5 2986.6 1861.5 3007.5 1861.5" stroke="#A6A6A6" stroke-width="3.4375" stroke-linejoin="round" stroke-miterlimit="10" fill="none"/></g><g clip-path="url(#clip32)"><text fill="#404040" font-family="Yu Gothic,Yu Gothic_MSFontService,sans-serif" font-weight="700" font-size="64" transform="matrix(1 0 0 1 2661.09 2173)">6</text></g><g clip-path="url(#clip33)"><text fill="#404040" font-family="Yu Gothic,Yu Gothic_MSFontService,sans-serif" font-weight="700" font-size="64" transform="matrix(1 0 0 1 2817.42 2029)">2</text></g><g clip-path="url(#clip34)"><text fill="#404040" font-family="Yu Gothic,Yu Gothic_MSFontService,sans-serif" font-weight="700" font-size="64" transform="matrix(1 0 0 1 3020.91 1884)">1</text></g><g clip-path="url(#clip35)"><text fill="#404040" font-family="Yu Gothic,Yu Gothic_MSFontService,sans-serif" font-weight="700" font-size="64" transform="matrix(1 0 0 1 3197.08 1739)">9</text></g><g clip-path="url(#clip36)"><text fill="#404040" font-family="Yu Gothic,Yu Gothic_MSFontService,sans-serif" font-weight="700" font-size="64" transform="matrix(1 0 0 1 3574.32 1594)">12</text></g><g clip-path="url(#clip37)"><text fill="#595959" font-family="Yu Gothic,Yu Gothic_MSFontService,sans-serif" font-weight="500" font-size="64" transform="matrix(1 0 0 1 2158.09 2330)">0</text></g><g clip-path="url(#clip38)"><text fill="#595959" font-family="Yu Gothic,Yu Gothic_MSFontService,sans-serif" font-weight="500" font-size="64" transform="matrix(1 0 0 1 2523.43 2330)">200</text></g><g clip-path="url(#clip39)"><text fill="#595959" font-family="Yu Gothic,Yu Gothic_MSFontService,sans-serif" font-weight="500" font-size="64" transform="matrix(1 0 0 1 2924.39 2330)">400</text></g><g clip-path="url(#clip40)"><text fill="#595959" font-family="Yu Gothic,Yu Gothic_MSFontService,sans-serif" font-weight="500" font-size="64" transform="matrix(1 0 0 1 3325.35 2330)">600</text></g><g clip-path="url(#clip41)"><text fill="#595959" font-family="Yu Gothic,Yu Gothic_MSFontService,sans-serif" font-weight="500" font-size="64" transform="matrix(1 0 0 1 3726.31 2330)">800</text></g><g clip-path="url(#clip42)"><text fill="#595959" font-family="Yu Gothic,Yu Gothic_MSFontService,sans-serif" font-weight="500" font-size="41" transform="matrix(1 0 0 1 1497.17 2163)">常時カメラ</text></g><g clip-path="url(#clip43)"><text fill="#595959" font-family="Yu Gothic,Yu Gothic_MSFontService,sans-serif" font-weight="500" font-size="41" transform="matrix(1 0 0 1 1703.42 2163)">ON</text></g><g clip-path="url(#clip44)"><text fill="#595959" font-family="Yu Gothic,Yu Gothic_MSFontService,sans-serif" font-weight="500" font-size="41" transform="matrix(1 0 0 1 1764.49 2163)">を求められた</text></g><g clip-path="url(#clip45)"><g clip-path="url(#clip46)"><text fill="#595959" font-family="Yu Gothic,Yu Gothic_MSFontService,sans-serif" font-weight="500" font-size="41" transform="matrix(1 0 0 1 1516.99 1983)">授業時間が守られなかった</text></g></g><g clip-path="url(#clip47)"><g clip-path="url(#clip48)"><text fill="#595959" font-family="Yu Gothic,Yu Gothic_MSFontService,sans-serif" font-weight="500" font-size="41" transform="matrix(1 0 0 1 1604.44 2052)">(</text></g></g><g clip-path="url(#clip49)"><g clip-path="url(#clip50)"><text fill="#595959" font-family="Yu Gothic,Yu Gothic_MSFontService,sans-serif" font-weight="500" font-size="41" transform="matrix(1 0 0 1 1620.12 2052)">授業が延びる等</text></g></g><g clip-path="url(#clip51)"><g clip-path="url(#clip52)"><text fill="#595959" font-family="Yu Gothic,Yu Gothic_MSFontService,sans-serif" font-weight="500" font-size="41" transform="matrix(1 0 0 1 1908.87 2052)">)</text></g></g><g clip-path="url(#clip53)"><text fill="#595959" font-family="Yu Gothic,Yu Gothic_MSFontService,sans-serif" font-weight="500" font-size="41" transform="matrix(1 0 0 1 1640.74 1873)">課題の量が多すぎた</text></g><g clip-path="url(#clip54)"><text fill="#595959" font-family="Yu Gothic,Yu Gothic_MSFontService,sans-serif" font-weight="500" font-size="41" transform="matrix(1 0 0 1 1475.74 1728)">講義資料が提供されなかった</text></g><g clip-path="url(#clip55)"><g clip-path="url(#clip56)"><text fill="#595959" font-family="Yu Gothic,Yu Gothic_MSFontService,sans-serif" font-weight="500" font-size="41" transform="matrix(1 0 0 1 1130.07 1549)">講義録画が提供されなかった</text></g></g><g clip-path="url(#clip57)"><g clip-path="url(#clip58)"><text fill="#595959" font-family="Yu Gothic,Yu Gothic_MSFontService,sans-serif" font-weight="500" font-size="41" transform="matrix(1 0 0 1 1666.32 1549)">(</text></g></g><g clip-path="url(#clip59)"><g clip-path="url(#clip60)"><text fill="#595959" font-family="Yu Gothic,Yu Gothic_MSFontService,sans-serif" font-weight="500" font-size="41" transform="matrix(1 0 0 1 1681.99 1549)">または見るための</text></g></g><g clip-path="url(#clip61)"><g clip-path="url(#clip62)"><text fill="#595959" font-family="Yu Gothic,Yu Gothic_MSFontService,sans-serif" font-weight="500" font-size="41" transform="matrix(1 0 0 1 1295.07 1618)">手順が面倒で見られなかった</text></g></g><g clip-path="url(#clip63)"><g clip-path="url(#clip64)"><text fill="#595959" font-family="Yu Gothic,Yu Gothic_MSFontService,sans-serif" font-weight="500" font-size="41" transform="matrix(1 0 0 1 1831.32 1618)">)</text></g></g><g clip-path="url(#clip65)"><rect x="3488" y="1663" width="564" height="404" fill="#FFFFFF"/></g><g clip-path="url(#clip66)"><rect x="3537.5" y="1685.5" width="37.0002" height="37.0001" stroke="#000000" stroke-width="4.58333" stroke-linejoin="round" stroke-miterlimit="10" fill="#FFFFFF"/></g><g clip-path="url(#clip67)"><text fill="#595959" font-family="Yu Gothic,Yu Gothic_MSFontService,sans-serif" font-weight="500" font-size="64" transform="matrix(1 0 0 1 3591.74 1721)">学部</text></g><g clip-path="url(#clip68)"><text fill="#595959" font-family="Yu Gothic,Yu Gothic_MSFontService,sans-serif" font-weight="500" font-size="64" transform="matrix(1 0 0 1 3720.07 1721)">1</text></g><g clip-path="url(#clip69)"><text fill="#595959" font-family="Yu Gothic,Yu Gothic_MSFontService,sans-serif" font-weight="500" font-size="64" transform="matrix(1 0 0 1 3755.68 1721)">年生</text></g><g clip-path="url(#clip70)"><rect x="3537.5" y="1765.5" width="37.0002" height="37.0001" stroke="#000000" stroke-width="4.58333" stroke-linejoin="round" stroke-miterlimit="10" fill="#DEEEFA"/></g><g clip-path="url(#clip71)"><text fill="#595959" font-family="Yu Gothic,Yu Gothic_MSFontService,sans-serif" font-weight="500" font-size="64" transform="matrix(1 0 0 1 3591.74 1802)">学部</text></g><g clip-path="url(#clip72)"><text fill="#595959" font-family="Yu Gothic,Yu Gothic_MSFontService,sans-serif" font-weight="500" font-size="64" transform="matrix(1 0 0 1 3720.07 1802)">2</text></g><g clip-path="url(#clip73)"><text fill="#595959" font-family="Yu Gothic,Yu Gothic_MSFontService,sans-serif" font-weight="500" font-size="64" transform="matrix(1 0 0 1 3755.68 1802)">年生</text></g><g clip-path="url(#clip74)"><rect x="3537.5" y="1846.5" width="37.0002" height="36.9998" stroke="#000000" stroke-width="4.58333" stroke-linejoin="round" stroke-miterlimit="10" fill="#AFD6F3"/></g><g clip-path="url(#clip75)"><text fill="#595959" font-family="Yu Gothic,Yu Gothic_MSFontService,sans-serif" font-weight="500" font-size="64" transform="matrix(1 0 0 1 3591.74 1883)">学部</text></g><g clip-path="url(#clip76)"><text fill="#595959" font-family="Yu Gothic,Yu Gothic_MSFontService,sans-serif" font-weight="500" font-size="64" transform="matrix(1 0 0 1 3720.07 1883)">3</text></g><g clip-path="url(#clip77)"><text fill="#595959" font-family="Yu Gothic,Yu Gothic_MSFontService,sans-serif" font-weight="500" font-size="64" transform="matrix(1 0 0 1 3755.68 1883)">年生以上</text></g><g clip-path="url(#clip78)"><rect x="3537.5" y="1927.5" width="37.0002" height="37.0001" stroke="#000000" stroke-width="4.58333" stroke-linejoin="round" stroke-miterlimit="10" fill="#51A1E6"/></g><g clip-path="url(#clip79)"><text fill="#595959" font-family="Yu Gothic,Yu Gothic_MSFontService,sans-serif" font-weight="500" font-size="64" transform="matrix(1 0 0 1 3591.74 1963)">大学院</text></g><g clip-path="url(#clip80)"><rect x="3537.5" y="2007.5" width="37.0002" height="37.0001" stroke="#000000" stroke-width="4.58333" stroke-linejoin="round" stroke-miterlimit="10" fill="#145288"/></g><g clip-path="url(#clip81)"><text fill="#595959" font-family="Yu Gothic,Yu Gothic_MSFontService,sans-serif" font-weight="500" font-size="64" transform="matrix(1 0 0 1 3591.74 2044)">その他</text></g><rect x="1084.5" y="1148.5" width="2978" height="1227" stroke="#000000" stroke-width="4.58333" stroke-linejoin="round" stroke-miterlimit="10" fill="none"/><g clip-path="url(#clip82)"><text font-family="Yu Gothic,Yu Gothic_MSFontService,sans-serif" font-weight="500" font-size="73" transform="matrix(1 0 0 1 1135.55 1266)">【やめてほしいと思った点】受講したオンライン授業で実際に経験し，「やめてほし</text></g><g clip-path="url(#clip83)"><text font-family="Yu Gothic,Yu Gothic_MSFontService,sans-serif" font-weight="500" font-size="73" transform="matrix(1 0 0 1 1135.55 1389)">い」と思ったことがあればチェックしてください</text></g><g clip-path="url(#clip84)"><text font-family="Yu Gothic,Yu Gothic_MSFontService,sans-serif" font-weight="500" font-size="73" transform="matrix(1 0 0 1 2769.8 1389)">(</text></g><g clip-path="url(#clip85)"><text font-family="Yu Gothic,Yu Gothic_MSFontService,sans-serif" font-weight="500" font-size="73" transform="matrix(1 0 0 1 2797.67 1389)">複数選択可</text></g><g clip-path="url(#clip86)"><text font-family="Yu Gothic,Yu Gothic_MSFontService,sans-serif" font-weight="500" font-size="73" transform="matrix(1 0 0 1 3164.34 1389)">)</text></g><g clip-path="url(#clip87)"><text font-family="Yu Gothic,Yu Gothic_MSFontService,sans-serif" font-weight="500" font-size="73" transform="matrix(1 0 0 1 3192.2 1389)">．</text></g><g clip-path="url(#clip88)"><rect x="2996" y="2072" width="1045" height="195" fill="#FFFFFF" fill-opacity="0.698039"/></g><g clip-path="url(#clip89)"><g clip-path="url(#clip90)"><text fill="#595959" font-family="Yu Gothic,Yu Gothic_MSFontService,sans-serif" font-weight="400" font-size="69" transform="matrix(1 0 0 1 3486.89 2147)">(</text></g></g><g clip-path="url(#clip91)"><g clip-path="url(#clip92)"><text fill="#595959" font-family="Yu Gothic,Yu Gothic_MSFontService,sans-serif" font-weight="400" font-size="69" transform="matrix(1 0 0 1 3513.45 2147)">回答数</text></g></g><g clip-path="url(#clip93)"><g clip-path="url(#clip94)"><text fill="#595959" font-family="Yu Gothic,Yu Gothic_MSFontService,sans-serif" font-weight="400" font-size="69" transform="matrix(1 0 0 1 3739.29 2147)">n=1198)</text></g></g><g clip-path="url(#clip95)"><g clip-path="url(#clip96)"><text fill="#595959" font-family="Yu Gothic,Yu Gothic_MSFontService,sans-serif" font-weight="400" font-size="50" transform="matrix(1 0 0 1 3016.76 2217)">※</text></g></g><g clip-path="url(#clip97)"><g clip-path="url(#clip98)"><text fill="#595959" font-family="Yu Gothic,Yu Gothic_MSFontService,sans-serif" font-weight="400" font-size="50" transform="matrix(1 0 0 1 3067.17 2217)">その他</text></g></g><g clip-path="url(#clip99)"><g clip-path="url(#clip100)"><text fill="#595959" font-family="Yu Gothic,Yu Gothic_MSFontService,sans-serif" font-weight="400" font-size="50" transform="matrix(1 0 0 1 3218.42 2217)">，</text></g></g><g clip-path="url(#clip101)"><g clip-path="url(#clip102)"><text fill="#595959" font-family="Yu Gothic,Yu Gothic_MSFontService,sans-serif" font-weight="400" font-size="50" transform="matrix(1 0 0 1 3268.84 2217)">延べ</text></g></g><g clip-path="url(#clip103)"><g clip-path="url(#clip104)"><text fill="#595959" font-family="Yu Gothic,Yu Gothic_MSFontService,sans-serif" font-weight="400" font-size="50" transform="matrix(1 0 0 1 3369.67 2217)">110</text></g></g><g clip-path="url(#clip105)"><g clip-path="url(#clip106)"><text fill="#595959" font-family="Yu Gothic,Yu Gothic_MSFontService,sans-serif" font-weight="400" font-size="50" transform="matrix(1 0 0 1 3453.82 2217)">個の自由回答記述があり</text></g></g><g clip-path="url(#clip107)"><rect x="3893" y="2264" width="113" height="76" fill="#FFFFFF" fill-opacity="0.698039"/></g><g clip-path="url(#clip108)"><text fill="#595959" font-family="Yu Gothic,Yu Gothic_MSFontService,sans-serif" font-weight="400" font-size="60" transform="matrix(1 0 0 1 3926.3 2350)">人</text></g><g clip-path="url(#clip109)"><text fill="#595959" font-family="Yu Gothic,Yu Gothic_MSFontService,sans-serif" font-weight="500" font-size="64" transform="matrix(1 0 0 1 2012.63 1481)">全体</text></g><g clip-path="url(#clip110)"><rect x="1088" y="1764" width="606" height="89" fill="#FFFFFF"/></g><g clip-path="url(#clip111)"><g clip-path="url(#clip112)"><text fill="#595959" font-family="Yu Gothic,Yu Gothic_MSFontService,sans-serif" font-weight="400" font-size="55" transform="matrix(1 0 0 1 1166.07 1846)">講義資料が提供され</text></g></g><g clip-path="url(#clip113)"><rect x="1093" y="1463" width="900" height="220" fill="#FFFFFF"/></g><g clip-path="url(#clip114)"><g clip-path="url(#clip115)"><text fill="#595959" font-family="Yu Gothic,Yu Gothic_MSFontService,sans-serif" font-weight="400" font-size="50" transform="matrix(1 0 0 1 1133.56 1538)">講義録画が提供されなかった</text></g></g><g clip-path="url(#clip116)"><g clip-path="url(#clip117)"><text fill="#595959" font-family="Yu Gothic,Yu Gothic_MSFontService,sans-serif" font-weight="400" font-size="50" transform="matrix(1 0 0 1 1788.98 1538)">(</text></g></g><g clip-path="url(#clip118)"><g clip-path="url(#clip119)"><text fill="#595959" font-family="Yu Gothic,Yu Gothic_MSFontService,sans-serif" font-weight="400" font-size="50" transform="matrix(1 0 0 1 1808.46 1538)">または</text></g></g><g clip-path="url(#clip120)"><g clip-path="url(#clip121)"><text fill="#595959" font-family="Yu Gothic,Yu Gothic_MSFontService,sans-serif" font-weight="400" font-size="50" transform="matrix(1 0 0 1 1203.46 1623)">見るための手順が面倒で見られな</text></g></g><g clip-path="url(#clip122)"><rect x="1095" y="1766" width="884" height="170" fill="#FFFFFF"/></g><g clip-path="url(#clip123)"><g clip-path="url(#clip124)"><text fill="#595959" font-family="Yu Gothic,Yu Gothic_MSFontService,sans-serif" font-weight="400" font-size="55" transform="matrix(1 0 0 1 1450.98 1870)">課題の量が多すぎた</text></g></g><g clip-path="url(#clip125)"><rect x="1112" y="1897" width="875" height="223" fill="#FFFFFF"/></g><g clip-path="url(#clip126)"><g clip-path="url(#clip127)"><text fill="#595959" font-family="Yu Gothic,Yu Gothic_MSFontService,sans-serif" font-weight="400" font-size="55" transform="matrix(1 0 0 1 1294.22 1979)">授業時間が守られなかった</text></g></g><g clip-path="url(#clip128)"><g clip-path="url(#clip129)"><text fill="#595959" font-family="Yu Gothic,Yu Gothic_MSFontService,sans-serif" font-weight="400" font-size="55" transform="matrix(1 0 0 1 1526.74 2071)">(</text></g></g><g clip-path="url(#clip130)"><g clip-path="url(#clip131)"><text fill="#595959" font-family="Yu Gothic,Yu Gothic_MSFontService,sans-serif" font-weight="400" font-size="55" transform="matrix(1 0 0 1 1547.98 2071)">授業が延びる等</text></g></g><g clip-path="url(#clip132)"><g clip-path="url(#clip133)"><text fill="#595959" font-family="Yu Gothic,Yu Gothic_MSFontService,sans-serif" font-weight="400" font-size="55" transform="matrix(1 0 0 1 1932.98 2071)">)</text></g></g><g clip-path="url(#clip134)"><rect x="1180" y="2076" width="811" height="92.0002" fill="#FFFFFF"/></g><g clip-path="url(#clip135)"><g clip-path="url(#clip136)"><text fill="#595959" font-family="Yu Gothic,Yu Gothic_MSFontService,sans-serif" font-weight="400" font-size="55" transform="matrix(1 0 0 1 1271.91 2158)">常時カメラ</text></g></g><g clip-path="url(#clip137)"><g clip-path="url(#clip138)"><text fill="#595959" font-family="Yu Gothic,Yu Gothic_MSFontService,sans-serif" font-weight="400" font-size="55" transform="matrix(1 0 0 1 1546.91 2158)">ON</text></g></g><g clip-path="url(#clip139)"><g clip-path="url(#clip140)"><text fill="#595959" font-family="Yu Gothic,Yu Gothic_MSFontService,sans-serif" font-weight="400" font-size="55" transform="matrix(1 0 0 1 1628.31 2158)">を求められた</text></g></g><g clip-path="url(#clip141)"><rect x="1961" y="1508" width="205" height="734" fill="#FFFFFF"/></g><g clip-path="url(#clip142)"><text fill="#595959" font-family="Yu Gothic,Yu Gothic_MSFontService,sans-serif" font-weight="700" font-size="64" transform="matrix(1 0 0 1 2028.8 1879)">398</text></g><g clip-path="url(#clip143)"><text fill="#595959" font-family="Yu Gothic,Yu Gothic_MSFontService,sans-serif" font-weight="700" font-size="64" transform="matrix(1 0 0 1 2028.8 2029)">297</text></g><g clip-path="url(#clip144)"><text fill="#595959" font-family="Yu Gothic,Yu Gothic_MSFontService,sans-serif" font-weight="700" font-size="64" transform="matrix(1 0 0 1 2028.8 2170)">236</text></g><g clip-path="url(#clip145)"><text fill="#595959" font-family="Yu Gothic,Yu Gothic_MSFontService,sans-serif" font-weight="700" font-size="64" transform="matrix(1 0 0 1 2028.8 1741)">499</text></g><g clip-path="url(#clip146)"><text fill="#595959" font-family="Yu Gothic,Yu Gothic_MSFontService,sans-serif" font-weight="700" font-size="64" transform="matrix(1 0 0 1 2026.03 1590)">691</text></g><g clip-path="url(#clip147)"><rect x="1175" y="1652" width="801" height="125" fill="#FFFFFF"/></g><g clip-path="url(#clip148)"><g clip-path="url(#clip149)"><text fill="#595959" font-family="Yu Gothic,Yu Gothic_MSFontService,sans-serif" font-weight="400" font-size="55" transform="matrix(1 0 0 1 1228.24 1733)">講義資料が提供されなかった</text></g></g></g></svg>