<svg width="872" height="691" xmlns="http://www.w3.org/2000/svg" xmlns:xlink="http://www.w3.org/1999/xlink" overflow="hidden"><defs><clipPath id="clip0"><rect x="33" y="16" width="872" height="691"/></clipPath><clipPath id="clip1"><rect x="33" y="25" width="870" height="334"/></clipPath><clipPath id="clip2"><rect x="220" y="123" width="523" height="236"/></clipPath><clipPath id="clip3"><rect x="220" y="123" width="523" height="236"/></clipPath><clipPath id="clip4"><rect x="220" y="123" width="523" height="236"/></clipPath><clipPath id="clip5"><rect x="220" y="123" width="523" height="236"/></clipPath><clipPath id="clip6"><rect x="220" y="123" width="523" height="236"/></clipPath><clipPath id="clip7"><rect x="220" y="123" width="523" height="236"/></clipPath><clipPath id="clip8"><rect x="220" y="123" width="523" height="236"/></clipPath><clipPath id="clip9"><rect x="33" y="25" width="870" height="334"/></clipPath><clipPath id="clip10"><rect x="33" y="25" width="870" height="334"/></clipPath><clipPath id="clip11"><rect x="33" y="25" width="870" height="334"/></clipPath><clipPath id="clip12"><rect x="33" y="25" width="870" height="334"/></clipPath><clipPath id="clip13"><rect x="33" y="25" width="870" height="334"/></clipPath><clipPath id="clip14"><rect x="33" y="25" width="870" height="334"/></clipPath><clipPath id="clip15"><rect x="33" y="25" width="870" height="334"/></clipPath><clipPath id="clip16"><rect x="33" y="25" width="870" height="334"/></clipPath><clipPath id="clip17"><rect x="33" y="25" width="870" height="334"/></clipPath><clipPath id="clip18"><rect x="33" y="25" width="870" height="334"/></clipPath><clipPath id="clip19"><rect x="33" y="25" width="870" height="334"/></clipPath><clipPath id="clip20"><rect x="33" y="25" width="870" height="334"/></clipPath><clipPath id="clip21"><rect x="33" y="25" width="870" height="334"/></clipPath><clipPath id="clip22"><rect x="33" y="25" width="870" height="334"/></clipPath><clipPath id="clip23"><rect x="33" y="25" width="870" height="334"/></clipPath><clipPath id="clip24"><rect x="33" y="25" width="870" height="334"/></clipPath><clipPath id="clip25"><rect x="33" y="25" width="870" height="334"/></clipPath><clipPath id="clip26"><rect x="33" y="25" width="870" height="334"/></clipPath><clipPath id="clip27"><rect x="33" y="25" width="870" height="334"/></clipPath><clipPath id="clip28"><rect x="33" y="25" width="870" height="334"/></clipPath><clipPath id="clip29"><rect x="33" y="25" width="870" height="334"/></clipPath><clipPath id="clip30"><rect x="33" y="25" width="870" height="334"/></clipPath><clipPath id="clip31"><rect x="33" y="25" width="870" height="334"/></clipPath><clipPath id="clip32"><rect x="33" y="25" width="870" height="334"/></clipPath><clipPath id="clip33"><rect x="33" y="25" width="870" height="334"/></clipPath><clipPath id="clip34"><rect x="33" y="25" width="870" height="334"/></clipPath><clipPath id="clip35"><rect x="33" y="25" width="870" height="334"/></clipPath><clipPath id="clip36"><rect x="33" y="25" width="870" height="334"/></clipPath><clipPath id="clip37"><rect x="33" y="25" width="870" height="334"/></clipPath><clipPath id="clip38"><rect x="33" y="25" width="870" height="334"/></clipPath><clipPath id="clip39"><rect x="33" y="25" width="870" height="334"/></clipPath><clipPath id="clip40"><rect x="33" y="25" width="870" height="334"/></clipPath><clipPath id="clip41"><rect x="-203" y="319" width="721" height="40"/></clipPath><clipPath id="clip42"><rect x="33" y="25" width="870" height="334"/></clipPath><clipPath id="clip43"><rect x="-203" y="319" width="721" height="40"/></clipPath><clipPath id="clip44"><rect x="33" y="25" width="870" height="334"/></clipPath><clipPath id="clip45"><rect x="-240" y="279" width="786" height="41"/></clipPath><clipPath id="clip46"><rect x="33" y="25" width="870" height="334"/></clipPath><clipPath id="clip47"><rect x="-240" y="279" width="786" height="41"/></clipPath><clipPath id="clip48"><rect x="33" y="25" width="870" height="334"/></clipPath><clipPath id="clip49"><rect x="-410" y="240" width="1084" height="40"/></clipPath><clipPath id="clip50"><rect x="33" y="25" width="870" height="334"/></clipPath><clipPath id="clip51"><rect x="-410" y="240" width="1084" height="40"/></clipPath><clipPath id="clip52"><rect x="33" y="25" width="870" height="334"/></clipPath><clipPath id="clip53"><rect x="-410" y="240" width="1084" height="40"/></clipPath><clipPath id="clip54"><rect x="33" y="25" width="870" height="334"/></clipPath><clipPath id="clip55"><rect x="-410" y="240" width="1084" height="40"/></clipPath><clipPath id="clip56"><rect x="33" y="25" width="870" height="334"/></clipPath><clipPath id="clip57"><rect x="-277" y="200" width="851" height="41"/></clipPath><clipPath id="clip58"><rect x="33" y="25" width="870" height="334"/></clipPath><clipPath id="clip59"><rect x="-277" y="200" width="851" height="41"/></clipPath><clipPath id="clip60"><rect x="33" y="25" width="870" height="334"/></clipPath><clipPath id="clip61"><rect x="-277" y="200" width="851" height="41"/></clipPath><clipPath id="clip62"><rect x="33" y="25" width="870" height="334"/></clipPath><clipPath id="clip63"><rect x="-277" y="200" width="851" height="41"/></clipPath><clipPath id="clip64"><rect x="33" y="25" width="870" height="334"/></clipPath><clipPath id="clip65"><rect x="-277" y="161" width="851" height="40"/></clipPath><clipPath id="clip66"><rect x="33" y="25" width="870" height="334"/></clipPath><clipPath id="clip67"><rect x="-277" y="161" width="851" height="40"/></clipPath><clipPath id="clip68"><rect x="33" y="25" width="870" height="334"/></clipPath><clipPath id="clip69"><rect x="-277" y="161" width="851" height="40"/></clipPath><clipPath id="clip70"><rect x="33" y="25" width="870" height="334"/></clipPath><clipPath id="clip71"><rect x="-277" y="161" width="851" height="40"/></clipPath><clipPath id="clip72"><rect x="33" y="25" width="870" height="334"/></clipPath><clipPath id="clip73"><rect x="-210" y="122" width="734" height="40"/></clipPath><clipPath id="clip74"><rect x="33" y="25" width="870" height="334"/></clipPath><clipPath id="clip75"><rect x="-210" y="122" width="734" height="40"/></clipPath><clipPath id="clip76"><rect x="33" y="25" width="871" height="335"/></clipPath><clipPath id="clip77"><rect x="-2446" y="28" width="5825" height="106"/></clipPath><clipPath id="clip78"><rect x="33" y="25" width="871" height="335"/></clipPath><clipPath id="clip79"><rect x="-2446" y="28" width="5825" height="106"/></clipPath><clipPath id="clip80"><rect x="33" y="25" width="871" height="335"/></clipPath><clipPath id="clip81"><rect x="-2446" y="28" width="5825" height="106"/></clipPath><clipPath id="clip82"><rect x="33" y="25" width="871" height="335"/></clipPath><clipPath id="clip83"><rect x="-2446" y="28" width="5825" height="106"/></clipPath><clipPath id="clip84"><rect x="33" y="25" width="871" height="335"/></clipPath><clipPath id="clip85"><rect x="34" y="349" width="869" height="356"/></clipPath><clipPath id="clip86"><rect x="220" y="424" width="523" height="239"/></clipPath><clipPath id="clip87"><rect x="220" y="424" width="523" height="239"/></clipPath><clipPath id="clip88"><rect x="220" y="424" width="523" height="239"/></clipPath><clipPath id="clip89"><rect x="220" y="424" width="523" height="239"/></clipPath><clipPath id="clip90"><rect x="220" y="424" width="523" height="239"/></clipPath><clipPath id="clip91"><rect x="220" y="424" width="523" height="239"/></clipPath><clipPath id="clip92"><rect x="220" y="424" width="523" height="239"/></clipPath><clipPath id="clip93"><rect x="34" y="349" width="869" height="356"/></clipPath><clipPath id="clip94"><rect x="34" y="349" width="869" height="356"/></clipPath><clipPath id="clip95"><rect x="34" y="349" width="869" height="356"/></clipPath><clipPath id="clip96"><rect x="34" y="349" width="869" height="356"/></clipPath><clipPath id="clip97"><rect x="34" y="349" width="869" height="356"/></clipPath><clipPath id="clip98"><rect x="34" y="349" width="869" height="356"/></clipPath><clipPath id="clip99"><rect x="34" y="349" width="869" height="356"/></clipPath><clipPath id="clip100"><rect x="34" y="349" width="869" height="356"/></clipPath><clipPath id="clip101"><rect x="34" y="349" width="869" height="356"/></clipPath><clipPath id="clip102"><rect x="34" y="349" width="869" height="356"/></clipPath><clipPath id="clip103"><rect x="34" y="349" width="869" height="356"/></clipPath><clipPath id="clip104"><rect x="34" y="349" width="869" height="356"/></clipPath><clipPath id="clip105"><rect x="34" y="349" width="869" height="356"/></clipPath><clipPath id="clip106"><rect x="34" y="349" width="869" height="356"/></clipPath><clipPath id="clip107"><rect x="34" y="349" width="869" height="356"/></clipPath><clipPath id="clip108"><rect x="34" y="349" width="869" height="356"/></clipPath><clipPath id="clip109"><rect x="34" y="349" width="869" height="356"/></clipPath><clipPath id="clip110"><rect x="34" y="349" width="869" height="356"/></clipPath><clipPath id="clip111"><rect x="34" y="349" width="869" height="356"/></clipPath><clipPath id="clip112"><rect x="34" y="349" width="869" height="356"/></clipPath><clipPath id="clip113"><rect x="34" y="349" width="869" height="356"/></clipPath><clipPath id="clip114"><rect x="34" y="349" width="869" height="356"/></clipPath><clipPath id="clip115"><rect x="34" y="349" width="869" height="356"/></clipPath><clipPath id="clip116"><rect x="34" y="349" width="869" height="356"/></clipPath><clipPath id="clip117"><rect x="34" y="349" width="869" height="356"/></clipPath><clipPath id="clip118"><rect x="34" y="349" width="869" height="356"/></clipPath><clipPath id="clip119"><rect x="34" y="349" width="869" height="356"/></clipPath><clipPath id="clip120"><rect x="34" y="349" width="869" height="356"/></clipPath><clipPath id="clip121"><rect x="34" y="349" width="869" height="356"/></clipPath><clipPath id="clip122"><rect x="34" y="349" width="869" height="356"/></clipPath><clipPath id="clip123"><rect x="34" y="349" width="869" height="356"/></clipPath><clipPath id="clip124"><rect x="34" y="349" width="869" height="356"/></clipPath><clipPath id="clip125"><rect x="34" y="349" width="869" height="356"/></clipPath><clipPath id="clip126"><rect x="34" y="349" width="869" height="356"/></clipPath><clipPath id="clip127"><rect x="34" y="349" width="869" height="356"/></clipPath><clipPath id="clip128"><rect x="34" y="349" width="869" height="356"/></clipPath><clipPath id="clip129"><rect x="34" y="349" width="869" height="356"/></clipPath><clipPath id="clip130"><rect x="-202" y="621" width="721" height="40"/></clipPath><clipPath id="clip131"><rect x="34" y="349" width="869" height="356"/></clipPath><clipPath id="clip132"><rect x="-202" y="621" width="721" height="40"/></clipPath><clipPath id="clip133"><rect x="34" y="349" width="869" height="356"/></clipPath><clipPath id="clip134"><rect x="-239" y="581" width="785" height="41"/></clipPath><clipPath id="clip135"><rect x="34" y="349" width="869" height="356"/></clipPath><clipPath id="clip136"><rect x="-239" y="581" width="785" height="41"/></clipPath><clipPath id="clip137"><rect x="34" y="349" width="869" height="356"/></clipPath><clipPath id="clip138"><rect x="-410" y="542" width="1084" height="40"/></clipPath><clipPath id="clip139"><rect x="34" y="349" width="869" height="356"/></clipPath><clipPath id="clip140"><rect x="-410" y="542" width="1084" height="40"/></clipPath><clipPath id="clip141"><rect x="34" y="349" width="869" height="356"/></clipPath><clipPath id="clip142"><rect x="-410" y="542" width="1084" height="40"/></clipPath><clipPath id="clip143"><rect x="34" y="349" width="869" height="356"/></clipPath><clipPath id="clip144"><rect x="-410" y="542" width="1084" height="40"/></clipPath><clipPath id="clip145"><rect x="34" y="349" width="869" height="356"/></clipPath><clipPath id="clip146"><rect x="-276" y="502" width="850" height="41"/></clipPath><clipPath id="clip147"><rect x="34" y="349" width="869" height="356"/></clipPath><clipPath id="clip148"><rect x="-276" y="502" width="850" height="41"/></clipPath><clipPath id="clip149"><rect x="34" y="349" width="869" height="356"/></clipPath><clipPath id="clip150"><rect x="-276" y="502" width="850" height="41"/></clipPath><clipPath id="clip151"><rect x="34" y="349" width="869" height="356"/></clipPath><clipPath id="clip152"><rect x="-276" y="502" width="850" height="41"/></clipPath><clipPath id="clip153"><rect x="34" y="349" width="869" height="356"/></clipPath><clipPath id="clip154"><rect x="-276" y="463" width="850" height="40"/></clipPath><clipPath id="clip155"><rect x="34" y="349" width="869" height="356"/></clipPath><clipPath id="clip156"><rect x="-276" y="463" width="850" height="40"/></clipPath><clipPath id="clip157"><rect x="34" y="349" width="869" height="356"/></clipPath><clipPath id="clip158"><rect x="-276" y="463" width="850" height="40"/></clipPath><clipPath id="clip159"><rect x="34" y="349" width="869" height="356"/></clipPath><clipPath id="clip160"><rect x="-276" y="463" width="850" height="40"/></clipPath><clipPath id="clip161"><rect x="34" y="349" width="869" height="356"/></clipPath><clipPath id="clip162"><rect x="-210" y="423" width="734" height="41"/></clipPath><clipPath id="clip163"><rect x="34" y="349" width="869" height="356"/></clipPath><clipPath id="clip164"><rect x="-210" y="423" width="734" height="41"/></clipPath><clipPath id="clip165"><rect x="34" y="349" width="869" height="356"/></clipPath><clipPath id="clip166"><rect x="34" y="349" width="869" height="356"/></clipPath><clipPath id="clip167"><rect x="34" y="349" width="869" height="356"/></clipPath><clipPath id="clip168"><rect x="34" y="349" width="869" height="356"/></clipPath><clipPath id="clip169"><rect x="34" y="349" width="869" height="356"/></clipPath><clipPath id="clip170"><rect x="34" y="349" width="869" height="356"/></clipPath><clipPath id="clip171"><rect x="34" y="349" width="869" height="356"/></clipPath><clipPath id="clip172"><rect x="34" y="349" width="869" height="356"/></clipPath><clipPath id="clip173"><rect x="34" y="349" width="869" height="356"/></clipPath><clipPath id="clip174"><rect x="34" y="349" width="869" height="356"/></clipPath><clipPath id="clip175"><rect x="34" y="349" width="869" height="356"/></clipPath><clipPath id="clip176"><rect x="34" y="349" width="869" height="356"/></clipPath></defs><g clip-path="url(#clip0)" transform="translate(-33 -16)"><rect x="34" y="26" width="869" height="334" fill="#FFFFFF"/><g clip-path="url(#clip1)"><path d="M350.5 123.5 350.5 359.5M481.5 123.5 481.5 359.5M612.5 123.5 612.5 359.5M742.5 123.5 742.5 359.5" stroke="#D9D9D9" stroke-width="1.33333" stroke-linejoin="round" stroke-miterlimit="10" fill="none"/></g><g clip-path="url(#clip2)"><path d="M331.5 155.5 220.5 155.5 220.5 130.5 331.5 130.5Z" stroke="#000000" stroke-width="1.33333" stroke-linejoin="round" stroke-miterlimit="10" fill="#FFFFFF"/></g><g clip-path="url(#clip3)"><path d="M338.5 353.5 220.5 353.5 220.5 327.5 338.5 327.5ZM386.5 313.5 220.5 313.5 220.5 287.5 386.5 287.5ZM326.5 274.5 220.5 274.5 220.5 248.5 326.5 248.5ZM297.5 234.5 220.5 234.5 220.5 208.5 297.5 208.5ZM233.5 195.5 220.5 195.5 220.5 169.5 233.5 169.5Z" stroke="#000000" stroke-width="1.33333" stroke-linejoin="round" stroke-miterlimit="10" fill="#FFFFFF"/></g><g clip-path="url(#clip4)"><path d="M471.5 155.5 331.5 155.5 331.5 130.5 471.5 130.5Z" stroke="#000000" stroke-width="1.33333" stroke-linejoin="round" stroke-miterlimit="10" fill="#F1F8FD"/></g><g clip-path="url(#clip5)"><path d="M529.5 353.5 338.5 353.5 338.5 327.5 529.5 327.5ZM545.5 313.5 386.5 313.5 386.5 287.5 545.5 287.5ZM468.5 274.5 326.5 274.5 326.5 248.5 468.5 248.5ZM451.5 234.5 297.5 234.5 297.5 208.5 451.5 208.5ZM298.5 195.5 233.5 195.5 233.5 169.5 298.5 169.5Z" stroke="#000000" stroke-width="1.33333" stroke-linejoin="round" stroke-miterlimit="10" fill="#F1F8FD"/></g><g clip-path="url(#clip6)"><path d="M671.5 353.5 529.5 353.5 529.5 327.5 671.5 327.5ZM643.5 313.5 545.5 313.5 545.5 287.5 643.5 287.5ZM580.5 274.5 468.5 274.5 468.5 248.5 580.5 248.5ZM579.5 234.5 451.5 234.5 451.5 208.5 579.5 208.5ZM391.5 195.5 298.5 195.5 298.5 169.5 391.5 169.5ZM578.5 155.5 471.5 155.5 471.5 130.5 578.5 130.5Z" stroke="#000000" stroke-width="1.33333" stroke-linejoin="round" stroke-miterlimit="10" fill="#C2DDF6"/></g><g clip-path="url(#clip7)"><path d="M719.5 353.5 671.5 353.5 671.5 327.5 719.5 327.5ZM702.5 313.5 643.5 313.5 643.5 287.5 702.5 287.5ZM673.5 274.5 580.5 274.5 580.5 248.5 673.5 248.5ZM674.5 234.5 579.5 234.5 579.5 208.5 674.5 208.5ZM534.5 195.5 391.5 195.5 391.5 169.5 534.5 169.5ZM664.5 155.5 578.5 155.5 578.5 130.5 664.5 130.5Z" stroke="#000000" stroke-width="1.33333" stroke-linejoin="round" stroke-miterlimit="10" fill="#9ECBF0"/></g><g clip-path="url(#clip8)"><path d="M742.5 353.5 719.5 353.5 719.5 327.5 742.5 327.5ZM742.5 313.5 702.5 313.5 702.5 287.5 742.5 287.5ZM742.5 274.5 673.5 274.5 673.5 248.5 742.5 248.5ZM742.5 234.5 674.5 234.5 674.5 208.5 742.5 208.5ZM742.5 195.5 534.5 195.5 534.5 169.5 742.5 169.5ZM742.5 155.5 664.5 155.5 664.5 130.5 742.5 130.5Z" stroke="#000000" stroke-width="1.33333" stroke-linejoin="round" stroke-miterlimit="10" fill="#095085"/></g><g clip-path="url(#clip9)"><path d="M0 0 0.000104987 236" stroke="#D9D9D9" stroke-linejoin="round" stroke-miterlimit="10" fill="none" fill-rule="evenodd" transform="matrix(1 0 0 -1 220.5 359.5)"/></g><g clip-path="url(#clip10)"><text fill="#404040" font-family="Yu Gothic,Yu Gothic_MSFontService,sans-serif" font-weight="700" font-size="16" transform="translate(275.021 346)">5</text></g><g clip-path="url(#clip11)"><text fill="#404040" font-family="Yu Gothic,Yu Gothic_MSFontService,sans-serif" font-weight="700" font-size="16" transform="translate(289.42 306)">227</text></g><g clip-path="url(#clip12)"><text fill="#404040" font-family="Yu Gothic,Yu Gothic_MSFontService,sans-serif" font-weight="700" font-size="16" transform="translate(264.014 267)">90</text></g><g clip-path="url(#clip13)"><text fill="#404040" font-family="Yu Gothic,Yu Gothic_MSFontService,sans-serif" font-weight="700" font-size="16" transform="translate(249.628 227)">44</text></g><g clip-path="url(#clip14)"><text fill="#404040" font-family="Yu Gothic,Yu Gothic_MSFontService,sans-serif" font-weight="700" font-size="16" transform="translate(222.458 188)">7</text></g><g clip-path="url(#clip15)"><text fill="#404040" font-family="Yu Gothic,Yu Gothic_MSFontService,sans-serif" font-weight="700" font-size="16" transform="translate(262.251 149)">373</text></g><g clip-path="url(#clip16)"><text fill="#404040" font-family="Yu Gothic,Yu Gothic_MSFontService,sans-serif" font-weight="700" font-size="16" transform="translate(429.431 346)">8</text></g><g clip-path="url(#clip17)"><text fill="#404040" font-family="Yu Gothic,Yu Gothic_MSFontService,sans-serif" font-weight="700" font-size="16" transform="translate(452.053 306)">218</text></g><g clip-path="url(#clip18)"><text fill="#404040" font-family="Yu Gothic,Yu Gothic_MSFontService,sans-serif" font-weight="700" font-size="16" transform="translate(383.608 267)">121</text></g><g clip-path="url(#clip19)"><text fill="#404040" font-family="Yu Gothic,Yu Gothic_MSFontService,sans-serif" font-weight="700" font-size="16" transform="translate(365.376 227)">88</text></g><g clip-path="url(#clip20)"><text fill="#404040" font-family="Yu Gothic,Yu Gothic_MSFontService,sans-serif" font-weight="700" font-size="16" transform="translate(256.872 188)">33</text></g><g clip-path="url(#clip21)"><text fill="#404040" font-family="Yu Gothic,Yu Gothic_MSFontService,sans-serif" font-weight="700" font-size="16" transform="translate(388.044 149)">468</text></g><g clip-path="url(#clip22)"><text fill="#404040" font-family="Yu Gothic,Yu Gothic_MSFontService,sans-serif" font-weight="700" font-size="16" transform="translate(595.718 346)">6</text></g><g clip-path="url(#clip23)"><text fill="#404040" font-family="Yu Gothic,Yu Gothic_MSFontService,sans-serif" font-weight="700" font-size="16" transform="translate(580.697 306)">134</text></g><g clip-path="url(#clip24)"><text fill="#404040" font-family="Yu Gothic,Yu Gothic_MSFontService,sans-serif" font-weight="700" font-size="16" transform="translate(515.318 267)">95</text></g><g clip-path="url(#clip25)"><text fill="#404040" font-family="Yu Gothic,Yu Gothic_MSFontService,sans-serif" font-weight="700" font-size="16" transform="translate(506.553 227)">73</text></g><g clip-path="url(#clip26)"><text fill="#404040" font-family="Yu Gothic,Yu Gothic_MSFontService,sans-serif" font-weight="700" font-size="16" transform="translate(335.85 188)">48</text></g><g clip-path="url(#clip27)"><text fill="#404040" font-family="Yu Gothic,Yu Gothic_MSFontService,sans-serif" font-weight="700" font-size="16" transform="translate(511.294 149)">356</text></g><g clip-path="url(#clip28)"><text fill="#404040" font-family="Yu Gothic,Yu Gothic_MSFontService,sans-serif" font-weight="700" font-size="16" transform="translate(690.739 346)">2</text></g><g clip-path="url(#clip29)"><text fill="#404040" font-family="Yu Gothic,Yu Gothic_MSFontService,sans-serif" font-weight="700" font-size="16" transform="translate(663.859 306)">81</text></g><g clip-path="url(#clip30)"><text fill="#404040" font-family="Yu Gothic,Yu Gothic_MSFontService,sans-serif" font-weight="700" font-size="16" transform="translate(617.722 267)">79</text></g><g clip-path="url(#clip31)"><text fill="#404040" font-family="Yu Gothic,Yu Gothic_MSFontService,sans-serif" font-weight="700" font-size="16" transform="translate(617.916 227)">54</text></g><g clip-path="url(#clip32)"><text fill="#404040" font-family="Yu Gothic,Yu Gothic_MSFontService,sans-serif" font-weight="700" font-size="16" transform="translate(453.829 188)">73</text></g><g clip-path="url(#clip33)"><text fill="#404040" font-family="Yu Gothic,Yu Gothic_MSFontService,sans-serif" font-weight="700" font-size="16" transform="translate(607.771 149)">289</text></g><g clip-path="url(#clip34)"><text fill="#FFFFFF" font-family="Yu Gothic,Yu Gothic_MSFontService,sans-serif" font-weight="700" font-size="16" transform="translate(726.372 346)">1</text></g><g clip-path="url(#clip35)"><text fill="#FFFFFF" font-family="Yu Gothic,Yu Gothic_MSFontService,sans-serif" font-weight="700" font-size="16" transform="translate(713.563 306)">55</text></g><g clip-path="url(#clip36)"><text fill="#FFFFFF" font-family="Yu Gothic,Yu Gothic_MSFontService,sans-serif" font-weight="700" font-size="16" transform="translate(698.94 267)">59</text></g><g clip-path="url(#clip37)"><text fill="#FFFFFF" font-family="Yu Gothic,Yu Gothic_MSFontService,sans-serif" font-weight="700" font-size="16" transform="translate(699.465 227)">39</text></g><g clip-path="url(#clip38)"><text fill="#FFFFFF" font-family="Yu Gothic,Yu Gothic_MSFontService,sans-serif" font-weight="700" font-size="16" transform="translate(624.748 188)">107</text></g><g clip-path="url(#clip39)"><text fill="#FFFFFF" font-family="Yu Gothic,Yu Gothic_MSFontService,sans-serif" font-weight="700" font-size="16" transform="translate(690.037 149)">261</text></g><g clip-path="url(#clip40)"><g clip-path="url(#clip41)"><text fill="#595959" font-family="Yu Gothic,Yu Gothic_MSFontService,sans-serif" font-weight="500" font-size="17" transform="translate(106.48 345)">その他</text></g></g><g clip-path="url(#clip42)"><g clip-path="url(#clip43)"><text fill="#595959" font-family="Yu Gothic,Yu Gothic_MSFontService,sans-serif" font-weight="500" font-size="17" transform="translate(156.48 345)">(n=22)</text></g></g><g clip-path="url(#clip44)"><g clip-path="url(#clip45)"><text fill="#595959" font-family="Yu Gothic,Yu Gothic_MSFontService,sans-serif" font-weight="500" font-size="17" transform="translate(97.227 306)">大学院</text></g></g><g clip-path="url(#clip46)"><g clip-path="url(#clip47)"><text fill="#595959" font-family="Yu Gothic,Yu Gothic_MSFontService,sans-serif" font-weight="500" font-size="17" transform="translate(147.227 306)">(n=715)</text></g></g><g clip-path="url(#clip48)"><g clip-path="url(#clip49)"><text fill="#595959" font-family="Yu Gothic,Yu Gothic_MSFontService,sans-serif" font-weight="500" font-size="17" transform="translate(54.6404 266)">学部</text></g></g><g clip-path="url(#clip50)"><g clip-path="url(#clip51)"><text fill="#595959" font-family="Yu Gothic,Yu Gothic_MSFontService,sans-serif" font-weight="500" font-size="17" transform="translate(87.9737 266)">3</text></g></g><g clip-path="url(#clip52)"><g clip-path="url(#clip53)"><text fill="#595959" font-family="Yu Gothic,Yu Gothic_MSFontService,sans-serif" font-weight="500" font-size="17" transform="translate(97.227 266)">年以上</text></g></g><g clip-path="url(#clip54)"><g clip-path="url(#clip55)"><text fill="#595959" font-family="Yu Gothic,Yu Gothic_MSFontService,sans-serif" font-weight="500" font-size="17" transform="translate(147.227 266)">(n=444)</text></g></g><g clip-path="url(#clip56)"><g clip-path="url(#clip57)"><text fill="#595959" font-family="Yu Gothic,Yu Gothic_MSFontService,sans-serif" font-weight="500" font-size="17" transform="translate(87.9737 227)">学部</text></g></g><g clip-path="url(#clip58)"><g clip-path="url(#clip59)"><text fill="#595959" font-family="Yu Gothic,Yu Gothic_MSFontService,sans-serif" font-weight="500" font-size="17" transform="translate(121.307 227)">2</text></g></g><g clip-path="url(#clip60)"><g clip-path="url(#clip61)"><text fill="#595959" font-family="Yu Gothic,Yu Gothic_MSFontService,sans-serif" font-weight="500" font-size="17" transform="translate(130.56 227)">年</text></g></g><g clip-path="url(#clip62)"><g clip-path="url(#clip63)"><text fill="#595959" font-family="Yu Gothic,Yu Gothic_MSFontService,sans-serif" font-weight="500" font-size="17" transform="translate(147.227 227)">(n=298)</text></g></g><g clip-path="url(#clip64)"><g clip-path="url(#clip65)"><text fill="#595959" font-family="Yu Gothic,Yu Gothic_MSFontService,sans-serif" font-weight="500" font-size="17" transform="translate(87.9737 187)">学部</text></g></g><g clip-path="url(#clip66)"><g clip-path="url(#clip67)"><text fill="#595959" font-family="Yu Gothic,Yu Gothic_MSFontService,sans-serif" font-weight="500" font-size="17" transform="translate(121.307 187)">1</text></g></g><g clip-path="url(#clip68)"><g clip-path="url(#clip69)"><text fill="#595959" font-family="Yu Gothic,Yu Gothic_MSFontService,sans-serif" font-weight="500" font-size="17" transform="translate(130.56 187)">年</text></g></g><g clip-path="url(#clip70)"><g clip-path="url(#clip71)"><text fill="#595959" font-family="Yu Gothic,Yu Gothic_MSFontService,sans-serif" font-weight="500" font-size="17" transform="translate(147.227 187)">(n=268)</text></g></g><g clip-path="url(#clip72)"><g clip-path="url(#clip73)"><text fill="#595959" font-family="Yu Gothic,Yu Gothic_MSFontService,sans-serif" font-weight="500" font-size="17" transform="translate(104.64 148)">全体</text></g></g><g clip-path="url(#clip74)"><g clip-path="url(#clip75)"><text fill="#595959" font-family="Yu Gothic,Yu Gothic_MSFontService,sans-serif" font-weight="500" font-size="17" transform="translate(137.974 148)">(n=1747)</text></g></g><g clip-path="url(#clip76)"><g clip-path="url(#clip77)"><text font-family="Yu Gothic,Yu Gothic_MSFontService,sans-serif" font-weight="500" font-size="21" transform="translate(50.9822 53)">【</text></g></g><g clip-path="url(#clip78)"><g clip-path="url(#clip79)"><text font-family="Yu Gothic,Yu Gothic_MSFontService,sans-serif" font-weight="500" font-size="21" transform="translate(72.3155 53)">心理面の印象</text></g></g><g clip-path="url(#clip80)"><g clip-path="url(#clip81)"><text font-family="Yu Gothic,Yu Gothic_MSFontService,sans-serif" font-weight="500" font-size="21" transform="translate(200.315 53)">】</text></g></g><g clip-path="url(#clip82)"><g clip-path="url(#clip83)"><text font-family="Yu Gothic,Yu Gothic_MSFontService,sans-serif" font-weight="500" font-size="21" transform="translate(221.649 53)">各セメスターを振り返って，課題が重いことへの不安・苦痛をどれだ</text></g></g><g clip-path="url(#clip84)"><text font-family="Yu Gothic,Yu Gothic_MSFontService,sans-serif" font-weight="500" font-size="21" transform="translate(50.9822 78)">け感じていたかについて教えてください．</text></g><g clip-path="url(#clip85)"><path d="M351.5 424.5 351.5 662.5M481.5 424.5 481.5 662.5M612.5 424.5 612.5 662.5M742.5 424.5 742.5 662.5" stroke="#D9D9D9" stroke-width="1.33333" stroke-linejoin="round" stroke-miterlimit="10" fill="none"/></g><g clip-path="url(#clip86)"><path d="M333.5 457.5 220.5 457.5 220.5 431.5 333.5 431.5Z" stroke="#000000" stroke-width="1.33333" stroke-linejoin="round" stroke-miterlimit="10" fill="#FFFFFF"/></g><g clip-path="url(#clip87)"><path d="M341.5 655.5 220.5 655.5 220.5 629.5 341.5 629.5ZM396.5 615.5 220.5 615.5 220.5 589.5 396.5 589.5ZM332.5 576.5 220.5 576.5 220.5 550.5 332.5 550.5ZM267.5 536.5 220.5 536.5 220.5 510.5 267.5 510.5ZM239.5 497.5 220.5 497.5 220.5 471.5 239.5 471.5Z" stroke="#000000" stroke-width="1.33333" stroke-linejoin="round" stroke-miterlimit="10" fill="#FFFFFF"/></g><g clip-path="url(#clip88)"><path d="M482.5 457.5 333.5 457.5 333.5 431.5 482.5 431.5Z" stroke="#000000" stroke-width="1.33333" stroke-linejoin="round" stroke-miterlimit="10" fill="#F1F8FD"/></g><g clip-path="url(#clip89)"><path d="M562.5 655.5 341.5 655.5 341.5 629.5 562.5 629.5ZM571.5 615.5 396.5 615.5 396.5 589.5 571.5 589.5ZM486.5 576.5 332.5 576.5 332.5 550.5 486.5 550.5ZM401.5 536.5 267.5 536.5 267.5 510.5 401.5 510.5ZM319.5 497.5 239.5 497.5 239.5 471.5 319.5 471.5Z" stroke="#000000" stroke-width="1.33333" stroke-linejoin="round" stroke-miterlimit="10" fill="#F1F8FD"/></g><g clip-path="url(#clip90)"><path d="M662.5 655.5 562.5 655.5 562.5 629.5 662.5 629.5ZM661.5 615.5 571.5 615.5 571.5 589.5 661.5 589.5ZM619.5 576.5 486.5 576.5 486.5 550.5 619.5 550.5ZM547.5 536.5 401.5 536.5 401.5 510.5 547.5 510.5ZM489.5 497.5 319.5 497.5 319.5 471.5 489.5 471.5ZM605.5 457.5 482.5 457.5 482.5 431.5 605.5 431.5Z" stroke="#000000" stroke-width="1.33333" stroke-linejoin="round" stroke-miterlimit="10" fill="#C2DDF6"/></g><g clip-path="url(#clip91)"><path d="M702.5 655.5 662.5 655.5 662.5 629.5 702.5 629.5ZM714.5 615.5 661.5 615.5 661.5 589.5 714.5 589.5ZM695.5 576.5 619.5 576.5 619.5 550.5 695.5 550.5ZM656.5 536.5 547.5 536.5 547.5 510.5 656.5 510.5ZM637.5 497.5 489.5 497.5 489.5 471.5 637.5 471.5ZM688.5 457.5 605.5 457.5 605.5 431.5 688.5 431.5Z" stroke="#000000" stroke-width="1.33333" stroke-linejoin="round" stroke-miterlimit="10" fill="#9ECBF0"/></g><g clip-path="url(#clip92)"><path d="M742.5 655.5 702.5 655.5 702.5 629.5 742.5 629.5ZM742.5 615.5 714.5 615.5 714.5 589.5 742.5 589.5ZM742.5 576.5 695.5 576.5 695.5 550.5 742.5 550.5ZM742.5 536.5 656.5 536.5 656.5 510.5 742.5 510.5ZM742.5 497.5 637.5 497.5 637.5 471.5 742.5 471.5ZM742.5 457.5 688.5 457.5 688.5 431.5 742.5 431.5Z" stroke="#000000" stroke-width="1.33333" stroke-linejoin="round" stroke-miterlimit="10" fill="#095085"/></g><g clip-path="url(#clip93)"><path d="M0 0 0.000104987 238" stroke="#D9D9D9" stroke-linejoin="round" stroke-miterlimit="10" fill="none" fill-rule="evenodd" transform="matrix(1 0 0 -1 220.5 662.5)"/></g><g clip-path="url(#clip94)"><text fill="#404040" font-family="Yu Gothic,Yu Gothic_MSFontService,sans-serif" font-weight="700" font-size="16" transform="translate(276.173 648)">6</text></g><g clip-path="url(#clip95)"><text fill="#404040" font-family="Yu Gothic,Yu Gothic_MSFontService,sans-serif" font-weight="700" font-size="16" transform="translate(294.757 608)">243</text></g><g clip-path="url(#clip96)"><text fill="#404040" font-family="Yu Gothic,Yu Gothic_MSFontService,sans-serif" font-weight="700" font-size="16" transform="translate(267.197 569)">95</text></g><g clip-path="url(#clip97)"><text fill="#404040" font-family="Yu Gothic,Yu Gothic_MSFontService,sans-serif" font-weight="700" font-size="16" transform="translate(235.054 529)">27</text></g><g clip-path="url(#clip98)"><text fill="#404040" font-family="Yu Gothic,Yu Gothic_MSFontService,sans-serif" font-weight="700" font-size="16" transform="translate(221.054 490)">10</text></g><g clip-path="url(#clip99)"><text fill="#404040" font-family="Yu Gothic,Yu Gothic_MSFontService,sans-serif" font-weight="700" font-size="16" transform="translate(263.396 450)">381</text></g><g clip-path="url(#clip100)"><text fill="#404040" font-family="Yu Gothic,Yu Gothic_MSFontService,sans-serif" font-weight="700" font-size="16" transform="translate(442.377 648)">11</text></g><g clip-path="url(#clip101)"><text fill="#404040" font-family="Yu Gothic,Yu Gothic_MSFontService,sans-serif" font-weight="700" font-size="16" transform="translate(470.104 608)">241</text></g><g clip-path="url(#clip102)"><text fill="#404040" font-family="Yu Gothic,Yu Gothic_MSFontService,sans-serif" font-weight="700" font-size="16" transform="translate(395.568 569)">131</text></g><g clip-path="url(#clip103)"><text fill="#404040" font-family="Yu Gothic,Yu Gothic_MSFontService,sans-serif" font-weight="700" font-size="16" transform="translate(325.642 529)">76</text></g><g clip-path="url(#clip104)"><text fill="#404040" font-family="Yu Gothic,Yu Gothic_MSFontService,sans-serif" font-weight="700" font-size="16" transform="translate(270.762 490)">41</text></g><g clip-path="url(#clip105)"><text fill="#404040" font-family="Yu Gothic,Yu Gothic_MSFontService,sans-serif" font-weight="700" font-size="16" transform="translate(394.446 450)">500</text></g><g clip-path="url(#clip106)"><text fill="#404040" font-family="Yu Gothic,Yu Gothic_MSFontService,sans-serif" font-weight="700" font-size="16" transform="translate(607.707 648)">5</text></g><g clip-path="url(#clip107)"><text fill="#404040" font-family="Yu Gothic,Yu Gothic_MSFontService,sans-serif" font-weight="700" font-size="16" transform="translate(602.338 608)">124</text></g><g clip-path="url(#clip108)"><text fill="#404040" font-family="Yu Gothic,Yu Gothic_MSFontService,sans-serif" font-weight="700" font-size="16" transform="translate(539.115 569)">113</text></g><g clip-path="url(#clip109)"><text fill="#404040" font-family="Yu Gothic,Yu Gothic_MSFontService,sans-serif" font-weight="700" font-size="16" transform="translate(465.481 529)">83</text></g><g clip-path="url(#clip110)"><text fill="#404040" font-family="Yu Gothic,Yu Gothic_MSFontService,sans-serif" font-weight="700" font-size="16" transform="translate(395.518 490)">87</text></g><g clip-path="url(#clip111)"><text fill="#404040" font-family="Yu Gothic,Yu Gothic_MSFontService,sans-serif" font-weight="700" font-size="16" transform="translate(530.108 450)">412</text></g><g clip-path="url(#clip112)"><text fill="#404040" font-family="Yu Gothic,Yu Gothic_MSFontService,sans-serif" font-weight="700" font-size="16" transform="translate(678.033 648)">2</text></g><g clip-path="url(#clip113)"><text fill="#404040" font-family="Yu Gothic,Yu Gothic_MSFontService,sans-serif" font-weight="700" font-size="16" transform="translate(678.657 608)">74</text></g><g clip-path="url(#clip114)"><text fill="#404040" font-family="Yu Gothic,Yu Gothic_MSFontService,sans-serif" font-weight="700" font-size="16" transform="translate(648.42 569)">65</text></g><g clip-path="url(#clip115)"><text fill="#404040" font-family="Yu Gothic,Yu Gothic_MSFontService,sans-serif" font-weight="700" font-size="16" transform="translate(593.007 529)">62</text></g><g clip-path="url(#clip116)"><text fill="#404040" font-family="Yu Gothic,Yu Gothic_MSFontService,sans-serif" font-weight="700" font-size="16" transform="translate(554.388 490)">76</text></g><g clip-path="url(#clip117)"><text fill="#404040" font-family="Yu Gothic,Yu Gothic_MSFontService,sans-serif" font-weight="700" font-size="16" transform="translate(632.896 450)">279</text></g><g clip-path="url(#clip118)"><text fill="#FFFFFF" font-family="Yu Gothic,Yu Gothic_MSFontService,sans-serif" font-weight="700" font-size="16" transform="translate(718.219 648)">2</text></g><g clip-path="url(#clip119)"><text fill="#FFFFFF" font-family="Yu Gothic,Yu Gothic_MSFontService,sans-serif" font-weight="700" font-size="16" transform="translate(719.596 608)">39</text></g><g clip-path="url(#clip120)"><text fill="#FFFFFF" font-family="Yu Gothic,Yu Gothic_MSFontService,sans-serif" font-weight="700" font-size="16" transform="translate(710.193 569)">40</text></g><g clip-path="url(#clip121)"><text fill="#FFFFFF" font-family="Yu Gothic,Yu Gothic_MSFontService,sans-serif" font-weight="700" font-size="16" transform="translate(690.63 529)">49</text></g><g clip-path="url(#clip122)"><text fill="#FFFFFF" font-family="Yu Gothic,Yu Gothic_MSFontService,sans-serif" font-weight="700" font-size="16" transform="translate(681.093 490)">54</text></g><g clip-path="url(#clip123)"><text fill="#FFFFFF" font-family="Yu Gothic,Yu Gothic_MSFontService,sans-serif" font-weight="700" font-size="16" transform="translate(701.768 450)">184</text></g><g clip-path="url(#clip124)"><text fill="#595959" font-family="Yu Gothic,Yu Gothic_MSFontService,sans-serif" font-weight="500" font-size="17" transform="translate(208.701 691)">0%</text></g><g clip-path="url(#clip125)"><text fill="#595959" font-family="Yu Gothic,Yu Gothic_MSFontService,sans-serif" font-weight="500" font-size="17" transform="translate(334.495 691)">25%</text></g><g clip-path="url(#clip126)"><text fill="#595959" font-family="Yu Gothic,Yu Gothic_MSFontService,sans-serif" font-weight="500" font-size="17" transform="translate(465.1 691)">50%</text></g><g clip-path="url(#clip127)"><text fill="#595959" font-family="Yu Gothic,Yu Gothic_MSFontService,sans-serif" font-weight="500" font-size="17" transform="translate(595.704 691)">75%</text></g><g clip-path="url(#clip128)"><text fill="#595959" font-family="Yu Gothic,Yu Gothic_MSFontService,sans-serif" font-weight="500" font-size="17" transform="translate(721.498 691)">100%</text></g><g clip-path="url(#clip129)"><g clip-path="url(#clip130)"><text fill="#595959" font-family="Yu Gothic,Yu Gothic_MSFontService,sans-serif" font-weight="500" font-size="17" transform="translate(106.742 647)">その他</text></g></g><g clip-path="url(#clip131)"><g clip-path="url(#clip132)"><text fill="#595959" font-family="Yu Gothic,Yu Gothic_MSFontService,sans-serif" font-weight="500" font-size="17" transform="translate(156.742 647)">(n=26)</text></g></g><g clip-path="url(#clip133)"><g clip-path="url(#clip134)"><text fill="#595959" font-family="Yu Gothic,Yu Gothic_MSFontService,sans-serif" font-weight="500" font-size="17" transform="translate(97.489 608)">大学院</text></g></g><g clip-path="url(#clip135)"><g clip-path="url(#clip136)"><text fill="#595959" font-family="Yu Gothic,Yu Gothic_MSFontService,sans-serif" font-weight="500" font-size="17" transform="translate(147.489 608)">(n=721)</text></g></g><g clip-path="url(#clip137)"><g clip-path="url(#clip138)"><text fill="#595959" font-family="Yu Gothic,Yu Gothic_MSFontService,sans-serif" font-weight="500" font-size="17" transform="translate(54.9023 568)">学部</text></g></g><g clip-path="url(#clip139)"><g clip-path="url(#clip140)"><text fill="#595959" font-family="Yu Gothic,Yu Gothic_MSFontService,sans-serif" font-weight="500" font-size="17" transform="translate(88.2356 568)">3</text></g></g><g clip-path="url(#clip141)"><g clip-path="url(#clip142)"><text fill="#595959" font-family="Yu Gothic,Yu Gothic_MSFontService,sans-serif" font-weight="500" font-size="17" transform="translate(97.489 568)">年以上</text></g></g><g clip-path="url(#clip143)"><g clip-path="url(#clip144)"><text fill="#595959" font-family="Yu Gothic,Yu Gothic_MSFontService,sans-serif" font-weight="500" font-size="17" transform="translate(147.489 568)">(n=444)</text></g></g><g clip-path="url(#clip145)"><g clip-path="url(#clip146)"><text fill="#595959" font-family="Yu Gothic,Yu Gothic_MSFontService,sans-serif" font-weight="500" font-size="17" transform="translate(88.2356 529)">学部</text></g></g><g clip-path="url(#clip147)"><g clip-path="url(#clip148)"><text fill="#595959" font-family="Yu Gothic,Yu Gothic_MSFontService,sans-serif" font-weight="500" font-size="17" transform="translate(121.569 529)">2</text></g></g><g clip-path="url(#clip149)"><g clip-path="url(#clip150)"><text fill="#595959" font-family="Yu Gothic,Yu Gothic_MSFontService,sans-serif" font-weight="500" font-size="17" transform="translate(130.822 529)">年</text></g></g><g clip-path="url(#clip151)"><g clip-path="url(#clip152)"><text fill="#595959" font-family="Yu Gothic,Yu Gothic_MSFontService,sans-serif" font-weight="500" font-size="17" transform="translate(147.489 529)">(n=297)</text></g></g><g clip-path="url(#clip153)"><g clip-path="url(#clip154)"><text fill="#595959" font-family="Yu Gothic,Yu Gothic_MSFontService,sans-serif" font-weight="500" font-size="17" transform="translate(88.2356 489)">学部</text></g></g><g clip-path="url(#clip155)"><g clip-path="url(#clip156)"><text fill="#595959" font-family="Yu Gothic,Yu Gothic_MSFontService,sans-serif" font-weight="500" font-size="17" transform="translate(121.569 489)">1</text></g></g><g clip-path="url(#clip157)"><g clip-path="url(#clip158)"><text fill="#595959" font-family="Yu Gothic,Yu Gothic_MSFontService,sans-serif" font-weight="500" font-size="17" transform="translate(130.822 489)">年</text></g></g><g clip-path="url(#clip159)"><g clip-path="url(#clip160)"><text fill="#595959" font-family="Yu Gothic,Yu Gothic_MSFontService,sans-serif" font-weight="500" font-size="17" transform="translate(147.489 489)">(n=268)</text></g></g><g clip-path="url(#clip161)"><g clip-path="url(#clip162)"><text fill="#595959" font-family="Yu Gothic,Yu Gothic_MSFontService,sans-serif" font-weight="500" font-size="17" transform="translate(104.902 449)">全体</text></g></g><g clip-path="url(#clip163)"><g clip-path="url(#clip164)"><text fill="#595959" font-family="Yu Gothic,Yu Gothic_MSFontService,sans-serif" font-weight="500" font-size="17" transform="translate(138.236 449)">(n=1756)</text></g></g><g clip-path="url(#clip165)"><rect x="762.5" y="440.5" width="9" height="8" stroke="#000000" stroke-width="1.33333" stroke-linejoin="round" stroke-miterlimit="10" fill="#FFFFFF"/></g><g clip-path="url(#clip166)"><text fill="#595959" font-family="Yu Gothic,Yu Gothic_MSFontService,sans-serif" font-weight="500" font-size="15" transform="translate(774.761 448)">全く感じていな</text></g><g clip-path="url(#clip167)"><text fill="#595959" font-family="Yu Gothic,Yu Gothic_MSFontService,sans-serif" font-weight="500" font-size="15" transform="translate(774.761 473)">かった</text></g><g clip-path="url(#clip168)"><rect x="762.5" y="489.5" width="9" height="8" stroke="#000000" stroke-width="1.33333" stroke-linejoin="round" stroke-miterlimit="10" fill="#F1F8FD"/></g><g clip-path="url(#clip169)"><text fill="#595959" font-family="Yu Gothic,Yu Gothic_MSFontService,sans-serif" font-weight="500" font-size="15" transform="translate(774.761 497)">ほとんど感じてい</text></g><g clip-path="url(#clip170)"><text fill="#595959" font-family="Yu Gothic,Yu Gothic_MSFontService,sans-serif" font-weight="500" font-size="15" transform="translate(774.761 522)">なかった</text></g><g clip-path="url(#clip171)"><rect x="762.5" y="537.5" width="9" height="9" stroke="#000000" stroke-width="1.33333" stroke-linejoin="round" stroke-miterlimit="10" fill="#C2DDF6"/></g><g clip-path="url(#clip172)"><text fill="#595959" font-family="Yu Gothic,Yu Gothic_MSFontService,sans-serif" font-weight="500" font-size="15" transform="translate(774.761 546)">少し感じていた</text></g><g clip-path="url(#clip173)"><rect x="762.5" y="586.5" width="9" height="9" stroke="#000000" stroke-width="1.33333" stroke-linejoin="round" stroke-miterlimit="10" fill="#9ECBF0"/></g><g clip-path="url(#clip174)"><text fill="#595959" font-family="Yu Gothic,Yu Gothic_MSFontService,sans-serif" font-weight="500" font-size="15" transform="translate(774.761 595)">かなり感じていた</text></g><g clip-path="url(#clip175)"><rect x="762.5" y="635.5" width="9" height="9" stroke="#000000" stroke-width="1.33333" stroke-linejoin="round" stroke-miterlimit="10" fill="#095085"/></g><g clip-path="url(#clip176)"><text fill="#595959" font-family="Yu Gothic,Yu Gothic_MSFontService,sans-serif" font-weight="500" font-size="15" transform="translate(774.761 644)">深刻に感じていた</text></g><rect x="34.5001" y="17.5001" width="869" height="689" stroke="#000000" stroke-width="1.33333" stroke-miterlimit="8" fill="none"/><text font-family="Yu Gothic,Yu Gothic_MSFontService,sans-serif" font-weight="500" font-size="19" transform="translate(61.6649 410)">2020Aセメスター</text><path d="M61.6649 411.7 110.665 411.7 159.665 411.7 208.665 411.7 208.665 412.7 159.665 412.7 110.665 412.7 61.6649 412.7Z" fill-rule="evenodd"/><text font-family="Yu Gothic,Yu Gothic_MSFontService,sans-serif" font-weight="500" font-size="19" transform="translate(61.6649 109)">2020Sセメスター</text><path d="M61.6649 110.694 110.332 110.694 158.998 110.694 207.665 110.694 207.665 111.694 158.998 111.694 110.332 111.694 61.6649 111.694Z" fill-rule="evenodd"/></g></svg>