<svg width="2994" height="1288" xmlns="http://www.w3.org/2000/svg" xmlns:xlink="http://www.w3.org/1999/xlink" overflow="hidden"><defs><clipPath id="clip0"><rect x="2375" y="1582" width="2994" height="1288"/></clipPath><clipPath id="clip1"><rect x="2377" y="1583" width="2988" height="1284"/></clipPath><clipPath id="clip2"><rect x="3017" y="1869" width="1800" height="859"/></clipPath><clipPath id="clip3"><rect x="3017" y="1869" width="1800" height="859"/></clipPath><clipPath id="clip4"><rect x="3017" y="1869" width="1800" height="859"/></clipPath><clipPath id="clip5"><rect x="3017" y="1869" width="1800" height="859"/></clipPath><clipPath id="clip6"><rect x="3017" y="1869" width="1800" height="859"/></clipPath><clipPath id="clip7"><rect x="3017" y="1869" width="1800" height="859"/></clipPath><clipPath id="clip8"><rect x="3017" y="1869" width="1800" height="859"/></clipPath><clipPath id="clip9"><rect x="2377" y="1583" width="2988" height="1284"/></clipPath><clipPath id="clip10"><rect x="2377" y="1583" width="2988" height="1284"/></clipPath><clipPath id="clip11"><rect x="2377" y="1583" width="2988" height="1284"/></clipPath><clipPath id="clip12"><rect x="2377" y="1583" width="2988" height="1284"/></clipPath><clipPath id="clip13"><rect x="2377" y="1583" width="2988" height="1284"/></clipPath><clipPath id="clip14"><rect x="2377" y="1583" width="2988" height="1284"/></clipPath><clipPath id="clip15"><rect x="2377" y="1583" width="2988" height="1284"/></clipPath><clipPath id="clip16"><rect x="2377" y="1583" width="2988" height="1284"/></clipPath><clipPath id="clip17"><rect x="2377" y="1583" width="2988" height="1284"/></clipPath><clipPath id="clip18"><rect x="2377" y="1583" width="2988" height="1284"/></clipPath><clipPath id="clip19"><rect x="2377" y="1583" width="2988" height="1284"/></clipPath><clipPath id="clip20"><rect x="2377" y="1583" width="2988" height="1284"/></clipPath><clipPath id="clip21"><rect x="2377" y="1583" width="2988" height="1284"/></clipPath><clipPath id="clip22"><rect x="2377" y="1583" width="2988" height="1284"/></clipPath><clipPath id="clip23"><rect x="2377" y="1583" width="2988" height="1284"/></clipPath><clipPath id="clip24"><rect x="2377" y="1583" width="2988" height="1284"/></clipPath><clipPath id="clip25"><rect x="2377" y="1583" width="2988" height="1284"/></clipPath><clipPath id="clip26"><rect x="2377" y="1583" width="2988" height="1284"/></clipPath><clipPath id="clip27"><rect x="2377" y="1583" width="2988" height="1284"/></clipPath><clipPath id="clip28"><rect x="2377" y="1583" width="2988" height="1284"/></clipPath><clipPath id="clip29"><rect x="2377" y="1583" width="2988" height="1284"/></clipPath><clipPath id="clip30"><rect x="2377" y="1583" width="2988" height="1284"/></clipPath><clipPath id="clip31"><rect x="2377" y="1583" width="2988" height="1284"/></clipPath><clipPath id="clip32"><rect x="2377" y="1583" width="2988" height="1284"/></clipPath><clipPath id="clip33"><rect x="2377" y="1583" width="2988" height="1284"/></clipPath><clipPath id="clip34"><rect x="2377" y="1583" width="2988" height="1284"/></clipPath><clipPath id="clip35"><rect x="2377" y="1583" width="2988" height="1284"/></clipPath><clipPath id="clip36"><rect x="2377" y="1583" width="2988" height="1284"/></clipPath><clipPath id="clip37"><rect x="2377" y="1583" width="2988" height="1284"/></clipPath><clipPath id="clip38"><rect x="2377" y="1583" width="2988" height="1284"/></clipPath><clipPath id="clip39"><rect x="2377" y="1583" width="2988" height="1284"/></clipPath><clipPath id="clip40"><rect x="2377" y="1583" width="2988" height="1284"/></clipPath><clipPath id="clip41"><rect x="2377" y="1583" width="2988" height="1284"/></clipPath><clipPath id="clip42"><rect x="2377" y="1583" width="2988" height="1284"/></clipPath><clipPath id="clip43"><rect x="2377" y="1583" width="2988" height="1284"/></clipPath><clipPath id="clip44"><rect x="2377" y="1583" width="2988" height="1284"/></clipPath><clipPath id="clip45"><rect x="2377" y="1583" width="2988" height="1284"/></clipPath><clipPath id="clip46"><rect x="1566" y="2578" width="2476" height="144"/></clipPath><clipPath id="clip47"><rect x="2377" y="1583" width="2988" height="1284"/></clipPath><clipPath id="clip48"><rect x="1566" y="2578" width="2476" height="144"/></clipPath><clipPath id="clip49"><rect x="2377" y="1583" width="2988" height="1284"/></clipPath><clipPath id="clip50"><rect x="1438" y="2435" width="2699" height="144"/></clipPath><clipPath id="clip51"><rect x="2377" y="1583" width="2988" height="1284"/></clipPath><clipPath id="clip52"><rect x="1438" y="2435" width="2699" height="144"/></clipPath><clipPath id="clip53"><rect x="2377" y="1583" width="2988" height="1284"/></clipPath><clipPath id="clip54"><rect x="853" y="2293" width="3724" height="143"/></clipPath><clipPath id="clip55"><rect x="2377" y="1583" width="2988" height="1284"/></clipPath><clipPath id="clip56"><rect x="853" y="2293" width="3724" height="143"/></clipPath><clipPath id="clip57"><rect x="2377" y="1583" width="2988" height="1284"/></clipPath><clipPath id="clip58"><rect x="853" y="2293" width="3724" height="143"/></clipPath><clipPath id="clip59"><rect x="2377" y="1583" width="2988" height="1284"/></clipPath><clipPath id="clip60"><rect x="853" y="2293" width="3724" height="143"/></clipPath><clipPath id="clip61"><rect x="2377" y="1583" width="2988" height="1284"/></clipPath><clipPath id="clip62"><rect x="1311" y="2150" width="2922" height="144"/></clipPath><clipPath id="clip63"><rect x="2377" y="1583" width="2988" height="1284"/></clipPath><clipPath id="clip64"><rect x="1311" y="2150" width="2922" height="144"/></clipPath><clipPath id="clip65"><rect x="2377" y="1583" width="2988" height="1284"/></clipPath><clipPath id="clip66"><rect x="1311" y="2150" width="2922" height="144"/></clipPath><clipPath id="clip67"><rect x="2377" y="1583" width="2988" height="1284"/></clipPath><clipPath id="clip68"><rect x="1311" y="2150" width="2922" height="144"/></clipPath><clipPath id="clip69"><rect x="2377" y="1583" width="2988" height="1284"/></clipPath><clipPath id="clip70"><rect x="1311" y="2008" width="2922" height="143"/></clipPath><clipPath id="clip71"><rect x="2377" y="1583" width="2988" height="1284"/></clipPath><clipPath id="clip72"><rect x="1311" y="2008" width="2922" height="143"/></clipPath><clipPath id="clip73"><rect x="2377" y="1583" width="2988" height="1284"/></clipPath><clipPath id="clip74"><rect x="1311" y="2008" width="2922" height="143"/></clipPath><clipPath id="clip75"><rect x="2377" y="1583" width="2988" height="1284"/></clipPath><clipPath id="clip76"><rect x="1311" y="2008" width="2922" height="143"/></clipPath><clipPath id="clip77"><rect x="2377" y="1583" width="2988" height="1284"/></clipPath><clipPath id="clip78"><rect x="1540" y="1865" width="2521" height="144"/></clipPath><clipPath id="clip79"><rect x="2377" y="1583" width="2988" height="1284"/></clipPath><clipPath id="clip80"><rect x="1540" y="1865" width="2521" height="144"/></clipPath><clipPath id="clip81"><rect x="2377" y="1583" width="2988" height="1284"/></clipPath><clipPath id="clip82"><rect x="2377" y="1583" width="2988" height="1284"/></clipPath><clipPath id="clip83"><rect x="2377" y="1583" width="2988" height="1284"/></clipPath><clipPath id="clip84"><rect x="2377" y="1583" width="2988" height="1284"/></clipPath><clipPath id="clip85"><rect x="2377" y="1583" width="2988" height="1284"/></clipPath><clipPath id="clip86"><rect x="2377" y="1583" width="2988" height="1284"/></clipPath><clipPath id="clip87"><rect x="2377" y="1583" width="2988" height="1284"/></clipPath><clipPath id="clip88"><rect x="2377" y="1583" width="2988" height="1284"/></clipPath><clipPath id="clip89"><rect x="2377" y="1583" width="2988" height="1284"/></clipPath><clipPath id="clip90"><rect x="2377" y="1583" width="2988" height="1284"/></clipPath><clipPath id="clip91"><rect x="2377" y="1583" width="2988" height="1284"/></clipPath><clipPath id="clip92"><rect x="2377" y="1583" width="2988" height="1284"/></clipPath><clipPath id="clip93"><rect x="2377" y="1583" width="2989" height="1285"/></clipPath><clipPath id="clip94"><rect x="-6116" y="1592" width="19955" height="406"/></clipPath><clipPath id="clip95"><rect x="2377" y="1583" width="2989" height="1285"/></clipPath><clipPath id="clip96"><rect x="-6116" y="1592" width="19955" height="406"/></clipPath><clipPath id="clip97"><rect x="2377" y="1583" width="2989" height="1285"/></clipPath><clipPath id="clip98"><rect x="-6116" y="1592" width="19955" height="406"/></clipPath><clipPath id="clip99"><rect x="2377" y="1583" width="2989" height="1285"/></clipPath><clipPath id="clip100"><rect x="-6116" y="1592" width="19955" height="406"/></clipPath><clipPath id="clip101"><rect x="2377" y="1583" width="2989" height="1285"/></clipPath><clipPath id="clip102"><rect x="-6116" y="1592" width="19955" height="406"/></clipPath><clipPath id="clip103"><rect x="2377" y="1583" width="2989" height="1285"/></clipPath></defs><g clip-path="url(#clip0)" transform="translate(-2375 -1582)"><rect x="2377" y="1584" width="2989" height="1283" fill="#FFFFFF"/><g clip-path="url(#clip1)"><path d="M3466.61 1869.5 3466.61 2725.5M3915.63 1869.5 3915.63 2725.5M4364.64 1869.5 4364.64 2725.5M4813.5 1869.5 4813.5 2725.5" stroke="#D9D9D9" stroke-width="4.58333" stroke-linejoin="round" stroke-miterlimit="10" fill="none"/></g><g clip-path="url(#clip2)"><path d="M3407.5 1987.5 3017.5 1987.5 3017.5 1894.5 3407.5 1894.5Z" stroke="#000000" stroke-width="4.58333" stroke-linejoin="round" stroke-miterlimit="10" fill="#FFFFFF"/></g><g clip-path="url(#clip3)"><path d="M3432.61 2700.59 3017.5 2700.59 3017.5 2607.59 3432.61 2607.59ZM3623.62 2557.58 3017.5 2557.58 3017.5 2464.58 3623.62 2464.58ZM3402.61 2415.58 3017.5 2415.58 3017.5 2322.58 3402.61 2322.58ZM3181.6 2272.57 3017.5 2272.57 3017.5 2179.57 3181.6 2179.57ZM3084.6 2130.57 3017.5 2130.57 3017.5 2036.57 3084.6 2036.57Z" stroke="#000000" stroke-width="4.58333" stroke-linejoin="round" stroke-miterlimit="10" fill="#FFFFFF"/></g><g clip-path="url(#clip4)"><path d="M3918.5 1987.5 3407.5 1987.5 3407.5 1894.5 3918.5 1894.5Z" stroke="#000000" stroke-width="4.58333" stroke-linejoin="round" stroke-miterlimit="10" fill="#F1F8FD"/></g><g clip-path="url(#clip5)"><path d="M4191.64 2700.59 3432.61 2700.59 3432.61 2607.59 4191.64 2607.59ZM4223.64 2557.58 3623.62 2557.58 3623.62 2464.58 4223.64 2464.58ZM3931.63 2415.58 3402.61 2415.58 3402.61 2322.58 3931.63 2322.58ZM3640.62 2272.57 3181.6 2272.57 3181.6 2179.57 3640.62 2179.57ZM3359.61 2130.57 3084.6 2130.57 3084.6 2036.57 3359.61 2036.57Z" stroke="#000000" stroke-width="4.58333" stroke-linejoin="round" stroke-miterlimit="10" fill="#F1F8FD"/></g><g clip-path="url(#clip6)"><path d="M4537.65 2700.59 4191.64 2700.59 4191.64 2607.59 4537.65 2607.59ZM4532.65 2557.58 4223.64 2557.58 4223.64 2464.58 4532.65 2464.58ZM4388.64 2415.58 3931.63 2415.58 3931.63 2322.58 4388.64 2322.58ZM4142.64 2272.57 3640.62 2272.57 3640.62 2179.57 4142.64 2179.57ZM3942.63 2130.57 3359.61 2130.57 3359.61 2036.57 3942.63 2036.57ZM4340.64 1987.57 3918.63 1987.57 3918.63 1894.56 4340.64 1894.56Z" stroke="#000000" stroke-width="4.58333" stroke-linejoin="round" stroke-miterlimit="10" fill="#C2DDF6"/></g><g clip-path="url(#clip7)"><path d="M4675.65 2700.59 4537.65 2700.59 4537.65 2607.59 4675.65 2607.59ZM4716.66 2557.58 4532.65 2557.58 4532.65 2464.58 4716.66 2464.58ZM4651.65 2415.58 4388.64 2415.58 4388.64 2322.58 4651.65 2322.58ZM4517.65 2272.57 4142.64 2272.57 4142.64 2179.57 4517.65 2179.57ZM4451.65 2130.57 3942.63 2130.57 3942.63 2036.57 4451.65 2036.57ZM4625.65 1987.57 4340.64 1987.57 4340.64 1894.56 4625.65 1894.56Z" stroke="#000000" stroke-width="4.58333" stroke-linejoin="round" stroke-miterlimit="10" fill="#9ECBF0"/></g><g clip-path="url(#clip8)"><path d="M4813.66 2700.59 4675.65 2700.59 4675.65 2607.59 4813.66 2607.59ZM4813.66 2557.58 4716.66 2557.58 4716.66 2464.58 4813.66 2464.58ZM4813.66 2415.58 4651.65 2415.58 4651.65 2322.58 4813.66 2322.58ZM4813.66 2272.57 4517.65 2272.57 4517.65 2179.57 4813.66 2179.57ZM4813.66 2130.57 4451.65 2130.57 4451.65 2036.57 4813.66 2036.57ZM4813.66 1987.57 4625.65 1987.57 4625.65 1894.56 4813.66 1894.56Z" stroke="#000000" stroke-width="4.58333" stroke-linejoin="round" stroke-miterlimit="10" fill="#095085"/></g><g clip-path="url(#clip9)"><path d="M0 0 0.000360892 856" stroke="#D9D9D9" stroke-width="3.4375" stroke-linejoin="round" stroke-miterlimit="10" fill="none" fill-rule="evenodd" transform="matrix(1 0 0 -1 3017.5 2725.5)"/></g><g clip-path="url(#clip10)"><text fill="#404040" font-family="Yu Gothic,Yu Gothic_MSFontService,sans-serif" font-weight="700" font-size="55" transform="matrix(1 0 0 1 3209.33 2673)">6</text></g><g clip-path="url(#clip11)"><text fill="#404040" font-family="Yu Gothic,Yu Gothic_MSFontService,sans-serif" font-weight="700" font-size="55" transform="matrix(1 0 0 1 3273.21 2530)">243</text></g><g clip-path="url(#clip12)"><text fill="#404040" font-family="Yu Gothic,Yu Gothic_MSFontService,sans-serif" font-weight="700" font-size="55" transform="matrix(1 0 0 1 3178.48 2388)">95</text></g><g clip-path="url(#clip13)"><text fill="#404040" font-family="Yu Gothic,Yu Gothic_MSFontService,sans-serif" font-weight="700" font-size="55" transform="matrix(1 0 0 1 3067.99 2245)">27</text></g><g clip-path="url(#clip14)"><text fill="#404040" font-family="Yu Gothic,Yu Gothic_MSFontService,sans-serif" font-weight="700" font-size="55" transform="matrix(1 0 0 1 3019.86 2103)">10</text></g><g clip-path="url(#clip15)"><text fill="#404040" font-family="Yu Gothic,Yu Gothic_MSFontService,sans-serif" font-weight="700" font-size="55" transform="matrix(1 0 0 1 3165.41 1960)">381</text></g><g clip-path="url(#clip16)"><text fill="#404040" font-family="Yu Gothic,Yu Gothic_MSFontService,sans-serif" font-weight="700" font-size="55" transform="matrix(1 0 0 1 3780.66 2673)">11</text></g><g clip-path="url(#clip17)"><text fill="#404040" font-family="Yu Gothic,Yu Gothic_MSFontService,sans-serif" font-weight="700" font-size="55" transform="matrix(1 0 0 1 3875.97 2530)">241</text></g><g clip-path="url(#clip18)"><text fill="#404040" font-family="Yu Gothic,Yu Gothic_MSFontService,sans-serif" font-weight="700" font-size="55" transform="matrix(1 0 0 1 3619.75 2388)">131</text></g><g clip-path="url(#clip19)"><text fill="#404040" font-family="Yu Gothic,Yu Gothic_MSFontService,sans-serif" font-weight="700" font-size="55" transform="matrix(1 0 0 1 3379.38 2245)">76</text></g><g clip-path="url(#clip20)"><text fill="#404040" font-family="Yu Gothic,Yu Gothic_MSFontService,sans-serif" font-weight="700" font-size="55" transform="matrix(1 0 0 1 3190.73 2103)">41</text></g><g clip-path="url(#clip21)"><text fill="#404040" font-family="Yu Gothic,Yu Gothic_MSFontService,sans-serif" font-weight="700" font-size="55" transform="matrix(1 0 0 1 3615.9 1960)">500</text></g><g clip-path="url(#clip22)"><text fill="#404040" font-family="Yu Gothic,Yu Gothic_MSFontService,sans-serif" font-weight="700" font-size="55" transform="matrix(1 0 0 1 4348.98 2673)">5</text></g><g clip-path="url(#clip23)"><text fill="#404040" font-family="Yu Gothic,Yu Gothic_MSFontService,sans-serif" font-weight="700" font-size="55" transform="matrix(1 0 0 1 4330.53 2530)">124</text></g><g clip-path="url(#clip24)"><text fill="#404040" font-family="Yu Gothic,Yu Gothic_MSFontService,sans-serif" font-weight="700" font-size="55" transform="matrix(1 0 0 1 4113.2 2388)">113</text></g><g clip-path="url(#clip25)"><text fill="#404040" font-family="Yu Gothic,Yu Gothic_MSFontService,sans-serif" font-weight="700" font-size="55" transform="matrix(1 0 0 1 3860.08 2245)">83</text></g><g clip-path="url(#clip26)"><text fill="#404040" font-family="Yu Gothic,Yu Gothic_MSFontService,sans-serif" font-weight="700" font-size="55" transform="matrix(1 0 0 1 3619.58 2103)">87</text></g><g clip-path="url(#clip27)"><text fill="#404040" font-family="Yu Gothic,Yu Gothic_MSFontService,sans-serif" font-weight="700" font-size="55" transform="matrix(1 0 0 1 4082.24 1960)">412</text></g><g clip-path="url(#clip28)"><text fill="#404040" font-family="Yu Gothic,Yu Gothic_MSFontService,sans-serif" font-weight="700" font-size="55" transform="matrix(1 0 0 1 4590.73 2673)">2</text></g><g clip-path="url(#clip29)"><text fill="#404040" font-family="Yu Gothic,Yu Gothic_MSFontService,sans-serif" font-weight="700" font-size="55" transform="matrix(1 0 0 1 4592.87 2530)">74</text></g><g clip-path="url(#clip30)"><text fill="#404040" font-family="Yu Gothic,Yu Gothic_MSFontService,sans-serif" font-weight="700" font-size="55" transform="matrix(1 0 0 1 4488.93 2388)">65</text></g><g clip-path="url(#clip31)"><text fill="#404040" font-family="Yu Gothic,Yu Gothic_MSFontService,sans-serif" font-weight="700" font-size="55" transform="matrix(1 0 0 1 4298.45 2245)">62</text></g><g clip-path="url(#clip32)"><text fill="#404040" font-family="Yu Gothic,Yu Gothic_MSFontService,sans-serif" font-weight="700" font-size="55" transform="matrix(1 0 0 1 4165.7 2103)">76</text></g><g clip-path="url(#clip33)"><text fill="#404040" font-family="Yu Gothic,Yu Gothic_MSFontService,sans-serif" font-weight="700" font-size="55" transform="matrix(1 0 0 1 4435.57 1960)">279</text></g><g clip-path="url(#clip34)"><text fill="#FFFFFF" font-family="Yu Gothic,Yu Gothic_MSFontService,sans-serif" font-weight="700" font-size="55" transform="matrix(1 0 0 1 4728.87 2673)">2</text></g><g clip-path="url(#clip35)"><text fill="#FFFFFF" font-family="Yu Gothic,Yu Gothic_MSFontService,sans-serif" font-weight="700" font-size="55" transform="matrix(1 0 0 1 4733.6 2530)">39</text></g><g clip-path="url(#clip36)"><text fill="#FFFFFF" font-family="Yu Gothic,Yu Gothic_MSFontService,sans-serif" font-weight="700" font-size="55" transform="matrix(1 0 0 1 4701.28 2388)">40</text></g><g clip-path="url(#clip37)"><text fill="#FFFFFF" font-family="Yu Gothic,Yu Gothic_MSFontService,sans-serif" font-weight="700" font-size="55" transform="matrix(1 0 0 1 4634.03 2245)">49</text></g><g clip-path="url(#clip38)"><text fill="#FFFFFF" font-family="Yu Gothic,Yu Gothic_MSFontService,sans-serif" font-weight="700" font-size="55" transform="matrix(1 0 0 1 4601.25 2103)">54</text></g><g clip-path="url(#clip39)"><text fill="#FFFFFF" font-family="Yu Gothic,Yu Gothic_MSFontService,sans-serif" font-weight="700" font-size="55" transform="matrix(1 0 0 1 4672.32 1960)">184</text></g><g clip-path="url(#clip40)"><text fill="#595959" font-family="Yu Gothic,Yu Gothic_MSFontService,sans-serif" font-weight="500" font-size="60" transform="matrix(1 0 0 1 2977.4 2823)">0%</text></g><g clip-path="url(#clip41)"><text fill="#595959" font-family="Yu Gothic,Yu Gothic_MSFontService,sans-serif" font-weight="500" font-size="60" transform="matrix(1 0 0 1 3409.82 2823)">25%</text></g><g clip-path="url(#clip42)"><text fill="#595959" font-family="Yu Gothic,Yu Gothic_MSFontService,sans-serif" font-weight="500" font-size="60" transform="matrix(1 0 0 1 3858.77 2823)">50%</text></g><g clip-path="url(#clip43)"><text fill="#595959" font-family="Yu Gothic,Yu Gothic_MSFontService,sans-serif" font-weight="500" font-size="60" transform="matrix(1 0 0 1 4307.72 2823)">75%</text></g><g clip-path="url(#clip44)"><text fill="#595959" font-family="Yu Gothic,Yu Gothic_MSFontService,sans-serif" font-weight="500" font-size="60" transform="matrix(1 0 0 1 4740.14 2823)">100%</text></g><g clip-path="url(#clip45)"><g clip-path="url(#clip46)"><text fill="#595959" font-family="Yu Gothic,Yu Gothic_MSFontService,sans-serif" font-weight="500" font-size="57" transform="matrix(1 0 0 1 2626.92 2670)">その他</text></g></g><g clip-path="url(#clip47)"><g clip-path="url(#clip48)"><text fill="#595959" font-family="Yu Gothic,Yu Gothic_MSFontService,sans-serif" font-weight="500" font-size="57" transform="matrix(1 0 0 1 2798.79 2670)">(n=26)</text></g></g><g clip-path="url(#clip49)"><g clip-path="url(#clip50)"><text fill="#595959" font-family="Yu Gothic,Yu Gothic_MSFontService,sans-serif" font-weight="500" font-size="57" transform="matrix(1 0 0 1 2595.11 2527)">大学院</text></g></g><g clip-path="url(#clip51)"><g clip-path="url(#clip52)"><text fill="#595959" font-family="Yu Gothic,Yu Gothic_MSFontService,sans-serif" font-weight="500" font-size="57" transform="matrix(1 0 0 1 2766.98 2527)">(n=721)</text></g></g><g clip-path="url(#clip53)"><g clip-path="url(#clip54)"><text fill="#595959" font-family="Yu Gothic,Yu Gothic_MSFontService,sans-serif" font-weight="500" font-size="57" transform="matrix(1 0 0 1 2448.72 2385)">学部</text></g></g><g clip-path="url(#clip55)"><g clip-path="url(#clip56)"><text fill="#595959" font-family="Yu Gothic,Yu Gothic_MSFontService,sans-serif" font-weight="500" font-size="57" transform="matrix(1 0 0 1 2563.3 2385)">3</text></g></g><g clip-path="url(#clip57)"><g clip-path="url(#clip58)"><text fill="#595959" font-family="Yu Gothic,Yu Gothic_MSFontService,sans-serif" font-weight="500" font-size="57" transform="matrix(1 0 0 1 2595.11 2385)">年以上</text></g></g><g clip-path="url(#clip59)"><g clip-path="url(#clip60)"><text fill="#595959" font-family="Yu Gothic,Yu Gothic_MSFontService,sans-serif" font-weight="500" font-size="57" transform="matrix(1 0 0 1 2766.98 2385)">(n=444)</text></g></g><g clip-path="url(#clip61)"><g clip-path="url(#clip62)"><text fill="#595959" font-family="Yu Gothic,Yu Gothic_MSFontService,sans-serif" font-weight="500" font-size="57" transform="matrix(1 0 0 1 2563.3 2242)">学部</text></g></g><g clip-path="url(#clip63)"><g clip-path="url(#clip64)"><text fill="#595959" font-family="Yu Gothic,Yu Gothic_MSFontService,sans-serif" font-weight="500" font-size="57" transform="matrix(1 0 0 1 2677.88 2242)">2</text></g></g><g clip-path="url(#clip65)"><g clip-path="url(#clip66)"><text fill="#595959" font-family="Yu Gothic,Yu Gothic_MSFontService,sans-serif" font-weight="500" font-size="57" transform="matrix(1 0 0 1 2709.69 2242)">年</text></g></g><g clip-path="url(#clip67)"><g clip-path="url(#clip68)"><text fill="#595959" font-family="Yu Gothic,Yu Gothic_MSFontService,sans-serif" font-weight="500" font-size="57" transform="matrix(1 0 0 1 2766.98 2242)">(n=297)</text></g></g><g clip-path="url(#clip69)"><g clip-path="url(#clip70)"><text fill="#595959" font-family="Yu Gothic,Yu Gothic_MSFontService,sans-serif" font-weight="500" font-size="57" transform="matrix(1 0 0 1 2563.3 2100)">学部</text></g></g><g clip-path="url(#clip71)"><g clip-path="url(#clip72)"><text fill="#595959" font-family="Yu Gothic,Yu Gothic_MSFontService,sans-serif" font-weight="500" font-size="57" transform="matrix(1 0 0 1 2677.88 2100)">1</text></g></g><g clip-path="url(#clip73)"><g clip-path="url(#clip74)"><text fill="#595959" font-family="Yu Gothic,Yu Gothic_MSFontService,sans-serif" font-weight="500" font-size="57" transform="matrix(1 0 0 1 2709.69 2100)">年</text></g></g><g clip-path="url(#clip75)"><g clip-path="url(#clip76)"><text fill="#595959" font-family="Yu Gothic,Yu Gothic_MSFontService,sans-serif" font-weight="500" font-size="57" transform="matrix(1 0 0 1 2766.98 2100)">(n=268)</text></g></g><g clip-path="url(#clip77)"><g clip-path="url(#clip78)"><text fill="#595959" font-family="Yu Gothic,Yu Gothic_MSFontService,sans-serif" font-weight="500" font-size="57" transform="matrix(1 0 0 1 2620.59 1957)">全体</text></g></g><g clip-path="url(#clip79)"><g clip-path="url(#clip80)"><text fill="#595959" font-family="Yu Gothic,Yu Gothic_MSFontService,sans-serif" font-weight="500" font-size="57" transform="matrix(1 0 0 1 2735.17 1957)">(n=1756)</text></g></g><g clip-path="url(#clip81)"><rect x="4881.5" y="1912.5" width="29" height="28.9999" stroke="#000000" stroke-width="4.58333" stroke-linejoin="round" stroke-miterlimit="10" fill="#FFFFFF"/></g><g clip-path="url(#clip82)"><text fill="#595959" font-family="Yu Gothic,Yu Gothic_MSFontService,sans-serif" font-weight="500" font-size="50" transform="matrix(1 0 0 1 4923.23 1942)">全く感じていな</text></g><g clip-path="url(#clip83)"><text fill="#595959" font-family="Yu Gothic,Yu Gothic_MSFontService,sans-serif" font-weight="500" font-size="50" transform="matrix(1 0 0 1 4923.23 2026)">かった</text></g><g clip-path="url(#clip84)"><rect x="4881.5" y="2089.5" width="29" height="28.9998" stroke="#000000" stroke-width="4.58333" stroke-linejoin="round" stroke-miterlimit="10" fill="#F1F8FD"/></g><g clip-path="url(#clip85)"><text fill="#595959" font-family="Yu Gothic,Yu Gothic_MSFontService,sans-serif" font-weight="500" font-size="50" transform="matrix(1 0 0 1 4923.23 2118)">ほとんど感じてい</text></g><g clip-path="url(#clip86)"><text fill="#595959" font-family="Yu Gothic,Yu Gothic_MSFontService,sans-serif" font-weight="500" font-size="50" transform="matrix(1 0 0 1 4923.23 2202)">なかった</text></g><g clip-path="url(#clip87)"><rect x="4881.5" y="2265.5" width="29" height="28.9998" stroke="#000000" stroke-width="4.58333" stroke-linejoin="round" stroke-miterlimit="10" fill="#C2DDF6"/></g><g clip-path="url(#clip88)"><text fill="#595959" font-family="Yu Gothic,Yu Gothic_MSFontService,sans-serif" font-weight="500" font-size="50" transform="matrix(1 0 0 1 4923.23 2294)">少し感じていた</text></g><g clip-path="url(#clip89)"><rect x="4881.5" y="2442.5" width="29" height="29.0002" stroke="#000000" stroke-width="4.58333" stroke-linejoin="round" stroke-miterlimit="10" fill="#9ECBF0"/></g><g clip-path="url(#clip90)"><text fill="#595959" font-family="Yu Gothic,Yu Gothic_MSFontService,sans-serif" font-weight="500" font-size="50" transform="matrix(1 0 0 1 4923.23 2471)">かなり感じていた</text></g><g clip-path="url(#clip91)"><rect x="4881.5" y="2618.5" width="29" height="29.0002" stroke="#000000" stroke-width="4.58333" stroke-linejoin="round" stroke-miterlimit="10" fill="#095085"/></g><g clip-path="url(#clip92)"><text fill="#595959" font-family="Yu Gothic,Yu Gothic_MSFontService,sans-serif" font-weight="500" font-size="50" transform="matrix(1 0 0 1 4923.23 2647)">深刻に感じていた</text></g><rect x="2377.5" y="1584.5" width="2989" height="1283" stroke="#000000" stroke-width="4.58333" stroke-linejoin="round" stroke-miterlimit="10" fill="none"/><g clip-path="url(#clip93)"><g clip-path="url(#clip94)"><text font-family="Yu Gothic,Yu Gothic_MSFontService,sans-serif" font-weight="500" font-size="73" transform="matrix(1 0 0 1 2436.38 1696)">【心理面の印象】</text></g></g><g clip-path="url(#clip95)"><g clip-path="url(#clip96)"><text font-family="Yu Gothic,Yu Gothic_MSFontService,sans-serif" font-weight="500" font-size="73" transform="matrix(1 0 0 1 3023.04 1696)">2020</text></g></g><g clip-path="url(#clip97)"><g clip-path="url(#clip98)"><text font-family="Yu Gothic,Yu Gothic_MSFontService,sans-serif" font-weight="500" font-size="73" transform="matrix(1 0 0 1 3185.93 1696)">年度</text></g></g><g clip-path="url(#clip99)"><g clip-path="url(#clip100)"><text font-family="Yu Gothic,Yu Gothic_MSFontService,sans-serif" font-weight="500" font-size="73" transform="matrix(1 0 0 1 3332.6 1696)">A</text></g></g><g clip-path="url(#clip101)"><g clip-path="url(#clip102)"><text font-family="Yu Gothic,Yu Gothic_MSFontService,sans-serif" font-weight="500" font-size="73" transform="matrix(1 0 0 1 3380.27 1696)">セメスタを振り返って，課題が重いことへの不安・苦痛を</text></g></g><g clip-path="url(#clip103)"><text font-family="Yu Gothic,Yu Gothic_MSFontService,sans-serif" font-weight="500" font-size="73" transform="matrix(1 0 0 1 2436.38 1819)">どれだけ感じていたかについて教えてください。</text></g></g></svg>