<svg width="872" height="691" xmlns="http://www.w3.org/2000/svg" xmlns:xlink="http://www.w3.org/1999/xlink" overflow="hidden"><defs><clipPath id="clip0"><rect x="33" y="16" width="872" height="691"/></clipPath><clipPath id="clip1"><rect x="34" y="349" width="869" height="347"/></clipPath><clipPath id="clip2"><rect x="220" y="427" width="523" height="234"/></clipPath><clipPath id="clip3"><rect x="220" y="427" width="523" height="234"/></clipPath><clipPath id="clip4"><rect x="220" y="427" width="523" height="234"/></clipPath><clipPath id="clip5"><rect x="220" y="427" width="523" height="234"/></clipPath><clipPath id="clip6"><rect x="220" y="427" width="523" height="234"/></clipPath><clipPath id="clip7"><rect x="220" y="427" width="523" height="234"/></clipPath><clipPath id="clip8"><rect x="220" y="427" width="523" height="234"/></clipPath><clipPath id="clip9"><rect x="34" y="349" width="869" height="347"/></clipPath><clipPath id="clip10"><rect x="34" y="349" width="869" height="347"/></clipPath><clipPath id="clip11"><rect x="34" y="349" width="869" height="347"/></clipPath><clipPath id="clip12"><rect x="34" y="349" width="869" height="347"/></clipPath><clipPath id="clip13"><rect x="34" y="349" width="869" height="347"/></clipPath><clipPath id="clip14"><rect x="34" y="349" width="869" height="347"/></clipPath><clipPath id="clip15"><rect x="34" y="349" width="869" height="347"/></clipPath><clipPath id="clip16"><rect x="34" y="349" width="869" height="347"/></clipPath><clipPath id="clip17"><rect x="34" y="349" width="869" height="347"/></clipPath><clipPath id="clip18"><rect x="34" y="349" width="869" height="347"/></clipPath><clipPath id="clip19"><rect x="34" y="349" width="869" height="347"/></clipPath><clipPath id="clip20"><rect x="34" y="349" width="869" height="347"/></clipPath><clipPath id="clip21"><rect x="34" y="349" width="869" height="347"/></clipPath><clipPath id="clip22"><rect x="34" y="349" width="869" height="347"/></clipPath><clipPath id="clip23"><rect x="34" y="349" width="869" height="347"/></clipPath><clipPath id="clip24"><rect x="34" y="349" width="869" height="347"/></clipPath><clipPath id="clip25"><rect x="34" y="349" width="869" height="347"/></clipPath><clipPath id="clip26"><rect x="34" y="349" width="869" height="347"/></clipPath><clipPath id="clip27"><rect x="34" y="349" width="869" height="347"/></clipPath><clipPath id="clip28"><rect x="34" y="349" width="869" height="347"/></clipPath><clipPath id="clip29"><rect x="34" y="349" width="869" height="347"/></clipPath><clipPath id="clip30"><rect x="34" y="349" width="869" height="347"/></clipPath><clipPath id="clip31"><rect x="34" y="349" width="869" height="347"/></clipPath><clipPath id="clip32"><rect x="34" y="349" width="869" height="347"/></clipPath><clipPath id="clip33"><rect x="34" y="349" width="869" height="347"/></clipPath><clipPath id="clip34"><rect x="34" y="349" width="869" height="347"/></clipPath><clipPath id="clip35"><rect x="34" y="349" width="869" height="347"/></clipPath><clipPath id="clip36"><rect x="34" y="349" width="869" height="347"/></clipPath><clipPath id="clip37"><rect x="34" y="349" width="869" height="347"/></clipPath><clipPath id="clip38"><rect x="34" y="349" width="869" height="347"/></clipPath><clipPath id="clip39"><rect x="34" y="349" width="869" height="347"/></clipPath><clipPath id="clip40"><rect x="34" y="349" width="869" height="347"/></clipPath><clipPath id="clip41"><rect x="34" y="349" width="869" height="347"/></clipPath><clipPath id="clip42"><rect x="34" y="349" width="869" height="347"/></clipPath><clipPath id="clip43"><rect x="34" y="349" width="869" height="347"/></clipPath><clipPath id="clip44"><rect x="34" y="349" width="869" height="347"/></clipPath><clipPath id="clip45"><rect x="34" y="349" width="869" height="347"/></clipPath><clipPath id="clip46"><rect x="-202" y="620" width="721" height="40"/></clipPath><clipPath id="clip47"><rect x="34" y="349" width="869" height="347"/></clipPath><clipPath id="clip48"><rect x="-202" y="620" width="721" height="40"/></clipPath><clipPath id="clip49"><rect x="34" y="349" width="869" height="347"/></clipPath><clipPath id="clip50"><rect x="-239" y="581" width="785" height="40"/></clipPath><clipPath id="clip51"><rect x="34" y="349" width="869" height="347"/></clipPath><clipPath id="clip52"><rect x="-239" y="581" width="785" height="40"/></clipPath><clipPath id="clip53"><rect x="34" y="349" width="869" height="347"/></clipPath><clipPath id="clip54"><rect x="-410" y="542" width="1084" height="40"/></clipPath><clipPath id="clip55"><rect x="34" y="349" width="869" height="347"/></clipPath><clipPath id="clip56"><rect x="-410" y="542" width="1084" height="40"/></clipPath><clipPath id="clip57"><rect x="34" y="349" width="869" height="347"/></clipPath><clipPath id="clip58"><rect x="-410" y="542" width="1084" height="40"/></clipPath><clipPath id="clip59"><rect x="34" y="349" width="869" height="347"/></clipPath><clipPath id="clip60"><rect x="-410" y="542" width="1084" height="40"/></clipPath><clipPath id="clip61"><rect x="34" y="349" width="869" height="347"/></clipPath><clipPath id="clip62"><rect x="-276" y="503" width="850" height="40"/></clipPath><clipPath id="clip63"><rect x="34" y="349" width="869" height="347"/></clipPath><clipPath id="clip64"><rect x="-276" y="503" width="850" height="40"/></clipPath><clipPath id="clip65"><rect x="34" y="349" width="869" height="347"/></clipPath><clipPath id="clip66"><rect x="-276" y="503" width="850" height="40"/></clipPath><clipPath id="clip67"><rect x="34" y="349" width="869" height="347"/></clipPath><clipPath id="clip68"><rect x="-276" y="503" width="850" height="40"/></clipPath><clipPath id="clip69"><rect x="34" y="349" width="869" height="347"/></clipPath><clipPath id="clip70"><rect x="-276" y="464" width="850" height="40"/></clipPath><clipPath id="clip71"><rect x="34" y="349" width="869" height="347"/></clipPath><clipPath id="clip72"><rect x="-276" y="464" width="850" height="40"/></clipPath><clipPath id="clip73"><rect x="34" y="349" width="869" height="347"/></clipPath><clipPath id="clip74"><rect x="-276" y="464" width="850" height="40"/></clipPath><clipPath id="clip75"><rect x="34" y="349" width="869" height="347"/></clipPath><clipPath id="clip76"><rect x="-276" y="464" width="850" height="40"/></clipPath><clipPath id="clip77"><rect x="34" y="349" width="869" height="347"/></clipPath><clipPath id="clip78"><rect x="-210" y="425" width="734" height="40"/></clipPath><clipPath id="clip79"><rect x="34" y="349" width="869" height="347"/></clipPath><clipPath id="clip80"><rect x="-210" y="425" width="734" height="40"/></clipPath><clipPath id="clip81"><rect x="34" y="349" width="869" height="347"/></clipPath><clipPath id="clip82"><rect x="34" y="349" width="869" height="347"/></clipPath><clipPath id="clip83"><rect x="34" y="349" width="869" height="347"/></clipPath><clipPath id="clip84"><rect x="34" y="349" width="869" height="347"/></clipPath><clipPath id="clip85"><rect x="34" y="349" width="869" height="347"/></clipPath><clipPath id="clip86"><rect x="34" y="349" width="869" height="347"/></clipPath><clipPath id="clip87"><rect x="34" y="349" width="869" height="347"/></clipPath><clipPath id="clip88"><rect x="34" y="349" width="869" height="347"/></clipPath><clipPath id="clip89"><rect x="34" y="349" width="869" height="347"/></clipPath><clipPath id="clip90"><rect x="34" y="349" width="869" height="347"/></clipPath><clipPath id="clip91"><rect x="34" y="349" width="869" height="347"/></clipPath><clipPath id="clip92"><rect x="34" y="349" width="869" height="347"/></clipPath><clipPath id="clip93"><rect x="33" y="25" width="870" height="356"/></clipPath><clipPath id="clip94"><rect x="220" y="119" width="523" height="238"/></clipPath><clipPath id="clip95"><rect x="220" y="119" width="523" height="238"/></clipPath><clipPath id="clip96"><rect x="220" y="119" width="523" height="238"/></clipPath><clipPath id="clip97"><rect x="220" y="119" width="523" height="238"/></clipPath><clipPath id="clip98"><rect x="220" y="119" width="523" height="238"/></clipPath><clipPath id="clip99"><rect x="220" y="119" width="523" height="238"/></clipPath><clipPath id="clip100"><rect x="220" y="119" width="523" height="238"/></clipPath><clipPath id="clip101"><rect x="33" y="25" width="870" height="356"/></clipPath><clipPath id="clip102"><rect x="33" y="25" width="870" height="356"/></clipPath><clipPath id="clip103"><rect x="33" y="25" width="870" height="356"/></clipPath><clipPath id="clip104"><rect x="33" y="25" width="870" height="356"/></clipPath><clipPath id="clip105"><rect x="33" y="25" width="870" height="356"/></clipPath><clipPath id="clip106"><rect x="33" y="25" width="870" height="356"/></clipPath><clipPath id="clip107"><rect x="33" y="25" width="870" height="356"/></clipPath><clipPath id="clip108"><rect x="33" y="25" width="870" height="356"/></clipPath><clipPath id="clip109"><rect x="33" y="25" width="870" height="356"/></clipPath><clipPath id="clip110"><rect x="33" y="25" width="870" height="356"/></clipPath><clipPath id="clip111"><rect x="33" y="25" width="870" height="356"/></clipPath><clipPath id="clip112"><rect x="33" y="25" width="870" height="356"/></clipPath><clipPath id="clip113"><rect x="33" y="25" width="870" height="356"/></clipPath><clipPath id="clip114"><rect x="33" y="25" width="870" height="356"/></clipPath><clipPath id="clip115"><rect x="33" y="25" width="870" height="356"/></clipPath><clipPath id="clip116"><rect x="33" y="25" width="870" height="356"/></clipPath><clipPath id="clip117"><rect x="33" y="25" width="870" height="356"/></clipPath><clipPath id="clip118"><rect x="33" y="25" width="870" height="356"/></clipPath><clipPath id="clip119"><rect x="33" y="25" width="870" height="356"/></clipPath><clipPath id="clip120"><rect x="33" y="25" width="870" height="356"/></clipPath><clipPath id="clip121"><rect x="33" y="25" width="870" height="356"/></clipPath><clipPath id="clip122"><rect x="33" y="25" width="870" height="356"/></clipPath><clipPath id="clip123"><rect x="33" y="25" width="870" height="356"/></clipPath><clipPath id="clip124"><rect x="33" y="25" width="870" height="356"/></clipPath><clipPath id="clip125"><rect x="33" y="25" width="870" height="356"/></clipPath><clipPath id="clip126"><rect x="33" y="25" width="870" height="356"/></clipPath><clipPath id="clip127"><rect x="33" y="25" width="870" height="356"/></clipPath><clipPath id="clip128"><rect x="33" y="25" width="870" height="356"/></clipPath><clipPath id="clip129"><rect x="33" y="25" width="870" height="356"/></clipPath><clipPath id="clip130"><rect x="33" y="25" width="870" height="356"/></clipPath><clipPath id="clip131"><rect x="33" y="25" width="870" height="356"/></clipPath><clipPath id="clip132"><rect x="33" y="25" width="870" height="356"/></clipPath><clipPath id="clip133"><rect x="-203" y="315" width="721" height="41"/></clipPath><clipPath id="clip134"><rect x="33" y="25" width="870" height="356"/></clipPath><clipPath id="clip135"><rect x="-203" y="315" width="721" height="41"/></clipPath><clipPath id="clip136"><rect x="33" y="25" width="870" height="356"/></clipPath><clipPath id="clip137"><rect x="-240" y="276" width="786" height="40"/></clipPath><clipPath id="clip138"><rect x="33" y="25" width="870" height="356"/></clipPath><clipPath id="clip139"><rect x="-240" y="276" width="786" height="40"/></clipPath><clipPath id="clip140"><rect x="33" y="25" width="870" height="356"/></clipPath><clipPath id="clip141"><rect x="-410" y="236" width="1084" height="41"/></clipPath><clipPath id="clip142"><rect x="33" y="25" width="870" height="356"/></clipPath><clipPath id="clip143"><rect x="-410" y="236" width="1084" height="41"/></clipPath><clipPath id="clip144"><rect x="33" y="25" width="870" height="356"/></clipPath><clipPath id="clip145"><rect x="-410" y="236" width="1084" height="41"/></clipPath><clipPath id="clip146"><rect x="33" y="25" width="870" height="356"/></clipPath><clipPath id="clip147"><rect x="-410" y="236" width="1084" height="41"/></clipPath><clipPath id="clip148"><rect x="33" y="25" width="870" height="356"/></clipPath><clipPath id="clip149"><rect x="-277" y="197" width="851" height="40"/></clipPath><clipPath id="clip150"><rect x="33" y="25" width="870" height="356"/></clipPath><clipPath id="clip151"><rect x="-277" y="197" width="851" height="40"/></clipPath><clipPath id="clip152"><rect x="33" y="25" width="870" height="356"/></clipPath><clipPath id="clip153"><rect x="-277" y="197" width="851" height="40"/></clipPath><clipPath id="clip154"><rect x="33" y="25" width="870" height="356"/></clipPath><clipPath id="clip155"><rect x="-277" y="197" width="851" height="40"/></clipPath><clipPath id="clip156"><rect x="33" y="25" width="870" height="356"/></clipPath><clipPath id="clip157"><rect x="-277" y="157" width="851" height="41"/></clipPath><clipPath id="clip158"><rect x="33" y="25" width="870" height="356"/></clipPath><clipPath id="clip159"><rect x="-277" y="157" width="851" height="41"/></clipPath><clipPath id="clip160"><rect x="33" y="25" width="870" height="356"/></clipPath><clipPath id="clip161"><rect x="-277" y="157" width="851" height="41"/></clipPath><clipPath id="clip162"><rect x="33" y="25" width="870" height="356"/></clipPath><clipPath id="clip163"><rect x="-277" y="157" width="851" height="41"/></clipPath><clipPath id="clip164"><rect x="33" y="25" width="870" height="356"/></clipPath><clipPath id="clip165"><rect x="-210" y="118" width="734" height="40"/></clipPath><clipPath id="clip166"><rect x="33" y="25" width="870" height="356"/></clipPath><clipPath id="clip167"><rect x="-210" y="118" width="734" height="40"/></clipPath><clipPath id="clip168"><rect x="33" y="25" width="871" height="357"/></clipPath><clipPath id="clip169"><rect x="-2446" y="28" width="5825" height="113"/></clipPath><clipPath id="clip170"><rect x="33" y="25" width="871" height="357"/></clipPath><clipPath id="clip171"><rect x="-2446" y="28" width="5825" height="113"/></clipPath><clipPath id="clip172"><rect x="33" y="25" width="871" height="357"/></clipPath><clipPath id="clip173"><rect x="-2446" y="28" width="5825" height="113"/></clipPath><clipPath id="clip174"><rect x="33" y="25" width="871" height="357"/></clipPath><clipPath id="clip175"><rect x="-2446" y="28" width="5825" height="113"/></clipPath><clipPath id="clip176"><rect x="33" y="25" width="871" height="357"/></clipPath></defs><g clip-path="url(#clip0)" transform="translate(-33 -16)"><rect x="34" y="350" width="869" height="347" fill="#FFFFFF"/><g clip-path="url(#clip1)"><path d="M350.5 427.5 350.5 660.5M481.5 427.5 481.5 660.5M612.5 427.5 612.5 660.5M742.5 427.5 742.5 660.5" stroke="#D9D9D9" stroke-width="1.33333" stroke-linejoin="round" stroke-miterlimit="10" fill="none"/></g><g clip-path="url(#clip2)"><path d="M374.5 459.5 220.5 459.5 220.5 433.5 374.5 433.5Z" stroke="#000000" stroke-width="1.33333" stroke-linejoin="round" stroke-miterlimit="10" fill="#FFFFFF"/></g><g clip-path="url(#clip3)"><path d="M303.5 654.5 220.5 654.5 220.5 628.5 303.5 628.5ZM428.5 615.5 220.5 615.5 220.5 589.5 428.5 589.5ZM396.5 576.5 220.5 576.5 220.5 550.5 396.5 550.5ZM304.5 537.5 220.5 537.5 220.5 511.5 304.5 511.5ZM273.5 498.5 220.5 498.5 220.5 472.5 273.5 472.5Z" stroke="#000000" stroke-width="1.33333" stroke-linejoin="round" stroke-miterlimit="10" fill="#FFFFFF"/></g><g clip-path="url(#clip4)"><path d="M518.5 459.5 374.5 459.5 374.5 433.5 518.5 433.5Z" stroke="#000000" stroke-width="1.33333" stroke-linejoin="round" stroke-miterlimit="10" fill="#F1F8FD"/></g><g clip-path="url(#clip5)"><path d="M450.5 654.5 303.5 654.5 303.5 628.5 450.5 628.5ZM577.5 615.5 428.5 615.5 428.5 589.5 577.5 589.5ZM554.5 576.5 396.5 576.5 396.5 550.5 554.5 550.5ZM439.5 537.5 304.5 537.5 304.5 511.5 439.5 511.5ZM394.5 498.5 273.5 498.5 273.5 472.5 394.5 472.5Z" stroke="#000000" stroke-width="1.33333" stroke-linejoin="round" stroke-miterlimit="10" fill="#F1F8FD"/></g><g clip-path="url(#clip6)"><path d="M638.5 654.5 450.5 654.5 450.5 628.5 638.5 628.5ZM672.5 615.5 577.5 615.5 577.5 589.5 672.5 589.5ZM659.5 576.5 554.5 576.5 554.5 550.5 659.5 550.5ZM579.5 537.5 439.5 537.5 439.5 511.5 579.5 511.5ZM541.5 498.5 394.5 498.5 394.5 472.5 541.5 472.5ZM633.5 459.5 518.5 459.5 518.5 433.5 633.5 433.5Z" stroke="#000000" stroke-width="1.33333" stroke-linejoin="round" stroke-miterlimit="10" fill="#C2DDF6"/></g><g clip-path="url(#clip7)"><path d="M721.5 654.5 638.5 654.5 638.5 628.5 721.5 628.5ZM718.5 615.5 672.5 615.5 672.5 589.5 718.5 589.5ZM710.5 576.5 659.5 576.5 659.5 550.5 710.5 550.5ZM667.5 537.5 579.5 537.5 579.5 511.5 667.5 511.5ZM652.5 498.5 541.5 498.5 541.5 472.5 652.5 472.5ZM697.5 459.5 633.5 459.5 633.5 433.5 697.5 433.5Z" stroke="#000000" stroke-width="1.33333" stroke-linejoin="round" stroke-miterlimit="10" fill="#9ECBF0"/></g><g clip-path="url(#clip8)"><path d="M742.5 654.5 721.5 654.5 721.5 628.5 742.5 628.5ZM742.5 615.5 718.5 615.5 718.5 589.5 742.5 589.5ZM742.5 576.5 710.5 576.5 710.5 550.5 742.5 550.5ZM742.5 537.5 667.5 537.5 667.5 511.5 742.5 511.5ZM742.5 498.5 652.5 498.5 652.5 472.5 742.5 472.5ZM742.5 459.5 697.5 459.5 697.5 433.5 742.5 433.5Z" stroke="#000000" stroke-width="1.33333" stroke-linejoin="round" stroke-miterlimit="10" fill="#095085"/></g><g clip-path="url(#clip9)"><path d="M0 0 0.000104987 233" stroke="#D9D9D9" stroke-linejoin="round" stroke-miterlimit="10" fill="none" fill-rule="evenodd" transform="matrix(1 0 0 -1 220.5 660.5)"/></g><g clip-path="url(#clip10)"><text fill="#404040" font-family="Yu Gothic,Yu Gothic_MSFontService,sans-serif" font-weight="700" font-size="16" transform="translate(257.598 647)">4</text></g><g clip-path="url(#clip11)"><text fill="#404040" font-family="Yu Gothic,Yu Gothic_MSFontService,sans-serif" font-weight="700" font-size="16" transform="translate(310.755 608)">289</text></g><g clip-path="url(#clip12)"><text fill="#404040" font-family="Yu Gothic,Yu Gothic_MSFontService,sans-serif" font-weight="700" font-size="16" transform="translate(294.487 569)">149</text></g><g clip-path="url(#clip13)"><text fill="#404040" font-family="Yu Gothic,Yu Gothic_MSFontService,sans-serif" font-weight="700" font-size="16" transform="translate(253.292 530)">48</text></g><g clip-path="url(#clip14)"><text fill="#404040" font-family="Yu Gothic,Yu Gothic_MSFontService,sans-serif" font-weight="700" font-size="16" transform="translate(237.633 491)">27</text></g><g clip-path="url(#clip15)"><text fill="#404040" font-family="Yu Gothic,Yu Gothic_MSFontService,sans-serif" font-weight="700" font-size="16" transform="translate(283.449 452)">517</text></g><g clip-path="url(#clip16)"><text fill="#404040" font-family="Yu Gothic,Yu Gothic_MSFontService,sans-serif" font-weight="700" font-size="16" transform="translate(372.53 647)">7</text></g><g clip-path="url(#clip17)"><text fill="#404040" font-family="Yu Gothic,Yu Gothic_MSFontService,sans-serif" font-weight="700" font-size="16" transform="translate(489.458 608)">207</text></g><g clip-path="url(#clip18)"><text fill="#404040" font-family="Yu Gothic,Yu Gothic_MSFontService,sans-serif" font-weight="700" font-size="16" transform="translate(461.354 569)">134</text></g><g clip-path="url(#clip19)"><text fill="#404040" font-family="Yu Gothic,Yu Gothic_MSFontService,sans-serif" font-weight="700" font-size="16" transform="translate(362.86 530)">77</text></g><g clip-path="url(#clip20)"><text fill="#404040" font-family="Yu Gothic,Yu Gothic_MSFontService,sans-serif" font-weight="700" font-size="16" transform="translate(324.702 491)">62</text></g><g clip-path="url(#clip21)"><text fill="#404040" font-family="Yu Gothic,Yu Gothic_MSFontService,sans-serif" font-weight="700" font-size="16" transform="translate(432.626 452)">487</text></g><g clip-path="url(#clip22)"><text fill="#404040" font-family="Yu Gothic,Yu Gothic_MSFontService,sans-serif" font-weight="700" font-size="16" transform="translate(539.704 647)">9</text></g><g clip-path="url(#clip23)"><text fill="#404040" font-family="Yu Gothic,Yu Gothic_MSFontService,sans-serif" font-weight="700" font-size="16" transform="translate(611.595 608)">132</text></g><g clip-path="url(#clip24)"><text fill="#404040" font-family="Yu Gothic,Yu Gothic_MSFontService,sans-serif" font-weight="700" font-size="16" transform="translate(597.43 569)">89</text></g><g clip-path="url(#clip25)"><text fill="#404040" font-family="Yu Gothic,Yu Gothic_MSFontService,sans-serif" font-weight="700" font-size="16" transform="translate(500.476 530)">80</text></g><g clip-path="url(#clip26)"><text fill="#404040" font-family="Yu Gothic,Yu Gothic_MSFontService,sans-serif" font-weight="700" font-size="16" transform="translate(458.731 491)">75</text></g><g clip-path="url(#clip27)"><text fill="#404040" font-family="Yu Gothic,Yu Gothic_MSFontService,sans-serif" font-weight="700" font-size="16" transform="translate(562.19 452)">385</text></g><g clip-path="url(#clip28)"><text fill="#404040" font-family="Yu Gothic,Yu Gothic_MSFontService,sans-serif" font-weight="700" font-size="16" transform="translate(675.532 647)">4</text></g><g clip-path="url(#clip29)"><text fill="#404040" font-family="Yu Gothic,Yu Gothic_MSFontService,sans-serif" font-weight="700" font-size="16" transform="translate(686.438 608)">63</text></g><g clip-path="url(#clip30)"><text fill="#404040" font-family="Yu Gothic,Yu Gothic_MSFontService,sans-serif" font-weight="700" font-size="16" transform="translate(675.851 569)">44</text></g><g clip-path="url(#clip31)"><text fill="#404040" font-family="Yu Gothic,Yu Gothic_MSFontService,sans-serif" font-weight="700" font-size="16" transform="translate(614.426 530)">50</text></g><g clip-path="url(#clip32)"><text fill="#404040" font-family="Yu Gothic,Yu Gothic_MSFontService,sans-serif" font-weight="700" font-size="16" transform="translate(587.867 491)">57</text></g><g clip-path="url(#clip33)"><text fill="#404040" font-family="Yu Gothic,Yu Gothic_MSFontService,sans-serif" font-weight="700" font-size="16" transform="translate(651.786 452)">218</text></g><g clip-path="url(#clip34)"><text fill="#FFFFFF" font-family="Yu Gothic,Yu Gothic_MSFontService,sans-serif" font-weight="700" font-size="16" transform="translate(727.774 647)">1</text></g><g clip-path="url(#clip35)"><text fill="#FFFFFF" font-family="Yu Gothic,Yu Gothic_MSFontService,sans-serif" font-weight="700" font-size="16" transform="translate(721.386 608)">34</text></g><g clip-path="url(#clip36)"><text fill="#FFFFFF" font-family="Yu Gothic,Yu Gothic_MSFontService,sans-serif" font-weight="700" font-size="16" transform="translate(717.715 569)">27</text></g><g clip-path="url(#clip37)"><text fill="#FFFFFF" font-family="Yu Gothic,Yu Gothic_MSFontService,sans-serif" font-weight="700" font-size="16" transform="translate(695.944 530)">43</text></g><g clip-path="url(#clip38)"><text fill="#FFFFFF" font-family="Yu Gothic,Yu Gothic_MSFontService,sans-serif" font-weight="700" font-size="16" transform="translate(688.633 491)">46</text></g><g clip-path="url(#clip39)"><text fill="#FFFFFF" font-family="Yu Gothic,Yu Gothic_MSFontService,sans-serif" font-weight="700" font-size="16" transform="translate(706.613 452)">151</text></g><g clip-path="url(#clip40)"><text fill="#595959" font-family="Yu Gothic,Yu Gothic_MSFontService,sans-serif" font-weight="500" font-size="17" transform="translate(208.612 689)">0%</text></g><g clip-path="url(#clip41)"><text fill="#595959" font-family="Yu Gothic,Yu Gothic_MSFontService,sans-serif" font-weight="500" font-size="17" transform="translate(334.406 689)">25%</text></g><g clip-path="url(#clip42)"><text fill="#595959" font-family="Yu Gothic,Yu Gothic_MSFontService,sans-serif" font-weight="500" font-size="17" transform="translate(465.01 689)">50%</text></g><g clip-path="url(#clip43)"><text fill="#595959" font-family="Yu Gothic,Yu Gothic_MSFontService,sans-serif" font-weight="500" font-size="17" transform="translate(595.615 689)">75%</text></g><g clip-path="url(#clip44)"><text fill="#595959" font-family="Yu Gothic,Yu Gothic_MSFontService,sans-serif" font-weight="500" font-size="17" transform="translate(721.409 689)">100%</text></g><g clip-path="url(#clip45)"><g clip-path="url(#clip46)"><text fill="#595959" font-family="Yu Gothic,Yu Gothic_MSFontService,sans-serif" font-weight="500" font-size="17" transform="translate(106.653 646)">その他</text></g></g><g clip-path="url(#clip47)"><g clip-path="url(#clip48)"><text fill="#595959" font-family="Yu Gothic,Yu Gothic_MSFontService,sans-serif" font-weight="500" font-size="17" transform="translate(156.653 646)">(n=25)</text></g></g><g clip-path="url(#clip49)"><g clip-path="url(#clip50)"><text fill="#595959" font-family="Yu Gothic,Yu Gothic_MSFontService,sans-serif" font-weight="500" font-size="17" transform="translate(97.3995 607)">大学院</text></g></g><g clip-path="url(#clip51)"><g clip-path="url(#clip52)"><text fill="#595959" font-family="Yu Gothic,Yu Gothic_MSFontService,sans-serif" font-weight="500" font-size="17" transform="translate(147.4 607)">(n=725)</text></g></g><g clip-path="url(#clip53)"><g clip-path="url(#clip54)"><text fill="#595959" font-family="Yu Gothic,Yu Gothic_MSFontService,sans-serif" font-weight="500" font-size="17" transform="translate(54.8129 568)">学部</text></g></g><g clip-path="url(#clip55)"><g clip-path="url(#clip56)"><text fill="#595959" font-family="Yu Gothic,Yu Gothic_MSFontService,sans-serif" font-weight="500" font-size="17" transform="translate(88.1462 568)">3</text></g></g><g clip-path="url(#clip57)"><g clip-path="url(#clip58)"><text fill="#595959" font-family="Yu Gothic,Yu Gothic_MSFontService,sans-serif" font-weight="500" font-size="17" transform="translate(97.3995 568)">年以上</text></g></g><g clip-path="url(#clip59)"><g clip-path="url(#clip60)"><text fill="#595959" font-family="Yu Gothic,Yu Gothic_MSFontService,sans-serif" font-weight="500" font-size="17" transform="translate(147.4 568)">(n=443)</text></g></g><g clip-path="url(#clip61)"><g clip-path="url(#clip62)"><text fill="#595959" font-family="Yu Gothic,Yu Gothic_MSFontService,sans-serif" font-weight="500" font-size="17" transform="translate(88.1462 529)">学部</text></g></g><g clip-path="url(#clip63)"><g clip-path="url(#clip64)"><text fill="#595959" font-family="Yu Gothic,Yu Gothic_MSFontService,sans-serif" font-weight="500" font-size="17" transform="translate(121.48 529)">2</text></g></g><g clip-path="url(#clip65)"><g clip-path="url(#clip66)"><text fill="#595959" font-family="Yu Gothic,Yu Gothic_MSFontService,sans-serif" font-weight="500" font-size="17" transform="translate(130.733 529)">年</text></g></g><g clip-path="url(#clip67)"><g clip-path="url(#clip68)"><text fill="#595959" font-family="Yu Gothic,Yu Gothic_MSFontService,sans-serif" font-weight="500" font-size="17" transform="translate(147.4 529)">(n=298)</text></g></g><g clip-path="url(#clip69)"><g clip-path="url(#clip70)"><text fill="#595959" font-family="Yu Gothic,Yu Gothic_MSFontService,sans-serif" font-weight="500" font-size="17" transform="translate(88.1462 490)">学部</text></g></g><g clip-path="url(#clip71)"><g clip-path="url(#clip72)"><text fill="#595959" font-family="Yu Gothic,Yu Gothic_MSFontService,sans-serif" font-weight="500" font-size="17" transform="translate(121.48 490)">1</text></g></g><g clip-path="url(#clip73)"><g clip-path="url(#clip74)"><text fill="#595959" font-family="Yu Gothic,Yu Gothic_MSFontService,sans-serif" font-weight="500" font-size="17" transform="translate(130.733 490)">年</text></g></g><g clip-path="url(#clip75)"><g clip-path="url(#clip76)"><text fill="#595959" font-family="Yu Gothic,Yu Gothic_MSFontService,sans-serif" font-weight="500" font-size="17" transform="translate(147.4 490)">(n=267)</text></g></g><g clip-path="url(#clip77)"><g clip-path="url(#clip78)"><text fill="#595959" font-family="Yu Gothic,Yu Gothic_MSFontService,sans-serif" font-weight="500" font-size="17" transform="translate(104.813 451)">全体</text></g></g><g clip-path="url(#clip79)"><g clip-path="url(#clip80)"><text fill="#595959" font-family="Yu Gothic,Yu Gothic_MSFontService,sans-serif" font-weight="500" font-size="17" transform="translate(138.146 451)">(n=1758)</text></g></g><g clip-path="url(#clip81)"><rect x="762.5" y="437.5" width="8" height="9" stroke="#000000" stroke-width="1.33333" stroke-linejoin="round" stroke-miterlimit="10" fill="#FFFFFF"/></g><g clip-path="url(#clip82)"><text fill="#595959" font-family="Yu Gothic,Yu Gothic_MSFontService,sans-serif" font-weight="500" font-size="15" transform="translate(774.672 446)">全く感じていな</text></g><g clip-path="url(#clip83)"><text fill="#595959" font-family="Yu Gothic,Yu Gothic_MSFontService,sans-serif" font-weight="500" font-size="15" transform="translate(774.672 471)">かった</text></g><g clip-path="url(#clip84)"><rect x="762.5" y="485.5" width="8" height="8" stroke="#000000" stroke-width="1.33333" stroke-linejoin="round" stroke-miterlimit="10" fill="#F1F8FD"/></g><g clip-path="url(#clip85)"><text fill="#595959" font-family="Yu Gothic,Yu Gothic_MSFontService,sans-serif" font-weight="500" font-size="15" transform="translate(774.672 493)">ほとんど感じてい</text></g><g clip-path="url(#clip86)"><text fill="#595959" font-family="Yu Gothic,Yu Gothic_MSFontService,sans-serif" font-weight="500" font-size="15" transform="translate(774.672 518)">なかった</text></g><g clip-path="url(#clip87)"><rect x="762.5" y="533.5" width="8" height="8" stroke="#000000" stroke-width="1.33333" stroke-linejoin="round" stroke-miterlimit="10" fill="#C2DDF6"/></g><g clip-path="url(#clip88)"><text fill="#595959" font-family="Yu Gothic,Yu Gothic_MSFontService,sans-serif" font-weight="500" font-size="15" transform="translate(774.672 541)">少し感じていた</text></g><g clip-path="url(#clip89)"><rect x="762.5" y="580.5" width="8" height="9" stroke="#000000" stroke-width="1.33333" stroke-linejoin="round" stroke-miterlimit="10" fill="#9ECBF0"/></g><g clip-path="url(#clip90)"><text fill="#595959" font-family="Yu Gothic,Yu Gothic_MSFontService,sans-serif" font-weight="500" font-size="15" transform="translate(774.672 589)">かなり感じていた</text></g><g clip-path="url(#clip91)"><rect x="762.5" y="628.5" width="8" height="8" stroke="#000000" stroke-width="1.33333" stroke-linejoin="round" stroke-miterlimit="10" fill="#095085"/></g><g clip-path="url(#clip92)"><text fill="#595959" font-family="Yu Gothic,Yu Gothic_MSFontService,sans-serif" font-weight="500" font-size="15" transform="translate(774.672 636)">深刻に感じていた</text></g><rect x="34" y="26" width="869" height="355" fill="#FFFFFF"/><g clip-path="url(#clip93)"><path d="M350.5 119.5 350.5 356.5M481.5 119.5 481.5 356.5M612.5 119.5 612.5 356.5M742.5 119.5 742.5 356.5" stroke="#D9D9D9" stroke-width="1.33333" stroke-linejoin="round" stroke-miterlimit="10" fill="none"/></g><g clip-path="url(#clip94)"><path d="M377.5 152.5 220.5 152.5 220.5 126.5 377.5 126.5Z" stroke="#000000" stroke-width="1.33333" stroke-linejoin="round" stroke-miterlimit="10" fill="#FFFFFF"/></g><g clip-path="url(#clip95)"><path d="M319.5 349.5 220.5 349.5 220.5 323.5 319.5 323.5ZM423.5 310.5 220.5 310.5 220.5 284.5 423.5 284.5ZM396.5 270.5 220.5 270.5 220.5 244.5 396.5 244.5ZM341.5 231.5 220.5 231.5 220.5 205.5 341.5 205.5ZM269.5 191.5 220.5 191.5 220.5 165.5 269.5 165.5Z" stroke="#000000" stroke-width="1.33333" stroke-linejoin="round" stroke-miterlimit="10" fill="#FFFFFF"/></g><g clip-path="url(#clip96)"><path d="M519.5 152.5 377.5 152.5 377.5 126.5 519.5 126.5Z" stroke="#000000" stroke-width="1.33333" stroke-linejoin="round" stroke-miterlimit="10" fill="#F1F8FD"/></g><g clip-path="url(#clip97)"><path d="M419.5 349.5 319.5 349.5 319.5 323.5 419.5 323.5ZM560.5 310.5 423.5 310.5 423.5 284.5 560.5 284.5ZM549.5 270.5 396.5 270.5 396.5 244.5 549.5 244.5ZM531.5 231.5 341.5 231.5 341.5 205.5 531.5 205.5ZM349.5 191.5 269.5 191.5 269.5 165.5 349.5 165.5Z" stroke="#000000" stroke-width="1.33333" stroke-linejoin="round" stroke-miterlimit="10" fill="#F1F8FD"/></g><g clip-path="url(#clip98)"><path d="M618.5 349.5 419.5 349.5 419.5 323.5 618.5 323.5ZM646.5 310.5 560.5 310.5 560.5 284.5 646.5 284.5ZM654.5 270.5 549.5 270.5 549.5 244.5 654.5 244.5ZM675.5 231.5 531.5 231.5 531.5 205.5 675.5 205.5ZM480.5 191.5 349.5 191.5 349.5 165.5 480.5 165.5ZM627.5 152.5 519.5 152.5 519.5 126.5 627.5 126.5Z" stroke="#000000" stroke-width="1.33333" stroke-linejoin="round" stroke-miterlimit="10" fill="#C2DDF6"/></g><g clip-path="url(#clip99)"><path d="M717.5 349.5 618.5 349.5 618.5 323.5 717.5 323.5ZM701.5 310.5 646.5 310.5 646.5 284.5 701.5 284.5ZM716.5 270.5 654.5 270.5 654.5 244.5 716.5 244.5ZM719.5 231.5 675.5 231.5 675.5 205.5 719.5 205.5ZM613.5 191.5 480.5 191.5 480.5 165.5 613.5 165.5ZM695.5 152.5 627.5 152.5 627.5 126.5 695.5 126.5Z" stroke="#000000" stroke-width="1.33333" stroke-linejoin="round" stroke-miterlimit="10" fill="#9ECBF0"/></g><g clip-path="url(#clip100)"><path d="M742.5 349.5 717.5 349.5 717.5 323.5 742.5 323.5ZM742.5 310.5 701.5 310.5 701.5 284.5 742.5 284.5ZM742.5 270.5 716.5 270.5 716.5 244.5 742.5 244.5ZM742.5 231.5 719.5 231.5 719.5 205.5 742.5 205.5ZM742.5 191.5 613.5 191.5 613.5 165.5 742.5 165.5ZM742.5 152.5 695.5 152.5 695.5 126.5 742.5 126.5Z" stroke="#000000" stroke-width="1.33333" stroke-linejoin="round" stroke-miterlimit="10" fill="#095085"/></g><g clip-path="url(#clip101)"><path d="M0 0 0.000104987 237" stroke="#D9D9D9" stroke-linejoin="round" stroke-miterlimit="10" fill="none" fill-rule="evenodd" transform="matrix(1 0 0 -1 220.5 356.5)"/></g><g clip-path="url(#clip102)"><text fill="#404040" font-family="Yu Gothic,Yu Gothic_MSFontService,sans-serif" font-weight="700" font-size="16" transform="translate(265.316 342)">4</text></g><g clip-path="url(#clip103)"><text fill="#404040" font-family="Yu Gothic,Yu Gothic_MSFontService,sans-serif" font-weight="700" font-size="16" transform="translate(308.193 303)">279</text></g><g clip-path="url(#clip104)"><text fill="#404040" font-family="Yu Gothic,Yu Gothic_MSFontService,sans-serif" font-weight="700" font-size="16" transform="translate(294.65 263)">150</text></g><g clip-path="url(#clip105)"><text fill="#404040" font-family="Yu Gothic,Yu Gothic_MSFontService,sans-serif" font-weight="700" font-size="16" transform="translate(271.664 224)">69</text></g><g clip-path="url(#clip106)"><text fill="#404040" font-family="Yu Gothic,Yu Gothic_MSFontService,sans-serif" font-weight="700" font-size="16" transform="translate(235.424 184)">25</text></g><g clip-path="url(#clip107)"><text fill="#404040" font-family="Yu Gothic,Yu Gothic_MSFontService,sans-serif" font-weight="700" font-size="16" transform="translate(285.286 145)">527</text></g><g clip-path="url(#clip108)"><text fill="#404040" font-family="Yu Gothic,Yu Gothic_MSFontService,sans-serif" font-weight="700" font-size="16" transform="translate(364.862 342)">4</text></g><g clip-path="url(#clip109)"><text fill="#404040" font-family="Yu Gothic,Yu Gothic_MSFontService,sans-serif" font-weight="700" font-size="16" transform="translate(478.627 303)">188</text></g><g clip-path="url(#clip110)"><text fill="#404040" font-family="Yu Gothic,Yu Gothic_MSFontService,sans-serif" font-weight="700" font-size="16" transform="translate(459.439 263)">130</text></g><g clip-path="url(#clip111)"><text fill="#404040" font-family="Yu Gothic,Yu Gothic_MSFontService,sans-serif" font-weight="700" font-size="16" transform="translate(422.807 224)">108</text></g><g clip-path="url(#clip112)"><text fill="#404040" font-family="Yu Gothic,Yu Gothic_MSFontService,sans-serif" font-weight="700" font-size="16" transform="translate(300.017 184)">41</text></g><g clip-path="url(#clip113)"><text fill="#404040" font-family="Yu Gothic,Yu Gothic_MSFontService,sans-serif" font-weight="700" font-size="16" transform="translate(434.734 145)">471</text></g><g clip-path="url(#clip114)"><text fill="#404040" font-family="Yu Gothic,Yu Gothic_MSFontService,sans-serif" font-weight="700" font-size="16" transform="translate(514.182 342)">8</text></g><g clip-path="url(#clip115)"><text fill="#404040" font-family="Yu Gothic,Yu Gothic_MSFontService,sans-serif" font-weight="700" font-size="16" transform="translate(589.939 303)">117</text></g><g clip-path="url(#clip116)"><text fill="#404040" font-family="Yu Gothic,Yu Gothic_MSFontService,sans-serif" font-weight="700" font-size="16" transform="translate(592.914 263)">89</text></g><g clip-path="url(#clip117)"><text fill="#404040" font-family="Yu Gothic,Yu Gothic_MSFontService,sans-serif" font-weight="700" font-size="16" transform="translate(594.561 224)">82</text></g><g clip-path="url(#clip118)"><text fill="#404040" font-family="Yu Gothic,Yu Gothic_MSFontService,sans-serif" font-weight="700" font-size="16" transform="translate(405.715 184)">67</text></g><g clip-path="url(#clip119)"><text fill="#404040" font-family="Yu Gothic,Yu Gothic_MSFontService,sans-serif" font-weight="700" font-size="16" transform="translate(559.623 145)">363</text></g><g clip-path="url(#clip120)"><text fill="#404040" font-family="Yu Gothic,Yu Gothic_MSFontService,sans-serif" font-weight="700" font-size="16" transform="translate(663.501 342)">4</text></g><g clip-path="url(#clip121)"><text fill="#404040" font-family="Yu Gothic,Yu Gothic_MSFontService,sans-serif" font-weight="700" font-size="16" transform="translate(664.962 303)">76</text></g><g clip-path="url(#clip122)"><text fill="#404040" font-family="Yu Gothic,Yu Gothic_MSFontService,sans-serif" font-weight="700" font-size="16" transform="translate(676.486 263)">53</text></g><g clip-path="url(#clip123)"><text fill="#404040" font-family="Yu Gothic,Yu Gothic_MSFontService,sans-serif" font-weight="700" font-size="16" transform="translate(688.703 224)">25</text></g><g clip-path="url(#clip124)"><text fill="#404040" font-family="Yu Gothic,Yu Gothic_MSFontService,sans-serif" font-weight="700" font-size="16" transform="translate(537.837 184)">68</text></g><g clip-path="url(#clip125)"><text fill="#404040" font-family="Yu Gothic,Yu Gothic_MSFontService,sans-serif" font-weight="700" font-size="16" transform="translate(647.824 145)">226</text></g><g clip-path="url(#clip126)"><text fill="#FFFFFF" font-family="Yu Gothic,Yu Gothic_MSFontService,sans-serif" font-weight="700" font-size="16" transform="translate(725.717 342)">1</text></g><g clip-path="url(#clip127)"><text fill="#FFFFFF" font-family="Yu Gothic,Yu Gothic_MSFontService,sans-serif" font-weight="700" font-size="16" transform="translate(713.136 303)">56</text></g><g clip-path="url(#clip128)"><text fill="#FFFFFF" font-family="Yu Gothic,Yu Gothic_MSFontService,sans-serif" font-weight="700" font-size="16" transform="translate(720.626 263)">22</text></g><g clip-path="url(#clip129)"><text fill="#FFFFFF" font-family="Yu Gothic,Yu Gothic_MSFontService,sans-serif" font-weight="700" font-size="16" transform="translate(722.136 224)">13</text></g><g clip-path="url(#clip130)"><text fill="#FFFFFF" font-family="Yu Gothic,Yu Gothic_MSFontService,sans-serif" font-weight="700" font-size="16" transform="translate(668.981 184)">66</text></g><g clip-path="url(#clip131)"><text fill="#FFFFFF" font-family="Yu Gothic,Yu Gothic_MSFontService,sans-serif" font-weight="700" font-size="16" transform="translate(705.327 145)">158</text></g><g clip-path="url(#clip132)"><g clip-path="url(#clip133)"><text fill="#595959" font-family="Yu Gothic,Yu Gothic_MSFontService,sans-serif" font-weight="500" font-size="17" transform="translate(106.391 341)">その他</text></g></g><g clip-path="url(#clip134)"><g clip-path="url(#clip135)"><text fill="#595959" font-family="Yu Gothic,Yu Gothic_MSFontService,sans-serif" font-weight="500" font-size="17" transform="translate(156.391 341)">(n=21)</text></g></g><g clip-path="url(#clip136)"><g clip-path="url(#clip137)"><text fill="#595959" font-family="Yu Gothic,Yu Gothic_MSFontService,sans-serif" font-weight="500" font-size="17" transform="translate(97.1376 302)">大学院</text></g></g><g clip-path="url(#clip138)"><g clip-path="url(#clip139)"><text fill="#595959" font-family="Yu Gothic,Yu Gothic_MSFontService,sans-serif" font-weight="500" font-size="17" transform="translate(147.138 302)">(n=716)</text></g></g><g clip-path="url(#clip140)"><g clip-path="url(#clip141)"><text fill="#595959" font-family="Yu Gothic,Yu Gothic_MSFontService,sans-serif" font-weight="500" font-size="17" transform="translate(54.5509 263)">学部</text></g></g><g clip-path="url(#clip142)"><g clip-path="url(#clip143)"><text fill="#595959" font-family="Yu Gothic,Yu Gothic_MSFontService,sans-serif" font-weight="500" font-size="17" transform="translate(87.8843 263)">3</text></g></g><g clip-path="url(#clip144)"><g clip-path="url(#clip145)"><text fill="#595959" font-family="Yu Gothic,Yu Gothic_MSFontService,sans-serif" font-weight="500" font-size="17" transform="translate(97.1376 263)">年以上</text></g></g><g clip-path="url(#clip146)"><g clip-path="url(#clip147)"><text fill="#595959" font-family="Yu Gothic,Yu Gothic_MSFontService,sans-serif" font-weight="500" font-size="17" transform="translate(147.138 263)">(n=444)</text></g></g><g clip-path="url(#clip148)"><g clip-path="url(#clip149)"><text fill="#595959" font-family="Yu Gothic,Yu Gothic_MSFontService,sans-serif" font-weight="500" font-size="17" transform="translate(87.8843 223)">学部</text></g></g><g clip-path="url(#clip150)"><g clip-path="url(#clip151)"><text fill="#595959" font-family="Yu Gothic,Yu Gothic_MSFontService,sans-serif" font-weight="500" font-size="17" transform="translate(121.218 223)">2</text></g></g><g clip-path="url(#clip152)"><g clip-path="url(#clip153)"><text fill="#595959" font-family="Yu Gothic,Yu Gothic_MSFontService,sans-serif" font-weight="500" font-size="17" transform="translate(130.471 223)">年</text></g></g><g clip-path="url(#clip154)"><g clip-path="url(#clip155)"><text fill="#595959" font-family="Yu Gothic,Yu Gothic_MSFontService,sans-serif" font-weight="500" font-size="17" transform="translate(147.138 223)">(n=297)</text></g></g><g clip-path="url(#clip156)"><g clip-path="url(#clip157)"><text fill="#595959" font-family="Yu Gothic,Yu Gothic_MSFontService,sans-serif" font-weight="500" font-size="17" transform="translate(87.8843 184)">学部</text></g></g><g clip-path="url(#clip158)"><g clip-path="url(#clip159)"><text fill="#595959" font-family="Yu Gothic,Yu Gothic_MSFontService,sans-serif" font-weight="500" font-size="17" transform="translate(121.218 184)">1</text></g></g><g clip-path="url(#clip160)"><g clip-path="url(#clip161)"><text fill="#595959" font-family="Yu Gothic,Yu Gothic_MSFontService,sans-serif" font-weight="500" font-size="17" transform="translate(130.471 184)">年</text></g></g><g clip-path="url(#clip162)"><g clip-path="url(#clip163)"><text fill="#595959" font-family="Yu Gothic,Yu Gothic_MSFontService,sans-serif" font-weight="500" font-size="17" transform="translate(147.138 184)">(n=267)</text></g></g><g clip-path="url(#clip164)"><g clip-path="url(#clip165)"><text fill="#595959" font-family="Yu Gothic,Yu Gothic_MSFontService,sans-serif" font-weight="500" font-size="17" transform="translate(104.551 144)">全体</text></g></g><g clip-path="url(#clip166)"><g clip-path="url(#clip167)"><text fill="#595959" font-family="Yu Gothic,Yu Gothic_MSFontService,sans-serif" font-weight="500" font-size="17" transform="translate(137.884 144)">(n=1745)</text></g></g><g clip-path="url(#clip168)"><g clip-path="url(#clip169)"><text font-family="Yu Gothic,Yu Gothic_MSFontService,sans-serif" font-weight="500" font-size="21" transform="translate(50.8927 53)">【</text></g></g><g clip-path="url(#clip170)"><g clip-path="url(#clip171)"><text font-family="Yu Gothic,Yu Gothic_MSFontService,sans-serif" font-weight="500" font-size="21" transform="translate(72.226 53)">心理面の印象</text></g></g><g clip-path="url(#clip172)"><g clip-path="url(#clip173)"><text font-family="Yu Gothic,Yu Gothic_MSFontService,sans-serif" font-weight="500" font-size="21" transform="translate(200.226 53)">】</text></g></g><g clip-path="url(#clip174)"><g clip-path="url(#clip175)"><text font-family="Yu Gothic,Yu Gothic_MSFontService,sans-serif" font-weight="500" font-size="21" transform="translate(221.559 53)">各セメスターを振り返って，授業についていけていないのではないか</text></g></g><g clip-path="url(#clip176)"><text font-family="Yu Gothic,Yu Gothic_MSFontService,sans-serif" font-weight="500" font-size="21" transform="translate(50.8927 78)">という不安・苦痛をどれだけ感じていたかについて教えてください．</text></g><rect x="34.5001" y="17.5001" width="869" height="689" stroke="#000000" stroke-width="1.33333" stroke-miterlimit="8" fill="none"/><text font-family="Yu Gothic,Yu Gothic_MSFontService,sans-serif" font-weight="500" font-size="19" transform="translate(61.6649 410)">2020Aセメスター</text><path d="M61.6649 411.7 110.665 411.7 159.665 411.7 208.665 411.7 208.665 412.7 159.665 412.7 110.665 412.7 61.6649 412.7Z" fill-rule="evenodd"/><text font-family="Yu Gothic,Yu Gothic_MSFontService,sans-serif" font-weight="500" font-size="19" transform="translate(61.6649 109)">2020Sセメスター</text><path d="M61.6649 110.694 110.332 110.694 158.998 110.694 207.665 110.694 207.665 111.694 158.998 111.694 110.332 111.694 61.6649 111.694Z" fill-rule="evenodd"/></g></svg>