<?xml version="1.0" encoding="utf-8"?>
<!-- Generator: Adobe Illustrator 28.3.0, SVG Export Plug-In . SVG Version: 6.00 Build 0)  -->
<svg version="1.1" id="design" xmlns="http://www.w3.org/2000/svg" xmlns:xlink="http://www.w3.org/1999/xlink" x="0px" y="0px"
	 viewBox="0 0 612.24 145.56" style="enable-background:new 0 0 612.24 145.56;" xml:space="preserve">
<style type="text/css">
	.st0{fill:#0B8BEE;}
	.st1{fill:#FFCD00;}
</style>
<g>
	<g>
		<path class="st0" d="M136.9,67.07c0-1.39-1.16-2.55-2.57-2.55c-0.21,0-0.4,0.03-0.59,0.08c-22.68,4.66-46.32,6.51-70.54,5.19
			c-7.46-0.41-14.79,0-22.03,0.55c-0.55,0.05-1.1,0.1-1.63,0.18C33.76,71.3,28.23,73.85,23.93,78c-3.81,3.7-6.51,8.46-7.67,13.62
			c-1.38,6.22-0.4,12.65,2.26,18.4c2.58,5.57,6.71,10.44,11.83,13.92c5.57,3.7,11.69,6.59,18.12,8.52
			c4.05,1.22,7.65,1.95,11.92,2.47c0.06-1.59,2.5-4.08,2.58-5.28c0.09-1.2-0.83-2.26-2.04-2.35c-6.64,0.25-11.51,0.09-17.74-2.21
			c-6.39-2.37-12.17-6.27-16.74-11.29c-2.2-2.4-4.03-5.05-5.19-8.1c-1.15-3.04-1.65-6.3-1.47-9.55
			c0.63-10.88,9.17-20.08,20.06-21.63c6.03-0.86,12.27,0.68,17.19,4.24c2.57,1.86,4.76,4.24,6.36,6.95c1.83,3.07,3.35,6.31,4.4,9.71
			c2.2,7.1,2.41,14.85,1.46,22.17c-0.41,3.1-1.06,6.19-1.96,9.2c-0.51,1.72-1.12,3.42-1.8,5.07c-0.13,0.3-0.19,0.63-0.19,0.97
			c0,1.39,1.12,2.49,2.5,2.54c0.17,0,0.47,0.01,0.64,0.01c16.78,0,32.13-5.98,44.04-15.9c0.01,0,0.03-0.02,0.05-0.03
			c0.48-0.46,0.76-1.09,0.76-1.78c0-0.52-0.18-0.98-0.42-1.39c-4.46-7.66-14.17-18.69-14.17-18.69s11,9.75,18.88,14.01
			c0.42,0.22,0.89,0.42,1.41,0.42c0.71,0,1.35-0.28,1.8-0.73c0.02-0.03,0.05-0.06,0.08-0.09c10-11.77,16.03-26.96,16.03-43.53
			c0-0.2,0-0.41,0-0.62"/>
		<path class="st1" d="M12.98,98.08c-2.7-5.93-4.38-12.37-4.77-18.85c-0.06-0.88-0.03-2.06-0.05-2.95c0-1.21-0.99-2.2-2.21-2.2
			S2.12,76.3,0.3,76.3c1.87,14.31,8.41,27.85,18.51,38.26c4.94,5.1,11.06,9.05,18.02,10.91c5.98,1.6,12.31,0.88,17.83-1.87
			c2.63-1.32,5.06-3.1,7.08-5.26c2.14-2.29,3.8-5.08,5.33-7.8c1.61-2.88,3-5.87,4.27-8.91c1.33-3.24,2.44-6.57,3.91-9.76
			c5.57-12.04,13.41-23.05,24.01-31.24c5.18-4.01,10.84-7.37,16.84-10.02c3.06-1.34,6.18-2.48,9.39-3.44
			c1.53-0.45,3.08-0.87,4.64-1.23c1.39-0.43,2.16-1.9,1.7-3.24c-3.89-9.73-10.13-18.48-17.99-25.46c-0.06-0.05-0.1-0.09-0.16-0.14
			c-0.45-0.39-1.04-0.64-1.69-0.64c-0.7,0-1.3,0.42-1.84,0.79c-12.63,8.69-21.93,23.18-21.93,23.18s4.93-12.38,15.43-27.66
			c0.25-0.37,0.38-0.83,0.38-1.32c0-0.87-0.43-1.62-1.08-2.08c-0.09-0.05-0.17-0.1-0.26-0.15C96.19,5.49,89.1,2.78,81.7,1.32
			c-5.38-1.08-10.9-1.49-16.39-1.26c-0.01,0-0.03,0-0.05,0c-0.03,0-0.06,0-0.08,0c-1.37,0.05-2.42,1.16-2.48,2.53
			c-0.7,17.78,2.82,48.37,2.82,48.37S59.25,20.81,53.07,4.1c-0.38-1.02-1.29-1.78-2.43-1.78c-0.17,0-0.34,0.01-0.5,0.05
			c-0.02,0-0.03,0.01-0.06,0.01c-0.44,0.12-0.89,0.24-1.32,0.37c-10.33,3.02-19.88,8.51-27.68,15.84c-1.35,1.26-2.62,2.58-3.88,3.96
			c-0.03,0.03-0.06,0.07-0.09,0.09c-0.42,0.45-0.68,1.05-0.68,1.72s0.24,1.41,0.76,1.79C30.68,36.3,40.62,47.86,40.62,47.86
			s-12.76-9.33-27.96-15.27c-0.42-0.16-0.84-0.37-1.32-0.37c-0.88,0-1.65,0.44-2.12,1.11c0,0.01-0.01,0.03-0.02,0.05
			c-2.2,3.7-4.06,7.61-5.51,11.64c-1.86,5.18-3.07,10.56-3.62,16c-0.14,1.39-0.23,2.81,1.21,3.59c0.57,0.32,1.2,0.37,1.83,0.24
			c0.94-0.19,1.87-0.36,2.81-0.52c3.62-0.59,7.29-0.86,10.94-0.81c7.33,0.08,14.65,1.39,21.51,3.93
			c6.34,2.35,12.14,6.03,16.52,11.18c8.27,9.73,12.68,26.41,3.15,36.76c-4.36,4.76-10.8,7.07-17.25,6.5c-3.31-0.3-6.24-1.45-9.14-3
			c-2.65-1.41-5.14-3.05-7.39-5.02c-4.89-4.3-8.63-9.88-11.3-15.76"/>
	</g>
	<g>
		<path class="st0" d="M186.33,31.27c0-7.81,1.66-8.64,11.79-9.9v-4.18H158.3v4.18c9.99,1.25,11.8,2.09,11.8,9.9v50.04
			c0,23.97,14.57,35.12,37.88,35.12c19.84,0,35.66-11.15,35.66-34.71V31.41c0-7.81,1.8-8.78,11.79-10.04v-4.18h-31.5v4.18
			c11.52,1.11,13.46,2.23,13.46,10.04v47.81c0,20.49-10.82,28.99-27.75,28.99c-15.13,0-23.31-10.45-23.31-28.01V31.27z"/>
		<path class="st0" d="M255.4,17.19l-2.08,30.52h3.75c8.19-20.07,11.24-25.92,22.76-25.92h9.02v79.59c0,7.81-3.61,8.22-13.18,9.48
			v4.18h42.46v-4.18c-9.44-1.25-13.05-1.67-13.05-9.48V21.79h8.88c11.52,0,14.57,5.85,22.9,25.92h3.61l-2.08-30.52H255.4z"/>
		<path class="st0" d="M369.08,111.83c-12.35,0-16.55-16.31-16.55-35.68c0-18.54,5.83-30.94,17.21-30.94
			c12.49,0,18.04,16.17,18.04,35.68C387.78,99.43,380.46,111.83,369.08,111.83z M369.74,116.43c19.43,0,34.42-15.75,34.42-39.72
			c0-21.46-13.46-36.1-33.72-36.1c-19.43,0-34.42,15.75-34.42,39.58C336.02,101.94,349.48,116.43,369.74,116.43z"/>
		<path class="st0" d="M431.25,75.32l31.36,39.72h16.93v-2.93L445.27,69.6l19.98-18.4c3.19-2.93,5.83-4.04,11.1-5.16V42h-28.45v4.04
			c6.52,0.7,9.16,0.98,9.16,3.62c0,1.81-1.53,3.48-3.75,5.44L431.25,75.32z M414.18,104.45c0,5.16-2.22,6.13-9.16,6.55v4.04h33.86
			V111c-6.94-0.42-9.16-1.39-9.16-6.55V5.9h-2.36l-21.93,6.83v2.09l8.74,4.74V104.45z"/>
		<path class="st0" d="M517.66,99.15l-17.9-44.6c-0.56-1.67-0.83-2.79-0.83-3.9c0-3.21,2.5-3.76,9.58-4.6V42h-33.86v4.04
			c5,1.25,5.83,2.23,7.08,5.16l28.73,66.07l-2.5,6.69c-3.19,8.64-7.91,10.73-15.4,10.73c-3.89,0-5.97-0.56-8.6-1.25v5.44
			c1.25,4.18,5.83,6.69,10.27,6.69c8.74,0,13.04-5.99,17.21-16.59l29.97-77.77c1.11-2.79,2.08-3.9,7.08-5.16V42h-23.04v4.04
			c7.08,0.84,9.58,1.39,9.58,4.6c0,1.12-0.28,2.23-0.83,3.9L517.66,99.15z"/>
		<path class="st0" d="M578.52,111.83c-12.35,0-17.9-16.31-17.9-35.68c0-18.54,5.83-30.94,17.21-30.94
			c12.49,0,18.04,16.17,18.04,35.68C595.87,99.43,589.9,111.83,578.52,111.83z M577.83,116.43c19.43,0,34.42-15.75,34.42-39.72
			c0-21.46-13.46-36.1-33.72-36.1c-19.43,0-34.42,15.75-34.42,39.58C544.11,101.94,557.57,116.43,577.83,116.43z"/>
	</g>
</g>
</svg>
